M48
; DRILL file {KiCad 9.0.6} date 2025-12-04T12:39:59-0800
; FORMAT={-:-/ absolute / inch / decimal}
; #@! TF.CreationDate,2025-12-04T12:39:59-08:00
; #@! TF.GenerationSoftware,Kicad,Pcbnew,9.0.6
; #@! TF.FileFunction,Plated,1,4,PTH
FMAT,2
INCH
; #@! TA.AperFunction,Plated,PTH,ViaDrill
T1C0.0118
; #@! TA.AperFunction,Plated,PTH,ComponentDrill
T2C0.0315
; #@! TA.AperFunction,Plated,PTH,ComponentDrill
T3C0.0374
; #@! TA.AperFunction,Plated,PTH,ComponentDrill
T4C0.0394
; #@! TA.AperFunction,Plated,PTH,ComponentDrill
T5C0.0866
%
G90
G05
T1
X4.5854Y-2.3268
X4.5854Y-2.3622
X4.5854Y-2.3996
X4.647Y-2.4311
X4.647Y-2.4606
X4.6878Y-2.2087
X4.6878Y-2.2402
X4.6878Y-2.2717
X4.7193Y-2.2087
X4.7193Y-2.2402
X4.7193Y-2.2717
X4.7823Y-2.5492
X4.7823Y-2.5886
X4.7823Y-2.628
X4.8217Y-2.5492
X4.8217Y-2.5886
X4.8217Y-2.628
X4.861Y-2.5492
X4.861Y-2.5886
X4.861Y-2.628
T2
X4.493Y-2.6575
X4.493Y-2.9575
X4.593Y-2.6575
X4.593Y-2.9575
X5.0591Y-2.6575
X5.0591Y-2.9575
X5.1591Y-2.6575
X5.1591Y-2.9575
T3
X4.6378Y-3.2569
X4.7362Y-3.2569
X4.8346Y-3.2569
X4.9331Y-3.2569
X5.0315Y-3.2569
T4
X4.0732Y-2.2441
X4.0732Y-2.3441
X4.0732Y-2.4441
X4.0732Y-2.5441
X4.0732Y-2.6441
X4.0732Y-2.7441
X4.0732Y-2.8441
X4.0732Y-2.9441
X4.1732Y-2.2441
X4.1732Y-2.3441
X4.1732Y-2.4441
X4.1732Y-2.5441
X4.1732Y-2.6441
X4.1732Y-2.7441
X4.1732Y-2.8441
X4.1732Y-2.9441
X4.4173Y-2.2047
X4.4173Y-2.3047
X4.4173Y-2.4047
X5.3921Y-2.2429
X5.3921Y-2.3429
X5.3921Y-2.4429
X5.3921Y-2.5429
X5.3921Y-2.6429
X5.3921Y-2.7429
X5.3921Y-2.8429
X5.3921Y-2.9429
X5.4921Y-2.2429
X5.4921Y-2.3429
X5.4921Y-2.4429
X5.4921Y-2.5429
X5.4921Y-2.6429
X5.4921Y-2.7429
X5.4921Y-2.8429
X5.4921Y-2.9429
T5
X4.0315Y-3.4488
X4.0354Y-2.0669
X5.6102Y-2.0669
X5.6142Y-3.4488
M30
