M48
; DRILL file {KiCad 9.0.6} date 2025-12-16T23:42:37-0800
; FORMAT={-:-/ absolute / inch / decimal}
; #@! TF.CreationDate,2025-12-16T23:42:37-08:00
; #@! TF.GenerationSoftware,Kicad,Pcbnew,9.0.6
; #@! TF.FileFunction,Plated,1,2,PTH
FMAT,2
INCH
; #@! TA.AperFunction,Plated,PTH,ViaDrill
T1C0.0118
; #@! TA.AperFunction,Plated,PTH,ComponentDrill
T2C0.0118
; #@! TA.AperFunction,Plated,PTH,ComponentDrill
T3C0.0374
; #@! TA.AperFunction,Plated,PTH,ComponentDrill
T4C0.0394
; #@! TA.AperFunction,Plated,PTH,ComponentDrill
T5C0.0866
%
G90
G05
T1
X4.813Y-2.4902
X4.8524Y-2.4902
X4.8917Y-2.2381
X4.9409Y-2.2835
X5.0Y-2.3381
X5.0984Y-2.5394
X5.1378Y-2.4409
X5.1772Y-2.4381
X5.2756Y-2.6817
X5.315Y-2.2381
X5.374Y-2.3835
X5.4134Y-2.5394
T2
X4.8002Y-2.674
X4.8002Y-2.7173
X4.8002Y-2.7606
X4.8435Y-2.674
X4.8435Y-2.7173
X4.8435Y-2.7606
X4.8868Y-2.674
X4.8868Y-2.7173
X4.8868Y-2.7606
X4.9301Y-2.674
X4.9301Y-2.7173
X4.9301Y-2.7606
X4.9734Y-2.674
X4.9734Y-2.7173
X4.9734Y-2.7606
T3
X4.493Y-3.0258
X4.5914Y-3.0258
X4.6898Y-3.0258
X4.7882Y-3.0258
X4.8867Y-3.0258
T4
X4.1815Y-2.2835
X4.1815Y-2.3835
X4.1815Y-2.4835
X4.1815Y-2.5835
X4.1815Y-2.6835
X4.1815Y-2.7835
X4.1815Y-2.8835
X4.1815Y-2.9835
X4.2815Y-2.2835
X4.2815Y-2.3835
X4.2815Y-2.4835
X4.2815Y-2.5835
X4.2815Y-2.6835
X4.2815Y-2.7835
X4.2815Y-2.8835
X4.2815Y-2.9835
X5.1181Y-3.0709
X5.2181Y-3.0709
X5.3181Y-3.0709
X5.502Y-2.2835
X5.502Y-2.3835
X5.502Y-2.4835
X5.502Y-2.5835
X5.502Y-2.6835
X5.502Y-2.7835
X5.502Y-2.8835
X5.502Y-2.9835
X5.602Y-2.2835
X5.602Y-2.3835
X5.602Y-2.4835
X5.602Y-2.5835
X5.602Y-2.6835
X5.602Y-2.7835
X5.602Y-2.8835
X5.602Y-2.9835
T5
X4.0315Y-3.2087
X4.0354Y-2.0669
X5.7283Y-2.0669
X5.7283Y-3.2087
M30
