%TF.GenerationSoftware,KiCad,Pcbnew,9.0.6*%
%TF.CreationDate,2025-12-04T12:39:59-08:00*%
%TF.ProjectId,driver3,64726976-6572-4332-9e6b-696361645f70,rev?*%
%TF.SameCoordinates,Original*%
%TF.FileFunction,Copper,L3,Inr*%
%TF.FilePolarity,Positive*%
%FSLAX46Y46*%
G04 Gerber Fmt 4.6, Leading zero omitted, Abs format (unit mm)*
G04 Created by KiCad (PCBNEW 9.0.6) date 2025-12-04 12:39:59*
%MOMM*%
%LPD*%
G01*
G04 APERTURE LIST*
G04 Aperture macros list*
%AMRoundRect*
0 Rectangle with rounded corners*
0 $1 Rounding radius*
0 $2 $3 $4 $5 $6 $7 $8 $9 X,Y pos of 4 corners*
0 Add a 4 corners polygon primitive as box body*
4,1,4,$2,$3,$4,$5,$6,$7,$8,$9,$2,$3,0*
0 Add four circle primitives for the rounded corners*
1,1,$1+$1,$2,$3*
1,1,$1+$1,$4,$5*
1,1,$1+$1,$6,$7*
1,1,$1+$1,$8,$9*
0 Add four rect primitives between the rounded corners*
20,1,$1+$1,$2,$3,$4,$5,0*
20,1,$1+$1,$4,$5,$6,$7,0*
20,1,$1+$1,$6,$7,$8,$9,0*
20,1,$1+$1,$8,$9,$2,$3,0*%
G04 Aperture macros list end*
%TA.AperFunction,ComponentPad*%
%ADD10C,3.800000*%
%TD*%
%TA.AperFunction,ComponentPad*%
%ADD11RoundRect,0.250000X0.550000X-0.550000X0.550000X0.550000X-0.550000X0.550000X-0.550000X-0.550000X0*%
%TD*%
%TA.AperFunction,ComponentPad*%
%ADD12C,1.600000*%
%TD*%
%TA.AperFunction,ComponentPad*%
%ADD13R,1.700000X1.700000*%
%TD*%
%TA.AperFunction,ComponentPad*%
%ADD14C,1.700000*%
%TD*%
%TA.AperFunction,ComponentPad*%
%ADD15RoundRect,0.250000X0.600000X0.725000X-0.600000X0.725000X-0.600000X-0.725000X0.600000X-0.725000X0*%
%TD*%
%TA.AperFunction,ComponentPad*%
%ADD16O,1.700000X1.950000*%
%TD*%
%TA.AperFunction,ViaPad*%
%ADD17C,0.600000*%
%TD*%
G04 APERTURE END LIST*
D10*
%TO.N,unconnected-(H4-Pad1)*%
%TO.C,H4*%
X142600000Y-87600000D03*
%TD*%
D11*
%TO.N,GND*%
%TO.C,SW2*%
X128500000Y-75120000D03*
D12*
X131040000Y-75120000D03*
%TO.N,A3*%
X131040000Y-67500000D03*
%TO.N,A2*%
X128500000Y-67500000D03*
%TD*%
D10*
%TO.N,unconnected-(H2-Pad1)*%
%TO.C,H2*%
X102500000Y-52500000D03*
%TD*%
D13*
%TO.N,SCL*%
%TO.C,J2*%
X106000000Y-57000000D03*
D14*
%TO.N,GND*%
X103460000Y-57000000D03*
X106000000Y-59540000D03*
%TO.N,+12V*%
X103460000Y-59540000D03*
%TO.N,SDA*%
X106000000Y-62080000D03*
%TO.N,GND*%
X103460000Y-62080000D03*
X106000000Y-64620000D03*
%TO.N,+12V*%
X103460000Y-64620000D03*
%TO.N,NFAULT*%
X106000000Y-67160000D03*
%TO.N,GND*%
X103460000Y-67160000D03*
X106000000Y-69700000D03*
%TO.N,+12V*%
X103460000Y-69700000D03*
%TO.N,NENBL*%
X106000000Y-72240000D03*
%TO.N,GND*%
X103460000Y-72240000D03*
%TO.N,+5V*%
X106000000Y-74780000D03*
%TO.N,+12V*%
X103460000Y-74780000D03*
%TD*%
D15*
%TO.N,Net-(J3-Pin_1)*%
%TO.C,J3*%
X127800000Y-82725000D03*
D16*
%TO.N,Net-(J3-Pin_2)*%
X125300000Y-82725000D03*
%TO.N,Net-(J3-Pin_3)*%
X122800000Y-82725000D03*
%TO.N,Net-(J3-Pin_4)*%
X120300000Y-82725000D03*
%TO.N,+12V*%
X117800000Y-82725000D03*
%TD*%
D13*
%TO.N,SCL*%
%TO.C,J1*%
X136960000Y-56970000D03*
D14*
%TO.N,GND*%
X139500000Y-56970000D03*
X136960000Y-59510000D03*
%TO.N,+12V*%
X139500000Y-59510000D03*
%TO.N,SDA*%
X136960000Y-62050000D03*
%TO.N,GND*%
X139500000Y-62050000D03*
X136960000Y-64590000D03*
%TO.N,+12V*%
X139500000Y-64590000D03*
%TO.N,NFAULT*%
X136960000Y-67130000D03*
%TO.N,GND*%
X139500000Y-67130000D03*
X136960000Y-69670000D03*
%TO.N,+12V*%
X139500000Y-69670000D03*
%TO.N,NENBL*%
X136960000Y-72210000D03*
%TO.N,GND*%
X139500000Y-72210000D03*
%TO.N,+5V*%
X136960000Y-74750000D03*
%TO.N,+12V*%
X139500000Y-74750000D03*
%TD*%
D10*
%TO.N,unconnected-(H1-Pad1)*%
%TO.C,H1*%
X142500000Y-52500000D03*
%TD*%
D13*
%TO.N,Net-(J4-Pin_1)*%
%TO.C,J4*%
X112200000Y-61080000D03*
D14*
%TO.N,+5V*%
X112200000Y-58540000D03*
%TO.N,GND*%
X112200000Y-56000000D03*
%TD*%
D10*
%TO.N,unconnected-(H3-Pad1)*%
%TO.C,H3*%
X102400000Y-87600000D03*
%TD*%
D11*
%TO.N,GND*%
%TO.C,SW1*%
X114121192Y-75120000D03*
D12*
X116661192Y-75120000D03*
%TO.N,A1*%
X116661192Y-67500000D03*
%TO.N,A0*%
X114121192Y-67500000D03*
%TD*%
D17*
%TO.N,+12V*%
X119870000Y-56100000D03*
X119870000Y-57700000D03*
X119070000Y-57700000D03*
X119870000Y-56900000D03*
X119070000Y-56900000D03*
X119070000Y-56100000D03*
%TO.N,GND*%
X123470000Y-64750000D03*
X122470000Y-64750000D03*
X121470000Y-65750000D03*
X122470000Y-65750000D03*
X121470000Y-66750000D03*
X121470000Y-64750000D03*
X123470000Y-65750000D03*
X123470000Y-66750000D03*
X116470000Y-59100000D03*
X122470000Y-66750000D03*
X116470000Y-60000000D03*
X116470000Y-60950000D03*
X118033000Y-61750000D03*
X118033000Y-62500000D03*
%TD*%
%TA.AperFunction,Conductor*%
%TO.N,GND*%
G36*
X104575270Y-73001717D02*
G01*
X104575270Y-73001716D01*
X104614622Y-72947555D01*
X104619232Y-72938507D01*
X104667205Y-72887709D01*
X104735025Y-72870912D01*
X104801161Y-72893447D01*
X104840204Y-72938504D01*
X104844949Y-72947817D01*
X104969890Y-73119786D01*
X105120213Y-73270109D01*
X105292182Y-73395050D01*
X105300946Y-73399516D01*
X105351742Y-73447491D01*
X105368536Y-73515312D01*
X105345998Y-73581447D01*
X105300946Y-73620484D01*
X105292182Y-73624949D01*
X105120213Y-73749890D01*
X104969890Y-73900213D01*
X104844949Y-74072182D01*
X104840484Y-74080946D01*
X104792509Y-74131742D01*
X104724688Y-74148536D01*
X104658553Y-74125998D01*
X104619516Y-74080946D01*
X104615050Y-74072182D01*
X104490109Y-73900213D01*
X104339786Y-73749890D01*
X104167817Y-73624949D01*
X104158504Y-73620204D01*
X104107707Y-73572230D01*
X104090912Y-73504409D01*
X104113449Y-73438274D01*
X104158507Y-73399232D01*
X104167555Y-73394622D01*
X104221716Y-73355270D01*
X104221717Y-73355270D01*
X103589408Y-72722962D01*
X103652993Y-72705925D01*
X103767007Y-72640099D01*
X103860099Y-72547007D01*
X103925925Y-72432993D01*
X103942962Y-72369408D01*
X104575270Y-73001717D01*
G37*
%TD.AperFunction*%
%TA.AperFunction,Conductor*%
G36*
X105534075Y-69892993D02*
G01*
X105599901Y-70007007D01*
X105692993Y-70100099D01*
X105807007Y-70165925D01*
X105870590Y-70182962D01*
X105238282Y-70815269D01*
X105238282Y-70815270D01*
X105292452Y-70854626D01*
X105292451Y-70854626D01*
X105301495Y-70859234D01*
X105352292Y-70907208D01*
X105369087Y-70975029D01*
X105346550Y-71041164D01*
X105301499Y-71080202D01*
X105292182Y-71084949D01*
X105120213Y-71209890D01*
X104969890Y-71360213D01*
X104844949Y-71532182D01*
X104840202Y-71541499D01*
X104792227Y-71592293D01*
X104724405Y-71609087D01*
X104658271Y-71586548D01*
X104619234Y-71541495D01*
X104614626Y-71532452D01*
X104575270Y-71478282D01*
X104575269Y-71478282D01*
X103942962Y-72110590D01*
X103925925Y-72047007D01*
X103860099Y-71932993D01*
X103767007Y-71839901D01*
X103652993Y-71774075D01*
X103589409Y-71757037D01*
X104221716Y-71124728D01*
X104167547Y-71085373D01*
X104167547Y-71085372D01*
X104158500Y-71080763D01*
X104107706Y-71032788D01*
X104090912Y-70964966D01*
X104113451Y-70898832D01*
X104158508Y-70859793D01*
X104167816Y-70855051D01*
X104263862Y-70785270D01*
X104339786Y-70730109D01*
X104339788Y-70730106D01*
X104339792Y-70730104D01*
X104490104Y-70579792D01*
X104490106Y-70579788D01*
X104490109Y-70579786D01*
X104575890Y-70461717D01*
X104615051Y-70407816D01*
X104619793Y-70398508D01*
X104667763Y-70347711D01*
X104735583Y-70330911D01*
X104801719Y-70353445D01*
X104840763Y-70398500D01*
X104845373Y-70407547D01*
X104884728Y-70461716D01*
X105517037Y-69829408D01*
X105534075Y-69892993D01*
G37*
%TD.AperFunction*%
%TA.AperFunction,Conductor*%
G36*
X104575270Y-67921717D02*
G01*
X104575270Y-67921716D01*
X104614622Y-67867555D01*
X104619232Y-67858507D01*
X104667205Y-67807709D01*
X104735025Y-67790912D01*
X104801161Y-67813447D01*
X104840204Y-67858504D01*
X104844949Y-67867817D01*
X104969890Y-68039786D01*
X105120213Y-68190109D01*
X105292179Y-68315048D01*
X105292181Y-68315049D01*
X105292184Y-68315051D01*
X105301493Y-68319794D01*
X105352290Y-68367766D01*
X105369087Y-68435587D01*
X105346552Y-68501722D01*
X105301505Y-68540760D01*
X105292446Y-68545376D01*
X105292440Y-68545380D01*
X105238282Y-68584727D01*
X105238282Y-68584728D01*
X105870591Y-69217037D01*
X105807007Y-69234075D01*
X105692993Y-69299901D01*
X105599901Y-69392993D01*
X105534075Y-69507007D01*
X105517037Y-69570591D01*
X104884728Y-68938282D01*
X104884727Y-68938282D01*
X104845380Y-68992440D01*
X104845376Y-68992446D01*
X104840760Y-69001505D01*
X104792781Y-69052297D01*
X104724959Y-69069087D01*
X104658826Y-69046543D01*
X104619794Y-69001493D01*
X104615051Y-68992184D01*
X104615049Y-68992181D01*
X104615048Y-68992179D01*
X104490109Y-68820213D01*
X104339786Y-68669890D01*
X104167817Y-68544949D01*
X104158504Y-68540204D01*
X104107707Y-68492230D01*
X104090912Y-68424409D01*
X104113449Y-68358274D01*
X104158507Y-68319232D01*
X104167555Y-68314622D01*
X104221716Y-68275270D01*
X104221717Y-68275270D01*
X103589408Y-67642962D01*
X103652993Y-67625925D01*
X103767007Y-67560099D01*
X103860099Y-67467007D01*
X103925925Y-67352993D01*
X103942962Y-67289409D01*
X104575270Y-67921717D01*
G37*
%TD.AperFunction*%
%TA.AperFunction,Conductor*%
G36*
X105534075Y-64812993D02*
G01*
X105599901Y-64927007D01*
X105692993Y-65020099D01*
X105807007Y-65085925D01*
X105870590Y-65102962D01*
X105238282Y-65735269D01*
X105238282Y-65735270D01*
X105292452Y-65774626D01*
X105292451Y-65774626D01*
X105301495Y-65779234D01*
X105352292Y-65827208D01*
X105369087Y-65895029D01*
X105346550Y-65961164D01*
X105301499Y-66000202D01*
X105292182Y-66004949D01*
X105120213Y-66129890D01*
X104969890Y-66280213D01*
X104844949Y-66452182D01*
X104840202Y-66461499D01*
X104792227Y-66512293D01*
X104724405Y-66529087D01*
X104658271Y-66506548D01*
X104619234Y-66461495D01*
X104614626Y-66452452D01*
X104575270Y-66398282D01*
X104575269Y-66398282D01*
X103942962Y-67030590D01*
X103925925Y-66967007D01*
X103860099Y-66852993D01*
X103767007Y-66759901D01*
X103652993Y-66694075D01*
X103589409Y-66677037D01*
X104221716Y-66044728D01*
X104167547Y-66005373D01*
X104167547Y-66005372D01*
X104158500Y-66000763D01*
X104107706Y-65952788D01*
X104090912Y-65884966D01*
X104113451Y-65818832D01*
X104158508Y-65779793D01*
X104167816Y-65775051D01*
X104263862Y-65705270D01*
X104339786Y-65650109D01*
X104339788Y-65650106D01*
X104339792Y-65650104D01*
X104490104Y-65499792D01*
X104490106Y-65499788D01*
X104490109Y-65499786D01*
X104575890Y-65381717D01*
X104615051Y-65327816D01*
X104619793Y-65318508D01*
X104667763Y-65267711D01*
X104735583Y-65250911D01*
X104801719Y-65273445D01*
X104840763Y-65318500D01*
X104845373Y-65327547D01*
X104884728Y-65381716D01*
X105517037Y-64749408D01*
X105534075Y-64812993D01*
G37*
%TD.AperFunction*%
%TA.AperFunction,Conductor*%
G36*
X104575270Y-62841717D02*
G01*
X104575270Y-62841716D01*
X104614622Y-62787555D01*
X104619232Y-62778507D01*
X104667205Y-62727709D01*
X104735025Y-62710912D01*
X104801161Y-62733447D01*
X104840204Y-62778504D01*
X104844949Y-62787817D01*
X104969890Y-62959786D01*
X105120213Y-63110109D01*
X105292179Y-63235048D01*
X105292181Y-63235049D01*
X105292184Y-63235051D01*
X105301493Y-63239794D01*
X105352290Y-63287766D01*
X105369087Y-63355587D01*
X105346552Y-63421722D01*
X105301505Y-63460760D01*
X105292446Y-63465376D01*
X105292440Y-63465380D01*
X105238282Y-63504727D01*
X105238282Y-63504728D01*
X105870591Y-64137037D01*
X105807007Y-64154075D01*
X105692993Y-64219901D01*
X105599901Y-64312993D01*
X105534075Y-64427007D01*
X105517037Y-64490591D01*
X104884728Y-63858282D01*
X104884727Y-63858282D01*
X104845380Y-63912440D01*
X104845376Y-63912446D01*
X104840760Y-63921505D01*
X104792781Y-63972297D01*
X104724959Y-63989087D01*
X104658826Y-63966543D01*
X104619794Y-63921493D01*
X104615051Y-63912184D01*
X104615049Y-63912181D01*
X104615048Y-63912179D01*
X104490109Y-63740213D01*
X104339786Y-63589890D01*
X104167817Y-63464949D01*
X104158504Y-63460204D01*
X104107707Y-63412230D01*
X104090912Y-63344409D01*
X104113449Y-63278274D01*
X104158507Y-63239232D01*
X104167555Y-63234622D01*
X104221716Y-63195270D01*
X104221717Y-63195270D01*
X103589408Y-62562962D01*
X103652993Y-62545925D01*
X103767007Y-62480099D01*
X103860099Y-62387007D01*
X103925925Y-62272993D01*
X103942962Y-62209408D01*
X104575270Y-62841717D01*
G37*
%TD.AperFunction*%
%TA.AperFunction,Conductor*%
G36*
X105534075Y-59732993D02*
G01*
X105599901Y-59847007D01*
X105692993Y-59940099D01*
X105807007Y-60005925D01*
X105870590Y-60022962D01*
X105238282Y-60655269D01*
X105238282Y-60655270D01*
X105292452Y-60694626D01*
X105292451Y-60694626D01*
X105301495Y-60699234D01*
X105352292Y-60747208D01*
X105369087Y-60815029D01*
X105346550Y-60881164D01*
X105301499Y-60920202D01*
X105292182Y-60924949D01*
X105120213Y-61049890D01*
X104969890Y-61200213D01*
X104844949Y-61372182D01*
X104840202Y-61381499D01*
X104792227Y-61432293D01*
X104724405Y-61449087D01*
X104658271Y-61426548D01*
X104619234Y-61381495D01*
X104614626Y-61372452D01*
X104575270Y-61318282D01*
X104575269Y-61318282D01*
X103942962Y-61950590D01*
X103925925Y-61887007D01*
X103860099Y-61772993D01*
X103767007Y-61679901D01*
X103652993Y-61614075D01*
X103589409Y-61597037D01*
X104221716Y-60964728D01*
X104167547Y-60925373D01*
X104167547Y-60925372D01*
X104158500Y-60920763D01*
X104107706Y-60872788D01*
X104090912Y-60804966D01*
X104113451Y-60738832D01*
X104158508Y-60699793D01*
X104167816Y-60695051D01*
X104263862Y-60625270D01*
X104339786Y-60570109D01*
X104339788Y-60570106D01*
X104339792Y-60570104D01*
X104490104Y-60419792D01*
X104490106Y-60419788D01*
X104490109Y-60419786D01*
X104575890Y-60301717D01*
X104615051Y-60247816D01*
X104619793Y-60238508D01*
X104667763Y-60187711D01*
X104735583Y-60170911D01*
X104801719Y-60193445D01*
X104840763Y-60238500D01*
X104845373Y-60247547D01*
X104884728Y-60301716D01*
X105517037Y-59669408D01*
X105534075Y-59732993D01*
G37*
%TD.AperFunction*%
%TA.AperFunction,Conductor*%
G36*
X104613181Y-57799628D02*
G01*
X104646666Y-57860951D01*
X104649500Y-57887300D01*
X104649500Y-57897865D01*
X104649501Y-57897876D01*
X104655908Y-57957483D01*
X104706202Y-58092328D01*
X104706206Y-58092335D01*
X104792452Y-58207544D01*
X104792455Y-58207547D01*
X104907664Y-58293793D01*
X104907671Y-58293797D01*
X104952618Y-58310561D01*
X105042517Y-58344091D01*
X105102127Y-58350500D01*
X105112685Y-58350499D01*
X105179723Y-58370179D01*
X105200372Y-58386818D01*
X105870591Y-59057037D01*
X105807007Y-59074075D01*
X105692993Y-59139901D01*
X105599901Y-59232993D01*
X105534075Y-59347007D01*
X105517037Y-59410591D01*
X104884728Y-58778282D01*
X104884727Y-58778282D01*
X104845380Y-58832440D01*
X104845376Y-58832446D01*
X104840760Y-58841505D01*
X104792781Y-58892297D01*
X104724959Y-58909087D01*
X104658826Y-58886543D01*
X104619794Y-58841493D01*
X104615051Y-58832184D01*
X104615049Y-58832181D01*
X104615048Y-58832179D01*
X104490109Y-58660213D01*
X104339786Y-58509890D01*
X104167817Y-58384949D01*
X104158504Y-58380204D01*
X104107707Y-58332230D01*
X104090912Y-58264409D01*
X104113449Y-58198274D01*
X104158507Y-58159232D01*
X104167555Y-58154622D01*
X104221716Y-58115270D01*
X104221717Y-58115270D01*
X103589408Y-57482962D01*
X103652993Y-57465925D01*
X103767007Y-57400099D01*
X103860099Y-57307007D01*
X103925925Y-57192993D01*
X103942962Y-57129408D01*
X104613181Y-57799628D01*
G37*
%TD.AperFunction*%
%TA.AperFunction,Conductor*%
G36*
X139034075Y-72402993D02*
G01*
X139099901Y-72517007D01*
X139192993Y-72610099D01*
X139307007Y-72675925D01*
X139370590Y-72692962D01*
X138738282Y-73325269D01*
X138738282Y-73325270D01*
X138792452Y-73364626D01*
X138792451Y-73364626D01*
X138801495Y-73369234D01*
X138852292Y-73417208D01*
X138869087Y-73485029D01*
X138846550Y-73551164D01*
X138801499Y-73590202D01*
X138792182Y-73594949D01*
X138620213Y-73719890D01*
X138469890Y-73870213D01*
X138344949Y-74042182D01*
X138340484Y-74050946D01*
X138292509Y-74101742D01*
X138224688Y-74118536D01*
X138158553Y-74095998D01*
X138119516Y-74050946D01*
X138115050Y-74042182D01*
X137990109Y-73870213D01*
X137839786Y-73719890D01*
X137667820Y-73594951D01*
X137667115Y-73594591D01*
X137659054Y-73590485D01*
X137608259Y-73542512D01*
X137591463Y-73474692D01*
X137613999Y-73408556D01*
X137659054Y-73369515D01*
X137667816Y-73365051D01*
X137722572Y-73325269D01*
X137839786Y-73240109D01*
X137839788Y-73240106D01*
X137839792Y-73240104D01*
X137990104Y-73089792D01*
X137990106Y-73089788D01*
X137990109Y-73089786D01*
X138075890Y-72971717D01*
X138115051Y-72917816D01*
X138119793Y-72908508D01*
X138167763Y-72857711D01*
X138235583Y-72840911D01*
X138301719Y-72863445D01*
X138340763Y-72908500D01*
X138345373Y-72917547D01*
X138384728Y-72971716D01*
X139017036Y-72339407D01*
X139034075Y-72402993D01*
G37*
%TD.AperFunction*%
%TA.AperFunction,Conductor*%
G36*
X138075270Y-70431717D02*
G01*
X138075270Y-70431716D01*
X138114622Y-70377555D01*
X138119232Y-70368507D01*
X138167205Y-70317709D01*
X138235025Y-70300912D01*
X138301161Y-70323447D01*
X138340204Y-70368504D01*
X138344949Y-70377817D01*
X138469890Y-70549786D01*
X138620213Y-70700109D01*
X138792179Y-70825048D01*
X138792181Y-70825049D01*
X138792184Y-70825051D01*
X138801493Y-70829794D01*
X138852290Y-70877766D01*
X138869087Y-70945587D01*
X138846552Y-71011722D01*
X138801505Y-71050760D01*
X138792446Y-71055376D01*
X138792440Y-71055380D01*
X138738282Y-71094727D01*
X138738282Y-71094728D01*
X139370591Y-71727037D01*
X139307007Y-71744075D01*
X139192993Y-71809901D01*
X139099901Y-71902993D01*
X139034075Y-72017007D01*
X139017037Y-72080591D01*
X138384728Y-71448282D01*
X138384727Y-71448282D01*
X138345380Y-71502440D01*
X138345376Y-71502446D01*
X138340760Y-71511505D01*
X138292781Y-71562297D01*
X138224959Y-71579087D01*
X138158826Y-71556543D01*
X138119794Y-71511493D01*
X138115051Y-71502184D01*
X138115049Y-71502181D01*
X138115048Y-71502179D01*
X137990109Y-71330213D01*
X137839786Y-71179890D01*
X137667817Y-71054949D01*
X137658504Y-71050204D01*
X137607707Y-71002230D01*
X137590912Y-70934409D01*
X137613449Y-70868274D01*
X137658507Y-70829232D01*
X137667555Y-70824622D01*
X137721716Y-70785270D01*
X137721717Y-70785270D01*
X137089408Y-70152962D01*
X137152993Y-70135925D01*
X137267007Y-70070099D01*
X137360099Y-69977007D01*
X137425925Y-69862993D01*
X137442962Y-69799408D01*
X138075270Y-70431717D01*
G37*
%TD.AperFunction*%
%TA.AperFunction,Conductor*%
G36*
X139034075Y-67322993D02*
G01*
X139099901Y-67437007D01*
X139192993Y-67530099D01*
X139307007Y-67595925D01*
X139370590Y-67612962D01*
X138738282Y-68245269D01*
X138738282Y-68245270D01*
X138792452Y-68284626D01*
X138792451Y-68284626D01*
X138801495Y-68289234D01*
X138852292Y-68337208D01*
X138869087Y-68405029D01*
X138846550Y-68471164D01*
X138801499Y-68510202D01*
X138792182Y-68514949D01*
X138620213Y-68639890D01*
X138469890Y-68790213D01*
X138344949Y-68962182D01*
X138340202Y-68971499D01*
X138292227Y-69022293D01*
X138224405Y-69039087D01*
X138158271Y-69016548D01*
X138119234Y-68971495D01*
X138114626Y-68962452D01*
X138075270Y-68908282D01*
X138075269Y-68908282D01*
X137442962Y-69540590D01*
X137425925Y-69477007D01*
X137360099Y-69362993D01*
X137267007Y-69269901D01*
X137152993Y-69204075D01*
X137089409Y-69187037D01*
X137721716Y-68554728D01*
X137667547Y-68515373D01*
X137667547Y-68515372D01*
X137658500Y-68510763D01*
X137607706Y-68462788D01*
X137590912Y-68394966D01*
X137613451Y-68328832D01*
X137658508Y-68289793D01*
X137667816Y-68285051D01*
X137747007Y-68227515D01*
X137839786Y-68160109D01*
X137839788Y-68160106D01*
X137839792Y-68160104D01*
X137990104Y-68009792D01*
X137990106Y-68009788D01*
X137990109Y-68009786D01*
X138075890Y-67891717D01*
X138115051Y-67837816D01*
X138119793Y-67828508D01*
X138167763Y-67777711D01*
X138235583Y-67760911D01*
X138301719Y-67783445D01*
X138340763Y-67828500D01*
X138345373Y-67837547D01*
X138384728Y-67891716D01*
X139017037Y-67259408D01*
X139034075Y-67322993D01*
G37*
%TD.AperFunction*%
%TA.AperFunction,Conductor*%
G36*
X138075270Y-65351717D02*
G01*
X138075270Y-65351716D01*
X138114622Y-65297555D01*
X138119232Y-65288507D01*
X138167205Y-65237709D01*
X138235025Y-65220912D01*
X138301161Y-65243447D01*
X138340204Y-65288504D01*
X138344949Y-65297817D01*
X138469890Y-65469786D01*
X138620213Y-65620109D01*
X138792179Y-65745048D01*
X138792181Y-65745049D01*
X138792184Y-65745051D01*
X138801493Y-65749794D01*
X138852290Y-65797766D01*
X138869087Y-65865587D01*
X138846552Y-65931722D01*
X138801505Y-65970760D01*
X138792446Y-65975376D01*
X138792440Y-65975380D01*
X138738282Y-66014727D01*
X138738282Y-66014728D01*
X139370591Y-66647037D01*
X139307007Y-66664075D01*
X139192993Y-66729901D01*
X139099901Y-66822993D01*
X139034075Y-66937007D01*
X139017037Y-67000591D01*
X138384728Y-66368282D01*
X138384727Y-66368282D01*
X138345380Y-66422440D01*
X138345376Y-66422446D01*
X138340760Y-66431505D01*
X138292781Y-66482297D01*
X138224959Y-66499087D01*
X138158826Y-66476543D01*
X138119794Y-66431493D01*
X138115051Y-66422184D01*
X138115049Y-66422181D01*
X138115048Y-66422179D01*
X137990109Y-66250213D01*
X137839786Y-66099890D01*
X137667817Y-65974949D01*
X137658504Y-65970204D01*
X137607707Y-65922230D01*
X137590912Y-65854409D01*
X137613449Y-65788274D01*
X137658507Y-65749232D01*
X137667555Y-65744622D01*
X137721716Y-65705270D01*
X137721717Y-65705270D01*
X137089408Y-65072962D01*
X137152993Y-65055925D01*
X137267007Y-64990099D01*
X137360099Y-64897007D01*
X137425925Y-64782993D01*
X137442962Y-64719408D01*
X138075270Y-65351717D01*
G37*
%TD.AperFunction*%
%TA.AperFunction,Conductor*%
G36*
X139034075Y-62242993D02*
G01*
X139099901Y-62357007D01*
X139192993Y-62450099D01*
X139307007Y-62515925D01*
X139370590Y-62532962D01*
X138738282Y-63165269D01*
X138738282Y-63165270D01*
X138792452Y-63204626D01*
X138792451Y-63204626D01*
X138801495Y-63209234D01*
X138852292Y-63257208D01*
X138869087Y-63325029D01*
X138846550Y-63391164D01*
X138801499Y-63430202D01*
X138792182Y-63434949D01*
X138620213Y-63559890D01*
X138469890Y-63710213D01*
X138344949Y-63882182D01*
X138340202Y-63891499D01*
X138292227Y-63942293D01*
X138224405Y-63959087D01*
X138158271Y-63936548D01*
X138119234Y-63891495D01*
X138114626Y-63882452D01*
X138075270Y-63828282D01*
X138075269Y-63828282D01*
X137442962Y-64460590D01*
X137425925Y-64397007D01*
X137360099Y-64282993D01*
X137267007Y-64189901D01*
X137152993Y-64124075D01*
X137089409Y-64107037D01*
X137721716Y-63474728D01*
X137667547Y-63435373D01*
X137667547Y-63435372D01*
X137658500Y-63430763D01*
X137607706Y-63382788D01*
X137590912Y-63314966D01*
X137613451Y-63248832D01*
X137658508Y-63209793D01*
X137667816Y-63205051D01*
X137747007Y-63147515D01*
X137839786Y-63080109D01*
X137839788Y-63080106D01*
X137839792Y-63080104D01*
X137990104Y-62929792D01*
X137990106Y-62929788D01*
X137990109Y-62929786D01*
X138075890Y-62811717D01*
X138115051Y-62757816D01*
X138119793Y-62748508D01*
X138167763Y-62697711D01*
X138235583Y-62680911D01*
X138301719Y-62703445D01*
X138340763Y-62748500D01*
X138345373Y-62757547D01*
X138384728Y-62811716D01*
X139017037Y-62179408D01*
X139034075Y-62242993D01*
G37*
%TD.AperFunction*%
%TA.AperFunction,Conductor*%
G36*
X138075270Y-60271717D02*
G01*
X138075270Y-60271716D01*
X138114622Y-60217555D01*
X138119232Y-60208507D01*
X138167205Y-60157709D01*
X138235025Y-60140912D01*
X138301161Y-60163447D01*
X138340204Y-60208504D01*
X138344949Y-60217817D01*
X138469890Y-60389786D01*
X138620213Y-60540109D01*
X138792179Y-60665048D01*
X138792181Y-60665049D01*
X138792184Y-60665051D01*
X138801493Y-60669794D01*
X138852290Y-60717766D01*
X138869087Y-60785587D01*
X138846552Y-60851722D01*
X138801505Y-60890760D01*
X138792446Y-60895376D01*
X138792440Y-60895380D01*
X138738282Y-60934727D01*
X138738282Y-60934728D01*
X139370591Y-61567037D01*
X139307007Y-61584075D01*
X139192993Y-61649901D01*
X139099901Y-61742993D01*
X139034075Y-61857007D01*
X139017037Y-61920591D01*
X138384728Y-61288282D01*
X138384727Y-61288282D01*
X138345380Y-61342440D01*
X138345376Y-61342446D01*
X138340760Y-61351505D01*
X138292781Y-61402297D01*
X138224959Y-61419087D01*
X138158826Y-61396543D01*
X138119794Y-61351493D01*
X138115051Y-61342184D01*
X138115049Y-61342181D01*
X138115048Y-61342179D01*
X137990109Y-61170213D01*
X137839786Y-61019890D01*
X137667817Y-60894949D01*
X137658504Y-60890204D01*
X137607707Y-60842230D01*
X137590912Y-60774409D01*
X137613449Y-60708274D01*
X137658507Y-60669232D01*
X137667555Y-60664622D01*
X137721716Y-60625270D01*
X137721717Y-60625270D01*
X137089408Y-59992962D01*
X137152993Y-59975925D01*
X137267007Y-59910099D01*
X137360099Y-59817007D01*
X137425925Y-59702993D01*
X137442962Y-59639408D01*
X138075270Y-60271717D01*
G37*
%TD.AperFunction*%
%TA.AperFunction,Conductor*%
G36*
X139034075Y-57162993D02*
G01*
X139099901Y-57277007D01*
X139192993Y-57370099D01*
X139307007Y-57435925D01*
X139370590Y-57452962D01*
X138738282Y-58085269D01*
X138738282Y-58085270D01*
X138792452Y-58124626D01*
X138792451Y-58124626D01*
X138801495Y-58129234D01*
X138852292Y-58177208D01*
X138869087Y-58245029D01*
X138846550Y-58311164D01*
X138801499Y-58350202D01*
X138792182Y-58354949D01*
X138620213Y-58479890D01*
X138469890Y-58630213D01*
X138344949Y-58802182D01*
X138340202Y-58811499D01*
X138292227Y-58862293D01*
X138224405Y-58879087D01*
X138158271Y-58856548D01*
X138119234Y-58811495D01*
X138114626Y-58802452D01*
X138075270Y-58748282D01*
X138075269Y-58748282D01*
X137442962Y-59380590D01*
X137425925Y-59317007D01*
X137360099Y-59202993D01*
X137267007Y-59109901D01*
X137152993Y-59044075D01*
X137089409Y-59027037D01*
X137759627Y-58356818D01*
X137820950Y-58323333D01*
X137847307Y-58320499D01*
X137857872Y-58320499D01*
X137917483Y-58314091D01*
X138052331Y-58263796D01*
X138167546Y-58177546D01*
X138253796Y-58062331D01*
X138304091Y-57927483D01*
X138310500Y-57867873D01*
X138310499Y-57857312D01*
X138330179Y-57790275D01*
X138346818Y-57769626D01*
X139017037Y-57099408D01*
X139034075Y-57162993D01*
G37*
%TD.AperFunction*%
%TA.AperFunction,Conductor*%
G36*
X140872358Y-50520185D02*
G01*
X140918113Y-50572989D01*
X140928057Y-50642147D01*
X140899032Y-50705703D01*
X140893000Y-50712181D01*
X140707265Y-50897915D01*
X140539161Y-51108712D01*
X140395714Y-51337005D01*
X140278734Y-51579917D01*
X140189687Y-51834397D01*
X140189684Y-51834405D01*
X140129688Y-52097268D01*
X140129686Y-52097280D01*
X140099500Y-52365186D01*
X140099500Y-52634813D01*
X140129686Y-52902719D01*
X140129688Y-52902731D01*
X140189684Y-53165594D01*
X140189687Y-53165602D01*
X140278734Y-53420082D01*
X140395714Y-53662994D01*
X140395716Y-53662997D01*
X140539162Y-53891289D01*
X140664573Y-54048549D01*
X140683228Y-54071943D01*
X140707266Y-54102085D01*
X140897915Y-54292734D01*
X141108711Y-54460838D01*
X141337003Y-54604284D01*
X141579921Y-54721267D01*
X141771049Y-54788145D01*
X141834397Y-54810312D01*
X141834405Y-54810315D01*
X141834408Y-54810315D01*
X141834409Y-54810316D01*
X142097268Y-54870312D01*
X142365187Y-54900499D01*
X142365188Y-54900500D01*
X142365191Y-54900500D01*
X142634812Y-54900500D01*
X142634812Y-54900499D01*
X142902732Y-54870312D01*
X143165591Y-54810316D01*
X143420079Y-54721267D01*
X143662997Y-54604284D01*
X143891289Y-54460838D01*
X144102085Y-54292734D01*
X144287819Y-54107000D01*
X144349142Y-54073515D01*
X144418834Y-54078499D01*
X144474767Y-54120371D01*
X144499184Y-54185835D01*
X144499500Y-54194681D01*
X144499500Y-85805319D01*
X144479815Y-85872358D01*
X144427011Y-85918113D01*
X144357853Y-85928057D01*
X144294297Y-85899032D01*
X144287819Y-85893000D01*
X144202084Y-85807265D01*
X144148549Y-85764573D01*
X143991289Y-85639162D01*
X143762997Y-85495716D01*
X143762994Y-85495714D01*
X143520082Y-85378734D01*
X143265602Y-85289687D01*
X143265594Y-85289684D01*
X143068446Y-85244687D01*
X143002732Y-85229688D01*
X143002728Y-85229687D01*
X143002719Y-85229686D01*
X142734813Y-85199500D01*
X142734809Y-85199500D01*
X142465191Y-85199500D01*
X142465186Y-85199500D01*
X142197280Y-85229686D01*
X142197268Y-85229688D01*
X141934405Y-85289684D01*
X141934397Y-85289687D01*
X141679917Y-85378734D01*
X141437005Y-85495714D01*
X141208712Y-85639161D01*
X140997915Y-85807265D01*
X140807265Y-85997915D01*
X140639161Y-86208712D01*
X140495714Y-86437005D01*
X140378734Y-86679917D01*
X140289687Y-86934397D01*
X140289684Y-86934405D01*
X140229688Y-87197268D01*
X140229686Y-87197280D01*
X140199500Y-87465186D01*
X140199500Y-87734813D01*
X140229686Y-88002719D01*
X140229688Y-88002731D01*
X140289684Y-88265594D01*
X140289687Y-88265602D01*
X140378734Y-88520082D01*
X140495714Y-88762994D01*
X140495716Y-88762997D01*
X140639162Y-88991289D01*
X140700500Y-89068204D01*
X140807265Y-89202084D01*
X140893000Y-89287819D01*
X140926485Y-89349142D01*
X140921501Y-89418834D01*
X140879629Y-89474767D01*
X140814165Y-89499184D01*
X140805319Y-89499500D01*
X104194681Y-89499500D01*
X104127642Y-89479815D01*
X104081887Y-89427011D01*
X104071943Y-89357853D01*
X104100968Y-89294297D01*
X104107000Y-89287819D01*
X104192734Y-89202085D01*
X104360838Y-88991289D01*
X104504284Y-88762997D01*
X104621267Y-88520079D01*
X104710316Y-88265591D01*
X104770312Y-88002732D01*
X104800500Y-87734809D01*
X104800500Y-87465191D01*
X104770312Y-87197268D01*
X104710316Y-86934409D01*
X104621267Y-86679921D01*
X104504284Y-86437003D01*
X104360838Y-86208711D01*
X104192734Y-85997915D01*
X104002085Y-85807266D01*
X103791289Y-85639162D01*
X103562997Y-85495716D01*
X103562994Y-85495714D01*
X103320082Y-85378734D01*
X103065602Y-85289687D01*
X103065594Y-85289684D01*
X102868446Y-85244687D01*
X102802732Y-85229688D01*
X102802728Y-85229687D01*
X102802719Y-85229686D01*
X102534813Y-85199500D01*
X102534809Y-85199500D01*
X102265191Y-85199500D01*
X102265186Y-85199500D01*
X101997280Y-85229686D01*
X101997268Y-85229688D01*
X101734405Y-85289684D01*
X101734397Y-85289687D01*
X101479917Y-85378734D01*
X101237005Y-85495714D01*
X101008712Y-85639161D01*
X100797915Y-85807265D01*
X100712181Y-85893000D01*
X100650858Y-85926485D01*
X100581166Y-85921501D01*
X100525233Y-85879629D01*
X100500816Y-85814165D01*
X100500500Y-85805319D01*
X100500500Y-82493713D01*
X116449500Y-82493713D01*
X116449500Y-82956286D01*
X116482753Y-83166239D01*
X116548444Y-83368414D01*
X116644951Y-83557820D01*
X116769890Y-83729786D01*
X116920213Y-83880109D01*
X117092179Y-84005048D01*
X117092181Y-84005049D01*
X117092184Y-84005051D01*
X117281588Y-84101557D01*
X117483757Y-84167246D01*
X117693713Y-84200500D01*
X117693714Y-84200500D01*
X117906286Y-84200500D01*
X117906287Y-84200500D01*
X118116243Y-84167246D01*
X118318412Y-84101557D01*
X118507816Y-84005051D01*
X118529789Y-83989086D01*
X118679786Y-83880109D01*
X118679788Y-83880106D01*
X118679792Y-83880104D01*
X118830104Y-83729792D01*
X118949683Y-83565204D01*
X119005011Y-83522540D01*
X119074624Y-83516561D01*
X119136420Y-83549166D01*
X119150313Y-83565199D01*
X119253925Y-83707809D01*
X119269896Y-83729792D01*
X119420213Y-83880109D01*
X119592179Y-84005048D01*
X119592181Y-84005049D01*
X119592184Y-84005051D01*
X119781588Y-84101557D01*
X119983757Y-84167246D01*
X120193713Y-84200500D01*
X120193714Y-84200500D01*
X120406286Y-84200500D01*
X120406287Y-84200500D01*
X120616243Y-84167246D01*
X120818412Y-84101557D01*
X121007816Y-84005051D01*
X121029789Y-83989086D01*
X121179786Y-83880109D01*
X121179788Y-83880106D01*
X121179792Y-83880104D01*
X121330104Y-83729792D01*
X121449683Y-83565204D01*
X121505011Y-83522540D01*
X121574624Y-83516561D01*
X121636420Y-83549166D01*
X121650313Y-83565199D01*
X121753925Y-83707809D01*
X121769896Y-83729792D01*
X121920213Y-83880109D01*
X122092179Y-84005048D01*
X122092181Y-84005049D01*
X122092184Y-84005051D01*
X122281588Y-84101557D01*
X122483757Y-84167246D01*
X122693713Y-84200500D01*
X122693714Y-84200500D01*
X122906286Y-84200500D01*
X122906287Y-84200500D01*
X123116243Y-84167246D01*
X123318412Y-84101557D01*
X123507816Y-84005051D01*
X123529789Y-83989086D01*
X123679786Y-83880109D01*
X123679788Y-83880106D01*
X123679792Y-83880104D01*
X123830104Y-83729792D01*
X123949683Y-83565204D01*
X124005011Y-83522540D01*
X124074624Y-83516561D01*
X124136420Y-83549166D01*
X124150313Y-83565199D01*
X124253925Y-83707809D01*
X124269896Y-83729792D01*
X124420213Y-83880109D01*
X124592179Y-84005048D01*
X124592181Y-84005049D01*
X124592184Y-84005051D01*
X124781588Y-84101557D01*
X124983757Y-84167246D01*
X125193713Y-84200500D01*
X125193714Y-84200500D01*
X125406286Y-84200500D01*
X125406287Y-84200500D01*
X125616243Y-84167246D01*
X125818412Y-84101557D01*
X126007816Y-84005051D01*
X126179792Y-83880104D01*
X126318604Y-83741291D01*
X126379923Y-83707809D01*
X126449615Y-83712793D01*
X126505549Y-83754664D01*
X126511821Y-83763878D01*
X126515185Y-83769333D01*
X126515186Y-83769334D01*
X126607288Y-83918656D01*
X126731344Y-84042712D01*
X126880666Y-84134814D01*
X127047203Y-84189999D01*
X127149991Y-84200500D01*
X128450008Y-84200499D01*
X128552797Y-84189999D01*
X128719334Y-84134814D01*
X128868656Y-84042712D01*
X128992712Y-83918656D01*
X129084814Y-83769334D01*
X129139999Y-83602797D01*
X129150500Y-83500009D01*
X129150499Y-81949992D01*
X129139999Y-81847203D01*
X129084814Y-81680666D01*
X128992712Y-81531344D01*
X128868656Y-81407288D01*
X128719334Y-81315186D01*
X128552797Y-81260001D01*
X128552795Y-81260000D01*
X128450010Y-81249500D01*
X127149998Y-81249500D01*
X127149981Y-81249501D01*
X127047203Y-81260000D01*
X127047200Y-81260001D01*
X126880668Y-81315185D01*
X126880663Y-81315187D01*
X126731342Y-81407289D01*
X126607289Y-81531342D01*
X126511821Y-81686121D01*
X126459873Y-81732845D01*
X126390910Y-81744068D01*
X126326828Y-81716224D01*
X126318601Y-81708705D01*
X126179786Y-81569890D01*
X126007820Y-81444951D01*
X125818414Y-81348444D01*
X125818413Y-81348443D01*
X125818412Y-81348443D01*
X125616243Y-81282754D01*
X125616241Y-81282753D01*
X125616240Y-81282753D01*
X125454957Y-81257208D01*
X125406287Y-81249500D01*
X125193713Y-81249500D01*
X125145042Y-81257208D01*
X124983760Y-81282753D01*
X124781585Y-81348444D01*
X124592179Y-81444951D01*
X124420213Y-81569890D01*
X124269894Y-81720209D01*
X124269890Y-81720214D01*
X124150318Y-81884793D01*
X124094989Y-81927459D01*
X124025375Y-81933438D01*
X123963580Y-81900833D01*
X123949682Y-81884793D01*
X123830109Y-81720214D01*
X123830105Y-81720209D01*
X123679786Y-81569890D01*
X123507820Y-81444951D01*
X123318414Y-81348444D01*
X123318413Y-81348443D01*
X123318412Y-81348443D01*
X123116243Y-81282754D01*
X123116241Y-81282753D01*
X123116240Y-81282753D01*
X122954957Y-81257208D01*
X122906287Y-81249500D01*
X122693713Y-81249500D01*
X122645042Y-81257208D01*
X122483760Y-81282753D01*
X122281585Y-81348444D01*
X122092179Y-81444951D01*
X121920213Y-81569890D01*
X121769894Y-81720209D01*
X121769890Y-81720214D01*
X121650318Y-81884793D01*
X121594989Y-81927459D01*
X121525375Y-81933438D01*
X121463580Y-81900833D01*
X121449682Y-81884793D01*
X121330109Y-81720214D01*
X121330105Y-81720209D01*
X121179786Y-81569890D01*
X121007820Y-81444951D01*
X120818414Y-81348444D01*
X120818413Y-81348443D01*
X120818412Y-81348443D01*
X120616243Y-81282754D01*
X120616241Y-81282753D01*
X120616240Y-81282753D01*
X120454957Y-81257208D01*
X120406287Y-81249500D01*
X120193713Y-81249500D01*
X120145042Y-81257208D01*
X119983760Y-81282753D01*
X119781585Y-81348444D01*
X119592179Y-81444951D01*
X119420213Y-81569890D01*
X119269894Y-81720209D01*
X119269890Y-81720214D01*
X119150318Y-81884793D01*
X119094989Y-81927459D01*
X119025375Y-81933438D01*
X118963580Y-81900833D01*
X118949682Y-81884793D01*
X118830109Y-81720214D01*
X118830105Y-81720209D01*
X118679786Y-81569890D01*
X118507820Y-81444951D01*
X118318414Y-81348444D01*
X118318413Y-81348443D01*
X118318412Y-81348443D01*
X118116243Y-81282754D01*
X118116241Y-81282753D01*
X118116240Y-81282753D01*
X117954957Y-81257208D01*
X117906287Y-81249500D01*
X117693713Y-81249500D01*
X117645042Y-81257208D01*
X117483760Y-81282753D01*
X117281585Y-81348444D01*
X117092179Y-81444951D01*
X116920213Y-81569890D01*
X116769890Y-81720213D01*
X116644951Y-81892179D01*
X116548444Y-82081585D01*
X116482753Y-82283760D01*
X116449500Y-82493713D01*
X100500500Y-82493713D01*
X100500500Y-59433713D01*
X102109500Y-59433713D01*
X102109500Y-59646287D01*
X102117224Y-59695051D01*
X102142735Y-59856127D01*
X102142754Y-59856243D01*
X102198695Y-60028412D01*
X102208444Y-60058414D01*
X102304951Y-60247820D01*
X102429890Y-60419786D01*
X102580213Y-60570109D01*
X102752179Y-60695048D01*
X102752181Y-60695049D01*
X102752184Y-60695051D01*
X102761493Y-60699794D01*
X102812290Y-60747766D01*
X102829087Y-60815587D01*
X102806552Y-60881722D01*
X102761505Y-60920760D01*
X102752446Y-60925376D01*
X102752440Y-60925380D01*
X102698282Y-60964727D01*
X102698282Y-60964728D01*
X103330591Y-61597037D01*
X103267007Y-61614075D01*
X103152993Y-61679901D01*
X103059901Y-61772993D01*
X102994075Y-61887007D01*
X102977037Y-61950591D01*
X102344728Y-61318282D01*
X102344727Y-61318282D01*
X102305380Y-61372439D01*
X102208904Y-61561782D01*
X102143242Y-61763869D01*
X102143242Y-61763872D01*
X102110000Y-61973753D01*
X102110000Y-62186246D01*
X102143242Y-62396127D01*
X102143242Y-62396130D01*
X102208904Y-62598217D01*
X102305375Y-62787550D01*
X102344728Y-62841716D01*
X102977037Y-62209408D01*
X102994075Y-62272993D01*
X103059901Y-62387007D01*
X103152993Y-62480099D01*
X103267007Y-62545925D01*
X103330590Y-62562962D01*
X102698282Y-63195269D01*
X102698282Y-63195270D01*
X102752452Y-63234626D01*
X102752451Y-63234626D01*
X102761495Y-63239234D01*
X102812292Y-63287208D01*
X102829087Y-63355029D01*
X102806550Y-63421164D01*
X102761499Y-63460202D01*
X102752182Y-63464949D01*
X102580213Y-63589890D01*
X102429890Y-63740213D01*
X102304951Y-63912179D01*
X102208444Y-64101585D01*
X102208443Y-64101587D01*
X102208443Y-64101588D01*
X102191389Y-64154075D01*
X102142753Y-64303760D01*
X102109500Y-64513713D01*
X102109500Y-64726286D01*
X102142735Y-64936127D01*
X102142754Y-64936243D01*
X102198695Y-65108412D01*
X102208444Y-65138414D01*
X102304951Y-65327820D01*
X102429890Y-65499786D01*
X102580213Y-65650109D01*
X102752179Y-65775048D01*
X102752181Y-65775049D01*
X102752184Y-65775051D01*
X102761493Y-65779794D01*
X102812290Y-65827766D01*
X102829087Y-65895587D01*
X102806552Y-65961722D01*
X102761505Y-66000760D01*
X102752446Y-66005376D01*
X102752440Y-66005380D01*
X102698282Y-66044727D01*
X102698282Y-66044728D01*
X103330591Y-66677037D01*
X103267007Y-66694075D01*
X103152993Y-66759901D01*
X103059901Y-66852993D01*
X102994075Y-66967007D01*
X102977037Y-67030591D01*
X102344728Y-66398282D01*
X102344727Y-66398282D01*
X102305380Y-66452439D01*
X102208904Y-66641782D01*
X102143242Y-66843869D01*
X102143242Y-66843872D01*
X102110000Y-67053753D01*
X102110000Y-67266246D01*
X102143242Y-67476127D01*
X102143242Y-67476130D01*
X102208904Y-67678217D01*
X102305375Y-67867550D01*
X102344728Y-67921716D01*
X102977037Y-67289408D01*
X102994075Y-67352993D01*
X103059901Y-67467007D01*
X103152993Y-67560099D01*
X103267007Y-67625925D01*
X103330590Y-67642962D01*
X102698282Y-68275269D01*
X102698282Y-68275270D01*
X102752452Y-68314626D01*
X102752451Y-68314626D01*
X102761495Y-68319234D01*
X102812292Y-68367208D01*
X102829087Y-68435029D01*
X102806550Y-68501164D01*
X102761499Y-68540202D01*
X102752182Y-68544949D01*
X102580213Y-68669890D01*
X102429890Y-68820213D01*
X102304951Y-68992179D01*
X102208444Y-69181585D01*
X102208443Y-69181587D01*
X102208443Y-69181588D01*
X102191389Y-69234075D01*
X102142753Y-69383760D01*
X102109500Y-69593713D01*
X102109500Y-69806286D01*
X102142735Y-70016127D01*
X102142754Y-70016243D01*
X102198695Y-70188412D01*
X102208444Y-70218414D01*
X102304951Y-70407820D01*
X102429890Y-70579786D01*
X102580213Y-70730109D01*
X102752179Y-70855048D01*
X102752181Y-70855049D01*
X102752184Y-70855051D01*
X102761493Y-70859794D01*
X102812290Y-70907766D01*
X102829087Y-70975587D01*
X102806552Y-71041722D01*
X102761505Y-71080760D01*
X102752446Y-71085376D01*
X102752440Y-71085380D01*
X102698282Y-71124727D01*
X102698282Y-71124728D01*
X103330591Y-71757037D01*
X103267007Y-71774075D01*
X103152993Y-71839901D01*
X103059901Y-71932993D01*
X102994075Y-72047007D01*
X102977037Y-72110591D01*
X102344728Y-71478282D01*
X102344727Y-71478282D01*
X102305380Y-71532439D01*
X102208904Y-71721782D01*
X102143242Y-71923869D01*
X102143242Y-71923872D01*
X102110000Y-72133753D01*
X102110000Y-72346246D01*
X102143242Y-72556127D01*
X102143242Y-72556130D01*
X102208904Y-72758217D01*
X102305375Y-72947550D01*
X102344728Y-73001716D01*
X102977037Y-72369408D01*
X102994075Y-72432993D01*
X103059901Y-72547007D01*
X103152993Y-72640099D01*
X103267007Y-72705925D01*
X103330590Y-72722962D01*
X102698282Y-73355269D01*
X102698282Y-73355270D01*
X102752452Y-73394626D01*
X102752451Y-73394626D01*
X102761495Y-73399234D01*
X102812292Y-73447208D01*
X102829087Y-73515029D01*
X102806550Y-73581164D01*
X102761499Y-73620202D01*
X102752182Y-73624949D01*
X102580213Y-73749890D01*
X102429890Y-73900213D01*
X102304951Y-74072179D01*
X102208444Y-74261585D01*
X102142753Y-74463760D01*
X102109500Y-74673713D01*
X102109500Y-74886287D01*
X102142754Y-75096243D01*
X102198695Y-75268412D01*
X102208444Y-75298414D01*
X102304951Y-75487820D01*
X102429890Y-75659786D01*
X102580213Y-75810109D01*
X102752179Y-75935048D01*
X102752181Y-75935049D01*
X102752184Y-75935051D01*
X102941588Y-76031557D01*
X103143757Y-76097246D01*
X103353713Y-76130500D01*
X103353714Y-76130500D01*
X103566286Y-76130500D01*
X103566287Y-76130500D01*
X103776243Y-76097246D01*
X103978412Y-76031557D01*
X104167816Y-75935051D01*
X104209112Y-75905048D01*
X104339786Y-75810109D01*
X104339788Y-75810106D01*
X104339792Y-75810104D01*
X104490104Y-75659792D01*
X104490106Y-75659788D01*
X104490109Y-75659786D01*
X104615048Y-75487820D01*
X104615047Y-75487820D01*
X104615051Y-75487816D01*
X104619514Y-75479054D01*
X104667488Y-75428259D01*
X104735308Y-75411463D01*
X104801444Y-75433999D01*
X104840486Y-75479056D01*
X104844951Y-75487820D01*
X104969890Y-75659786D01*
X105120213Y-75810109D01*
X105292179Y-75935048D01*
X105292181Y-75935049D01*
X105292184Y-75935051D01*
X105481588Y-76031557D01*
X105683757Y-76097246D01*
X105893713Y-76130500D01*
X105893714Y-76130500D01*
X106106286Y-76130500D01*
X106106287Y-76130500D01*
X106316243Y-76097246D01*
X106518412Y-76031557D01*
X106707816Y-75935051D01*
X106749112Y-75905048D01*
X106879786Y-75810109D01*
X106879788Y-75810106D01*
X106879792Y-75810104D01*
X107030104Y-75659792D01*
X107030106Y-75659788D01*
X107030109Y-75659786D01*
X107155048Y-75487820D01*
X107155047Y-75487820D01*
X107155051Y-75487816D01*
X107251557Y-75298412D01*
X107317246Y-75096243D01*
X107350500Y-74886287D01*
X107350500Y-74673713D01*
X107342146Y-74620968D01*
X107328730Y-74536262D01*
X107326156Y-74520013D01*
X112821192Y-74520013D01*
X112821192Y-74870000D01*
X113805506Y-74870000D01*
X113801112Y-74874394D01*
X113748451Y-74965606D01*
X113721192Y-75067339D01*
X113721192Y-75172661D01*
X113748451Y-75274394D01*
X113801112Y-75365606D01*
X113805506Y-75370000D01*
X112821193Y-75370000D01*
X112821193Y-75719986D01*
X112831686Y-75822697D01*
X112886833Y-75989119D01*
X112886835Y-75989124D01*
X112978876Y-76138345D01*
X113102846Y-76262315D01*
X113252067Y-76354356D01*
X113252072Y-76354358D01*
X113418494Y-76409505D01*
X113418501Y-76409506D01*
X113521211Y-76419999D01*
X113871191Y-76419999D01*
X113871192Y-76419998D01*
X113871192Y-75435686D01*
X113875586Y-75440080D01*
X113966798Y-75492741D01*
X114068531Y-75520000D01*
X114173853Y-75520000D01*
X114275586Y-75492741D01*
X114366798Y-75440080D01*
X114371192Y-75435686D01*
X114371192Y-76419999D01*
X114721164Y-76419999D01*
X114721178Y-76419998D01*
X114823889Y-76409505D01*
X114990311Y-76354358D01*
X114990316Y-76354356D01*
X115139537Y-76262315D01*
X115263507Y-76138345D01*
X115291774Y-76092517D01*
X115389051Y-75891367D01*
X115407286Y-75871235D01*
X115422748Y-75848904D01*
X115430397Y-75845723D01*
X115435959Y-75839584D01*
X115462183Y-75832507D01*
X115487264Y-75822080D01*
X115495418Y-75823540D01*
X115503416Y-75821382D01*
X115529299Y-75829606D01*
X115556040Y-75834394D01*
X115563050Y-75840330D01*
X115570005Y-75842540D01*
X115572185Y-75845171D01*
X115581716Y-75845922D01*
X116261192Y-75166446D01*
X116261192Y-75172661D01*
X116288451Y-75274394D01*
X116341112Y-75365606D01*
X116415586Y-75440080D01*
X116506798Y-75492741D01*
X116608531Y-75520000D01*
X116614745Y-75520000D01*
X115935268Y-76199474D01*
X115979842Y-76231859D01*
X116162160Y-76324755D01*
X116356774Y-76387990D01*
X116558875Y-76420000D01*
X116763509Y-76420000D01*
X116965609Y-76387990D01*
X117160223Y-76324755D01*
X117342541Y-76231859D01*
X117387113Y-76199474D01*
X116707639Y-75520000D01*
X116713853Y-75520000D01*
X116815586Y-75492741D01*
X116906798Y-75440080D01*
X116981272Y-75365606D01*
X117033933Y-75274394D01*
X117061192Y-75172661D01*
X117061192Y-75166447D01*
X117740666Y-75845921D01*
X117773051Y-75801349D01*
X117865947Y-75619031D01*
X117929181Y-75424417D01*
X117949008Y-75299240D01*
X117949008Y-75299239D01*
X117961192Y-75222316D01*
X117961192Y-75017682D01*
X117929182Y-74815582D01*
X117865946Y-74620965D01*
X117841588Y-74573160D01*
X117841587Y-74573159D01*
X117814508Y-74520013D01*
X127200000Y-74520013D01*
X127200000Y-74870000D01*
X128184314Y-74870000D01*
X128179920Y-74874394D01*
X128127259Y-74965606D01*
X128100000Y-75067339D01*
X128100000Y-75172661D01*
X128127259Y-75274394D01*
X128179920Y-75365606D01*
X128184314Y-75370000D01*
X127200001Y-75370000D01*
X127200001Y-75719986D01*
X127210494Y-75822697D01*
X127265641Y-75989119D01*
X127265643Y-75989124D01*
X127357684Y-76138345D01*
X127481654Y-76262315D01*
X127630875Y-76354356D01*
X127630880Y-76354358D01*
X127797302Y-76409505D01*
X127797309Y-76409506D01*
X127900019Y-76419999D01*
X128249999Y-76419999D01*
X128250000Y-76419998D01*
X128250000Y-75435686D01*
X128254394Y-75440080D01*
X128345606Y-75492741D01*
X128447339Y-75520000D01*
X128552661Y-75520000D01*
X128654394Y-75492741D01*
X128745606Y-75440080D01*
X128750000Y-75435686D01*
X128750000Y-76419999D01*
X129099972Y-76419999D01*
X129099986Y-76419998D01*
X129202697Y-76409505D01*
X129369119Y-76354358D01*
X129369124Y-76354356D01*
X129518345Y-76262315D01*
X129642315Y-76138345D01*
X129670582Y-76092517D01*
X129767859Y-75891367D01*
X129786094Y-75871235D01*
X129801556Y-75848904D01*
X129809205Y-75845723D01*
X129814767Y-75839584D01*
X129840991Y-75832507D01*
X129866072Y-75822080D01*
X129874226Y-75823540D01*
X129882224Y-75821382D01*
X129908107Y-75829606D01*
X129934848Y-75834394D01*
X129941858Y-75840330D01*
X129948813Y-75842540D01*
X129950993Y-75845171D01*
X129960524Y-75845922D01*
X130640000Y-75166446D01*
X130640000Y-75172661D01*
X130667259Y-75274394D01*
X130719920Y-75365606D01*
X130794394Y-75440080D01*
X130885606Y-75492741D01*
X130987339Y-75520000D01*
X130993553Y-75520000D01*
X130314076Y-76199474D01*
X130358650Y-76231859D01*
X130540968Y-76324755D01*
X130735582Y-76387990D01*
X130937683Y-76420000D01*
X131142317Y-76420000D01*
X131344417Y-76387990D01*
X131539031Y-76324755D01*
X131721349Y-76231859D01*
X131765921Y-76199474D01*
X131086447Y-75520000D01*
X131092661Y-75520000D01*
X131194394Y-75492741D01*
X131285606Y-75440080D01*
X131360080Y-75365606D01*
X131412741Y-75274394D01*
X131440000Y-75172661D01*
X131440000Y-75166448D01*
X132119474Y-75845922D01*
X132119474Y-75845921D01*
X132151859Y-75801349D01*
X132244755Y-75619031D01*
X132307990Y-75424417D01*
X132340000Y-75222317D01*
X132340000Y-75017682D01*
X132307990Y-74815582D01*
X132244755Y-74620968D01*
X132151859Y-74438650D01*
X132119474Y-74394077D01*
X132119474Y-74394076D01*
X131440000Y-75073551D01*
X131440000Y-75067339D01*
X131412741Y-74965606D01*
X131360080Y-74874394D01*
X131285606Y-74799920D01*
X131194394Y-74747259D01*
X131092661Y-74720000D01*
X131086446Y-74720000D01*
X131765922Y-74040524D01*
X131765921Y-74040523D01*
X131721359Y-74008147D01*
X131721350Y-74008141D01*
X131539031Y-73915244D01*
X131344417Y-73852009D01*
X131142317Y-73820000D01*
X130937683Y-73820000D01*
X130735582Y-73852009D01*
X130540968Y-73915244D01*
X130358644Y-74008143D01*
X130314077Y-74040523D01*
X130314077Y-74040524D01*
X130993554Y-74720000D01*
X130987339Y-74720000D01*
X130885606Y-74747259D01*
X130794394Y-74799920D01*
X130719920Y-74874394D01*
X130667259Y-74965606D01*
X130640000Y-75067339D01*
X130640000Y-75073553D01*
X129960524Y-74394077D01*
X129943660Y-74395404D01*
X129924475Y-74410198D01*
X129920416Y-74410546D01*
X129917040Y-74412823D01*
X129885898Y-74413509D01*
X129854861Y-74416174D01*
X129851258Y-74414273D01*
X129847188Y-74414363D01*
X129820620Y-74398105D01*
X129793067Y-74383566D01*
X129790068Y-74379409D01*
X129787591Y-74377894D01*
X129781756Y-74367890D01*
X129767860Y-74348631D01*
X129670580Y-74147477D01*
X129642319Y-74101659D01*
X129642316Y-74101655D01*
X129518345Y-73977684D01*
X129369124Y-73885643D01*
X129369119Y-73885641D01*
X129202697Y-73830494D01*
X129202690Y-73830493D01*
X129099986Y-73820000D01*
X128750000Y-73820000D01*
X128750000Y-74804314D01*
X128745606Y-74799920D01*
X128654394Y-74747259D01*
X128552661Y-74720000D01*
X128447339Y-74720000D01*
X128345606Y-74747259D01*
X128254394Y-74799920D01*
X128250000Y-74804314D01*
X128250000Y-73820000D01*
X127900028Y-73820000D01*
X127900012Y-73820001D01*
X127797302Y-73830494D01*
X127630880Y-73885641D01*
X127630875Y-73885643D01*
X127481654Y-73977684D01*
X127357684Y-74101654D01*
X127265643Y-74250875D01*
X127265641Y-74250880D01*
X127210494Y-74417302D01*
X127210493Y-74417309D01*
X127200000Y-74520013D01*
X117814508Y-74520013D01*
X117773051Y-74438650D01*
X117740666Y-74394077D01*
X117740666Y-74394076D01*
X117061192Y-75073551D01*
X117061192Y-75067339D01*
X117033933Y-74965606D01*
X116981272Y-74874394D01*
X116906798Y-74799920D01*
X116815586Y-74747259D01*
X116713853Y-74720000D01*
X116707638Y-74720000D01*
X117387114Y-74040524D01*
X117387113Y-74040523D01*
X117342551Y-74008147D01*
X117342542Y-74008141D01*
X117160223Y-73915244D01*
X116965609Y-73852009D01*
X116763509Y-73820000D01*
X116558875Y-73820000D01*
X116356774Y-73852009D01*
X116162160Y-73915244D01*
X115979836Y-74008143D01*
X115935269Y-74040523D01*
X115935269Y-74040524D01*
X116614746Y-74720000D01*
X116608531Y-74720000D01*
X116506798Y-74747259D01*
X116415586Y-74799920D01*
X116341112Y-74874394D01*
X116288451Y-74965606D01*
X116261192Y-75067339D01*
X116261192Y-75073553D01*
X115581716Y-74394077D01*
X115564852Y-74395404D01*
X115545667Y-74410198D01*
X115541608Y-74410546D01*
X115538232Y-74412823D01*
X115507090Y-74413509D01*
X115476053Y-74416174D01*
X115472450Y-74414273D01*
X115468380Y-74414363D01*
X115441812Y-74398105D01*
X115414259Y-74383566D01*
X115411260Y-74379409D01*
X115408783Y-74377894D01*
X115402948Y-74367890D01*
X115389052Y-74348631D01*
X115291772Y-74147477D01*
X115263511Y-74101659D01*
X115263508Y-74101655D01*
X115139537Y-73977684D01*
X114990316Y-73885643D01*
X114990311Y-73885641D01*
X114823889Y-73830494D01*
X114823882Y-73830493D01*
X114721178Y-73820000D01*
X114371192Y-73820000D01*
X114371192Y-74804314D01*
X114366798Y-74799920D01*
X114275586Y-74747259D01*
X114173853Y-74720000D01*
X114068531Y-74720000D01*
X113966798Y-74747259D01*
X113875586Y-74799920D01*
X113871192Y-74804314D01*
X113871192Y-73820000D01*
X113521220Y-73820000D01*
X113521204Y-73820001D01*
X113418494Y-73830494D01*
X113252072Y-73885641D01*
X113252067Y-73885643D01*
X113102846Y-73977684D01*
X112978876Y-74101654D01*
X112886835Y-74250875D01*
X112886833Y-74250880D01*
X112831686Y-74417302D01*
X112831685Y-74417309D01*
X112821192Y-74520013D01*
X107326156Y-74520013D01*
X107317246Y-74463760D01*
X107317246Y-74463757D01*
X107251557Y-74261588D01*
X107155051Y-74072184D01*
X107155049Y-74072181D01*
X107155048Y-74072179D01*
X107030109Y-73900213D01*
X106879786Y-73749890D01*
X106707820Y-73624951D01*
X106707115Y-73624591D01*
X106699054Y-73620485D01*
X106648259Y-73572512D01*
X106631463Y-73504692D01*
X106653999Y-73438556D01*
X106699054Y-73399515D01*
X106707816Y-73395051D01*
X106803862Y-73325270D01*
X106879786Y-73270109D01*
X106879788Y-73270106D01*
X106879792Y-73270104D01*
X107030104Y-73119792D01*
X107030106Y-73119788D01*
X107030109Y-73119786D01*
X107155048Y-72947820D01*
X107155050Y-72947817D01*
X107155051Y-72947816D01*
X107251557Y-72758412D01*
X107317246Y-72556243D01*
X107350500Y-72346287D01*
X107350500Y-72133713D01*
X107317246Y-71923757D01*
X107251557Y-71721588D01*
X107155051Y-71532184D01*
X107155049Y-71532181D01*
X107155048Y-71532179D01*
X107030109Y-71360213D01*
X106879786Y-71209890D01*
X106707817Y-71084949D01*
X106698504Y-71080204D01*
X106647707Y-71032230D01*
X106630912Y-70964409D01*
X106653449Y-70898274D01*
X106698507Y-70859232D01*
X106707555Y-70854622D01*
X106761716Y-70815270D01*
X106761717Y-70815270D01*
X106129408Y-70182962D01*
X106192993Y-70165925D01*
X106307007Y-70100099D01*
X106400099Y-70007007D01*
X106465925Y-69892993D01*
X106482962Y-69829409D01*
X107115270Y-70461717D01*
X107115270Y-70461716D01*
X107154622Y-70407554D01*
X107251095Y-70218217D01*
X107316757Y-70016130D01*
X107316757Y-70016127D01*
X107350000Y-69806246D01*
X107350000Y-69593753D01*
X107347549Y-69578279D01*
X107316757Y-69383872D01*
X107316757Y-69383869D01*
X107251095Y-69181782D01*
X107154624Y-68992449D01*
X107115270Y-68938282D01*
X107115269Y-68938282D01*
X106482962Y-69570590D01*
X106465925Y-69507007D01*
X106400099Y-69392993D01*
X106307007Y-69299901D01*
X106192993Y-69234075D01*
X106129409Y-69217037D01*
X106761716Y-68584728D01*
X106707547Y-68545373D01*
X106707547Y-68545372D01*
X106698500Y-68540763D01*
X106647706Y-68492788D01*
X106630912Y-68424966D01*
X106653451Y-68358832D01*
X106698508Y-68319793D01*
X106707816Y-68315051D01*
X106803862Y-68245270D01*
X106879786Y-68190109D01*
X106879788Y-68190106D01*
X106879792Y-68190104D01*
X107030104Y-68039792D01*
X107030106Y-68039788D01*
X107030109Y-68039786D01*
X107155048Y-67867820D01*
X107155050Y-67867817D01*
X107155051Y-67867816D01*
X107251557Y-67678412D01*
X107317246Y-67476243D01*
X107317265Y-67476127D01*
X107329694Y-67397648D01*
X112820692Y-67397648D01*
X112820692Y-67602351D01*
X112852714Y-67804534D01*
X112915973Y-67999223D01*
X113008907Y-68181613D01*
X113129220Y-68347213D01*
X113273978Y-68491971D01*
X113401650Y-68584728D01*
X113439582Y-68612287D01*
X113552634Y-68669890D01*
X113621968Y-68705218D01*
X113621970Y-68705218D01*
X113621973Y-68705220D01*
X113726329Y-68739127D01*
X113816657Y-68768477D01*
X113917749Y-68784488D01*
X114018840Y-68800500D01*
X114018841Y-68800500D01*
X114223543Y-68800500D01*
X114223544Y-68800500D01*
X114425726Y-68768477D01*
X114620411Y-68705220D01*
X114802802Y-68612287D01*
X114902019Y-68540202D01*
X114968405Y-68491971D01*
X114968407Y-68491968D01*
X114968411Y-68491966D01*
X115113158Y-68347219D01*
X115113160Y-68347215D01*
X115113163Y-68347213D01*
X115233476Y-68181614D01*
X115233477Y-68181613D01*
X115233479Y-68181610D01*
X115280708Y-68088917D01*
X115328681Y-68038123D01*
X115396502Y-68021328D01*
X115462637Y-68043865D01*
X115501677Y-68088919D01*
X115548907Y-68181614D01*
X115669220Y-68347213D01*
X115813978Y-68491971D01*
X115941650Y-68584728D01*
X115979582Y-68612287D01*
X116092634Y-68669890D01*
X116161968Y-68705218D01*
X116161970Y-68705218D01*
X116161973Y-68705220D01*
X116266329Y-68739127D01*
X116356657Y-68768477D01*
X116457749Y-68784488D01*
X116558840Y-68800500D01*
X116558841Y-68800500D01*
X116763543Y-68800500D01*
X116763544Y-68800500D01*
X116965726Y-68768477D01*
X117160411Y-68705220D01*
X117342802Y-68612287D01*
X117442019Y-68540202D01*
X117508405Y-68491971D01*
X117508407Y-68491968D01*
X117508411Y-68491966D01*
X117653158Y-68347219D01*
X117653160Y-68347215D01*
X117653163Y-68347213D01*
X117705924Y-68274590D01*
X117773479Y-68181610D01*
X117866412Y-67999219D01*
X117929669Y-67804534D01*
X117961692Y-67602352D01*
X117961692Y-67397648D01*
X127199500Y-67397648D01*
X127199500Y-67602351D01*
X127231522Y-67804534D01*
X127294781Y-67999223D01*
X127387715Y-68181613D01*
X127508028Y-68347213D01*
X127652786Y-68491971D01*
X127780458Y-68584728D01*
X127818390Y-68612287D01*
X127931442Y-68669890D01*
X128000776Y-68705218D01*
X128000778Y-68705218D01*
X128000781Y-68705220D01*
X128105137Y-68739127D01*
X128195465Y-68768477D01*
X128296557Y-68784488D01*
X128397648Y-68800500D01*
X128397649Y-68800500D01*
X128602351Y-68800500D01*
X128602352Y-68800500D01*
X128804534Y-68768477D01*
X128999219Y-68705220D01*
X129181610Y-68612287D01*
X129280827Y-68540202D01*
X129347213Y-68491971D01*
X129347215Y-68491968D01*
X129347219Y-68491966D01*
X129491966Y-68347219D01*
X129491968Y-68347215D01*
X129491971Y-68347213D01*
X129612284Y-68181614D01*
X129612285Y-68181613D01*
X129612287Y-68181610D01*
X129659516Y-68088917D01*
X129707489Y-68038123D01*
X129775310Y-68021328D01*
X129841445Y-68043865D01*
X129880485Y-68088919D01*
X129927715Y-68181614D01*
X130048028Y-68347213D01*
X130192786Y-68491971D01*
X130320458Y-68584728D01*
X130358390Y-68612287D01*
X130471442Y-68669890D01*
X130540776Y-68705218D01*
X130540778Y-68705218D01*
X130540781Y-68705220D01*
X130645137Y-68739127D01*
X130735465Y-68768477D01*
X130836557Y-68784488D01*
X130937648Y-68800500D01*
X130937649Y-68800500D01*
X131142351Y-68800500D01*
X131142352Y-68800500D01*
X131344534Y-68768477D01*
X131539219Y-68705220D01*
X131721610Y-68612287D01*
X131820827Y-68540202D01*
X131887213Y-68491971D01*
X131887215Y-68491968D01*
X131887219Y-68491966D01*
X132031966Y-68347219D01*
X132031968Y-68347215D01*
X132031971Y-68347213D01*
X132084732Y-68274590D01*
X132152287Y-68181610D01*
X132245220Y-67999219D01*
X132308477Y-67804534D01*
X132340500Y-67602352D01*
X132340500Y-67397648D01*
X132308477Y-67195466D01*
X132245220Y-67000781D01*
X132152287Y-66818390D01*
X132087997Y-66729901D01*
X132031971Y-66652786D01*
X131887213Y-66508028D01*
X131721613Y-66387715D01*
X131721612Y-66387714D01*
X131721610Y-66387713D01*
X131664653Y-66358691D01*
X131539223Y-66294781D01*
X131344534Y-66231522D01*
X131169995Y-66203878D01*
X131142352Y-66199500D01*
X130937648Y-66199500D01*
X130913329Y-66203351D01*
X130735465Y-66231522D01*
X130540776Y-66294781D01*
X130358386Y-66387715D01*
X130192786Y-66508028D01*
X130048028Y-66652786D01*
X129927715Y-66818386D01*
X129880485Y-66911080D01*
X129832510Y-66961876D01*
X129764689Y-66978671D01*
X129698554Y-66956134D01*
X129659515Y-66911080D01*
X129629918Y-66852993D01*
X129612287Y-66818390D01*
X129547997Y-66729901D01*
X129491971Y-66652786D01*
X129347213Y-66508028D01*
X129181613Y-66387715D01*
X129181612Y-66387714D01*
X129181610Y-66387713D01*
X129124653Y-66358691D01*
X128999223Y-66294781D01*
X128804534Y-66231522D01*
X128629995Y-66203878D01*
X128602352Y-66199500D01*
X128397648Y-66199500D01*
X128373329Y-66203351D01*
X128195465Y-66231522D01*
X128000776Y-66294781D01*
X127818386Y-66387715D01*
X127652786Y-66508028D01*
X127508028Y-66652786D01*
X127387715Y-66818386D01*
X127294781Y-67000776D01*
X127231522Y-67195465D01*
X127199500Y-67397648D01*
X117961692Y-67397648D01*
X117929669Y-67195466D01*
X117918145Y-67160000D01*
X117896757Y-67094174D01*
X117866412Y-67000781D01*
X117866410Y-67000778D01*
X117866410Y-67000776D01*
X117820707Y-66911080D01*
X117773479Y-66818390D01*
X117709189Y-66729901D01*
X117653163Y-66652786D01*
X117508405Y-66508028D01*
X117342805Y-66387715D01*
X117342804Y-66387714D01*
X117342802Y-66387713D01*
X117285845Y-66358691D01*
X117160415Y-66294781D01*
X116965726Y-66231522D01*
X116791187Y-66203878D01*
X116763544Y-66199500D01*
X116558840Y-66199500D01*
X116534521Y-66203351D01*
X116356657Y-66231522D01*
X116161968Y-66294781D01*
X115979578Y-66387715D01*
X115813978Y-66508028D01*
X115669220Y-66652786D01*
X115548907Y-66818386D01*
X115501677Y-66911080D01*
X115453702Y-66961876D01*
X115385881Y-66978671D01*
X115319746Y-66956134D01*
X115280707Y-66911080D01*
X115251110Y-66852993D01*
X115233479Y-66818390D01*
X115169189Y-66729901D01*
X115113163Y-66652786D01*
X114968405Y-66508028D01*
X114802805Y-66387715D01*
X114802804Y-66387714D01*
X114802802Y-66387713D01*
X114745845Y-66358691D01*
X114620415Y-66294781D01*
X114425726Y-66231522D01*
X114251187Y-66203878D01*
X114223544Y-66199500D01*
X114018840Y-66199500D01*
X113994521Y-66203351D01*
X113816657Y-66231522D01*
X113621968Y-66294781D01*
X113439578Y-66387715D01*
X113273978Y-66508028D01*
X113129220Y-66652786D01*
X113008907Y-66818386D01*
X112915973Y-67000776D01*
X112852714Y-67195465D01*
X112820692Y-67397648D01*
X107329694Y-67397648D01*
X107333538Y-67373379D01*
X107333538Y-67373378D01*
X107341519Y-67322993D01*
X107350500Y-67266287D01*
X107350500Y-67053713D01*
X107317246Y-66843757D01*
X107251557Y-66641588D01*
X107155051Y-66452184D01*
X107155049Y-66452181D01*
X107155048Y-66452179D01*
X107030109Y-66280213D01*
X106879786Y-66129890D01*
X106707817Y-66004949D01*
X106698504Y-66000204D01*
X106647707Y-65952230D01*
X106630912Y-65884409D01*
X106653449Y-65818274D01*
X106698507Y-65779232D01*
X106707555Y-65774622D01*
X106761716Y-65735270D01*
X106761717Y-65735270D01*
X106129408Y-65102962D01*
X106192993Y-65085925D01*
X106307007Y-65020099D01*
X106400099Y-64927007D01*
X106465925Y-64812993D01*
X106482962Y-64749409D01*
X107115270Y-65381717D01*
X107115270Y-65381716D01*
X107154622Y-65327554D01*
X107251095Y-65138217D01*
X107316757Y-64936130D01*
X107316757Y-64936127D01*
X107350000Y-64726246D01*
X107350000Y-64513753D01*
X107347549Y-64498279D01*
X107316757Y-64303872D01*
X107316757Y-64303869D01*
X107251095Y-64101782D01*
X107154624Y-63912449D01*
X107115270Y-63858282D01*
X107115269Y-63858282D01*
X106482962Y-64490590D01*
X106465925Y-64427007D01*
X106400099Y-64312993D01*
X106307007Y-64219901D01*
X106192993Y-64154075D01*
X106129409Y-64137037D01*
X106761716Y-63504728D01*
X106707547Y-63465373D01*
X106707547Y-63465372D01*
X106698500Y-63460763D01*
X106647706Y-63412788D01*
X106630912Y-63344966D01*
X106653451Y-63278832D01*
X106698508Y-63239793D01*
X106707816Y-63235051D01*
X106803862Y-63165270D01*
X106879786Y-63110109D01*
X106879788Y-63110106D01*
X106879792Y-63110104D01*
X107030104Y-62959792D01*
X107030106Y-62959788D01*
X107030109Y-62959786D01*
X107155048Y-62787820D01*
X107155050Y-62787817D01*
X107155051Y-62787816D01*
X107251557Y-62598412D01*
X107317246Y-62396243D01*
X107350500Y-62186287D01*
X107350500Y-61973713D01*
X107317246Y-61763757D01*
X107251557Y-61561588D01*
X107155051Y-61372184D01*
X107155049Y-61372181D01*
X107155048Y-61372179D01*
X107030109Y-61200213D01*
X106879786Y-61049890D01*
X106707817Y-60924949D01*
X106698504Y-60920204D01*
X106647707Y-60872230D01*
X106630912Y-60804409D01*
X106653449Y-60738274D01*
X106698507Y-60699232D01*
X106707555Y-60694622D01*
X106761716Y-60655270D01*
X106761717Y-60655270D01*
X106129408Y-60022962D01*
X106192993Y-60005925D01*
X106307007Y-59940099D01*
X106400099Y-59847007D01*
X106465925Y-59732993D01*
X106482962Y-59669409D01*
X107115270Y-60301717D01*
X107115270Y-60301716D01*
X107154622Y-60247554D01*
X107251095Y-60058217D01*
X107316757Y-59856130D01*
X107316757Y-59856127D01*
X107350000Y-59646246D01*
X107350000Y-59433753D01*
X107316757Y-59223872D01*
X107316757Y-59223869D01*
X107251095Y-59021782D01*
X107154624Y-58832449D01*
X107115270Y-58778282D01*
X107115269Y-58778282D01*
X106482962Y-59410590D01*
X106465925Y-59347007D01*
X106400099Y-59232993D01*
X106307007Y-59139901D01*
X106192993Y-59074075D01*
X106129409Y-59057037D01*
X106752732Y-58433713D01*
X110849500Y-58433713D01*
X110849500Y-58646286D01*
X110880419Y-58841505D01*
X110882754Y-58856243D01*
X110926793Y-58991782D01*
X110948444Y-59058414D01*
X111044951Y-59247820D01*
X111169890Y-59419786D01*
X111283430Y-59533326D01*
X111316915Y-59594649D01*
X111311931Y-59664341D01*
X111270059Y-59720274D01*
X111239083Y-59737189D01*
X111107669Y-59786203D01*
X111107664Y-59786206D01*
X110992455Y-59872452D01*
X110992452Y-59872455D01*
X110906206Y-59987664D01*
X110906202Y-59987671D01*
X110855908Y-60122517D01*
X110853931Y-60140912D01*
X110849501Y-60182123D01*
X110849500Y-60182135D01*
X110849500Y-61977870D01*
X110849501Y-61977876D01*
X110855908Y-62037483D01*
X110906202Y-62172328D01*
X110906206Y-62172335D01*
X110992452Y-62287544D01*
X110992455Y-62287547D01*
X111107664Y-62373793D01*
X111107671Y-62373797D01*
X111242517Y-62424091D01*
X111242516Y-62424091D01*
X111249444Y-62424835D01*
X111302127Y-62430500D01*
X113097872Y-62430499D01*
X113157483Y-62424091D01*
X113292331Y-62373796D01*
X113407546Y-62287546D01*
X113493796Y-62172331D01*
X113544091Y-62037483D01*
X113550500Y-61977873D01*
X113550499Y-60182128D01*
X113544091Y-60122517D01*
X113520181Y-60058412D01*
X113493797Y-59987671D01*
X113493793Y-59987664D01*
X113407547Y-59872455D01*
X113407544Y-59872452D01*
X113292335Y-59786206D01*
X113292328Y-59786202D01*
X113160917Y-59737189D01*
X113104983Y-59695318D01*
X113080566Y-59629853D01*
X113095418Y-59561580D01*
X113116563Y-59533332D01*
X113230104Y-59419792D01*
X113355051Y-59247816D01*
X113451557Y-59058412D01*
X113517246Y-58856243D01*
X113550500Y-58646287D01*
X113550500Y-58433713D01*
X113517246Y-58223757D01*
X113451557Y-58021588D01*
X113355051Y-57832184D01*
X113355049Y-57832181D01*
X113355048Y-57832179D01*
X113230109Y-57660213D01*
X113079786Y-57509890D01*
X112907817Y-57384949D01*
X112898504Y-57380204D01*
X112847707Y-57332230D01*
X112830912Y-57264409D01*
X112853449Y-57198274D01*
X112898507Y-57159232D01*
X112907555Y-57154622D01*
X112961716Y-57115270D01*
X112961717Y-57115270D01*
X112329408Y-56482962D01*
X112392993Y-56465925D01*
X112507007Y-56400099D01*
X112600099Y-56307007D01*
X112665925Y-56192993D01*
X112682962Y-56129408D01*
X113315270Y-56761717D01*
X113315270Y-56761716D01*
X113354622Y-56707554D01*
X113451095Y-56518217D01*
X113516757Y-56316130D01*
X113516757Y-56316127D01*
X113550000Y-56106246D01*
X113550000Y-56021153D01*
X118269500Y-56021153D01*
X118269500Y-56178846D01*
X118300261Y-56333489D01*
X118300264Y-56333501D01*
X118349574Y-56452548D01*
X118357043Y-56522018D01*
X118349574Y-56547452D01*
X118300264Y-56666498D01*
X118300261Y-56666510D01*
X118269500Y-56821153D01*
X118269500Y-56978846D01*
X118300261Y-57133489D01*
X118300264Y-57133501D01*
X118349574Y-57252548D01*
X118357043Y-57322018D01*
X118349574Y-57347452D01*
X118300264Y-57466498D01*
X118300261Y-57466510D01*
X118269500Y-57621153D01*
X118269500Y-57778846D01*
X118300261Y-57933489D01*
X118300264Y-57933501D01*
X118360602Y-58079172D01*
X118360609Y-58079185D01*
X118448210Y-58210288D01*
X118448213Y-58210292D01*
X118559707Y-58321786D01*
X118559711Y-58321789D01*
X118690814Y-58409390D01*
X118690827Y-58409397D01*
X118836498Y-58469735D01*
X118836503Y-58469737D01*
X118991153Y-58500499D01*
X118991156Y-58500500D01*
X118991158Y-58500500D01*
X119148844Y-58500500D01*
X119148845Y-58500499D01*
X119303497Y-58469737D01*
X119422548Y-58420425D01*
X119492017Y-58412956D01*
X119517452Y-58420425D01*
X119636498Y-58469735D01*
X119636503Y-58469737D01*
X119791153Y-58500499D01*
X119791156Y-58500500D01*
X119791158Y-58500500D01*
X119948844Y-58500500D01*
X119948845Y-58500499D01*
X120103497Y-58469737D01*
X120249179Y-58409394D01*
X120380289Y-58321789D01*
X120491789Y-58210289D01*
X120579394Y-58079179D01*
X120639737Y-57933497D01*
X120670500Y-57778842D01*
X120670500Y-57621158D01*
X120670500Y-57621155D01*
X120670499Y-57621153D01*
X120639737Y-57466503D01*
X120612232Y-57400099D01*
X120590425Y-57347452D01*
X120582956Y-57277983D01*
X120590425Y-57252548D01*
X120639735Y-57133501D01*
X120639737Y-57133497D01*
X120670500Y-56978842D01*
X120670500Y-56821158D01*
X120670500Y-56821155D01*
X120670499Y-56821153D01*
X120658676Y-56761716D01*
X120639737Y-56666503D01*
X120612150Y-56599901D01*
X120590425Y-56547452D01*
X120582956Y-56477983D01*
X120590425Y-56452548D01*
X120639735Y-56333501D01*
X120639737Y-56333497D01*
X120670500Y-56178842D01*
X120670500Y-56072135D01*
X135609500Y-56072135D01*
X135609500Y-57867870D01*
X135609501Y-57867876D01*
X135615908Y-57927483D01*
X135666202Y-58062328D01*
X135666206Y-58062335D01*
X135752452Y-58177544D01*
X135752455Y-58177547D01*
X135867664Y-58263793D01*
X135867671Y-58263797D01*
X135897786Y-58275029D01*
X136002517Y-58314091D01*
X136062127Y-58320500D01*
X136072685Y-58320499D01*
X136139723Y-58340179D01*
X136160372Y-58356818D01*
X136830591Y-59027037D01*
X136767007Y-59044075D01*
X136652993Y-59109901D01*
X136559901Y-59202993D01*
X136494075Y-59317007D01*
X136477037Y-59380591D01*
X135844728Y-58748282D01*
X135844727Y-58748282D01*
X135805380Y-58802439D01*
X135708904Y-58991782D01*
X135643242Y-59193869D01*
X135643242Y-59193872D01*
X135610000Y-59403753D01*
X135610000Y-59616246D01*
X135643242Y-59826127D01*
X135643242Y-59826130D01*
X135708904Y-60028217D01*
X135805375Y-60217550D01*
X135844728Y-60271716D01*
X136477036Y-59639407D01*
X136494075Y-59702993D01*
X136559901Y-59817007D01*
X136652993Y-59910099D01*
X136767007Y-59975925D01*
X136830590Y-59992962D01*
X136198282Y-60625269D01*
X136198282Y-60625270D01*
X136252452Y-60664626D01*
X136252451Y-60664626D01*
X136261495Y-60669234D01*
X136312292Y-60717208D01*
X136329087Y-60785029D01*
X136306550Y-60851164D01*
X136261499Y-60890202D01*
X136252182Y-60894949D01*
X136080213Y-61019890D01*
X135929890Y-61170213D01*
X135804951Y-61342179D01*
X135708444Y-61531585D01*
X135642753Y-61733760D01*
X135609500Y-61943713D01*
X135609500Y-62156286D01*
X135642735Y-62366127D01*
X135642754Y-62366243D01*
X135701136Y-62545925D01*
X135708444Y-62568414D01*
X135804951Y-62757820D01*
X135929890Y-62929786D01*
X136080213Y-63080109D01*
X136252179Y-63205048D01*
X136252181Y-63205049D01*
X136252184Y-63205051D01*
X136261493Y-63209794D01*
X136312290Y-63257766D01*
X136329087Y-63325587D01*
X136306552Y-63391722D01*
X136261505Y-63430760D01*
X136252446Y-63435376D01*
X136252440Y-63435380D01*
X136198282Y-63474727D01*
X136198282Y-63474728D01*
X136830591Y-64107037D01*
X136767007Y-64124075D01*
X136652993Y-64189901D01*
X136559901Y-64282993D01*
X136494075Y-64397007D01*
X136477037Y-64460591D01*
X135844728Y-63828282D01*
X135844727Y-63828282D01*
X135805380Y-63882439D01*
X135708904Y-64071782D01*
X135643242Y-64273869D01*
X135643242Y-64273872D01*
X135610000Y-64483753D01*
X135610000Y-64696246D01*
X135643242Y-64906127D01*
X135643242Y-64906130D01*
X135708904Y-65108217D01*
X135805375Y-65297550D01*
X135844728Y-65351716D01*
X136477036Y-64719407D01*
X136494075Y-64782993D01*
X136559901Y-64897007D01*
X136652993Y-64990099D01*
X136767007Y-65055925D01*
X136830590Y-65072962D01*
X136198282Y-65705269D01*
X136198282Y-65705270D01*
X136252452Y-65744626D01*
X136252451Y-65744626D01*
X136261495Y-65749234D01*
X136312292Y-65797208D01*
X136329087Y-65865029D01*
X136306550Y-65931164D01*
X136261499Y-65970202D01*
X136252182Y-65974949D01*
X136080213Y-66099890D01*
X135929890Y-66250213D01*
X135804951Y-66422179D01*
X135708444Y-66611585D01*
X135642753Y-66813760D01*
X135609500Y-67023713D01*
X135609500Y-67236286D01*
X135642735Y-67446127D01*
X135642754Y-67446243D01*
X135701136Y-67625925D01*
X135708444Y-67648414D01*
X135804951Y-67837820D01*
X135929890Y-68009786D01*
X136080213Y-68160109D01*
X136252179Y-68285048D01*
X136252181Y-68285049D01*
X136252184Y-68285051D01*
X136261493Y-68289794D01*
X136312290Y-68337766D01*
X136329087Y-68405587D01*
X136306552Y-68471722D01*
X136261505Y-68510760D01*
X136252446Y-68515376D01*
X136252440Y-68515380D01*
X136198282Y-68554727D01*
X136198282Y-68554728D01*
X136830591Y-69187037D01*
X136767007Y-69204075D01*
X136652993Y-69269901D01*
X136559901Y-69362993D01*
X136494075Y-69477007D01*
X136477037Y-69540591D01*
X135844728Y-68908282D01*
X135844727Y-68908282D01*
X135805380Y-68962439D01*
X135708904Y-69151782D01*
X135643242Y-69353869D01*
X135643242Y-69353872D01*
X135610000Y-69563753D01*
X135610000Y-69776246D01*
X135643242Y-69986127D01*
X135643242Y-69986130D01*
X135708904Y-70188217D01*
X135805375Y-70377550D01*
X135844728Y-70431716D01*
X136477037Y-69799408D01*
X136494075Y-69862993D01*
X136559901Y-69977007D01*
X136652993Y-70070099D01*
X136767007Y-70135925D01*
X136830590Y-70152962D01*
X136198282Y-70785269D01*
X136198282Y-70785270D01*
X136252452Y-70824626D01*
X136252451Y-70824626D01*
X136261495Y-70829234D01*
X136312292Y-70877208D01*
X136329087Y-70945029D01*
X136306550Y-71011164D01*
X136261499Y-71050202D01*
X136252182Y-71054949D01*
X136080213Y-71179890D01*
X135929890Y-71330213D01*
X135804951Y-71502179D01*
X135708444Y-71691585D01*
X135642753Y-71893760D01*
X135609500Y-72103713D01*
X135609500Y-72316286D01*
X135642735Y-72526127D01*
X135642754Y-72526243D01*
X135701136Y-72705925D01*
X135708444Y-72728414D01*
X135804951Y-72917820D01*
X135929890Y-73089786D01*
X136080213Y-73240109D01*
X136252182Y-73365050D01*
X136260946Y-73369516D01*
X136311742Y-73417491D01*
X136328536Y-73485312D01*
X136305998Y-73551447D01*
X136260946Y-73590484D01*
X136252182Y-73594949D01*
X136080213Y-73719890D01*
X135929890Y-73870213D01*
X135804951Y-74042179D01*
X135708444Y-74231585D01*
X135642753Y-74433760D01*
X135609500Y-74643713D01*
X135609500Y-74856286D01*
X135635062Y-75017682D01*
X135642754Y-75066243D01*
X135699747Y-75241650D01*
X135708444Y-75268414D01*
X135804951Y-75457820D01*
X135929890Y-75629786D01*
X136080213Y-75780109D01*
X136252179Y-75905048D01*
X136252181Y-75905049D01*
X136252184Y-75905051D01*
X136441588Y-76001557D01*
X136643757Y-76067246D01*
X136853713Y-76100500D01*
X136853714Y-76100500D01*
X137066286Y-76100500D01*
X137066287Y-76100500D01*
X137276243Y-76067246D01*
X137478412Y-76001557D01*
X137667816Y-75905051D01*
X137714360Y-75871235D01*
X137839786Y-75780109D01*
X137839788Y-75780106D01*
X137839792Y-75780104D01*
X137990104Y-75629792D01*
X137990106Y-75629788D01*
X137990109Y-75629786D01*
X138115048Y-75457820D01*
X138115047Y-75457820D01*
X138115051Y-75457816D01*
X138119514Y-75449054D01*
X138167488Y-75398259D01*
X138235308Y-75381463D01*
X138301444Y-75403999D01*
X138340486Y-75449056D01*
X138344951Y-75457820D01*
X138469890Y-75629786D01*
X138620213Y-75780109D01*
X138792179Y-75905048D01*
X138792181Y-75905049D01*
X138792184Y-75905051D01*
X138981588Y-76001557D01*
X139183757Y-76067246D01*
X139393713Y-76100500D01*
X139393714Y-76100500D01*
X139606286Y-76100500D01*
X139606287Y-76100500D01*
X139816243Y-76067246D01*
X140018412Y-76001557D01*
X140207816Y-75905051D01*
X140254360Y-75871235D01*
X140379786Y-75780109D01*
X140379788Y-75780106D01*
X140379792Y-75780104D01*
X140530104Y-75629792D01*
X140530106Y-75629788D01*
X140530109Y-75629786D01*
X140655048Y-75457820D01*
X140655047Y-75457820D01*
X140655051Y-75457816D01*
X140751557Y-75268412D01*
X140817246Y-75066243D01*
X140850500Y-74856287D01*
X140850500Y-74643713D01*
X140817246Y-74433757D01*
X140751557Y-74231588D01*
X140655051Y-74042184D01*
X140655049Y-74042181D01*
X140655048Y-74042179D01*
X140530109Y-73870213D01*
X140379786Y-73719890D01*
X140207817Y-73594949D01*
X140198504Y-73590204D01*
X140147707Y-73542230D01*
X140130912Y-73474409D01*
X140153449Y-73408274D01*
X140198507Y-73369232D01*
X140207555Y-73364622D01*
X140261716Y-73325270D01*
X140261717Y-73325270D01*
X139629408Y-72692962D01*
X139692993Y-72675925D01*
X139807007Y-72610099D01*
X139900099Y-72517007D01*
X139965925Y-72402993D01*
X139982962Y-72339408D01*
X140615270Y-72971717D01*
X140615270Y-72971716D01*
X140654622Y-72917554D01*
X140751095Y-72728217D01*
X140816757Y-72526130D01*
X140816757Y-72526127D01*
X140850000Y-72316246D01*
X140850000Y-72103753D01*
X140816757Y-71893872D01*
X140816757Y-71893869D01*
X140751095Y-71691782D01*
X140654624Y-71502449D01*
X140615270Y-71448282D01*
X140615269Y-71448282D01*
X139982962Y-72080590D01*
X139965925Y-72017007D01*
X139900099Y-71902993D01*
X139807007Y-71809901D01*
X139692993Y-71744075D01*
X139629409Y-71727037D01*
X140261716Y-71094728D01*
X140207547Y-71055373D01*
X140207547Y-71055372D01*
X140198500Y-71050763D01*
X140147706Y-71002788D01*
X140130912Y-70934966D01*
X140153451Y-70868832D01*
X140198508Y-70829793D01*
X140207816Y-70825051D01*
X140287007Y-70767515D01*
X140379786Y-70700109D01*
X140379788Y-70700106D01*
X140379792Y-70700104D01*
X140530104Y-70549792D01*
X140530106Y-70549788D01*
X140530109Y-70549786D01*
X140655048Y-70377820D01*
X140655050Y-70377817D01*
X140655051Y-70377816D01*
X140751557Y-70188412D01*
X140817246Y-69986243D01*
X140850500Y-69776287D01*
X140850500Y-69563713D01*
X140817246Y-69353757D01*
X140751557Y-69151588D01*
X140655051Y-68962184D01*
X140655049Y-68962181D01*
X140655048Y-68962179D01*
X140530109Y-68790213D01*
X140379786Y-68639890D01*
X140207817Y-68514949D01*
X140198504Y-68510204D01*
X140147707Y-68462230D01*
X140130912Y-68394409D01*
X140153449Y-68328274D01*
X140198507Y-68289232D01*
X140207555Y-68284622D01*
X140261716Y-68245270D01*
X140261717Y-68245270D01*
X139629408Y-67612962D01*
X139692993Y-67595925D01*
X139807007Y-67530099D01*
X139900099Y-67437007D01*
X139965925Y-67322993D01*
X139982962Y-67259408D01*
X140615270Y-67891717D01*
X140615270Y-67891716D01*
X140654622Y-67837554D01*
X140751095Y-67648217D01*
X140816757Y-67446130D01*
X140816757Y-67446127D01*
X140850000Y-67236246D01*
X140850000Y-67023753D01*
X140816757Y-66813872D01*
X140816757Y-66813869D01*
X140751095Y-66611782D01*
X140654624Y-66422449D01*
X140615270Y-66368282D01*
X140615269Y-66368282D01*
X139982962Y-67000590D01*
X139965925Y-66937007D01*
X139900099Y-66822993D01*
X139807007Y-66729901D01*
X139692993Y-66664075D01*
X139629409Y-66647037D01*
X140261716Y-66014728D01*
X140207547Y-65975373D01*
X140207547Y-65975372D01*
X140198500Y-65970763D01*
X140147706Y-65922788D01*
X140130912Y-65854966D01*
X140153451Y-65788832D01*
X140198508Y-65749793D01*
X140207816Y-65745051D01*
X140287007Y-65687515D01*
X140379786Y-65620109D01*
X140379788Y-65620106D01*
X140379792Y-65620104D01*
X140530104Y-65469792D01*
X140530106Y-65469788D01*
X140530109Y-65469786D01*
X140655048Y-65297820D01*
X140655050Y-65297817D01*
X140655051Y-65297816D01*
X140751557Y-65108412D01*
X140817246Y-64906243D01*
X140850500Y-64696287D01*
X140850500Y-64483713D01*
X140817246Y-64273757D01*
X140751557Y-64071588D01*
X140655051Y-63882184D01*
X140655049Y-63882181D01*
X140655048Y-63882179D01*
X140530109Y-63710213D01*
X140379786Y-63559890D01*
X140207817Y-63434949D01*
X140198504Y-63430204D01*
X140147707Y-63382230D01*
X140130912Y-63314409D01*
X140153449Y-63248274D01*
X140198507Y-63209232D01*
X140207555Y-63204622D01*
X140261716Y-63165270D01*
X140261717Y-63165270D01*
X139629408Y-62532962D01*
X139692993Y-62515925D01*
X139807007Y-62450099D01*
X139900099Y-62357007D01*
X139965925Y-62242993D01*
X139982962Y-62179408D01*
X140615270Y-62811717D01*
X140615270Y-62811716D01*
X140654622Y-62757554D01*
X140751095Y-62568217D01*
X140816757Y-62366130D01*
X140816757Y-62366127D01*
X140850000Y-62156246D01*
X140850000Y-61943753D01*
X140816757Y-61733872D01*
X140816757Y-61733869D01*
X140751095Y-61531782D01*
X140654624Y-61342449D01*
X140615270Y-61288282D01*
X140615269Y-61288282D01*
X139982962Y-61920590D01*
X139965925Y-61857007D01*
X139900099Y-61742993D01*
X139807007Y-61649901D01*
X139692993Y-61584075D01*
X139629409Y-61567037D01*
X140261716Y-60934728D01*
X140207547Y-60895373D01*
X140207547Y-60895372D01*
X140198500Y-60890763D01*
X140147706Y-60842788D01*
X140130912Y-60774966D01*
X140153451Y-60708832D01*
X140198508Y-60669793D01*
X140207816Y-60665051D01*
X140287007Y-60607515D01*
X140379786Y-60540109D01*
X140379788Y-60540106D01*
X140379792Y-60540104D01*
X140530104Y-60389792D01*
X140530106Y-60389788D01*
X140530109Y-60389786D01*
X140655048Y-60217820D01*
X140655050Y-60217817D01*
X140655051Y-60217816D01*
X140751557Y-60028412D01*
X140817246Y-59826243D01*
X140850500Y-59616287D01*
X140850500Y-59403713D01*
X140817246Y-59193757D01*
X140751557Y-58991588D01*
X140655051Y-58802184D01*
X140655049Y-58802181D01*
X140655048Y-58802179D01*
X140530109Y-58630213D01*
X140379786Y-58479890D01*
X140207817Y-58354949D01*
X140198504Y-58350204D01*
X140147707Y-58302230D01*
X140130912Y-58234409D01*
X140153449Y-58168274D01*
X140198507Y-58129232D01*
X140207555Y-58124622D01*
X140261716Y-58085270D01*
X140261717Y-58085270D01*
X139629408Y-57452962D01*
X139692993Y-57435925D01*
X139807007Y-57370099D01*
X139900099Y-57277007D01*
X139965925Y-57162993D01*
X139982962Y-57099408D01*
X140615270Y-57731717D01*
X140615270Y-57731716D01*
X140654622Y-57677554D01*
X140751095Y-57488217D01*
X140816757Y-57286130D01*
X140816757Y-57286127D01*
X140850000Y-57076246D01*
X140850000Y-56863753D01*
X140816757Y-56653872D01*
X140816757Y-56653869D01*
X140751095Y-56451782D01*
X140654624Y-56262449D01*
X140615270Y-56208282D01*
X140615269Y-56208282D01*
X139982962Y-56840590D01*
X139965925Y-56777007D01*
X139900099Y-56662993D01*
X139807007Y-56569901D01*
X139692993Y-56504075D01*
X139629409Y-56487037D01*
X140261716Y-55854728D01*
X140207550Y-55815375D01*
X140018217Y-55718904D01*
X139816129Y-55653242D01*
X139606246Y-55620000D01*
X139393754Y-55620000D01*
X139183872Y-55653242D01*
X139183869Y-55653242D01*
X138981782Y-55718904D01*
X138792439Y-55815380D01*
X138738282Y-55854727D01*
X138738282Y-55854728D01*
X139370591Y-56487037D01*
X139307007Y-56504075D01*
X139192993Y-56569901D01*
X139099901Y-56662993D01*
X139034075Y-56777007D01*
X139017037Y-56840591D01*
X138346818Y-56170372D01*
X138313333Y-56109049D01*
X138313330Y-56109036D01*
X138310499Y-56096015D01*
X138310499Y-56072128D01*
X138304091Y-56012517D01*
X138264986Y-55907671D01*
X138253798Y-55877673D01*
X138253793Y-55877664D01*
X138167547Y-55762455D01*
X138167544Y-55762452D01*
X138052335Y-55676206D01*
X138052328Y-55676202D01*
X137917482Y-55625908D01*
X137917483Y-55625908D01*
X137857883Y-55619501D01*
X137857881Y-55619500D01*
X137857873Y-55619500D01*
X137857864Y-55619500D01*
X136062129Y-55619500D01*
X136062123Y-55619501D01*
X136002516Y-55625908D01*
X135867671Y-55676202D01*
X135867664Y-55676206D01*
X135752455Y-55762452D01*
X135752452Y-55762455D01*
X135666206Y-55877664D01*
X135666202Y-55877671D01*
X135615908Y-56012517D01*
X135609501Y-56072116D01*
X135609500Y-56072135D01*
X120670500Y-56072135D01*
X120670500Y-56021158D01*
X120670500Y-56021155D01*
X120670499Y-56021153D01*
X120653760Y-55937002D01*
X120639737Y-55866503D01*
X120630986Y-55845375D01*
X120579397Y-55720827D01*
X120579390Y-55720814D01*
X120491789Y-55589711D01*
X120491786Y-55589707D01*
X120380292Y-55478213D01*
X120380288Y-55478210D01*
X120249185Y-55390609D01*
X120249172Y-55390602D01*
X120103501Y-55330264D01*
X120103489Y-55330261D01*
X119948845Y-55299500D01*
X119948842Y-55299500D01*
X119791158Y-55299500D01*
X119791155Y-55299500D01*
X119636510Y-55330261D01*
X119636498Y-55330264D01*
X119517452Y-55379574D01*
X119447982Y-55387043D01*
X119422548Y-55379574D01*
X119303501Y-55330264D01*
X119303489Y-55330261D01*
X119148845Y-55299500D01*
X119148842Y-55299500D01*
X118991158Y-55299500D01*
X118991155Y-55299500D01*
X118836510Y-55330261D01*
X118836498Y-55330264D01*
X118690827Y-55390602D01*
X118690814Y-55390609D01*
X118559711Y-55478210D01*
X118559707Y-55478213D01*
X118448213Y-55589707D01*
X118448210Y-55589711D01*
X118360609Y-55720814D01*
X118360602Y-55720827D01*
X118300264Y-55866498D01*
X118300261Y-55866510D01*
X118269500Y-56021153D01*
X113550000Y-56021153D01*
X113550000Y-55893753D01*
X113516757Y-55683872D01*
X113516757Y-55683869D01*
X113451095Y-55481782D01*
X113354624Y-55292449D01*
X113315270Y-55238282D01*
X113315269Y-55238282D01*
X112682962Y-55870590D01*
X112665925Y-55807007D01*
X112600099Y-55692993D01*
X112507007Y-55599901D01*
X112392993Y-55534075D01*
X112329409Y-55517037D01*
X112961716Y-54884728D01*
X112907550Y-54845375D01*
X112718217Y-54748904D01*
X112516129Y-54683242D01*
X112306246Y-54650000D01*
X112093754Y-54650000D01*
X111883872Y-54683242D01*
X111883869Y-54683242D01*
X111681782Y-54748904D01*
X111492439Y-54845380D01*
X111438282Y-54884727D01*
X111438282Y-54884728D01*
X112070591Y-55517037D01*
X112007007Y-55534075D01*
X111892993Y-55599901D01*
X111799901Y-55692993D01*
X111734075Y-55807007D01*
X111717037Y-55870591D01*
X111084728Y-55238282D01*
X111084727Y-55238282D01*
X111045380Y-55292439D01*
X110948904Y-55481782D01*
X110883242Y-55683869D01*
X110883242Y-55683872D01*
X110850000Y-55893753D01*
X110850000Y-56106246D01*
X110883242Y-56316127D01*
X110883242Y-56316130D01*
X110948904Y-56518217D01*
X111045375Y-56707550D01*
X111084728Y-56761716D01*
X111717037Y-56129408D01*
X111734075Y-56192993D01*
X111799901Y-56307007D01*
X111892993Y-56400099D01*
X112007007Y-56465925D01*
X112070590Y-56482962D01*
X111438282Y-57115269D01*
X111438282Y-57115270D01*
X111492452Y-57154626D01*
X111492451Y-57154626D01*
X111501495Y-57159234D01*
X111552292Y-57207208D01*
X111569087Y-57275029D01*
X111546550Y-57341164D01*
X111501499Y-57380202D01*
X111492182Y-57384949D01*
X111320213Y-57509890D01*
X111169890Y-57660213D01*
X111044951Y-57832179D01*
X110948444Y-58021585D01*
X110882753Y-58223760D01*
X110849500Y-58433713D01*
X106752732Y-58433713D01*
X106799627Y-58386818D01*
X106859416Y-58353677D01*
X106873182Y-58350499D01*
X106897872Y-58350499D01*
X106957483Y-58344091D01*
X107092331Y-58293796D01*
X107207546Y-58207546D01*
X107293796Y-58092331D01*
X107344091Y-57957483D01*
X107350500Y-57897873D01*
X107350499Y-56102128D01*
X107344091Y-56042517D01*
X107336123Y-56021155D01*
X107302951Y-55932214D01*
X107293797Y-55907671D01*
X107293793Y-55907664D01*
X107207547Y-55792455D01*
X107207544Y-55792452D01*
X107092335Y-55706206D01*
X107092328Y-55706202D01*
X106957482Y-55655908D01*
X106957483Y-55655908D01*
X106897883Y-55649501D01*
X106897881Y-55649500D01*
X106897873Y-55649500D01*
X106897864Y-55649500D01*
X105102129Y-55649500D01*
X105102123Y-55649501D01*
X105042516Y-55655908D01*
X104907671Y-55706202D01*
X104907664Y-55706206D01*
X104792455Y-55792452D01*
X104792452Y-55792455D01*
X104706206Y-55907664D01*
X104706202Y-55907671D01*
X104655908Y-56042517D01*
X104649501Y-56102116D01*
X104649501Y-56102123D01*
X104649500Y-56102135D01*
X104649500Y-56112690D01*
X104629815Y-56179729D01*
X104613181Y-56200371D01*
X103942962Y-56870590D01*
X103925925Y-56807007D01*
X103860099Y-56692993D01*
X103767007Y-56599901D01*
X103652993Y-56534075D01*
X103589409Y-56517037D01*
X104221716Y-55884728D01*
X104167550Y-55845375D01*
X103978217Y-55748904D01*
X103776129Y-55683242D01*
X103566246Y-55650000D01*
X103353754Y-55650000D01*
X103143872Y-55683242D01*
X103143869Y-55683242D01*
X102941782Y-55748904D01*
X102752439Y-55845380D01*
X102698282Y-55884727D01*
X102698282Y-55884728D01*
X103330591Y-56517037D01*
X103267007Y-56534075D01*
X103152993Y-56599901D01*
X103059901Y-56692993D01*
X102994075Y-56807007D01*
X102977037Y-56870591D01*
X102344728Y-56238282D01*
X102344727Y-56238282D01*
X102305380Y-56292439D01*
X102208904Y-56481782D01*
X102143242Y-56683869D01*
X102143242Y-56683872D01*
X102110000Y-56893753D01*
X102110000Y-57106246D01*
X102143242Y-57316127D01*
X102143242Y-57316130D01*
X102208904Y-57518217D01*
X102305375Y-57707550D01*
X102344728Y-57761716D01*
X102977037Y-57129408D01*
X102994075Y-57192993D01*
X103059901Y-57307007D01*
X103152993Y-57400099D01*
X103267007Y-57465925D01*
X103330590Y-57482962D01*
X102698282Y-58115269D01*
X102698282Y-58115270D01*
X102752452Y-58154626D01*
X102752451Y-58154626D01*
X102761495Y-58159234D01*
X102812292Y-58207208D01*
X102829087Y-58275029D01*
X102806550Y-58341164D01*
X102761499Y-58380202D01*
X102752182Y-58384949D01*
X102580213Y-58509890D01*
X102429890Y-58660213D01*
X102304951Y-58832179D01*
X102208444Y-59021585D01*
X102208443Y-59021587D01*
X102208443Y-59021588D01*
X102196478Y-59058412D01*
X102142753Y-59223760D01*
X102111705Y-59419792D01*
X102109500Y-59433713D01*
X100500500Y-59433713D01*
X100500500Y-54194681D01*
X100520185Y-54127642D01*
X100572989Y-54081887D01*
X100642147Y-54071943D01*
X100705703Y-54100968D01*
X100712181Y-54107000D01*
X100897915Y-54292734D01*
X101108711Y-54460838D01*
X101337003Y-54604284D01*
X101579921Y-54721267D01*
X101771049Y-54788145D01*
X101834397Y-54810312D01*
X101834405Y-54810315D01*
X101834408Y-54810315D01*
X101834409Y-54810316D01*
X102097268Y-54870312D01*
X102365187Y-54900499D01*
X102365188Y-54900500D01*
X102365191Y-54900500D01*
X102634812Y-54900500D01*
X102634812Y-54900499D01*
X102902732Y-54870312D01*
X103165591Y-54810316D01*
X103420079Y-54721267D01*
X103662997Y-54604284D01*
X103891289Y-54460838D01*
X104102085Y-54292734D01*
X104292734Y-54102085D01*
X104460838Y-53891289D01*
X104604284Y-53662997D01*
X104721267Y-53420079D01*
X104810316Y-53165591D01*
X104870312Y-52902732D01*
X104900500Y-52634809D01*
X104900500Y-52365191D01*
X104870312Y-52097268D01*
X104810316Y-51834409D01*
X104721267Y-51579921D01*
X104604284Y-51337003D01*
X104460838Y-51108711D01*
X104292734Y-50897915D01*
X104107000Y-50712181D01*
X104073515Y-50650858D01*
X104078499Y-50581166D01*
X104120371Y-50525233D01*
X104185835Y-50500816D01*
X104194681Y-50500500D01*
X140805319Y-50500500D01*
X140872358Y-50520185D01*
G37*
%TD.AperFunction*%
%TD*%
M02*
