%TF.GenerationSoftware,KiCad,Pcbnew,9.0.6*%
%TF.CreationDate,2025-12-14T21:01:52-08:00*%
%TF.ProjectId,driver3,64726976-6572-4332-9e6b-696361645f70,rev?*%
%TF.SameCoordinates,Original*%
%TF.FileFunction,Soldermask,Top*%
%TF.FilePolarity,Negative*%
%FSLAX46Y46*%
G04 Gerber Fmt 4.6, Leading zero omitted, Abs format (unit mm)*
G04 Created by KiCad (PCBNEW 9.0.6) date 2025-12-14 21:01:52*
%MOMM*%
%LPD*%
G01*
G04 APERTURE LIST*
G04 Aperture macros list*
%AMRoundRect*
0 Rectangle with rounded corners*
0 $1 Rounding radius*
0 $2 $3 $4 $5 $6 $7 $8 $9 X,Y pos of 4 corners*
0 Add a 4 corners polygon primitive as box body*
4,1,4,$2,$3,$4,$5,$6,$7,$8,$9,$2,$3,0*
0 Add four circle primitives for the rounded corners*
1,1,$1+$1,$2,$3*
1,1,$1+$1,$4,$5*
1,1,$1+$1,$6,$7*
1,1,$1+$1,$8,$9*
0 Add four rect primitives between the rounded corners*
20,1,$1+$1,$2,$3,$4,$5,0*
20,1,$1+$1,$4,$5,$6,$7,0*
20,1,$1+$1,$6,$7,$8,$9,0*
20,1,$1+$1,$8,$9,$2,$3,0*%
G04 Aperture macros list end*
%ADD10RoundRect,0.159000X-0.189000X0.159000X-0.189000X-0.159000X0.189000X-0.159000X0.189000X0.159000X0*%
%ADD11RoundRect,0.244000X0.244000X0.269000X-0.244000X0.269000X-0.244000X-0.269000X0.244000X-0.269000X0*%
%ADD12R,0.299999X1.050000*%
%ADD13C,3.800000*%
%ADD14C,1.700000*%
%ADD15R,1.700000X1.700000*%
%ADD16R,3.000000X3.000000*%
%ADD17R,0.450000X1.050000*%
%ADD18RoundRect,0.159000X0.159000X0.189000X-0.159000X0.189000X-0.159000X-0.189000X0.159000X-0.189000X0*%
%ADD19RoundRect,0.244000X0.269000X-0.244000X0.269000X0.244000X-0.269000X0.244000X-0.269000X-0.244000X0*%
%ADD20RoundRect,0.239000X0.239000X0.274000X-0.239000X0.274000X-0.239000X-0.274000X0.239000X-0.274000X0*%
%ADD21RoundRect,0.250000X-0.650000X-0.750000X0.650000X-0.750000X0.650000X0.750000X-0.650000X0.750000X0*%
%ADD22RoundRect,0.250000X0.600000X0.725000X-0.600000X0.725000X-0.600000X-0.725000X0.600000X-0.725000X0*%
%ADD23O,1.700000X1.950000*%
%ADD24RoundRect,0.266521X0.671479X-0.346479X0.671479X0.346479X-0.671479X0.346479X-0.671479X-0.346479X0*%
G04 APERTURE END LIST*
D10*
%TO.C,R5*%
X130600000Y-69575000D03*
X130600000Y-68575000D03*
%TD*%
D11*
%TO.C,C3*%
X131970000Y-68775000D03*
X133530000Y-68775000D03*
%TD*%
D12*
%TO.C,U2*%
X133500000Y-67025000D03*
X133000001Y-67025000D03*
X132500002Y-67025000D03*
X132000001Y-67025000D03*
X131500001Y-67025000D03*
X131000000Y-67025000D03*
X130500001Y-67025000D03*
X130000002Y-67025000D03*
X130000002Y-64025000D03*
X130500001Y-64025000D03*
X131000000Y-64025000D03*
X131500001Y-64025000D03*
X132000001Y-64025000D03*
X132500002Y-64025000D03*
X133000001Y-64025000D03*
X133500000Y-64025000D03*
%TD*%
D13*
%TO.C,H4*%
X145500000Y-81500000D03*
%TD*%
D14*
%TO.C,J2*%
X106210000Y-75780000D03*
X108750000Y-75780000D03*
X106210000Y-73240000D03*
X108750000Y-73240000D03*
X106210000Y-70700000D03*
X108750000Y-70700000D03*
X106210000Y-68160000D03*
X108750000Y-68160000D03*
X106210000Y-65620000D03*
X108750000Y-65620000D03*
X106210000Y-63080000D03*
X108750000Y-63080000D03*
X106210000Y-60540000D03*
X108750000Y-60540000D03*
X106210000Y-58000000D03*
D15*
X108750000Y-58000000D03*
%TD*%
D16*
%TO.C,U1*%
X120055000Y-65030000D03*
D17*
X117780000Y-67805000D03*
X118430000Y-67805000D03*
X119080000Y-67805000D03*
X119730000Y-67805000D03*
X120380000Y-67805000D03*
X121030000Y-67805000D03*
X121680000Y-67805000D03*
X122330000Y-67805000D03*
X122330000Y-62255000D03*
X121680000Y-62255000D03*
X121030000Y-62255000D03*
X120380000Y-62255000D03*
X119730000Y-62255000D03*
X119080000Y-62255000D03*
X118430000Y-62255000D03*
X117780000Y-62255000D03*
%TD*%
D18*
%TO.C,R2*%
X118095000Y-80295000D03*
X117095000Y-80295000D03*
%TD*%
%TO.C,R4*%
X125095000Y-80295000D03*
X124095000Y-80295000D03*
%TD*%
D19*
%TO.C,C1*%
X116280001Y-68009999D03*
X116280001Y-66449999D03*
%TD*%
D20*
%TO.C,D5*%
X125175000Y-81795000D03*
X123595000Y-81795000D03*
%TD*%
D13*
%TO.C,H2*%
X102500000Y-52500000D03*
%TD*%
D21*
%TO.C,D1*%
X117710002Y-70729999D03*
X113450002Y-70729999D03*
%TD*%
D22*
%TO.C,J3*%
X124135000Y-76545000D03*
D23*
X121635000Y-76545000D03*
X119135000Y-76545000D03*
X116635000Y-76545000D03*
X114135000Y-76545000D03*
%TD*%
D15*
%TO.C,J1*%
X139750000Y-58000000D03*
D14*
X142290000Y-58000000D03*
X139750000Y-60540000D03*
X142290000Y-60540000D03*
X139750000Y-63080000D03*
X142290000Y-63080000D03*
X139750000Y-65620000D03*
X142290000Y-65620000D03*
X139750000Y-68160000D03*
X142290000Y-68160000D03*
X139750000Y-70700000D03*
X142290000Y-70700000D03*
X139750000Y-73240000D03*
X142290000Y-73240000D03*
X139750000Y-75780000D03*
X142290000Y-75780000D03*
%TD*%
D20*
%TO.C,D2*%
X114675000Y-81795000D03*
X113095000Y-81795000D03*
%TD*%
D24*
%TO.C,C2*%
X114280001Y-67959999D03*
X114280001Y-64999999D03*
%TD*%
D13*
%TO.C,H1*%
X145500000Y-52500000D03*
%TD*%
D20*
%TO.C,D3*%
X118175000Y-81795000D03*
X116595000Y-81795000D03*
%TD*%
D13*
%TO.C,H3*%
X102400000Y-81500000D03*
%TD*%
D18*
%TO.C,R1*%
X114595000Y-80295000D03*
X113595000Y-80295000D03*
%TD*%
D15*
%TO.C,J4*%
X140080000Y-81200000D03*
D14*
X137540000Y-81200000D03*
X135000000Y-81200000D03*
%TD*%
D18*
%TO.C,R3*%
X121595000Y-80295000D03*
X120595000Y-80295000D03*
%TD*%
D20*
%TO.C,D4*%
X121675000Y-81795000D03*
X120095000Y-81795000D03*
%TD*%
M02*
