%TF.GenerationSoftware,KiCad,Pcbnew,9.0.6*%
%TF.CreationDate,2025-12-16T23:42:37-08:00*%
%TF.ProjectId,driver3,64726976-6572-4332-9e6b-696361645f70,rev?*%
%TF.SameCoordinates,Original*%
%TF.FileFunction,Copper,L2,Bot*%
%TF.FilePolarity,Positive*%
%FSLAX46Y46*%
G04 Gerber Fmt 4.6, Leading zero omitted, Abs format (unit mm)*
G04 Created by KiCad (PCBNEW 9.0.6) date 2025-12-16 23:42:37*
%MOMM*%
%LPD*%
G01*
G04 APERTURE LIST*
G04 Aperture macros list*
%AMRoundRect*
0 Rectangle with rounded corners*
0 $1 Rounding radius*
0 $2 $3 $4 $5 $6 $7 $8 $9 X,Y pos of 4 corners*
0 Add a 4 corners polygon primitive as box body*
4,1,4,$2,$3,$4,$5,$6,$7,$8,$9,$2,$3,0*
0 Add four circle primitives for the rounded corners*
1,1,$1+$1,$2,$3*
1,1,$1+$1,$4,$5*
1,1,$1+$1,$6,$7*
1,1,$1+$1,$8,$9*
0 Add four rect primitives between the rounded corners*
20,1,$1+$1,$2,$3,$4,$5,0*
20,1,$1+$1,$4,$5,$6,$7,0*
20,1,$1+$1,$6,$7,$8,$9,0*
20,1,$1+$1,$8,$9,$2,$3,0*%
G04 Aperture macros list end*
%TA.AperFunction,ComponentPad*%
%ADD10C,0.600000*%
%TD*%
%TA.AperFunction,SMDPad,CuDef*%
%ADD11R,5.000000X3.400000*%
%TD*%
%TA.AperFunction,ComponentPad*%
%ADD12O,1.700000X1.950000*%
%TD*%
%TA.AperFunction,ComponentPad*%
%ADD13RoundRect,0.250000X0.600000X0.725000X-0.600000X0.725000X-0.600000X-0.725000X0.600000X-0.725000X0*%
%TD*%
%TA.AperFunction,ComponentPad*%
%ADD14C,3.800000*%
%TD*%
%TA.AperFunction,ComponentPad*%
%ADD15R,1.700000X1.700000*%
%TD*%
%TA.AperFunction,ComponentPad*%
%ADD16C,1.700000*%
%TD*%
%TA.AperFunction,ViaPad*%
%ADD17C,0.600000*%
%TD*%
%TA.AperFunction,Conductor*%
%ADD18C,0.200000*%
%TD*%
G04 APERTURE END LIST*
D10*
%TO.P,U1,17,PAD*%
%TO.N,GND*%
X121925000Y-70120000D03*
X123025000Y-70120000D03*
X124125000Y-70120000D03*
X125225000Y-70120000D03*
X126325000Y-70120000D03*
X121925000Y-69020000D03*
X123025000Y-69020000D03*
X124125000Y-69020000D03*
D11*
X124125000Y-69020000D03*
D10*
X125225000Y-69020000D03*
X126325000Y-69020000D03*
X121925000Y-67920000D03*
X123025000Y-67920000D03*
X124125000Y-67920000D03*
X125225000Y-67920000D03*
X126325000Y-67920000D03*
%TD*%
D12*
%TO.P,J3,5,Pin_5*%
%TO.N,+12V*%
X114121000Y-76855000D03*
%TO.P,J3,4,Pin_4*%
%TO.N,Net-(J3-Pin_4)*%
X116621000Y-76855000D03*
%TO.P,J3,3,Pin_3*%
%TO.N,Net-(J3-Pin_3)*%
X119121000Y-76855000D03*
%TO.P,J3,2,Pin_2*%
%TO.N,Net-(J3-Pin_2)*%
X121621000Y-76855000D03*
D13*
%TO.P,J3,1,Pin_1*%
%TO.N,Net-(J3-Pin_1)*%
X124121000Y-76855000D03*
%TD*%
D14*
%TO.P,H4,1,1*%
%TO.N,unconnected-(H4-Pad1)*%
X145500000Y-81500000D03*
%TD*%
%TO.P,H2,1,1*%
%TO.N,unconnected-(H2-Pad1)*%
X102500000Y-52500000D03*
%TD*%
D15*
%TO.P,J2,1,Pin_1*%
%TO.N,LATCH*%
X108750000Y-58000000D03*
D16*
%TO.P,J2,2,Pin_2*%
%TO.N,SCLK*%
X106210000Y-58000000D03*
%TO.P,J2,3,Pin_3*%
%TO.N,LOAD*%
X108750000Y-60540000D03*
%TO.P,J2,4,Pin_4*%
%TO.N,NENBL*%
X106210000Y-60540000D03*
%TO.P,J2,5,Pin_5*%
%TO.N,PI*%
X108750000Y-63080000D03*
%TO.P,J2,6,Pin_6*%
%TO.N,PO*%
X106210000Y-63080000D03*
%TO.P,J2,7,Pin_7*%
%TO.N,+3V3*%
X108750000Y-65620000D03*
%TO.P,J2,8,Pin_8*%
%TO.N,FAULT*%
X106210000Y-65620000D03*
%TO.P,J2,9,Pin_9*%
%TO.N,GND*%
X108750000Y-68160000D03*
%TO.P,J2,10,Pin_10*%
%TO.N,+12V*%
X106210000Y-68160000D03*
%TO.P,J2,11,Pin_11*%
%TO.N,GND*%
X108750000Y-70700000D03*
%TO.P,J2,12,Pin_12*%
%TO.N,+12V*%
X106210000Y-70700000D03*
%TO.P,J2,13,Pin_13*%
%TO.N,GND*%
X108750000Y-73240000D03*
%TO.P,J2,14,Pin_14*%
%TO.N,+12V*%
X106210000Y-73240000D03*
%TO.P,J2,15,Pin_15*%
%TO.N,GND*%
X108750000Y-75780000D03*
%TO.P,J2,16,Pin_16*%
%TO.N,+12V*%
X106210000Y-75780000D03*
%TD*%
D15*
%TO.P,J1,1,Pin_1*%
%TO.N,LATCH*%
X139750000Y-58000000D03*
D16*
%TO.P,J1,2,Pin_2*%
%TO.N,SCLK*%
X142290000Y-58000000D03*
%TO.P,J1,3,Pin_3*%
%TO.N,LOAD*%
X139750000Y-60540000D03*
%TO.P,J1,4,Pin_4*%
%TO.N,NENBL*%
X142290000Y-60540000D03*
%TO.P,J1,5,Pin_5*%
%TO.N,CO*%
X139750000Y-63080000D03*
%TO.P,J1,6,Pin_6*%
%TO.N,CI*%
X142290000Y-63080000D03*
%TO.P,J1,7,Pin_7*%
%TO.N,+3V3*%
X139750000Y-65620000D03*
%TO.P,J1,8,Pin_8*%
%TO.N,FAULT*%
X142290000Y-65620000D03*
%TO.P,J1,9,Pin_9*%
%TO.N,GND*%
X139750000Y-68160000D03*
%TO.P,J1,10,Pin_10*%
%TO.N,+12V*%
X142290000Y-68160000D03*
%TO.P,J1,11,Pin_11*%
%TO.N,GND*%
X139750000Y-70700000D03*
%TO.P,J1,12,Pin_12*%
%TO.N,+12V*%
X142290000Y-70700000D03*
%TO.P,J1,13,Pin_13*%
%TO.N,GND*%
X139750000Y-73240000D03*
%TO.P,J1,14,Pin_14*%
%TO.N,+12V*%
X142290000Y-73240000D03*
%TO.P,J1,15,Pin_15*%
%TO.N,GND*%
X139750000Y-75780000D03*
%TO.P,J1,16,Pin_16*%
%TO.N,+12V*%
X142290000Y-75780000D03*
%TD*%
D14*
%TO.P,H1,1,1*%
%TO.N,unconnected-(H1-Pad1)*%
X145500000Y-52500000D03*
%TD*%
%TO.P,H3,1,1*%
%TO.N,unconnected-(H3-Pad1)*%
X102400000Y-81500000D03*
%TD*%
D15*
%TO.P,J4,1,Pin_1*%
%TO.N,GND*%
X130000000Y-78000000D03*
D16*
%TO.P,J4,2,Pin_2*%
%TO.N,+12V*%
X132540000Y-78000000D03*
%TO.P,J4,3,Pin_3*%
%TO.N,Net-(J4-Pin_3)*%
X135080000Y-78000000D03*
%TD*%
D17*
%TO.N,CO*%
X123250000Y-63250000D03*
%TO.N,+3V3*%
X137500000Y-64500000D03*
X129500000Y-64500000D03*
%TO.N,PO*%
X130500000Y-62000000D03*
%TO.N,CI*%
X131500000Y-61929000D03*
%TO.N,LOAD*%
X136500000Y-60540000D03*
%TO.N,SCLK*%
X135000000Y-56849000D03*
%TO.N,NENBL*%
X127000000Y-59389000D03*
%TO.N,LATCH*%
X125500000Y-58000000D03*
%TO.N,SCLK*%
X124250000Y-56849000D03*
%TO.N,PI*%
X122250000Y-63250000D03*
%TO.N,GND*%
X134000000Y-68115000D03*
%TD*%
D18*
%TO.N,SCLK*%
X124250000Y-56849000D02*
X107361000Y-56849000D01*
X124250000Y-56849000D02*
X135000000Y-56849000D01*
X107361000Y-56849000D02*
X106210000Y-58000000D01*
%TO.N,CO*%
X123250000Y-63250000D02*
X123420000Y-63080000D01*
X123420000Y-63080000D02*
X139750000Y-63080000D01*
%TO.N,+3V3*%
X137500000Y-64500000D02*
X138630000Y-64500000D01*
X109870000Y-64500000D02*
X108750000Y-65620000D01*
X138630000Y-64500000D02*
X139750000Y-65620000D01*
X129500000Y-64500000D02*
X137500000Y-64500000D01*
X129500000Y-64500000D02*
X109870000Y-64500000D01*
%TO.N,PO*%
X130500000Y-62000000D02*
X130429000Y-61929000D01*
X130429000Y-61929000D02*
X107361000Y-61929000D01*
X107361000Y-61929000D02*
X106210000Y-63080000D01*
%TO.N,CI*%
X141139000Y-61929000D02*
X142290000Y-63080000D01*
X131500000Y-61929000D02*
X141139000Y-61929000D01*
%TO.N,PI*%
X122250000Y-63250000D02*
X122080000Y-63080000D01*
X122080000Y-63080000D02*
X108750000Y-63080000D01*
%TO.N,NENBL*%
X127000000Y-59389000D02*
X141139000Y-59389000D01*
%TO.N,LATCH*%
X108750000Y-58000000D02*
X125500000Y-58000000D01*
%TO.N,SCLK*%
X135000000Y-56849000D02*
X141139000Y-56849000D01*
X141139000Y-56849000D02*
X142290000Y-58000000D01*
%TO.N,LATCH*%
X125500000Y-58000000D02*
X139750000Y-58000000D01*
%TO.N,NENBL*%
X106210000Y-60540000D02*
X107361000Y-59389000D01*
X107361000Y-59389000D02*
X127000000Y-59389000D01*
X141139000Y-59389000D02*
X142290000Y-60540000D01*
%TO.N,LOAD*%
X108750000Y-60540000D02*
X139750000Y-60540000D01*
%TD*%
%TA.AperFunction,Conductor*%
%TO.N,GND*%
G36*
X108284075Y-73432993D02*
G01*
X108349901Y-73547007D01*
X108442993Y-73640099D01*
X108557007Y-73705925D01*
X108620591Y-73722962D01*
X108019971Y-74323581D01*
X108098711Y-74440895D01*
X108099920Y-74444729D01*
X108102844Y-74447491D01*
X108110343Y-74477778D01*
X108119727Y-74507529D01*
X108118671Y-74511408D01*
X108119638Y-74515312D01*
X108109573Y-74544844D01*
X108101383Y-74574947D01*
X108098397Y-74577640D01*
X108097100Y-74581447D01*
X108052051Y-74620483D01*
X108042440Y-74625380D01*
X107988282Y-74664727D01*
X107988282Y-74664728D01*
X108620591Y-75297037D01*
X108557007Y-75314075D01*
X108442993Y-75379901D01*
X108349901Y-75472993D01*
X108284075Y-75587007D01*
X108267037Y-75650591D01*
X107634728Y-75018282D01*
X107634727Y-75018282D01*
X107595380Y-75072440D01*
X107595376Y-75072446D01*
X107590760Y-75081505D01*
X107542781Y-75132297D01*
X107474959Y-75149087D01*
X107408826Y-75126543D01*
X107369794Y-75081493D01*
X107365051Y-75072184D01*
X107365049Y-75072181D01*
X107365048Y-75072179D01*
X107240109Y-74900213D01*
X107089786Y-74749890D01*
X106917820Y-74624951D01*
X106917115Y-74624591D01*
X106909054Y-74620485D01*
X106858259Y-74572512D01*
X106841463Y-74504692D01*
X106863999Y-74438556D01*
X106909054Y-74399515D01*
X106917816Y-74395051D01*
X107016187Y-74323581D01*
X107089786Y-74270109D01*
X107089788Y-74270106D01*
X107089792Y-74270104D01*
X107240104Y-74119792D01*
X107240106Y-74119788D01*
X107240109Y-74119786D01*
X107325890Y-74001717D01*
X107365051Y-73947816D01*
X107369793Y-73938508D01*
X107417763Y-73887711D01*
X107485583Y-73870911D01*
X107551719Y-73893445D01*
X107590763Y-73938500D01*
X107595373Y-73947547D01*
X107634728Y-74001716D01*
X108267037Y-73369408D01*
X108284075Y-73432993D01*
G37*
%TD.AperFunction*%
%TA.AperFunction,Conductor*%
G36*
X140865270Y-74001717D02*
G01*
X140865270Y-74001716D01*
X140904622Y-73947555D01*
X140909232Y-73938507D01*
X140957205Y-73887709D01*
X141025025Y-73870912D01*
X141091161Y-73893447D01*
X141130204Y-73938504D01*
X141134949Y-73947817D01*
X141259890Y-74119786D01*
X141410213Y-74270109D01*
X141582182Y-74395050D01*
X141590946Y-74399516D01*
X141641742Y-74447491D01*
X141658536Y-74515312D01*
X141635998Y-74581447D01*
X141590946Y-74620484D01*
X141582182Y-74624949D01*
X141410213Y-74749890D01*
X141259890Y-74900213D01*
X141134949Y-75072182D01*
X141130202Y-75081499D01*
X141082227Y-75132293D01*
X141014405Y-75149087D01*
X140948271Y-75126548D01*
X140909234Y-75081495D01*
X140904626Y-75072452D01*
X140865270Y-75018282D01*
X140865269Y-75018282D01*
X140232962Y-75650590D01*
X140215925Y-75587007D01*
X140150099Y-75472993D01*
X140057007Y-75379901D01*
X139942993Y-75314075D01*
X139879409Y-75297037D01*
X140511716Y-74664728D01*
X140457550Y-74625375D01*
X140447954Y-74620486D01*
X140397157Y-74572512D01*
X140380361Y-74504692D01*
X140402897Y-74438556D01*
X140447954Y-74399514D01*
X140457554Y-74394622D01*
X140511716Y-74355270D01*
X140511717Y-74355270D01*
X139879408Y-73722962D01*
X139942993Y-73705925D01*
X140057007Y-73640099D01*
X140150099Y-73547007D01*
X140215925Y-73432993D01*
X140232962Y-73369409D01*
X140865270Y-74001717D01*
G37*
%TD.AperFunction*%
%TA.AperFunction,Conductor*%
G36*
X108284075Y-70892993D02*
G01*
X108349901Y-71007007D01*
X108442993Y-71100099D01*
X108557007Y-71165925D01*
X108620591Y-71182962D01*
X108019971Y-71783581D01*
X108098711Y-71900895D01*
X108099920Y-71904729D01*
X108102844Y-71907491D01*
X108110343Y-71937778D01*
X108119727Y-71967529D01*
X108118671Y-71971408D01*
X108119638Y-71975312D01*
X108109573Y-72004844D01*
X108101383Y-72034947D01*
X108098397Y-72037640D01*
X108097100Y-72041447D01*
X108052051Y-72080483D01*
X108042440Y-72085380D01*
X107988282Y-72124727D01*
X107988282Y-72124728D01*
X108620591Y-72757037D01*
X108557007Y-72774075D01*
X108442993Y-72839901D01*
X108349901Y-72932993D01*
X108284075Y-73047007D01*
X108267037Y-73110591D01*
X107634728Y-72478282D01*
X107634727Y-72478282D01*
X107595380Y-72532440D01*
X107595376Y-72532446D01*
X107590760Y-72541505D01*
X107542781Y-72592297D01*
X107474959Y-72609087D01*
X107408826Y-72586543D01*
X107369794Y-72541493D01*
X107365051Y-72532184D01*
X107365049Y-72532181D01*
X107365048Y-72532179D01*
X107240109Y-72360213D01*
X107089786Y-72209890D01*
X106917820Y-72084951D01*
X106917115Y-72084591D01*
X106909054Y-72080485D01*
X106858259Y-72032512D01*
X106841463Y-71964692D01*
X106863999Y-71898556D01*
X106909054Y-71859515D01*
X106917816Y-71855051D01*
X107016187Y-71783581D01*
X107089786Y-71730109D01*
X107089788Y-71730106D01*
X107089792Y-71730104D01*
X107240104Y-71579792D01*
X107240106Y-71579788D01*
X107240109Y-71579786D01*
X107325890Y-71461717D01*
X107365051Y-71407816D01*
X107369793Y-71398508D01*
X107417763Y-71347711D01*
X107485583Y-71330911D01*
X107551719Y-71353445D01*
X107590763Y-71398500D01*
X107595373Y-71407547D01*
X107634728Y-71461716D01*
X108267037Y-70829408D01*
X108284075Y-70892993D01*
G37*
%TD.AperFunction*%
%TA.AperFunction,Conductor*%
G36*
X140865270Y-71461717D02*
G01*
X140865270Y-71461716D01*
X140904622Y-71407555D01*
X140909232Y-71398507D01*
X140957205Y-71347709D01*
X141025025Y-71330912D01*
X141091161Y-71353447D01*
X141130204Y-71398504D01*
X141134949Y-71407817D01*
X141259890Y-71579786D01*
X141410213Y-71730109D01*
X141582182Y-71855050D01*
X141590946Y-71859516D01*
X141641742Y-71907491D01*
X141658536Y-71975312D01*
X141635998Y-72041447D01*
X141590946Y-72080484D01*
X141582182Y-72084949D01*
X141410213Y-72209890D01*
X141259890Y-72360213D01*
X141134949Y-72532182D01*
X141130202Y-72541499D01*
X141082227Y-72592293D01*
X141014405Y-72609087D01*
X140948271Y-72586548D01*
X140909234Y-72541495D01*
X140904626Y-72532452D01*
X140865270Y-72478282D01*
X140865269Y-72478282D01*
X140232962Y-73110590D01*
X140215925Y-73047007D01*
X140150099Y-72932993D01*
X140057007Y-72839901D01*
X139942993Y-72774075D01*
X139879409Y-72757037D01*
X140511716Y-72124728D01*
X140457550Y-72085375D01*
X140447954Y-72080486D01*
X140397157Y-72032512D01*
X140380361Y-71964692D01*
X140402897Y-71898556D01*
X140447954Y-71859514D01*
X140457554Y-71854622D01*
X140511716Y-71815270D01*
X140511717Y-71815270D01*
X139879408Y-71182962D01*
X139942993Y-71165925D01*
X140057007Y-71100099D01*
X140150099Y-71007007D01*
X140215925Y-70892993D01*
X140232962Y-70829409D01*
X140865270Y-71461717D01*
G37*
%TD.AperFunction*%
%TA.AperFunction,Conductor*%
G36*
X108284075Y-68352993D02*
G01*
X108349901Y-68467007D01*
X108442993Y-68560099D01*
X108557007Y-68625925D01*
X108620591Y-68642962D01*
X108019971Y-69243581D01*
X108098711Y-69360895D01*
X108099920Y-69364729D01*
X108102844Y-69367491D01*
X108110343Y-69397778D01*
X108119727Y-69427529D01*
X108118671Y-69431408D01*
X108119638Y-69435312D01*
X108109573Y-69464844D01*
X108101383Y-69494947D01*
X108098397Y-69497640D01*
X108097100Y-69501447D01*
X108052051Y-69540483D01*
X108042440Y-69545380D01*
X107988282Y-69584727D01*
X107988282Y-69584728D01*
X108620591Y-70217037D01*
X108557007Y-70234075D01*
X108442993Y-70299901D01*
X108349901Y-70392993D01*
X108284075Y-70507007D01*
X108267037Y-70570591D01*
X107634728Y-69938282D01*
X107634727Y-69938282D01*
X107595380Y-69992440D01*
X107595376Y-69992446D01*
X107590760Y-70001505D01*
X107542781Y-70052297D01*
X107474959Y-70069087D01*
X107408826Y-70046543D01*
X107369794Y-70001493D01*
X107365051Y-69992184D01*
X107365049Y-69992181D01*
X107365048Y-69992179D01*
X107240109Y-69820213D01*
X107089786Y-69669890D01*
X106917820Y-69544951D01*
X106917115Y-69544591D01*
X106909054Y-69540485D01*
X106858259Y-69492512D01*
X106841463Y-69424692D01*
X106863999Y-69358556D01*
X106909054Y-69319515D01*
X106917816Y-69315051D01*
X107016187Y-69243581D01*
X107089786Y-69190109D01*
X107089788Y-69190106D01*
X107089792Y-69190104D01*
X107240104Y-69039792D01*
X107240106Y-69039788D01*
X107240109Y-69039786D01*
X107325890Y-68921717D01*
X107365051Y-68867816D01*
X107369793Y-68858508D01*
X107417763Y-68807711D01*
X107485583Y-68790911D01*
X107551719Y-68813445D01*
X107590763Y-68858500D01*
X107595373Y-68867547D01*
X107634728Y-68921716D01*
X108267037Y-68289408D01*
X108284075Y-68352993D01*
G37*
%TD.AperFunction*%
%TA.AperFunction,Conductor*%
G36*
X140865270Y-68921717D02*
G01*
X140865270Y-68921716D01*
X140904622Y-68867555D01*
X140909232Y-68858507D01*
X140957205Y-68807709D01*
X141025025Y-68790912D01*
X141091161Y-68813447D01*
X141130204Y-68858504D01*
X141134949Y-68867817D01*
X141259890Y-69039786D01*
X141410213Y-69190109D01*
X141582182Y-69315050D01*
X141590946Y-69319516D01*
X141641742Y-69367491D01*
X141658536Y-69435312D01*
X141635998Y-69501447D01*
X141590946Y-69540484D01*
X141582182Y-69544949D01*
X141410213Y-69669890D01*
X141259890Y-69820213D01*
X141134949Y-69992182D01*
X141130202Y-70001499D01*
X141082227Y-70052293D01*
X141014405Y-70069087D01*
X140948271Y-70046548D01*
X140909234Y-70001495D01*
X140904626Y-69992452D01*
X140865270Y-69938282D01*
X140865269Y-69938282D01*
X140232962Y-70570590D01*
X140215925Y-70507007D01*
X140150099Y-70392993D01*
X140057007Y-70299901D01*
X139942993Y-70234075D01*
X139879409Y-70217037D01*
X140511716Y-69584728D01*
X140457550Y-69545375D01*
X140447954Y-69540486D01*
X140397157Y-69492512D01*
X140380361Y-69424692D01*
X140402897Y-69358556D01*
X140447954Y-69319514D01*
X140457554Y-69314622D01*
X140511716Y-69275270D01*
X140511717Y-69275270D01*
X139879408Y-68642962D01*
X139942993Y-68625925D01*
X140057007Y-68560099D01*
X140150099Y-68467007D01*
X140215925Y-68352993D01*
X140232962Y-68289409D01*
X140865270Y-68921717D01*
G37*
%TD.AperFunction*%
%TA.AperFunction,Conductor*%
G36*
X107551444Y-66273999D02*
G01*
X107590486Y-66319056D01*
X107594951Y-66327820D01*
X107719890Y-66499786D01*
X107870213Y-66650109D01*
X108042179Y-66775048D01*
X108042181Y-66775049D01*
X108042184Y-66775051D01*
X108051493Y-66779794D01*
X108102290Y-66827766D01*
X108119087Y-66895587D01*
X108096552Y-66961722D01*
X108051505Y-67000760D01*
X108042446Y-67005376D01*
X108042440Y-67005380D01*
X107988282Y-67044727D01*
X107988282Y-67044728D01*
X108620591Y-67677037D01*
X108557007Y-67694075D01*
X108442993Y-67759901D01*
X108349901Y-67852993D01*
X108284075Y-67967007D01*
X108267037Y-68030591D01*
X107634728Y-67398282D01*
X107634727Y-67398282D01*
X107595380Y-67452440D01*
X107595376Y-67452446D01*
X107590760Y-67461505D01*
X107542781Y-67512297D01*
X107474959Y-67529087D01*
X107408826Y-67506543D01*
X107369794Y-67461493D01*
X107365051Y-67452184D01*
X107365049Y-67452181D01*
X107365048Y-67452179D01*
X107240109Y-67280213D01*
X107089786Y-67129890D01*
X106917820Y-67004951D01*
X106909600Y-67000763D01*
X106909054Y-67000485D01*
X106858259Y-66952512D01*
X106841463Y-66884692D01*
X106863999Y-66818556D01*
X106909054Y-66779515D01*
X106917816Y-66775051D01*
X106939789Y-66759086D01*
X107089786Y-66650109D01*
X107089788Y-66650106D01*
X107089792Y-66650104D01*
X107240104Y-66499792D01*
X107240106Y-66499788D01*
X107240109Y-66499786D01*
X107365048Y-66327820D01*
X107365047Y-66327820D01*
X107365051Y-66327816D01*
X107369514Y-66319054D01*
X107417488Y-66268259D01*
X107485308Y-66251463D01*
X107551444Y-66273999D01*
G37*
%TD.AperFunction*%
%TA.AperFunction,Conductor*%
G36*
X141091444Y-66273999D02*
G01*
X141130486Y-66319056D01*
X141134951Y-66327820D01*
X141259890Y-66499786D01*
X141410213Y-66650109D01*
X141582182Y-66775050D01*
X141590946Y-66779516D01*
X141641742Y-66827491D01*
X141658536Y-66895312D01*
X141635998Y-66961447D01*
X141590946Y-67000484D01*
X141582182Y-67004949D01*
X141410213Y-67129890D01*
X141259890Y-67280213D01*
X141134949Y-67452182D01*
X141130202Y-67461499D01*
X141082227Y-67512293D01*
X141014405Y-67529087D01*
X140948271Y-67506548D01*
X140909234Y-67461495D01*
X140904626Y-67452452D01*
X140865270Y-67398282D01*
X140865269Y-67398282D01*
X140232962Y-68030590D01*
X140215925Y-67967007D01*
X140150099Y-67852993D01*
X140057007Y-67759901D01*
X139942993Y-67694075D01*
X139879409Y-67677037D01*
X140511716Y-67044728D01*
X140457547Y-67005373D01*
X140457547Y-67005372D01*
X140448500Y-67000763D01*
X140397706Y-66952788D01*
X140380912Y-66884966D01*
X140403451Y-66818832D01*
X140448508Y-66779793D01*
X140457816Y-66775051D01*
X140537007Y-66717515D01*
X140629786Y-66650109D01*
X140629788Y-66650106D01*
X140629792Y-66650104D01*
X140780104Y-66499792D01*
X140780106Y-66499788D01*
X140780109Y-66499786D01*
X140905048Y-66327820D01*
X140905047Y-66327820D01*
X140905051Y-66327816D01*
X140909514Y-66319054D01*
X140957488Y-66268259D01*
X141025308Y-66251463D01*
X141091444Y-66273999D01*
G37*
%TD.AperFunction*%
%TA.AperFunction,Conductor*%
G36*
X143872358Y-50520185D02*
G01*
X143918113Y-50572989D01*
X143928057Y-50642147D01*
X143899032Y-50705703D01*
X143893000Y-50712181D01*
X143707265Y-50897915D01*
X143539161Y-51108712D01*
X143395714Y-51337005D01*
X143278734Y-51579917D01*
X143189687Y-51834397D01*
X143189684Y-51834405D01*
X143129688Y-52097268D01*
X143129686Y-52097280D01*
X143099500Y-52365186D01*
X143099500Y-52634813D01*
X143129686Y-52902719D01*
X143129688Y-52902731D01*
X143189684Y-53165594D01*
X143189687Y-53165602D01*
X143278734Y-53420082D01*
X143395714Y-53662994D01*
X143395716Y-53662997D01*
X143539162Y-53891289D01*
X143664573Y-54048549D01*
X143683228Y-54071943D01*
X143707266Y-54102085D01*
X143897915Y-54292734D01*
X144108711Y-54460838D01*
X144337003Y-54604284D01*
X144579921Y-54721267D01*
X144771049Y-54788145D01*
X144834397Y-54810312D01*
X144834405Y-54810315D01*
X144834408Y-54810315D01*
X144834409Y-54810316D01*
X145097268Y-54870312D01*
X145365187Y-54900499D01*
X145365188Y-54900500D01*
X145365191Y-54900500D01*
X145634812Y-54900500D01*
X145634812Y-54900499D01*
X145902732Y-54870312D01*
X146165591Y-54810316D01*
X146420079Y-54721267D01*
X146662997Y-54604284D01*
X146891289Y-54460838D01*
X147102085Y-54292734D01*
X147287819Y-54107000D01*
X147349142Y-54073515D01*
X147418834Y-54078499D01*
X147474767Y-54120371D01*
X147499184Y-54185835D01*
X147499500Y-54194681D01*
X147499500Y-79805319D01*
X147479815Y-79872358D01*
X147427011Y-79918113D01*
X147357853Y-79928057D01*
X147294297Y-79899032D01*
X147287819Y-79893000D01*
X147102084Y-79707265D01*
X147048549Y-79664573D01*
X146891289Y-79539162D01*
X146662997Y-79395716D01*
X146662994Y-79395714D01*
X146420082Y-79278734D01*
X146165602Y-79189687D01*
X146165594Y-79189684D01*
X145968446Y-79144687D01*
X145902732Y-79129688D01*
X145902728Y-79129687D01*
X145902719Y-79129686D01*
X145634813Y-79099500D01*
X145634809Y-79099500D01*
X145365191Y-79099500D01*
X145365186Y-79099500D01*
X145097280Y-79129686D01*
X145097268Y-79129688D01*
X144834405Y-79189684D01*
X144834397Y-79189687D01*
X144579917Y-79278734D01*
X144337005Y-79395714D01*
X144108712Y-79539161D01*
X143897915Y-79707265D01*
X143707265Y-79897915D01*
X143539161Y-80108712D01*
X143395714Y-80337005D01*
X143278734Y-80579917D01*
X143189687Y-80834397D01*
X143189684Y-80834405D01*
X143129688Y-81097268D01*
X143129686Y-81097280D01*
X143099500Y-81365186D01*
X143099500Y-81634813D01*
X143129686Y-81902719D01*
X143129688Y-81902731D01*
X143189684Y-82165594D01*
X143189687Y-82165602D01*
X143278734Y-82420082D01*
X143395714Y-82662994D01*
X143395716Y-82662997D01*
X143539162Y-82891289D01*
X143600500Y-82968204D01*
X143707265Y-83102084D01*
X143893000Y-83287819D01*
X143926485Y-83349142D01*
X143921501Y-83418834D01*
X143879629Y-83474767D01*
X143814165Y-83499184D01*
X143805319Y-83499500D01*
X104094681Y-83499500D01*
X104027642Y-83479815D01*
X103981887Y-83427011D01*
X103971943Y-83357853D01*
X104000968Y-83294297D01*
X104007000Y-83287819D01*
X104192734Y-83102085D01*
X104360838Y-82891289D01*
X104504284Y-82662997D01*
X104621267Y-82420079D01*
X104710316Y-82165591D01*
X104770312Y-81902732D01*
X104800500Y-81634809D01*
X104800500Y-81365191D01*
X104770312Y-81097268D01*
X104710316Y-80834409D01*
X104621267Y-80579921D01*
X104504284Y-80337003D01*
X104360838Y-80108711D01*
X104192734Y-79897915D01*
X104002085Y-79707266D01*
X103791289Y-79539162D01*
X103562997Y-79395716D01*
X103562994Y-79395714D01*
X103320082Y-79278734D01*
X103065602Y-79189687D01*
X103065594Y-79189684D01*
X102868446Y-79144687D01*
X102802732Y-79129688D01*
X102802728Y-79129687D01*
X102802719Y-79129686D01*
X102534813Y-79099500D01*
X102534809Y-79099500D01*
X102265191Y-79099500D01*
X102265186Y-79099500D01*
X101997280Y-79129686D01*
X101997268Y-79129688D01*
X101734405Y-79189684D01*
X101734397Y-79189687D01*
X101479917Y-79278734D01*
X101237005Y-79395714D01*
X101008712Y-79539161D01*
X100797915Y-79707265D01*
X100712181Y-79793000D01*
X100650858Y-79826485D01*
X100581166Y-79821501D01*
X100525233Y-79779629D01*
X100500816Y-79714165D01*
X100500500Y-79705319D01*
X100500500Y-57893713D01*
X104859500Y-57893713D01*
X104859500Y-58106286D01*
X104892753Y-58316239D01*
X104958444Y-58518414D01*
X105054951Y-58707820D01*
X105179890Y-58879786D01*
X105330213Y-59030109D01*
X105502182Y-59155050D01*
X105510946Y-59159516D01*
X105561742Y-59207491D01*
X105578536Y-59275312D01*
X105555998Y-59341447D01*
X105510946Y-59380484D01*
X105502182Y-59384949D01*
X105330213Y-59509890D01*
X105179890Y-59660213D01*
X105054951Y-59832179D01*
X104958444Y-60021585D01*
X104892753Y-60223760D01*
X104859500Y-60433713D01*
X104859500Y-60646286D01*
X104892753Y-60856239D01*
X104958444Y-61058414D01*
X105054951Y-61247820D01*
X105179890Y-61419786D01*
X105330213Y-61570109D01*
X105502182Y-61695050D01*
X105510946Y-61699516D01*
X105561742Y-61747491D01*
X105578536Y-61815312D01*
X105555998Y-61881447D01*
X105510946Y-61920484D01*
X105502182Y-61924949D01*
X105330213Y-62049890D01*
X105179890Y-62200213D01*
X105054951Y-62372179D01*
X104958444Y-62561585D01*
X104892753Y-62763760D01*
X104859500Y-62973713D01*
X104859500Y-63186286D01*
X104892753Y-63396239D01*
X104958444Y-63598414D01*
X105054951Y-63787820D01*
X105179890Y-63959786D01*
X105330213Y-64110109D01*
X105502182Y-64235050D01*
X105510946Y-64239516D01*
X105561742Y-64287491D01*
X105578536Y-64355312D01*
X105555998Y-64421447D01*
X105510946Y-64460484D01*
X105502182Y-64464949D01*
X105330213Y-64589890D01*
X105179890Y-64740213D01*
X105054951Y-64912179D01*
X104958444Y-65101585D01*
X104892753Y-65303760D01*
X104859500Y-65513713D01*
X104859500Y-65726286D01*
X104892753Y-65936239D01*
X104958444Y-66138414D01*
X105054951Y-66327820D01*
X105179890Y-66499786D01*
X105330213Y-66650109D01*
X105502182Y-66775050D01*
X105510946Y-66779516D01*
X105561742Y-66827491D01*
X105578536Y-66895312D01*
X105555998Y-66961447D01*
X105510946Y-67000484D01*
X105502182Y-67004949D01*
X105330213Y-67129890D01*
X105179890Y-67280213D01*
X105054951Y-67452179D01*
X104958444Y-67641585D01*
X104892753Y-67843760D01*
X104859500Y-68053713D01*
X104859500Y-68266286D01*
X104892735Y-68476127D01*
X104892754Y-68476243D01*
X104927278Y-68582497D01*
X104958444Y-68678414D01*
X105054951Y-68867820D01*
X105179890Y-69039786D01*
X105330213Y-69190109D01*
X105502182Y-69315050D01*
X105510946Y-69319516D01*
X105561742Y-69367491D01*
X105578536Y-69435312D01*
X105555998Y-69501447D01*
X105510946Y-69540484D01*
X105502182Y-69544949D01*
X105330213Y-69669890D01*
X105179890Y-69820213D01*
X105054951Y-69992179D01*
X104958444Y-70181585D01*
X104892753Y-70383760D01*
X104859500Y-70593713D01*
X104859500Y-70806286D01*
X104892735Y-71016127D01*
X104892754Y-71016243D01*
X104956878Y-71213596D01*
X104958444Y-71218414D01*
X105054951Y-71407820D01*
X105179890Y-71579786D01*
X105330213Y-71730109D01*
X105502182Y-71855050D01*
X105510946Y-71859516D01*
X105561742Y-71907491D01*
X105578536Y-71975312D01*
X105555998Y-72041447D01*
X105510946Y-72080484D01*
X105502182Y-72084949D01*
X105330213Y-72209890D01*
X105179890Y-72360213D01*
X105054951Y-72532179D01*
X104958444Y-72721585D01*
X104892753Y-72923760D01*
X104859500Y-73133713D01*
X104859500Y-73346286D01*
X104892753Y-73556239D01*
X104958444Y-73758414D01*
X105054951Y-73947820D01*
X105179890Y-74119786D01*
X105330213Y-74270109D01*
X105502182Y-74395050D01*
X105510946Y-74399516D01*
X105561742Y-74447491D01*
X105578536Y-74515312D01*
X105555998Y-74581447D01*
X105510946Y-74620484D01*
X105502182Y-74624949D01*
X105330213Y-74749890D01*
X105179890Y-74900213D01*
X105054951Y-75072179D01*
X104958444Y-75261585D01*
X104892753Y-75463760D01*
X104859500Y-75673713D01*
X104859500Y-75886286D01*
X104892753Y-76096239D01*
X104958444Y-76298414D01*
X105054951Y-76487820D01*
X105179890Y-76659786D01*
X105330213Y-76810109D01*
X105502179Y-76935048D01*
X105502181Y-76935049D01*
X105502184Y-76935051D01*
X105691588Y-77031557D01*
X105893757Y-77097246D01*
X106103713Y-77130500D01*
X106103714Y-77130500D01*
X106316286Y-77130500D01*
X106316287Y-77130500D01*
X106526243Y-77097246D01*
X106728412Y-77031557D01*
X106917816Y-76935051D01*
X107041832Y-76844949D01*
X107089786Y-76810109D01*
X107089788Y-76810106D01*
X107089792Y-76810104D01*
X107240104Y-76659792D01*
X107240106Y-76659788D01*
X107240109Y-76659786D01*
X107325890Y-76541717D01*
X107365051Y-76487816D01*
X107369793Y-76478508D01*
X107417763Y-76427711D01*
X107485583Y-76410911D01*
X107551719Y-76433445D01*
X107590763Y-76478500D01*
X107595373Y-76487547D01*
X107634728Y-76541716D01*
X108267037Y-75909408D01*
X108284075Y-75972993D01*
X108349901Y-76087007D01*
X108442993Y-76180099D01*
X108557007Y-76245925D01*
X108620590Y-76262962D01*
X107988282Y-76895269D01*
X107988282Y-76895270D01*
X108042449Y-76934624D01*
X108231782Y-77031095D01*
X108433870Y-77096757D01*
X108643754Y-77130000D01*
X108856246Y-77130000D01*
X109066127Y-77096757D01*
X109066130Y-77096757D01*
X109268217Y-77031095D01*
X109457554Y-76934622D01*
X109511716Y-76895270D01*
X109511717Y-76895270D01*
X109240160Y-76623713D01*
X112770500Y-76623713D01*
X112770500Y-77086287D01*
X112775873Y-77120208D01*
X112803110Y-77292182D01*
X112803754Y-77296243D01*
X112819920Y-77345998D01*
X112869444Y-77498414D01*
X112965951Y-77687820D01*
X113090890Y-77859786D01*
X113241213Y-78010109D01*
X113413179Y-78135048D01*
X113413181Y-78135049D01*
X113413184Y-78135051D01*
X113602588Y-78231557D01*
X113804757Y-78297246D01*
X114014713Y-78330500D01*
X114014714Y-78330500D01*
X114227286Y-78330500D01*
X114227287Y-78330500D01*
X114437243Y-78297246D01*
X114639412Y-78231557D01*
X114828816Y-78135051D01*
X114924097Y-78065826D01*
X115000786Y-78010109D01*
X115000788Y-78010106D01*
X115000792Y-78010104D01*
X115151104Y-77859792D01*
X115270683Y-77695204D01*
X115326011Y-77652540D01*
X115395624Y-77646561D01*
X115457420Y-77679166D01*
X115471313Y-77695199D01*
X115552546Y-77807007D01*
X115590896Y-77859792D01*
X115741213Y-78010109D01*
X115913179Y-78135048D01*
X115913181Y-78135049D01*
X115913184Y-78135051D01*
X116102588Y-78231557D01*
X116304757Y-78297246D01*
X116514713Y-78330500D01*
X116514714Y-78330500D01*
X116727286Y-78330500D01*
X116727287Y-78330500D01*
X116937243Y-78297246D01*
X117139412Y-78231557D01*
X117328816Y-78135051D01*
X117424097Y-78065826D01*
X117500786Y-78010109D01*
X117500788Y-78010106D01*
X117500792Y-78010104D01*
X117651104Y-77859792D01*
X117770683Y-77695204D01*
X117826011Y-77652540D01*
X117895624Y-77646561D01*
X117957420Y-77679166D01*
X117971313Y-77695199D01*
X118052546Y-77807007D01*
X118090896Y-77859792D01*
X118241213Y-78010109D01*
X118413179Y-78135048D01*
X118413181Y-78135049D01*
X118413184Y-78135051D01*
X118602588Y-78231557D01*
X118804757Y-78297246D01*
X119014713Y-78330500D01*
X119014714Y-78330500D01*
X119227286Y-78330500D01*
X119227287Y-78330500D01*
X119437243Y-78297246D01*
X119639412Y-78231557D01*
X119828816Y-78135051D01*
X119924097Y-78065826D01*
X120000786Y-78010109D01*
X120000788Y-78010106D01*
X120000792Y-78010104D01*
X120151104Y-77859792D01*
X120270683Y-77695204D01*
X120326011Y-77652540D01*
X120395624Y-77646561D01*
X120457420Y-77679166D01*
X120471313Y-77695199D01*
X120552546Y-77807007D01*
X120590896Y-77859792D01*
X120741213Y-78010109D01*
X120913179Y-78135048D01*
X120913181Y-78135049D01*
X120913184Y-78135051D01*
X121102588Y-78231557D01*
X121304757Y-78297246D01*
X121514713Y-78330500D01*
X121514714Y-78330500D01*
X121727286Y-78330500D01*
X121727287Y-78330500D01*
X121937243Y-78297246D01*
X122139412Y-78231557D01*
X122328816Y-78135051D01*
X122500792Y-78010104D01*
X122639604Y-77871291D01*
X122700923Y-77837809D01*
X122770615Y-77842793D01*
X122826549Y-77884664D01*
X122832821Y-77893878D01*
X122836185Y-77899333D01*
X122836186Y-77899334D01*
X122928288Y-78048656D01*
X123052344Y-78172712D01*
X123201666Y-78264814D01*
X123368203Y-78319999D01*
X123470991Y-78330500D01*
X124771008Y-78330499D01*
X124873797Y-78319999D01*
X125040334Y-78264814D01*
X125189656Y-78172712D01*
X125313712Y-78048656D01*
X125405814Y-77899334D01*
X125460999Y-77732797D01*
X125471500Y-77630009D01*
X125471499Y-77102155D01*
X128650000Y-77102155D01*
X128650000Y-77750000D01*
X129566988Y-77750000D01*
X129534075Y-77807007D01*
X129500000Y-77934174D01*
X129500000Y-78065826D01*
X129534075Y-78192993D01*
X129566988Y-78250000D01*
X128650000Y-78250000D01*
X128650000Y-78897844D01*
X128656401Y-78957372D01*
X128656403Y-78957379D01*
X128706645Y-79092086D01*
X128706649Y-79092093D01*
X128792809Y-79207187D01*
X128792812Y-79207190D01*
X128907906Y-79293350D01*
X128907913Y-79293354D01*
X129042620Y-79343596D01*
X129042627Y-79343598D01*
X129102155Y-79349999D01*
X129102172Y-79350000D01*
X129750000Y-79350000D01*
X129750000Y-78433012D01*
X129807007Y-78465925D01*
X129934174Y-78500000D01*
X130065826Y-78500000D01*
X130192993Y-78465925D01*
X130250000Y-78433012D01*
X130250000Y-79350000D01*
X130897828Y-79350000D01*
X130897844Y-79349999D01*
X130957372Y-79343598D01*
X130957379Y-79343596D01*
X131092086Y-79293354D01*
X131092093Y-79293350D01*
X131207187Y-79207190D01*
X131207190Y-79207187D01*
X131293350Y-79092093D01*
X131293354Y-79092086D01*
X131342422Y-78960529D01*
X131384293Y-78904595D01*
X131449757Y-78880178D01*
X131518030Y-78895030D01*
X131546285Y-78916181D01*
X131660213Y-79030109D01*
X131832179Y-79155048D01*
X131832181Y-79155049D01*
X131832184Y-79155051D01*
X132021588Y-79251557D01*
X132223757Y-79317246D01*
X132433713Y-79350500D01*
X132433714Y-79350500D01*
X132646286Y-79350500D01*
X132646287Y-79350500D01*
X132856243Y-79317246D01*
X133058412Y-79251557D01*
X133247816Y-79155051D01*
X133334471Y-79092093D01*
X133419786Y-79030109D01*
X133419788Y-79030106D01*
X133419792Y-79030104D01*
X133570104Y-78879792D01*
X133570106Y-78879788D01*
X133570109Y-78879786D01*
X133695048Y-78707820D01*
X133695047Y-78707820D01*
X133695051Y-78707816D01*
X133699514Y-78699054D01*
X133747488Y-78648259D01*
X133815308Y-78631463D01*
X133881444Y-78653999D01*
X133920486Y-78699056D01*
X133924951Y-78707820D01*
X134049890Y-78879786D01*
X134200213Y-79030109D01*
X134372179Y-79155048D01*
X134372181Y-79155049D01*
X134372184Y-79155051D01*
X134561588Y-79251557D01*
X134763757Y-79317246D01*
X134973713Y-79350500D01*
X134973714Y-79350500D01*
X135186286Y-79350500D01*
X135186287Y-79350500D01*
X135396243Y-79317246D01*
X135598412Y-79251557D01*
X135787816Y-79155051D01*
X135874471Y-79092093D01*
X135959786Y-79030109D01*
X135959788Y-79030106D01*
X135959792Y-79030104D01*
X136110104Y-78879792D01*
X136110106Y-78879788D01*
X136110109Y-78879786D01*
X136235048Y-78707820D01*
X136235047Y-78707820D01*
X136235051Y-78707816D01*
X136331557Y-78518412D01*
X136397246Y-78316243D01*
X136430500Y-78106287D01*
X136430500Y-77893713D01*
X136397246Y-77683757D01*
X136331557Y-77481588D01*
X136235051Y-77292184D01*
X136235049Y-77292181D01*
X136235048Y-77292179D01*
X136110109Y-77120213D01*
X135959790Y-76969894D01*
X135959785Y-76969890D01*
X135930132Y-76948345D01*
X135930109Y-76948330D01*
X135787815Y-76844948D01*
X135598414Y-76748444D01*
X135598413Y-76748443D01*
X135598412Y-76748443D01*
X135396243Y-76682754D01*
X135396241Y-76682753D01*
X135396240Y-76682753D01*
X135234957Y-76657208D01*
X135186287Y-76649500D01*
X134973713Y-76649500D01*
X134925042Y-76657208D01*
X134763760Y-76682753D01*
X134561585Y-76748444D01*
X134372179Y-76844951D01*
X134200213Y-76969890D01*
X134049890Y-77120213D01*
X133924949Y-77292182D01*
X133920484Y-77300946D01*
X133872509Y-77351742D01*
X133804688Y-77368536D01*
X133738553Y-77345998D01*
X133699516Y-77300946D01*
X133695050Y-77292182D01*
X133570109Y-77120213D01*
X133419786Y-76969890D01*
X133247820Y-76844951D01*
X133058414Y-76748444D01*
X133058413Y-76748443D01*
X133058412Y-76748443D01*
X132856243Y-76682754D01*
X132856241Y-76682753D01*
X132856240Y-76682753D01*
X132694957Y-76657208D01*
X132646287Y-76649500D01*
X132433713Y-76649500D01*
X132385042Y-76657208D01*
X132223760Y-76682753D01*
X132021585Y-76748444D01*
X131832179Y-76844951D01*
X131660215Y-76969889D01*
X131546285Y-77083819D01*
X131484962Y-77117303D01*
X131415270Y-77112319D01*
X131359337Y-77070447D01*
X131342422Y-77039470D01*
X131293354Y-76907913D01*
X131293350Y-76907906D01*
X131207190Y-76792812D01*
X131207187Y-76792809D01*
X131092093Y-76706649D01*
X131092086Y-76706645D01*
X130957379Y-76656403D01*
X130957372Y-76656401D01*
X130897844Y-76650000D01*
X130250000Y-76650000D01*
X130250000Y-77566988D01*
X130192993Y-77534075D01*
X130065826Y-77500000D01*
X129934174Y-77500000D01*
X129807007Y-77534075D01*
X129750000Y-77566988D01*
X129750000Y-76650000D01*
X129102155Y-76650000D01*
X129042627Y-76656401D01*
X129042620Y-76656403D01*
X128907913Y-76706645D01*
X128907906Y-76706649D01*
X128792812Y-76792809D01*
X128792809Y-76792812D01*
X128706649Y-76907906D01*
X128706645Y-76907913D01*
X128656403Y-77042620D01*
X128656401Y-77042627D01*
X128650000Y-77102155D01*
X125471499Y-77102155D01*
X125471499Y-76844951D01*
X125471499Y-76079998D01*
X125471498Y-76079981D01*
X125460999Y-75977203D01*
X125460998Y-75977200D01*
X125430872Y-75886286D01*
X125405814Y-75810666D01*
X125313712Y-75661344D01*
X125189656Y-75537288D01*
X125070624Y-75463869D01*
X125040336Y-75445187D01*
X125040331Y-75445185D01*
X125038862Y-75444698D01*
X124873797Y-75390001D01*
X124873795Y-75390000D01*
X124771010Y-75379500D01*
X123470998Y-75379500D01*
X123470981Y-75379501D01*
X123368203Y-75390000D01*
X123368200Y-75390001D01*
X123201668Y-75445185D01*
X123201663Y-75445187D01*
X123052342Y-75537289D01*
X122928289Y-75661342D01*
X122832821Y-75816121D01*
X122780873Y-75862845D01*
X122711910Y-75874068D01*
X122647828Y-75846224D01*
X122639601Y-75838705D01*
X122500786Y-75699890D01*
X122328820Y-75574951D01*
X122139414Y-75478444D01*
X122139413Y-75478443D01*
X122139412Y-75478443D01*
X121937243Y-75412754D01*
X121937241Y-75412753D01*
X121937240Y-75412753D01*
X121775957Y-75387208D01*
X121727287Y-75379500D01*
X121514713Y-75379500D01*
X121466042Y-75387208D01*
X121304760Y-75412753D01*
X121102585Y-75478444D01*
X120913179Y-75574951D01*
X120741213Y-75699890D01*
X120590894Y-75850209D01*
X120590890Y-75850214D01*
X120471318Y-76014793D01*
X120415989Y-76057459D01*
X120346375Y-76063438D01*
X120284580Y-76030833D01*
X120270682Y-76014793D01*
X120151109Y-75850214D01*
X120151105Y-75850209D01*
X120000786Y-75699890D01*
X119828820Y-75574951D01*
X119639414Y-75478444D01*
X119639413Y-75478443D01*
X119639412Y-75478443D01*
X119437243Y-75412754D01*
X119437241Y-75412753D01*
X119437240Y-75412753D01*
X119275957Y-75387208D01*
X119227287Y-75379500D01*
X119014713Y-75379500D01*
X118966042Y-75387208D01*
X118804760Y-75412753D01*
X118602585Y-75478444D01*
X118413179Y-75574951D01*
X118241213Y-75699890D01*
X118090894Y-75850209D01*
X118090890Y-75850214D01*
X117971318Y-76014793D01*
X117915989Y-76057459D01*
X117846375Y-76063438D01*
X117784580Y-76030833D01*
X117770682Y-76014793D01*
X117651109Y-75850214D01*
X117651105Y-75850209D01*
X117500786Y-75699890D01*
X117328820Y-75574951D01*
X117139414Y-75478444D01*
X117139413Y-75478443D01*
X117139412Y-75478443D01*
X116937243Y-75412754D01*
X116937241Y-75412753D01*
X116937240Y-75412753D01*
X116775957Y-75387208D01*
X116727287Y-75379500D01*
X116514713Y-75379500D01*
X116466042Y-75387208D01*
X116304760Y-75412753D01*
X116102585Y-75478444D01*
X115913179Y-75574951D01*
X115741213Y-75699890D01*
X115590894Y-75850209D01*
X115590890Y-75850214D01*
X115471318Y-76014793D01*
X115415989Y-76057459D01*
X115346375Y-76063438D01*
X115284580Y-76030833D01*
X115270682Y-76014793D01*
X115151109Y-75850214D01*
X115151105Y-75850209D01*
X115000786Y-75699890D01*
X114828820Y-75574951D01*
X114639414Y-75478444D01*
X114639413Y-75478443D01*
X114639412Y-75478443D01*
X114437243Y-75412754D01*
X114437241Y-75412753D01*
X114437240Y-75412753D01*
X114275957Y-75387208D01*
X114227287Y-75379500D01*
X114014713Y-75379500D01*
X113966042Y-75387208D01*
X113804760Y-75412753D01*
X113602585Y-75478444D01*
X113413179Y-75574951D01*
X113241213Y-75699890D01*
X113090890Y-75850213D01*
X112965951Y-76022179D01*
X112869444Y-76211585D01*
X112803753Y-76413760D01*
X112792023Y-76487820D01*
X112770500Y-76623713D01*
X109240160Y-76623713D01*
X108879408Y-76262962D01*
X108942993Y-76245925D01*
X109057007Y-76180099D01*
X109150099Y-76087007D01*
X109215925Y-75972993D01*
X109232962Y-75909408D01*
X109865270Y-76541717D01*
X109865271Y-76541716D01*
X109904622Y-76487554D01*
X110001095Y-76298217D01*
X110066757Y-76096130D01*
X110066757Y-76096127D01*
X110100000Y-75886246D01*
X110100000Y-75673753D01*
X110066757Y-75463872D01*
X110066757Y-75463869D01*
X110001095Y-75261782D01*
X109904624Y-75072449D01*
X109865270Y-75018282D01*
X109865269Y-75018282D01*
X109232962Y-75650590D01*
X109215925Y-75587007D01*
X109150099Y-75472993D01*
X109057007Y-75379901D01*
X108942993Y-75314075D01*
X108879409Y-75297037D01*
X109511716Y-74664728D01*
X109457550Y-74625375D01*
X109447954Y-74620486D01*
X109397157Y-74572512D01*
X109380361Y-74504692D01*
X109401288Y-74440895D01*
X109480027Y-74323581D01*
X108879408Y-73722962D01*
X108942993Y-73705925D01*
X109057007Y-73640099D01*
X109150099Y-73547007D01*
X109215925Y-73432993D01*
X109232962Y-73369408D01*
X109865270Y-74001717D01*
X109865270Y-74001716D01*
X109904622Y-73947554D01*
X110001095Y-73758217D01*
X110066757Y-73556130D01*
X110066757Y-73556127D01*
X110100000Y-73346246D01*
X110100000Y-73133753D01*
X110066757Y-72923872D01*
X110066757Y-72923869D01*
X110001095Y-72721782D01*
X109904624Y-72532449D01*
X109865270Y-72478282D01*
X109865269Y-72478282D01*
X109232962Y-73110590D01*
X109215925Y-73047007D01*
X109150099Y-72932993D01*
X109057007Y-72839901D01*
X108942993Y-72774075D01*
X108879409Y-72757037D01*
X109511716Y-72124728D01*
X109457550Y-72085375D01*
X109447954Y-72080486D01*
X109397157Y-72032512D01*
X109380361Y-71964692D01*
X109401288Y-71900895D01*
X109480027Y-71783581D01*
X108879408Y-71182962D01*
X108942993Y-71165925D01*
X109057007Y-71100099D01*
X109150099Y-71007007D01*
X109215925Y-70892993D01*
X109232962Y-70829408D01*
X109865270Y-71461717D01*
X109865270Y-71461716D01*
X109904622Y-71407554D01*
X110001095Y-71218217D01*
X110066757Y-71016130D01*
X110066757Y-71016127D01*
X110100000Y-70806246D01*
X110100000Y-70767844D01*
X121125000Y-70767844D01*
X121131401Y-70827372D01*
X121131403Y-70827379D01*
X121181645Y-70962086D01*
X121181649Y-70962093D01*
X121267809Y-71077187D01*
X121267812Y-71077190D01*
X121382906Y-71163350D01*
X121382913Y-71163354D01*
X121517620Y-71213596D01*
X121517627Y-71213598D01*
X121577155Y-71219999D01*
X121577172Y-71220000D01*
X123875000Y-71220000D01*
X123875000Y-70723553D01*
X123874998Y-70723552D01*
X124375000Y-70723552D01*
X124375000Y-71220000D01*
X126672828Y-71220000D01*
X126672844Y-71219999D01*
X126732372Y-71213598D01*
X126732379Y-71213596D01*
X126867086Y-71163354D01*
X126867093Y-71163350D01*
X126982187Y-71077190D01*
X126982190Y-71077187D01*
X127068350Y-70962093D01*
X127068354Y-70962086D01*
X127118596Y-70827379D01*
X127118598Y-70827372D01*
X127124999Y-70767844D01*
X127125000Y-70767827D01*
X127125000Y-69270000D01*
X126928552Y-69270000D01*
X127071704Y-69413151D01*
X127105189Y-69474474D01*
X127108023Y-69500833D01*
X127108022Y-69639168D01*
X127101783Y-69660413D01*
X127100205Y-69682497D01*
X127091171Y-69696553D01*
X127088337Y-69706207D01*
X127080734Y-69712794D01*
X127071703Y-69726848D01*
X126501777Y-70296777D01*
X125931848Y-70866704D01*
X125870525Y-70900189D01*
X125800833Y-70895205D01*
X125785293Y-70885218D01*
X125759607Y-70885218D01*
X125732190Y-70900189D01*
X125662498Y-70895205D01*
X125618151Y-70866704D01*
X125225000Y-70473553D01*
X124831848Y-70866704D01*
X124770525Y-70900189D01*
X124744166Y-70903023D01*
X124605831Y-70903022D01*
X124584584Y-70896783D01*
X124562495Y-70895203D01*
X124548440Y-70886170D01*
X124538792Y-70883337D01*
X124532205Y-70875735D01*
X124518151Y-70866703D01*
X124375000Y-70723552D01*
X123874998Y-70723552D01*
X123731848Y-70866703D01*
X123670525Y-70900188D01*
X123644168Y-70903022D01*
X123505833Y-70903023D01*
X123484586Y-70896784D01*
X123462498Y-70895205D01*
X123448443Y-70886172D01*
X123438793Y-70883339D01*
X123432205Y-70875736D01*
X123418151Y-70866704D01*
X123025000Y-70473553D01*
X122631848Y-70866704D01*
X122570525Y-70900189D01*
X122544167Y-70903023D01*
X122405832Y-70903023D01*
X122384586Y-70896784D01*
X122362498Y-70895205D01*
X122348441Y-70886171D01*
X122338793Y-70883338D01*
X122332207Y-70875737D01*
X122318151Y-70866704D01*
X121748223Y-70296777D01*
X121607765Y-70156319D01*
X121541609Y-70090163D01*
X121775000Y-70090163D01*
X121775000Y-70149837D01*
X121797836Y-70204968D01*
X121840032Y-70247164D01*
X121895163Y-70270000D01*
X121954837Y-70270000D01*
X122009968Y-70247164D01*
X122052164Y-70204968D01*
X122075000Y-70149837D01*
X122075000Y-70119999D01*
X122278553Y-70119999D01*
X122475000Y-70316446D01*
X122671446Y-70120001D01*
X122671446Y-70120000D01*
X122641609Y-70090163D01*
X122875000Y-70090163D01*
X122875000Y-70149837D01*
X122897836Y-70204968D01*
X122940032Y-70247164D01*
X122995163Y-70270000D01*
X123054837Y-70270000D01*
X123109968Y-70247164D01*
X123152164Y-70204968D01*
X123175000Y-70149837D01*
X123175000Y-70119999D01*
X123378553Y-70119999D01*
X123575000Y-70316446D01*
X123771446Y-70120001D01*
X123771446Y-70120000D01*
X123741609Y-70090163D01*
X123975000Y-70090163D01*
X123975000Y-70149837D01*
X123997836Y-70204968D01*
X124040032Y-70247164D01*
X124095163Y-70270000D01*
X124154837Y-70270000D01*
X124209968Y-70247164D01*
X124252164Y-70204968D01*
X124275000Y-70149837D01*
X124275000Y-70119999D01*
X124478553Y-70119999D01*
X124675000Y-70316446D01*
X124871446Y-70120001D01*
X124871446Y-70120000D01*
X124841609Y-70090163D01*
X125075000Y-70090163D01*
X125075000Y-70149837D01*
X125097836Y-70204968D01*
X125140032Y-70247164D01*
X125195163Y-70270000D01*
X125254837Y-70270000D01*
X125309968Y-70247164D01*
X125352164Y-70204968D01*
X125375000Y-70149837D01*
X125375000Y-70119999D01*
X125578553Y-70119999D01*
X125775000Y-70316446D01*
X125971446Y-70120001D01*
X125971446Y-70120000D01*
X125941609Y-70090163D01*
X126175000Y-70090163D01*
X126175000Y-70149837D01*
X126197836Y-70204968D01*
X126240032Y-70247164D01*
X126295163Y-70270000D01*
X126354837Y-70270000D01*
X126409968Y-70247164D01*
X126452164Y-70204968D01*
X126475000Y-70149837D01*
X126475000Y-70090163D01*
X126452164Y-70035032D01*
X126409968Y-69992836D01*
X126354837Y-69970000D01*
X126295163Y-69970000D01*
X126240032Y-69992836D01*
X126197836Y-70035032D01*
X126175000Y-70090163D01*
X125941609Y-70090163D01*
X125775000Y-69923553D01*
X125578553Y-70119999D01*
X125375000Y-70119999D01*
X125375000Y-70090163D01*
X125352164Y-70035032D01*
X125309968Y-69992836D01*
X125254837Y-69970000D01*
X125195163Y-69970000D01*
X125140032Y-69992836D01*
X125097836Y-70035032D01*
X125075000Y-70090163D01*
X124841609Y-70090163D01*
X124675000Y-69923553D01*
X124478553Y-70119999D01*
X124275000Y-70119999D01*
X124275000Y-70090163D01*
X124252164Y-70035032D01*
X124209968Y-69992836D01*
X124154837Y-69970000D01*
X124095163Y-69970000D01*
X124040032Y-69992836D01*
X123997836Y-70035032D01*
X123975000Y-70090163D01*
X123741609Y-70090163D01*
X123575000Y-69923553D01*
X123378553Y-70119999D01*
X123175000Y-70119999D01*
X123175000Y-70090163D01*
X123152164Y-70035032D01*
X123109968Y-69992836D01*
X123054837Y-69970000D01*
X122995163Y-69970000D01*
X122940032Y-69992836D01*
X122897836Y-70035032D01*
X122875000Y-70090163D01*
X122641609Y-70090163D01*
X122475000Y-69923553D01*
X122278553Y-70119999D01*
X122075000Y-70119999D01*
X122075000Y-70090163D01*
X122052164Y-70035032D01*
X122009968Y-69992836D01*
X121954837Y-69970000D01*
X121895163Y-69970000D01*
X121840032Y-69992836D01*
X121797836Y-70035032D01*
X121775000Y-70090163D01*
X121541609Y-70090163D01*
X121178295Y-69726848D01*
X121144810Y-69665525D01*
X121143307Y-69621047D01*
X121150847Y-69569999D01*
X121728553Y-69569999D01*
X121925000Y-69766446D01*
X122121446Y-69570001D01*
X122121446Y-69570000D01*
X122121445Y-69569999D01*
X122828553Y-69569999D01*
X123025000Y-69766446D01*
X123221446Y-69570001D01*
X123221446Y-69570000D01*
X123221445Y-69569999D01*
X125028553Y-69569999D01*
X125225000Y-69766446D01*
X125421446Y-69570001D01*
X125421446Y-69570000D01*
X125421445Y-69569999D01*
X126128553Y-69569999D01*
X126325000Y-69766446D01*
X126521446Y-69570001D01*
X126521446Y-69570000D01*
X126325000Y-69373553D01*
X126128553Y-69569999D01*
X125421445Y-69569999D01*
X125225000Y-69373553D01*
X125028553Y-69569999D01*
X123221445Y-69569999D01*
X123025000Y-69373553D01*
X122828553Y-69569999D01*
X122121445Y-69569999D01*
X121925000Y-69373553D01*
X121728553Y-69569999D01*
X121150847Y-69569999D01*
X121154538Y-69545009D01*
X121144809Y-69527191D01*
X121149793Y-69457499D01*
X121178294Y-69413151D01*
X121321446Y-69270000D01*
X121125000Y-69270000D01*
X121125000Y-70767844D01*
X110100000Y-70767844D01*
X110100000Y-70593753D01*
X110066757Y-70383872D01*
X110066757Y-70383869D01*
X110001095Y-70181782D01*
X109904624Y-69992449D01*
X109865270Y-69938282D01*
X109865269Y-69938282D01*
X109232962Y-70570590D01*
X109215925Y-70507007D01*
X109150099Y-70392993D01*
X109057007Y-70299901D01*
X108942993Y-70234075D01*
X108879409Y-70217037D01*
X109511716Y-69584728D01*
X109457550Y-69545375D01*
X109447954Y-69540486D01*
X109397157Y-69492512D01*
X109380361Y-69424692D01*
X109397781Y-69366431D01*
X109474457Y-69238011D01*
X109226609Y-68990163D01*
X121775000Y-68990163D01*
X121775000Y-69049837D01*
X121797836Y-69104968D01*
X121840032Y-69147164D01*
X121895163Y-69170000D01*
X121954837Y-69170000D01*
X122009968Y-69147164D01*
X122052164Y-69104968D01*
X122075000Y-69049837D01*
X122075000Y-68990163D01*
X122875000Y-68990163D01*
X122875000Y-69049837D01*
X122897836Y-69104968D01*
X122940032Y-69147164D01*
X122995163Y-69170000D01*
X123054837Y-69170000D01*
X123109968Y-69147164D01*
X123152164Y-69104968D01*
X123175000Y-69049837D01*
X123175000Y-68990163D01*
X123975000Y-68990163D01*
X123975000Y-69049837D01*
X123997836Y-69104968D01*
X124040032Y-69147164D01*
X124095163Y-69170000D01*
X124154837Y-69170000D01*
X124209968Y-69147164D01*
X124252164Y-69104968D01*
X124275000Y-69049837D01*
X124275000Y-68990163D01*
X125075000Y-68990163D01*
X125075000Y-69049837D01*
X125097836Y-69104968D01*
X125140032Y-69147164D01*
X125195163Y-69170000D01*
X125254837Y-69170000D01*
X125309968Y-69147164D01*
X125352164Y-69104968D01*
X125375000Y-69049837D01*
X125375000Y-68990163D01*
X126175000Y-68990163D01*
X126175000Y-69049837D01*
X126197836Y-69104968D01*
X126240032Y-69147164D01*
X126295163Y-69170000D01*
X126354837Y-69170000D01*
X126409968Y-69147164D01*
X126452164Y-69104968D01*
X126475000Y-69049837D01*
X126475000Y-68990163D01*
X126452164Y-68935032D01*
X126409968Y-68892836D01*
X126354837Y-68870000D01*
X126295163Y-68870000D01*
X126240032Y-68892836D01*
X126197836Y-68935032D01*
X126175000Y-68990163D01*
X125375000Y-68990163D01*
X125352164Y-68935032D01*
X125309968Y-68892836D01*
X125254837Y-68870000D01*
X125195163Y-68870000D01*
X125140032Y-68892836D01*
X125097836Y-68935032D01*
X125075000Y-68990163D01*
X124275000Y-68990163D01*
X124252164Y-68935032D01*
X124209968Y-68892836D01*
X124154837Y-68870000D01*
X124095163Y-68870000D01*
X124040032Y-68892836D01*
X123997836Y-68935032D01*
X123975000Y-68990163D01*
X123175000Y-68990163D01*
X123152164Y-68935032D01*
X123109968Y-68892836D01*
X123054837Y-68870000D01*
X122995163Y-68870000D01*
X122940032Y-68892836D01*
X122897836Y-68935032D01*
X122875000Y-68990163D01*
X122075000Y-68990163D01*
X122052164Y-68935032D01*
X122009968Y-68892836D01*
X121954837Y-68870000D01*
X121895163Y-68870000D01*
X121840032Y-68892836D01*
X121797836Y-68935032D01*
X121775000Y-68990163D01*
X109226609Y-68990163D01*
X108879408Y-68642962D01*
X108942993Y-68625925D01*
X109057007Y-68560099D01*
X109150099Y-68467007D01*
X109215925Y-68352993D01*
X109232962Y-68289408D01*
X109865270Y-68921717D01*
X109865270Y-68921716D01*
X109904622Y-68867554D01*
X110001095Y-68678217D01*
X110066757Y-68476130D01*
X110066757Y-68476127D01*
X110100000Y-68266246D01*
X110100000Y-68053753D01*
X110066757Y-67843872D01*
X110066757Y-67843869D01*
X110001095Y-67641782D01*
X109904624Y-67452449D01*
X109865270Y-67398282D01*
X109865269Y-67398282D01*
X109232962Y-68030590D01*
X109215925Y-67967007D01*
X109150099Y-67852993D01*
X109057007Y-67759901D01*
X108942993Y-67694075D01*
X108879409Y-67677037D01*
X109284290Y-67272155D01*
X121125000Y-67272155D01*
X121125000Y-68770000D01*
X121321447Y-68770000D01*
X121321447Y-68769999D01*
X121178296Y-68626848D01*
X121144811Y-68565525D01*
X121143308Y-68521048D01*
X121150848Y-68469999D01*
X121728553Y-68469999D01*
X121925000Y-68666446D01*
X122121446Y-68470001D01*
X122121446Y-68470000D01*
X122121445Y-68469999D01*
X122828553Y-68469999D01*
X123025000Y-68666446D01*
X123221446Y-68470001D01*
X123221446Y-68470000D01*
X123221445Y-68469999D01*
X125028553Y-68469999D01*
X125225000Y-68666446D01*
X125421446Y-68470001D01*
X125421446Y-68470000D01*
X125421445Y-68469999D01*
X126128553Y-68469999D01*
X126325000Y-68666446D01*
X126521446Y-68470001D01*
X126521446Y-68470000D01*
X126325000Y-68273553D01*
X126128553Y-68469999D01*
X125421445Y-68469999D01*
X125225000Y-68273553D01*
X125028553Y-68469999D01*
X123221445Y-68469999D01*
X123025000Y-68273553D01*
X122828553Y-68469999D01*
X122121445Y-68469999D01*
X121925000Y-68273553D01*
X121728553Y-68469999D01*
X121150848Y-68469999D01*
X121154539Y-68445010D01*
X121144809Y-68427191D01*
X121149793Y-68357499D01*
X121178294Y-68313152D01*
X121601283Y-67890163D01*
X121775000Y-67890163D01*
X121775000Y-67949837D01*
X121797836Y-68004968D01*
X121840032Y-68047164D01*
X121895163Y-68070000D01*
X121954837Y-68070000D01*
X122009968Y-68047164D01*
X122052164Y-68004968D01*
X122075000Y-67949837D01*
X122075000Y-67919999D01*
X122278553Y-67919999D01*
X122475000Y-68116446D01*
X122671446Y-67920001D01*
X122671446Y-67920000D01*
X122641609Y-67890163D01*
X122875000Y-67890163D01*
X122875000Y-67949837D01*
X122897836Y-68004968D01*
X122940032Y-68047164D01*
X122995163Y-68070000D01*
X123054837Y-68070000D01*
X123109968Y-68047164D01*
X123152164Y-68004968D01*
X123175000Y-67949837D01*
X123175000Y-67919999D01*
X123378553Y-67919999D01*
X123575000Y-68116446D01*
X123771446Y-67920001D01*
X123771446Y-67920000D01*
X123741609Y-67890163D01*
X123975000Y-67890163D01*
X123975000Y-67949837D01*
X123997836Y-68004968D01*
X124040032Y-68047164D01*
X124095163Y-68070000D01*
X124154837Y-68070000D01*
X124209968Y-68047164D01*
X124252164Y-68004968D01*
X124275000Y-67949837D01*
X124275000Y-67919999D01*
X124478553Y-67919999D01*
X124675000Y-68116446D01*
X124871446Y-67920001D01*
X124871446Y-67920000D01*
X124841609Y-67890163D01*
X125075000Y-67890163D01*
X125075000Y-67949837D01*
X125097836Y-68004968D01*
X125140032Y-68047164D01*
X125195163Y-68070000D01*
X125254837Y-68070000D01*
X125309968Y-68047164D01*
X125352164Y-68004968D01*
X125375000Y-67949837D01*
X125375000Y-67919999D01*
X125578553Y-67919999D01*
X125775000Y-68116446D01*
X125971446Y-67920001D01*
X125971446Y-67920000D01*
X125941609Y-67890163D01*
X126175000Y-67890163D01*
X126175000Y-67949837D01*
X126197836Y-68004968D01*
X126240032Y-68047164D01*
X126295163Y-68070000D01*
X126354837Y-68070000D01*
X126409968Y-68047164D01*
X126452164Y-68004968D01*
X126475000Y-67949837D01*
X126475000Y-67890163D01*
X126452164Y-67835032D01*
X126409968Y-67792836D01*
X126354837Y-67770000D01*
X126295163Y-67770000D01*
X126240032Y-67792836D01*
X126197836Y-67835032D01*
X126175000Y-67890163D01*
X125941609Y-67890163D01*
X125775000Y-67723553D01*
X125578553Y-67919999D01*
X125375000Y-67919999D01*
X125375000Y-67890163D01*
X125352164Y-67835032D01*
X125309968Y-67792836D01*
X125254837Y-67770000D01*
X125195163Y-67770000D01*
X125140032Y-67792836D01*
X125097836Y-67835032D01*
X125075000Y-67890163D01*
X124841609Y-67890163D01*
X124675000Y-67723553D01*
X124478553Y-67919999D01*
X124275000Y-67919999D01*
X124275000Y-67890163D01*
X124252164Y-67835032D01*
X124209968Y-67792836D01*
X124154837Y-67770000D01*
X124095163Y-67770000D01*
X124040032Y-67792836D01*
X123997836Y-67835032D01*
X123975000Y-67890163D01*
X123741609Y-67890163D01*
X123575000Y-67723553D01*
X123378553Y-67919999D01*
X123175000Y-67919999D01*
X123175000Y-67890163D01*
X123152164Y-67835032D01*
X123109968Y-67792836D01*
X123054837Y-67770000D01*
X122995163Y-67770000D01*
X122940032Y-67792836D01*
X122897836Y-67835032D01*
X122875000Y-67890163D01*
X122641609Y-67890163D01*
X122475000Y-67723553D01*
X122278553Y-67919999D01*
X122075000Y-67919999D01*
X122075000Y-67890163D01*
X122052164Y-67835032D01*
X122009968Y-67792836D01*
X121954837Y-67770000D01*
X121895163Y-67770000D01*
X121840032Y-67792836D01*
X121797836Y-67835032D01*
X121775000Y-67890163D01*
X121601283Y-67890163D01*
X121748223Y-67743223D01*
X122318151Y-67173294D01*
X122379474Y-67139809D01*
X122405832Y-67136975D01*
X122544167Y-67136975D01*
X122565411Y-67143213D01*
X122587497Y-67144792D01*
X122601554Y-67153825D01*
X122611206Y-67156660D01*
X122617792Y-67164261D01*
X122631848Y-67173294D01*
X123024999Y-67566445D01*
X123418151Y-67173294D01*
X123479474Y-67139809D01*
X123505832Y-67136975D01*
X123644167Y-67136975D01*
X123665411Y-67143213D01*
X123687497Y-67144792D01*
X123701554Y-67153825D01*
X123711206Y-67156660D01*
X123717792Y-67164261D01*
X123731848Y-67173294D01*
X123875000Y-67316446D01*
X123875000Y-67316445D01*
X124375000Y-67316445D01*
X124518151Y-67173294D01*
X124579474Y-67139809D01*
X124605832Y-67136975D01*
X124744167Y-67136975D01*
X124765411Y-67143213D01*
X124787497Y-67144792D01*
X124801554Y-67153825D01*
X124811206Y-67156660D01*
X124817792Y-67164261D01*
X124831848Y-67173294D01*
X125224999Y-67566445D01*
X125618151Y-67173294D01*
X125679474Y-67139809D01*
X125705832Y-67136975D01*
X125844167Y-67136975D01*
X125865411Y-67143213D01*
X125887497Y-67144792D01*
X125901554Y-67153825D01*
X125911206Y-67156660D01*
X125917792Y-67164261D01*
X125931848Y-67173294D01*
X126501777Y-67743223D01*
X127071704Y-68313151D01*
X127105189Y-68374474D01*
X127100205Y-68444166D01*
X127090218Y-68459706D01*
X127090218Y-68485393D01*
X127105187Y-68512806D01*
X127100205Y-68582497D01*
X127071703Y-68626848D01*
X126928552Y-68769998D01*
X126928553Y-68770000D01*
X127125000Y-68770000D01*
X127125000Y-67272172D01*
X127124999Y-67272155D01*
X127118598Y-67212627D01*
X127118596Y-67212620D01*
X127068354Y-67077913D01*
X127068350Y-67077906D01*
X126982190Y-66962812D01*
X126982187Y-66962809D01*
X126867093Y-66876649D01*
X126867086Y-66876645D01*
X126732379Y-66826403D01*
X126732372Y-66826401D01*
X126672844Y-66820000D01*
X124375000Y-66820000D01*
X124375000Y-67316445D01*
X123875000Y-67316445D01*
X123875000Y-66820000D01*
X121577155Y-66820000D01*
X121517627Y-66826401D01*
X121517620Y-66826403D01*
X121382913Y-66876645D01*
X121382906Y-66876649D01*
X121267812Y-66962809D01*
X121267809Y-66962812D01*
X121181649Y-67077906D01*
X121181645Y-67077913D01*
X121131403Y-67212620D01*
X121131401Y-67212627D01*
X121125000Y-67272155D01*
X109284290Y-67272155D01*
X109375275Y-67181170D01*
X109511716Y-67044728D01*
X109457547Y-67005373D01*
X109457547Y-67005372D01*
X109448500Y-67000763D01*
X109397706Y-66952788D01*
X109380912Y-66884966D01*
X109403451Y-66818832D01*
X109448508Y-66779793D01*
X109457816Y-66775051D01*
X109537007Y-66717515D01*
X109629786Y-66650109D01*
X109629788Y-66650106D01*
X109629792Y-66650104D01*
X109780104Y-66499792D01*
X109780106Y-66499788D01*
X109780109Y-66499786D01*
X109905048Y-66327820D01*
X109905047Y-66327820D01*
X109905051Y-66327816D01*
X110001557Y-66138412D01*
X110067246Y-65936243D01*
X110100500Y-65726287D01*
X110100500Y-65513713D01*
X110067246Y-65303757D01*
X110053944Y-65262818D01*
X110051949Y-65192976D01*
X110088030Y-65133144D01*
X110150731Y-65102316D01*
X110171875Y-65100500D01*
X128920234Y-65100500D01*
X128987273Y-65120185D01*
X128989125Y-65121398D01*
X129120814Y-65209390D01*
X129120827Y-65209397D01*
X129199894Y-65242147D01*
X129266503Y-65269737D01*
X129421153Y-65300499D01*
X129421156Y-65300500D01*
X129421158Y-65300500D01*
X129578844Y-65300500D01*
X129578845Y-65300499D01*
X129733497Y-65269737D01*
X129879179Y-65209394D01*
X129903750Y-65192976D01*
X130010875Y-65121398D01*
X130077553Y-65100520D01*
X130079766Y-65100500D01*
X136920234Y-65100500D01*
X136987273Y-65120185D01*
X136989125Y-65121398D01*
X137120814Y-65209390D01*
X137120827Y-65209397D01*
X137199894Y-65242147D01*
X137266503Y-65269737D01*
X137421153Y-65300499D01*
X137421156Y-65300500D01*
X137421158Y-65300500D01*
X137578844Y-65300500D01*
X137578845Y-65300499D01*
X137733497Y-65269737D01*
X137879179Y-65209394D01*
X137903750Y-65192976D01*
X138010875Y-65121398D01*
X138028921Y-65115747D01*
X138044831Y-65105523D01*
X138075792Y-65101071D01*
X138077553Y-65100520D01*
X138079766Y-65100500D01*
X138328125Y-65100500D01*
X138395164Y-65120185D01*
X138440919Y-65172989D01*
X138450863Y-65242147D01*
X138446057Y-65262813D01*
X138440278Y-65280600D01*
X138432753Y-65303758D01*
X138399500Y-65513713D01*
X138399500Y-65726286D01*
X138432753Y-65936239D01*
X138498444Y-66138414D01*
X138594951Y-66327820D01*
X138719890Y-66499786D01*
X138870213Y-66650109D01*
X139042179Y-66775048D01*
X139042181Y-66775049D01*
X139042184Y-66775051D01*
X139051493Y-66779794D01*
X139102290Y-66827766D01*
X139119087Y-66895587D01*
X139096552Y-66961722D01*
X139051505Y-67000760D01*
X139042446Y-67005376D01*
X139042440Y-67005380D01*
X138988282Y-67044727D01*
X138988282Y-67044728D01*
X139620591Y-67677037D01*
X139557007Y-67694075D01*
X139442993Y-67759901D01*
X139349901Y-67852993D01*
X139284075Y-67967007D01*
X139267037Y-68030591D01*
X138634728Y-67398282D01*
X138634727Y-67398282D01*
X138595380Y-67452439D01*
X138498904Y-67641782D01*
X138433242Y-67843869D01*
X138433242Y-67843872D01*
X138400000Y-68053753D01*
X138400000Y-68266246D01*
X138433242Y-68476127D01*
X138433242Y-68476130D01*
X138498904Y-68678217D01*
X138595375Y-68867550D01*
X138634728Y-68921716D01*
X139267037Y-68289408D01*
X139284075Y-68352993D01*
X139349901Y-68467007D01*
X139442993Y-68560099D01*
X139557007Y-68625925D01*
X139620591Y-68642962D01*
X139019971Y-69243581D01*
X139098711Y-69360895D01*
X139099920Y-69364729D01*
X139102844Y-69367491D01*
X139110343Y-69397778D01*
X139119727Y-69427529D01*
X139118671Y-69431408D01*
X139119638Y-69435312D01*
X139109573Y-69464844D01*
X139101383Y-69494947D01*
X139098397Y-69497640D01*
X139097100Y-69501447D01*
X139052051Y-69540483D01*
X139042440Y-69545380D01*
X138988282Y-69584727D01*
X138988282Y-69584728D01*
X139620591Y-70217037D01*
X139557007Y-70234075D01*
X139442993Y-70299901D01*
X139349901Y-70392993D01*
X139284075Y-70507007D01*
X139267037Y-70570591D01*
X138634728Y-69938282D01*
X138634727Y-69938282D01*
X138595380Y-69992439D01*
X138498904Y-70181782D01*
X138433242Y-70383869D01*
X138433242Y-70383872D01*
X138400000Y-70593753D01*
X138400000Y-70806246D01*
X138433242Y-71016127D01*
X138433242Y-71016130D01*
X138498904Y-71218217D01*
X138595375Y-71407550D01*
X138634728Y-71461716D01*
X139267037Y-70829408D01*
X139284075Y-70892993D01*
X139349901Y-71007007D01*
X139442993Y-71100099D01*
X139557007Y-71165925D01*
X139620590Y-71182962D01*
X138988282Y-71815269D01*
X138988282Y-71815270D01*
X139042452Y-71854626D01*
X139052048Y-71859516D01*
X139102844Y-71907491D01*
X139119638Y-71975312D01*
X139097100Y-72041447D01*
X139052051Y-72080483D01*
X139042440Y-72085380D01*
X138988282Y-72124727D01*
X138988282Y-72124728D01*
X139620591Y-72757037D01*
X139557007Y-72774075D01*
X139442993Y-72839901D01*
X139349901Y-72932993D01*
X139284075Y-73047007D01*
X139267037Y-73110591D01*
X138634728Y-72478282D01*
X138634727Y-72478282D01*
X138595380Y-72532439D01*
X138498904Y-72721782D01*
X138433242Y-72923869D01*
X138433242Y-72923872D01*
X138400000Y-73133753D01*
X138400000Y-73346246D01*
X138433242Y-73556127D01*
X138433242Y-73556130D01*
X138498904Y-73758217D01*
X138595375Y-73947550D01*
X138634728Y-74001716D01*
X139267037Y-73369408D01*
X139284075Y-73432993D01*
X139349901Y-73547007D01*
X139442993Y-73640099D01*
X139557007Y-73705925D01*
X139620590Y-73722962D01*
X138988282Y-74355269D01*
X138988282Y-74355270D01*
X139042452Y-74394626D01*
X139052048Y-74399516D01*
X139102844Y-74447491D01*
X139119638Y-74515312D01*
X139097100Y-74581447D01*
X139052051Y-74620483D01*
X139042440Y-74625380D01*
X138988282Y-74664727D01*
X138988282Y-74664728D01*
X139620591Y-75297037D01*
X139557007Y-75314075D01*
X139442993Y-75379901D01*
X139349901Y-75472993D01*
X139284075Y-75587007D01*
X139267037Y-75650591D01*
X138634728Y-75018282D01*
X138634727Y-75018282D01*
X138595380Y-75072439D01*
X138498904Y-75261782D01*
X138433242Y-75463869D01*
X138433242Y-75463872D01*
X138400000Y-75673753D01*
X138400000Y-75886246D01*
X138433242Y-76096127D01*
X138433242Y-76096130D01*
X138498904Y-76298217D01*
X138595375Y-76487550D01*
X138634728Y-76541716D01*
X139267037Y-75909408D01*
X139284075Y-75972993D01*
X139349901Y-76087007D01*
X139442993Y-76180099D01*
X139557007Y-76245925D01*
X139620590Y-76262962D01*
X138988282Y-76895269D01*
X138988282Y-76895270D01*
X139042449Y-76934624D01*
X139231782Y-77031095D01*
X139433870Y-77096757D01*
X139643754Y-77130000D01*
X139856246Y-77130000D01*
X140066127Y-77096757D01*
X140066130Y-77096757D01*
X140268217Y-77031095D01*
X140457554Y-76934622D01*
X140511716Y-76895270D01*
X140511717Y-76895270D01*
X139879408Y-76262962D01*
X139942993Y-76245925D01*
X140057007Y-76180099D01*
X140150099Y-76087007D01*
X140215925Y-75972993D01*
X140232962Y-75909409D01*
X140865270Y-76541717D01*
X140865270Y-76541716D01*
X140904622Y-76487555D01*
X140909232Y-76478507D01*
X140957205Y-76427709D01*
X141025025Y-76410912D01*
X141091161Y-76433447D01*
X141130204Y-76478504D01*
X141134949Y-76487817D01*
X141259890Y-76659786D01*
X141410213Y-76810109D01*
X141582179Y-76935048D01*
X141582181Y-76935049D01*
X141582184Y-76935051D01*
X141771588Y-77031557D01*
X141973757Y-77097246D01*
X142183713Y-77130500D01*
X142183714Y-77130500D01*
X142396286Y-77130500D01*
X142396287Y-77130500D01*
X142606243Y-77097246D01*
X142808412Y-77031557D01*
X142997816Y-76935051D01*
X143121832Y-76844949D01*
X143169786Y-76810109D01*
X143169788Y-76810106D01*
X143169792Y-76810104D01*
X143320104Y-76659792D01*
X143320106Y-76659788D01*
X143320109Y-76659786D01*
X143445048Y-76487820D01*
X143445047Y-76487820D01*
X143445051Y-76487816D01*
X143541557Y-76298412D01*
X143607246Y-76096243D01*
X143640500Y-75886287D01*
X143640500Y-75673713D01*
X143607246Y-75463757D01*
X143541557Y-75261588D01*
X143445051Y-75072184D01*
X143445049Y-75072181D01*
X143445048Y-75072179D01*
X143320109Y-74900213D01*
X143169786Y-74749890D01*
X142997820Y-74624951D01*
X142997115Y-74624591D01*
X142989054Y-74620485D01*
X142938259Y-74572512D01*
X142921463Y-74504692D01*
X142943999Y-74438556D01*
X142989054Y-74399515D01*
X142997816Y-74395051D01*
X143096187Y-74323581D01*
X143169786Y-74270109D01*
X143169788Y-74270106D01*
X143169792Y-74270104D01*
X143320104Y-74119792D01*
X143320106Y-74119788D01*
X143320109Y-74119786D01*
X143445048Y-73947820D01*
X143445047Y-73947820D01*
X143445051Y-73947816D01*
X143541557Y-73758412D01*
X143607246Y-73556243D01*
X143640500Y-73346287D01*
X143640500Y-73133713D01*
X143607246Y-72923757D01*
X143541557Y-72721588D01*
X143445051Y-72532184D01*
X143445049Y-72532181D01*
X143445048Y-72532179D01*
X143320109Y-72360213D01*
X143169786Y-72209890D01*
X142997820Y-72084951D01*
X142997115Y-72084591D01*
X142989054Y-72080485D01*
X142938259Y-72032512D01*
X142921463Y-71964692D01*
X142943999Y-71898556D01*
X142989054Y-71859515D01*
X142997816Y-71855051D01*
X143096187Y-71783581D01*
X143169786Y-71730109D01*
X143169788Y-71730106D01*
X143169792Y-71730104D01*
X143320104Y-71579792D01*
X143320106Y-71579788D01*
X143320109Y-71579786D01*
X143445048Y-71407820D01*
X143445047Y-71407820D01*
X143445051Y-71407816D01*
X143541557Y-71218412D01*
X143607246Y-71016243D01*
X143640500Y-70806287D01*
X143640500Y-70593713D01*
X143607246Y-70383757D01*
X143541557Y-70181588D01*
X143445051Y-69992184D01*
X143445049Y-69992181D01*
X143445048Y-69992179D01*
X143320109Y-69820213D01*
X143169786Y-69669890D01*
X142997820Y-69544951D01*
X142997115Y-69544591D01*
X142989054Y-69540485D01*
X142938259Y-69492512D01*
X142921463Y-69424692D01*
X142943999Y-69358556D01*
X142989054Y-69319515D01*
X142997816Y-69315051D01*
X143096187Y-69243581D01*
X143169786Y-69190109D01*
X143169788Y-69190106D01*
X143169792Y-69190104D01*
X143320104Y-69039792D01*
X143320106Y-69039788D01*
X143320109Y-69039786D01*
X143445048Y-68867820D01*
X143445047Y-68867820D01*
X143445051Y-68867816D01*
X143541557Y-68678412D01*
X143607246Y-68476243D01*
X143640500Y-68266287D01*
X143640500Y-68053713D01*
X143607246Y-67843757D01*
X143541557Y-67641588D01*
X143445051Y-67452184D01*
X143445049Y-67452181D01*
X143445048Y-67452179D01*
X143320109Y-67280213D01*
X143169786Y-67129890D01*
X142997820Y-67004951D01*
X142989600Y-67000763D01*
X142989054Y-67000485D01*
X142938259Y-66952512D01*
X142921463Y-66884692D01*
X142943999Y-66818556D01*
X142989054Y-66779515D01*
X142997816Y-66775051D01*
X143019789Y-66759086D01*
X143169786Y-66650109D01*
X143169788Y-66650106D01*
X143169792Y-66650104D01*
X143320104Y-66499792D01*
X143320106Y-66499788D01*
X143320109Y-66499786D01*
X143445048Y-66327820D01*
X143445047Y-66327820D01*
X143445051Y-66327816D01*
X143541557Y-66138412D01*
X143607246Y-65936243D01*
X143640500Y-65726287D01*
X143640500Y-65513713D01*
X143607246Y-65303757D01*
X143541557Y-65101588D01*
X143445051Y-64912184D01*
X143445049Y-64912181D01*
X143445048Y-64912179D01*
X143320109Y-64740213D01*
X143169786Y-64589890D01*
X142997820Y-64464951D01*
X142997115Y-64464591D01*
X142989054Y-64460485D01*
X142938259Y-64412512D01*
X142921463Y-64344692D01*
X142943999Y-64278556D01*
X142989054Y-64239515D01*
X142997816Y-64235051D01*
X143019789Y-64219086D01*
X143169786Y-64110109D01*
X143169788Y-64110106D01*
X143169792Y-64110104D01*
X143320104Y-63959792D01*
X143320106Y-63959788D01*
X143320109Y-63959786D01*
X143445048Y-63787820D01*
X143445047Y-63787820D01*
X143445051Y-63787816D01*
X143541557Y-63598412D01*
X143607246Y-63396243D01*
X143640500Y-63186287D01*
X143640500Y-62973713D01*
X143607246Y-62763757D01*
X143541557Y-62561588D01*
X143445051Y-62372184D01*
X143445049Y-62372181D01*
X143445048Y-62372179D01*
X143320109Y-62200213D01*
X143169786Y-62049890D01*
X142997820Y-61924951D01*
X142997115Y-61924591D01*
X142989054Y-61920485D01*
X142938259Y-61872512D01*
X142921463Y-61804692D01*
X142943999Y-61738556D01*
X142989054Y-61699515D01*
X142997816Y-61695051D01*
X143019789Y-61679086D01*
X143169786Y-61570109D01*
X143169788Y-61570106D01*
X143169792Y-61570104D01*
X143320104Y-61419792D01*
X143320106Y-61419788D01*
X143320109Y-61419786D01*
X143429086Y-61269789D01*
X143445051Y-61247816D01*
X143541557Y-61058412D01*
X143607246Y-60856243D01*
X143640500Y-60646287D01*
X143640500Y-60433713D01*
X143607246Y-60223757D01*
X143541557Y-60021588D01*
X143445051Y-59832184D01*
X143445049Y-59832181D01*
X143445048Y-59832179D01*
X143320109Y-59660213D01*
X143169786Y-59509890D01*
X142997820Y-59384951D01*
X142997115Y-59384591D01*
X142989054Y-59380485D01*
X142938259Y-59332512D01*
X142921463Y-59264692D01*
X142943999Y-59198556D01*
X142989054Y-59159515D01*
X142997816Y-59155051D01*
X143019789Y-59139086D01*
X143169786Y-59030109D01*
X143169788Y-59030106D01*
X143169792Y-59030104D01*
X143320104Y-58879792D01*
X143320106Y-58879788D01*
X143320109Y-58879786D01*
X143429086Y-58729789D01*
X143445051Y-58707816D01*
X143541557Y-58518412D01*
X143607246Y-58316243D01*
X143640500Y-58106287D01*
X143640500Y-57893713D01*
X143607246Y-57683757D01*
X143541557Y-57481588D01*
X143445051Y-57292184D01*
X143445049Y-57292181D01*
X143445048Y-57292179D01*
X143320109Y-57120213D01*
X143169786Y-56969890D01*
X142997820Y-56844951D01*
X142808414Y-56748444D01*
X142808413Y-56748443D01*
X142808412Y-56748443D01*
X142606243Y-56682754D01*
X142606241Y-56682753D01*
X142606240Y-56682753D01*
X142444957Y-56657208D01*
X142396287Y-56649500D01*
X142183713Y-56649500D01*
X142155006Y-56654046D01*
X141973757Y-56682753D01*
X141931473Y-56696492D01*
X141861632Y-56698486D01*
X141805476Y-56666241D01*
X141626590Y-56487355D01*
X141626588Y-56487352D01*
X141507717Y-56368481D01*
X141507716Y-56368480D01*
X141420904Y-56318360D01*
X141420904Y-56318359D01*
X141420900Y-56318358D01*
X141370785Y-56289423D01*
X141218057Y-56248499D01*
X141059943Y-56248499D01*
X141052347Y-56248499D01*
X141052331Y-56248500D01*
X135579766Y-56248500D01*
X135512727Y-56228815D01*
X135510875Y-56227602D01*
X135379185Y-56139609D01*
X135379172Y-56139602D01*
X135233501Y-56079264D01*
X135233489Y-56079261D01*
X135078845Y-56048500D01*
X135078842Y-56048500D01*
X134921158Y-56048500D01*
X134921155Y-56048500D01*
X134766510Y-56079261D01*
X134766498Y-56079264D01*
X134620827Y-56139602D01*
X134620814Y-56139609D01*
X134489125Y-56227602D01*
X134422447Y-56248480D01*
X134420234Y-56248500D01*
X125079766Y-56248500D01*
X125012727Y-56228815D01*
X125010875Y-56227602D01*
X124879185Y-56139609D01*
X124879172Y-56139602D01*
X124733501Y-56079264D01*
X124733489Y-56079261D01*
X124578845Y-56048500D01*
X124578842Y-56048500D01*
X124421158Y-56048500D01*
X124421155Y-56048500D01*
X124266510Y-56079261D01*
X124266498Y-56079264D01*
X124120827Y-56139602D01*
X124120814Y-56139609D01*
X123989125Y-56227602D01*
X123922447Y-56248480D01*
X123920234Y-56248500D01*
X107447670Y-56248500D01*
X107447654Y-56248499D01*
X107440058Y-56248499D01*
X107281943Y-56248499D01*
X107174587Y-56277265D01*
X107129210Y-56289424D01*
X107129209Y-56289425D01*
X107079096Y-56318359D01*
X107079095Y-56318360D01*
X107035689Y-56343420D01*
X106992285Y-56368479D01*
X106992282Y-56368481D01*
X106880478Y-56480286D01*
X106694522Y-56666241D01*
X106633199Y-56699726D01*
X106568523Y-56696491D01*
X106526245Y-56682754D01*
X106386272Y-56660584D01*
X106316287Y-56649500D01*
X106103713Y-56649500D01*
X106055042Y-56657208D01*
X105893760Y-56682753D01*
X105691585Y-56748444D01*
X105502179Y-56844951D01*
X105330213Y-56969890D01*
X105179890Y-57120213D01*
X105054951Y-57292179D01*
X104958444Y-57481585D01*
X104892753Y-57683760D01*
X104859500Y-57893713D01*
X100500500Y-57893713D01*
X100500500Y-54194681D01*
X100520185Y-54127642D01*
X100572989Y-54081887D01*
X100642147Y-54071943D01*
X100705703Y-54100968D01*
X100712181Y-54107000D01*
X100897915Y-54292734D01*
X101108711Y-54460838D01*
X101337003Y-54604284D01*
X101579921Y-54721267D01*
X101771049Y-54788145D01*
X101834397Y-54810312D01*
X101834405Y-54810315D01*
X101834408Y-54810315D01*
X101834409Y-54810316D01*
X102097268Y-54870312D01*
X102365187Y-54900499D01*
X102365188Y-54900500D01*
X102365191Y-54900500D01*
X102634812Y-54900500D01*
X102634812Y-54900499D01*
X102902732Y-54870312D01*
X103165591Y-54810316D01*
X103420079Y-54721267D01*
X103662997Y-54604284D01*
X103891289Y-54460838D01*
X104102085Y-54292734D01*
X104292734Y-54102085D01*
X104460838Y-53891289D01*
X104604284Y-53662997D01*
X104721267Y-53420079D01*
X104810316Y-53165591D01*
X104870312Y-52902732D01*
X104900500Y-52634809D01*
X104900500Y-52365191D01*
X104870312Y-52097268D01*
X104810316Y-51834409D01*
X104721267Y-51579921D01*
X104604284Y-51337003D01*
X104460838Y-51108711D01*
X104292734Y-50897915D01*
X104107000Y-50712181D01*
X104073515Y-50650858D01*
X104078499Y-50581166D01*
X104120371Y-50525233D01*
X104185835Y-50500816D01*
X104194681Y-50500500D01*
X143805319Y-50500500D01*
X143872358Y-50520185D01*
G37*
%TD.AperFunction*%
%TD*%
M02*
