%TF.GenerationSoftware,KiCad,Pcbnew,9.0.6*%
%TF.CreationDate,2025-12-04T12:39:59-08:00*%
%TF.ProjectId,driver3,64726976-6572-4332-9e6b-696361645f70,rev?*%
%TF.SameCoordinates,Original*%
%TF.FileFunction,Copper,L2,Inr*%
%TF.FilePolarity,Positive*%
%FSLAX46Y46*%
G04 Gerber Fmt 4.6, Leading zero omitted, Abs format (unit mm)*
G04 Created by KiCad (PCBNEW 9.0.6) date 2025-12-04 12:39:59*
%MOMM*%
%LPD*%
G01*
G04 APERTURE LIST*
G04 Aperture macros list*
%AMRoundRect*
0 Rectangle with rounded corners*
0 $1 Rounding radius*
0 $2 $3 $4 $5 $6 $7 $8 $9 X,Y pos of 4 corners*
0 Add a 4 corners polygon primitive as box body*
4,1,4,$2,$3,$4,$5,$6,$7,$8,$9,$2,$3,0*
0 Add four circle primitives for the rounded corners*
1,1,$1+$1,$2,$3*
1,1,$1+$1,$4,$5*
1,1,$1+$1,$6,$7*
1,1,$1+$1,$8,$9*
0 Add four rect primitives between the rounded corners*
20,1,$1+$1,$2,$3,$4,$5,0*
20,1,$1+$1,$4,$5,$6,$7,0*
20,1,$1+$1,$6,$7,$8,$9,0*
20,1,$1+$1,$8,$9,$2,$3,0*%
G04 Aperture macros list end*
%TA.AperFunction,ComponentPad*%
%ADD10C,3.800000*%
%TD*%
%TA.AperFunction,ComponentPad*%
%ADD11RoundRect,0.250000X0.550000X-0.550000X0.550000X0.550000X-0.550000X0.550000X-0.550000X-0.550000X0*%
%TD*%
%TA.AperFunction,ComponentPad*%
%ADD12C,1.600000*%
%TD*%
%TA.AperFunction,ComponentPad*%
%ADD13R,1.700000X1.700000*%
%TD*%
%TA.AperFunction,ComponentPad*%
%ADD14C,1.700000*%
%TD*%
%TA.AperFunction,ComponentPad*%
%ADD15RoundRect,0.250000X0.600000X0.725000X-0.600000X0.725000X-0.600000X-0.725000X0.600000X-0.725000X0*%
%TD*%
%TA.AperFunction,ComponentPad*%
%ADD16O,1.700000X1.950000*%
%TD*%
%TA.AperFunction,ViaPad*%
%ADD17C,0.600000*%
%TD*%
G04 APERTURE END LIST*
D10*
%TO.N,unconnected-(H4-Pad1)*%
%TO.C,H4*%
X142600000Y-87600000D03*
%TD*%
D11*
%TO.N,GND*%
%TO.C,SW2*%
X128500000Y-75120000D03*
D12*
X131040000Y-75120000D03*
%TO.N,A3*%
X131040000Y-67500000D03*
%TO.N,A2*%
X128500000Y-67500000D03*
%TD*%
D10*
%TO.N,unconnected-(H2-Pad1)*%
%TO.C,H2*%
X102500000Y-52500000D03*
%TD*%
D13*
%TO.N,SCL*%
%TO.C,J2*%
X106000000Y-57000000D03*
D14*
%TO.N,GND*%
X103460000Y-57000000D03*
X106000000Y-59540000D03*
%TO.N,+12V*%
X103460000Y-59540000D03*
%TO.N,SDA*%
X106000000Y-62080000D03*
%TO.N,GND*%
X103460000Y-62080000D03*
X106000000Y-64620000D03*
%TO.N,+12V*%
X103460000Y-64620000D03*
%TO.N,NFAULT*%
X106000000Y-67160000D03*
%TO.N,GND*%
X103460000Y-67160000D03*
X106000000Y-69700000D03*
%TO.N,+12V*%
X103460000Y-69700000D03*
%TO.N,NENBL*%
X106000000Y-72240000D03*
%TO.N,GND*%
X103460000Y-72240000D03*
%TO.N,+5V*%
X106000000Y-74780000D03*
%TO.N,+12V*%
X103460000Y-74780000D03*
%TD*%
D15*
%TO.N,Net-(J3-Pin_1)*%
%TO.C,J3*%
X127800000Y-82725000D03*
D16*
%TO.N,Net-(J3-Pin_2)*%
X125300000Y-82725000D03*
%TO.N,Net-(J3-Pin_3)*%
X122800000Y-82725000D03*
%TO.N,Net-(J3-Pin_4)*%
X120300000Y-82725000D03*
%TO.N,+12V*%
X117800000Y-82725000D03*
%TD*%
D13*
%TO.N,SCL*%
%TO.C,J1*%
X136960000Y-56970000D03*
D14*
%TO.N,GND*%
X139500000Y-56970000D03*
X136960000Y-59510000D03*
%TO.N,+12V*%
X139500000Y-59510000D03*
%TO.N,SDA*%
X136960000Y-62050000D03*
%TO.N,GND*%
X139500000Y-62050000D03*
X136960000Y-64590000D03*
%TO.N,+12V*%
X139500000Y-64590000D03*
%TO.N,NFAULT*%
X136960000Y-67130000D03*
%TO.N,GND*%
X139500000Y-67130000D03*
X136960000Y-69670000D03*
%TO.N,+12V*%
X139500000Y-69670000D03*
%TO.N,NENBL*%
X136960000Y-72210000D03*
%TO.N,GND*%
X139500000Y-72210000D03*
%TO.N,+5V*%
X136960000Y-74750000D03*
%TO.N,+12V*%
X139500000Y-74750000D03*
%TD*%
D10*
%TO.N,unconnected-(H1-Pad1)*%
%TO.C,H1*%
X142500000Y-52500000D03*
%TD*%
D13*
%TO.N,Net-(J4-Pin_1)*%
%TO.C,J4*%
X112200000Y-61080000D03*
D14*
%TO.N,+5V*%
X112200000Y-58540000D03*
%TO.N,GND*%
X112200000Y-56000000D03*
%TD*%
D10*
%TO.N,unconnected-(H3-Pad1)*%
%TO.C,H3*%
X102400000Y-87600000D03*
%TD*%
D11*
%TO.N,GND*%
%TO.C,SW1*%
X114121192Y-75120000D03*
D12*
X116661192Y-75120000D03*
%TO.N,A1*%
X116661192Y-67500000D03*
%TO.N,A0*%
X114121192Y-67500000D03*
%TD*%
D17*
%TO.N,+12V*%
X119870000Y-56100000D03*
X119870000Y-57700000D03*
X119070000Y-57700000D03*
X119870000Y-56900000D03*
X119070000Y-56900000D03*
X119070000Y-56100000D03*
%TO.N,GND*%
X123470000Y-64750000D03*
X122470000Y-64750000D03*
X121470000Y-65750000D03*
X122470000Y-65750000D03*
X121470000Y-66750000D03*
X121470000Y-64750000D03*
X123470000Y-65750000D03*
X123470000Y-66750000D03*
X116470000Y-59100000D03*
X122470000Y-66750000D03*
X116470000Y-60000000D03*
X116470000Y-60950000D03*
X118033000Y-61750000D03*
X118033000Y-62500000D03*
%TD*%
%TA.AperFunction,Conductor*%
%TO.N,+12V*%
G36*
X104801444Y-72893999D02*
G01*
X104840486Y-72939056D01*
X104844951Y-72947820D01*
X104969890Y-73119786D01*
X105120213Y-73270109D01*
X105292182Y-73395050D01*
X105300946Y-73399516D01*
X105351742Y-73447491D01*
X105368536Y-73515312D01*
X105345998Y-73581447D01*
X105300946Y-73620484D01*
X105292182Y-73624949D01*
X105120213Y-73749890D01*
X104969890Y-73900213D01*
X104844949Y-74072182D01*
X104840202Y-74081499D01*
X104792227Y-74132293D01*
X104724405Y-74149087D01*
X104658271Y-74126548D01*
X104619234Y-74081495D01*
X104614626Y-74072452D01*
X104575270Y-74018282D01*
X104575269Y-74018282D01*
X103942962Y-74650590D01*
X103925925Y-74587007D01*
X103860099Y-74472993D01*
X103767007Y-74379901D01*
X103652993Y-74314075D01*
X103589409Y-74297037D01*
X104221716Y-73664728D01*
X104167547Y-73625373D01*
X104167547Y-73625372D01*
X104158500Y-73620763D01*
X104107706Y-73572788D01*
X104090912Y-73504966D01*
X104113451Y-73438832D01*
X104158508Y-73399793D01*
X104167816Y-73395051D01*
X104247007Y-73337515D01*
X104339786Y-73270109D01*
X104339788Y-73270106D01*
X104339792Y-73270104D01*
X104490104Y-73119792D01*
X104490106Y-73119788D01*
X104490109Y-73119786D01*
X104615048Y-72947820D01*
X104615047Y-72947820D01*
X104615051Y-72947816D01*
X104619514Y-72939054D01*
X104667488Y-72888259D01*
X104735308Y-72871463D01*
X104801444Y-72893999D01*
G37*
%TD.AperFunction*%
%TA.AperFunction,Conductor*%
G36*
X104575270Y-70461717D02*
G01*
X104575270Y-70461716D01*
X104614622Y-70407555D01*
X104619232Y-70398507D01*
X104667205Y-70347709D01*
X104735025Y-70330912D01*
X104801161Y-70353447D01*
X104840204Y-70398504D01*
X104844949Y-70407817D01*
X104969890Y-70579786D01*
X105120213Y-70730109D01*
X105292182Y-70855050D01*
X105300946Y-70859516D01*
X105351742Y-70907491D01*
X105368536Y-70975312D01*
X105345998Y-71041447D01*
X105300946Y-71080484D01*
X105292182Y-71084949D01*
X105120213Y-71209890D01*
X104969890Y-71360213D01*
X104844949Y-71532182D01*
X104840484Y-71540946D01*
X104792509Y-71591742D01*
X104724688Y-71608536D01*
X104658553Y-71585998D01*
X104619516Y-71540946D01*
X104615050Y-71532182D01*
X104490109Y-71360213D01*
X104339786Y-71209890D01*
X104167817Y-71084949D01*
X104158504Y-71080204D01*
X104107707Y-71032230D01*
X104090912Y-70964409D01*
X104113449Y-70898274D01*
X104158507Y-70859232D01*
X104167555Y-70854622D01*
X104221716Y-70815270D01*
X104221717Y-70815270D01*
X103589408Y-70182962D01*
X103652993Y-70165925D01*
X103767007Y-70100099D01*
X103860099Y-70007007D01*
X103925925Y-69892993D01*
X103942962Y-69829408D01*
X104575270Y-70461717D01*
G37*
%TD.AperFunction*%
%TA.AperFunction,Conductor*%
G36*
X104801444Y-67813999D02*
G01*
X104840486Y-67859056D01*
X104844951Y-67867820D01*
X104969890Y-68039786D01*
X105120213Y-68190109D01*
X105292182Y-68315050D01*
X105300946Y-68319516D01*
X105351742Y-68367491D01*
X105368536Y-68435312D01*
X105345998Y-68501447D01*
X105300946Y-68540484D01*
X105292182Y-68544949D01*
X105120213Y-68669890D01*
X104969890Y-68820213D01*
X104844949Y-68992182D01*
X104840202Y-69001499D01*
X104792227Y-69052293D01*
X104724405Y-69069087D01*
X104658271Y-69046548D01*
X104619234Y-69001495D01*
X104614626Y-68992452D01*
X104575270Y-68938282D01*
X104575269Y-68938282D01*
X103942962Y-69570590D01*
X103925925Y-69507007D01*
X103860099Y-69392993D01*
X103767007Y-69299901D01*
X103652993Y-69234075D01*
X103589409Y-69217037D01*
X104221716Y-68584728D01*
X104167547Y-68545373D01*
X104167547Y-68545372D01*
X104158500Y-68540763D01*
X104107706Y-68492788D01*
X104090912Y-68424966D01*
X104113451Y-68358832D01*
X104158508Y-68319793D01*
X104167816Y-68315051D01*
X104247007Y-68257515D01*
X104339786Y-68190109D01*
X104339788Y-68190106D01*
X104339792Y-68190104D01*
X104490104Y-68039792D01*
X104490106Y-68039788D01*
X104490109Y-68039786D01*
X104615048Y-67867820D01*
X104615047Y-67867820D01*
X104615051Y-67867816D01*
X104619514Y-67859054D01*
X104667488Y-67808259D01*
X104735308Y-67791463D01*
X104801444Y-67813999D01*
G37*
%TD.AperFunction*%
%TA.AperFunction,Conductor*%
G36*
X104575270Y-65381717D02*
G01*
X104575270Y-65381716D01*
X104614622Y-65327555D01*
X104619232Y-65318507D01*
X104667205Y-65267709D01*
X104735025Y-65250912D01*
X104801161Y-65273447D01*
X104840204Y-65318504D01*
X104844949Y-65327817D01*
X104969890Y-65499786D01*
X105120213Y-65650109D01*
X105292182Y-65775050D01*
X105300946Y-65779516D01*
X105351742Y-65827491D01*
X105368536Y-65895312D01*
X105345998Y-65961447D01*
X105300946Y-66000484D01*
X105292182Y-66004949D01*
X105120213Y-66129890D01*
X104969890Y-66280213D01*
X104844949Y-66452182D01*
X104840484Y-66460946D01*
X104792509Y-66511742D01*
X104724688Y-66528536D01*
X104658553Y-66505998D01*
X104619516Y-66460946D01*
X104615050Y-66452182D01*
X104490109Y-66280213D01*
X104339786Y-66129890D01*
X104167817Y-66004949D01*
X104158504Y-66000204D01*
X104107707Y-65952230D01*
X104090912Y-65884409D01*
X104113449Y-65818274D01*
X104158507Y-65779232D01*
X104167555Y-65774622D01*
X104221716Y-65735270D01*
X104221717Y-65735270D01*
X103589408Y-65102962D01*
X103652993Y-65085925D01*
X103767007Y-65020099D01*
X103860099Y-64927007D01*
X103925925Y-64812993D01*
X103942962Y-64749408D01*
X104575270Y-65381717D01*
G37*
%TD.AperFunction*%
%TA.AperFunction,Conductor*%
G36*
X104801444Y-62733999D02*
G01*
X104840486Y-62779056D01*
X104844951Y-62787820D01*
X104969890Y-62959786D01*
X105120213Y-63110109D01*
X105292182Y-63235050D01*
X105300946Y-63239516D01*
X105351742Y-63287491D01*
X105368536Y-63355312D01*
X105345998Y-63421447D01*
X105300946Y-63460484D01*
X105292182Y-63464949D01*
X105120213Y-63589890D01*
X104969890Y-63740213D01*
X104844949Y-63912182D01*
X104840202Y-63921499D01*
X104792227Y-63972293D01*
X104724405Y-63989087D01*
X104658271Y-63966548D01*
X104619234Y-63921495D01*
X104614626Y-63912452D01*
X104575270Y-63858282D01*
X104575269Y-63858282D01*
X103942962Y-64490590D01*
X103925925Y-64427007D01*
X103860099Y-64312993D01*
X103767007Y-64219901D01*
X103652993Y-64154075D01*
X103589409Y-64137037D01*
X104221716Y-63504728D01*
X104167547Y-63465373D01*
X104167547Y-63465372D01*
X104158500Y-63460763D01*
X104107706Y-63412788D01*
X104090912Y-63344966D01*
X104113451Y-63278832D01*
X104158508Y-63239793D01*
X104167816Y-63235051D01*
X104247007Y-63177515D01*
X104339786Y-63110109D01*
X104339788Y-63110106D01*
X104339792Y-63110104D01*
X104490104Y-62959792D01*
X104490106Y-62959788D01*
X104490109Y-62959786D01*
X104615048Y-62787820D01*
X104615047Y-62787820D01*
X104615051Y-62787816D01*
X104619514Y-62779054D01*
X104667488Y-62728259D01*
X104735308Y-62711463D01*
X104801444Y-62733999D01*
G37*
%TD.AperFunction*%
%TA.AperFunction,Conductor*%
G36*
X104575270Y-60301717D02*
G01*
X104575270Y-60301716D01*
X104614622Y-60247555D01*
X104619232Y-60238507D01*
X104667205Y-60187709D01*
X104735025Y-60170912D01*
X104801161Y-60193447D01*
X104840204Y-60238504D01*
X104844949Y-60247817D01*
X104969890Y-60419786D01*
X105120213Y-60570109D01*
X105292182Y-60695050D01*
X105300946Y-60699516D01*
X105351742Y-60747491D01*
X105368536Y-60815312D01*
X105345998Y-60881447D01*
X105300946Y-60920484D01*
X105292182Y-60924949D01*
X105120213Y-61049890D01*
X104969890Y-61200213D01*
X104844949Y-61372182D01*
X104840484Y-61380946D01*
X104792509Y-61431742D01*
X104724688Y-61448536D01*
X104658553Y-61425998D01*
X104619516Y-61380946D01*
X104615050Y-61372182D01*
X104490109Y-61200213D01*
X104339786Y-61049890D01*
X104167817Y-60924949D01*
X104158504Y-60920204D01*
X104107707Y-60872230D01*
X104090912Y-60804409D01*
X104113449Y-60738274D01*
X104158507Y-60699232D01*
X104167555Y-60694622D01*
X104221716Y-60655270D01*
X104221717Y-60655270D01*
X103589408Y-60022962D01*
X103652993Y-60005925D01*
X103767007Y-59940099D01*
X103860099Y-59847007D01*
X103925925Y-59732993D01*
X103942962Y-59669408D01*
X104575270Y-60301717D01*
G37*
%TD.AperFunction*%
%TA.AperFunction,Conductor*%
G36*
X104584340Y-57888068D02*
G01*
X104640274Y-57929939D01*
X104657189Y-57960917D01*
X104706202Y-58092328D01*
X104706206Y-58092335D01*
X104792452Y-58207544D01*
X104792455Y-58207547D01*
X104907664Y-58293793D01*
X104907671Y-58293797D01*
X105039082Y-58342810D01*
X105095016Y-58384681D01*
X105119433Y-58450145D01*
X105104582Y-58518418D01*
X105083431Y-58546673D01*
X104969889Y-58660215D01*
X104844949Y-58832182D01*
X104840202Y-58841499D01*
X104792227Y-58892293D01*
X104724405Y-58909087D01*
X104658271Y-58886548D01*
X104619234Y-58841495D01*
X104614626Y-58832452D01*
X104575270Y-58778282D01*
X104575269Y-58778282D01*
X103942962Y-59410590D01*
X103925925Y-59347007D01*
X103860099Y-59232993D01*
X103767007Y-59139901D01*
X103652993Y-59074075D01*
X103589409Y-59057037D01*
X104221716Y-58424728D01*
X104167547Y-58385373D01*
X104167547Y-58385372D01*
X104158500Y-58380763D01*
X104107706Y-58332788D01*
X104090912Y-58264966D01*
X104113451Y-58198832D01*
X104158508Y-58159793D01*
X104167816Y-58155051D01*
X104339792Y-58030104D01*
X104453329Y-57916566D01*
X104514648Y-57883084D01*
X104584340Y-57888068D01*
G37*
%TD.AperFunction*%
%TA.AperFunction,Conductor*%
G36*
X138301444Y-72863999D02*
G01*
X138340486Y-72909056D01*
X138344951Y-72917820D01*
X138469890Y-73089786D01*
X138620213Y-73240109D01*
X138792179Y-73365048D01*
X138792181Y-73365049D01*
X138792184Y-73365051D01*
X138801493Y-73369794D01*
X138852290Y-73417766D01*
X138869087Y-73485587D01*
X138846552Y-73551722D01*
X138801505Y-73590760D01*
X138792446Y-73595376D01*
X138792440Y-73595380D01*
X138738282Y-73634727D01*
X138738282Y-73634728D01*
X139370591Y-74267037D01*
X139307007Y-74284075D01*
X139192993Y-74349901D01*
X139099901Y-74442993D01*
X139034075Y-74557007D01*
X139017037Y-74620591D01*
X138384728Y-73988282D01*
X138384727Y-73988282D01*
X138345380Y-74042440D01*
X138345376Y-74042446D01*
X138340760Y-74051505D01*
X138292781Y-74102297D01*
X138224959Y-74119087D01*
X138158826Y-74096543D01*
X138119794Y-74051493D01*
X138115051Y-74042184D01*
X138115049Y-74042181D01*
X138115048Y-74042179D01*
X137990109Y-73870213D01*
X137839786Y-73719890D01*
X137667820Y-73594951D01*
X137659600Y-73590763D01*
X137659054Y-73590485D01*
X137608259Y-73542512D01*
X137591463Y-73474692D01*
X137613999Y-73408556D01*
X137659054Y-73369515D01*
X137667816Y-73365051D01*
X137689789Y-73349086D01*
X137839786Y-73240109D01*
X137839788Y-73240106D01*
X137839792Y-73240104D01*
X137990104Y-73089792D01*
X137990106Y-73089788D01*
X137990109Y-73089786D01*
X138115048Y-72917820D01*
X138115047Y-72917820D01*
X138115051Y-72917816D01*
X138119514Y-72909054D01*
X138167488Y-72858259D01*
X138235308Y-72841463D01*
X138301444Y-72863999D01*
G37*
%TD.AperFunction*%
%TA.AperFunction,Conductor*%
G36*
X139034075Y-69862993D02*
G01*
X139099901Y-69977007D01*
X139192993Y-70070099D01*
X139307007Y-70135925D01*
X139370590Y-70152962D01*
X138738282Y-70785269D01*
X138738282Y-70785270D01*
X138792452Y-70824626D01*
X138792451Y-70824626D01*
X138801495Y-70829234D01*
X138852292Y-70877208D01*
X138869087Y-70945029D01*
X138846550Y-71011164D01*
X138801499Y-71050202D01*
X138792182Y-71054949D01*
X138620213Y-71179890D01*
X138469890Y-71330213D01*
X138344949Y-71502182D01*
X138340484Y-71510946D01*
X138292509Y-71561742D01*
X138224688Y-71578536D01*
X138158553Y-71555998D01*
X138119516Y-71510946D01*
X138115050Y-71502182D01*
X137990109Y-71330213D01*
X137839786Y-71179890D01*
X137667820Y-71054951D01*
X137667115Y-71054591D01*
X137659054Y-71050485D01*
X137608259Y-71002512D01*
X137591463Y-70934692D01*
X137613999Y-70868556D01*
X137659054Y-70829515D01*
X137667816Y-70825051D01*
X137722572Y-70785269D01*
X137839786Y-70700109D01*
X137839788Y-70700106D01*
X137839792Y-70700104D01*
X137990104Y-70549792D01*
X137990106Y-70549788D01*
X137990109Y-70549786D01*
X138075890Y-70431717D01*
X138115051Y-70377816D01*
X138119793Y-70368508D01*
X138167763Y-70317711D01*
X138235583Y-70300911D01*
X138301719Y-70323445D01*
X138340763Y-70368500D01*
X138345373Y-70377547D01*
X138384728Y-70431716D01*
X139017036Y-69799407D01*
X139034075Y-69862993D01*
G37*
%TD.AperFunction*%
%TA.AperFunction,Conductor*%
G36*
X138301444Y-67783999D02*
G01*
X138340486Y-67829056D01*
X138344951Y-67837820D01*
X138469890Y-68009786D01*
X138620213Y-68160109D01*
X138792179Y-68285048D01*
X138792181Y-68285049D01*
X138792184Y-68285051D01*
X138801493Y-68289794D01*
X138852290Y-68337766D01*
X138869087Y-68405587D01*
X138846552Y-68471722D01*
X138801505Y-68510760D01*
X138792446Y-68515376D01*
X138792440Y-68515380D01*
X138738282Y-68554727D01*
X138738282Y-68554728D01*
X139370591Y-69187037D01*
X139307007Y-69204075D01*
X139192993Y-69269901D01*
X139099901Y-69362993D01*
X139034075Y-69477007D01*
X139017037Y-69540591D01*
X138384728Y-68908282D01*
X138384727Y-68908282D01*
X138345380Y-68962440D01*
X138345376Y-68962446D01*
X138340760Y-68971505D01*
X138292781Y-69022297D01*
X138224959Y-69039087D01*
X138158826Y-69016543D01*
X138119794Y-68971493D01*
X138115051Y-68962184D01*
X138115049Y-68962181D01*
X138115048Y-68962179D01*
X137990109Y-68790213D01*
X137839786Y-68639890D01*
X137667820Y-68514951D01*
X137659600Y-68510763D01*
X137659054Y-68510485D01*
X137608259Y-68462512D01*
X137591463Y-68394692D01*
X137613999Y-68328556D01*
X137659054Y-68289515D01*
X137667816Y-68285051D01*
X137689789Y-68269086D01*
X137839786Y-68160109D01*
X137839788Y-68160106D01*
X137839792Y-68160104D01*
X137990104Y-68009792D01*
X137990106Y-68009788D01*
X137990109Y-68009786D01*
X138115048Y-67837820D01*
X138115047Y-67837820D01*
X138115051Y-67837816D01*
X138119514Y-67829054D01*
X138167488Y-67778259D01*
X138235308Y-67761463D01*
X138301444Y-67783999D01*
G37*
%TD.AperFunction*%
%TA.AperFunction,Conductor*%
G36*
X139034075Y-64782993D02*
G01*
X139099901Y-64897007D01*
X139192993Y-64990099D01*
X139307007Y-65055925D01*
X139370590Y-65072962D01*
X138738282Y-65705269D01*
X138738282Y-65705270D01*
X138792452Y-65744626D01*
X138792451Y-65744626D01*
X138801495Y-65749234D01*
X138852292Y-65797208D01*
X138869087Y-65865029D01*
X138846550Y-65931164D01*
X138801499Y-65970202D01*
X138792182Y-65974949D01*
X138620213Y-66099890D01*
X138469890Y-66250213D01*
X138344949Y-66422182D01*
X138340484Y-66430946D01*
X138292509Y-66481742D01*
X138224688Y-66498536D01*
X138158553Y-66475998D01*
X138119516Y-66430946D01*
X138115050Y-66422182D01*
X137990109Y-66250213D01*
X137839786Y-66099890D01*
X137667820Y-65974951D01*
X137667115Y-65974591D01*
X137659054Y-65970485D01*
X137608259Y-65922512D01*
X137591463Y-65854692D01*
X137613999Y-65788556D01*
X137659054Y-65749515D01*
X137667816Y-65745051D01*
X137769529Y-65671153D01*
X137839786Y-65620109D01*
X137839788Y-65620106D01*
X137839792Y-65620104D01*
X137990104Y-65469792D01*
X137990106Y-65469788D01*
X137990109Y-65469786D01*
X138075890Y-65351717D01*
X138115051Y-65297816D01*
X138119793Y-65288508D01*
X138167763Y-65237711D01*
X138235583Y-65220911D01*
X138301719Y-65243445D01*
X138340763Y-65288500D01*
X138345373Y-65297547D01*
X138384728Y-65351716D01*
X139017037Y-64719408D01*
X139034075Y-64782993D01*
G37*
%TD.AperFunction*%
%TA.AperFunction,Conductor*%
G36*
X138301444Y-62703999D02*
G01*
X138340486Y-62749056D01*
X138344951Y-62757820D01*
X138469890Y-62929786D01*
X138620213Y-63080109D01*
X138792179Y-63205048D01*
X138792181Y-63205049D01*
X138792184Y-63205051D01*
X138801493Y-63209794D01*
X138852290Y-63257766D01*
X138869087Y-63325587D01*
X138846552Y-63391722D01*
X138801505Y-63430760D01*
X138792446Y-63435376D01*
X138792440Y-63435380D01*
X138738282Y-63474727D01*
X138738282Y-63474728D01*
X139370591Y-64107037D01*
X139307007Y-64124075D01*
X139192993Y-64189901D01*
X139099901Y-64282993D01*
X139034075Y-64397007D01*
X139017037Y-64460591D01*
X138384728Y-63828282D01*
X138384727Y-63828282D01*
X138345380Y-63882440D01*
X138345376Y-63882446D01*
X138340760Y-63891505D01*
X138292781Y-63942297D01*
X138224959Y-63959087D01*
X138158826Y-63936543D01*
X138119794Y-63891493D01*
X138115051Y-63882184D01*
X138115049Y-63882181D01*
X138115048Y-63882179D01*
X137990109Y-63710213D01*
X137839786Y-63559890D01*
X137667820Y-63434951D01*
X137659600Y-63430763D01*
X137659054Y-63430485D01*
X137608259Y-63382512D01*
X137591463Y-63314692D01*
X137613999Y-63248556D01*
X137659054Y-63209515D01*
X137667816Y-63205051D01*
X137689789Y-63189086D01*
X137839786Y-63080109D01*
X137839788Y-63080106D01*
X137839792Y-63080104D01*
X137990104Y-62929792D01*
X137990106Y-62929788D01*
X137990109Y-62929786D01*
X138115048Y-62757820D01*
X138115047Y-62757820D01*
X138115051Y-62757816D01*
X138119514Y-62749054D01*
X138167488Y-62698259D01*
X138235308Y-62681463D01*
X138301444Y-62703999D01*
G37*
%TD.AperFunction*%
%TA.AperFunction,Conductor*%
G36*
X139034075Y-59702993D02*
G01*
X139099901Y-59817007D01*
X139192993Y-59910099D01*
X139307007Y-59975925D01*
X139370590Y-59992962D01*
X138738282Y-60625269D01*
X138738282Y-60625270D01*
X138792452Y-60664626D01*
X138792451Y-60664626D01*
X138801495Y-60669234D01*
X138852292Y-60717208D01*
X138869087Y-60785029D01*
X138846550Y-60851164D01*
X138801499Y-60890202D01*
X138792182Y-60894949D01*
X138620213Y-61019890D01*
X138469890Y-61170213D01*
X138344949Y-61342182D01*
X138340484Y-61350946D01*
X138292509Y-61401742D01*
X138224688Y-61418536D01*
X138158553Y-61395998D01*
X138119516Y-61350946D01*
X138115050Y-61342182D01*
X137990109Y-61170213D01*
X137839786Y-61019890D01*
X137667820Y-60894951D01*
X137667115Y-60894591D01*
X137659054Y-60890485D01*
X137608259Y-60842512D01*
X137591463Y-60774692D01*
X137613999Y-60708556D01*
X137659054Y-60669515D01*
X137667816Y-60665051D01*
X137797504Y-60570828D01*
X137839786Y-60540109D01*
X137839788Y-60540106D01*
X137839792Y-60540104D01*
X137990104Y-60389792D01*
X137990106Y-60389788D01*
X137990109Y-60389786D01*
X138075890Y-60271717D01*
X138115051Y-60217816D01*
X138119793Y-60208508D01*
X138167763Y-60157711D01*
X138235583Y-60140911D01*
X138301719Y-60163445D01*
X138340763Y-60208500D01*
X138345373Y-60217547D01*
X138384728Y-60271716D01*
X139017037Y-59639408D01*
X139034075Y-59702993D01*
G37*
%TD.AperFunction*%
%TA.AperFunction,Conductor*%
G36*
X138478418Y-57865417D02*
G01*
X138506673Y-57886569D01*
X138620213Y-58000109D01*
X138792179Y-58125048D01*
X138792181Y-58125049D01*
X138792184Y-58125051D01*
X138801493Y-58129794D01*
X138852290Y-58177766D01*
X138869087Y-58245587D01*
X138846552Y-58311722D01*
X138801505Y-58350760D01*
X138792446Y-58355376D01*
X138792440Y-58355380D01*
X138738282Y-58394727D01*
X138738282Y-58394728D01*
X139370591Y-59027037D01*
X139307007Y-59044075D01*
X139192993Y-59109901D01*
X139099901Y-59202993D01*
X139034075Y-59317007D01*
X139017037Y-59380591D01*
X138384728Y-58748282D01*
X138384727Y-58748282D01*
X138345380Y-58802440D01*
X138345376Y-58802446D01*
X138340760Y-58811505D01*
X138292781Y-58862297D01*
X138224959Y-58879087D01*
X138158826Y-58856543D01*
X138119794Y-58811493D01*
X138115051Y-58802184D01*
X138115049Y-58802181D01*
X138115048Y-58802179D01*
X137990109Y-58630213D01*
X137876569Y-58516673D01*
X137843084Y-58455350D01*
X137848068Y-58385658D01*
X137889940Y-58329725D01*
X137920915Y-58312810D01*
X138052331Y-58263796D01*
X138167546Y-58177546D01*
X138253796Y-58062331D01*
X138302810Y-57930916D01*
X138344681Y-57874984D01*
X138410145Y-57850566D01*
X138478418Y-57865417D01*
G37*
%TD.AperFunction*%
%TA.AperFunction,Conductor*%
G36*
X140872358Y-50520185D02*
G01*
X140918113Y-50572989D01*
X140928057Y-50642147D01*
X140899032Y-50705703D01*
X140893000Y-50712181D01*
X140707265Y-50897915D01*
X140539161Y-51108712D01*
X140395714Y-51337005D01*
X140278734Y-51579917D01*
X140189687Y-51834397D01*
X140189684Y-51834405D01*
X140129688Y-52097268D01*
X140129686Y-52097280D01*
X140099500Y-52365186D01*
X140099500Y-52634813D01*
X140129686Y-52902719D01*
X140129688Y-52902731D01*
X140189684Y-53165594D01*
X140189687Y-53165602D01*
X140278734Y-53420082D01*
X140395714Y-53662994D01*
X140395716Y-53662997D01*
X140539162Y-53891289D01*
X140664573Y-54048549D01*
X140683228Y-54071943D01*
X140707266Y-54102085D01*
X140897915Y-54292734D01*
X141108711Y-54460838D01*
X141337003Y-54604284D01*
X141579921Y-54721267D01*
X141771049Y-54788145D01*
X141834397Y-54810312D01*
X141834405Y-54810315D01*
X141834408Y-54810315D01*
X141834409Y-54810316D01*
X142097268Y-54870312D01*
X142365187Y-54900499D01*
X142365188Y-54900500D01*
X142365191Y-54900500D01*
X142634812Y-54900500D01*
X142634812Y-54900499D01*
X142902732Y-54870312D01*
X143165591Y-54810316D01*
X143420079Y-54721267D01*
X143662997Y-54604284D01*
X143891289Y-54460838D01*
X144102085Y-54292734D01*
X144287819Y-54107000D01*
X144349142Y-54073515D01*
X144418834Y-54078499D01*
X144474767Y-54120371D01*
X144499184Y-54185835D01*
X144499500Y-54194681D01*
X144499500Y-85805319D01*
X144479815Y-85872358D01*
X144427011Y-85918113D01*
X144357853Y-85928057D01*
X144294297Y-85899032D01*
X144287819Y-85893000D01*
X144202084Y-85807265D01*
X144148549Y-85764573D01*
X143991289Y-85639162D01*
X143762997Y-85495716D01*
X143762994Y-85495714D01*
X143520082Y-85378734D01*
X143265602Y-85289687D01*
X143265594Y-85289684D01*
X143068446Y-85244687D01*
X143002732Y-85229688D01*
X143002728Y-85229687D01*
X143002719Y-85229686D01*
X142734813Y-85199500D01*
X142734809Y-85199500D01*
X142465191Y-85199500D01*
X142465186Y-85199500D01*
X142197280Y-85229686D01*
X142197268Y-85229688D01*
X141934405Y-85289684D01*
X141934397Y-85289687D01*
X141679917Y-85378734D01*
X141437005Y-85495714D01*
X141208712Y-85639161D01*
X140997915Y-85807265D01*
X140807265Y-85997915D01*
X140639161Y-86208712D01*
X140495714Y-86437005D01*
X140378734Y-86679917D01*
X140289687Y-86934397D01*
X140289684Y-86934405D01*
X140229688Y-87197268D01*
X140229686Y-87197280D01*
X140199500Y-87465186D01*
X140199500Y-87734813D01*
X140229686Y-88002719D01*
X140229688Y-88002731D01*
X140289684Y-88265594D01*
X140289687Y-88265602D01*
X140378734Y-88520082D01*
X140495714Y-88762994D01*
X140495716Y-88762997D01*
X140639162Y-88991289D01*
X140700500Y-89068204D01*
X140807265Y-89202084D01*
X140893000Y-89287819D01*
X140926485Y-89349142D01*
X140921501Y-89418834D01*
X140879629Y-89474767D01*
X140814165Y-89499184D01*
X140805319Y-89499500D01*
X104194681Y-89499500D01*
X104127642Y-89479815D01*
X104081887Y-89427011D01*
X104071943Y-89357853D01*
X104100968Y-89294297D01*
X104107000Y-89287819D01*
X104192734Y-89202085D01*
X104360838Y-88991289D01*
X104504284Y-88762997D01*
X104621267Y-88520079D01*
X104710316Y-88265591D01*
X104770312Y-88002732D01*
X104800500Y-87734809D01*
X104800500Y-87465191D01*
X104770312Y-87197268D01*
X104710316Y-86934409D01*
X104621267Y-86679921D01*
X104504284Y-86437003D01*
X104360838Y-86208711D01*
X104192734Y-85997915D01*
X104002085Y-85807266D01*
X103791289Y-85639162D01*
X103562997Y-85495716D01*
X103562994Y-85495714D01*
X103320082Y-85378734D01*
X103065602Y-85289687D01*
X103065594Y-85289684D01*
X102868446Y-85244687D01*
X102802732Y-85229688D01*
X102802728Y-85229687D01*
X102802719Y-85229686D01*
X102534813Y-85199500D01*
X102534809Y-85199500D01*
X102265191Y-85199500D01*
X102265186Y-85199500D01*
X101997280Y-85229686D01*
X101997268Y-85229688D01*
X101734405Y-85289684D01*
X101734397Y-85289687D01*
X101479917Y-85378734D01*
X101237005Y-85495714D01*
X101008712Y-85639161D01*
X100797915Y-85807265D01*
X100712181Y-85893000D01*
X100650858Y-85926485D01*
X100581166Y-85921501D01*
X100525233Y-85879629D01*
X100500816Y-85814165D01*
X100500500Y-85805319D01*
X100500500Y-82475000D01*
X116452970Y-82475000D01*
X117395854Y-82475000D01*
X117357370Y-82541657D01*
X117325000Y-82662465D01*
X117325000Y-82787535D01*
X117357370Y-82908343D01*
X117395854Y-82975000D01*
X116452970Y-82975000D01*
X116483242Y-83166127D01*
X116483242Y-83166130D01*
X116548904Y-83368217D01*
X116645379Y-83557557D01*
X116770272Y-83729459D01*
X116770276Y-83729464D01*
X116920535Y-83879723D01*
X116920540Y-83879727D01*
X117092442Y-84004620D01*
X117281782Y-84101095D01*
X117483871Y-84166757D01*
X117550000Y-84177231D01*
X117550000Y-83129145D01*
X117616657Y-83167630D01*
X117737465Y-83200000D01*
X117862535Y-83200000D01*
X117983343Y-83167630D01*
X118050000Y-83129145D01*
X118050000Y-84177230D01*
X118116126Y-84166757D01*
X118116129Y-84166757D01*
X118318217Y-84101095D01*
X118507557Y-84004620D01*
X118679459Y-83879727D01*
X118679464Y-83879723D01*
X118829721Y-83729466D01*
X118949371Y-83564781D01*
X119004701Y-83522115D01*
X119074314Y-83516136D01*
X119136110Y-83548741D01*
X119150008Y-83564781D01*
X119269890Y-83729785D01*
X119269894Y-83729790D01*
X119420213Y-83880109D01*
X119592179Y-84005048D01*
X119592181Y-84005049D01*
X119592184Y-84005051D01*
X119781588Y-84101557D01*
X119983757Y-84167246D01*
X120193713Y-84200500D01*
X120193714Y-84200500D01*
X120406286Y-84200500D01*
X120406287Y-84200500D01*
X120616243Y-84167246D01*
X120818412Y-84101557D01*
X121007816Y-84005051D01*
X121029789Y-83989086D01*
X121179786Y-83880109D01*
X121179788Y-83880106D01*
X121179792Y-83880104D01*
X121330104Y-83729792D01*
X121449683Y-83565204D01*
X121505011Y-83522540D01*
X121574624Y-83516561D01*
X121636420Y-83549166D01*
X121650313Y-83565199D01*
X121753925Y-83707809D01*
X121769896Y-83729792D01*
X121920213Y-83880109D01*
X122092179Y-84005048D01*
X122092181Y-84005049D01*
X122092184Y-84005051D01*
X122281588Y-84101557D01*
X122483757Y-84167246D01*
X122693713Y-84200500D01*
X122693714Y-84200500D01*
X122906286Y-84200500D01*
X122906287Y-84200500D01*
X123116243Y-84167246D01*
X123318412Y-84101557D01*
X123507816Y-84005051D01*
X123529789Y-83989086D01*
X123679786Y-83880109D01*
X123679788Y-83880106D01*
X123679792Y-83880104D01*
X123830104Y-83729792D01*
X123949683Y-83565204D01*
X124005011Y-83522540D01*
X124074624Y-83516561D01*
X124136420Y-83549166D01*
X124150313Y-83565199D01*
X124253925Y-83707809D01*
X124269896Y-83729792D01*
X124420213Y-83880109D01*
X124592179Y-84005048D01*
X124592181Y-84005049D01*
X124592184Y-84005051D01*
X124781588Y-84101557D01*
X124983757Y-84167246D01*
X125193713Y-84200500D01*
X125193714Y-84200500D01*
X125406286Y-84200500D01*
X125406287Y-84200500D01*
X125616243Y-84167246D01*
X125818412Y-84101557D01*
X126007816Y-84005051D01*
X126179792Y-83880104D01*
X126318604Y-83741291D01*
X126379923Y-83707809D01*
X126449615Y-83712793D01*
X126505549Y-83754664D01*
X126511821Y-83763878D01*
X126515185Y-83769333D01*
X126515186Y-83769334D01*
X126607288Y-83918656D01*
X126731344Y-84042712D01*
X126880666Y-84134814D01*
X127047203Y-84189999D01*
X127149991Y-84200500D01*
X128450008Y-84200499D01*
X128552797Y-84189999D01*
X128719334Y-84134814D01*
X128868656Y-84042712D01*
X128992712Y-83918656D01*
X129084814Y-83769334D01*
X129139999Y-83602797D01*
X129150500Y-83500009D01*
X129150499Y-81949992D01*
X129148851Y-81933863D01*
X129139999Y-81847203D01*
X129139998Y-81847200D01*
X129102104Y-81732845D01*
X129084814Y-81680666D01*
X128992712Y-81531344D01*
X128868656Y-81407288D01*
X128719334Y-81315186D01*
X128552797Y-81260001D01*
X128552795Y-81260000D01*
X128450010Y-81249500D01*
X127149998Y-81249500D01*
X127149981Y-81249501D01*
X127047203Y-81260000D01*
X127047200Y-81260001D01*
X126880668Y-81315185D01*
X126880663Y-81315187D01*
X126731342Y-81407289D01*
X126607289Y-81531342D01*
X126511821Y-81686121D01*
X126459873Y-81732845D01*
X126390910Y-81744068D01*
X126326828Y-81716224D01*
X126318601Y-81708705D01*
X126179786Y-81569890D01*
X126007820Y-81444951D01*
X125818414Y-81348444D01*
X125818413Y-81348443D01*
X125818412Y-81348443D01*
X125616243Y-81282754D01*
X125616241Y-81282753D01*
X125616240Y-81282753D01*
X125454957Y-81257208D01*
X125406287Y-81249500D01*
X125193713Y-81249500D01*
X125145042Y-81257208D01*
X124983760Y-81282753D01*
X124781585Y-81348444D01*
X124592179Y-81444951D01*
X124420213Y-81569890D01*
X124269894Y-81720209D01*
X124269890Y-81720214D01*
X124150318Y-81884793D01*
X124094989Y-81927459D01*
X124025375Y-81933438D01*
X123963580Y-81900833D01*
X123949682Y-81884793D01*
X123830109Y-81720214D01*
X123830105Y-81720209D01*
X123679786Y-81569890D01*
X123507820Y-81444951D01*
X123318414Y-81348444D01*
X123318413Y-81348443D01*
X123318412Y-81348443D01*
X123116243Y-81282754D01*
X123116241Y-81282753D01*
X123116240Y-81282753D01*
X122954957Y-81257208D01*
X122906287Y-81249500D01*
X122693713Y-81249500D01*
X122645042Y-81257208D01*
X122483760Y-81282753D01*
X122281585Y-81348444D01*
X122092179Y-81444951D01*
X121920213Y-81569890D01*
X121769894Y-81720209D01*
X121769890Y-81720214D01*
X121650318Y-81884793D01*
X121594989Y-81927459D01*
X121525375Y-81933438D01*
X121463580Y-81900833D01*
X121449682Y-81884793D01*
X121330109Y-81720214D01*
X121330105Y-81720209D01*
X121179786Y-81569890D01*
X121007820Y-81444951D01*
X120818414Y-81348444D01*
X120818413Y-81348443D01*
X120818412Y-81348443D01*
X120616243Y-81282754D01*
X120616241Y-81282753D01*
X120616240Y-81282753D01*
X120454957Y-81257208D01*
X120406287Y-81249500D01*
X120193713Y-81249500D01*
X120145042Y-81257208D01*
X119983760Y-81282753D01*
X119781585Y-81348444D01*
X119592179Y-81444951D01*
X119420213Y-81569890D01*
X119269894Y-81720209D01*
X119269890Y-81720214D01*
X119150008Y-81885218D01*
X119094678Y-81927884D01*
X119025065Y-81933863D01*
X118963270Y-81901257D01*
X118949372Y-81885218D01*
X118829727Y-81720540D01*
X118829723Y-81720535D01*
X118679464Y-81570276D01*
X118679459Y-81570272D01*
X118507557Y-81445379D01*
X118318215Y-81348903D01*
X118116124Y-81283241D01*
X118050000Y-81272768D01*
X118050000Y-82320854D01*
X117983343Y-82282370D01*
X117862535Y-82250000D01*
X117737465Y-82250000D01*
X117616657Y-82282370D01*
X117550000Y-82320854D01*
X117550000Y-81272768D01*
X117549999Y-81272768D01*
X117483875Y-81283241D01*
X117281784Y-81348903D01*
X117092442Y-81445379D01*
X116920540Y-81570272D01*
X116920535Y-81570276D01*
X116770276Y-81720535D01*
X116770272Y-81720540D01*
X116645379Y-81892442D01*
X116548904Y-82081782D01*
X116483242Y-82283869D01*
X116483242Y-82283872D01*
X116452970Y-82475000D01*
X100500500Y-82475000D01*
X100500500Y-56893713D01*
X102109500Y-56893713D01*
X102109500Y-57106286D01*
X102132508Y-57251557D01*
X102142754Y-57316243D01*
X102198695Y-57488412D01*
X102208444Y-57518414D01*
X102304951Y-57707820D01*
X102429890Y-57879786D01*
X102580213Y-58030109D01*
X102752179Y-58155048D01*
X102752181Y-58155049D01*
X102752184Y-58155051D01*
X102761493Y-58159794D01*
X102812290Y-58207766D01*
X102829087Y-58275587D01*
X102806552Y-58341722D01*
X102761505Y-58380760D01*
X102752446Y-58385376D01*
X102752440Y-58385380D01*
X102698282Y-58424727D01*
X102698282Y-58424728D01*
X103330591Y-59057037D01*
X103267007Y-59074075D01*
X103152993Y-59139901D01*
X103059901Y-59232993D01*
X102994075Y-59347007D01*
X102977037Y-59410591D01*
X102344728Y-58778282D01*
X102344727Y-58778282D01*
X102305380Y-58832439D01*
X102208904Y-59021782D01*
X102143242Y-59223869D01*
X102143242Y-59223872D01*
X102110000Y-59433753D01*
X102110000Y-59646246D01*
X102143242Y-59856127D01*
X102143242Y-59856130D01*
X102208904Y-60058217D01*
X102305375Y-60247550D01*
X102344728Y-60301716D01*
X102977037Y-59669408D01*
X102994075Y-59732993D01*
X103059901Y-59847007D01*
X103152993Y-59940099D01*
X103267007Y-60005925D01*
X103330590Y-60022962D01*
X102698282Y-60655269D01*
X102698282Y-60655270D01*
X102752452Y-60694626D01*
X102752451Y-60694626D01*
X102761495Y-60699234D01*
X102812292Y-60747208D01*
X102829087Y-60815029D01*
X102806550Y-60881164D01*
X102761499Y-60920202D01*
X102752182Y-60924949D01*
X102580213Y-61049890D01*
X102429890Y-61200213D01*
X102304951Y-61372179D01*
X102208444Y-61561585D01*
X102208443Y-61561587D01*
X102208443Y-61561588D01*
X102199748Y-61588349D01*
X102142753Y-61763760D01*
X102109500Y-61973713D01*
X102109500Y-62186286D01*
X102139198Y-62373796D01*
X102142754Y-62396243D01*
X102202084Y-62578842D01*
X102208444Y-62598414D01*
X102304951Y-62787820D01*
X102429890Y-62959786D01*
X102580213Y-63110109D01*
X102752179Y-63235048D01*
X102752181Y-63235049D01*
X102752184Y-63235051D01*
X102761493Y-63239794D01*
X102812290Y-63287766D01*
X102829087Y-63355587D01*
X102806552Y-63421722D01*
X102761505Y-63460760D01*
X102752446Y-63465376D01*
X102752440Y-63465380D01*
X102698282Y-63504727D01*
X102698282Y-63504728D01*
X103330591Y-64137037D01*
X103267007Y-64154075D01*
X103152993Y-64219901D01*
X103059901Y-64312993D01*
X102994075Y-64427007D01*
X102977037Y-64490591D01*
X102344728Y-63858282D01*
X102344727Y-63858282D01*
X102305380Y-63912439D01*
X102208904Y-64101782D01*
X102143242Y-64303869D01*
X102143242Y-64303872D01*
X102110000Y-64513753D01*
X102110000Y-64726246D01*
X102143242Y-64936127D01*
X102143242Y-64936130D01*
X102208904Y-65138217D01*
X102305375Y-65327550D01*
X102344728Y-65381716D01*
X102977037Y-64749408D01*
X102994075Y-64812993D01*
X103059901Y-64927007D01*
X103152993Y-65020099D01*
X103267007Y-65085925D01*
X103330590Y-65102962D01*
X102698282Y-65735269D01*
X102698282Y-65735270D01*
X102752452Y-65774626D01*
X102752451Y-65774626D01*
X102761495Y-65779234D01*
X102812292Y-65827208D01*
X102829087Y-65895029D01*
X102806550Y-65961164D01*
X102761499Y-66000202D01*
X102752182Y-66004949D01*
X102580213Y-66129890D01*
X102429890Y-66280213D01*
X102304951Y-66452179D01*
X102208444Y-66641585D01*
X102142753Y-66843760D01*
X102109500Y-67053713D01*
X102109500Y-67266286D01*
X102140085Y-67459396D01*
X102142754Y-67476243D01*
X102198695Y-67648412D01*
X102208444Y-67678414D01*
X102304951Y-67867820D01*
X102429890Y-68039786D01*
X102580213Y-68190109D01*
X102752179Y-68315048D01*
X102752181Y-68315049D01*
X102752184Y-68315051D01*
X102761493Y-68319794D01*
X102812290Y-68367766D01*
X102829087Y-68435587D01*
X102806552Y-68501722D01*
X102761505Y-68540760D01*
X102752446Y-68545376D01*
X102752440Y-68545380D01*
X102698282Y-68584727D01*
X102698282Y-68584728D01*
X103330591Y-69217037D01*
X103267007Y-69234075D01*
X103152993Y-69299901D01*
X103059901Y-69392993D01*
X102994075Y-69507007D01*
X102977037Y-69570591D01*
X102344728Y-68938282D01*
X102344727Y-68938282D01*
X102305380Y-68992439D01*
X102208904Y-69181782D01*
X102143242Y-69383869D01*
X102143242Y-69383872D01*
X102110000Y-69593753D01*
X102110000Y-69806246D01*
X102143242Y-70016127D01*
X102143242Y-70016130D01*
X102208904Y-70218217D01*
X102305375Y-70407550D01*
X102344728Y-70461716D01*
X102977037Y-69829408D01*
X102994075Y-69892993D01*
X103059901Y-70007007D01*
X103152993Y-70100099D01*
X103267007Y-70165925D01*
X103330590Y-70182962D01*
X102698282Y-70815269D01*
X102698282Y-70815270D01*
X102752452Y-70854626D01*
X102752451Y-70854626D01*
X102761495Y-70859234D01*
X102812292Y-70907208D01*
X102829087Y-70975029D01*
X102806550Y-71041164D01*
X102761499Y-71080202D01*
X102752182Y-71084949D01*
X102580213Y-71209890D01*
X102429890Y-71360213D01*
X102304951Y-71532179D01*
X102208444Y-71721585D01*
X102142753Y-71923760D01*
X102109500Y-72133713D01*
X102109500Y-72346287D01*
X102142754Y-72556243D01*
X102198695Y-72728412D01*
X102208444Y-72758414D01*
X102304951Y-72947820D01*
X102429890Y-73119786D01*
X102580213Y-73270109D01*
X102752179Y-73395048D01*
X102752181Y-73395049D01*
X102752184Y-73395051D01*
X102761493Y-73399794D01*
X102812290Y-73447766D01*
X102829087Y-73515587D01*
X102806552Y-73581722D01*
X102761505Y-73620760D01*
X102752446Y-73625376D01*
X102752440Y-73625380D01*
X102698282Y-73664727D01*
X102698282Y-73664728D01*
X103330591Y-74297037D01*
X103267007Y-74314075D01*
X103152993Y-74379901D01*
X103059901Y-74472993D01*
X102994075Y-74587007D01*
X102977037Y-74650591D01*
X102344728Y-74018282D01*
X102344727Y-74018282D01*
X102305380Y-74072439D01*
X102208904Y-74261782D01*
X102143242Y-74463869D01*
X102143242Y-74463872D01*
X102110000Y-74673753D01*
X102110000Y-74886246D01*
X102143242Y-75096127D01*
X102143242Y-75096130D01*
X102208904Y-75298217D01*
X102305375Y-75487550D01*
X102344728Y-75541716D01*
X102977037Y-74909408D01*
X102994075Y-74972993D01*
X103059901Y-75087007D01*
X103152993Y-75180099D01*
X103267007Y-75245925D01*
X103330590Y-75262962D01*
X102698282Y-75895269D01*
X102698282Y-75895270D01*
X102752449Y-75934624D01*
X102941782Y-76031095D01*
X103143870Y-76096757D01*
X103353754Y-76130000D01*
X103566246Y-76130000D01*
X103776127Y-76096757D01*
X103776130Y-76096757D01*
X103978217Y-76031095D01*
X104167554Y-75934622D01*
X104221716Y-75895270D01*
X104221717Y-75895270D01*
X103589408Y-75262962D01*
X103652993Y-75245925D01*
X103767007Y-75180099D01*
X103860099Y-75087007D01*
X103925925Y-74972993D01*
X103942962Y-74909408D01*
X104575270Y-75541717D01*
X104575270Y-75541716D01*
X104614622Y-75487555D01*
X104619232Y-75478507D01*
X104667205Y-75427709D01*
X104735025Y-75410912D01*
X104801161Y-75433447D01*
X104840204Y-75478504D01*
X104844949Y-75487817D01*
X104969890Y-75659786D01*
X105120213Y-75810109D01*
X105292179Y-75935048D01*
X105292181Y-75935049D01*
X105292184Y-75935051D01*
X105481588Y-76031557D01*
X105683757Y-76097246D01*
X105893713Y-76130500D01*
X105893714Y-76130500D01*
X106106286Y-76130500D01*
X106106287Y-76130500D01*
X106316243Y-76097246D01*
X106518412Y-76031557D01*
X106707816Y-75935051D01*
X106749112Y-75905048D01*
X106879786Y-75810109D01*
X106879788Y-75810106D01*
X106879792Y-75810104D01*
X107030104Y-75659792D01*
X107030106Y-75659788D01*
X107030109Y-75659786D01*
X107155048Y-75487820D01*
X107155050Y-75487817D01*
X107155051Y-75487816D01*
X107251557Y-75298412D01*
X107317246Y-75096243D01*
X107350500Y-74886287D01*
X107350500Y-74673713D01*
X107326151Y-74519983D01*
X112820692Y-74519983D01*
X112820692Y-75720001D01*
X112820693Y-75720018D01*
X112831192Y-75822796D01*
X112831193Y-75822799D01*
X112858448Y-75905048D01*
X112886378Y-75989334D01*
X112978480Y-76138656D01*
X113102536Y-76262712D01*
X113251858Y-76354814D01*
X113418395Y-76409999D01*
X113521183Y-76420500D01*
X114721200Y-76420499D01*
X114823989Y-76409999D01*
X114990526Y-76354814D01*
X115139848Y-76262712D01*
X115263904Y-76138656D01*
X115356006Y-75989334D01*
X115383147Y-75907427D01*
X115422918Y-75849984D01*
X115487434Y-75823161D01*
X115556210Y-75835476D01*
X115601169Y-75873547D01*
X115645543Y-75934622D01*
X115669226Y-75967219D01*
X115813978Y-76111971D01*
X115968941Y-76224556D01*
X115979582Y-76232287D01*
X116095799Y-76291503D01*
X116161968Y-76325218D01*
X116161970Y-76325218D01*
X116161973Y-76325220D01*
X116253048Y-76354812D01*
X116356657Y-76388477D01*
X116457749Y-76404488D01*
X116558840Y-76420500D01*
X116558841Y-76420500D01*
X116763543Y-76420500D01*
X116763544Y-76420500D01*
X116965726Y-76388477D01*
X117160411Y-76325220D01*
X117342802Y-76232287D01*
X117471674Y-76138657D01*
X117508405Y-76111971D01*
X117508407Y-76111968D01*
X117508411Y-76111966D01*
X117653158Y-75967219D01*
X117653160Y-75967215D01*
X117653163Y-75967213D01*
X117721213Y-75873548D01*
X117773479Y-75801610D01*
X117866412Y-75619219D01*
X117929669Y-75424534D01*
X117961692Y-75222352D01*
X117961692Y-75017648D01*
X117929669Y-74815466D01*
X117918145Y-74780000D01*
X117896757Y-74714174D01*
X117866412Y-74620781D01*
X117866410Y-74620778D01*
X117866410Y-74620776D01*
X117842132Y-74573129D01*
X117815053Y-74519983D01*
X127199500Y-74519983D01*
X127199500Y-75720001D01*
X127199501Y-75720018D01*
X127210000Y-75822796D01*
X127210001Y-75822799D01*
X127237256Y-75905048D01*
X127265186Y-75989334D01*
X127357288Y-76138656D01*
X127481344Y-76262712D01*
X127630666Y-76354814D01*
X127797203Y-76409999D01*
X127899991Y-76420500D01*
X129100008Y-76420499D01*
X129202797Y-76409999D01*
X129369334Y-76354814D01*
X129518656Y-76262712D01*
X129642712Y-76138656D01*
X129734814Y-75989334D01*
X129761955Y-75907427D01*
X129801726Y-75849984D01*
X129866242Y-75823161D01*
X129935018Y-75835476D01*
X129979977Y-75873547D01*
X130024351Y-75934622D01*
X130048034Y-75967219D01*
X130192786Y-76111971D01*
X130347749Y-76224556D01*
X130358390Y-76232287D01*
X130474607Y-76291503D01*
X130540776Y-76325218D01*
X130540778Y-76325218D01*
X130540781Y-76325220D01*
X130631856Y-76354812D01*
X130735465Y-76388477D01*
X130836557Y-76404488D01*
X130937648Y-76420500D01*
X130937649Y-76420500D01*
X131142351Y-76420500D01*
X131142352Y-76420500D01*
X131344534Y-76388477D01*
X131539219Y-76325220D01*
X131721610Y-76232287D01*
X131850482Y-76138657D01*
X131887213Y-76111971D01*
X131887215Y-76111968D01*
X131887219Y-76111966D01*
X132031966Y-75967219D01*
X132031968Y-75967215D01*
X132031971Y-75967213D01*
X132100021Y-75873548D01*
X132152287Y-75801610D01*
X132245220Y-75619219D01*
X132308477Y-75424534D01*
X132340500Y-75222352D01*
X132340500Y-75017648D01*
X132308477Y-74815466D01*
X132296953Y-74780000D01*
X132275565Y-74714174D01*
X132245220Y-74620781D01*
X132245218Y-74620778D01*
X132245218Y-74620776D01*
X132193865Y-74519991D01*
X132152287Y-74438390D01*
X132087997Y-74349901D01*
X132031971Y-74272786D01*
X131887213Y-74128028D01*
X131721613Y-74007715D01*
X131721612Y-74007714D01*
X131721610Y-74007713D01*
X131661898Y-73977288D01*
X131539223Y-73914781D01*
X131344534Y-73851522D01*
X131169995Y-73823878D01*
X131142352Y-73819500D01*
X130937648Y-73819500D01*
X130913329Y-73823351D01*
X130735465Y-73851522D01*
X130540776Y-73914781D01*
X130358386Y-74007715D01*
X130192786Y-74128028D01*
X130048032Y-74272782D01*
X130048028Y-74272787D01*
X129979978Y-74366451D01*
X129924648Y-74409117D01*
X129855035Y-74415096D01*
X129793240Y-74382490D01*
X129761954Y-74332570D01*
X129734814Y-74250666D01*
X129642712Y-74101344D01*
X129518656Y-73977288D01*
X129369334Y-73885186D01*
X129202797Y-73830001D01*
X129202795Y-73830000D01*
X129100010Y-73819500D01*
X127899998Y-73819500D01*
X127899981Y-73819501D01*
X127797203Y-73830000D01*
X127797200Y-73830001D01*
X127630668Y-73885185D01*
X127630663Y-73885187D01*
X127481342Y-73977289D01*
X127357289Y-74101342D01*
X127265187Y-74250663D01*
X127265185Y-74250668D01*
X127254115Y-74284075D01*
X127210001Y-74417203D01*
X127210001Y-74417204D01*
X127210000Y-74417204D01*
X127199500Y-74519983D01*
X117815053Y-74519983D01*
X117791110Y-74472993D01*
X117773479Y-74438390D01*
X117773477Y-74438387D01*
X117773476Y-74438385D01*
X117653163Y-74272786D01*
X117508405Y-74128028D01*
X117342805Y-74007715D01*
X117342804Y-74007714D01*
X117342802Y-74007713D01*
X117283090Y-73977288D01*
X117160415Y-73914781D01*
X116965726Y-73851522D01*
X116791187Y-73823878D01*
X116763544Y-73819500D01*
X116558840Y-73819500D01*
X116534521Y-73823351D01*
X116356657Y-73851522D01*
X116161968Y-73914781D01*
X115979578Y-74007715D01*
X115813978Y-74128028D01*
X115669224Y-74272782D01*
X115669220Y-74272787D01*
X115601170Y-74366451D01*
X115545840Y-74409117D01*
X115476227Y-74415096D01*
X115414432Y-74382490D01*
X115383146Y-74332570D01*
X115356006Y-74250666D01*
X115263904Y-74101344D01*
X115139848Y-73977288D01*
X114990526Y-73885186D01*
X114823989Y-73830001D01*
X114823987Y-73830000D01*
X114721202Y-73819500D01*
X113521190Y-73819500D01*
X113521173Y-73819501D01*
X113418395Y-73830000D01*
X113418392Y-73830001D01*
X113251860Y-73885185D01*
X113251855Y-73885187D01*
X113102534Y-73977289D01*
X112978481Y-74101342D01*
X112886379Y-74250663D01*
X112886377Y-74250668D01*
X112875307Y-74284075D01*
X112831193Y-74417203D01*
X112831193Y-74417204D01*
X112831192Y-74417204D01*
X112820692Y-74519983D01*
X107326151Y-74519983D01*
X107317246Y-74463757D01*
X107251557Y-74261588D01*
X107155051Y-74072184D01*
X107155049Y-74072181D01*
X107155048Y-74072179D01*
X107030109Y-73900213D01*
X106879786Y-73749890D01*
X106707820Y-73624951D01*
X106699600Y-73620763D01*
X106699054Y-73620485D01*
X106648259Y-73572512D01*
X106631463Y-73504692D01*
X106653999Y-73438556D01*
X106699054Y-73399515D01*
X106707816Y-73395051D01*
X106749112Y-73365048D01*
X106879786Y-73270109D01*
X106879788Y-73270106D01*
X106879792Y-73270104D01*
X107030104Y-73119792D01*
X107030106Y-73119788D01*
X107030109Y-73119786D01*
X107155048Y-72947820D01*
X107155047Y-72947820D01*
X107155051Y-72947816D01*
X107251557Y-72758412D01*
X107317246Y-72556243D01*
X107350500Y-72346287D01*
X107350500Y-72133713D01*
X107317246Y-71923757D01*
X107251557Y-71721588D01*
X107155051Y-71532184D01*
X107155049Y-71532181D01*
X107155048Y-71532179D01*
X107030109Y-71360213D01*
X106879786Y-71209890D01*
X106707820Y-71084951D01*
X106707115Y-71084591D01*
X106699054Y-71080485D01*
X106648259Y-71032512D01*
X106631463Y-70964692D01*
X106653999Y-70898556D01*
X106699054Y-70859515D01*
X106707816Y-70855051D01*
X106803862Y-70785270D01*
X106879786Y-70730109D01*
X106879788Y-70730106D01*
X106879792Y-70730104D01*
X107030104Y-70579792D01*
X107030106Y-70579788D01*
X107030109Y-70579786D01*
X107155048Y-70407820D01*
X107155050Y-70407817D01*
X107155051Y-70407816D01*
X107251557Y-70218412D01*
X107317246Y-70016243D01*
X107350500Y-69806287D01*
X107350500Y-69593713D01*
X107317246Y-69383757D01*
X107251557Y-69181588D01*
X107155051Y-68992184D01*
X107155049Y-68992181D01*
X107155048Y-68992179D01*
X107030109Y-68820213D01*
X106879786Y-68669890D01*
X106707820Y-68544951D01*
X106699600Y-68540763D01*
X106699054Y-68540485D01*
X106648259Y-68492512D01*
X106631463Y-68424692D01*
X106653999Y-68358556D01*
X106699054Y-68319515D01*
X106707816Y-68315051D01*
X106749112Y-68285048D01*
X106879786Y-68190109D01*
X106879788Y-68190106D01*
X106879792Y-68190104D01*
X107030104Y-68039792D01*
X107030106Y-68039788D01*
X107030109Y-68039786D01*
X107155048Y-67867820D01*
X107155047Y-67867820D01*
X107155051Y-67867816D01*
X107251557Y-67678412D01*
X107317246Y-67476243D01*
X107329694Y-67397648D01*
X112820692Y-67397648D01*
X112820692Y-67602351D01*
X112852714Y-67804534D01*
X112915973Y-67999223D01*
X113008907Y-68181613D01*
X113129220Y-68347213D01*
X113273978Y-68491971D01*
X113401650Y-68584728D01*
X113439582Y-68612287D01*
X113552634Y-68669890D01*
X113621968Y-68705218D01*
X113621970Y-68705218D01*
X113621973Y-68705220D01*
X113726329Y-68739127D01*
X113816657Y-68768477D01*
X113917749Y-68784488D01*
X114018840Y-68800500D01*
X114018841Y-68800500D01*
X114223543Y-68800500D01*
X114223544Y-68800500D01*
X114425726Y-68768477D01*
X114620411Y-68705220D01*
X114802802Y-68612287D01*
X114901631Y-68540484D01*
X114968405Y-68491971D01*
X114968407Y-68491968D01*
X114968411Y-68491966D01*
X115113158Y-68347219D01*
X115113160Y-68347215D01*
X115113163Y-68347213D01*
X115233476Y-68181614D01*
X115233477Y-68181613D01*
X115233479Y-68181610D01*
X115280708Y-68088917D01*
X115328681Y-68038123D01*
X115396502Y-68021328D01*
X115462637Y-68043865D01*
X115501677Y-68088919D01*
X115548907Y-68181614D01*
X115669220Y-68347213D01*
X115813978Y-68491971D01*
X115941650Y-68584728D01*
X115979582Y-68612287D01*
X116092634Y-68669890D01*
X116161968Y-68705218D01*
X116161970Y-68705218D01*
X116161973Y-68705220D01*
X116266329Y-68739127D01*
X116356657Y-68768477D01*
X116457749Y-68784488D01*
X116558840Y-68800500D01*
X116558841Y-68800500D01*
X116763543Y-68800500D01*
X116763544Y-68800500D01*
X116965726Y-68768477D01*
X117160411Y-68705220D01*
X117342802Y-68612287D01*
X117441631Y-68540484D01*
X117508405Y-68491971D01*
X117508407Y-68491968D01*
X117508411Y-68491966D01*
X117653158Y-68347219D01*
X117653160Y-68347215D01*
X117653163Y-68347213D01*
X117705924Y-68274590D01*
X117773479Y-68181610D01*
X117866412Y-67999219D01*
X117929669Y-67804534D01*
X117961692Y-67602352D01*
X117961692Y-67397648D01*
X117929669Y-67195466D01*
X117866412Y-67000781D01*
X117866410Y-67000778D01*
X117866410Y-67000776D01*
X117820707Y-66911080D01*
X117773479Y-66818390D01*
X117765748Y-66807749D01*
X117653163Y-66652786D01*
X117508405Y-66508028D01*
X117342805Y-66387715D01*
X117342804Y-66387714D01*
X117342802Y-66387713D01*
X117285845Y-66358691D01*
X117160415Y-66294781D01*
X116965726Y-66231522D01*
X116791187Y-66203878D01*
X116763544Y-66199500D01*
X116558840Y-66199500D01*
X116534521Y-66203351D01*
X116356657Y-66231522D01*
X116161968Y-66294781D01*
X115979578Y-66387715D01*
X115813978Y-66508028D01*
X115669220Y-66652786D01*
X115548907Y-66818386D01*
X115501677Y-66911080D01*
X115453702Y-66961876D01*
X115385881Y-66978671D01*
X115319746Y-66956134D01*
X115280707Y-66911080D01*
X115280075Y-66909840D01*
X115233479Y-66818390D01*
X115225748Y-66807749D01*
X115113163Y-66652786D01*
X114968405Y-66508028D01*
X114802805Y-66387715D01*
X114802804Y-66387714D01*
X114802802Y-66387713D01*
X114745845Y-66358691D01*
X114620415Y-66294781D01*
X114425726Y-66231522D01*
X114251187Y-66203878D01*
X114223544Y-66199500D01*
X114018840Y-66199500D01*
X113994521Y-66203351D01*
X113816657Y-66231522D01*
X113621968Y-66294781D01*
X113439578Y-66387715D01*
X113273978Y-66508028D01*
X113129220Y-66652786D01*
X113008907Y-66818386D01*
X112915973Y-67000776D01*
X112852714Y-67195465D01*
X112820692Y-67397648D01*
X107329694Y-67397648D01*
X107350500Y-67266287D01*
X107350500Y-67053713D01*
X107317246Y-66843757D01*
X107251557Y-66641588D01*
X107155051Y-66452184D01*
X107155049Y-66452181D01*
X107155048Y-66452179D01*
X107030109Y-66280213D01*
X106879786Y-66129890D01*
X106707820Y-66004951D01*
X106707115Y-66004591D01*
X106699054Y-66000485D01*
X106648259Y-65952512D01*
X106631463Y-65884692D01*
X106653999Y-65818556D01*
X106699054Y-65779515D01*
X106707816Y-65775051D01*
X106803862Y-65705270D01*
X106879786Y-65650109D01*
X106879788Y-65650106D01*
X106879792Y-65650104D01*
X107030104Y-65499792D01*
X107030106Y-65499788D01*
X107030109Y-65499786D01*
X107155048Y-65327820D01*
X107155050Y-65327817D01*
X107155051Y-65327816D01*
X107251557Y-65138412D01*
X107317246Y-64936243D01*
X107350500Y-64726287D01*
X107350500Y-64671153D01*
X120669500Y-64671153D01*
X120669500Y-64828846D01*
X120700261Y-64983489D01*
X120700264Y-64983501D01*
X120760602Y-65129172D01*
X120760609Y-65129185D01*
X120795304Y-65181109D01*
X120816182Y-65247786D01*
X120797698Y-65315167D01*
X120795304Y-65318891D01*
X120760609Y-65370814D01*
X120760602Y-65370827D01*
X120700264Y-65516498D01*
X120700261Y-65516510D01*
X120669500Y-65671153D01*
X120669500Y-65828846D01*
X120700261Y-65983489D01*
X120700264Y-65983501D01*
X120760602Y-66129172D01*
X120760609Y-66129185D01*
X120795304Y-66181109D01*
X120816182Y-66247786D01*
X120797698Y-66315167D01*
X120795304Y-66318891D01*
X120760609Y-66370814D01*
X120760602Y-66370827D01*
X120700264Y-66516498D01*
X120700261Y-66516510D01*
X120669500Y-66671153D01*
X120669500Y-66828846D01*
X120700261Y-66983489D01*
X120700264Y-66983501D01*
X120760602Y-67129172D01*
X120760609Y-67129185D01*
X120848210Y-67260288D01*
X120848213Y-67260292D01*
X120959707Y-67371786D01*
X120959711Y-67371789D01*
X121090814Y-67459390D01*
X121090827Y-67459397D01*
X121236498Y-67519735D01*
X121236503Y-67519737D01*
X121391153Y-67550499D01*
X121391156Y-67550500D01*
X121391158Y-67550500D01*
X121548844Y-67550500D01*
X121548845Y-67550499D01*
X121703497Y-67519737D01*
X121849179Y-67459394D01*
X121901110Y-67424694D01*
X121967785Y-67403816D01*
X122035165Y-67422300D01*
X122038863Y-67424676D01*
X122090821Y-67459394D01*
X122090823Y-67459395D01*
X122090825Y-67459396D01*
X122131498Y-67476243D01*
X122236503Y-67519737D01*
X122391153Y-67550499D01*
X122391156Y-67550500D01*
X122391158Y-67550500D01*
X122548844Y-67550500D01*
X122548845Y-67550499D01*
X122703497Y-67519737D01*
X122849179Y-67459394D01*
X122901110Y-67424694D01*
X122967785Y-67403816D01*
X123035165Y-67422300D01*
X123038863Y-67424676D01*
X123090821Y-67459394D01*
X123090823Y-67459395D01*
X123090825Y-67459396D01*
X123131498Y-67476243D01*
X123236503Y-67519737D01*
X123391153Y-67550499D01*
X123391156Y-67550500D01*
X123391158Y-67550500D01*
X123548844Y-67550500D01*
X123548845Y-67550499D01*
X123703497Y-67519737D01*
X123849179Y-67459394D01*
X123941588Y-67397648D01*
X127199500Y-67397648D01*
X127199500Y-67602351D01*
X127231522Y-67804534D01*
X127294781Y-67999223D01*
X127387715Y-68181613D01*
X127508028Y-68347213D01*
X127652786Y-68491971D01*
X127780458Y-68584728D01*
X127818390Y-68612287D01*
X127931442Y-68669890D01*
X128000776Y-68705218D01*
X128000778Y-68705218D01*
X128000781Y-68705220D01*
X128105137Y-68739127D01*
X128195465Y-68768477D01*
X128296557Y-68784488D01*
X128397648Y-68800500D01*
X128397649Y-68800500D01*
X128602351Y-68800500D01*
X128602352Y-68800500D01*
X128804534Y-68768477D01*
X128999219Y-68705220D01*
X129181610Y-68612287D01*
X129280439Y-68540484D01*
X129347213Y-68491971D01*
X129347215Y-68491968D01*
X129347219Y-68491966D01*
X129491966Y-68347219D01*
X129491968Y-68347215D01*
X129491971Y-68347213D01*
X129612284Y-68181614D01*
X129612285Y-68181613D01*
X129612287Y-68181610D01*
X129659516Y-68088917D01*
X129707489Y-68038123D01*
X129775310Y-68021328D01*
X129841445Y-68043865D01*
X129880485Y-68088919D01*
X129927715Y-68181614D01*
X130048028Y-68347213D01*
X130192786Y-68491971D01*
X130320458Y-68584728D01*
X130358390Y-68612287D01*
X130471442Y-68669890D01*
X130540776Y-68705218D01*
X130540778Y-68705218D01*
X130540781Y-68705220D01*
X130645137Y-68739127D01*
X130735465Y-68768477D01*
X130836557Y-68784488D01*
X130937648Y-68800500D01*
X130937649Y-68800500D01*
X131142351Y-68800500D01*
X131142352Y-68800500D01*
X131344534Y-68768477D01*
X131539219Y-68705220D01*
X131721610Y-68612287D01*
X131820439Y-68540484D01*
X131887213Y-68491971D01*
X131887215Y-68491968D01*
X131887219Y-68491966D01*
X132031966Y-68347219D01*
X132031968Y-68347215D01*
X132031971Y-68347213D01*
X132084732Y-68274590D01*
X132152287Y-68181610D01*
X132245220Y-67999219D01*
X132308477Y-67804534D01*
X132340500Y-67602352D01*
X132340500Y-67397648D01*
X132308477Y-67195466D01*
X132245220Y-67000781D01*
X132245218Y-67000778D01*
X132245218Y-67000776D01*
X132199515Y-66911080D01*
X132152287Y-66818390D01*
X132144556Y-66807749D01*
X132031971Y-66652786D01*
X131887213Y-66508028D01*
X131721613Y-66387715D01*
X131721612Y-66387714D01*
X131721610Y-66387713D01*
X131664653Y-66358691D01*
X131539223Y-66294781D01*
X131344534Y-66231522D01*
X131169995Y-66203878D01*
X131142352Y-66199500D01*
X130937648Y-66199500D01*
X130913329Y-66203351D01*
X130735465Y-66231522D01*
X130540776Y-66294781D01*
X130358386Y-66387715D01*
X130192786Y-66508028D01*
X130048028Y-66652786D01*
X129927715Y-66818386D01*
X129880485Y-66911080D01*
X129832510Y-66961876D01*
X129764689Y-66978671D01*
X129698554Y-66956134D01*
X129659515Y-66911080D01*
X129658883Y-66909840D01*
X129612287Y-66818390D01*
X129604556Y-66807749D01*
X129491971Y-66652786D01*
X129347213Y-66508028D01*
X129181613Y-66387715D01*
X129181612Y-66387714D01*
X129181610Y-66387713D01*
X129124653Y-66358691D01*
X128999223Y-66294781D01*
X128804534Y-66231522D01*
X128629995Y-66203878D01*
X128602352Y-66199500D01*
X128397648Y-66199500D01*
X128373329Y-66203351D01*
X128195465Y-66231522D01*
X128000776Y-66294781D01*
X127818386Y-66387715D01*
X127652786Y-66508028D01*
X127508028Y-66652786D01*
X127387715Y-66818386D01*
X127294781Y-67000776D01*
X127231522Y-67195465D01*
X127199500Y-67397648D01*
X123941588Y-67397648D01*
X123980289Y-67371789D01*
X123980292Y-67371786D01*
X124046984Y-67305095D01*
X124091786Y-67260292D01*
X124091789Y-67260289D01*
X124179394Y-67129179D01*
X124239737Y-66983497D01*
X124270500Y-66828842D01*
X124270500Y-66671158D01*
X124270500Y-66671155D01*
X124270499Y-66671153D01*
X124264618Y-66641588D01*
X124239737Y-66516503D01*
X124225339Y-66481742D01*
X124179396Y-66370825D01*
X124179394Y-66370822D01*
X124179394Y-66370821D01*
X124144694Y-66318889D01*
X124123816Y-66252215D01*
X124142300Y-66184835D01*
X124144676Y-66181136D01*
X124179394Y-66129179D01*
X124239737Y-65983497D01*
X124270500Y-65828842D01*
X124270500Y-65671158D01*
X124270500Y-65671155D01*
X124270499Y-65671153D01*
X124239738Y-65516510D01*
X124239737Y-65516503D01*
X124220386Y-65469786D01*
X124179396Y-65370825D01*
X124179394Y-65370822D01*
X124179394Y-65370821D01*
X124144694Y-65318889D01*
X124123816Y-65252215D01*
X124142300Y-65184835D01*
X124144676Y-65181136D01*
X124179394Y-65129179D01*
X124239737Y-64983497D01*
X124270500Y-64828842D01*
X124270500Y-64671158D01*
X124270500Y-64671155D01*
X124270499Y-64671153D01*
X124260324Y-64619999D01*
X124239737Y-64516503D01*
X124190241Y-64397007D01*
X124179397Y-64370827D01*
X124179390Y-64370814D01*
X124091789Y-64239711D01*
X124091786Y-64239707D01*
X123980292Y-64128213D01*
X123980288Y-64128210D01*
X123849185Y-64040609D01*
X123849172Y-64040602D01*
X123703501Y-63980264D01*
X123703489Y-63980261D01*
X123548845Y-63949500D01*
X123548842Y-63949500D01*
X123391158Y-63949500D01*
X123391155Y-63949500D01*
X123236510Y-63980261D01*
X123236498Y-63980264D01*
X123090827Y-64040602D01*
X123090814Y-64040609D01*
X123038891Y-64075304D01*
X122972214Y-64096182D01*
X122904833Y-64077698D01*
X122901109Y-64075304D01*
X122849185Y-64040609D01*
X122849172Y-64040602D01*
X122703501Y-63980264D01*
X122703489Y-63980261D01*
X122548845Y-63949500D01*
X122548842Y-63949500D01*
X122391158Y-63949500D01*
X122391155Y-63949500D01*
X122236510Y-63980261D01*
X122236498Y-63980264D01*
X122090827Y-64040602D01*
X122090814Y-64040609D01*
X122038891Y-64075304D01*
X121972214Y-64096182D01*
X121904833Y-64077698D01*
X121901109Y-64075304D01*
X121849185Y-64040609D01*
X121849172Y-64040602D01*
X121703501Y-63980264D01*
X121703489Y-63980261D01*
X121548845Y-63949500D01*
X121548842Y-63949500D01*
X121391158Y-63949500D01*
X121391155Y-63949500D01*
X121236510Y-63980261D01*
X121236498Y-63980264D01*
X121090827Y-64040602D01*
X121090814Y-64040609D01*
X120959711Y-64128210D01*
X120959707Y-64128213D01*
X120848213Y-64239707D01*
X120848210Y-64239711D01*
X120760609Y-64370814D01*
X120760602Y-64370827D01*
X120700264Y-64516498D01*
X120700261Y-64516510D01*
X120669500Y-64671153D01*
X107350500Y-64671153D01*
X107350500Y-64513713D01*
X107317246Y-64303757D01*
X107251557Y-64101588D01*
X107155051Y-63912184D01*
X107155049Y-63912181D01*
X107155048Y-63912179D01*
X107030109Y-63740213D01*
X106879786Y-63589890D01*
X106707820Y-63464951D01*
X106699600Y-63460763D01*
X106699054Y-63460485D01*
X106648259Y-63412512D01*
X106631463Y-63344692D01*
X106653999Y-63278556D01*
X106699054Y-63239515D01*
X106707816Y-63235051D01*
X106749112Y-63205048D01*
X106879786Y-63110109D01*
X106879788Y-63110106D01*
X106879792Y-63110104D01*
X107030104Y-62959792D01*
X107030106Y-62959788D01*
X107030109Y-62959786D01*
X107155048Y-62787820D01*
X107155047Y-62787820D01*
X107155051Y-62787816D01*
X107251557Y-62598412D01*
X107317246Y-62396243D01*
X107350500Y-62186287D01*
X107350500Y-61973713D01*
X107317246Y-61763757D01*
X107251557Y-61561588D01*
X107155051Y-61372184D01*
X107155049Y-61372181D01*
X107155048Y-61372179D01*
X107030109Y-61200213D01*
X106879786Y-61049890D01*
X106707820Y-60924951D01*
X106707115Y-60924591D01*
X106699054Y-60920485D01*
X106648259Y-60872512D01*
X106631463Y-60804692D01*
X106653999Y-60738556D01*
X106699054Y-60699515D01*
X106707816Y-60695051D01*
X106803862Y-60625270D01*
X106879786Y-60570109D01*
X106879788Y-60570106D01*
X106879792Y-60570104D01*
X107030104Y-60419792D01*
X107030106Y-60419788D01*
X107030109Y-60419786D01*
X107155048Y-60247820D01*
X107155050Y-60247817D01*
X107155051Y-60247816D01*
X107251557Y-60058412D01*
X107317246Y-59856243D01*
X107350500Y-59646287D01*
X107350500Y-59433713D01*
X107317246Y-59223757D01*
X107251557Y-59021588D01*
X107155051Y-58832184D01*
X107155049Y-58832181D01*
X107155048Y-58832179D01*
X107030109Y-58660213D01*
X106916569Y-58546673D01*
X106883084Y-58485350D01*
X106888068Y-58415658D01*
X106929940Y-58359725D01*
X106960915Y-58342810D01*
X107092331Y-58293796D01*
X107207546Y-58207546D01*
X107293796Y-58092331D01*
X107344091Y-57957483D01*
X107350500Y-57897873D01*
X107350499Y-56102128D01*
X107344091Y-56042517D01*
X107343174Y-56040059D01*
X107302936Y-55932174D01*
X107302935Y-55932172D01*
X107293798Y-55907673D01*
X107293793Y-55907664D01*
X107283349Y-55893713D01*
X110849500Y-55893713D01*
X110849500Y-56106286D01*
X110878942Y-56292179D01*
X110882754Y-56316243D01*
X110926730Y-56451588D01*
X110948444Y-56518414D01*
X111044951Y-56707820D01*
X111169890Y-56879786D01*
X111320213Y-57030109D01*
X111492182Y-57155050D01*
X111500946Y-57159516D01*
X111551742Y-57207491D01*
X111568536Y-57275312D01*
X111545998Y-57341447D01*
X111500946Y-57380484D01*
X111492182Y-57384949D01*
X111320213Y-57509890D01*
X111169890Y-57660213D01*
X111044951Y-57832179D01*
X110948444Y-58021585D01*
X110882753Y-58223760D01*
X110849500Y-58433713D01*
X110849500Y-58646286D01*
X110880418Y-58841499D01*
X110882754Y-58856243D01*
X110936338Y-59021158D01*
X110948444Y-59058414D01*
X111044951Y-59247820D01*
X111169890Y-59419786D01*
X111283430Y-59533326D01*
X111316915Y-59594649D01*
X111311931Y-59664341D01*
X111270059Y-59720274D01*
X111239083Y-59737189D01*
X111107669Y-59786203D01*
X111107664Y-59786206D01*
X110992455Y-59872452D01*
X110992452Y-59872455D01*
X110906206Y-59987664D01*
X110906202Y-59987671D01*
X110855908Y-60122517D01*
X110849501Y-60182116D01*
X110849501Y-60182123D01*
X110849500Y-60182135D01*
X110849501Y-61977868D01*
X110849501Y-61977870D01*
X110855908Y-62037483D01*
X110906202Y-62172328D01*
X110906206Y-62172335D01*
X110992452Y-62287544D01*
X110992455Y-62287547D01*
X111107664Y-62373793D01*
X111107671Y-62373797D01*
X111242517Y-62424091D01*
X111242516Y-62424091D01*
X111249444Y-62424835D01*
X111302127Y-62430500D01*
X113097872Y-62430499D01*
X113157483Y-62424091D01*
X113292331Y-62373796D01*
X113407546Y-62287546D01*
X113493796Y-62172331D01*
X113544091Y-62037483D01*
X113550500Y-61977873D01*
X113550499Y-60182128D01*
X113544091Y-60122517D01*
X113527801Y-60078842D01*
X113493797Y-59987671D01*
X113493793Y-59987664D01*
X113407547Y-59872455D01*
X113407544Y-59872452D01*
X113292335Y-59786206D01*
X113292328Y-59786202D01*
X113160917Y-59737189D01*
X113104983Y-59695318D01*
X113080566Y-59629853D01*
X113095418Y-59561580D01*
X113116563Y-59533332D01*
X113230104Y-59419792D01*
X113355051Y-59247816D01*
X113451557Y-59058412D01*
X113463663Y-59021153D01*
X115669500Y-59021153D01*
X115669500Y-59178846D01*
X115700261Y-59333489D01*
X115700264Y-59333501D01*
X115760604Y-59479177D01*
X115760605Y-59479179D01*
X115761899Y-59481115D01*
X115762264Y-59482282D01*
X115763476Y-59484549D01*
X115763045Y-59484778D01*
X115782773Y-59547794D01*
X115764285Y-59615173D01*
X115761899Y-59618885D01*
X115760605Y-59620820D01*
X115760604Y-59620822D01*
X115700264Y-59766498D01*
X115700261Y-59766510D01*
X115669500Y-59921153D01*
X115669500Y-60078846D01*
X115700261Y-60233489D01*
X115700264Y-60233501D01*
X115760602Y-60379171D01*
X115760603Y-60379172D01*
X115760606Y-60379179D01*
X115760609Y-60379184D01*
X115760610Y-60379185D01*
X115778601Y-60406112D01*
X115799477Y-60472790D01*
X115780991Y-60540169D01*
X115778601Y-60543888D01*
X115760610Y-60570814D01*
X115760602Y-60570828D01*
X115700264Y-60716498D01*
X115700261Y-60716510D01*
X115669500Y-60871153D01*
X115669500Y-61028846D01*
X115700261Y-61183489D01*
X115700264Y-61183501D01*
X115760602Y-61329172D01*
X115760609Y-61329185D01*
X115848210Y-61460288D01*
X115848213Y-61460292D01*
X115959707Y-61571786D01*
X115959711Y-61571789D01*
X116090814Y-61659390D01*
X116090827Y-61659397D01*
X116236498Y-61719735D01*
X116236503Y-61719737D01*
X116391153Y-61750499D01*
X116391156Y-61750500D01*
X116391158Y-61750500D01*
X116548844Y-61750500D01*
X116548845Y-61750499D01*
X116703497Y-61719737D01*
X116849179Y-61659394D01*
X116980289Y-61571789D01*
X117030750Y-61521328D01*
X117092073Y-61487842D01*
X117161764Y-61492826D01*
X117217698Y-61534697D01*
X117242116Y-61600161D01*
X117240050Y-61633197D01*
X117232500Y-61671156D01*
X117232500Y-61828846D01*
X117263261Y-61983489D01*
X117263264Y-61983501D01*
X117302219Y-62077548D01*
X117309688Y-62147018D01*
X117302219Y-62172452D01*
X117263264Y-62266498D01*
X117263261Y-62266510D01*
X117232500Y-62421153D01*
X117232500Y-62578846D01*
X117263261Y-62733489D01*
X117263264Y-62733501D01*
X117323602Y-62879172D01*
X117323609Y-62879185D01*
X117411210Y-63010288D01*
X117411213Y-63010292D01*
X117522707Y-63121786D01*
X117522711Y-63121789D01*
X117653814Y-63209390D01*
X117653827Y-63209397D01*
X117727211Y-63239793D01*
X117799503Y-63269737D01*
X117954153Y-63300499D01*
X117954156Y-63300500D01*
X117954158Y-63300500D01*
X118111844Y-63300500D01*
X118111845Y-63300499D01*
X118266497Y-63269737D01*
X118411218Y-63209792D01*
X118412172Y-63209397D01*
X118412172Y-63209396D01*
X118412179Y-63209394D01*
X118543289Y-63121789D01*
X118654789Y-63010289D01*
X118742394Y-62879179D01*
X118802737Y-62733497D01*
X118833500Y-62578842D01*
X118833500Y-62421158D01*
X118833500Y-62421155D01*
X118833499Y-62421153D01*
X118806923Y-62287547D01*
X118802737Y-62266503D01*
X118763778Y-62172449D01*
X118756310Y-62102984D01*
X118763775Y-62077556D01*
X118802737Y-61983497D01*
X118833500Y-61828842D01*
X118833500Y-61671158D01*
X118833500Y-61671156D01*
X118833500Y-61671155D01*
X118833499Y-61671153D01*
X118825949Y-61633197D01*
X118802737Y-61516503D01*
X118779452Y-61460288D01*
X118742397Y-61370827D01*
X118742390Y-61370814D01*
X118654789Y-61239711D01*
X118654786Y-61239707D01*
X118543292Y-61128213D01*
X118543288Y-61128210D01*
X118412185Y-61040609D01*
X118412172Y-61040602D01*
X118266501Y-60980264D01*
X118266489Y-60980261D01*
X118111845Y-60949500D01*
X118111842Y-60949500D01*
X117954158Y-60949500D01*
X117954155Y-60949500D01*
X117799510Y-60980261D01*
X117799498Y-60980264D01*
X117653827Y-61040602D01*
X117653814Y-61040609D01*
X117522711Y-61128210D01*
X117522706Y-61128214D01*
X117472247Y-61178673D01*
X117410924Y-61212157D01*
X117341232Y-61207172D01*
X117285299Y-61165301D01*
X117260883Y-61099836D01*
X117262950Y-61066799D01*
X117270500Y-61028844D01*
X117270500Y-60871155D01*
X117270499Y-60871153D01*
X117252367Y-60780000D01*
X117239737Y-60716503D01*
X117236445Y-60708556D01*
X117179397Y-60570827D01*
X117179389Y-60570812D01*
X117161401Y-60543892D01*
X117140522Y-60477215D01*
X117159006Y-60409835D01*
X117161401Y-60406108D01*
X117179389Y-60379187D01*
X117179390Y-60379184D01*
X117179394Y-60379179D01*
X117239737Y-60233497D01*
X117270500Y-60078842D01*
X117270500Y-59921158D01*
X117270500Y-59921155D01*
X117270499Y-59921153D01*
X117259042Y-59863554D01*
X117239737Y-59766503D01*
X117225857Y-59732993D01*
X117179397Y-59620827D01*
X117179394Y-59620822D01*
X117179394Y-59620821D01*
X117178103Y-59618889D01*
X117177737Y-59617723D01*
X117176525Y-59615454D01*
X117176955Y-59615223D01*
X117157226Y-59552214D01*
X117175710Y-59484834D01*
X117178100Y-59481115D01*
X117179394Y-59479179D01*
X117239737Y-59333497D01*
X117270500Y-59178842D01*
X117270500Y-59021158D01*
X117270500Y-59021155D01*
X117270499Y-59021153D01*
X117239737Y-58866503D01*
X117237995Y-58862297D01*
X117179397Y-58720827D01*
X117179390Y-58720814D01*
X117091789Y-58589711D01*
X117091786Y-58589707D01*
X116980292Y-58478213D01*
X116980288Y-58478210D01*
X116849185Y-58390609D01*
X116849172Y-58390602D01*
X116703501Y-58330264D01*
X116703489Y-58330261D01*
X116548845Y-58299500D01*
X116548842Y-58299500D01*
X116391158Y-58299500D01*
X116391155Y-58299500D01*
X116236510Y-58330261D01*
X116236498Y-58330264D01*
X116090827Y-58390602D01*
X116090814Y-58390609D01*
X115959711Y-58478210D01*
X115959707Y-58478213D01*
X115848213Y-58589707D01*
X115848210Y-58589711D01*
X115760609Y-58720814D01*
X115760602Y-58720827D01*
X115700264Y-58866498D01*
X115700261Y-58866510D01*
X115669500Y-59021153D01*
X113463663Y-59021153D01*
X113517246Y-58856243D01*
X113550500Y-58646287D01*
X113550500Y-58433713D01*
X113517246Y-58223757D01*
X113451557Y-58021588D01*
X113355051Y-57832184D01*
X113355049Y-57832181D01*
X113355048Y-57832179D01*
X113230109Y-57660213D01*
X113079786Y-57509890D01*
X112907820Y-57384951D01*
X112907115Y-57384591D01*
X112899054Y-57380485D01*
X112848259Y-57332512D01*
X112831463Y-57264692D01*
X112853999Y-57198556D01*
X112899054Y-57159515D01*
X112907816Y-57155051D01*
X112929789Y-57139086D01*
X113079786Y-57030109D01*
X113079788Y-57030106D01*
X113079792Y-57030104D01*
X113230104Y-56879792D01*
X113230106Y-56879788D01*
X113230109Y-56879786D01*
X113355048Y-56707820D01*
X113355047Y-56707820D01*
X113355051Y-56707816D01*
X113451557Y-56518412D01*
X113517246Y-56316243D01*
X113550500Y-56106287D01*
X113550500Y-56072135D01*
X135609500Y-56072135D01*
X135609500Y-57867870D01*
X135609501Y-57867876D01*
X135615908Y-57927483D01*
X135666202Y-58062328D01*
X135666206Y-58062335D01*
X135752452Y-58177544D01*
X135752455Y-58177547D01*
X135867664Y-58263793D01*
X135867671Y-58263797D01*
X135999082Y-58312810D01*
X136055016Y-58354681D01*
X136079433Y-58420145D01*
X136064582Y-58488418D01*
X136043431Y-58516673D01*
X135929889Y-58630215D01*
X135804951Y-58802179D01*
X135708444Y-58991585D01*
X135642753Y-59193760D01*
X135618481Y-59347007D01*
X135609500Y-59403713D01*
X135609500Y-59616287D01*
X135609913Y-59618892D01*
X135642735Y-59826127D01*
X135642754Y-59826243D01*
X135701136Y-60005925D01*
X135708444Y-60028414D01*
X135804951Y-60217820D01*
X135929890Y-60389786D01*
X136080213Y-60540109D01*
X136252182Y-60665050D01*
X136260946Y-60669516D01*
X136311742Y-60717491D01*
X136328536Y-60785312D01*
X136305998Y-60851447D01*
X136260946Y-60890484D01*
X136252182Y-60894949D01*
X136080213Y-61019890D01*
X135929890Y-61170213D01*
X135804951Y-61342179D01*
X135708444Y-61531585D01*
X135642753Y-61733760D01*
X135609500Y-61943713D01*
X135609500Y-62156286D01*
X135630289Y-62287546D01*
X135642754Y-62366243D01*
X135699747Y-62541650D01*
X135708444Y-62568414D01*
X135804951Y-62757820D01*
X135929890Y-62929786D01*
X136080213Y-63080109D01*
X136252182Y-63205050D01*
X136260946Y-63209516D01*
X136311742Y-63257491D01*
X136328536Y-63325312D01*
X136305998Y-63391447D01*
X136260946Y-63430484D01*
X136252182Y-63434949D01*
X136080213Y-63559890D01*
X135929890Y-63710213D01*
X135804951Y-63882179D01*
X135708444Y-64071585D01*
X135642753Y-64273760D01*
X135609500Y-64483713D01*
X135609500Y-64696286D01*
X135642735Y-64906127D01*
X135642754Y-64906243D01*
X135701136Y-65085925D01*
X135708444Y-65108414D01*
X135804951Y-65297820D01*
X135929890Y-65469786D01*
X136080213Y-65620109D01*
X136252182Y-65745050D01*
X136260946Y-65749516D01*
X136311742Y-65797491D01*
X136328536Y-65865312D01*
X136305998Y-65931447D01*
X136260946Y-65970484D01*
X136252182Y-65974949D01*
X136080213Y-66099890D01*
X135929890Y-66250213D01*
X135804951Y-66422179D01*
X135708444Y-66611585D01*
X135642753Y-66813760D01*
X135619294Y-66961876D01*
X135609500Y-67023713D01*
X135609500Y-67236287D01*
X135613302Y-67260289D01*
X135638961Y-67422300D01*
X135642754Y-67446243D01*
X135699747Y-67621650D01*
X135708444Y-67648414D01*
X135804951Y-67837820D01*
X135929890Y-68009786D01*
X136080213Y-68160109D01*
X136252182Y-68285050D01*
X136260946Y-68289516D01*
X136311742Y-68337491D01*
X136328536Y-68405312D01*
X136305998Y-68471447D01*
X136260946Y-68510484D01*
X136252182Y-68514949D01*
X136080213Y-68639890D01*
X135929890Y-68790213D01*
X135804951Y-68962179D01*
X135708444Y-69151585D01*
X135642753Y-69353760D01*
X135609500Y-69563713D01*
X135609500Y-69776286D01*
X135642735Y-69986127D01*
X135642754Y-69986243D01*
X135701136Y-70165925D01*
X135708444Y-70188414D01*
X135804951Y-70377820D01*
X135929890Y-70549786D01*
X136080213Y-70700109D01*
X136252182Y-70825050D01*
X136260946Y-70829516D01*
X136311742Y-70877491D01*
X136328536Y-70945312D01*
X136305998Y-71011447D01*
X136260946Y-71050484D01*
X136252182Y-71054949D01*
X136080213Y-71179890D01*
X135929890Y-71330213D01*
X135804951Y-71502179D01*
X135708444Y-71691585D01*
X135642753Y-71893760D01*
X135638002Y-71923757D01*
X135609500Y-72103713D01*
X135609500Y-72316287D01*
X135642754Y-72526243D01*
X135699747Y-72701650D01*
X135708444Y-72728414D01*
X135804951Y-72917820D01*
X135929890Y-73089786D01*
X136080213Y-73240109D01*
X136252182Y-73365050D01*
X136260946Y-73369516D01*
X136311742Y-73417491D01*
X136328536Y-73485312D01*
X136305998Y-73551447D01*
X136260946Y-73590484D01*
X136252182Y-73594949D01*
X136080213Y-73719890D01*
X135929890Y-73870213D01*
X135804951Y-74042179D01*
X135708444Y-74231585D01*
X135642753Y-74433760D01*
X135609500Y-74643713D01*
X135609500Y-74856286D01*
X135642735Y-75066127D01*
X135642754Y-75066243D01*
X135701136Y-75245925D01*
X135708444Y-75268414D01*
X135804951Y-75457820D01*
X135929890Y-75629786D01*
X136080213Y-75780109D01*
X136252179Y-75905048D01*
X136252181Y-75905049D01*
X136252184Y-75905051D01*
X136441588Y-76001557D01*
X136643757Y-76067246D01*
X136853713Y-76100500D01*
X136853714Y-76100500D01*
X137066286Y-76100500D01*
X137066287Y-76100500D01*
X137276243Y-76067246D01*
X137478412Y-76001557D01*
X137667816Y-75905051D01*
X137689789Y-75889086D01*
X137839786Y-75780109D01*
X137839788Y-75780106D01*
X137839792Y-75780104D01*
X137990104Y-75629792D01*
X137990106Y-75629788D01*
X137990109Y-75629786D01*
X138075890Y-75511717D01*
X138115051Y-75457816D01*
X138119793Y-75448508D01*
X138167763Y-75397711D01*
X138235583Y-75380911D01*
X138301719Y-75403445D01*
X138340763Y-75448500D01*
X138345373Y-75457547D01*
X138384728Y-75511716D01*
X139017036Y-74879407D01*
X139034075Y-74942993D01*
X139099901Y-75057007D01*
X139192993Y-75150099D01*
X139307007Y-75215925D01*
X139370590Y-75232962D01*
X138738282Y-75865269D01*
X138738282Y-75865270D01*
X138792449Y-75904624D01*
X138981782Y-76001095D01*
X139183870Y-76066757D01*
X139393754Y-76100000D01*
X139606246Y-76100000D01*
X139816127Y-76066757D01*
X139816130Y-76066757D01*
X140018217Y-76001095D01*
X140207554Y-75904622D01*
X140261716Y-75865270D01*
X140261717Y-75865270D01*
X139629408Y-75232962D01*
X139692993Y-75215925D01*
X139807007Y-75150099D01*
X139900099Y-75057007D01*
X139965925Y-74942993D01*
X139982962Y-74879408D01*
X140615270Y-75511717D01*
X140615270Y-75511716D01*
X140654622Y-75457554D01*
X140751095Y-75268217D01*
X140816757Y-75066130D01*
X140816757Y-75066127D01*
X140850000Y-74856246D01*
X140850000Y-74643753D01*
X140816757Y-74433872D01*
X140816757Y-74433869D01*
X140751095Y-74231782D01*
X140654624Y-74042449D01*
X140615270Y-73988282D01*
X140615269Y-73988282D01*
X139982962Y-74620590D01*
X139965925Y-74557007D01*
X139900099Y-74442993D01*
X139807007Y-74349901D01*
X139692993Y-74284075D01*
X139629409Y-74267037D01*
X140261716Y-73634728D01*
X140207547Y-73595373D01*
X140207547Y-73595372D01*
X140198500Y-73590763D01*
X140147706Y-73542788D01*
X140130912Y-73474966D01*
X140153451Y-73408832D01*
X140198508Y-73369793D01*
X140207816Y-73365051D01*
X140287007Y-73307515D01*
X140379786Y-73240109D01*
X140379788Y-73240106D01*
X140379792Y-73240104D01*
X140530104Y-73089792D01*
X140530106Y-73089788D01*
X140530109Y-73089786D01*
X140655048Y-72917820D01*
X140655047Y-72917820D01*
X140655051Y-72917816D01*
X140751557Y-72728412D01*
X140817246Y-72526243D01*
X140850500Y-72316287D01*
X140850500Y-72103713D01*
X140817246Y-71893757D01*
X140751557Y-71691588D01*
X140655051Y-71502184D01*
X140655049Y-71502181D01*
X140655048Y-71502179D01*
X140530109Y-71330213D01*
X140379786Y-71179890D01*
X140207817Y-71054949D01*
X140198504Y-71050204D01*
X140147707Y-71002230D01*
X140130912Y-70934409D01*
X140153449Y-70868274D01*
X140198507Y-70829232D01*
X140207555Y-70824622D01*
X140261716Y-70785270D01*
X140261717Y-70785270D01*
X139629408Y-70152962D01*
X139692993Y-70135925D01*
X139807007Y-70070099D01*
X139900099Y-69977007D01*
X139965925Y-69862993D01*
X139982962Y-69799408D01*
X140615270Y-70431717D01*
X140615270Y-70431716D01*
X140654622Y-70377554D01*
X140751095Y-70188217D01*
X140816757Y-69986130D01*
X140816757Y-69986127D01*
X140850000Y-69776246D01*
X140850000Y-69563753D01*
X140816757Y-69353872D01*
X140816757Y-69353869D01*
X140751095Y-69151782D01*
X140654624Y-68962449D01*
X140615270Y-68908282D01*
X140615269Y-68908282D01*
X139982962Y-69540590D01*
X139965925Y-69477007D01*
X139900099Y-69362993D01*
X139807007Y-69269901D01*
X139692993Y-69204075D01*
X139629409Y-69187037D01*
X140261716Y-68554728D01*
X140207547Y-68515373D01*
X140207547Y-68515372D01*
X140198500Y-68510763D01*
X140147706Y-68462788D01*
X140130912Y-68394966D01*
X140153451Y-68328832D01*
X140198508Y-68289793D01*
X140207816Y-68285051D01*
X140287007Y-68227515D01*
X140379786Y-68160109D01*
X140379788Y-68160106D01*
X140379792Y-68160104D01*
X140530104Y-68009792D01*
X140530106Y-68009788D01*
X140530109Y-68009786D01*
X140655048Y-67837820D01*
X140655047Y-67837820D01*
X140655051Y-67837816D01*
X140751557Y-67648412D01*
X140817246Y-67446243D01*
X140850500Y-67236287D01*
X140850500Y-67023713D01*
X140817246Y-66813757D01*
X140751557Y-66611588D01*
X140655051Y-66422184D01*
X140655049Y-66422181D01*
X140655048Y-66422179D01*
X140530109Y-66250213D01*
X140379786Y-66099890D01*
X140207817Y-65974949D01*
X140198504Y-65970204D01*
X140147707Y-65922230D01*
X140130912Y-65854409D01*
X140153449Y-65788274D01*
X140198507Y-65749232D01*
X140207555Y-65744622D01*
X140261716Y-65705270D01*
X140261717Y-65705270D01*
X139629408Y-65072962D01*
X139692993Y-65055925D01*
X139807007Y-64990099D01*
X139900099Y-64897007D01*
X139965925Y-64782993D01*
X139982962Y-64719408D01*
X140615270Y-65351717D01*
X140615270Y-65351716D01*
X140654622Y-65297554D01*
X140751095Y-65108217D01*
X140816757Y-64906130D01*
X140816757Y-64906127D01*
X140850000Y-64696246D01*
X140850000Y-64483753D01*
X140816757Y-64273872D01*
X140816757Y-64273869D01*
X140751095Y-64071782D01*
X140654624Y-63882449D01*
X140615270Y-63828282D01*
X140615269Y-63828282D01*
X139982962Y-64460590D01*
X139965925Y-64397007D01*
X139900099Y-64282993D01*
X139807007Y-64189901D01*
X139692993Y-64124075D01*
X139629409Y-64107037D01*
X140261716Y-63474728D01*
X140207547Y-63435373D01*
X140207547Y-63435372D01*
X140198500Y-63430763D01*
X140147706Y-63382788D01*
X140130912Y-63314966D01*
X140153451Y-63248832D01*
X140198508Y-63209793D01*
X140207816Y-63205051D01*
X140322417Y-63121789D01*
X140379786Y-63080109D01*
X140379788Y-63080106D01*
X140379792Y-63080104D01*
X140530104Y-62929792D01*
X140530106Y-62929788D01*
X140530109Y-62929786D01*
X140655048Y-62757820D01*
X140655047Y-62757820D01*
X140655051Y-62757816D01*
X140751557Y-62568412D01*
X140817246Y-62366243D01*
X140850500Y-62156287D01*
X140850500Y-61943713D01*
X140817246Y-61733757D01*
X140751557Y-61531588D01*
X140655051Y-61342184D01*
X140655049Y-61342181D01*
X140655048Y-61342179D01*
X140530109Y-61170213D01*
X140379786Y-61019890D01*
X140207817Y-60894949D01*
X140198504Y-60890204D01*
X140147707Y-60842230D01*
X140130912Y-60774409D01*
X140153449Y-60708274D01*
X140198507Y-60669232D01*
X140207555Y-60664622D01*
X140261716Y-60625270D01*
X140261717Y-60625270D01*
X139629408Y-59992962D01*
X139692993Y-59975925D01*
X139807007Y-59910099D01*
X139900099Y-59817007D01*
X139965925Y-59702993D01*
X139982962Y-59639408D01*
X140615270Y-60271717D01*
X140615270Y-60271716D01*
X140654622Y-60217554D01*
X140751095Y-60028217D01*
X140816757Y-59826130D01*
X140816757Y-59826127D01*
X140850000Y-59616246D01*
X140850000Y-59403753D01*
X140816757Y-59193872D01*
X140816757Y-59193869D01*
X140751095Y-58991782D01*
X140654624Y-58802449D01*
X140615270Y-58748282D01*
X140615269Y-58748282D01*
X139982962Y-59380590D01*
X139965925Y-59317007D01*
X139900099Y-59202993D01*
X139807007Y-59109901D01*
X139692993Y-59044075D01*
X139629409Y-59027037D01*
X140261716Y-58394728D01*
X140207547Y-58355373D01*
X140207547Y-58355372D01*
X140198500Y-58350763D01*
X140147706Y-58302788D01*
X140130912Y-58234966D01*
X140153451Y-58168832D01*
X140198508Y-58129793D01*
X140207816Y-58125051D01*
X140338492Y-58030110D01*
X140379786Y-58000109D01*
X140379788Y-58000106D01*
X140379792Y-58000104D01*
X140530104Y-57849792D01*
X140530106Y-57849788D01*
X140530109Y-57849786D01*
X140655048Y-57677820D01*
X140655047Y-57677820D01*
X140655051Y-57677816D01*
X140751557Y-57488412D01*
X140817246Y-57286243D01*
X140850500Y-57076287D01*
X140850500Y-56863713D01*
X140817246Y-56653757D01*
X140751557Y-56451588D01*
X140655051Y-56262184D01*
X140655049Y-56262181D01*
X140655048Y-56262179D01*
X140530109Y-56090213D01*
X140379786Y-55939890D01*
X140207820Y-55814951D01*
X140018414Y-55718444D01*
X140018413Y-55718443D01*
X140018412Y-55718443D01*
X139816243Y-55652754D01*
X139816241Y-55652753D01*
X139816240Y-55652753D01*
X139654957Y-55627208D01*
X139606287Y-55619500D01*
X139393713Y-55619500D01*
X139345042Y-55627208D01*
X139183760Y-55652753D01*
X138981585Y-55718444D01*
X138792179Y-55814951D01*
X138620215Y-55939889D01*
X138506673Y-56053431D01*
X138445350Y-56086915D01*
X138375658Y-56081931D01*
X138319725Y-56040059D01*
X138302810Y-56009082D01*
X138253797Y-55877671D01*
X138253793Y-55877664D01*
X138167547Y-55762455D01*
X138167544Y-55762452D01*
X138052335Y-55676206D01*
X138052328Y-55676202D01*
X137917482Y-55625908D01*
X137917483Y-55625908D01*
X137857883Y-55619501D01*
X137857881Y-55619500D01*
X137857873Y-55619500D01*
X137857864Y-55619500D01*
X136062129Y-55619500D01*
X136062123Y-55619501D01*
X136002516Y-55625908D01*
X135867671Y-55676202D01*
X135867664Y-55676206D01*
X135752455Y-55762452D01*
X135752452Y-55762455D01*
X135666206Y-55877664D01*
X135666202Y-55877671D01*
X135615908Y-56012517D01*
X135609501Y-56072116D01*
X135609500Y-56072135D01*
X113550500Y-56072135D01*
X113550500Y-55893713D01*
X113517246Y-55683757D01*
X113451557Y-55481588D01*
X113355051Y-55292184D01*
X113355049Y-55292181D01*
X113355048Y-55292179D01*
X113230109Y-55120213D01*
X113079786Y-54969890D01*
X112907820Y-54844951D01*
X112718414Y-54748444D01*
X112718413Y-54748443D01*
X112718412Y-54748443D01*
X112516243Y-54682754D01*
X112516241Y-54682753D01*
X112516240Y-54682753D01*
X112354957Y-54657208D01*
X112306287Y-54649500D01*
X112093713Y-54649500D01*
X112045042Y-54657208D01*
X111883760Y-54682753D01*
X111681585Y-54748444D01*
X111492179Y-54844951D01*
X111320213Y-54969890D01*
X111169890Y-55120213D01*
X111044951Y-55292179D01*
X110948444Y-55481585D01*
X110882753Y-55683760D01*
X110849500Y-55893713D01*
X107283349Y-55893713D01*
X107207547Y-55792455D01*
X107207544Y-55792452D01*
X107092335Y-55706206D01*
X107092328Y-55706202D01*
X106957482Y-55655908D01*
X106957483Y-55655908D01*
X106897883Y-55649501D01*
X106897881Y-55649500D01*
X106897873Y-55649500D01*
X106897864Y-55649500D01*
X105102129Y-55649500D01*
X105102123Y-55649501D01*
X105042516Y-55655908D01*
X104907671Y-55706202D01*
X104907664Y-55706206D01*
X104792455Y-55792452D01*
X104792452Y-55792455D01*
X104706206Y-55907664D01*
X104706203Y-55907669D01*
X104657189Y-56039083D01*
X104615317Y-56095016D01*
X104549853Y-56119433D01*
X104481580Y-56104581D01*
X104453326Y-56083430D01*
X104339786Y-55969890D01*
X104167820Y-55844951D01*
X103978414Y-55748444D01*
X103978413Y-55748443D01*
X103978412Y-55748443D01*
X103776243Y-55682754D01*
X103776241Y-55682753D01*
X103776240Y-55682753D01*
X103614957Y-55657208D01*
X103566287Y-55649500D01*
X103353713Y-55649500D01*
X103305042Y-55657208D01*
X103143760Y-55682753D01*
X102941585Y-55748444D01*
X102752179Y-55844951D01*
X102580213Y-55969890D01*
X102429890Y-56120213D01*
X102304951Y-56292179D01*
X102208444Y-56481585D01*
X102142753Y-56683760D01*
X102109500Y-56893713D01*
X100500500Y-56893713D01*
X100500500Y-54194681D01*
X100520185Y-54127642D01*
X100572989Y-54081887D01*
X100642147Y-54071943D01*
X100705703Y-54100968D01*
X100712181Y-54107000D01*
X100897915Y-54292734D01*
X101108711Y-54460838D01*
X101337003Y-54604284D01*
X101579921Y-54721267D01*
X101771049Y-54788145D01*
X101834397Y-54810312D01*
X101834405Y-54810315D01*
X101834408Y-54810315D01*
X101834409Y-54810316D01*
X102097268Y-54870312D01*
X102365187Y-54900499D01*
X102365188Y-54900500D01*
X102365191Y-54900500D01*
X102634812Y-54900500D01*
X102634812Y-54900499D01*
X102902732Y-54870312D01*
X103165591Y-54810316D01*
X103420079Y-54721267D01*
X103662997Y-54604284D01*
X103891289Y-54460838D01*
X104102085Y-54292734D01*
X104292734Y-54102085D01*
X104460838Y-53891289D01*
X104604284Y-53662997D01*
X104721267Y-53420079D01*
X104810316Y-53165591D01*
X104870312Y-52902732D01*
X104900500Y-52634809D01*
X104900500Y-52365191D01*
X104870312Y-52097268D01*
X104810316Y-51834409D01*
X104721267Y-51579921D01*
X104604284Y-51337003D01*
X104460838Y-51108711D01*
X104292734Y-50897915D01*
X104107000Y-50712181D01*
X104073515Y-50650858D01*
X104078499Y-50581166D01*
X104120371Y-50525233D01*
X104185835Y-50500816D01*
X104194681Y-50500500D01*
X140805319Y-50500500D01*
X140872358Y-50520185D01*
G37*
%TD.AperFunction*%
%TD*%
M02*
