%TF.GenerationSoftware,KiCad,Pcbnew,9.0.6*%
%TF.CreationDate,2025-12-04T12:39:59-08:00*%
%TF.ProjectId,driver3,64726976-6572-4332-9e6b-696361645f70,rev?*%
%TF.SameCoordinates,Original*%
%TF.FileFunction,Legend,Top*%
%TF.FilePolarity,Positive*%
%FSLAX46Y46*%
G04 Gerber Fmt 4.6, Leading zero omitted, Abs format (unit mm)*
G04 Created by KiCad (PCBNEW 9.0.6) date 2025-12-04 12:39:59*
%MOMM*%
%LPD*%
G01*
G04 APERTURE LIST*
G04 Aperture macros list*
%AMRoundRect*
0 Rectangle with rounded corners*
0 $1 Rounding radius*
0 $2 $3 $4 $5 $6 $7 $8 $9 X,Y pos of 4 corners*
0 Add a 4 corners polygon primitive as box body*
4,1,4,$2,$3,$4,$5,$6,$7,$8,$9,$2,$3,0*
0 Add four circle primitives for the rounded corners*
1,1,$1+$1,$2,$3*
1,1,$1+$1,$4,$5*
1,1,$1+$1,$6,$7*
1,1,$1+$1,$8,$9*
0 Add four rect primitives between the rounded corners*
20,1,$1+$1,$2,$3,$4,$5,0*
20,1,$1+$1,$4,$5,$6,$7,0*
20,1,$1+$1,$6,$7,$8,$9,0*
20,1,$1+$1,$8,$9,$2,$3,0*%
G04 Aperture macros list end*
%ADD10C,0.100000*%
%ADD11C,0.150000*%
%ADD12C,0.000000*%
%ADD13C,0.152400*%
%ADD14C,0.120000*%
%ADD15R,0.254000X0.762000*%
%ADD16R,0.762000X0.254000*%
%ADD17R,2.700000X2.700000*%
%ADD18RoundRect,0.159000X-0.159000X-0.189000X0.159000X-0.189000X0.159000X0.189000X-0.159000X0.189000X0*%
%ADD19C,3.800000*%
%ADD20RoundRect,0.250000X0.550000X-0.550000X0.550000X0.550000X-0.550000X0.550000X-0.550000X-0.550000X0*%
%ADD21C,1.600000*%
%ADD22RoundRect,0.244000X0.244000X0.269000X-0.244000X0.269000X-0.244000X-0.269000X0.244000X-0.269000X0*%
%ADD23RoundRect,0.239000X0.239000X0.274000X-0.239000X0.274000X-0.239000X-0.274000X0.239000X-0.274000X0*%
%ADD24R,1.700000X1.700000*%
%ADD25C,1.700000*%
%ADD26RoundRect,0.250000X-0.650000X-0.750000X0.650000X-0.750000X0.650000X0.750000X-0.650000X0.750000X0*%
%ADD27RoundRect,0.250000X0.600000X0.725000X-0.600000X0.725000X-0.600000X-0.725000X0.600000X-0.725000X0*%
%ADD28O,1.700000X1.950000*%
%ADD29RoundRect,0.266521X0.346479X0.671479X-0.346479X0.671479X-0.346479X-0.671479X0.346479X-0.671479X0*%
%ADD30RoundRect,0.159000X-0.189000X0.159000X-0.189000X-0.159000X0.189000X-0.159000X0.189000X0.159000X0*%
G04 APERTURE END LIST*
D10*
X106589598Y-51372419D02*
X106589598Y-52086704D01*
X106589598Y-52086704D02*
X106541979Y-52229561D01*
X106541979Y-52229561D02*
X106446741Y-52324800D01*
X106446741Y-52324800D02*
X106303884Y-52372419D01*
X106303884Y-52372419D02*
X106208646Y-52372419D01*
X107541979Y-52372419D02*
X107065789Y-52372419D01*
X107065789Y-52372419D02*
X107065789Y-51372419D01*
X108446741Y-52277180D02*
X108399122Y-52324800D01*
X108399122Y-52324800D02*
X108256265Y-52372419D01*
X108256265Y-52372419D02*
X108161027Y-52372419D01*
X108161027Y-52372419D02*
X108018170Y-52324800D01*
X108018170Y-52324800D02*
X107922932Y-52229561D01*
X107922932Y-52229561D02*
X107875313Y-52134323D01*
X107875313Y-52134323D02*
X107827694Y-51943847D01*
X107827694Y-51943847D02*
X107827694Y-51800990D01*
X107827694Y-51800990D02*
X107875313Y-51610514D01*
X107875313Y-51610514D02*
X107922932Y-51515276D01*
X107922932Y-51515276D02*
X108018170Y-51420038D01*
X108018170Y-51420038D02*
X108161027Y-51372419D01*
X108161027Y-51372419D02*
X108256265Y-51372419D01*
X108256265Y-51372419D02*
X108399122Y-51420038D01*
X108399122Y-51420038D02*
X108446741Y-51467657D01*
X109161027Y-51372419D02*
X109161027Y-52086704D01*
X109161027Y-52086704D02*
X109113408Y-52229561D01*
X109113408Y-52229561D02*
X109018170Y-52324800D01*
X109018170Y-52324800D02*
X108875313Y-52372419D01*
X108875313Y-52372419D02*
X108780075Y-52372419D01*
X110113408Y-52372419D02*
X109637218Y-52372419D01*
X109637218Y-52372419D02*
X109637218Y-51372419D01*
X111018170Y-52277180D02*
X110970551Y-52324800D01*
X110970551Y-52324800D02*
X110827694Y-52372419D01*
X110827694Y-52372419D02*
X110732456Y-52372419D01*
X110732456Y-52372419D02*
X110589599Y-52324800D01*
X110589599Y-52324800D02*
X110494361Y-52229561D01*
X110494361Y-52229561D02*
X110446742Y-52134323D01*
X110446742Y-52134323D02*
X110399123Y-51943847D01*
X110399123Y-51943847D02*
X110399123Y-51800990D01*
X110399123Y-51800990D02*
X110446742Y-51610514D01*
X110446742Y-51610514D02*
X110494361Y-51515276D01*
X110494361Y-51515276D02*
X110589599Y-51420038D01*
X110589599Y-51420038D02*
X110732456Y-51372419D01*
X110732456Y-51372419D02*
X110827694Y-51372419D01*
X110827694Y-51372419D02*
X110970551Y-51420038D01*
X110970551Y-51420038D02*
X111018170Y-51467657D01*
X111732456Y-51372419D02*
X111732456Y-52086704D01*
X111732456Y-52086704D02*
X111684837Y-52229561D01*
X111684837Y-52229561D02*
X111589599Y-52324800D01*
X111589599Y-52324800D02*
X111446742Y-52372419D01*
X111446742Y-52372419D02*
X111351504Y-52372419D01*
X112684837Y-52372419D02*
X112208647Y-52372419D01*
X112208647Y-52372419D02*
X112208647Y-51372419D01*
X113589599Y-52277180D02*
X113541980Y-52324800D01*
X113541980Y-52324800D02*
X113399123Y-52372419D01*
X113399123Y-52372419D02*
X113303885Y-52372419D01*
X113303885Y-52372419D02*
X113161028Y-52324800D01*
X113161028Y-52324800D02*
X113065790Y-52229561D01*
X113065790Y-52229561D02*
X113018171Y-52134323D01*
X113018171Y-52134323D02*
X112970552Y-51943847D01*
X112970552Y-51943847D02*
X112970552Y-51800990D01*
X112970552Y-51800990D02*
X113018171Y-51610514D01*
X113018171Y-51610514D02*
X113065790Y-51515276D01*
X113065790Y-51515276D02*
X113161028Y-51420038D01*
X113161028Y-51420038D02*
X113303885Y-51372419D01*
X113303885Y-51372419D02*
X113399123Y-51372419D01*
X113399123Y-51372419D02*
X113541980Y-51420038D01*
X113541980Y-51420038D02*
X113589599Y-51467657D01*
X114303885Y-51372419D02*
X114303885Y-52086704D01*
X114303885Y-52086704D02*
X114256266Y-52229561D01*
X114256266Y-52229561D02*
X114161028Y-52324800D01*
X114161028Y-52324800D02*
X114018171Y-52372419D01*
X114018171Y-52372419D02*
X113922933Y-52372419D01*
X115256266Y-52372419D02*
X114780076Y-52372419D01*
X114780076Y-52372419D02*
X114780076Y-51372419D01*
X116161028Y-52277180D02*
X116113409Y-52324800D01*
X116113409Y-52324800D02*
X115970552Y-52372419D01*
X115970552Y-52372419D02*
X115875314Y-52372419D01*
X115875314Y-52372419D02*
X115732457Y-52324800D01*
X115732457Y-52324800D02*
X115637219Y-52229561D01*
X115637219Y-52229561D02*
X115589600Y-52134323D01*
X115589600Y-52134323D02*
X115541981Y-51943847D01*
X115541981Y-51943847D02*
X115541981Y-51800990D01*
X115541981Y-51800990D02*
X115589600Y-51610514D01*
X115589600Y-51610514D02*
X115637219Y-51515276D01*
X115637219Y-51515276D02*
X115732457Y-51420038D01*
X115732457Y-51420038D02*
X115875314Y-51372419D01*
X115875314Y-51372419D02*
X115970552Y-51372419D01*
X115970552Y-51372419D02*
X116113409Y-51420038D01*
X116113409Y-51420038D02*
X116161028Y-51467657D01*
X101000000Y-77000000D02*
X132750000Y-77000000D01*
X132750000Y-78500000D01*
X101000000Y-78500000D01*
X101000000Y-77000000D01*
G36*
X102127093Y-77982302D02*
G01*
X102174820Y-77985587D01*
X102194382Y-77992377D01*
X102204956Y-78005683D01*
X102209098Y-78030113D01*
X102204958Y-78055267D01*
X102194382Y-78069253D01*
X102174759Y-78076507D01*
X102127093Y-78080000D01*
X101712430Y-78080000D01*
X101680373Y-78080000D01*
X101657898Y-78076624D01*
X101642759Y-78067543D01*
X101633335Y-78052726D01*
X101629815Y-78030113D01*
X101634027Y-78005718D01*
X101644836Y-77992377D01*
X101664707Y-77985574D01*
X101712430Y-77982302D01*
X101866852Y-77982302D01*
X101866852Y-77368764D01*
X101712430Y-77368764D01*
X101665839Y-77365403D01*
X101645507Y-77358262D01*
X101634168Y-77344435D01*
X101629815Y-77319916D01*
X101633367Y-77297258D01*
X101642759Y-77282974D01*
X101658014Y-77274356D01*
X101681716Y-77271067D01*
X101712430Y-77271067D01*
X102127093Y-77271067D01*
X102159211Y-77271067D01*
X102181648Y-77274397D01*
X102196458Y-77283279D01*
X102205656Y-77297752D01*
X102209098Y-77319916D01*
X102204814Y-77344469D01*
X102193710Y-77358262D01*
X102173641Y-77365392D01*
X102127093Y-77368764D01*
X101972732Y-77368764D01*
X101972732Y-77982302D01*
X102127093Y-77982302D01*
G37*
G36*
X102520935Y-78080000D02*
G01*
X102487778Y-78075871D01*
X102467262Y-78065345D01*
X102454567Y-78047521D01*
X102449860Y-78019855D01*
X102458318Y-77992258D01*
X102494569Y-77941410D01*
X102581018Y-77853098D01*
X102600863Y-77833925D01*
X102658260Y-77779275D01*
X102762233Y-77674789D01*
X102829608Y-77594665D01*
X102869339Y-77534082D01*
X102889006Y-77488706D01*
X102894565Y-77454616D01*
X102889614Y-77407500D01*
X102875609Y-77368581D01*
X102852922Y-77336097D01*
X102822621Y-77310948D01*
X102787169Y-77295855D01*
X102744966Y-77290607D01*
X102702915Y-77295045D01*
X102662657Y-77308375D01*
X102626777Y-77329553D01*
X102599459Y-77356186D01*
X102586514Y-77374626D01*
X102567031Y-77402174D01*
X102548423Y-77416149D01*
X102529788Y-77420422D01*
X102508109Y-77416353D01*
X102494984Y-77405401D01*
X102487901Y-77386690D01*
X102484726Y-77348004D01*
X102489488Y-77312161D01*
X102507257Y-77287798D01*
X102555398Y-77249191D01*
X102615518Y-77218555D01*
X102681091Y-77199278D01*
X102747714Y-77192909D01*
X102803241Y-77197720D01*
X102852622Y-77211643D01*
X102897009Y-77234436D01*
X102937247Y-77266549D01*
X102970802Y-77305759D01*
X102994334Y-77348413D01*
X103008566Y-77395282D01*
X103013450Y-77447472D01*
X103007113Y-77494432D01*
X102985893Y-77550882D01*
X102945266Y-77619627D01*
X102879359Y-77703601D01*
X102781175Y-77805898D01*
X102690317Y-77893276D01*
X102606297Y-77974487D01*
X102918501Y-77974487D01*
X102924304Y-77946417D01*
X102934560Y-77927958D01*
X102949989Y-77916044D01*
X102970403Y-77911960D01*
X102990846Y-77915841D01*
X103005940Y-77926981D01*
X103015465Y-77944027D01*
X103018946Y-77967953D01*
X103018213Y-77975158D01*
X103017541Y-77982302D01*
X103012046Y-78034937D01*
X103007731Y-78054407D01*
X102999773Y-78068032D01*
X102988053Y-78076978D01*
X102973150Y-78080000D01*
X102520935Y-78080000D01*
G37*
G36*
X103813712Y-77292805D02*
G01*
X103822300Y-77276574D01*
X103832824Y-77266854D01*
X103846769Y-77261465D01*
X103868361Y-77259344D01*
X103890967Y-77262819D01*
X103903899Y-77271678D01*
X103910956Y-77287635D01*
X103914157Y-77322358D01*
X103915500Y-77447349D01*
X103916905Y-77497663D01*
X103913615Y-77526687D01*
X103905975Y-77541139D01*
X103892271Y-77549151D01*
X103867018Y-77552435D01*
X103841798Y-77546057D01*
X103822461Y-77526415D01*
X103808278Y-77487833D01*
X103800767Y-77458279D01*
X103788284Y-77426373D01*
X103767895Y-77398517D01*
X103738546Y-77374077D01*
X103704466Y-77356163D01*
X103666314Y-77345203D01*
X103623142Y-77341409D01*
X103564460Y-77347198D01*
X103513539Y-77363859D01*
X103468782Y-77391170D01*
X103429152Y-77430008D01*
X103398355Y-77475880D01*
X103375590Y-77529737D01*
X103361176Y-77593068D01*
X103356062Y-77667718D01*
X103361235Y-77742306D01*
X103375824Y-77805615D01*
X103398886Y-77859494D01*
X103430129Y-77905427D01*
X103470250Y-77944257D01*
X103515469Y-77971575D01*
X103566823Y-77988239D01*
X103625889Y-77994026D01*
X103665513Y-77991264D01*
X103706489Y-77982791D01*
X103746782Y-77968830D01*
X103787090Y-77948963D01*
X103837648Y-77916540D01*
X103868256Y-77897883D01*
X103883443Y-77893642D01*
X103903049Y-77897176D01*
X103919225Y-77907625D01*
X103930251Y-77923218D01*
X103933941Y-77942124D01*
X103930114Y-77961731D01*
X103917882Y-77981386D01*
X103897720Y-78000058D01*
X103858164Y-78027182D01*
X103799743Y-78059873D01*
X103742698Y-78081953D01*
X103683510Y-78095082D01*
X103620394Y-78099539D01*
X103553892Y-78094556D01*
X103493716Y-78080083D01*
X103438808Y-78056436D01*
X103388329Y-78023397D01*
X103341713Y-77980226D01*
X103302712Y-77930719D01*
X103272301Y-77876235D01*
X103250187Y-77816081D01*
X103236491Y-77749342D01*
X103231742Y-77674923D01*
X103239115Y-77584378D01*
X103260354Y-77504430D01*
X103294868Y-77433211D01*
X103343056Y-77369314D01*
X103390354Y-77325144D01*
X103441328Y-77291431D01*
X103496532Y-77267364D01*
X103556788Y-77252669D01*
X103623142Y-77247620D01*
X103668256Y-77250488D01*
X103714977Y-77259282D01*
X103762082Y-77273157D01*
X103813712Y-77292805D01*
G37*
G36*
X104970263Y-77716566D02*
G01*
X105583007Y-77716566D01*
X105601584Y-77719944D01*
X105614759Y-77729450D01*
X105623007Y-77744188D01*
X105626055Y-77765415D01*
X105622973Y-77787180D01*
X105614759Y-77801746D01*
X105601617Y-77810968D01*
X105583007Y-77814263D01*
X104970263Y-77814263D01*
X104951061Y-77810942D01*
X104937779Y-77801746D01*
X104929611Y-77787186D01*
X104926543Y-77765415D01*
X104929613Y-77743653D01*
X104937779Y-77729145D01*
X104951066Y-77719901D01*
X104970263Y-77716566D01*
G37*
G36*
X104970263Y-77486001D02*
G01*
X105583007Y-77486001D01*
X105601606Y-77489324D01*
X105614759Y-77498640D01*
X105622992Y-77513196D01*
X105626055Y-77534544D01*
X105622971Y-77556426D01*
X105614759Y-77571058D01*
X105601606Y-77580375D01*
X105583007Y-77583698D01*
X104970263Y-77583698D01*
X104951038Y-77580433D01*
X104937779Y-77571425D01*
X104929647Y-77556972D01*
X104926543Y-77534544D01*
X104929628Y-77512662D01*
X104937779Y-77498335D01*
X104951044Y-77489280D01*
X104970263Y-77486001D01*
G37*
G36*
X107003892Y-77201661D02*
G01*
X107047970Y-77215792D01*
X107088087Y-77239252D01*
X107124988Y-77272921D01*
X107158984Y-77318450D01*
X107190169Y-77379796D01*
X107213923Y-77453855D01*
X107229295Y-77542953D01*
X107234822Y-77649766D01*
X107229301Y-77756558D01*
X107213937Y-77845737D01*
X107190183Y-77919952D01*
X107158984Y-77981509D01*
X107124973Y-78027169D01*
X107088062Y-78060924D01*
X107047945Y-78084436D01*
X107003876Y-78098594D01*
X106954736Y-78103447D01*
X106905558Y-78098611D01*
X106861503Y-78084509D01*
X106821450Y-78061110D01*
X106784651Y-78027545D01*
X106750793Y-77982180D01*
X106719819Y-77921030D01*
X106696174Y-77846904D01*
X106680843Y-77757402D01*
X106675322Y-77649766D01*
X106675338Y-77649460D01*
X106788773Y-77649460D01*
X106794552Y-77762879D01*
X106809927Y-77848731D01*
X106832493Y-77912571D01*
X106858589Y-77956031D01*
X106887270Y-77984208D01*
X106918880Y-78000328D01*
X106954736Y-78005750D01*
X106990972Y-78000306D01*
X107022820Y-77984148D01*
X107051615Y-77955964D01*
X107077712Y-77912571D01*
X107100278Y-77848731D01*
X107115653Y-77762879D01*
X107121432Y-77649460D01*
X107115654Y-77536501D01*
X107100281Y-77450988D01*
X107077712Y-77387388D01*
X107051632Y-77344159D01*
X107022844Y-77316063D01*
X106990991Y-77299946D01*
X106954736Y-77294515D01*
X106918861Y-77299924D01*
X106887246Y-77316004D01*
X106858572Y-77344092D01*
X106832493Y-77387388D01*
X106809924Y-77450988D01*
X106794551Y-77536501D01*
X106788773Y-77649460D01*
X106675338Y-77649460D01*
X106680835Y-77542540D01*
X106696155Y-77453274D01*
X106719798Y-77379246D01*
X106750793Y-77318084D01*
X106784651Y-77272719D01*
X106821450Y-77239154D01*
X106861503Y-77215755D01*
X106905558Y-77201653D01*
X106954736Y-77196817D01*
X107003892Y-77201661D01*
G37*
G36*
X108469897Y-77347088D02*
G01*
X108456585Y-77349164D01*
X108448709Y-77349836D01*
X108429111Y-77346726D01*
X108414209Y-77337929D01*
X108404313Y-77324214D01*
X108400898Y-77306177D01*
X108403775Y-77290894D01*
X108412500Y-77277540D01*
X108426032Y-77267161D01*
X108445961Y-77259160D01*
X108648866Y-77204633D01*
X108663520Y-77201702D01*
X108678236Y-77200725D01*
X108689752Y-77203650D01*
X108698752Y-77212693D01*
X108704199Y-77225944D01*
X108706263Y-77244994D01*
X108706263Y-77982302D01*
X108815561Y-77982302D01*
X108870756Y-77985626D01*
X108892742Y-77992377D01*
X108904635Y-78005875D01*
X108909167Y-78030113D01*
X108905475Y-78052655D01*
X108895490Y-78067543D01*
X108879454Y-78076557D01*
X108854518Y-78080000D01*
X108446022Y-78080000D01*
X108421033Y-78076554D01*
X108404989Y-78067543D01*
X108395051Y-78052661D01*
X108391372Y-78030113D01*
X108395891Y-78005868D01*
X108407737Y-77992377D01*
X108429776Y-77985624D01*
X108484979Y-77982302D01*
X108598368Y-77982302D01*
X108598368Y-77316435D01*
X108469897Y-77347088D01*
G37*
G36*
X110360765Y-77201661D02*
G01*
X110404844Y-77215792D01*
X110444961Y-77239252D01*
X110481862Y-77272921D01*
X110515858Y-77318450D01*
X110547043Y-77379796D01*
X110570797Y-77453855D01*
X110586169Y-77542953D01*
X110591695Y-77649766D01*
X110586175Y-77756558D01*
X110570811Y-77845737D01*
X110547057Y-77919952D01*
X110515858Y-77981509D01*
X110481846Y-78027169D01*
X110444936Y-78060924D01*
X110404819Y-78084436D01*
X110360749Y-78098594D01*
X110311610Y-78103447D01*
X110262432Y-78098611D01*
X110218376Y-78084509D01*
X110178324Y-78061110D01*
X110141525Y-78027545D01*
X110107667Y-77982180D01*
X110076692Y-77921030D01*
X110053048Y-77846904D01*
X110037716Y-77757402D01*
X110032196Y-77649766D01*
X110032212Y-77649460D01*
X110145647Y-77649460D01*
X110151426Y-77762879D01*
X110166801Y-77848731D01*
X110189366Y-77912571D01*
X110215462Y-77956031D01*
X110244144Y-77984208D01*
X110275754Y-78000328D01*
X110311610Y-78005750D01*
X110347846Y-78000306D01*
X110379693Y-77984148D01*
X110408489Y-77955964D01*
X110434586Y-77912571D01*
X110457152Y-77848731D01*
X110472527Y-77762879D01*
X110478306Y-77649460D01*
X110472528Y-77536501D01*
X110457155Y-77450988D01*
X110434586Y-77387388D01*
X110408506Y-77344159D01*
X110379718Y-77316063D01*
X110347865Y-77299946D01*
X110311610Y-77294515D01*
X110275735Y-77299924D01*
X110244120Y-77316004D01*
X110215445Y-77344092D01*
X110189366Y-77387388D01*
X110166798Y-77450988D01*
X110151424Y-77536501D01*
X110145647Y-77649460D01*
X110032212Y-77649460D01*
X110037709Y-77542540D01*
X110053028Y-77453274D01*
X110076671Y-77379246D01*
X110107667Y-77318084D01*
X110141525Y-77272719D01*
X110178324Y-77239154D01*
X110218376Y-77215755D01*
X110262432Y-77201653D01*
X110311610Y-77196817D01*
X110360765Y-77201661D01*
G37*
G36*
X113711597Y-77274113D02*
G01*
X113728262Y-77280959D01*
X113740083Y-77293657D01*
X113752503Y-77317351D01*
X114019583Y-77982302D01*
X114031184Y-77982302D01*
X114064845Y-77985462D01*
X114081742Y-77992683D01*
X114091563Y-78006085D01*
X114095420Y-78030113D01*
X114091691Y-78055461D01*
X114082414Y-78069253D01*
X114066209Y-78076743D01*
X114033932Y-78080000D01*
X113848124Y-78080000D01*
X113801098Y-78076520D01*
X113781507Y-78069253D01*
X113770977Y-78055273D01*
X113766852Y-78030113D01*
X113771213Y-78006912D01*
X113782911Y-77993049D01*
X113802789Y-77985618D01*
X113843361Y-77982302D01*
X113906926Y-77982302D01*
X113840675Y-77822079D01*
X113493606Y-77822079D01*
X113434865Y-77982302D01*
X113501116Y-77982302D01*
X113542380Y-77985620D01*
X113562604Y-77993049D01*
X113574587Y-78006950D01*
X113579030Y-78030113D01*
X113574890Y-78055267D01*
X113564314Y-78069253D01*
X113545006Y-78076547D01*
X113499773Y-78080000D01*
X113320132Y-78080000D01*
X113280401Y-78076635D01*
X113262063Y-78069253D01*
X113251767Y-78055308D01*
X113247714Y-78030113D01*
X113251729Y-78006160D01*
X113262063Y-77992683D01*
X113280049Y-77985512D01*
X113317384Y-77982302D01*
X113330390Y-77982302D01*
X113425050Y-77732198D01*
X113527800Y-77732198D01*
X113807152Y-77732198D01*
X113660301Y-77370169D01*
X113527800Y-77732198D01*
X113425050Y-77732198D01*
X113562604Y-77368764D01*
X113462892Y-77368764D01*
X113424640Y-77365399D01*
X113404457Y-77357590D01*
X113392224Y-77343246D01*
X113387726Y-77319916D01*
X113391839Y-77295281D01*
X113402381Y-77281570D01*
X113423506Y-77274636D01*
X113482676Y-77271067D01*
X113677337Y-77271067D01*
X113711597Y-77274113D01*
G37*
G36*
X114556858Y-77201661D02*
G01*
X114600936Y-77215792D01*
X114641053Y-77239252D01*
X114677954Y-77272921D01*
X114711950Y-77318450D01*
X114743135Y-77379796D01*
X114766889Y-77453855D01*
X114782261Y-77542953D01*
X114787787Y-77649766D01*
X114782267Y-77756558D01*
X114766903Y-77845737D01*
X114743149Y-77919952D01*
X114711950Y-77981509D01*
X114677939Y-78027169D01*
X114641028Y-78060924D01*
X114600911Y-78084436D01*
X114556841Y-78098594D01*
X114507702Y-78103447D01*
X114458524Y-78098611D01*
X114414469Y-78084509D01*
X114374416Y-78061110D01*
X114337617Y-78027545D01*
X114303759Y-77982180D01*
X114272784Y-77921030D01*
X114249140Y-77846904D01*
X114233808Y-77757402D01*
X114228288Y-77649766D01*
X114228304Y-77649460D01*
X114341739Y-77649460D01*
X114347518Y-77762879D01*
X114362893Y-77848731D01*
X114385458Y-77912571D01*
X114411555Y-77956031D01*
X114440236Y-77984208D01*
X114471846Y-78000328D01*
X114507702Y-78005750D01*
X114543938Y-78000306D01*
X114575785Y-77984148D01*
X114604581Y-77955964D01*
X114630678Y-77912571D01*
X114653244Y-77848731D01*
X114668619Y-77762879D01*
X114674398Y-77649460D01*
X114668620Y-77536501D01*
X114653247Y-77450988D01*
X114630678Y-77387388D01*
X114604598Y-77344159D01*
X114575810Y-77316063D01*
X114543957Y-77299946D01*
X114507702Y-77294515D01*
X114471827Y-77299924D01*
X114440212Y-77316004D01*
X114411538Y-77344092D01*
X114385458Y-77387388D01*
X114362890Y-77450988D01*
X114347517Y-77536501D01*
X114341739Y-77649460D01*
X114228304Y-77649460D01*
X114233801Y-77542540D01*
X114249121Y-77453274D01*
X114272764Y-77379246D01*
X114303759Y-77318084D01*
X114337617Y-77272719D01*
X114374416Y-77239154D01*
X114414469Y-77215755D01*
X114458524Y-77201653D01*
X114507702Y-77196817D01*
X114556858Y-77201661D01*
G37*
G36*
X117068470Y-77274113D02*
G01*
X117085136Y-77280959D01*
X117096957Y-77293657D01*
X117109377Y-77317351D01*
X117376456Y-77982302D01*
X117388058Y-77982302D01*
X117421718Y-77985462D01*
X117438616Y-77992683D01*
X117448437Y-78006085D01*
X117452294Y-78030113D01*
X117448564Y-78055461D01*
X117439288Y-78069253D01*
X117423083Y-78076743D01*
X117390806Y-78080000D01*
X117204998Y-78080000D01*
X117157972Y-78076520D01*
X117138381Y-78069253D01*
X117127851Y-78055273D01*
X117123726Y-78030113D01*
X117128087Y-78006912D01*
X117139785Y-77993049D01*
X117159663Y-77985618D01*
X117200235Y-77982302D01*
X117263799Y-77982302D01*
X117197548Y-77822079D01*
X116850479Y-77822079D01*
X116791739Y-77982302D01*
X116857990Y-77982302D01*
X116899253Y-77985620D01*
X116919478Y-77993049D01*
X116931460Y-78006950D01*
X116935903Y-78030113D01*
X116931764Y-78055267D01*
X116921188Y-78069253D01*
X116901880Y-78076547D01*
X116856646Y-78080000D01*
X116677006Y-78080000D01*
X116637275Y-78076635D01*
X116618937Y-78069253D01*
X116608641Y-78055308D01*
X116604588Y-78030113D01*
X116608603Y-78006160D01*
X116618937Y-77992683D01*
X116636923Y-77985512D01*
X116674258Y-77982302D01*
X116687264Y-77982302D01*
X116781924Y-77732198D01*
X116884673Y-77732198D01*
X117164026Y-77732198D01*
X117017175Y-77370169D01*
X116884673Y-77732198D01*
X116781924Y-77732198D01*
X116919478Y-77368764D01*
X116819766Y-77368764D01*
X116781513Y-77365399D01*
X116761331Y-77357590D01*
X116749098Y-77343246D01*
X116744600Y-77319916D01*
X116748713Y-77295281D01*
X116759255Y-77281570D01*
X116780380Y-77274636D01*
X116839549Y-77271067D01*
X117034211Y-77271067D01*
X117068470Y-77274113D01*
G37*
G36*
X117701299Y-77347088D02*
G01*
X117687988Y-77349164D01*
X117680111Y-77349836D01*
X117660514Y-77346726D01*
X117645612Y-77337929D01*
X117635716Y-77324214D01*
X117632301Y-77306177D01*
X117635178Y-77290894D01*
X117643902Y-77277540D01*
X117657435Y-77267161D01*
X117677363Y-77259160D01*
X117880268Y-77204633D01*
X117894923Y-77201702D01*
X117909638Y-77200725D01*
X117921154Y-77203650D01*
X117930155Y-77212693D01*
X117935601Y-77225944D01*
X117937665Y-77244994D01*
X117937665Y-77982302D01*
X118046964Y-77982302D01*
X118102159Y-77985626D01*
X118124145Y-77992377D01*
X118136037Y-78005875D01*
X118140570Y-78030113D01*
X118136877Y-78052655D01*
X118126892Y-78067543D01*
X118110856Y-78076557D01*
X118085921Y-78080000D01*
X117677424Y-78080000D01*
X117652435Y-78076554D01*
X117636392Y-78067543D01*
X117626453Y-78052661D01*
X117622775Y-78030113D01*
X117627294Y-78005868D01*
X117639139Y-77992377D01*
X117661179Y-77985624D01*
X117716381Y-77982302D01*
X117829771Y-77982302D01*
X117829771Y-77316435D01*
X117701299Y-77347088D01*
G37*
G36*
X127978310Y-77274113D02*
G01*
X127994975Y-77280959D01*
X128006797Y-77293657D01*
X128019216Y-77317351D01*
X128286296Y-77982302D01*
X128297897Y-77982302D01*
X128331558Y-77985462D01*
X128348456Y-77992683D01*
X128358276Y-78006085D01*
X128362133Y-78030113D01*
X128358404Y-78055461D01*
X128349127Y-78069253D01*
X128332922Y-78076743D01*
X128300645Y-78080000D01*
X128114837Y-78080000D01*
X128067811Y-78076520D01*
X128048220Y-78069253D01*
X128037690Y-78055273D01*
X128033565Y-78030113D01*
X128037927Y-78006912D01*
X128049624Y-77993049D01*
X128069502Y-77985618D01*
X128110075Y-77982302D01*
X128173639Y-77982302D01*
X128107388Y-77822079D01*
X127760319Y-77822079D01*
X127701578Y-77982302D01*
X127767829Y-77982302D01*
X127809093Y-77985620D01*
X127829317Y-77993049D01*
X127841300Y-78006950D01*
X127845743Y-78030113D01*
X127841603Y-78055267D01*
X127831027Y-78069253D01*
X127811720Y-78076547D01*
X127766486Y-78080000D01*
X127586845Y-78080000D01*
X127547114Y-78076635D01*
X127528777Y-78069253D01*
X127518480Y-78055308D01*
X127514427Y-78030113D01*
X127518442Y-78006160D01*
X127528777Y-77992683D01*
X127546762Y-77985512D01*
X127584098Y-77982302D01*
X127597103Y-77982302D01*
X127691763Y-77732198D01*
X127794513Y-77732198D01*
X128073866Y-77732198D01*
X127927015Y-77370169D01*
X127794513Y-77732198D01*
X127691763Y-77732198D01*
X127829317Y-77368764D01*
X127729605Y-77368764D01*
X127691353Y-77365399D01*
X127671170Y-77357590D01*
X127658938Y-77343246D01*
X127654439Y-77319916D01*
X127658553Y-77295281D01*
X127669094Y-77281570D01*
X127690219Y-77274636D01*
X127749389Y-77271067D01*
X127944050Y-77271067D01*
X127978310Y-77274113D01*
G37*
G36*
X128536706Y-78080000D02*
G01*
X128503549Y-78075871D01*
X128483033Y-78065345D01*
X128470338Y-78047521D01*
X128465631Y-78019855D01*
X128474089Y-77992258D01*
X128510340Y-77941410D01*
X128596789Y-77853098D01*
X128616634Y-77833925D01*
X128674031Y-77779275D01*
X128778005Y-77674789D01*
X128845379Y-77594665D01*
X128885110Y-77534082D01*
X128904777Y-77488706D01*
X128910336Y-77454616D01*
X128905385Y-77407500D01*
X128891380Y-77368581D01*
X128868693Y-77336097D01*
X128838392Y-77310948D01*
X128802940Y-77295855D01*
X128760737Y-77290607D01*
X128718686Y-77295045D01*
X128678428Y-77308375D01*
X128642548Y-77329553D01*
X128615230Y-77356186D01*
X128602285Y-77374626D01*
X128582802Y-77402174D01*
X128564194Y-77416149D01*
X128545560Y-77420422D01*
X128523880Y-77416353D01*
X128510755Y-77405401D01*
X128503672Y-77386690D01*
X128500497Y-77348004D01*
X128505259Y-77312161D01*
X128523028Y-77287798D01*
X128571169Y-77249191D01*
X128631289Y-77218555D01*
X128696862Y-77199278D01*
X128763485Y-77192909D01*
X128819012Y-77197720D01*
X128868393Y-77211643D01*
X128912781Y-77234436D01*
X128953018Y-77266549D01*
X128986573Y-77305759D01*
X129010105Y-77348413D01*
X129024337Y-77395282D01*
X129029221Y-77447472D01*
X129022884Y-77494432D01*
X129001664Y-77550882D01*
X128961037Y-77619627D01*
X128895130Y-77703601D01*
X128796946Y-77805898D01*
X128706088Y-77893276D01*
X128622069Y-77974487D01*
X128934272Y-77974487D01*
X128940075Y-77946417D01*
X128950331Y-77927958D01*
X128965760Y-77916044D01*
X128986174Y-77911960D01*
X129006617Y-77915841D01*
X129021711Y-77926981D01*
X129031236Y-77944027D01*
X129034717Y-77967953D01*
X129033984Y-77975158D01*
X129033312Y-77982302D01*
X129027817Y-78034937D01*
X129023502Y-78054407D01*
X129015544Y-78068032D01*
X129003824Y-78076978D01*
X128988921Y-78080000D01*
X128536706Y-78080000D01*
G37*
G36*
X131335184Y-77274113D02*
G01*
X131351849Y-77280959D01*
X131363670Y-77293657D01*
X131376090Y-77317351D01*
X131643169Y-77982302D01*
X131654771Y-77982302D01*
X131688432Y-77985462D01*
X131705329Y-77992683D01*
X131715150Y-78006085D01*
X131719007Y-78030113D01*
X131715277Y-78055461D01*
X131706001Y-78069253D01*
X131689796Y-78076743D01*
X131657519Y-78080000D01*
X131471711Y-78080000D01*
X131424685Y-78076520D01*
X131405094Y-78069253D01*
X131394564Y-78055273D01*
X131390439Y-78030113D01*
X131394800Y-78006912D01*
X131406498Y-77993049D01*
X131426376Y-77985618D01*
X131466948Y-77982302D01*
X131530512Y-77982302D01*
X131464262Y-77822079D01*
X131117192Y-77822079D01*
X131058452Y-77982302D01*
X131124703Y-77982302D01*
X131165967Y-77985620D01*
X131186191Y-77993049D01*
X131198174Y-78006950D01*
X131202616Y-78030113D01*
X131198477Y-78055267D01*
X131187901Y-78069253D01*
X131168593Y-78076547D01*
X131123360Y-78080000D01*
X130943719Y-78080000D01*
X130903988Y-78076635D01*
X130885650Y-78069253D01*
X130875354Y-78055308D01*
X130871301Y-78030113D01*
X130875316Y-78006160D01*
X130885650Y-77992683D01*
X130903636Y-77985512D01*
X130940971Y-77982302D01*
X130953977Y-77982302D01*
X131048637Y-77732198D01*
X131151386Y-77732198D01*
X131430739Y-77732198D01*
X131283888Y-77370169D01*
X131151386Y-77732198D01*
X131048637Y-77732198D01*
X131186191Y-77368764D01*
X131086479Y-77368764D01*
X131048226Y-77365399D01*
X131028044Y-77357590D01*
X131015811Y-77343246D01*
X131011313Y-77319916D01*
X131015426Y-77295281D01*
X131025968Y-77281570D01*
X131047093Y-77274636D01*
X131106263Y-77271067D01*
X131300924Y-77271067D01*
X131335184Y-77274113D01*
G37*
G36*
X132237840Y-77610870D02*
G01*
X132288321Y-77630023D01*
X132329159Y-77656530D01*
X132361854Y-77690493D01*
X132385966Y-77730960D01*
X132400771Y-77777474D01*
X132405940Y-77831543D01*
X132400424Y-77889721D01*
X132384486Y-77940873D01*
X132358325Y-77986413D01*
X132321188Y-78027304D01*
X132276867Y-78059941D01*
X132226375Y-78083584D01*
X132168558Y-78098294D01*
X132101919Y-78103447D01*
X132033656Y-78098771D01*
X131972423Y-78085268D01*
X131917149Y-78063391D01*
X131867565Y-78032004D01*
X131843343Y-78003190D01*
X131836182Y-77975403D01*
X131839880Y-77956609D01*
X131850837Y-77941575D01*
X131867020Y-77931647D01*
X131886741Y-77928264D01*
X131904814Y-77933462D01*
X131971065Y-77963129D01*
X132020540Y-77983146D01*
X132065476Y-77994374D01*
X132106681Y-77997934D01*
X132159117Y-77992431D01*
X132202538Y-77976849D01*
X132238878Y-77951589D01*
X132267053Y-77917849D01*
X132283937Y-77878445D01*
X132289802Y-77831605D01*
X132285715Y-77792474D01*
X132273943Y-77758681D01*
X132254570Y-77729084D01*
X132228733Y-77704878D01*
X132196927Y-77687033D01*
X132157911Y-77675533D01*
X132109429Y-77670099D01*
X132075549Y-77662339D01*
X132058033Y-77646740D01*
X132052032Y-77622349D01*
X132057675Y-77600200D01*
X132074671Y-77584734D01*
X132108025Y-77575333D01*
X132144234Y-77570570D01*
X132178199Y-77561824D01*
X132206574Y-77547301D01*
X132230329Y-77526973D01*
X132248514Y-77501718D01*
X132259384Y-77473400D01*
X132263119Y-77441060D01*
X132258403Y-77399565D01*
X132244940Y-77364860D01*
X132222819Y-77335425D01*
X132193769Y-77312838D01*
X132160082Y-77299239D01*
X132120359Y-77294515D01*
X132082962Y-77298222D01*
X132043912Y-77309740D01*
X132002512Y-77330052D01*
X131946648Y-77359714D01*
X131927041Y-77365528D01*
X131909380Y-77362395D01*
X131895289Y-77353255D01*
X131885850Y-77339522D01*
X131882650Y-77322480D01*
X131889132Y-77298125D01*
X131911772Y-77270847D01*
X131959159Y-77238766D01*
X132011548Y-77215610D01*
X132067715Y-77201596D01*
X132128541Y-77196817D01*
X132181022Y-77201094D01*
X132227384Y-77213417D01*
X132268706Y-77233447D01*
X132305800Y-77261420D01*
X132337102Y-77296048D01*
X132358902Y-77333554D01*
X132372019Y-77374614D01*
X132376509Y-77420239D01*
X132372432Y-77467006D01*
X132360959Y-77505905D01*
X132342681Y-77538452D01*
X132317338Y-77565963D01*
X132283012Y-77590153D01*
X132237840Y-77610870D01*
G37*
G36*
X132177259Y-83296294D02*
G01*
X132168558Y-83323013D01*
X132149232Y-83343677D01*
X132123234Y-83356871D01*
X132094521Y-83361263D01*
X132068787Y-83356394D01*
X132048360Y-83342090D01*
X132035744Y-83320175D01*
X132033033Y-83289394D01*
X132035963Y-83213761D01*
X132036086Y-83053211D01*
X132027538Y-82693808D01*
X132024790Y-82567168D01*
X132027172Y-82480584D01*
X132030286Y-82405540D01*
X132036609Y-82371350D01*
X132051107Y-82348754D01*
X132072790Y-82334433D01*
X132099345Y-82329581D01*
X132123580Y-82331193D01*
X132142451Y-82339182D01*
X132157414Y-82353517D01*
X132295414Y-82344275D01*
X132434996Y-82341182D01*
X132568645Y-82343422D01*
X132664767Y-82349242D01*
X132694298Y-82355197D01*
X132710258Y-82365118D01*
X132719593Y-82380160D01*
X132722958Y-82401144D01*
X132718970Y-82425112D01*
X132707205Y-82445291D01*
X132688037Y-82458579D01*
X132657379Y-82463121D01*
X132507282Y-82459477D01*
X132345015Y-82462664D01*
X132169748Y-82473257D01*
X132167001Y-82549521D01*
X132163886Y-82656561D01*
X132163581Y-82766775D01*
X132239746Y-82761743D01*
X132329605Y-82759937D01*
X132495568Y-82766287D01*
X132613293Y-82780331D01*
X132644128Y-82789150D01*
X132659822Y-82799382D01*
X132668875Y-82813929D01*
X132672156Y-82834492D01*
X132669408Y-82857451D01*
X132660493Y-82877967D01*
X132652982Y-82886470D01*
X132642053Y-82892683D01*
X132612011Y-82896041D01*
X132492943Y-82884073D01*
X132321973Y-82878639D01*
X132231149Y-82880824D01*
X132164924Y-82887187D01*
X132177259Y-83296294D01*
G37*
G36*
X133492812Y-83277732D02*
G01*
X133488580Y-83303328D01*
X133476386Y-83323527D01*
X133455696Y-83336493D01*
X133418196Y-83341723D01*
X133169373Y-83341723D01*
X132869138Y-83341723D01*
X132840923Y-83337021D01*
X132823281Y-83324504D01*
X132812664Y-83305413D01*
X132808932Y-83280968D01*
X132812765Y-83254529D01*
X132823647Y-83233707D01*
X132842005Y-83219906D01*
X132872008Y-83214717D01*
X133088529Y-83214717D01*
X133086514Y-83123920D01*
X133086514Y-82783506D01*
X133093963Y-82392595D01*
X132929649Y-82396015D01*
X132902634Y-82390770D01*
X132883548Y-82375865D01*
X132871556Y-82354238D01*
X132867550Y-82329703D01*
X132871373Y-82308103D01*
X132882632Y-82290380D01*
X132900460Y-82278602D01*
X132927145Y-82274260D01*
X133086147Y-82271573D01*
X133191721Y-82270169D01*
X133207016Y-82275066D01*
X133217062Y-82290685D01*
X133230678Y-82300068D01*
X133234891Y-82313278D01*
X133229186Y-82375737D01*
X133222923Y-82550376D01*
X133218466Y-82838155D01*
X133219870Y-83072812D01*
X133223290Y-83224487D01*
X133309569Y-83224487D01*
X133384185Y-83224487D01*
X133423386Y-83224487D01*
X133458783Y-83228842D01*
X133477669Y-83239324D01*
X133488921Y-83256082D01*
X133492812Y-83277732D01*
G37*
G36*
X134038243Y-82606374D02*
G01*
X134080548Y-82615528D01*
X134116791Y-82630000D01*
X134167903Y-82663753D01*
X134225052Y-82719331D01*
X134206733Y-82890987D01*
X134203192Y-83018040D01*
X134213343Y-83142708D01*
X134241477Y-83300019D01*
X134245273Y-83328549D01*
X134242321Y-83348366D01*
X134234272Y-83362178D01*
X134213892Y-83376930D01*
X134184752Y-83384099D01*
X134156231Y-83382464D01*
X134132789Y-83372498D01*
X134114696Y-83352985D01*
X134099267Y-83315040D01*
X134092123Y-83270954D01*
X134084246Y-83224120D01*
X134044175Y-83281150D01*
X134002096Y-83322492D01*
X133957766Y-83350695D01*
X133910439Y-83367356D01*
X133858932Y-83372986D01*
X133811519Y-83368343D01*
X133767035Y-83354546D01*
X133726324Y-83332940D01*
X133692236Y-83305758D01*
X133662972Y-83273491D01*
X133637648Y-83237126D01*
X133617138Y-83197986D01*
X133602477Y-83158175D01*
X133593425Y-83117617D01*
X133590509Y-83079284D01*
X133592371Y-83032695D01*
X133735101Y-83032695D01*
X133742978Y-83103831D01*
X133765570Y-83173012D01*
X133783205Y-83203043D01*
X133805931Y-83226807D01*
X133833378Y-83242697D01*
X133863817Y-83247934D01*
X133897336Y-83243300D01*
X133931228Y-83228883D01*
X133962497Y-83207099D01*
X133990457Y-83179485D01*
X134036374Y-83114760D01*
X134069225Y-83044968D01*
X134072882Y-82914748D01*
X134084246Y-82774530D01*
X134052737Y-82752174D01*
X134026727Y-82738810D01*
X133998310Y-82731163D01*
X133956934Y-82728185D01*
X133931458Y-82730337D01*
X133903872Y-82737100D01*
X133876404Y-82748810D01*
X133845315Y-82768424D01*
X133816465Y-82793303D01*
X133790544Y-82823928D01*
X133769518Y-82860446D01*
X133750854Y-82911489D01*
X133739203Y-82967777D01*
X133735101Y-83032695D01*
X133592371Y-83032695D01*
X133593529Y-83003720D01*
X133602110Y-82937196D01*
X133616326Y-82874702D01*
X133633862Y-82823806D01*
X133656516Y-82777409D01*
X133683016Y-82737344D01*
X133713775Y-82702176D01*
X133745908Y-82674513D01*
X133781264Y-82651875D01*
X133820341Y-82633541D01*
X133861380Y-82619653D01*
X133902346Y-82610338D01*
X133988747Y-82603133D01*
X134038243Y-82606374D01*
G37*
G36*
X134476916Y-82566706D02*
G01*
X134495307Y-82581090D01*
X134506633Y-82600125D01*
X134506603Y-82619070D01*
X134501213Y-82645098D01*
X134499092Y-82683306D01*
X134567803Y-82644221D01*
X134633870Y-82622038D01*
X134698639Y-82614856D01*
X134751353Y-82617777D01*
X134794626Y-82625847D01*
X134834488Y-82640977D01*
X134872234Y-82664987D01*
X134904842Y-82696985D01*
X134932196Y-82739054D01*
X134952681Y-82788706D01*
X134969931Y-82856352D01*
X134980156Y-82930764D01*
X134983914Y-83023658D01*
X134981148Y-83070377D01*
X134972679Y-83118668D01*
X134958326Y-83166073D01*
X134937325Y-83212336D01*
X134910659Y-83255410D01*
X134879501Y-83293302D01*
X134842751Y-83325314D01*
X134798595Y-83350882D01*
X134749825Y-83367266D01*
X134696990Y-83372803D01*
X134573721Y-83367407D01*
X134506603Y-83354973D01*
X134509289Y-83532477D01*
X134511366Y-83672489D01*
X134506753Y-83704202D01*
X134492925Y-83725795D01*
X134471934Y-83739620D01*
X134447130Y-83744235D01*
X134416803Y-83739576D01*
X134396297Y-83726983D01*
X134382934Y-83706225D01*
X134376727Y-83674199D01*
X134366774Y-83237126D01*
X134364766Y-82815013D01*
X134496345Y-82815013D01*
X134496345Y-82831439D01*
X134498054Y-82933227D01*
X134501474Y-83091863D01*
X134503916Y-83246041D01*
X134534026Y-83253588D01*
X134580486Y-83257337D01*
X134680992Y-83254956D01*
X134722063Y-83246973D01*
X134757196Y-83227540D01*
X134785946Y-83198629D01*
X134807632Y-83161411D01*
X134822773Y-83119492D01*
X134833155Y-83074033D01*
X134839028Y-83026832D01*
X134841032Y-82976702D01*
X134838525Y-82919694D01*
X134831690Y-82873937D01*
X134820805Y-82832483D01*
X134809281Y-82803412D01*
X134794394Y-82778777D01*
X134777224Y-82760181D01*
X134757619Y-82746083D01*
X134738633Y-82737894D01*
X134694181Y-82732093D01*
X134646294Y-82737746D01*
X134591782Y-82756090D01*
X134539903Y-82783181D01*
X134496345Y-82815013D01*
X134364766Y-82815013D01*
X134364453Y-82749190D01*
X134369152Y-82640696D01*
X134378131Y-82602644D01*
X134391941Y-82582820D01*
X134411592Y-82568450D01*
X134434389Y-82560534D01*
X134456045Y-82560268D01*
X134476916Y-82566706D01*
G37*
G36*
X135238954Y-82566706D02*
G01*
X135257344Y-82581090D01*
X135268671Y-82600125D01*
X135268640Y-82619070D01*
X135263251Y-82645098D01*
X135261130Y-82683306D01*
X135329841Y-82644221D01*
X135395907Y-82622038D01*
X135460676Y-82614856D01*
X135513391Y-82617777D01*
X135556664Y-82625847D01*
X135596526Y-82640977D01*
X135634272Y-82664987D01*
X135666879Y-82696985D01*
X135694234Y-82739054D01*
X135714719Y-82788706D01*
X135731969Y-82856352D01*
X135742194Y-82930764D01*
X135745952Y-83023658D01*
X135743186Y-83070377D01*
X135734717Y-83118668D01*
X135720364Y-83166073D01*
X135699363Y-83212336D01*
X135672697Y-83255410D01*
X135641538Y-83293302D01*
X135604788Y-83325314D01*
X135560633Y-83350882D01*
X135511862Y-83367266D01*
X135459028Y-83372803D01*
X135335759Y-83367407D01*
X135268640Y-83354973D01*
X135271327Y-83532477D01*
X135273403Y-83672489D01*
X135268791Y-83704202D01*
X135254963Y-83725795D01*
X135233972Y-83739620D01*
X135209167Y-83744235D01*
X135178841Y-83739576D01*
X135158335Y-83726983D01*
X135144972Y-83706225D01*
X135138764Y-83674199D01*
X135128811Y-83237126D01*
X135126804Y-82815013D01*
X135258382Y-82815013D01*
X135258382Y-82831439D01*
X135260092Y-82933227D01*
X135263511Y-83091863D01*
X135265954Y-83246041D01*
X135296063Y-83253588D01*
X135342524Y-83257337D01*
X135443030Y-83254956D01*
X135484100Y-83246973D01*
X135519234Y-83227540D01*
X135547984Y-83198629D01*
X135569670Y-83161411D01*
X135584811Y-83119492D01*
X135595193Y-83074033D01*
X135601066Y-83026832D01*
X135603070Y-82976702D01*
X135600562Y-82919694D01*
X135593728Y-82873937D01*
X135582843Y-82832483D01*
X135571318Y-82803412D01*
X135556432Y-82778777D01*
X135539262Y-82760181D01*
X135519656Y-82746083D01*
X135500671Y-82737894D01*
X135456219Y-82732093D01*
X135408332Y-82737746D01*
X135353820Y-82756090D01*
X135301941Y-82783181D01*
X135258382Y-82815013D01*
X135126804Y-82815013D01*
X135126491Y-82749190D01*
X135131190Y-82640696D01*
X135140169Y-82602644D01*
X135153979Y-82582820D01*
X135173630Y-82568450D01*
X135196426Y-82560534D01*
X135218082Y-82560268D01*
X135238954Y-82566706D01*
G37*
G36*
X136058766Y-83736236D02*
G01*
X136042096Y-83758500D01*
X136018405Y-83771774D01*
X135991495Y-83773777D01*
X135963023Y-83761516D01*
X135941468Y-83737580D01*
X135932248Y-83705401D01*
X135934003Y-83687149D01*
X135942506Y-83667177D01*
X136123674Y-83312292D01*
X136012208Y-83093463D01*
X135925324Y-82904673D01*
X135859830Y-82742718D01*
X135851126Y-82711341D01*
X135850549Y-82686969D01*
X135855651Y-82665047D01*
X135863555Y-82649722D01*
X135875034Y-82637814D01*
X135889872Y-82629206D01*
X135916556Y-82621329D01*
X135945926Y-82625786D01*
X135960116Y-82633617D01*
X135974624Y-82647707D01*
X135986415Y-82665928D01*
X135995874Y-82690755D01*
X136021965Y-82768060D01*
X136058033Y-82861053D01*
X136123979Y-83013827D01*
X136196824Y-83166662D01*
X136331190Y-82883363D01*
X136416521Y-82681168D01*
X136426715Y-82658719D01*
X136438319Y-82641540D01*
X136452109Y-82627947D01*
X136465308Y-82620352D01*
X136492602Y-82614856D01*
X136518187Y-82620291D01*
X136538276Y-82635006D01*
X136553968Y-82658271D01*
X136558753Y-82673220D01*
X136560502Y-82692465D01*
X136558223Y-82712694D01*
X136550915Y-82735207D01*
X136450898Y-82952644D01*
X136322854Y-83212458D01*
X136126421Y-83602880D01*
X136058766Y-83736236D01*
G37*
G36*
X136718344Y-82332329D02*
G01*
X136790823Y-82343991D01*
X136881742Y-82367500D01*
X136928367Y-82384583D01*
X136981516Y-82408838D01*
X137033862Y-82437596D01*
X137083365Y-82470387D01*
X137129941Y-82508735D01*
X137176727Y-82557459D01*
X137218663Y-82612139D01*
X137254640Y-82672254D01*
X137283341Y-82738521D01*
X137306908Y-82820875D01*
X137321421Y-82908879D01*
X137326448Y-83006011D01*
X137323170Y-83054657D01*
X137313075Y-83105479D01*
X137296452Y-83155332D01*
X137272775Y-83204214D01*
X137243216Y-83249709D01*
X137209211Y-83289638D01*
X137169384Y-83323295D01*
X137121711Y-83350088D01*
X137069342Y-83367222D01*
X137013328Y-83372986D01*
X136876919Y-83366697D01*
X136770978Y-83352103D01*
X136701980Y-83336899D01*
X136667419Y-83330000D01*
X136641655Y-83325212D01*
X136621257Y-83311193D01*
X136608674Y-83289498D01*
X136605931Y-83258192D01*
X136608883Y-83178180D01*
X136608984Y-83019567D01*
X136600436Y-82648196D01*
X136600371Y-82644892D01*
X136736258Y-82644892D01*
X136739654Y-82842247D01*
X136744783Y-83023597D01*
X136750645Y-83205436D01*
X136809296Y-83227000D01*
X136870935Y-83241278D01*
X136935963Y-83249040D01*
X137013817Y-83251842D01*
X137051163Y-83245454D01*
X137087273Y-83225586D01*
X137118548Y-83195856D01*
X137144364Y-83157991D01*
X137164447Y-83115131D01*
X137180268Y-83067194D01*
X137190320Y-83017773D01*
X137193579Y-82970535D01*
X137187239Y-82883994D01*
X137168966Y-82807024D01*
X137139372Y-82738083D01*
X137098362Y-82675946D01*
X137045145Y-82619778D01*
X136978279Y-82569183D01*
X136892307Y-82523080D01*
X136758155Y-82468128D01*
X136757484Y-82467456D01*
X136756751Y-82467456D01*
X136756079Y-82467456D01*
X136755408Y-82466784D01*
X136754736Y-82466784D01*
X136754064Y-82466784D01*
X136753332Y-82466113D01*
X136752660Y-82466113D01*
X136751988Y-82465441D01*
X136751317Y-82465441D01*
X136750645Y-82465441D01*
X136749912Y-82464708D01*
X136749241Y-82464708D01*
X136748569Y-82464708D01*
X136747897Y-82464036D01*
X136746493Y-82464036D01*
X136745821Y-82463365D01*
X136745150Y-82463365D01*
X136744478Y-82463365D01*
X136743806Y-82462693D01*
X136743073Y-82462693D01*
X136742402Y-82462693D01*
X136741730Y-82462021D01*
X136741058Y-82462021D01*
X136740387Y-82461289D01*
X136739654Y-82461289D01*
X136738982Y-82461289D01*
X136738311Y-82460617D01*
X136736258Y-82644892D01*
X136600371Y-82644892D01*
X136598421Y-82545308D01*
X136600802Y-82468372D01*
X136603183Y-82405479D01*
X136609509Y-82371299D01*
X136624005Y-82348754D01*
X136645688Y-82334433D01*
X136672243Y-82329581D01*
X136718344Y-82332329D01*
G37*
G36*
X137586688Y-83297821D02*
G01*
X137581871Y-83327940D01*
X137568883Y-83347869D01*
X137547292Y-83360389D01*
X137513476Y-83365170D01*
X137487224Y-83361501D01*
X137468169Y-83351432D01*
X137455473Y-83333889D01*
X137448508Y-83302095D01*
X137439898Y-83232852D01*
X137431960Y-83126545D01*
X137434285Y-83028863D01*
X137442585Y-82884501D01*
X137453210Y-82692587D01*
X137459461Y-82653807D01*
X137475863Y-82630183D01*
X137500637Y-82615860D01*
X137530818Y-82610949D01*
X137557871Y-82615744D01*
X137578201Y-82629450D01*
X137590999Y-82651850D01*
X137596092Y-82690205D01*
X137585956Y-82775568D01*
X137604997Y-82750253D01*
X137634804Y-82722751D01*
X137670433Y-82697862D01*
X137715587Y-82673047D01*
X137766033Y-82652728D01*
X137829527Y-82636167D01*
X137896862Y-82626057D01*
X137968440Y-82622611D01*
X137981613Y-82630590D01*
X137995673Y-82652836D01*
X138005841Y-82680871D01*
X138012953Y-82714263D01*
X138018143Y-82784544D01*
X138016245Y-82818324D01*
X138011366Y-82841941D01*
X138003749Y-82864864D01*
X137991704Y-82880593D01*
X137975235Y-82891896D01*
X137953785Y-82900071D01*
X137930458Y-82900133D01*
X137908417Y-82889141D01*
X137891803Y-82870387D01*
X137884115Y-82847437D01*
X137881367Y-82809518D01*
X137877948Y-82770500D01*
X137872690Y-82755952D01*
X137863599Y-82742779D01*
X137817898Y-82747176D01*
X137772435Y-82760547D01*
X137729799Y-82780669D01*
X137694399Y-82803961D01*
X137633583Y-82860259D01*
X137590413Y-82915947D01*
X137568736Y-82957957D01*
X137568736Y-83068721D01*
X137577712Y-83204703D01*
X137586688Y-83297821D01*
G37*
G36*
X138486296Y-82548789D02*
G01*
X138453584Y-82547550D01*
X138426147Y-82537879D01*
X138402520Y-82519724D01*
X138384266Y-82495576D01*
X138373509Y-82469079D01*
X138369853Y-82439368D01*
X138373703Y-82412685D01*
X138385207Y-82388593D01*
X138405268Y-82366217D01*
X138430257Y-82348991D01*
X138457022Y-82338862D01*
X138486296Y-82335443D01*
X138517831Y-82338807D01*
X138543963Y-82348343D01*
X138565858Y-82363836D01*
X138582792Y-82384466D01*
X138592969Y-82408611D01*
X138596510Y-82437353D01*
X138593066Y-82465738D01*
X138583046Y-82490388D01*
X138566224Y-82512213D01*
X138531876Y-82536203D01*
X138486296Y-82548789D01*
G37*
G36*
X138750078Y-83345814D02*
G01*
X138507362Y-83349539D01*
X138222269Y-83353325D01*
X138192639Y-83348277D01*
X138175741Y-83335190D01*
X138166134Y-83315432D01*
X138162735Y-83290432D01*
X138166197Y-83266293D01*
X138175802Y-83248361D01*
X138192499Y-83236868D01*
X138222575Y-83232302D01*
X138441294Y-83232302D01*
X138439890Y-83123675D01*
X138438180Y-83053822D01*
X138438852Y-82975115D01*
X138440256Y-82911978D01*
X138443004Y-82834309D01*
X138446057Y-82766775D01*
X138366006Y-82763356D01*
X138269347Y-82763356D01*
X138245559Y-82759293D01*
X138228436Y-82747908D01*
X138217327Y-82731004D01*
X138213660Y-82711577D01*
X138217230Y-82688131D01*
X138227581Y-82668834D01*
X138244315Y-82655683D01*
X138268675Y-82651004D01*
X138397159Y-82644282D01*
X138505041Y-82642212D01*
X138525669Y-82644721D01*
X138542227Y-82651798D01*
X138555605Y-82662839D01*
X138564453Y-82676345D01*
X138574040Y-82703028D01*
X138576788Y-82723483D01*
X138568545Y-82902086D01*
X138569216Y-83056081D01*
X138576788Y-83232302D01*
X138751238Y-83232302D01*
X138780189Y-83236639D01*
X138795629Y-83247384D01*
X138804342Y-83264251D01*
X138807536Y-83287684D01*
X138803587Y-83314169D01*
X138793117Y-83331337D01*
X138776139Y-83341861D01*
X138750078Y-83345814D01*
G37*
G36*
X139308356Y-83339525D02*
G01*
X139296512Y-83354493D01*
X139275200Y-83364132D01*
X139250321Y-83366881D01*
X139225314Y-83362789D01*
X139203419Y-83352446D01*
X139190143Y-83338182D01*
X139080481Y-83124955D01*
X138990158Y-82929594D01*
X138917384Y-82750778D01*
X138911090Y-82727822D01*
X138909141Y-82707730D01*
X138915308Y-82674207D01*
X138930696Y-82651676D01*
X138952250Y-82637266D01*
X138978872Y-82630488D01*
X139008243Y-82636655D01*
X139022423Y-82645069D01*
X139037002Y-82659858D01*
X139048852Y-82678605D01*
X139058190Y-82702967D01*
X139080416Y-82771660D01*
X139102276Y-82834614D01*
X139127189Y-82899521D01*
X139150453Y-82957651D01*
X139175732Y-83017796D01*
X139198996Y-83071468D01*
X139223604Y-83126851D01*
X139245464Y-83176798D01*
X139337420Y-82988781D01*
X139405774Y-82828518D01*
X139453986Y-82692709D01*
X139473006Y-82652489D01*
X139496362Y-82631892D01*
X139524338Y-82624017D01*
X139551072Y-82629145D01*
X139564590Y-82637191D01*
X139575314Y-82649295D01*
X139582695Y-82664865D01*
X139587587Y-82687213D01*
X139587356Y-82711955D01*
X139579771Y-82743267D01*
X139559755Y-82799982D01*
X139532937Y-82863984D01*
X139433775Y-83074583D01*
X139308356Y-83339525D01*
G37*
G36*
X140097003Y-82604828D02*
G01*
X140148246Y-82623222D01*
X140197581Y-82651847D01*
X140244966Y-82691671D01*
X140283801Y-82738926D01*
X140307859Y-82788269D01*
X140309221Y-82811040D01*
X140303433Y-82836027D01*
X140289052Y-82864351D01*
X140261016Y-82901747D01*
X140234036Y-82926693D01*
X140168396Y-82966444D01*
X140078515Y-83006866D01*
X139991992Y-83040450D01*
X139901744Y-83072629D01*
X139834150Y-83095893D01*
X139850148Y-83157686D01*
X139862726Y-83183653D01*
X139879213Y-83207329D01*
X139900043Y-83227283D01*
X139926413Y-83242744D01*
X139956677Y-83252199D01*
X139993396Y-83255566D01*
X140030788Y-83252944D01*
X140068257Y-83245003D01*
X140103503Y-83232552D01*
X140130416Y-83218319D01*
X140170411Y-83190232D01*
X140190928Y-83171425D01*
X140221162Y-83139380D01*
X140247813Y-83125250D01*
X140272895Y-83124045D01*
X140298944Y-83135216D01*
X140321241Y-83157234D01*
X140329741Y-83181032D01*
X140326002Y-83209028D01*
X140306454Y-83244637D01*
X140283595Y-83272827D01*
X140260659Y-83295195D01*
X140234638Y-83314455D01*
X140200209Y-83333846D01*
X140161045Y-83349081D01*
X140109961Y-83360530D01*
X140054223Y-83366793D01*
X139985886Y-83369078D01*
X139917561Y-83362433D01*
X139860184Y-83343576D01*
X139811532Y-83313101D01*
X139770158Y-83270221D01*
X139738746Y-83219468D01*
X139715166Y-83158577D01*
X139700042Y-83085614D01*
X139694626Y-82998257D01*
X139696859Y-82956064D01*
X139831402Y-82956064D01*
X139974403Y-82916022D01*
X140071264Y-82880642D01*
X140133185Y-82849768D01*
X140169740Y-82823073D01*
X140134494Y-82766086D01*
X140102145Y-82734047D01*
X140064696Y-82715009D01*
X140022889Y-82708646D01*
X139998954Y-82710665D01*
X139974162Y-82716889D01*
X139950023Y-82727603D01*
X139924398Y-82744672D01*
X139900799Y-82766016D01*
X139879396Y-82791933D01*
X139861593Y-82822102D01*
X139845446Y-82862152D01*
X139835035Y-82906071D01*
X139831402Y-82956064D01*
X139696859Y-82956064D01*
X139697920Y-82936015D01*
X139707436Y-82879586D01*
X139722775Y-82828264D01*
X139756696Y-82757669D01*
X139799040Y-82702601D01*
X139851212Y-82658611D01*
X139912002Y-82626031D01*
X139979043Y-82606053D01*
X140052869Y-82599225D01*
X140097003Y-82604828D01*
G37*
G36*
X140634839Y-83297821D02*
G01*
X140630022Y-83327940D01*
X140617034Y-83347869D01*
X140595443Y-83360389D01*
X140561627Y-83365170D01*
X140535375Y-83361501D01*
X140516320Y-83351432D01*
X140503623Y-83333889D01*
X140496659Y-83302095D01*
X140488049Y-83232852D01*
X140480111Y-83126545D01*
X140482436Y-83028863D01*
X140490736Y-82884501D01*
X140501360Y-82692587D01*
X140507611Y-82653807D01*
X140524014Y-82630183D01*
X140548788Y-82615860D01*
X140578968Y-82610949D01*
X140606021Y-82615744D01*
X140626352Y-82629450D01*
X140639150Y-82651850D01*
X140644242Y-82690205D01*
X140634106Y-82775568D01*
X140653147Y-82750253D01*
X140682955Y-82722751D01*
X140718584Y-82697862D01*
X140763738Y-82673047D01*
X140814183Y-82652728D01*
X140877677Y-82636167D01*
X140945013Y-82626057D01*
X141016591Y-82622611D01*
X141029764Y-82630590D01*
X141043824Y-82652836D01*
X141053992Y-82680871D01*
X141061104Y-82714263D01*
X141066294Y-82784544D01*
X141064396Y-82818324D01*
X141059516Y-82841941D01*
X141051900Y-82864864D01*
X141039855Y-82880593D01*
X141023386Y-82891896D01*
X141001936Y-82900071D01*
X140978608Y-82900133D01*
X140956568Y-82889141D01*
X140939954Y-82870387D01*
X140932266Y-82847437D01*
X140929518Y-82809518D01*
X140926099Y-82770500D01*
X140920841Y-82755952D01*
X140911749Y-82742779D01*
X140866048Y-82747176D01*
X140820586Y-82760547D01*
X140777949Y-82780669D01*
X140742550Y-82803961D01*
X140681734Y-82860259D01*
X140638564Y-82915947D01*
X140616887Y-82957957D01*
X140616887Y-83068721D01*
X140625863Y-83204703D01*
X140634839Y-83297821D01*
G37*
G36*
X142570952Y-83345020D02*
G01*
X142425200Y-83347707D01*
X142270350Y-83353203D01*
X142132903Y-83355950D01*
X142022383Y-83351188D01*
X142004225Y-83345626D01*
X141989766Y-83333406D01*
X141978358Y-83312903D01*
X141968942Y-83273928D01*
X141965108Y-83211664D01*
X141971332Y-83150700D01*
X141990936Y-83085085D01*
X142022481Y-83021440D01*
X142067568Y-82958201D01*
X142122496Y-82902574D01*
X142184377Y-82859282D01*
X142320230Y-82779951D01*
X142377145Y-82741618D01*
X142412153Y-82709470D01*
X142435522Y-82677698D01*
X142449258Y-82645814D01*
X142455247Y-82614655D01*
X142457501Y-82573274D01*
X142452222Y-82526898D01*
X142437920Y-82492824D01*
X142415430Y-82467944D01*
X142385637Y-82450638D01*
X142346316Y-82439291D01*
X142294774Y-82435094D01*
X142259306Y-82438694D01*
X142224767Y-82449570D01*
X142190544Y-82468250D01*
X142145676Y-82504398D01*
X142113668Y-82543171D01*
X142089366Y-82571564D01*
X142077575Y-82579475D01*
X142066102Y-82582800D01*
X142043937Y-82581456D01*
X142017254Y-82571870D01*
X141997650Y-82556482D01*
X141987517Y-82535966D01*
X141987197Y-82510990D01*
X141999485Y-82474112D01*
X142015992Y-82448264D01*
X142040823Y-82420622D01*
X142070333Y-82395017D01*
X142105425Y-82370369D01*
X142144476Y-82349549D01*
X142190910Y-82332451D01*
X142239795Y-82321480D01*
X142288668Y-82317857D01*
X142364897Y-82322965D01*
X142427112Y-82337110D01*
X142477789Y-82359016D01*
X142518928Y-82388138D01*
X142552278Y-82425706D01*
X142576854Y-82471995D01*
X142592540Y-82528873D01*
X142598185Y-82598859D01*
X142594070Y-82656663D01*
X142582414Y-82706138D01*
X142563889Y-82748647D01*
X142538651Y-82785277D01*
X142506604Y-82817134D01*
X142456377Y-82855156D01*
X142382519Y-82900437D01*
X142285982Y-82953255D01*
X142229993Y-82989527D01*
X142184987Y-83032084D01*
X142149310Y-83080339D01*
X142126125Y-83128011D01*
X142112612Y-83178727D01*
X142107990Y-83234256D01*
X142257527Y-83234256D01*
X142370184Y-83234256D01*
X142463119Y-83228700D01*
X142533339Y-83221250D01*
X142546345Y-83221250D01*
X142562037Y-83221250D01*
X142576081Y-83221250D01*
X142591102Y-83223998D01*
X142602704Y-83230471D01*
X142612657Y-83241461D01*
X142617419Y-83258192D01*
X142616076Y-83294096D01*
X142610520Y-83312642D01*
X142600689Y-83329328D01*
X142587062Y-83341206D01*
X142570952Y-83345020D01*
G37*
G36*
X143054553Y-83347951D02*
G01*
X143021866Y-83347090D01*
X142994463Y-83337642D01*
X142970839Y-83319558D01*
X142952584Y-83295410D01*
X142941827Y-83268913D01*
X142938171Y-83239202D01*
X142942070Y-83212099D01*
X142953686Y-83187792D01*
X142973892Y-83165380D01*
X142999060Y-83148109D01*
X143025713Y-83138001D01*
X143054553Y-83134605D01*
X143086068Y-83137999D01*
X143112221Y-83147630D01*
X143134176Y-83163304D01*
X143151121Y-83184121D01*
X143161294Y-83208374D01*
X143164829Y-83237126D01*
X143161415Y-83265534D01*
X143151489Y-83290206D01*
X143134848Y-83312048D01*
X143100695Y-83335830D01*
X143054553Y-83347951D01*
G37*
G36*
X143901221Y-82330641D02*
G01*
X143952451Y-82345273D01*
X143999719Y-82369284D01*
X144042332Y-82402609D01*
X144078054Y-82444968D01*
X144108278Y-82501100D01*
X144129137Y-82564715D01*
X144141128Y-82640075D01*
X144147601Y-82799443D01*
X144142838Y-82980000D01*
X144134591Y-83065697D01*
X144124398Y-83118668D01*
X144096371Y-83202444D01*
X144063520Y-83265580D01*
X144044545Y-83290549D01*
X144023220Y-83310949D01*
X143977058Y-83340746D01*
X143922409Y-83358637D01*
X143860188Y-83365170D01*
X143787709Y-83365170D01*
X143723994Y-83359137D01*
X143666687Y-83341540D01*
X143615073Y-83313068D01*
X143571676Y-83275472D01*
X143537529Y-83228784D01*
X143512569Y-83170448D01*
X143510443Y-83160922D01*
X143657161Y-83160922D01*
X143680441Y-83199721D01*
X143709633Y-83226184D01*
X143745598Y-83242251D01*
X143790457Y-83247934D01*
X143858112Y-83241767D01*
X143886784Y-83233185D01*
X143914532Y-83219541D01*
X143939344Y-83200204D01*
X143961671Y-83172585D01*
X143979702Y-83139381D01*
X143995560Y-83096564D01*
X144007466Y-83004118D01*
X144016748Y-82830889D01*
X144016889Y-82733991D01*
X144011924Y-82643250D01*
X143930721Y-82795969D01*
X143844430Y-82932335D01*
X143753227Y-83053612D01*
X143657161Y-83160922D01*
X143510443Y-83160922D01*
X143498142Y-83105793D01*
X143493091Y-83031901D01*
X143493091Y-82962780D01*
X143493091Y-82874487D01*
X143493091Y-82818555D01*
X143623639Y-82818555D01*
X143625043Y-82912344D01*
X143628463Y-83009614D01*
X143629439Y-83026711D01*
X143630478Y-83042404D01*
X143751791Y-82868986D01*
X143864530Y-82693064D01*
X143968876Y-82514534D01*
X143940530Y-82482227D01*
X143907021Y-82458724D01*
X143868913Y-82444135D01*
X143826666Y-82439185D01*
X143776451Y-82444451D01*
X143736798Y-82459070D01*
X143705338Y-82482355D01*
X143680758Y-82513754D01*
X143658516Y-82559215D01*
X143639392Y-82622733D01*
X143626692Y-82704860D01*
X143623639Y-82818555D01*
X143493091Y-82818555D01*
X143493091Y-82783445D01*
X143497854Y-82683183D01*
X143512569Y-82592569D01*
X143536139Y-82506962D01*
X143564358Y-82451956D01*
X143602244Y-82407343D01*
X143650628Y-82371835D01*
X143705978Y-82346885D01*
X143770436Y-82331207D01*
X143845839Y-82325673D01*
X143901221Y-82330641D01*
G37*
D11*
X123046680Y-64988095D02*
X122237157Y-64988095D01*
X122237157Y-64988095D02*
X122141919Y-65035714D01*
X122141919Y-65035714D02*
X122094300Y-65083333D01*
X122094300Y-65083333D02*
X122046680Y-65178571D01*
X122046680Y-65178571D02*
X122046680Y-65369047D01*
X122046680Y-65369047D02*
X122094300Y-65464285D01*
X122094300Y-65464285D02*
X122141919Y-65511904D01*
X122141919Y-65511904D02*
X122237157Y-65559523D01*
X122237157Y-65559523D02*
X123046680Y-65559523D01*
X122046680Y-66559523D02*
X122046680Y-65988095D01*
X122046680Y-66273809D02*
X123046680Y-66273809D01*
X123046680Y-66273809D02*
X122903823Y-66178571D01*
X122903823Y-66178571D02*
X122808585Y-66083333D01*
X122808585Y-66083333D02*
X122760966Y-65988095D01*
X123456319Y-62765499D02*
X123694414Y-62765499D01*
X123599176Y-63003594D02*
X123694414Y-62765499D01*
X123694414Y-62765499D02*
X123599176Y-62527404D01*
X123884890Y-62908356D02*
X123694414Y-62765499D01*
X123694414Y-62765499D02*
X123884890Y-62622642D01*
X124546680Y-62765500D02*
X124308585Y-62765500D01*
X124403823Y-62527405D02*
X124308585Y-62765500D01*
X124308585Y-62765500D02*
X124403823Y-63003595D01*
X124118109Y-62622643D02*
X124308585Y-62765500D01*
X124308585Y-62765500D02*
X124118109Y-62908357D01*
X125487200Y-72643332D02*
X125534819Y-72500475D01*
X125534819Y-72500475D02*
X125534819Y-72262380D01*
X125534819Y-72262380D02*
X125487200Y-72167142D01*
X125487200Y-72167142D02*
X125439580Y-72119523D01*
X125439580Y-72119523D02*
X125344342Y-72071904D01*
X125344342Y-72071904D02*
X125249104Y-72071904D01*
X125249104Y-72071904D02*
X125153866Y-72119523D01*
X125153866Y-72119523D02*
X125106247Y-72167142D01*
X125106247Y-72167142D02*
X125058628Y-72262380D01*
X125058628Y-72262380D02*
X125011009Y-72452856D01*
X125011009Y-72452856D02*
X124963390Y-72548094D01*
X124963390Y-72548094D02*
X124915771Y-72595713D01*
X124915771Y-72595713D02*
X124820533Y-72643332D01*
X124820533Y-72643332D02*
X124725295Y-72643332D01*
X124725295Y-72643332D02*
X124630057Y-72595713D01*
X124630057Y-72595713D02*
X124582438Y-72548094D01*
X124582438Y-72548094D02*
X124534819Y-72452856D01*
X124534819Y-72452856D02*
X124534819Y-72214761D01*
X124534819Y-72214761D02*
X124582438Y-72071904D01*
X124534819Y-71738570D02*
X125534819Y-71500475D01*
X125534819Y-71500475D02*
X124820533Y-71309999D01*
X124820533Y-71309999D02*
X125534819Y-71119523D01*
X125534819Y-71119523D02*
X124534819Y-70881428D01*
X124630057Y-70548094D02*
X124582438Y-70500475D01*
X124582438Y-70500475D02*
X124534819Y-70405237D01*
X124534819Y-70405237D02*
X124534819Y-70167142D01*
X124534819Y-70167142D02*
X124582438Y-70071904D01*
X124582438Y-70071904D02*
X124630057Y-70024285D01*
X124630057Y-70024285D02*
X124725295Y-69976666D01*
X124725295Y-69976666D02*
X124820533Y-69976666D01*
X124820533Y-69976666D02*
X124963390Y-70024285D01*
X124963390Y-70024285D02*
X125534819Y-70595713D01*
X125534819Y-70595713D02*
X125534819Y-69976666D01*
X108466666Y-66654819D02*
X108466666Y-67369104D01*
X108466666Y-67369104D02*
X108419047Y-67511961D01*
X108419047Y-67511961D02*
X108323809Y-67607200D01*
X108323809Y-67607200D02*
X108180952Y-67654819D01*
X108180952Y-67654819D02*
X108085714Y-67654819D01*
X108895238Y-66750057D02*
X108942857Y-66702438D01*
X108942857Y-66702438D02*
X109038095Y-66654819D01*
X109038095Y-66654819D02*
X109276190Y-66654819D01*
X109276190Y-66654819D02*
X109371428Y-66702438D01*
X109371428Y-66702438D02*
X109419047Y-66750057D01*
X109419047Y-66750057D02*
X109466666Y-66845295D01*
X109466666Y-66845295D02*
X109466666Y-66940533D01*
X109466666Y-66940533D02*
X109419047Y-67083390D01*
X109419047Y-67083390D02*
X108847619Y-67654819D01*
X108847619Y-67654819D02*
X109466666Y-67654819D01*
X113666666Y-81954819D02*
X113666666Y-82669104D01*
X113666666Y-82669104D02*
X113619047Y-82811961D01*
X113619047Y-82811961D02*
X113523809Y-82907200D01*
X113523809Y-82907200D02*
X113380952Y-82954819D01*
X113380952Y-82954819D02*
X113285714Y-82954819D01*
X114047619Y-81954819D02*
X114666666Y-81954819D01*
X114666666Y-81954819D02*
X114333333Y-82335771D01*
X114333333Y-82335771D02*
X114476190Y-82335771D01*
X114476190Y-82335771D02*
X114571428Y-82383390D01*
X114571428Y-82383390D02*
X114619047Y-82431009D01*
X114619047Y-82431009D02*
X114666666Y-82526247D01*
X114666666Y-82526247D02*
X114666666Y-82764342D01*
X114666666Y-82764342D02*
X114619047Y-82859580D01*
X114619047Y-82859580D02*
X114571428Y-82907200D01*
X114571428Y-82907200D02*
X114476190Y-82954819D01*
X114476190Y-82954819D02*
X114190476Y-82954819D01*
X114190476Y-82954819D02*
X114095238Y-82907200D01*
X114095238Y-82907200D02*
X114047619Y-82859580D01*
X133866666Y-65854819D02*
X133866666Y-66569104D01*
X133866666Y-66569104D02*
X133819047Y-66711961D01*
X133819047Y-66711961D02*
X133723809Y-66807200D01*
X133723809Y-66807200D02*
X133580952Y-66854819D01*
X133580952Y-66854819D02*
X133485714Y-66854819D01*
X134866666Y-66854819D02*
X134295238Y-66854819D01*
X134580952Y-66854819D02*
X134580952Y-65854819D01*
X134580952Y-65854819D02*
X134485714Y-65997676D01*
X134485714Y-65997676D02*
X134390476Y-66092914D01*
X134390476Y-66092914D02*
X134295238Y-66140533D01*
X111866666Y-62914819D02*
X111866666Y-63629104D01*
X111866666Y-63629104D02*
X111819047Y-63771961D01*
X111819047Y-63771961D02*
X111723809Y-63867200D01*
X111723809Y-63867200D02*
X111580952Y-63914819D01*
X111580952Y-63914819D02*
X111485714Y-63914819D01*
X112771428Y-63248152D02*
X112771428Y-63914819D01*
X112533333Y-62867200D02*
X112295238Y-63581485D01*
X112295238Y-63581485D02*
X112914285Y-63581485D01*
X110907200Y-72633332D02*
X110954819Y-72490475D01*
X110954819Y-72490475D02*
X110954819Y-72252380D01*
X110954819Y-72252380D02*
X110907200Y-72157142D01*
X110907200Y-72157142D02*
X110859580Y-72109523D01*
X110859580Y-72109523D02*
X110764342Y-72061904D01*
X110764342Y-72061904D02*
X110669104Y-72061904D01*
X110669104Y-72061904D02*
X110573866Y-72109523D01*
X110573866Y-72109523D02*
X110526247Y-72157142D01*
X110526247Y-72157142D02*
X110478628Y-72252380D01*
X110478628Y-72252380D02*
X110431009Y-72442856D01*
X110431009Y-72442856D02*
X110383390Y-72538094D01*
X110383390Y-72538094D02*
X110335771Y-72585713D01*
X110335771Y-72585713D02*
X110240533Y-72633332D01*
X110240533Y-72633332D02*
X110145295Y-72633332D01*
X110145295Y-72633332D02*
X110050057Y-72585713D01*
X110050057Y-72585713D02*
X110002438Y-72538094D01*
X110002438Y-72538094D02*
X109954819Y-72442856D01*
X109954819Y-72442856D02*
X109954819Y-72204761D01*
X109954819Y-72204761D02*
X110002438Y-72061904D01*
X109954819Y-71728570D02*
X110954819Y-71490475D01*
X110954819Y-71490475D02*
X110240533Y-71299999D01*
X110240533Y-71299999D02*
X110954819Y-71109523D01*
X110954819Y-71109523D02*
X109954819Y-70871428D01*
X110954819Y-69966666D02*
X110954819Y-70538094D01*
X110954819Y-70252380D02*
X109954819Y-70252380D01*
X109954819Y-70252380D02*
X110097676Y-70347618D01*
X110097676Y-70347618D02*
X110192914Y-70442856D01*
X110192914Y-70442856D02*
X110240533Y-70538094D01*
D12*
%TO.C,U1*%
G36*
X119898000Y-66190500D02*
G01*
X119644000Y-66190500D01*
X119644000Y-65809499D01*
X119898000Y-65809499D01*
X119898000Y-66190500D01*
G37*
G36*
X125359000Y-66690501D02*
G01*
X125105000Y-66690501D01*
X125105000Y-66309501D01*
X125359000Y-66309501D01*
X125359000Y-66690501D01*
G37*
D13*
X120329800Y-63578300D02*
X120329800Y-64040260D01*
X120329800Y-67921700D02*
X120791760Y-67921700D01*
X124673200Y-67921700D02*
X124673200Y-67459740D01*
X124673200Y-63578300D02*
X124211240Y-63578300D01*
X120791760Y-63578300D02*
X120329800Y-63578300D01*
X120329800Y-67459740D02*
X120329800Y-67921700D01*
X124211240Y-67921700D02*
X124673200Y-67921700D01*
X124673200Y-64040260D02*
X124673200Y-63578300D01*
D12*
%TO.C,G1*%
G36*
X109672196Y-84949207D02*
G01*
X109679898Y-84958897D01*
X109680730Y-84970692D01*
X109677350Y-84986455D01*
X109664611Y-85000256D01*
X109638614Y-85015794D01*
X109627000Y-85021667D01*
X109595113Y-85037294D01*
X109575718Y-85045388D01*
X109563676Y-85046835D01*
X109553849Y-85042523D01*
X109544631Y-85035890D01*
X109532396Y-85018619D01*
X109536615Y-84999479D01*
X109554625Y-84980651D01*
X109583767Y-84964313D01*
X109621378Y-84952647D01*
X109651423Y-84948419D01*
X109672196Y-84949207D01*
G37*
G36*
X109058198Y-83184900D02*
G01*
X109077180Y-83194043D01*
X109086042Y-83213533D01*
X109085185Y-83245756D01*
X109075840Y-83289929D01*
X109064648Y-83347162D01*
X109064909Y-83395651D01*
X109077728Y-83442009D01*
X109104211Y-83492849D01*
X109111773Y-83504967D01*
X109133558Y-83541168D01*
X109146392Y-83570065D01*
X109153057Y-83599977D01*
X109156272Y-83638084D01*
X109154932Y-83693684D01*
X109142670Y-83740889D01*
X109117220Y-83785121D01*
X109076317Y-83831806D01*
X109074622Y-83833507D01*
X109044888Y-83860882D01*
X109023394Y-83873906D01*
X109006722Y-83873903D01*
X108993954Y-83864815D01*
X108984979Y-83852356D01*
X108983617Y-83836842D01*
X108990415Y-83813276D01*
X109002860Y-83783540D01*
X109019179Y-83726689D01*
X109017322Y-83669328D01*
X108997065Y-83609439D01*
X108980066Y-83578081D01*
X108949992Y-83522932D01*
X108932243Y-83475476D01*
X108925145Y-83429774D01*
X108926282Y-83387350D01*
X108934855Y-83343531D01*
X108951342Y-83298881D01*
X108973370Y-83257040D01*
X108998566Y-83221651D01*
X109024560Y-83196352D01*
X109048977Y-83184786D01*
X109058198Y-83184900D01*
G37*
G36*
X109931191Y-83187534D02*
G01*
X109942293Y-83202881D01*
X109943927Y-83231228D01*
X109936694Y-83274843D01*
X109935678Y-83279380D01*
X109927407Y-83323329D01*
X109925766Y-83360133D01*
X109931774Y-83395568D01*
X109946447Y-83435411D01*
X109970804Y-83485440D01*
X109972587Y-83488876D01*
X110004088Y-83565395D01*
X110017304Y-83637937D01*
X110012346Y-83705562D01*
X109989323Y-83767329D01*
X109948344Y-83822300D01*
X109931994Y-83837829D01*
X109897927Y-83864239D01*
X109872185Y-83875104D01*
X109852193Y-83871099D01*
X109841563Y-83861451D01*
X109835475Y-83849100D01*
X109838444Y-83832820D01*
X109851603Y-83806764D01*
X109852447Y-83805278D01*
X109866354Y-83775616D01*
X109873610Y-83743773D01*
X109875951Y-83701659D01*
X109875984Y-83695649D01*
X109875201Y-83659726D01*
X109871240Y-83632501D01*
X109861925Y-83606701D01*
X109845082Y-83575048D01*
X109834592Y-83557165D01*
X109802455Y-83497148D01*
X109783715Y-83446095D01*
X109777435Y-83399693D01*
X109782679Y-83353627D01*
X109786899Y-83337347D01*
X109801015Y-83302942D01*
X109822542Y-83266412D01*
X109848094Y-83232003D01*
X109874285Y-83203964D01*
X109897729Y-83186542D01*
X109910016Y-83182923D01*
X109931191Y-83187534D01*
G37*
G36*
X109504890Y-82899618D02*
G01*
X109525773Y-82915881D01*
X109549717Y-82941677D01*
X109562112Y-82958003D01*
X109578117Y-82982934D01*
X109587317Y-83004820D01*
X109591527Y-83030737D01*
X109592565Y-83067758D01*
X109592553Y-83076545D01*
X109592007Y-83112007D01*
X109589253Y-83137767D01*
X109582184Y-83159986D01*
X109568694Y-83184819D01*
X109546675Y-83218424D01*
X109541265Y-83226441D01*
X109514293Y-83268717D01*
X109498205Y-83300505D01*
X109491058Y-83326054D01*
X109490230Y-83338079D01*
X109490912Y-83354546D01*
X109493941Y-83370586D01*
X109500795Y-83389675D01*
X109512953Y-83415289D01*
X109531891Y-83450903D01*
X109559004Y-83499843D01*
X109585667Y-83565376D01*
X109593875Y-83631855D01*
X109583525Y-83696760D01*
X109568430Y-83733772D01*
X109546062Y-83769599D01*
X109520285Y-83798772D01*
X109494477Y-83818606D01*
X109472018Y-83826417D01*
X109458012Y-83821525D01*
X109455896Y-83809657D01*
X109455393Y-83783032D01*
X109456522Y-83746366D01*
X109457669Y-83726275D01*
X109463492Y-83637192D01*
X109418172Y-83573692D01*
X109376413Y-83511294D01*
X109347807Y-83458760D01*
X109330950Y-83412928D01*
X109324435Y-83370634D01*
X109324249Y-83362439D01*
X109327183Y-83319438D01*
X109337352Y-83278334D01*
X109356547Y-83234611D01*
X109386557Y-83183755D01*
X109407652Y-83152084D01*
X109432861Y-83114768D01*
X109448753Y-83088541D01*
X109457176Y-83068456D01*
X109459977Y-83049568D01*
X109459004Y-83026931D01*
X109458096Y-83017026D01*
X109454129Y-82984026D01*
X109449491Y-82957552D01*
X109446747Y-82947629D01*
X109448021Y-82929074D01*
X109459446Y-82908782D01*
X109474367Y-82893237D01*
X109488005Y-82891787D01*
X109504890Y-82899618D01*
G37*
G36*
X106758582Y-85083759D02*
G01*
X106768551Y-85097728D01*
X106781579Y-85124752D01*
X106798545Y-85166666D01*
X106820326Y-85225303D01*
X106821871Y-85229577D01*
X106850097Y-85307730D01*
X106960594Y-85314709D01*
X107015579Y-85318509D01*
X107053848Y-85322135D01*
X107078211Y-85326106D01*
X107091479Y-85330940D01*
X107096462Y-85337154D01*
X107096769Y-85339809D01*
X107089574Y-85348837D01*
X107070024Y-85367148D01*
X107041173Y-85392011D01*
X107008846Y-85418477D01*
X106966739Y-85453478D01*
X106939274Y-85479613D01*
X106924730Y-85498696D01*
X106921238Y-85510650D01*
X106923953Y-85528984D01*
X106931020Y-85560928D01*
X106941241Y-85601356D01*
X106949111Y-85630115D01*
X106963783Y-85685915D01*
X106970521Y-85724243D01*
X106968251Y-85745919D01*
X106955902Y-85751764D01*
X106932402Y-85742600D01*
X106896679Y-85719248D01*
X106864173Y-85695162D01*
X106820902Y-85662149D01*
X106789493Y-85639875D01*
X106765638Y-85628107D01*
X106745032Y-85626612D01*
X106723369Y-85635157D01*
X106696343Y-85653508D01*
X106659649Y-85681432D01*
X106656379Y-85683912D01*
X106611219Y-85717261D01*
X106578971Y-85738706D01*
X106557706Y-85749050D01*
X106545493Y-85749097D01*
X106540403Y-85739651D01*
X106539923Y-85732395D01*
X106542226Y-85715066D01*
X106548454Y-85683689D01*
X106557587Y-85643118D01*
X106565928Y-85608776D01*
X106591934Y-85504993D01*
X106553706Y-85469862D01*
X106525532Y-85444503D01*
X106490680Y-85413859D01*
X106461758Y-85388903D01*
X106432749Y-85362444D01*
X106418541Y-85344716D01*
X106417613Y-85333711D01*
X106418803Y-85332223D01*
X106432330Y-85327430D01*
X106461112Y-85322476D01*
X106500878Y-85317954D01*
X106545803Y-85314550D01*
X106662038Y-85307730D01*
X106701115Y-85196075D01*
X106717055Y-85152632D01*
X106731708Y-85116495D01*
X106743464Y-85091388D01*
X106750716Y-85081037D01*
X106750795Y-85081009D01*
X106758582Y-85083759D01*
G37*
G36*
X109684619Y-85663564D02*
G01*
X109700395Y-85687718D01*
X109711161Y-85722616D01*
X109714923Y-85761844D01*
X109712957Y-85788613D01*
X109703930Y-85803979D01*
X109683173Y-85815924D01*
X109666075Y-85822117D01*
X109632718Y-85832759D01*
X109585672Y-85847085D01*
X109527507Y-85864328D01*
X109460792Y-85883720D01*
X109388098Y-85904496D01*
X109353461Y-85914278D01*
X109268786Y-85938119D01*
X109170416Y-85965849D01*
X109063455Y-85996027D01*
X108953006Y-86027214D01*
X108844173Y-86057967D01*
X108742058Y-86086847D01*
X108698923Y-86099056D01*
X108540335Y-86143680D01*
X108399533Y-86182697D01*
X108275649Y-86216322D01*
X108167817Y-86244767D01*
X108075172Y-86268246D01*
X107996846Y-86286972D01*
X107931973Y-86301161D01*
X107879687Y-86311025D01*
X107839122Y-86316778D01*
X107809410Y-86318633D01*
X107808746Y-86318631D01*
X107771072Y-86314071D01*
X107732711Y-86303089D01*
X107726116Y-86300320D01*
X107690698Y-86278829D01*
X107663269Y-86251980D01*
X107647690Y-86224257D01*
X107645854Y-86207072D01*
X107647559Y-86200239D01*
X107652151Y-86195149D01*
X107662187Y-86191536D01*
X107680224Y-86189134D01*
X107708820Y-86187677D01*
X107750532Y-86186897D01*
X107807919Y-86186529D01*
X107844115Y-86186413D01*
X107926489Y-86185843D01*
X107992299Y-86184211D01*
X108044515Y-86180862D01*
X108086108Y-86175140D01*
X108120046Y-86166392D01*
X108149300Y-86153961D01*
X108176841Y-86137194D01*
X108205638Y-86115435D01*
X108220230Y-86103481D01*
X108252747Y-86078852D01*
X108286969Y-86056506D01*
X108303269Y-86047464D01*
X108325956Y-86038170D01*
X108364095Y-86024790D01*
X108414286Y-86008376D01*
X108473132Y-85989979D01*
X108537233Y-85970652D01*
X108603190Y-85951447D01*
X108667604Y-85933416D01*
X108698923Y-85924971D01*
X108719176Y-85919391D01*
X108756079Y-85909016D01*
X108807503Y-85894453D01*
X108871322Y-85876305D01*
X108945407Y-85855181D01*
X109027632Y-85831684D01*
X109115867Y-85806421D01*
X109198861Y-85782618D01*
X109289237Y-85756799D01*
X109374346Y-85732721D01*
X109452251Y-85710914D01*
X109521017Y-85691909D01*
X109578707Y-85676239D01*
X109623384Y-85664433D01*
X109653113Y-85657023D01*
X109665840Y-85654538D01*
X109684619Y-85663564D01*
G37*
G36*
X112235710Y-85084295D02*
G01*
X112244664Y-85098461D01*
X112257767Y-85127000D01*
X112273284Y-85164351D01*
X112287254Y-85201544D01*
X112293328Y-85219807D01*
X112306295Y-85261924D01*
X112316657Y-85288912D01*
X112327949Y-85304187D01*
X112343709Y-85311169D01*
X112367471Y-85313276D01*
X112390435Y-85313675D01*
X112450087Y-85315831D01*
X112501256Y-85319973D01*
X112541037Y-85325706D01*
X112566525Y-85332633D01*
X112574684Y-85338802D01*
X112568997Y-85349091D01*
X112550690Y-85368422D01*
X112522668Y-85393971D01*
X112489972Y-85421205D01*
X112453203Y-85452070D01*
X112424401Y-85479050D01*
X112406331Y-85499397D01*
X112401461Y-85509102D01*
X112403898Y-85525595D01*
X112410439Y-85555784D01*
X112419928Y-85594547D01*
X112425860Y-85617199D01*
X112439876Y-85672614D01*
X112447601Y-85711701D01*
X112449210Y-85736569D01*
X112444878Y-85749326D01*
X112437143Y-85752230D01*
X112424325Y-85746628D01*
X112399912Y-85731474D01*
X112367703Y-85709247D01*
X112339794Y-85688730D01*
X112304059Y-85662709D01*
X112273061Y-85641849D01*
X112250637Y-85628634D01*
X112241616Y-85625230D01*
X112228420Y-85630759D01*
X112203532Y-85645727D01*
X112170783Y-85667706D01*
X112141462Y-85688730D01*
X112098618Y-85719613D01*
X112068316Y-85739385D01*
X112047937Y-85749257D01*
X112034861Y-85750439D01*
X112026467Y-85744142D01*
X112025302Y-85742390D01*
X112025407Y-85729899D01*
X112029756Y-85702644D01*
X112037452Y-85664711D01*
X112047600Y-85620186D01*
X112059303Y-85573154D01*
X112071664Y-85527703D01*
X112074652Y-85517407D01*
X112069175Y-85503747D01*
X112048377Y-85479486D01*
X112012887Y-85445308D01*
X111985222Y-85420688D01*
X111943729Y-85383979D01*
X111917354Y-85357596D01*
X111906853Y-85339706D01*
X111912980Y-85328476D01*
X111936491Y-85322073D01*
X111978143Y-85318664D01*
X112028059Y-85316761D01*
X112071181Y-85314680D01*
X112106841Y-85311700D01*
X112130640Y-85308266D01*
X112138041Y-85305677D01*
X112143887Y-85293612D01*
X112154027Y-85267296D01*
X112166835Y-85231096D01*
X112175891Y-85204117D01*
X112190398Y-85162228D01*
X112204322Y-85125871D01*
X112215664Y-85100091D01*
X112220418Y-85091771D01*
X112228572Y-85082955D01*
X112235710Y-85084295D01*
G37*
G36*
X111238003Y-81983488D02*
G01*
X111320870Y-82009652D01*
X111400478Y-82053989D01*
X111461145Y-82102703D01*
X111520906Y-82169936D01*
X111564121Y-82244660D01*
X111589988Y-82324638D01*
X111597705Y-82407630D01*
X111591697Y-82467327D01*
X111575320Y-82524255D01*
X111546399Y-82590736D01*
X111507208Y-82663589D01*
X111460019Y-82739632D01*
X111407107Y-82815681D01*
X111350745Y-82888556D01*
X111293207Y-82955075D01*
X111236765Y-83012054D01*
X111183694Y-83056312D01*
X111159251Y-83072605D01*
X111078412Y-83110564D01*
X110994760Y-83129362D01*
X110909206Y-83128852D01*
X110861321Y-83120206D01*
X110777201Y-83090571D01*
X110699814Y-83045324D01*
X110632551Y-82987110D01*
X110578801Y-82918573D01*
X110559871Y-82884961D01*
X110547194Y-82858241D01*
X110538828Y-82835282D01*
X110533883Y-82810834D01*
X110531471Y-82779647D01*
X110531295Y-82769775D01*
X110799828Y-82769775D01*
X110809051Y-82802971D01*
X110830264Y-82830325D01*
X110856418Y-82849160D01*
X110903989Y-82867645D01*
X110950032Y-82866695D01*
X110995392Y-82846268D01*
X111001555Y-82841982D01*
X111039461Y-82809504D01*
X111083742Y-82763433D01*
X111131571Y-82707409D01*
X111180117Y-82645074D01*
X111226553Y-82580070D01*
X111268051Y-82516037D01*
X111301781Y-82456617D01*
X111303509Y-82453253D01*
X111322146Y-82414527D01*
X111332200Y-82386355D01*
X111335325Y-82362649D01*
X111333819Y-82341819D01*
X111318797Y-82296379D01*
X111289059Y-82262181D01*
X111247420Y-82241974D01*
X111227900Y-82238407D01*
X111193860Y-82239622D01*
X111159641Y-82251614D01*
X111123172Y-82275868D01*
X111082384Y-82313867D01*
X111035210Y-82367095D01*
X111016471Y-82390014D01*
X110946182Y-82479977D01*
X110890047Y-82557893D01*
X110847704Y-82624796D01*
X110818794Y-82681721D01*
X110802955Y-82729703D01*
X110799828Y-82769775D01*
X110531295Y-82769775D01*
X110530701Y-82736471D01*
X110530654Y-82712469D01*
X110530654Y-82598592D01*
X110582109Y-82497546D01*
X110628204Y-82414493D01*
X110680840Y-82332381D01*
X110737802Y-82253850D01*
X110796874Y-82181541D01*
X110855840Y-82118093D01*
X110912485Y-82066148D01*
X110964592Y-82028344D01*
X110985526Y-82016864D01*
X111068763Y-81986811D01*
X111153444Y-81975780D01*
X111238003Y-81983488D01*
G37*
G36*
X109527568Y-81523109D02*
G01*
X109566489Y-81525822D01*
X109619702Y-81530056D01*
X109684636Y-81535580D01*
X109758716Y-81542160D01*
X109839372Y-81549562D01*
X109924030Y-81557553D01*
X110010118Y-81565898D01*
X110095065Y-81574366D01*
X110176297Y-81582722D01*
X110198339Y-81585043D01*
X110257956Y-81591857D01*
X110300819Y-81598596D01*
X110329663Y-81606589D01*
X110347222Y-81617169D01*
X110356231Y-81631667D01*
X110359423Y-81651413D01*
X110359692Y-81663604D01*
X110358287Y-81694499D01*
X110354504Y-81735310D01*
X110348991Y-81781578D01*
X110342396Y-81828849D01*
X110335366Y-81872665D01*
X110328549Y-81908572D01*
X110322593Y-81932111D01*
X110319750Y-81938388D01*
X110299596Y-81951398D01*
X110273664Y-81947785D01*
X110240958Y-81927201D01*
X110211348Y-81900380D01*
X110159570Y-81857747D01*
X110107014Y-81833095D01*
X110050625Y-81825002D01*
X110049495Y-81825000D01*
X110041705Y-81824465D01*
X110035301Y-81824005D01*
X110029960Y-81825335D01*
X110025361Y-81830170D01*
X110021178Y-81840226D01*
X110017091Y-81857218D01*
X110012775Y-81882862D01*
X110007908Y-81918874D01*
X110002167Y-81966968D01*
X109995230Y-82028861D01*
X109986773Y-82106268D01*
X109976473Y-82200903D01*
X109973333Y-82229643D01*
X109963777Y-82317448D01*
X109956289Y-82388013D01*
X109950755Y-82443514D01*
X109947060Y-82486128D01*
X109945087Y-82518030D01*
X109944722Y-82541397D01*
X109945849Y-82558405D01*
X109948354Y-82571229D01*
X109952121Y-82582047D01*
X109954395Y-82587280D01*
X109964209Y-82616558D01*
X109967654Y-82642735D01*
X109967341Y-82646675D01*
X109964012Y-82659327D01*
X109955443Y-82666533D01*
X109936995Y-82670026D01*
X109904027Y-82671539D01*
X109900538Y-82671629D01*
X109863631Y-82671031D01*
X109814740Y-82668151D01*
X109761218Y-82663496D01*
X109725876Y-82659570D01*
X109666684Y-82651441D01*
X109625369Y-82642949D01*
X109600299Y-82632636D01*
X109589844Y-82619045D01*
X109592372Y-82600718D01*
X109606253Y-82576199D01*
X109616465Y-82561807D01*
X109625245Y-82549152D01*
X109632726Y-82535805D01*
X109639245Y-82519769D01*
X109645139Y-82499046D01*
X109650745Y-82471638D01*
X109656399Y-82435548D01*
X109662439Y-82388778D01*
X109669201Y-82329332D01*
X109677022Y-82255212D01*
X109686239Y-82164420D01*
X109690291Y-82123996D01*
X109697333Y-82054227D01*
X109704099Y-81988334D01*
X109710239Y-81929640D01*
X109715402Y-81881471D01*
X109719237Y-81847148D01*
X109720916Y-81833361D01*
X109727209Y-81785923D01*
X109664893Y-81786137D01*
X109596919Y-81793864D01*
X109540149Y-81816967D01*
X109495730Y-81853075D01*
X109466752Y-81876208D01*
X109440336Y-81883009D01*
X109419274Y-81873232D01*
X109410952Y-81860626D01*
X109407855Y-81841186D01*
X109407875Y-81807102D01*
X109410491Y-81762927D01*
X109415182Y-81713212D01*
X109421425Y-81662511D01*
X109428701Y-81615376D01*
X109436488Y-81576359D01*
X109444264Y-81550014D01*
X109447195Y-81544134D01*
X109461227Y-81529581D01*
X109482779Y-81523180D01*
X109505512Y-81522154D01*
X109527568Y-81523109D01*
G37*
G36*
X112031681Y-86430474D02*
G01*
X112036919Y-86449903D01*
X112031686Y-86469975D01*
X112021702Y-86487800D01*
X112007920Y-86517795D01*
X112001085Y-86547755D01*
X112000923Y-86551812D01*
X112004578Y-86570550D01*
X112014716Y-86603663D01*
X112030095Y-86647580D01*
X112049475Y-86698729D01*
X112067945Y-86744685D01*
X112134966Y-86907167D01*
X112166948Y-86830372D01*
X112199922Y-86750331D01*
X112225407Y-86685879D01*
X112243908Y-86634780D01*
X112255936Y-86594796D01*
X112261996Y-86563692D01*
X112262599Y-86539230D01*
X112258251Y-86519173D01*
X112249462Y-86501284D01*
X112243671Y-86492610D01*
X112229853Y-86467881D01*
X112229028Y-86446487D01*
X112231687Y-86437371D01*
X112240724Y-86411654D01*
X112430967Y-86408992D01*
X112497150Y-86408220D01*
X112546488Y-86408141D01*
X112581668Y-86408941D01*
X112605379Y-86410809D01*
X112620306Y-86413930D01*
X112629138Y-86418491D01*
X112633451Y-86423071D01*
X112641836Y-86436200D01*
X112643565Y-86447874D01*
X112636902Y-86462207D01*
X112620109Y-86483311D01*
X112597180Y-86508977D01*
X112582845Y-86524843D01*
X112570597Y-86539020D01*
X112559407Y-86553456D01*
X112548248Y-86570101D01*
X112536091Y-86590902D01*
X112521909Y-86617807D01*
X112504674Y-86652765D01*
X112483358Y-86697724D01*
X112456932Y-86754633D01*
X112424370Y-86825438D01*
X112385653Y-86909884D01*
X112260260Y-87183423D01*
X112256804Y-87314467D01*
X112255568Y-87379585D01*
X112256117Y-87428843D01*
X112258968Y-87465877D01*
X112264635Y-87494324D01*
X112273634Y-87517821D01*
X112286480Y-87540006D01*
X112289373Y-87544336D01*
X112308633Y-87581909D01*
X112312466Y-87613694D01*
X112301815Y-87635738D01*
X112290192Y-87640200D01*
X112264514Y-87643526D01*
X112223396Y-87645792D01*
X112165454Y-87647078D01*
X112093730Y-87647461D01*
X112018560Y-87647034D01*
X111961526Y-87645699D01*
X111921245Y-87643380D01*
X111896331Y-87639997D01*
X111885646Y-87635738D01*
X111875001Y-87612850D01*
X111876850Y-87584237D01*
X111890245Y-87558357D01*
X111894810Y-87553725D01*
X111916026Y-87529059D01*
X111930341Y-87497184D01*
X111938716Y-87454490D01*
X111942114Y-87397371D01*
X111942307Y-87375570D01*
X111941350Y-87327576D01*
X111938788Y-87281014D01*
X111935088Y-87243275D01*
X111933181Y-87231160D01*
X111926933Y-87210946D01*
X111913395Y-87175530D01*
X111893618Y-87127381D01*
X111868651Y-87068966D01*
X111839542Y-87002755D01*
X111807343Y-86931215D01*
X111784200Y-86880748D01*
X111745780Y-86797872D01*
X111714263Y-86730718D01*
X111688524Y-86677196D01*
X111667437Y-86635214D01*
X111649875Y-86602684D01*
X111634713Y-86577514D01*
X111620823Y-86557615D01*
X111607081Y-86540897D01*
X111593057Y-86525976D01*
X111561813Y-86491185D01*
X111545767Y-86464488D01*
X111543932Y-86443035D01*
X111555323Y-86423974D01*
X111557121Y-86422121D01*
X111564627Y-86417095D01*
X111577402Y-86413272D01*
X111597863Y-86410496D01*
X111628427Y-86408613D01*
X111671513Y-86407468D01*
X111729536Y-86406905D01*
X111796676Y-86406769D01*
X112020880Y-86406769D01*
X112031681Y-86430474D01*
G37*
G36*
X112562250Y-83510033D02*
G01*
X112571301Y-83514606D01*
X112578066Y-83522650D01*
X112580677Y-83526653D01*
X112586739Y-83541288D01*
X112597267Y-83572353D01*
X112611525Y-83617443D01*
X112628778Y-83674153D01*
X112648291Y-83740081D01*
X112669327Y-83812822D01*
X112683262Y-83861884D01*
X112713524Y-83969271D01*
X112738845Y-84059444D01*
X112759614Y-84133987D01*
X112776218Y-84194483D01*
X112789043Y-84242518D01*
X112798479Y-84279674D01*
X112804912Y-84307535D01*
X112808730Y-84327686D01*
X112810320Y-84341711D01*
X112810070Y-84351193D01*
X112808368Y-84357717D01*
X112805768Y-84362601D01*
X112792874Y-84370980D01*
X112764768Y-84382584D01*
X112725277Y-84396241D01*
X112678225Y-84410783D01*
X112627440Y-84425038D01*
X112576746Y-84437835D01*
X112529969Y-84448005D01*
X112521217Y-84449657D01*
X112487616Y-84450108D01*
X112467745Y-84436866D01*
X112461704Y-84410238D01*
X112469592Y-84370529D01*
X112483762Y-84334430D01*
X112503657Y-84278565D01*
X112511308Y-84228159D01*
X112506460Y-84186667D01*
X112496234Y-84165766D01*
X112490913Y-84160191D01*
X112483037Y-84157182D01*
X112470050Y-84157223D01*
X112449392Y-84160797D01*
X112418506Y-84168388D01*
X112374833Y-84180479D01*
X112315816Y-84197554D01*
X112293522Y-84204076D01*
X112223112Y-84224601D01*
X112147330Y-84246521D01*
X112072554Y-84268002D01*
X112005164Y-84287211D01*
X111961846Y-84299432D01*
X111904531Y-84315812D01*
X111862059Y-84329464D01*
X111830401Y-84342709D01*
X111805525Y-84357869D01*
X111783400Y-84377263D01*
X111759995Y-84403212D01*
X111740335Y-84426956D01*
X111716499Y-84448252D01*
X111695231Y-84450295D01*
X111675975Y-84433118D01*
X111674522Y-84430942D01*
X111667008Y-84413395D01*
X111656628Y-84381115D01*
X111644667Y-84338463D01*
X111632413Y-84289796D01*
X111630563Y-84281961D01*
X111617664Y-84227219D01*
X111604586Y-84172342D01*
X111592864Y-84123743D01*
X111584115Y-84088148D01*
X111575220Y-84046521D01*
X111573439Y-84019550D01*
X111577607Y-84005110D01*
X111597269Y-83988047D01*
X111622047Y-83989209D01*
X111647754Y-84006327D01*
X111680922Y-84033440D01*
X111710127Y-84046488D01*
X111742229Y-84047669D01*
X111764640Y-84043837D01*
X111788871Y-84037804D01*
X111827007Y-84027335D01*
X111876380Y-84013238D01*
X111934320Y-83996325D01*
X111998160Y-83977405D01*
X112065230Y-83957288D01*
X112132860Y-83936785D01*
X112198382Y-83916706D01*
X112259127Y-83897860D01*
X112312426Y-83881059D01*
X112355610Y-83867112D01*
X112386010Y-83856829D01*
X112400956Y-83851021D01*
X112401942Y-83850388D01*
X112404129Y-83836019D01*
X112398529Y-83811397D01*
X112387433Y-83783010D01*
X112373129Y-83757345D01*
X112365755Y-83747852D01*
X112345499Y-83730797D01*
X112317193Y-83712814D01*
X112308654Y-83708283D01*
X112268675Y-83685460D01*
X112245230Y-83664705D01*
X112235835Y-83643608D01*
X112235384Y-83637192D01*
X112238333Y-83620570D01*
X112248854Y-83606196D01*
X112269457Y-83592651D01*
X112302655Y-83578515D01*
X112350957Y-83562366D01*
X112386807Y-83551541D01*
X112448386Y-83533484D01*
X112493980Y-83520656D01*
X112526329Y-83512706D01*
X112548172Y-83509282D01*
X112562250Y-83510033D01*
G37*
G36*
X106933526Y-82665246D02*
G01*
X106951895Y-82687180D01*
X106956671Y-82694461D01*
X106971199Y-82716402D01*
X106986073Y-82736128D01*
X107003247Y-82755218D01*
X107024676Y-82775252D01*
X107052313Y-82797809D01*
X107088115Y-82824467D01*
X107134035Y-82856805D01*
X107192028Y-82896402D01*
X107264048Y-82944837D01*
X107279035Y-82954872D01*
X107366655Y-83013879D01*
X107439304Y-83063747D01*
X107498540Y-83105755D01*
X107545922Y-83141179D01*
X107583009Y-83171299D01*
X107611360Y-83197391D01*
X107632533Y-83220734D01*
X107648088Y-83242605D01*
X107659583Y-83264282D01*
X107661342Y-83268263D01*
X107685288Y-83347570D01*
X107690462Y-83428633D01*
X107677297Y-83509625D01*
X107646229Y-83588716D01*
X107597691Y-83664079D01*
X107556100Y-83711087D01*
X107505027Y-83758192D01*
X107457807Y-83790736D01*
X107408878Y-83811279D01*
X107352680Y-83822382D01*
X107306807Y-83825875D01*
X107263909Y-83827290D01*
X107233774Y-83826207D01*
X107209660Y-83821311D01*
X107184830Y-83811285D01*
X107155384Y-83796308D01*
X107130101Y-83781855D01*
X107091541Y-83758301D01*
X107042610Y-83727494D01*
X106986214Y-83691282D01*
X106925260Y-83651513D01*
X106867192Y-83613063D01*
X106789376Y-83561371D01*
X106725694Y-83519695D01*
X106674194Y-83486966D01*
X106632921Y-83462117D01*
X106599920Y-83444078D01*
X106573237Y-83431781D01*
X106550918Y-83424157D01*
X106531008Y-83420138D01*
X106511634Y-83418658D01*
X106473385Y-83413417D01*
X106449482Y-83401060D01*
X106442230Y-83384970D01*
X106446849Y-83372250D01*
X106459360Y-83346348D01*
X106477748Y-83310923D01*
X106499995Y-83269634D01*
X106524084Y-83226138D01*
X106548001Y-83184093D01*
X106569727Y-83147157D01*
X106587246Y-83118988D01*
X106595350Y-83107211D01*
X106621661Y-83081474D01*
X106647536Y-83075266D01*
X106672960Y-83088583D01*
X106697920Y-83121421D01*
X106710667Y-83146111D01*
X106716056Y-83157122D01*
X106722327Y-83167334D01*
X106731094Y-83177954D01*
X106743970Y-83190190D01*
X106762568Y-83205248D01*
X106788500Y-83224335D01*
X106823381Y-83248658D01*
X106868822Y-83279423D01*
X106926437Y-83317837D01*
X106997839Y-83365108D01*
X107045158Y-83396367D01*
X107119505Y-83445090D01*
X107179820Y-83483515D01*
X107228087Y-83512532D01*
X107266293Y-83533031D01*
X107296422Y-83545905D01*
X107320459Y-83552043D01*
X107340388Y-83552337D01*
X107358195Y-83547678D01*
X107370014Y-83542182D01*
X107404158Y-83513914D01*
X107427296Y-83474163D01*
X107437698Y-83428641D01*
X107433635Y-83383063D01*
X107424966Y-83360726D01*
X107418311Y-83348962D01*
X107410089Y-83337561D01*
X107398595Y-83325228D01*
X107382123Y-83310664D01*
X107358967Y-83292573D01*
X107327422Y-83269657D01*
X107285782Y-83240621D01*
X107232342Y-83204165D01*
X107165395Y-83158994D01*
X107116307Y-83126009D01*
X107044531Y-83077988D01*
X106986790Y-83039856D01*
X106941025Y-83010422D01*
X106905180Y-82988494D01*
X106877197Y-82972880D01*
X106855018Y-82962388D01*
X106836587Y-82955825D01*
X106819846Y-82952001D01*
X106814522Y-82951162D01*
X106774767Y-82942666D01*
X106753034Y-82929503D01*
X106747951Y-82908894D01*
X106758142Y-82878058D01*
X106768485Y-82858030D01*
X106787370Y-82825416D01*
X106812498Y-82784139D01*
X106839234Y-82741772D01*
X106846402Y-82730706D01*
X106874928Y-82689818D01*
X106897391Y-82665793D01*
X106916141Y-82657860D01*
X106933526Y-82665246D01*
G37*
G36*
X106635516Y-86406885D02*
G01*
X106731027Y-86407228D01*
X106808679Y-86408216D01*
X106870148Y-86409915D01*
X106917104Y-86412388D01*
X106951221Y-86415702D01*
X106974171Y-86419921D01*
X106974654Y-86420049D01*
X107052567Y-86448799D01*
X107114839Y-86489161D01*
X107161337Y-86540966D01*
X107191927Y-86604050D01*
X107206474Y-86678246D01*
X107207768Y-86709615D01*
X107200280Y-86782535D01*
X107178332Y-86847400D01*
X107143419Y-86901720D01*
X107097039Y-86943006D01*
X107054537Y-86964320D01*
X107019833Y-86976869D01*
X107074520Y-86999095D01*
X107138518Y-87035161D01*
X107190326Y-87085481D01*
X107225536Y-87143297D01*
X107236624Y-87171465D01*
X107243461Y-87200080D01*
X107246978Y-87235209D01*
X107248102Y-87282921D01*
X107248121Y-87290884D01*
X107247565Y-87338283D01*
X107245094Y-87372292D01*
X107239624Y-87399042D01*
X107230072Y-87424665D01*
X107221127Y-87443690D01*
X107177762Y-87510289D01*
X107119335Y-87565007D01*
X107046852Y-87607076D01*
X106972899Y-87632854D01*
X106947184Y-87637089D01*
X106906954Y-87640681D01*
X106855145Y-87643615D01*
X106794694Y-87645879D01*
X106728538Y-87647458D01*
X106659614Y-87648340D01*
X106590858Y-87648511D01*
X106525209Y-87647957D01*
X106465603Y-87646665D01*
X106414976Y-87644621D01*
X106376266Y-87641812D01*
X106352409Y-87638224D01*
X106346492Y-87635738D01*
X106335753Y-87612026D01*
X106340013Y-87580175D01*
X106358634Y-87543761D01*
X106364348Y-87535817D01*
X106393384Y-87497442D01*
X106393384Y-87255064D01*
X106393384Y-87100384D01*
X106696230Y-87100384D01*
X106696230Y-87255064D01*
X106696622Y-87308171D01*
X106697704Y-87354251D01*
X106699336Y-87389832D01*
X106701377Y-87411440D01*
X106702743Y-87416256D01*
X106717497Y-87420894D01*
X106745736Y-87422839D01*
X106781630Y-87422345D01*
X106819349Y-87419665D01*
X106853062Y-87415050D01*
X106876940Y-87408753D01*
X106877061Y-87408703D01*
X106912347Y-87383985D01*
X106939383Y-87344876D01*
X106955105Y-87295822D01*
X106955203Y-87295245D01*
X106956150Y-87256303D01*
X106948791Y-87213418D01*
X106935124Y-87175139D01*
X106922456Y-87155178D01*
X106886700Y-87127865D01*
X106836845Y-87109339D01*
X106776863Y-87100951D01*
X106762173Y-87100599D01*
X106696230Y-87100384D01*
X106393384Y-87100384D01*
X106393384Y-87026738D01*
X106393384Y-86611923D01*
X106697596Y-86611923D01*
X106701712Y-86751134D01*
X106703188Y-86801137D01*
X106704442Y-86843718D01*
X106705369Y-86875289D01*
X106705862Y-86892260D01*
X106705913Y-86894126D01*
X106714655Y-86896990D01*
X106737076Y-86896295D01*
X106767809Y-86892824D01*
X106801484Y-86887365D01*
X106832732Y-86880702D01*
X106856184Y-86873623D01*
X106861163Y-86871399D01*
X106892170Y-86845426D01*
X106914925Y-86807175D01*
X106926471Y-86763177D01*
X106925745Y-86728784D01*
X106909182Y-86680108D01*
X106878126Y-86644485D01*
X106832539Y-86621888D01*
X106772386Y-86612294D01*
X106755843Y-86611923D01*
X106697596Y-86611923D01*
X106393384Y-86611923D01*
X106393384Y-86556034D01*
X106369489Y-86520822D01*
X106346469Y-86485756D01*
X106333608Y-86462068D01*
X106329342Y-86445504D01*
X106332109Y-86431810D01*
X106334769Y-86426307D01*
X106338460Y-86420727D01*
X106344309Y-86416325D01*
X106354461Y-86412963D01*
X106371058Y-86410502D01*
X106396246Y-86408806D01*
X106432167Y-86407733D01*
X106480966Y-86407148D01*
X106544787Y-86406910D01*
X106625773Y-86406881D01*
X106635516Y-86406885D01*
G37*
G36*
X111986419Y-82626201D02*
G01*
X111997098Y-82638389D01*
X112016224Y-82663278D01*
X112041319Y-82697373D01*
X112069903Y-82737179D01*
X112099498Y-82779198D01*
X112127624Y-82819935D01*
X112151803Y-82855895D01*
X112169556Y-82883580D01*
X112173046Y-82889388D01*
X112184480Y-82910447D01*
X112185258Y-82922735D01*
X112174624Y-82934322D01*
X112168360Y-82939467D01*
X112141557Y-82953449D01*
X112116586Y-82958230D01*
X112101550Y-82959216D01*
X112085549Y-82962992D01*
X112066503Y-82970790D01*
X112042327Y-82983838D01*
X112010941Y-83003369D01*
X111970260Y-83030610D01*
X111918204Y-83066794D01*
X111852689Y-83113149D01*
X111844615Y-83118891D01*
X111787837Y-83159257D01*
X111732110Y-83198833D01*
X111680881Y-83235173D01*
X111637600Y-83265830D01*
X111605715Y-83288359D01*
X111598673Y-83293317D01*
X111552754Y-83327556D01*
X111521747Y-83356208D01*
X111503149Y-83382540D01*
X111494456Y-83409820D01*
X111492923Y-83431282D01*
X111498003Y-83467308D01*
X111515920Y-83499160D01*
X111521160Y-83505676D01*
X111541160Y-83526698D01*
X111560543Y-83536614D01*
X111588285Y-83539433D01*
X111596871Y-83539500D01*
X111615379Y-83538772D01*
X111632622Y-83535531D01*
X111651684Y-83528188D01*
X111675646Y-83515154D01*
X111707592Y-83494840D01*
X111750603Y-83465659D01*
X111781115Y-83444543D01*
X111870044Y-83382746D01*
X111944372Y-83330864D01*
X112005576Y-83287703D01*
X112055130Y-83252074D01*
X112094508Y-83222783D01*
X112125187Y-83198640D01*
X112148640Y-83178451D01*
X112166344Y-83161026D01*
X112179772Y-83145173D01*
X112190400Y-83129699D01*
X112199703Y-83113414D01*
X112206077Y-83101166D01*
X112230603Y-83057628D01*
X112251447Y-83031239D01*
X112270267Y-83020353D01*
X112285833Y-83022030D01*
X112295078Y-83031918D01*
X112311606Y-83055270D01*
X112333234Y-83088459D01*
X112357773Y-83127860D01*
X112383038Y-83169847D01*
X112406842Y-83210794D01*
X112426998Y-83247076D01*
X112441322Y-83275065D01*
X112447348Y-83289894D01*
X112445669Y-83315444D01*
X112426380Y-83334173D01*
X112393153Y-83344596D01*
X112359607Y-83351835D01*
X112328528Y-83361071D01*
X112328192Y-83361193D01*
X112310791Y-83370100D01*
X112279633Y-83388683D01*
X112236991Y-83415450D01*
X112185135Y-83448906D01*
X112126341Y-83487557D01*
X112062880Y-83529911D01*
X111997024Y-83574474D01*
X111931047Y-83619751D01*
X111869038Y-83662971D01*
X111794935Y-83712392D01*
X111731466Y-83748309D01*
X111676001Y-83771569D01*
X111625915Y-83783016D01*
X111578578Y-83783497D01*
X111531363Y-83773858D01*
X111527846Y-83772779D01*
X111456065Y-83741998D01*
X111391837Y-83698388D01*
X111336205Y-83644422D01*
X111290215Y-83582574D01*
X111254910Y-83515316D01*
X111231333Y-83445124D01*
X111220529Y-83374469D01*
X111223541Y-83305826D01*
X111241413Y-83241668D01*
X111275190Y-83184468D01*
X111278063Y-83180926D01*
X111293217Y-83166467D01*
X111322170Y-83142412D01*
X111362758Y-83110425D01*
X111412815Y-83072171D01*
X111470174Y-83029315D01*
X111532670Y-82983523D01*
X111568979Y-82957307D01*
X111633348Y-82910874D01*
X111693849Y-82866842D01*
X111748320Y-82826816D01*
X111794594Y-82792401D01*
X111830508Y-82765202D01*
X111853897Y-82746824D01*
X111860766Y-82740938D01*
X111884100Y-82712700D01*
X111904070Y-82678221D01*
X111907985Y-82669019D01*
X111926251Y-82636717D01*
X111949043Y-82619373D01*
X111973293Y-82618664D01*
X111986419Y-82626201D01*
G37*
G36*
X110139559Y-86406304D02*
G01*
X110210933Y-86406919D01*
X110276053Y-86407948D01*
X110332355Y-86409396D01*
X110377278Y-86411268D01*
X110408256Y-86413570D01*
X110422728Y-86416306D01*
X110423383Y-86416848D01*
X110428110Y-86431943D01*
X110434109Y-86461435D01*
X110440638Y-86500284D01*
X110446954Y-86543451D01*
X110452315Y-86585900D01*
X110455978Y-86622590D01*
X110457209Y-86646384D01*
X110452099Y-86683354D01*
X110438196Y-86711930D01*
X110418169Y-86727551D01*
X110408734Y-86729154D01*
X110389826Y-86723131D01*
X110365894Y-86708209D01*
X110360279Y-86703726D01*
X110327667Y-86681835D01*
X110287887Y-86666375D01*
X110237643Y-86656611D01*
X110173641Y-86651809D01*
X110123678Y-86651000D01*
X110008000Y-86651000D01*
X110008000Y-86768230D01*
X110008000Y-86885461D01*
X110098365Y-86885247D01*
X110150565Y-86883785D01*
X110189205Y-86879117D01*
X110220123Y-86870386D01*
X110231316Y-86865708D01*
X110264633Y-86851734D01*
X110289534Y-86845482D01*
X110307234Y-86848820D01*
X110318949Y-86863620D01*
X110325895Y-86891752D01*
X110329287Y-86935085D01*
X110330342Y-86995489D01*
X110330384Y-87018103D01*
X110330007Y-87083317D01*
X110328109Y-87130856D01*
X110323541Y-87162582D01*
X110315153Y-87180355D01*
X110301795Y-87186035D01*
X110282319Y-87181483D01*
X110255574Y-87168560D01*
X110242008Y-87161146D01*
X110212758Y-87145865D01*
X110188193Y-87136523D01*
X110161653Y-87131680D01*
X110126478Y-87129895D01*
X110096614Y-87129692D01*
X110008000Y-87129692D01*
X110008000Y-87267570D01*
X110008000Y-87405448D01*
X110142327Y-87401409D01*
X110210219Y-87398191D01*
X110262918Y-87392379D01*
X110304719Y-87382798D01*
X110339914Y-87368273D01*
X110372800Y-87347630D01*
X110391422Y-87333272D01*
X110413537Y-87318960D01*
X110433224Y-87317652D01*
X110445153Y-87321156D01*
X110459236Y-87327257D01*
X110467157Y-87336143D01*
X110470531Y-87352722D01*
X110470970Y-87381898D01*
X110470674Y-87398760D01*
X110468087Y-87440113D01*
X110462418Y-87487120D01*
X110454589Y-87534874D01*
X110445520Y-87578471D01*
X110436132Y-87613002D01*
X110427346Y-87633561D01*
X110426371Y-87634863D01*
X110419653Y-87638183D01*
X110404500Y-87640905D01*
X110379362Y-87643079D01*
X110342691Y-87644754D01*
X110292936Y-87645981D01*
X110228550Y-87646807D01*
X110147981Y-87647283D01*
X110049682Y-87647458D01*
X110031570Y-87647461D01*
X109934763Y-87647427D01*
X109855649Y-87647266D01*
X109792385Y-87646889D01*
X109743127Y-87646208D01*
X109706030Y-87645135D01*
X109679250Y-87643582D01*
X109660942Y-87641460D01*
X109649262Y-87638680D01*
X109642367Y-87635155D01*
X109638411Y-87630796D01*
X109637113Y-87628565D01*
X109628573Y-87606155D01*
X109630714Y-87585273D01*
X109645031Y-87560425D01*
X109661192Y-87540000D01*
X109695384Y-87499074D01*
X109695384Y-87035475D01*
X109695363Y-86924934D01*
X109695194Y-86832203D01*
X109694725Y-86755552D01*
X109693800Y-86693253D01*
X109692265Y-86643575D01*
X109689964Y-86604791D01*
X109686744Y-86575171D01*
X109682450Y-86552986D01*
X109676927Y-86536507D01*
X109670020Y-86524005D01*
X109661575Y-86513751D01*
X109651438Y-86504016D01*
X109647538Y-86500482D01*
X109631865Y-86476326D01*
X109627457Y-86447546D01*
X109635228Y-86422659D01*
X109638723Y-86418492D01*
X109651031Y-86415627D01*
X109680156Y-86413127D01*
X109723533Y-86410997D01*
X109778600Y-86409244D01*
X109842793Y-86407872D01*
X109913549Y-86406886D01*
X109988304Y-86406293D01*
X110064495Y-86406097D01*
X110139559Y-86406304D01*
G37*
G36*
X106588771Y-83748032D02*
G01*
X106647656Y-83770915D01*
X106699986Y-83805790D01*
X106742231Y-83849932D01*
X106770863Y-83900616D01*
X106780491Y-83935707D01*
X106786453Y-83972996D01*
X106810756Y-83944114D01*
X106834002Y-83921810D01*
X106865181Y-83898245D01*
X106880433Y-83888558D01*
X106904949Y-83875430D01*
X106927799Y-83867451D01*
X106955188Y-83863381D01*
X106993320Y-83861977D01*
X107013730Y-83861884D01*
X107058891Y-83862632D01*
X107091496Y-83865796D01*
X107118501Y-83872760D01*
X107146861Y-83884904D01*
X107158391Y-83890633D01*
X107223016Y-83933566D01*
X107274516Y-83988761D01*
X107311539Y-84053340D01*
X107332731Y-84124420D01*
X107336740Y-84199122D01*
X107328443Y-84252654D01*
X107320326Y-84284696D01*
X107308237Y-84331143D01*
X107293362Y-84387554D01*
X107276887Y-84449490D01*
X107259998Y-84512508D01*
X107243880Y-84572170D01*
X107229720Y-84624034D01*
X107218703Y-84663660D01*
X107218379Y-84664804D01*
X107201047Y-84710748D01*
X107180110Y-84737584D01*
X107154982Y-84745510D01*
X107125078Y-84734723D01*
X107091741Y-84707350D01*
X107082564Y-84698300D01*
X107073655Y-84690331D01*
X107063442Y-84682924D01*
X107050353Y-84675563D01*
X107032817Y-84667730D01*
X107009263Y-84658909D01*
X106978120Y-84648582D01*
X106937815Y-84636231D01*
X106886779Y-84621341D01*
X106823439Y-84603393D01*
X106746224Y-84581870D01*
X106653564Y-84556256D01*
X106543886Y-84526033D01*
X106525269Y-84520905D01*
X106447493Y-84499629D01*
X106385860Y-84483224D01*
X106337737Y-84471145D01*
X106300494Y-84462851D01*
X106271498Y-84457801D01*
X106248118Y-84455451D01*
X106227722Y-84455261D01*
X106211662Y-84456310D01*
X106178571Y-84458257D01*
X106154524Y-84455849D01*
X106139015Y-84446934D01*
X106131539Y-84429360D01*
X106131589Y-84400974D01*
X106138659Y-84359624D01*
X106152242Y-84303158D01*
X106153666Y-84297760D01*
X106818748Y-84297760D01*
X106818949Y-84309017D01*
X106832567Y-84317858D01*
X106854433Y-84324653D01*
X106886126Y-84333140D01*
X106927228Y-84344316D01*
X106964884Y-84354670D01*
X107003663Y-84365384D01*
X107028104Y-84371247D01*
X107042796Y-84372253D01*
X107052328Y-84368397D01*
X107061292Y-84359674D01*
X107065995Y-84354554D01*
X107085566Y-84321566D01*
X107095421Y-84279591D01*
X107095113Y-84235933D01*
X107084193Y-84197894D01*
X107076368Y-84185391D01*
X107040410Y-84152169D01*
X106995231Y-84133800D01*
X106938117Y-84129231D01*
X106932383Y-84129457D01*
X106904847Y-84139571D01*
X106877309Y-84164551D01*
X106853579Y-84200101D01*
X106839689Y-84233950D01*
X106829991Y-84264939D01*
X106821677Y-84289835D01*
X106818748Y-84297760D01*
X106153666Y-84297760D01*
X106164614Y-84256252D01*
X106187751Y-84171042D01*
X106407401Y-84171042D01*
X106410313Y-84190083D01*
X106411779Y-84191918D01*
X106425660Y-84198992D01*
X106453182Y-84208719D01*
X106488896Y-84219592D01*
X106527355Y-84230101D01*
X106563109Y-84238738D01*
X106590711Y-84243992D01*
X106602765Y-84244808D01*
X106620314Y-84233813D01*
X106629959Y-84213577D01*
X106636978Y-84174519D01*
X106638144Y-84133132D01*
X106633575Y-84097491D01*
X106628036Y-84082048D01*
X106601370Y-84051321D01*
X106563600Y-84031629D01*
X106520929Y-84024941D01*
X106479562Y-84033227D01*
X106477353Y-84034199D01*
X106459452Y-84049423D01*
X106441299Y-84076029D01*
X106425101Y-84108706D01*
X106413066Y-84142147D01*
X106407401Y-84171042D01*
X106187751Y-84171042D01*
X106190148Y-84162213D01*
X106212059Y-84084885D01*
X106231241Y-84021972D01*
X106248592Y-83971178D01*
X106265009Y-83930205D01*
X106281388Y-83896757D01*
X106298625Y-83868538D01*
X106317619Y-83843250D01*
X106332669Y-83825808D01*
X106386579Y-83780008D01*
X106449680Y-83751082D01*
X106519868Y-83739961D01*
X106526858Y-83739864D01*
X106588771Y-83748032D01*
G37*
G36*
X109188640Y-81545647D02*
G01*
X109200759Y-81552773D01*
X109206955Y-81561291D01*
X109211379Y-81577364D01*
X109206354Y-81597203D01*
X109192613Y-81623262D01*
X109167782Y-81665634D01*
X109247840Y-82145937D01*
X109267402Y-82264237D01*
X109283594Y-82364293D01*
X109296554Y-82447081D01*
X109306419Y-82513575D01*
X109313327Y-82564754D01*
X109317416Y-82601592D01*
X109318824Y-82625067D01*
X109317688Y-82636153D01*
X109317143Y-82636995D01*
X109303932Y-82642664D01*
X109276208Y-82650318D01*
X109238769Y-82658985D01*
X109196416Y-82667691D01*
X109153948Y-82675467D01*
X109116166Y-82681340D01*
X109087869Y-82684339D01*
X109082330Y-82684531D01*
X109076280Y-82683375D01*
X109068676Y-82679022D01*
X109058567Y-82670272D01*
X109045001Y-82655922D01*
X109027023Y-82634771D01*
X109003682Y-82605618D01*
X108974026Y-82567260D01*
X108937101Y-82518496D01*
X108891956Y-82458125D01*
X108837637Y-82384944D01*
X108773192Y-82297753D01*
X108739173Y-82251644D01*
X108718230Y-82224622D01*
X108701770Y-82205932D01*
X108692980Y-82199151D01*
X108692562Y-82199334D01*
X108693129Y-82209688D01*
X108697138Y-82235656D01*
X108703899Y-82273758D01*
X108712722Y-82320512D01*
X108722915Y-82372438D01*
X108733788Y-82426053D01*
X108744650Y-82477876D01*
X108754811Y-82524427D01*
X108763578Y-82562224D01*
X108768144Y-82580226D01*
X108781038Y-82610273D01*
X108801918Y-82642688D01*
X108811795Y-82654680D01*
X108836727Y-82688873D01*
X108844438Y-82716706D01*
X108834778Y-82737268D01*
X108826471Y-82743014D01*
X108808708Y-82749378D01*
X108776596Y-82758163D01*
X108735007Y-82768297D01*
X108688814Y-82778707D01*
X108642893Y-82788322D01*
X108602116Y-82796070D01*
X108571357Y-82800878D01*
X108558631Y-82801923D01*
X108534962Y-82795850D01*
X108522543Y-82786626D01*
X108515007Y-82771018D01*
X108517938Y-82749702D01*
X108521347Y-82739528D01*
X108528311Y-82715811D01*
X108531557Y-82690594D01*
X108530801Y-82660350D01*
X108525762Y-82621551D01*
X108516160Y-82570669D01*
X108503041Y-82510100D01*
X108492379Y-82461905D01*
X108478705Y-82399229D01*
X108463022Y-82326713D01*
X108446329Y-82248995D01*
X108429629Y-82170718D01*
X108420419Y-82127288D01*
X108405913Y-82059189D01*
X108392412Y-81996700D01*
X108380530Y-81942586D01*
X108370878Y-81899614D01*
X108364069Y-81870548D01*
X108360903Y-81858634D01*
X108350375Y-81840087D01*
X108331699Y-81815597D01*
X108322807Y-81805461D01*
X108297549Y-81774971D01*
X108284834Y-81750462D01*
X108285838Y-81730645D01*
X108301736Y-81714229D01*
X108333704Y-81699926D01*
X108382915Y-81686445D01*
X108442544Y-81674020D01*
X108507810Y-81661961D01*
X108556704Y-81654169D01*
X108591868Y-81650409D01*
X108615944Y-81650443D01*
X108631572Y-81654034D01*
X108636378Y-81656630D01*
X108646678Y-81667484D01*
X108664808Y-81690172D01*
X108687451Y-81720483D01*
X108695885Y-81732192D01*
X108770119Y-81835914D01*
X108833651Y-81923921D01*
X108886799Y-81996632D01*
X108929880Y-82054467D01*
X108963213Y-82097843D01*
X108987116Y-82127180D01*
X109001909Y-82142896D01*
X109007908Y-82145410D01*
X109007857Y-82142500D01*
X109004346Y-82124046D01*
X108998088Y-82089813D01*
X108989706Y-82043268D01*
X108979823Y-81987878D01*
X108969064Y-81927108D01*
X108967528Y-81918399D01*
X108954518Y-81846586D01*
X108943367Y-81791060D01*
X108933096Y-81748778D01*
X108922723Y-81716696D01*
X108911270Y-81691770D01*
X108897755Y-81670957D01*
X108881633Y-81651692D01*
X108868402Y-81632519D01*
X108869208Y-81614385D01*
X108872531Y-81606202D01*
X108878242Y-81595684D01*
X108886443Y-81587603D01*
X108900203Y-81581021D01*
X108922592Y-81575002D01*
X108956681Y-81568610D01*
X109005538Y-81560909D01*
X109035961Y-81556350D01*
X109095609Y-81547962D01*
X109138989Y-81543326D01*
X109169025Y-81542526D01*
X109188640Y-81545647D01*
G37*
G36*
X110983431Y-86407014D02*
G01*
X111059617Y-86407953D01*
X111121421Y-86409892D01*
X111171422Y-86413139D01*
X111212196Y-86417999D01*
X111246319Y-86424780D01*
X111276369Y-86433787D01*
X111304923Y-86445328D01*
X111334337Y-86459596D01*
X111384707Y-86493197D01*
X111432625Y-86538858D01*
X111471200Y-86589610D01*
X111482078Y-86608986D01*
X111505653Y-86673696D01*
X111518138Y-86747613D01*
X111518553Y-86823221D01*
X111514396Y-86856648D01*
X111505288Y-86898287D01*
X111493290Y-86938341D01*
X111482406Y-86965081D01*
X111456215Y-87006232D01*
X111420467Y-87049330D01*
X111381442Y-87087429D01*
X111350999Y-87110320D01*
X111318907Y-87130154D01*
X111403473Y-87307288D01*
X111439181Y-87380371D01*
X111469201Y-87437773D01*
X111494973Y-87482006D01*
X111517938Y-87515582D01*
X111534442Y-87535561D01*
X111557672Y-87563685D01*
X111574317Y-87588651D01*
X111580843Y-87605141D01*
X111580846Y-87605358D01*
X111579453Y-87619654D01*
X111573624Y-87630310D01*
X111560888Y-87637853D01*
X111538769Y-87642812D01*
X111504795Y-87645714D01*
X111456493Y-87647087D01*
X111391389Y-87647459D01*
X111383507Y-87647461D01*
X111320410Y-87647280D01*
X111273911Y-87646553D01*
X111241075Y-87645007D01*
X111218964Y-87642366D01*
X111204640Y-87638356D01*
X111195166Y-87632702D01*
X111191685Y-87629531D01*
X111183045Y-87614917D01*
X111169685Y-87584926D01*
X111152885Y-87542777D01*
X111133924Y-87491687D01*
X111114082Y-87434875D01*
X111113010Y-87431705D01*
X111093304Y-87374380D01*
X111074736Y-87322265D01*
X111058531Y-87278659D01*
X111045919Y-87246862D01*
X111038128Y-87230174D01*
X111037907Y-87229827D01*
X111019237Y-87212988D01*
X110989788Y-87207850D01*
X110988686Y-87207846D01*
X110953823Y-87207846D01*
X110957161Y-87351942D01*
X110958665Y-87408521D01*
X110960553Y-87449522D01*
X110963455Y-87478902D01*
X110968001Y-87500619D01*
X110974820Y-87518633D01*
X110984543Y-87536901D01*
X110987365Y-87541739D01*
X111002603Y-87570909D01*
X111012339Y-87595786D01*
X111014230Y-87605728D01*
X111012938Y-87619497D01*
X111007459Y-87629869D01*
X110995393Y-87637319D01*
X110974339Y-87642324D01*
X110941896Y-87645360D01*
X110895664Y-87646903D01*
X110833241Y-87647429D01*
X110803752Y-87647461D01*
X110738192Y-87647306D01*
X110689382Y-87646677D01*
X110654535Y-87645330D01*
X110630864Y-87643019D01*
X110615582Y-87639499D01*
X110605902Y-87634525D01*
X110600552Y-87629596D01*
X110586736Y-87607122D01*
X110588248Y-87583866D01*
X110605660Y-87555500D01*
X110611250Y-87548656D01*
X110638115Y-87516736D01*
X110640828Y-87045124D01*
X110641457Y-86933723D01*
X110641854Y-86840090D01*
X110641862Y-86794476D01*
X110641867Y-86762454D01*
X110641346Y-86699047D01*
X110640140Y-86648098D01*
X110638655Y-86618825D01*
X110955615Y-86618825D01*
X110955615Y-86794476D01*
X110956005Y-86851272D01*
X110957087Y-86901266D01*
X110958730Y-86941198D01*
X110960805Y-86967802D01*
X110962942Y-86977664D01*
X110978582Y-86982699D01*
X111007331Y-86983553D01*
X111043372Y-86980903D01*
X111080888Y-86975425D01*
X111114064Y-86967795D01*
X111137082Y-86958690D01*
X111139433Y-86957142D01*
X111159927Y-86936719D01*
X111180966Y-86907530D01*
X111188345Y-86894659D01*
X111201263Y-86865804D01*
X111207234Y-86838060D01*
X111207723Y-86802837D01*
X111206817Y-86786324D01*
X111198252Y-86729905D01*
X111179557Y-86687496D01*
X111148749Y-86657300D01*
X111103849Y-86637518D01*
X111042873Y-86626351D01*
X111029176Y-86625043D01*
X110955615Y-86618825D01*
X110638655Y-86618825D01*
X110638098Y-86607836D01*
X110635070Y-86576492D01*
X110630903Y-86552296D01*
X110625449Y-86533476D01*
X110618555Y-86518264D01*
X110610071Y-86504889D01*
X110599847Y-86491582D01*
X110592933Y-86483040D01*
X110579287Y-86464129D01*
X110577698Y-86450517D01*
X110587269Y-86432875D01*
X110588004Y-86431751D01*
X110604373Y-86406769D01*
X110890288Y-86406769D01*
X110983431Y-86407014D01*
G37*
G36*
X107851615Y-82039919D02*
G01*
X107907077Y-82054930D01*
X107957129Y-82082705D01*
X108007018Y-82125623D01*
X108024433Y-82143614D01*
X108057483Y-82181427D01*
X108079700Y-82214268D01*
X108095530Y-82249348D01*
X108102578Y-82270436D01*
X108119574Y-82348302D01*
X108119510Y-82417807D01*
X108102266Y-82480330D01*
X108080534Y-82519755D01*
X108058273Y-82552788D01*
X108213834Y-82644204D01*
X108266478Y-82674580D01*
X108316340Y-82702329D01*
X108359805Y-82725516D01*
X108393259Y-82742205D01*
X108411247Y-82749879D01*
X108442892Y-82763990D01*
X108459376Y-82780602D01*
X108460294Y-82801098D01*
X108445245Y-82826858D01*
X108413825Y-82859265D01*
X108368161Y-82897693D01*
X108330721Y-82927097D01*
X108296128Y-82953611D01*
X108268910Y-82973798D01*
X108256306Y-82982561D01*
X108245949Y-82989725D01*
X108237866Y-82994248D01*
X108229417Y-82994669D01*
X108217961Y-82989528D01*
X108200858Y-82977367D01*
X108175466Y-82956724D01*
X108139146Y-82926140D01*
X108110392Y-82901892D01*
X108068189Y-82867422D01*
X108024957Y-82833888D01*
X107983813Y-82803516D01*
X107947874Y-82778533D01*
X107920257Y-82761168D01*
X107904079Y-82753647D01*
X107902730Y-82753507D01*
X107888837Y-82759443D01*
X107870281Y-82772814D01*
X107854553Y-82787578D01*
X107849000Y-82796853D01*
X107854440Y-82807770D01*
X107868986Y-82830494D01*
X107889979Y-82861234D01*
X107914758Y-82896198D01*
X107940662Y-82931595D01*
X107965032Y-82963635D01*
X107973870Y-82974805D01*
X108012265Y-83011315D01*
X108050018Y-83032305D01*
X108077674Y-83045062D01*
X108090570Y-83058152D01*
X108093230Y-83071968D01*
X108086026Y-83095133D01*
X108071250Y-83113605D01*
X108053382Y-83128638D01*
X108025885Y-83151786D01*
X107994074Y-83178575D01*
X107987198Y-83184367D01*
X107936097Y-83227281D01*
X107897567Y-83259145D01*
X107869317Y-83281594D01*
X107849056Y-83296259D01*
X107834492Y-83304777D01*
X107823335Y-83308779D01*
X107813294Y-83309900D01*
X107811120Y-83309923D01*
X107785405Y-83302371D01*
X107773196Y-83290517D01*
X107765074Y-83267836D01*
X107761144Y-83237858D01*
X107761077Y-83233814D01*
X107760515Y-83220122D01*
X107758074Y-83206375D01*
X107752617Y-83190728D01*
X107743011Y-83171336D01*
X107728120Y-83146352D01*
X107706808Y-83113931D01*
X107677942Y-83072227D01*
X107640385Y-83019395D01*
X107593003Y-82953588D01*
X107564568Y-82914269D01*
X107521009Y-82853861D01*
X107477313Y-82792867D01*
X107436082Y-82734948D01*
X107399919Y-82683764D01*
X107371424Y-82642978D01*
X107361348Y-82628333D01*
X107325407Y-82577900D01*
X107295640Y-82541981D01*
X107269101Y-82517814D01*
X107242842Y-82502634D01*
X107218939Y-82494831D01*
X107185441Y-82482422D01*
X107168540Y-82464288D01*
X107165154Y-82445992D01*
X107166284Y-82435298D01*
X107170760Y-82424153D01*
X107180210Y-82411099D01*
X107191416Y-82399638D01*
X107563552Y-82399638D01*
X107595724Y-82446915D01*
X107617056Y-82477593D01*
X107644826Y-82516629D01*
X107673818Y-82556702D01*
X107680441Y-82565747D01*
X107732986Y-82637303D01*
X107793435Y-82584188D01*
X107837073Y-82540823D01*
X107862491Y-82503355D01*
X107866573Y-82493310D01*
X107873727Y-82465297D01*
X107872258Y-82441182D01*
X107863617Y-82414583D01*
X107844196Y-82378768D01*
X107815944Y-82344588D01*
X107783540Y-82316318D01*
X107751661Y-82298235D01*
X107731598Y-82293923D01*
X107690855Y-82302026D01*
X107646407Y-82324366D01*
X107603836Y-82357991D01*
X107596372Y-82365463D01*
X107563552Y-82399638D01*
X107191416Y-82399638D01*
X107196264Y-82394680D01*
X107220551Y-82373440D01*
X107254697Y-82345921D01*
X107300334Y-82310667D01*
X107359088Y-82266220D01*
X107402841Y-82233391D01*
X107476117Y-82178903D01*
X107536365Y-82135325D01*
X107585895Y-82101460D01*
X107627016Y-82076113D01*
X107662039Y-82058089D01*
X107693272Y-82046191D01*
X107723025Y-82039224D01*
X107753607Y-82035993D01*
X107785500Y-82035294D01*
X107851615Y-82039919D01*
G37*
G36*
X107933658Y-86406843D02*
G01*
X107991909Y-86407182D01*
X108035314Y-86407958D01*
X108066220Y-86409347D01*
X108086974Y-86411522D01*
X108099921Y-86414656D01*
X108107408Y-86418924D01*
X108111782Y-86424499D01*
X108112390Y-86425600D01*
X108117705Y-86450416D01*
X108107612Y-86479513D01*
X108091568Y-86503336D01*
X108078175Y-86530840D01*
X108073692Y-86556236D01*
X108076309Y-86571788D01*
X108083783Y-86603982D01*
X108095552Y-86650686D01*
X108111053Y-86709770D01*
X108129723Y-86779104D01*
X108150998Y-86856556D01*
X108174316Y-86939998D01*
X108186289Y-86982322D01*
X108219152Y-87097883D01*
X108247222Y-87196140D01*
X108270975Y-87278603D01*
X108290885Y-87346784D01*
X108307426Y-87402194D01*
X108321074Y-87446343D01*
X108332303Y-87480743D01*
X108341589Y-87506904D01*
X108349405Y-87526337D01*
X108356228Y-87540553D01*
X108362531Y-87551063D01*
X108366897Y-87557035D01*
X108383021Y-87587636D01*
X108384672Y-87616730D01*
X108374584Y-87635738D01*
X108362839Y-87640245D01*
X108336913Y-87643591D01*
X108295432Y-87645856D01*
X108237021Y-87647118D01*
X108170128Y-87647461D01*
X108102222Y-87647245D01*
X108051232Y-87646468D01*
X108014537Y-87644936D01*
X107989519Y-87642457D01*
X107973558Y-87638837D01*
X107964034Y-87633882D01*
X107962044Y-87632110D01*
X107950679Y-87617239D01*
X107948144Y-87600576D01*
X107954981Y-87577248D01*
X107971734Y-87542382D01*
X107972120Y-87541637D01*
X107985688Y-87514046D01*
X107992001Y-87493357D01*
X107991932Y-87471582D01*
X107986354Y-87440730D01*
X107984238Y-87430831D01*
X107970927Y-87369038D01*
X107821895Y-87366341D01*
X107672864Y-87363643D01*
X107663627Y-87387939D01*
X107656715Y-87412493D01*
X107650167Y-87445776D01*
X107648116Y-87459524D01*
X107645597Y-87490590D01*
X107649900Y-87511778D01*
X107663279Y-87532202D01*
X107667268Y-87537028D01*
X107687695Y-87571156D01*
X107690990Y-87602879D01*
X107676919Y-87629304D01*
X107674827Y-87631293D01*
X107657681Y-87637935D01*
X107625302Y-87643061D01*
X107581760Y-87646664D01*
X107531125Y-87648733D01*
X107477466Y-87649261D01*
X107424854Y-87648238D01*
X107377359Y-87645654D01*
X107339050Y-87641502D01*
X107313998Y-87635771D01*
X107307505Y-87632110D01*
X107293570Y-87607222D01*
X107298341Y-87578562D01*
X107315202Y-87552961D01*
X107336045Y-87524582D01*
X107353546Y-87495499D01*
X107362241Y-87474531D01*
X107375548Y-87437229D01*
X107392725Y-87386052D01*
X107413026Y-87323455D01*
X107435709Y-87251897D01*
X107460028Y-87173834D01*
X107470396Y-87140067D01*
X107720071Y-87140067D01*
X107720213Y-87144187D01*
X107731802Y-87146519D01*
X107757652Y-87148110D01*
X107792499Y-87148962D01*
X107831078Y-87149082D01*
X107868125Y-87148472D01*
X107898377Y-87147139D01*
X107916569Y-87145086D01*
X107919342Y-87144016D01*
X107918454Y-87133398D01*
X107912752Y-87107190D01*
X107903017Y-87068519D01*
X107890031Y-87020516D01*
X107877249Y-86975497D01*
X107861723Y-86920998D01*
X107848310Y-86872191D01*
X107837914Y-86832512D01*
X107831443Y-86805399D01*
X107829701Y-86795096D01*
X107826300Y-86779542D01*
X107818870Y-86779976D01*
X107810547Y-86794210D01*
X107805754Y-86811809D01*
X107800865Y-86832941D01*
X107791626Y-86868602D01*
X107779171Y-86914568D01*
X107764636Y-86966614D01*
X107757290Y-86992381D01*
X107743183Y-87042906D01*
X107731738Y-87086571D01*
X107723764Y-87120063D01*
X107720071Y-87140067D01*
X107470396Y-87140067D01*
X107485241Y-87091723D01*
X107510604Y-87008021D01*
X107535371Y-86925185D01*
X107558801Y-86845672D01*
X107580148Y-86771940D01*
X107598669Y-86706444D01*
X107613620Y-86651642D01*
X107624257Y-86609991D01*
X107629837Y-86583948D01*
X107630141Y-86581918D01*
X107631656Y-86545543D01*
X107623134Y-86513078D01*
X107614705Y-86495019D01*
X107601808Y-86465735D01*
X107599079Y-86445204D01*
X107603637Y-86429774D01*
X107614119Y-86406769D01*
X107858216Y-86406769D01*
X107933658Y-86406843D01*
G37*
G36*
X109487855Y-84027852D02*
G01*
X109517757Y-84033308D01*
X109561016Y-84043428D01*
X109612389Y-84056886D01*
X109666633Y-84072359D01*
X109680380Y-84076493D01*
X109773003Y-84101833D01*
X109867275Y-84122547D01*
X109942307Y-84134977D01*
X110033361Y-84149073D01*
X110109437Y-84165726D01*
X110175082Y-84186807D01*
X110234843Y-84214187D01*
X110293267Y-84249738D01*
X110354903Y-84295331D01*
X110378787Y-84314590D01*
X110427004Y-84352055D01*
X110469207Y-84379159D01*
X110512601Y-84399929D01*
X110564395Y-84418391D01*
X110564846Y-84418535D01*
X110669199Y-84461046D01*
X110771045Y-84521451D01*
X110871575Y-84600484D01*
X110895908Y-84622556D01*
X110943802Y-84665022D01*
X110997700Y-84709450D01*
X111051007Y-84750577D01*
X111097128Y-84783141D01*
X111097211Y-84783196D01*
X111183922Y-84845847D01*
X111251978Y-84907855D01*
X111302187Y-84970283D01*
X111335356Y-85034196D01*
X111352294Y-85100656D01*
X111354358Y-85121670D01*
X111353290Y-85186820D01*
X111339750Y-85240780D01*
X111312072Y-85288636D01*
X111291839Y-85312475D01*
X111247218Y-85352660D01*
X111192823Y-85387113D01*
X111125495Y-85417489D01*
X111042077Y-85445446D01*
X111033769Y-85447873D01*
X110984257Y-85462038D01*
X110924809Y-85478809D01*
X110857865Y-85497519D01*
X110785866Y-85517503D01*
X110711252Y-85538093D01*
X110636462Y-85558622D01*
X110563936Y-85578425D01*
X110496114Y-85596834D01*
X110435436Y-85613183D01*
X110384343Y-85626805D01*
X110345273Y-85637035D01*
X110320667Y-85643204D01*
X110313072Y-85644769D01*
X110298229Y-85638472D01*
X110287121Y-85629417D01*
X110276707Y-85609576D01*
X110271821Y-85581697D01*
X110271769Y-85578733D01*
X110281426Y-85533696D01*
X110310343Y-85491497D01*
X110358443Y-85452199D01*
X110425644Y-85415862D01*
X110511869Y-85382548D01*
X110534116Y-85375403D01*
X110581610Y-85359537D01*
X110624975Y-85343054D01*
X110659186Y-85327985D01*
X110678259Y-85317114D01*
X110714331Y-85278651D01*
X110734621Y-85231610D01*
X110735224Y-85219930D01*
X110898828Y-85219930D01*
X110901110Y-85256415D01*
X110906533Y-85273098D01*
X110913983Y-85284370D01*
X110924410Y-85290644D01*
X110942570Y-85292901D01*
X110973220Y-85292122D01*
X110993235Y-85290990D01*
X111047776Y-85284879D01*
X111091813Y-85272680D01*
X111118286Y-85260808D01*
X111165032Y-85231795D01*
X111194245Y-85200407D01*
X111207931Y-85164050D01*
X111209579Y-85142778D01*
X111200256Y-85093436D01*
X111174330Y-85049826D01*
X111138877Y-85019485D01*
X111094309Y-85002918D01*
X111046715Y-85002945D01*
X111000510Y-85018092D01*
X110960105Y-85046884D01*
X110929913Y-85087848D01*
X110929047Y-85089583D01*
X110913558Y-85130310D01*
X110903231Y-85175827D01*
X110898828Y-85219930D01*
X110735224Y-85219930D01*
X110737267Y-85180347D01*
X110737153Y-85179496D01*
X110726777Y-85135387D01*
X110707229Y-85099680D01*
X110675554Y-85069003D01*
X110628793Y-85039981D01*
X110603923Y-85027464D01*
X110549389Y-84999730D01*
X110508146Y-84974316D01*
X110475001Y-84947203D01*
X110444764Y-84914372D01*
X110424766Y-84888806D01*
X110389571Y-84843572D01*
X110358547Y-84809131D01*
X110327306Y-84782412D01*
X110291456Y-84760345D01*
X110246610Y-84739859D01*
X110188376Y-84717883D01*
X110172241Y-84712159D01*
X110127210Y-84695646D01*
X110089503Y-84679774D01*
X110054902Y-84662095D01*
X110019189Y-84640164D01*
X109978143Y-84611535D01*
X109927547Y-84573763D01*
X109908624Y-84559325D01*
X109864262Y-84526259D01*
X109823644Y-84498558D01*
X109784013Y-84475197D01*
X109742611Y-84455152D01*
X109696681Y-84437400D01*
X109643465Y-84420915D01*
X109580207Y-84404675D01*
X109504148Y-84387654D01*
X109412530Y-84368828D01*
X109376421Y-84361651D01*
X109313041Y-84348793D01*
X109255076Y-84336405D01*
X109205648Y-84325203D01*
X109167878Y-84315907D01*
X109144890Y-84309233D01*
X109140429Y-84307404D01*
X109116401Y-84284712D01*
X109106886Y-84252423D01*
X109111772Y-84213894D01*
X109130947Y-84172484D01*
X109145620Y-84152042D01*
X109187089Y-84113457D01*
X109242702Y-84079688D01*
X109307289Y-84052614D01*
X109375678Y-84034109D01*
X109442698Y-84026051D01*
X109487855Y-84027852D01*
G37*
G36*
X108693842Y-86406346D02*
G01*
X108768857Y-86407309D01*
X108828216Y-86409249D01*
X108870820Y-86412104D01*
X108895570Y-86415811D01*
X108901024Y-86418058D01*
X108912904Y-86439111D01*
X108908409Y-86466259D01*
X108888165Y-86495969D01*
X108886980Y-86497219D01*
X108860115Y-86525239D01*
X108857254Y-86737100D01*
X108854392Y-86948961D01*
X108911017Y-86856154D01*
X108960251Y-86775355D01*
X109000112Y-86709366D01*
X109031417Y-86656325D01*
X109054983Y-86614370D01*
X109071627Y-86581640D01*
X109082166Y-86556274D01*
X109087417Y-86536410D01*
X109088197Y-86520186D01*
X109085323Y-86505742D01*
X109079613Y-86491216D01*
X109075282Y-86481931D01*
X109065196Y-86454619D01*
X109066355Y-86434689D01*
X109069746Y-86427069D01*
X109074273Y-86420164D01*
X109081198Y-86415031D01*
X109093186Y-86411409D01*
X109112904Y-86409036D01*
X109143016Y-86407648D01*
X109186190Y-86406984D01*
X109245091Y-86406780D01*
X109275893Y-86406769D01*
X109471176Y-86406769D01*
X109480963Y-86432511D01*
X109485244Y-86458857D01*
X109475611Y-86481357D01*
X109462358Y-86498165D01*
X109453371Y-86504469D01*
X109442564Y-86510456D01*
X109422840Y-86525729D01*
X109409571Y-86537139D01*
X109394769Y-86553893D01*
X109373063Y-86583016D01*
X109346507Y-86621271D01*
X109317155Y-86665421D01*
X109287064Y-86712230D01*
X109258287Y-86758463D01*
X109232880Y-86800882D01*
X109212897Y-86836252D01*
X109200393Y-86861336D01*
X109197154Y-86871692D01*
X109200618Y-86884193D01*
X109210186Y-86911457D01*
X109224621Y-86950142D01*
X109242686Y-86996904D01*
X109255083Y-87028274D01*
X109281096Y-87093792D01*
X109310447Y-87168088D01*
X109339733Y-87242531D01*
X109365551Y-87308488D01*
X109368209Y-87315307D01*
X109395982Y-87384986D01*
X109419008Y-87438697D01*
X109438642Y-87479032D01*
X109456244Y-87508584D01*
X109473168Y-87529945D01*
X109487473Y-87543151D01*
X109503610Y-87565941D01*
X109510054Y-87595611D01*
X109505829Y-87623595D01*
X109498046Y-87635738D01*
X109486791Y-87640064D01*
X109461856Y-87643323D01*
X109421833Y-87645591D01*
X109365313Y-87646942D01*
X109290890Y-87647453D01*
X109278029Y-87647461D01*
X109069735Y-87647461D01*
X109059016Y-87623937D01*
X109054352Y-87607074D01*
X109057125Y-87587529D01*
X109068533Y-87559308D01*
X109074391Y-87547081D01*
X109090344Y-87509240D01*
X109095467Y-87481145D01*
X109093639Y-87465585D01*
X109087623Y-87447916D01*
X109075482Y-87417215D01*
X109058843Y-87377196D01*
X109039333Y-87331570D01*
X109018580Y-87284050D01*
X108998210Y-87238348D01*
X108979852Y-87198178D01*
X108965132Y-87167251D01*
X108955678Y-87149279D01*
X108953839Y-87146655D01*
X108947251Y-87151855D01*
X108934833Y-87171691D01*
X108918483Y-87202854D01*
X108903455Y-87234578D01*
X108883946Y-87278535D01*
X108871377Y-87311327D01*
X108864231Y-87339404D01*
X108860990Y-87369212D01*
X108860134Y-87407201D01*
X108860115Y-87418645D01*
X108860600Y-87461926D01*
X108862845Y-87491143D01*
X108868034Y-87511758D01*
X108877353Y-87529237D01*
X108886980Y-87542551D01*
X108907601Y-87578328D01*
X108913214Y-87610128D01*
X108903265Y-87634544D01*
X108902123Y-87635738D01*
X108890334Y-87640261D01*
X108864319Y-87643614D01*
X108822709Y-87645878D01*
X108764132Y-87647132D01*
X108698923Y-87647461D01*
X108624609Y-87647016D01*
X108568445Y-87645629D01*
X108529059Y-87643220D01*
X108505080Y-87639710D01*
X108495723Y-87635738D01*
X108486745Y-87617263D01*
X108484408Y-87592616D01*
X108488834Y-87571192D01*
X108494786Y-87563794D01*
X108505151Y-87551364D01*
X108518549Y-87527918D01*
X108523879Y-87516814D01*
X108528183Y-87506271D01*
X108531759Y-87494095D01*
X108534675Y-87478477D01*
X108536999Y-87457608D01*
X108538799Y-87429680D01*
X108540143Y-87392883D01*
X108541099Y-87345410D01*
X108541735Y-87285450D01*
X108542120Y-87211196D01*
X108542321Y-87120839D01*
X108542400Y-87024359D01*
X108542407Y-86913705D01*
X108542208Y-86820858D01*
X108541653Y-86744087D01*
X108540586Y-86681659D01*
X108538855Y-86631845D01*
X108536306Y-86592911D01*
X108532785Y-86563127D01*
X108528140Y-86540761D01*
X108522217Y-86524081D01*
X108514862Y-86511357D01*
X108505922Y-86500857D01*
X108495244Y-86490848D01*
X108495117Y-86490736D01*
X108476828Y-86465269D01*
X108477970Y-86438308D01*
X108486857Y-86422543D01*
X108492814Y-86416618D01*
X108502562Y-86412247D01*
X108518770Y-86409221D01*
X108544105Y-86407331D01*
X108581238Y-86406368D01*
X108632835Y-86406124D01*
X108693842Y-86406346D01*
G37*
G36*
X109124083Y-84404198D02*
G01*
X109176253Y-84409656D01*
X109240294Y-84418769D01*
X109312678Y-84430938D01*
X109389877Y-84445561D01*
X109468364Y-84462038D01*
X109544611Y-84479769D01*
X109558181Y-84483137D01*
X109626841Y-84501753D01*
X109683044Y-84520972D01*
X109732748Y-84543698D01*
X109781913Y-84572838D01*
X109836499Y-84611299D01*
X109864640Y-84632591D01*
X109920558Y-84674703D01*
X109966285Y-84706778D01*
X110006471Y-84731487D01*
X110045765Y-84751500D01*
X110088819Y-84769489D01*
X110127910Y-84783802D01*
X110184783Y-84805470D01*
X110229069Y-84827306D01*
X110266235Y-84853247D01*
X110301752Y-84887233D01*
X110341089Y-84933202D01*
X110348925Y-84942962D01*
X110392102Y-84993242D01*
X110432076Y-85029963D01*
X110474243Y-85057111D01*
X110524000Y-85078671D01*
X110540423Y-85084382D01*
X110585246Y-85101514D01*
X110614872Y-85119179D01*
X110633444Y-85140674D01*
X110644486Y-85167184D01*
X110651045Y-85201521D01*
X110646714Y-85229404D01*
X110629732Y-85252471D01*
X110598337Y-85272358D01*
X110550770Y-85290704D01*
X110494336Y-85306821D01*
X110448464Y-85319751D01*
X110404997Y-85333801D01*
X110370605Y-85346741D01*
X110359038Y-85352026D01*
X110302000Y-85389757D01*
X110250841Y-85439683D01*
X110211834Y-85495496D01*
X110206890Y-85505059D01*
X110196766Y-85527397D01*
X110189230Y-85549468D01*
X110183627Y-85575198D01*
X110179305Y-85608514D01*
X110175610Y-85653341D01*
X110171890Y-85713606D01*
X110171727Y-85716480D01*
X110167741Y-85779704D01*
X110163637Y-85827032D01*
X110158869Y-85862098D01*
X110152893Y-85888541D01*
X110145164Y-85909997D01*
X110141556Y-85917800D01*
X110119699Y-85955341D01*
X110094830Y-85980055D01*
X110062482Y-85994320D01*
X110018184Y-86000514D01*
X109984542Y-86001346D01*
X109943183Y-86000719D01*
X109915343Y-85997899D01*
X109895017Y-85991482D01*
X109876201Y-85980059D01*
X109868159Y-85974083D01*
X109845271Y-85955194D01*
X109829407Y-85936732D01*
X109818703Y-85914177D01*
X109811293Y-85883010D01*
X109805314Y-85838711D01*
X109802848Y-85815749D01*
X109796327Y-85768431D01*
X109787286Y-85722815D01*
X109777286Y-85686314D01*
X109773362Y-85675910D01*
X109750856Y-85638402D01*
X109720945Y-85608300D01*
X109688593Y-85589864D01*
X109668713Y-85586154D01*
X109642655Y-85583005D01*
X109622463Y-85571161D01*
X109610764Y-85555978D01*
X109934119Y-85555978D01*
X109937116Y-85606358D01*
X109942751Y-85660363D01*
X109950905Y-85725467D01*
X109958528Y-85773363D01*
X109966365Y-85806339D01*
X109975160Y-85826683D01*
X109985659Y-85836685D01*
X109998605Y-85838633D01*
X110000688Y-85838389D01*
X110010880Y-85835876D01*
X110017296Y-85829330D01*
X110020795Y-85814972D01*
X110022235Y-85789022D01*
X110022474Y-85747701D01*
X110022464Y-85742461D01*
X110021327Y-85687033D01*
X110018403Y-85632722D01*
X110014093Y-85583659D01*
X110008796Y-85543975D01*
X110002911Y-85517802D01*
X110000123Y-85511446D01*
X109986046Y-85500314D01*
X109971444Y-85494029D01*
X109954084Y-85492246D01*
X109942288Y-85500755D01*
X109935738Y-85521388D01*
X109934119Y-85555978D01*
X109610764Y-85555978D01*
X109603861Y-85547020D01*
X109588239Y-85518396D01*
X109545957Y-85454848D01*
X109488266Y-85401933D01*
X109414132Y-85358703D01*
X109414113Y-85358694D01*
X109344218Y-85335198D01*
X109264110Y-85323610D01*
X109178902Y-85323721D01*
X109093709Y-85335324D01*
X109013644Y-85358207D01*
X108971097Y-85376806D01*
X108908968Y-85416341D01*
X108859854Y-85464307D01*
X108825655Y-85518127D01*
X108808271Y-85575222D01*
X108806439Y-85600165D01*
X108811450Y-85630157D01*
X108824302Y-85664698D01*
X108841577Y-85696712D01*
X108859858Y-85719120D01*
X108865951Y-85723432D01*
X108882066Y-85741045D01*
X108883943Y-85763736D01*
X108872240Y-85783942D01*
X108860046Y-85791334D01*
X108847072Y-85795742D01*
X108826037Y-85802047D01*
X108795349Y-85810676D01*
X108753413Y-85822060D01*
X108698637Y-85836624D01*
X108629428Y-85854799D01*
X108544193Y-85877011D01*
X108460642Y-85898690D01*
X108384015Y-85919419D01*
X108323582Y-85938127D01*
X108276305Y-85956234D01*
X108239146Y-85975160D01*
X108209067Y-85996326D01*
X108183028Y-86021154D01*
X108172038Y-86033639D01*
X108142176Y-86063807D01*
X108108012Y-86090832D01*
X108087089Y-86103504D01*
X108058115Y-86116217D01*
X108032641Y-86121499D01*
X108001541Y-86120652D01*
X107982189Y-86118484D01*
X107908600Y-86112272D01*
X107834550Y-86112806D01*
X107780615Y-86116767D01*
X107746173Y-86118790D01*
X107716753Y-86118462D01*
X107705098Y-86117094D01*
X107674452Y-86101566D01*
X107654532Y-86072951D01*
X107646226Y-86035041D01*
X107650416Y-85991629D01*
X107666102Y-85950030D01*
X107675393Y-85935833D01*
X107694569Y-85909206D01*
X107721990Y-85872268D01*
X107756015Y-85827137D01*
X107774220Y-85803226D01*
X108066677Y-85803226D01*
X108075646Y-85818661D01*
X108083997Y-85826369D01*
X108091933Y-85828501D01*
X108103627Y-85823425D01*
X108123256Y-85809507D01*
X108148401Y-85790196D01*
X108172226Y-85772364D01*
X108191922Y-85760420D01*
X108212691Y-85752753D01*
X108239737Y-85747754D01*
X108278263Y-85743815D01*
X108305611Y-85741566D01*
X108389189Y-85732891D01*
X108453533Y-85721813D01*
X108498803Y-85708285D01*
X108525160Y-85692261D01*
X108532846Y-85675515D01*
X108528413Y-85653548D01*
X108513589Y-85641735D01*
X108486086Y-85639464D01*
X108443615Y-85646121D01*
X108432464Y-85648623D01*
X108357803Y-85660093D01*
X108278846Y-85662312D01*
X108236552Y-85661525D01*
X108207248Y-85663353D01*
X108184435Y-85669035D01*
X108161613Y-85679813D01*
X108148791Y-85687134D01*
X108110622Y-85714856D01*
X108083003Y-85745621D01*
X108067750Y-85776165D01*
X108066677Y-85803226D01*
X107774220Y-85803226D01*
X107795004Y-85775929D01*
X107837316Y-85720765D01*
X107881311Y-85663761D01*
X107925348Y-85607035D01*
X107967787Y-85552707D01*
X108006987Y-85502892D01*
X108041307Y-85459711D01*
X108069108Y-85425280D01*
X108088749Y-85401718D01*
X108098589Y-85391142D01*
X108099276Y-85390769D01*
X108108613Y-85394945D01*
X108130834Y-85406004D01*
X108161525Y-85421740D01*
X108168464Y-85425344D01*
X108253865Y-85459993D01*
X108340960Y-85475436D01*
X108431743Y-85472007D01*
X108441026Y-85470650D01*
X108519860Y-85451520D01*
X108590117Y-85421035D01*
X108650117Y-85381048D01*
X108698180Y-85333413D01*
X108732626Y-85279983D01*
X108745398Y-85241714D01*
X109911273Y-85241714D01*
X109916948Y-85269776D01*
X109919835Y-85277787D01*
X109931966Y-85297860D01*
X109946830Y-85299952D01*
X109965163Y-85283754D01*
X109987447Y-85249408D01*
X110010470Y-85214104D01*
X110035800Y-85189667D01*
X110068904Y-85172361D01*
X110115252Y-85158454D01*
X110123538Y-85156464D01*
X110159573Y-85145460D01*
X110178020Y-85132307D01*
X110180826Y-85114721D01*
X110173907Y-85097376D01*
X110165687Y-85085783D01*
X110153398Y-85079902D01*
X110131735Y-85078482D01*
X110100087Y-85079967D01*
X110036736Y-85092651D01*
X109983641Y-85121518D01*
X109942089Y-85165791D01*
X109932532Y-85181137D01*
X109916115Y-85214851D01*
X109911273Y-85241714D01*
X108745398Y-85241714D01*
X108751774Y-85222610D01*
X108753945Y-85163148D01*
X108747870Y-85132245D01*
X108722213Y-85075401D01*
X108680102Y-85028913D01*
X108621802Y-84993026D01*
X108579250Y-84976711D01*
X108563718Y-84964060D01*
X108562872Y-84943083D01*
X108575835Y-84917271D01*
X108576978Y-84916063D01*
X109014056Y-84916063D01*
X109025134Y-84970195D01*
X109052836Y-85020953D01*
X109096744Y-85066539D01*
X109156440Y-85105155D01*
X109231506Y-85135003D01*
X109246000Y-85139139D01*
X109293194Y-85147693D01*
X109352994Y-85152438D01*
X109419283Y-85153476D01*
X109485940Y-85150913D01*
X109546848Y-85144853D01*
X109595887Y-85135402D01*
X109604051Y-85133013D01*
X109674300Y-85102611D01*
X109731014Y-85061085D01*
X109772802Y-85010095D01*
X109798274Y-84951301D01*
X109806102Y-84891848D01*
X109796851Y-84832197D01*
X109770261Y-84777903D01*
X109728077Y-84730134D01*
X109672046Y-84690061D01*
X109603912Y-84658851D01*
X109525422Y-84637675D01*
X109438321Y-84627701D01*
X109410776Y-84627068D01*
X109331427Y-84630771D01*
X109264424Y-84643377D01*
X109203981Y-84666507D01*
X109144342Y-84701763D01*
X109084745Y-84751408D01*
X109043444Y-84804872D01*
X109020020Y-84860356D01*
X109014056Y-84916063D01*
X108576978Y-84916063D01*
X108600786Y-84890906D01*
X108620301Y-84872680D01*
X108649641Y-84843030D01*
X108685710Y-84805192D01*
X108725411Y-84762397D01*
X108753594Y-84731346D01*
X108830429Y-84646464D01*
X108895618Y-84575775D01*
X108950007Y-84518446D01*
X108994442Y-84473646D01*
X109029767Y-84440541D01*
X109056829Y-84418301D01*
X109076473Y-84406093D01*
X109087310Y-84402995D01*
X109124083Y-84404198D01*
G37*
G36*
X109626270Y-81080156D02*
G01*
X109751935Y-81084070D01*
X109866506Y-81091034D01*
X109974149Y-81101518D01*
X110079029Y-81115992D01*
X110185311Y-81134924D01*
X110297161Y-81158783D01*
X110389000Y-81180635D01*
X110645183Y-81253645D01*
X110892787Y-81343973D01*
X111131187Y-81451094D01*
X111359761Y-81574482D01*
X111577885Y-81713612D01*
X111784936Y-81867956D01*
X111980292Y-82036990D01*
X112163328Y-82220187D01*
X112333422Y-82417021D01*
X112489950Y-82626967D01*
X112632290Y-82849498D01*
X112759818Y-83084088D01*
X112835705Y-83245575D01*
X112946294Y-83519781D01*
X113038092Y-83799327D01*
X113111071Y-84084099D01*
X113165200Y-84373981D01*
X113200452Y-84668857D01*
X113202424Y-84692269D01*
X113203688Y-84717732D01*
X113204887Y-84761811D01*
X113206016Y-84823584D01*
X113207068Y-84902129D01*
X113208039Y-84996522D01*
X113208921Y-85105842D01*
X113209710Y-85229166D01*
X113210399Y-85365572D01*
X113210983Y-85514138D01*
X113211456Y-85673941D01*
X113211812Y-85844058D01*
X113212045Y-86023569D01*
X113212149Y-86211549D01*
X113212153Y-86236197D01*
X113212196Y-86434883D01*
X113212254Y-86615019D01*
X113212283Y-86777595D01*
X113212240Y-86923598D01*
X113212084Y-87054019D01*
X113211773Y-87169846D01*
X113211262Y-87272067D01*
X113210511Y-87361672D01*
X113209477Y-87439649D01*
X113208117Y-87506987D01*
X113206389Y-87564675D01*
X113204250Y-87613703D01*
X113201658Y-87655058D01*
X113198571Y-87689730D01*
X113194945Y-87718707D01*
X113190740Y-87742978D01*
X113185911Y-87763533D01*
X113180418Y-87781359D01*
X113174216Y-87797447D01*
X113167265Y-87812784D01*
X113159520Y-87828359D01*
X113150941Y-87845162D01*
X113142358Y-87862384D01*
X113119551Y-87905697D01*
X113095354Y-87942749D01*
X113065382Y-87979411D01*
X113025248Y-88021549D01*
X113017897Y-88028887D01*
X112944790Y-88093935D01*
X112870621Y-88143259D01*
X112789682Y-88180114D01*
X112710072Y-88204378D01*
X112702623Y-88206200D01*
X112694789Y-88207904D01*
X112685924Y-88209495D01*
X112675383Y-88210976D01*
X112662520Y-88212350D01*
X112646692Y-88213621D01*
X112627252Y-88214794D01*
X112603555Y-88215872D01*
X112574956Y-88216858D01*
X112540810Y-88217757D01*
X112500472Y-88218572D01*
X112453297Y-88219307D01*
X112398638Y-88219966D01*
X112335852Y-88220552D01*
X112264293Y-88221069D01*
X112183316Y-88221521D01*
X112092275Y-88221912D01*
X111990526Y-88222245D01*
X111877423Y-88222524D01*
X111752321Y-88222754D01*
X111614574Y-88222937D01*
X111463539Y-88223077D01*
X111298569Y-88223179D01*
X111119019Y-88223245D01*
X110924245Y-88223281D01*
X110713600Y-88223288D01*
X110486440Y-88223272D01*
X110242120Y-88223236D01*
X109979994Y-88223184D01*
X109699417Y-88223119D01*
X109495995Y-88223069D01*
X109195699Y-88222984D01*
X108914345Y-88222881D01*
X108651337Y-88222757D01*
X108406079Y-88222609D01*
X108177974Y-88222435D01*
X107966427Y-88222231D01*
X107770841Y-88221997D01*
X107590620Y-88221728D01*
X107425168Y-88221422D01*
X107273889Y-88221077D01*
X107136185Y-88220690D01*
X107011462Y-88220258D01*
X106899122Y-88219779D01*
X106798571Y-88219249D01*
X106709210Y-88218667D01*
X106630445Y-88218029D01*
X106561679Y-88217334D01*
X106502316Y-88216577D01*
X106451759Y-88215758D01*
X106409413Y-88214872D01*
X106374681Y-88213918D01*
X106346966Y-88212892D01*
X106325674Y-88211793D01*
X106310207Y-88210617D01*
X106299969Y-88209362D01*
X106297337Y-88208866D01*
X106198871Y-88177746D01*
X106106152Y-88129371D01*
X106021175Y-88065660D01*
X105945932Y-87988531D01*
X105882418Y-87899905D01*
X105832625Y-87801701D01*
X105810560Y-87740269D01*
X105808137Y-87731703D01*
X105805941Y-87721930D01*
X105803962Y-87709998D01*
X105802188Y-87694953D01*
X105800608Y-87675840D01*
X105799210Y-87651707D01*
X105797984Y-87621599D01*
X105796919Y-87584563D01*
X105796003Y-87539646D01*
X105795225Y-87485894D01*
X105794573Y-87422352D01*
X105794038Y-87348069D01*
X105793607Y-87262089D01*
X105793269Y-87163460D01*
X105793014Y-87051227D01*
X105792829Y-86924437D01*
X105792704Y-86782137D01*
X105792628Y-86623372D01*
X105792589Y-86447189D01*
X105792577Y-86252635D01*
X105792577Y-86235807D01*
X105929346Y-86235807D01*
X105929355Y-86429758D01*
X105929389Y-86605148D01*
X105929461Y-86762957D01*
X105929583Y-86904162D01*
X105929766Y-87029742D01*
X105930023Y-87140675D01*
X105930366Y-87237939D01*
X105930806Y-87322513D01*
X105931356Y-87395375D01*
X105932027Y-87457503D01*
X105932831Y-87509876D01*
X105933781Y-87553471D01*
X105934889Y-87589268D01*
X105936166Y-87618244D01*
X105937624Y-87641378D01*
X105939276Y-87659648D01*
X105941133Y-87674033D01*
X105943207Y-87685510D01*
X105945511Y-87695058D01*
X105947289Y-87701192D01*
X105986236Y-87796880D01*
X106040177Y-87880799D01*
X106107666Y-87951745D01*
X106187261Y-88008512D01*
X106277517Y-88049896D01*
X106376990Y-88074690D01*
X106398269Y-88077601D01*
X106412605Y-88078146D01*
X106445725Y-88078671D01*
X106496874Y-88079174D01*
X106565298Y-88079654D01*
X106650243Y-88080109D01*
X106750954Y-88080539D01*
X106866676Y-88080941D01*
X106996655Y-88081315D01*
X107140137Y-88081660D01*
X107296367Y-88081973D01*
X107464590Y-88082254D01*
X107644052Y-88082501D01*
X107833998Y-88082713D01*
X108033675Y-88082889D01*
X108242327Y-88083028D01*
X108459199Y-88083128D01*
X108683539Y-88083187D01*
X108914590Y-88083205D01*
X109151599Y-88083180D01*
X109393811Y-88083111D01*
X109543961Y-88083047D01*
X109845853Y-88082887D01*
X110128762Y-88082708D01*
X110393244Y-88082507D01*
X110639857Y-88082281D01*
X110869155Y-88082029D01*
X111081695Y-88081746D01*
X111278033Y-88081432D01*
X111458724Y-88081083D01*
X111624326Y-88080697D01*
X111775394Y-88080272D01*
X111912483Y-88079805D01*
X112036151Y-88079294D01*
X112146953Y-88078736D01*
X112245445Y-88078128D01*
X112332183Y-88077469D01*
X112407724Y-88076755D01*
X112472623Y-88075985D01*
X112527437Y-88075156D01*
X112572721Y-88074265D01*
X112609031Y-88073310D01*
X112636924Y-88072288D01*
X112656956Y-88071197D01*
X112669682Y-88070035D01*
X112674728Y-88069125D01*
X112766891Y-88033938D01*
X112850219Y-87982724D01*
X112914401Y-87927177D01*
X112957181Y-87882159D01*
X112989796Y-87839968D01*
X113016497Y-87793990D01*
X113041534Y-87737606D01*
X113049878Y-87716316D01*
X113052798Y-87708535D01*
X113055433Y-87700536D01*
X113057801Y-87691320D01*
X113059917Y-87679884D01*
X113061798Y-87665229D01*
X113063463Y-87646353D01*
X113064927Y-87622255D01*
X113066209Y-87591935D01*
X113067324Y-87554392D01*
X113068289Y-87508625D01*
X113069123Y-87453633D01*
X113069841Y-87388415D01*
X113070462Y-87311971D01*
X113071001Y-87223300D01*
X113071475Y-87121400D01*
X113071903Y-87005271D01*
X113072300Y-86873912D01*
X113072684Y-86726323D01*
X113073072Y-86561502D01*
X113073481Y-86378449D01*
X113073612Y-86318846D01*
X113074032Y-86111051D01*
X113074320Y-85921724D01*
X113074454Y-85749794D01*
X113074412Y-85594190D01*
X113074171Y-85453842D01*
X113073710Y-85327679D01*
X113073007Y-85214629D01*
X113072040Y-85113624D01*
X113070785Y-85023591D01*
X113069223Y-84943461D01*
X113067330Y-84872163D01*
X113065084Y-84808626D01*
X113062463Y-84751779D01*
X113059446Y-84700552D01*
X113056010Y-84653874D01*
X113052133Y-84610674D01*
X113047793Y-84569883D01*
X113042968Y-84530429D01*
X113037636Y-84491241D01*
X113035683Y-84477642D01*
X112986559Y-84198152D01*
X112921837Y-83927281D01*
X112841881Y-83665728D01*
X112747058Y-83414191D01*
X112637732Y-83173371D01*
X112514269Y-82943964D01*
X112377035Y-82726671D01*
X112226394Y-82522189D01*
X112062711Y-82331219D01*
X111886353Y-82154457D01*
X111765204Y-82047604D01*
X111606609Y-81921185D01*
X111449344Y-81809424D01*
X111287911Y-81708671D01*
X111116814Y-81615276D01*
X111104668Y-81609090D01*
X110864484Y-81498070D01*
X110618789Y-81405685D01*
X110368281Y-81332043D01*
X110113655Y-81277254D01*
X109855608Y-81241426D01*
X109594837Y-81224668D01*
X109332039Y-81227088D01*
X109067909Y-81248795D01*
X108923615Y-81268789D01*
X108675481Y-81317921D01*
X108432372Y-81385538D01*
X108195278Y-81471006D01*
X107965187Y-81573693D01*
X107743089Y-81692966D01*
X107529972Y-81828192D01*
X107326826Y-81978740D01*
X107134639Y-82143975D01*
X106954400Y-82323265D01*
X106787099Y-82515978D01*
X106633724Y-82721480D01*
X106618785Y-82743307D01*
X106569045Y-82817434D01*
X106527834Y-82881167D01*
X106492039Y-82939801D01*
X106458541Y-82998632D01*
X106424226Y-83062953D01*
X106385979Y-83138061D01*
X106383080Y-83143846D01*
X106274560Y-83379132D01*
X106180659Y-83622642D01*
X106100995Y-83875719D01*
X106035185Y-84139706D01*
X105982848Y-84415944D01*
X105946778Y-84677615D01*
X105944357Y-84699812D01*
X105942170Y-84722953D01*
X105940204Y-84748080D01*
X105938447Y-84776235D01*
X105936889Y-84808464D01*
X105935518Y-84845807D01*
X105934321Y-84889309D01*
X105933287Y-84940012D01*
X105932405Y-84998959D01*
X105931663Y-85067194D01*
X105931048Y-85145759D01*
X105930550Y-85235698D01*
X105930157Y-85338053D01*
X105929857Y-85453868D01*
X105929639Y-85584185D01*
X105929490Y-85730048D01*
X105929400Y-85892500D01*
X105929356Y-86072583D01*
X105929346Y-86235807D01*
X105792577Y-86235807D01*
X105792577Y-86206500D01*
X105792571Y-86003786D01*
X105792573Y-85819538D01*
X105792616Y-85652680D01*
X105792729Y-85502138D01*
X105792945Y-85366840D01*
X105793293Y-85245710D01*
X105793806Y-85137675D01*
X105794515Y-85041661D01*
X105795450Y-84956594D01*
X105796642Y-84881400D01*
X105798124Y-84815006D01*
X105799925Y-84756336D01*
X105802077Y-84704318D01*
X105804612Y-84657877D01*
X105807560Y-84615940D01*
X105810952Y-84577432D01*
X105814820Y-84541280D01*
X105819194Y-84506410D01*
X105824107Y-84471747D01*
X105829588Y-84436218D01*
X105835669Y-84398749D01*
X105842381Y-84358266D01*
X105846936Y-84330807D01*
X105899424Y-84063484D01*
X105967376Y-83801322D01*
X106050070Y-83546226D01*
X106146781Y-83300103D01*
X106256787Y-83064860D01*
X106379365Y-82842403D01*
X106460672Y-82712780D01*
X106614471Y-82496491D01*
X106781942Y-82293174D01*
X106962213Y-82103418D01*
X107154417Y-81927814D01*
X107357683Y-81766953D01*
X107571142Y-81621426D01*
X107793925Y-81491823D01*
X108025162Y-81378735D01*
X108263984Y-81282753D01*
X108509522Y-81204467D01*
X108760905Y-81144469D01*
X108772192Y-81142238D01*
X108865388Y-81124522D01*
X108947644Y-81110339D01*
X109023095Y-81099320D01*
X109095874Y-81091097D01*
X109170117Y-81085304D01*
X109249956Y-81081573D01*
X109339527Y-81079535D01*
X109442963Y-81078824D01*
X109485346Y-81078823D01*
X109626270Y-81080156D01*
G37*
D14*
%TO.C,SW2*%
X126080000Y-66360000D02*
X133460000Y-66360000D01*
X130405000Y-71986667D02*
X131675000Y-71986667D01*
X127865000Y-71986667D02*
X129135000Y-71986667D01*
X133460000Y-76260000D02*
X133460000Y-66360000D01*
X126080000Y-76260000D02*
X126080000Y-66360000D01*
X126080000Y-76260000D02*
X133460000Y-76260000D01*
X125840000Y-76500000D02*
X125840000Y-75117000D01*
X125840000Y-76500000D02*
X127223000Y-76500000D01*
X130405000Y-73340000D02*
X131675000Y-73340000D01*
X131675000Y-69280000D01*
X130405000Y-69280000D01*
X130405000Y-73340000D01*
X130405000Y-73340000D02*
X131675000Y-73340000D01*
X131675000Y-71986667D01*
X130405000Y-71986667D01*
X130405000Y-73340000D01*
G36*
X130405000Y-73340000D02*
G01*
X131675000Y-73340000D01*
X131675000Y-71986667D01*
X130405000Y-71986667D01*
X130405000Y-73340000D01*
G37*
X127865000Y-73340000D02*
X129135000Y-73340000D01*
X129135000Y-69280000D01*
X127865000Y-69280000D01*
X127865000Y-73340000D01*
X127865000Y-73340000D02*
X129135000Y-73340000D01*
X129135000Y-71986667D01*
X127865000Y-71986667D01*
X127865000Y-73340000D01*
G36*
X127865000Y-73340000D02*
G01*
X129135000Y-73340000D01*
X129135000Y-71986667D01*
X127865000Y-71986667D01*
X127865000Y-73340000D01*
G37*
D11*
%TO.C,D5*%
X116250000Y-88455000D02*
X118540000Y-88455000D01*
X118540000Y-86995000D02*
X116250000Y-86995000D01*
X118540000Y-88455000D02*
X118540000Y-86995000D01*
D14*
%TO.C,J2*%
X93370000Y-55670000D02*
X93370000Y-76110000D01*
X93370000Y-55670000D02*
X102000000Y-55670000D01*
X93370000Y-55790000D02*
X102000000Y-55790000D01*
X93370000Y-55908095D02*
X102000000Y-55908095D01*
X93370000Y-56026190D02*
X102000000Y-56026190D01*
X93370000Y-56144285D02*
X102000000Y-56144285D01*
X93370000Y-56262380D02*
X102000000Y-56262380D01*
X93370000Y-56380475D02*
X102000000Y-56380475D01*
X93370000Y-56498570D02*
X102000000Y-56498570D01*
X93370000Y-56616665D02*
X102000000Y-56616665D01*
X93370000Y-56734760D02*
X102000000Y-56734760D01*
X93370000Y-56852855D02*
X102000000Y-56852855D01*
X93370000Y-56970950D02*
X102000000Y-56970950D01*
X93370000Y-57089045D02*
X102000000Y-57089045D01*
X93370000Y-57207140D02*
X102000000Y-57207140D01*
X93370000Y-57325235D02*
X102000000Y-57325235D01*
X93370000Y-57443330D02*
X102000000Y-57443330D01*
X93370000Y-57561425D02*
X102000000Y-57561425D01*
X93370000Y-57679520D02*
X102000000Y-57679520D01*
X93370000Y-57797615D02*
X102000000Y-57797615D01*
X93370000Y-57915710D02*
X102000000Y-57915710D01*
X93370000Y-58033805D02*
X102000000Y-58033805D01*
X93370000Y-58151900D02*
X102000000Y-58151900D01*
X93370000Y-58270000D02*
X102000000Y-58270000D01*
X93370000Y-60810000D02*
X102000000Y-60810000D01*
X93370000Y-63350000D02*
X102000000Y-63350000D01*
X93370000Y-65890000D02*
X102000000Y-65890000D01*
X93370000Y-68430000D02*
X102000000Y-68430000D01*
X93370000Y-70970000D02*
X102000000Y-70970000D01*
X93370000Y-73510000D02*
X102000000Y-73510000D01*
X93370000Y-76110000D02*
X102000000Y-76110000D01*
X102000000Y-55670000D02*
X102000000Y-76110000D01*
X102000000Y-56640000D02*
X102410000Y-56640000D01*
X102000000Y-57360000D02*
X102410000Y-57360000D01*
X102000000Y-59180000D02*
X102410000Y-59180000D01*
X102000000Y-59900000D02*
X102410000Y-59900000D01*
X102000000Y-61720000D02*
X102410000Y-61720000D01*
X102000000Y-62440000D02*
X102410000Y-62440000D01*
X102000000Y-64260000D02*
X102410000Y-64260000D01*
X102000000Y-64980000D02*
X102410000Y-64980000D01*
X102000000Y-66800000D02*
X102410000Y-66800000D01*
X102000000Y-67520000D02*
X102410000Y-67520000D01*
X102000000Y-69340000D02*
X102410000Y-69340000D01*
X102000000Y-70060000D02*
X102410000Y-70060000D01*
X102000000Y-71880000D02*
X102410000Y-71880000D01*
X102000000Y-72600000D02*
X102410000Y-72600000D01*
X102000000Y-74420000D02*
X102410000Y-74420000D01*
X102000000Y-75140000D02*
X102410000Y-75140000D01*
X104510000Y-56640000D02*
X104890000Y-56640000D01*
X104510000Y-57360000D02*
X104890000Y-57360000D01*
X104510000Y-59180000D02*
X104950000Y-59180000D01*
X104510000Y-59900000D02*
X104950000Y-59900000D01*
X104510000Y-61720000D02*
X104950000Y-61720000D01*
X104510000Y-62440000D02*
X104950000Y-62440000D01*
X104510000Y-64260000D02*
X104950000Y-64260000D01*
X104510000Y-64980000D02*
X104950000Y-64980000D01*
X104510000Y-66800000D02*
X104950000Y-66800000D01*
X104510000Y-67520000D02*
X104950000Y-67520000D01*
X104510000Y-69340000D02*
X104950000Y-69340000D01*
X104510000Y-70060000D02*
X104950000Y-70060000D01*
X104510000Y-71880000D02*
X104950000Y-71880000D01*
X104510000Y-72600000D02*
X104950000Y-72600000D01*
X104510000Y-74420000D02*
X104950000Y-74420000D01*
X104510000Y-75140000D02*
X104950000Y-75140000D01*
X106000000Y-55670000D02*
X107110000Y-55670000D01*
X107110000Y-55670000D02*
X107110000Y-57000000D01*
D11*
%TO.C,D1*%
X121200000Y-55770000D02*
X121200000Y-55600000D01*
X121200000Y-58400000D02*
X121200000Y-58230000D01*
X124360000Y-55600000D02*
X124360000Y-58400000D01*
X125800000Y-55600000D02*
X121200000Y-55600000D01*
X125800000Y-55770000D02*
X125800000Y-55600000D01*
X125800000Y-58400000D02*
X121200000Y-58400000D01*
X125800000Y-58400000D02*
X125800000Y-58230000D01*
D14*
%TO.C,J3*%
X115240000Y-79215000D02*
X115240000Y-85185000D01*
X115240000Y-85185000D02*
X130360000Y-85185000D01*
X115250000Y-82925000D02*
X116000000Y-82925000D01*
X115250000Y-84425000D02*
X115250000Y-85175000D01*
X115250000Y-85175000D02*
X117050000Y-85175000D01*
X116000000Y-79975000D02*
X122800000Y-79975000D01*
X116000000Y-82925000D02*
X116000000Y-79975000D01*
X117050000Y-84425000D02*
X115250000Y-84425000D01*
X117050000Y-85175000D02*
X117050000Y-84425000D01*
X118550000Y-84425000D02*
X118550000Y-85175000D01*
X118550000Y-85175000D02*
X127050000Y-85175000D01*
X127050000Y-84425000D02*
X118550000Y-84425000D01*
X127050000Y-85175000D02*
X127050000Y-84425000D01*
X128550000Y-84425000D02*
X128550000Y-85175000D01*
X128550000Y-85175000D02*
X130350000Y-85175000D01*
X129400000Y-85475000D02*
X130650000Y-85475000D01*
X129600000Y-79975000D02*
X122800000Y-79975000D01*
X129600000Y-82925000D02*
X129600000Y-79975000D01*
X130350000Y-82925000D02*
X129600000Y-82925000D01*
X130350000Y-84425000D02*
X128550000Y-84425000D01*
X130350000Y-85175000D02*
X130350000Y-84425000D01*
X130360000Y-79215000D02*
X115240000Y-79215000D01*
X130360000Y-85185000D02*
X130360000Y-79215000D01*
X130650000Y-85475000D02*
X130650000Y-84225000D01*
%TO.C,J1*%
X135690000Y-55700000D02*
X136960000Y-55700000D01*
X135690000Y-56970000D02*
X135690000Y-55700000D01*
X138037358Y-59080000D02*
X138422642Y-59080000D01*
X138037358Y-59940000D02*
X138422642Y-59940000D01*
X138037358Y-61620000D02*
X138422642Y-61620000D01*
X138037358Y-62480000D02*
X138422642Y-62480000D01*
X138037358Y-64160000D02*
X138422642Y-64160000D01*
X138037358Y-65020000D02*
X138422642Y-65020000D01*
X138037358Y-66700000D02*
X138422642Y-66700000D01*
X138037358Y-67560000D02*
X138422642Y-67560000D01*
X138037358Y-69240000D02*
X138422642Y-69240000D01*
X138037358Y-70100000D02*
X138422642Y-70100000D01*
X138037358Y-71780000D02*
X138422642Y-71780000D01*
X138037358Y-72640000D02*
X138422642Y-72640000D01*
X138037358Y-74320000D02*
X138422642Y-74320000D01*
X138037358Y-75180000D02*
X138422642Y-75180000D01*
X138120000Y-56540000D02*
X138422642Y-56540000D01*
X138120000Y-57400000D02*
X138422642Y-57400000D01*
X140577358Y-56540000D02*
X140890000Y-56540000D01*
X140577358Y-57400000D02*
X140890000Y-57400000D01*
X140577358Y-59080000D02*
X140890000Y-59080000D01*
X140577358Y-59940000D02*
X140890000Y-59940000D01*
X140577358Y-61620000D02*
X140890000Y-61620000D01*
X140577358Y-62480000D02*
X140890000Y-62480000D01*
X140577358Y-64160000D02*
X140890000Y-64160000D01*
X140577358Y-65020000D02*
X140890000Y-65020000D01*
X140577358Y-66700000D02*
X140890000Y-66700000D01*
X140577358Y-67560000D02*
X140890000Y-67560000D01*
X140577358Y-69240000D02*
X140890000Y-69240000D01*
X140577358Y-70100000D02*
X140890000Y-70100000D01*
X140577358Y-71780000D02*
X140890000Y-71780000D01*
X140577358Y-72640000D02*
X140890000Y-72640000D01*
X140577358Y-74320000D02*
X140890000Y-74320000D01*
X140577358Y-75180000D02*
X140890000Y-75180000D01*
X140890000Y-55590000D02*
X140890000Y-76130000D01*
X140890000Y-58240000D02*
X143650000Y-58240000D01*
X140890000Y-60780000D02*
X143650000Y-60780000D01*
X140890000Y-63320000D02*
X143650000Y-63320000D01*
X140890000Y-65860000D02*
X143650000Y-65860000D01*
X140890000Y-68400000D02*
X143650000Y-68400000D01*
X140890000Y-70940000D02*
X143650000Y-70940000D01*
X140890000Y-73480000D02*
X143650000Y-73480000D01*
X140890000Y-76130000D02*
X143650000Y-76130000D01*
X143650000Y-55590000D02*
X140890000Y-55590000D01*
X143650000Y-59080000D02*
X149650000Y-59080000D01*
X143650000Y-61620000D02*
X149650000Y-61620000D01*
X143650000Y-64160000D02*
X149650000Y-64160000D01*
X143650000Y-66700000D02*
X149650000Y-66700000D01*
X143650000Y-69240000D02*
X149650000Y-69240000D01*
X143650000Y-71780000D02*
X149650000Y-71780000D01*
X143650000Y-74320000D02*
X149650000Y-74320000D01*
X143650000Y-76130000D02*
X143650000Y-55590000D01*
X149650000Y-59080000D02*
X149650000Y-59940000D01*
X149650000Y-59940000D02*
X143650000Y-59940000D01*
X149650000Y-61620000D02*
X149650000Y-62480000D01*
X149650000Y-62480000D02*
X143650000Y-62480000D01*
X149650000Y-64160000D02*
X149650000Y-65020000D01*
X149650000Y-65020000D02*
X143650000Y-65020000D01*
X149650000Y-66700000D02*
X149650000Y-67560000D01*
X149650000Y-67560000D02*
X143650000Y-67560000D01*
X149650000Y-69240000D02*
X149650000Y-70100000D01*
X149650000Y-70100000D02*
X143650000Y-70100000D01*
X149650000Y-71780000D02*
X149650000Y-72640000D01*
X149650000Y-72640000D02*
X143650000Y-72640000D01*
X149650000Y-74320000D02*
X149650000Y-75180000D01*
X149650000Y-75180000D02*
X143650000Y-75180000D01*
X143650000Y-56540000D02*
X149650000Y-56540000D01*
X149650000Y-57400000D01*
X143650000Y-57400000D01*
X143650000Y-56540000D01*
G36*
X143650000Y-56540000D02*
G01*
X149650000Y-56540000D01*
X149650000Y-57400000D01*
X143650000Y-57400000D01*
X143650000Y-56540000D01*
G37*
D11*
%TO.C,D2*%
X126750000Y-88455000D02*
X129040000Y-88455000D01*
X129040000Y-86995000D02*
X126750000Y-86995000D01*
X129040000Y-88455000D02*
X129040000Y-86995000D01*
%TO.C,D3*%
X123250000Y-88455000D02*
X125540000Y-88455000D01*
X125540000Y-86995000D02*
X123250000Y-86995000D01*
X125540000Y-88455000D02*
X125540000Y-86995000D01*
D14*
%TO.C,J4*%
X110820000Y-59810000D02*
X110820000Y-54620000D01*
X113580000Y-54620000D02*
X110820000Y-54620000D01*
X113580000Y-59810000D02*
X110820000Y-59810000D01*
X113580000Y-59810000D02*
X113580000Y-54620000D01*
X113580000Y-61080000D02*
X113580000Y-62460000D01*
X113580000Y-62460000D02*
X112200000Y-62460000D01*
%TO.C,SW1*%
X111461192Y-76500000D02*
X112844192Y-76500000D01*
X111461192Y-76500000D02*
X111461192Y-75117000D01*
X111701192Y-76260000D02*
X119081192Y-76260000D01*
X111701192Y-76260000D02*
X111701192Y-66360000D01*
X119081192Y-76260000D02*
X119081192Y-66360000D01*
X113486192Y-71986667D02*
X114756192Y-71986667D01*
X116026192Y-71986667D02*
X117296192Y-71986667D01*
X111701192Y-66360000D02*
X119081192Y-66360000D01*
X113486192Y-73340000D02*
X114756192Y-73340000D01*
X114756192Y-71986667D01*
X113486192Y-71986667D01*
X113486192Y-73340000D01*
G36*
X113486192Y-73340000D02*
G01*
X114756192Y-73340000D01*
X114756192Y-71986667D01*
X113486192Y-71986667D01*
X113486192Y-73340000D01*
G37*
X113486192Y-73340000D02*
X114756192Y-73340000D01*
X114756192Y-69280000D01*
X113486192Y-69280000D01*
X113486192Y-73340000D01*
X116026192Y-73340000D02*
X117296192Y-73340000D01*
X117296192Y-71986667D01*
X116026192Y-71986667D01*
X116026192Y-73340000D01*
G36*
X116026192Y-73340000D02*
G01*
X117296192Y-73340000D01*
X117296192Y-71986667D01*
X116026192Y-71986667D01*
X116026192Y-73340000D01*
G37*
X116026192Y-73340000D02*
X117296192Y-73340000D01*
X117296192Y-69280000D01*
X116026192Y-69280000D01*
X116026192Y-73340000D01*
D11*
%TO.C,D4*%
X119750000Y-88455000D02*
X122040000Y-88455000D01*
X122040000Y-86995000D02*
X119750000Y-86995000D01*
X122040000Y-88455000D02*
X122040000Y-86995000D01*
%TD*%
%LPC*%
D15*
%TO.C,U1*%
X123751500Y-63781500D03*
X123251501Y-63781500D03*
X122751500Y-63781500D03*
X122251500Y-63781500D03*
X121751499Y-63781500D03*
X121251500Y-63781500D03*
D16*
X120533000Y-64500000D03*
X120533000Y-64999999D03*
X120533000Y-65500000D03*
X120533000Y-66000000D03*
X120533000Y-66500001D03*
X120533000Y-67000000D03*
D15*
X121251500Y-67718500D03*
X121751499Y-67718500D03*
X122251500Y-67718500D03*
X122751500Y-67718500D03*
X123251501Y-67718500D03*
X123751500Y-67718500D03*
D16*
X124470000Y-67000000D03*
X124470000Y-66500001D03*
X124470000Y-66000000D03*
X124470000Y-65500000D03*
X124470000Y-64999999D03*
X124470000Y-64500000D03*
D17*
X122501500Y-65750000D03*
%TD*%
D18*
%TO.C,R2*%
X124840000Y-86225000D03*
X125840000Y-86225000D03*
%TD*%
%TO.C,R4*%
X117840000Y-86225000D03*
X118840000Y-86225000D03*
%TD*%
D19*
%TO.C,H4*%
X142600000Y-87600000D03*
%TD*%
D20*
%TO.C,SW2*%
X128500000Y-75120000D03*
D21*
X131040000Y-75120000D03*
X131040000Y-67500000D03*
X128500000Y-67500000D03*
%TD*%
D22*
%TO.C,C1*%
X120930000Y-62000000D03*
X119370000Y-62000000D03*
%TD*%
D23*
%TO.C,D5*%
X117840000Y-87725000D03*
X116260000Y-87725000D03*
%TD*%
D19*
%TO.C,H2*%
X102500000Y-52500000D03*
%TD*%
D24*
%TO.C,J2*%
X106000000Y-57000000D03*
D25*
X103460000Y-57000000D03*
X106000000Y-59540000D03*
X103460000Y-59540000D03*
X106000000Y-62080000D03*
X103460000Y-62080000D03*
X106000000Y-64620000D03*
X103460000Y-64620000D03*
X106000000Y-67160000D03*
X103460000Y-67160000D03*
X106000000Y-69700000D03*
X103460000Y-69700000D03*
X106000000Y-72240000D03*
X103460000Y-72240000D03*
X106000000Y-74780000D03*
X103460000Y-74780000D03*
%TD*%
D26*
%TO.C,D1*%
X125600000Y-57000000D03*
X121340000Y-57000000D03*
%TD*%
D27*
%TO.C,J3*%
X127800000Y-82725000D03*
D28*
X125300000Y-82725000D03*
X122800000Y-82725000D03*
X120300000Y-82725000D03*
X117800000Y-82725000D03*
%TD*%
D24*
%TO.C,J1*%
X136960000Y-56970000D03*
D25*
X139500000Y-56970000D03*
X136960000Y-59510000D03*
X139500000Y-59510000D03*
X136960000Y-62050000D03*
X139500000Y-62050000D03*
X136960000Y-64590000D03*
X139500000Y-64590000D03*
X136960000Y-67130000D03*
X139500000Y-67130000D03*
X136960000Y-69670000D03*
X139500000Y-69670000D03*
X136960000Y-72210000D03*
X139500000Y-72210000D03*
X136960000Y-74750000D03*
X139500000Y-74750000D03*
%TD*%
D23*
%TO.C,D2*%
X128340000Y-87725000D03*
X126760000Y-87725000D03*
%TD*%
D29*
%TO.C,C2*%
X120950000Y-60000000D03*
X117990000Y-60000000D03*
%TD*%
D19*
%TO.C,H1*%
X142500000Y-52500000D03*
%TD*%
D23*
%TO.C,D3*%
X124840000Y-87725000D03*
X123260000Y-87725000D03*
%TD*%
D24*
%TO.C,J4*%
X112200000Y-61080000D03*
D25*
X112200000Y-58540000D03*
X112200000Y-56000000D03*
%TD*%
D19*
%TO.C,H3*%
X102400000Y-87600000D03*
%TD*%
D18*
%TO.C,R1*%
X128340000Y-86225000D03*
X129340000Y-86225000D03*
%TD*%
D20*
%TO.C,SW1*%
X114121192Y-75120000D03*
D21*
X116661192Y-75120000D03*
X116661192Y-67500000D03*
X114121192Y-67500000D03*
%TD*%
D30*
%TO.C,R5*%
X114800000Y-60080000D03*
X114800000Y-61080000D03*
%TD*%
D18*
%TO.C,R3*%
X121340000Y-86225000D03*
X122340000Y-86225000D03*
%TD*%
D23*
%TO.C,D4*%
X121340000Y-87725000D03*
X119760000Y-87725000D03*
%TD*%
%LPD*%
M02*
