M48
; DRILL file {KiCad 9.0.6} date 2025-12-14T21:01:52-0800
; FORMAT={-:-/ absolute / inch / decimal}
; #@! TF.CreationDate,2025-12-14T21:01:52-08:00
; #@! TF.GenerationSoftware,Kicad,Pcbnew,9.0.6
; #@! TF.FileFunction,Plated,1,4,PTH
FMAT,2
INCH
; #@! TA.AperFunction,Plated,PTH,ViaDrill
T1C0.0118
; #@! TA.AperFunction,Plated,PTH,ComponentDrill
T2C0.0118
; #@! TA.AperFunction,Plated,PTH,ComponentDrill
T3C0.0374
; #@! TA.AperFunction,Plated,PTH,ComponentDrill
T4C0.0394
; #@! TA.AperFunction,Plated,PTH,ComponentDrill
T5C0.0866
%
G90
G05
T1
X4.7008Y-2.1496
X4.7244Y-2.0551
X4.7717Y-2.0866
X4.8031Y-2.0236
X5.0079Y-2.0
X5.0394Y-2.0
X5.1929Y-2.6703
X5.2362Y-2.0551
X5.2677Y-2.1181
X5.311Y-2.7096
T2
X4.64Y-2.5169
X4.64Y-2.5602
X4.64Y-2.6035
X4.6833Y-2.5169
X4.6833Y-2.5602
X4.6833Y-2.6035
X4.7266Y-2.5169
X4.7266Y-2.5602
X4.7266Y-2.6035
X4.7699Y-2.5169
X4.7699Y-2.5602
X4.7699Y-2.6035
X4.8132Y-2.5169
X4.8132Y-2.5602
X4.8132Y-2.6035
T3
X4.4935Y-3.0136
X4.5919Y-3.0136
X4.6904Y-3.0136
X4.7888Y-3.0136
X4.8872Y-3.0136
T4
X4.1815Y-2.2835
X4.1815Y-2.3835
X4.1815Y-2.4835
X4.1815Y-2.5835
X4.1815Y-2.6835
X4.1815Y-2.7835
X4.1815Y-2.8835
X4.1815Y-2.9835
X4.2815Y-2.2835
X4.2815Y-2.3835
X4.2815Y-2.4835
X4.2815Y-2.5835
X4.2815Y-2.6835
X4.2815Y-2.7835
X4.2815Y-2.8835
X4.2815Y-2.9835
X5.315Y-3.1969
X5.415Y-3.1969
X5.502Y-2.2835
X5.502Y-2.3835
X5.502Y-2.4835
X5.502Y-2.5835
X5.502Y-2.6835
X5.502Y-2.7835
X5.502Y-2.8835
X5.502Y-2.9835
X5.515Y-3.1969
X5.602Y-2.2835
X5.602Y-2.3835
X5.602Y-2.4835
X5.602Y-2.5835
X5.602Y-2.6835
X5.602Y-2.7835
X5.602Y-2.8835
X5.602Y-2.9835
T5
X4.0315Y-3.2087
X4.0354Y-2.0669
X5.7283Y-2.0669
X5.7283Y-3.2087
M30
