%TF.GenerationSoftware,KiCad,Pcbnew,9.0.6*%
%TF.CreationDate,2025-12-16T23:42:37-08:00*%
%TF.ProjectId,driver3,64726976-6572-4332-9e6b-696361645f70,rev?*%
%TF.SameCoordinates,Original*%
%TF.FileFunction,Copper,L1,Top*%
%TF.FilePolarity,Positive*%
%FSLAX46Y46*%
G04 Gerber Fmt 4.6, Leading zero omitted, Abs format (unit mm)*
G04 Created by KiCad (PCBNEW 9.0.6) date 2025-12-16 23:42:37*
%MOMM*%
%LPD*%
G01*
G04 APERTURE LIST*
G04 Aperture macros list*
%AMRoundRect*
0 Rectangle with rounded corners*
0 $1 Rounding radius*
0 $2 $3 $4 $5 $6 $7 $8 $9 X,Y pos of 4 corners*
0 Add a 4 corners polygon primitive as box body*
4,1,4,$2,$3,$4,$5,$6,$7,$8,$9,$2,$3,0*
0 Add four circle primitives for the rounded corners*
1,1,$1+$1,$2,$3*
1,1,$1+$1,$4,$5*
1,1,$1+$1,$6,$7*
1,1,$1+$1,$8,$9*
0 Add four rect primitives between the rounded corners*
20,1,$1+$1,$2,$3,$4,$5,0*
20,1,$1+$1,$4,$5,$6,$7,0*
20,1,$1+$1,$6,$7,$8,$9,0*
20,1,$1+$1,$8,$9,$2,$3,0*%
G04 Aperture macros list end*
%TA.AperFunction,SMDPad,CuDef*%
%ADD10R,0.299999X1.050000*%
%TD*%
%TA.AperFunction,SMDPad,CuDef*%
%ADD11RoundRect,0.140000X0.140000X0.170000X-0.140000X0.170000X-0.140000X-0.170000X0.140000X-0.170000X0*%
%TD*%
%TA.AperFunction,SMDPad,CuDef*%
%ADD12R,0.450000X1.050000*%
%TD*%
%TA.AperFunction,ComponentPad*%
%ADD13C,0.600000*%
%TD*%
%TA.AperFunction,SMDPad,CuDef*%
%ADD14R,5.000000X3.400000*%
%TD*%
%TA.AperFunction,SMDPad,CuDef*%
%ADD15RoundRect,0.225000X0.250000X-0.225000X0.250000X0.225000X-0.250000X0.225000X-0.250000X-0.225000X0*%
%TD*%
%TA.AperFunction,SMDPad,CuDef*%
%ADD16RoundRect,0.220000X0.220000X0.255000X-0.220000X0.255000X-0.220000X-0.255000X0.220000X-0.255000X0*%
%TD*%
%TA.AperFunction,SMDPad,CuDef*%
%ADD17RoundRect,0.250000X0.650000X0.750000X-0.650000X0.750000X-0.650000X-0.750000X0.650000X-0.750000X0*%
%TD*%
%TA.AperFunction,ComponentPad*%
%ADD18O,1.700000X1.950000*%
%TD*%
%TA.AperFunction,ComponentPad*%
%ADD19RoundRect,0.250000X0.600000X0.725000X-0.600000X0.725000X-0.600000X-0.725000X0.600000X-0.725000X0*%
%TD*%
%TA.AperFunction,SMDPad,CuDef*%
%ADD20RoundRect,0.250000X0.650000X-0.325000X0.650000X0.325000X-0.650000X0.325000X-0.650000X-0.325000X0*%
%TD*%
%TA.AperFunction,ComponentPad*%
%ADD21C,3.800000*%
%TD*%
%TA.AperFunction,ComponentPad*%
%ADD22R,1.700000X1.700000*%
%TD*%
%TA.AperFunction,ComponentPad*%
%ADD23C,1.700000*%
%TD*%
%TA.AperFunction,SMDPad,CuDef*%
%ADD24RoundRect,0.140000X-0.170000X0.140000X-0.170000X-0.140000X0.170000X-0.140000X0.170000X0.140000X0*%
%TD*%
%TA.AperFunction,SMDPad,CuDef*%
%ADD25RoundRect,0.225000X0.225000X0.250000X-0.225000X0.250000X-0.225000X-0.250000X0.225000X-0.250000X0*%
%TD*%
%TA.AperFunction,ViaPad*%
%ADD26C,0.600000*%
%TD*%
%TA.AperFunction,Conductor*%
%ADD27C,0.200000*%
%TD*%
G04 APERTURE END LIST*
D10*
%TO.P,U2,1,SH_LD_N*%
%TO.N,LOAD*%
X135500000Y-66640000D03*
%TO.P,U2,2,CLK*%
%TO.N,SCLK*%
X135000001Y-66640000D03*
%TO.P,U2,3,E*%
%TO.N,GND*%
X134500002Y-66640000D03*
%TO.P,U2,4,F*%
X134000001Y-66640000D03*
%TO.P,U2,5,G*%
X133500001Y-66640000D03*
%TO.P,U2,6,H*%
X133000000Y-66640000D03*
%TO.P,U2,7,QH_N*%
%TO.N,unconnected-(U2-QH_N-Pad7)*%
X132500001Y-66640000D03*
%TO.P,U2,8,GND*%
%TO.N,GND*%
X132000002Y-66640000D03*
%TO.P,U2,9,QH*%
%TO.N,CI*%
X132000002Y-69640000D03*
%TO.P,U2,10,SER*%
%TO.N,PO*%
X132500001Y-69640000D03*
%TO.P,U2,11,A*%
%TO.N,Net-(J4-Pin_3)*%
X133000000Y-69640000D03*
%TO.P,U2,12,B*%
%TO.N,GND*%
X133500001Y-69640000D03*
%TO.P,U2,13,C*%
X134000001Y-69640000D03*
%TO.P,U2,14,D*%
X134500002Y-69640000D03*
%TO.P,U2,15,CLK_INH*%
X135000001Y-69640000D03*
%TO.P,U2,16,VCC*%
%TO.N,+3V3*%
X135500000Y-69640000D03*
%TD*%
D11*
%TO.P,R6,1*%
%TO.N,PO*%
X131500000Y-71000000D03*
%TO.P,R6,2*%
%TO.N,+3V3*%
X130500000Y-71000000D03*
%TD*%
D12*
%TO.P,U1,1,VM*%
%TO.N,+12V*%
X121850000Y-71795000D03*
%TO.P,U1,2,VCLAMP*%
%TO.N,Net-(U1-VCLAMP)*%
X122500000Y-71795000D03*
%TO.P,U1,3,OUT1*%
%TO.N,Net-(J3-Pin_4)*%
X123150000Y-71795000D03*
%TO.P,U1,4,OUT2*%
%TO.N,Net-(J3-Pin_3)*%
X123800000Y-71795000D03*
%TO.P,U1,5,GND*%
%TO.N,GND*%
X124450000Y-71795000D03*
%TO.P,U1,6,OUT3*%
%TO.N,Net-(J3-Pin_2)*%
X125100000Y-71795000D03*
%TO.P,U1,7,OUT4*%
%TO.N,Net-(J3-Pin_1)*%
X125750000Y-71795000D03*
%TO.P,U1,8,ENBL_N*%
%TO.N,NENBL*%
X126400000Y-71795000D03*
%TO.P,U1,9,RESET*%
%TO.N,unconnected-(U1-RESET-Pad9)*%
X126400000Y-66245000D03*
%TO.P,U1,10,NC*%
%TO.N,unconnected-(U1-NC-Pad10)*%
X125750000Y-66245000D03*
%TO.P,U1,11,LATCH*%
%TO.N,LATCH*%
X125100000Y-66245000D03*
%TO.P,U1,12,GND*%
%TO.N,GND*%
X124450000Y-66245000D03*
%TO.P,U1,13,SCLK*%
%TO.N,SCLK*%
X123800000Y-66245000D03*
%TO.P,U1,14,SDATIN*%
%TO.N,CO*%
X123150000Y-66245000D03*
%TO.P,U1,15,SDATOUT*%
%TO.N,PI*%
X122500000Y-66245000D03*
%TO.P,U1,16,FAULT_N*%
%TO.N,FAULT*%
X121850000Y-66245000D03*
D13*
%TO.P,U1,17,PAD*%
%TO.N,GND*%
X121925000Y-70120000D03*
X123025000Y-70120000D03*
X124125000Y-70120000D03*
X125225000Y-70120000D03*
X126325000Y-70120000D03*
X121925000Y-69020000D03*
X123025000Y-69020000D03*
X124125000Y-69020000D03*
D14*
X124125000Y-69020000D03*
D13*
X125225000Y-69020000D03*
X126325000Y-69020000D03*
X121925000Y-67920000D03*
X123025000Y-67920000D03*
X124125000Y-67920000D03*
X125225000Y-67920000D03*
X126325000Y-67920000D03*
%TD*%
D11*
%TO.P,R2,2*%
%TO.N,Net-(J3-Pin_3)*%
X117081000Y-80605000D03*
%TO.P,R2,1*%
%TO.N,Net-(D3-Pad1)*%
X118081000Y-80605000D03*
%TD*%
D15*
%TO.P,C1,2*%
%TO.N,GND*%
X120500000Y-70240000D03*
%TO.P,C1,1*%
%TO.N,+12V*%
X120500000Y-71800000D03*
%TD*%
D11*
%TO.P,R4,2*%
%TO.N,Net-(J3-Pin_1)*%
X124081000Y-80605000D03*
%TO.P,R4,1*%
%TO.N,Net-(D5-Pad1)*%
X125081000Y-80605000D03*
%TD*%
D16*
%TO.P,D5,2*%
%TO.N,+12V*%
X123581000Y-82105000D03*
%TO.P,D5,1*%
%TO.N,Net-(D5-Pad1)*%
X125161000Y-82105000D03*
%TD*%
%TO.P,D2,2*%
%TO.N,+12V*%
X113081000Y-82105000D03*
%TO.P,D2,1*%
%TO.N,Net-(D2-Pad1)*%
X114661000Y-82105000D03*
%TD*%
D17*
%TO.P,D1,2*%
%TO.N,+12V*%
X116130000Y-71020000D03*
%TO.P,D1,1*%
%TO.N,Net-(U1-VCLAMP)*%
X111870000Y-71020000D03*
%TD*%
D11*
%TO.P,R3,2*%
%TO.N,Net-(J3-Pin_2)*%
X120581000Y-80605000D03*
%TO.P,R3,1*%
%TO.N,Net-(D4-Pad1)*%
X121581000Y-80605000D03*
%TD*%
D18*
%TO.P,J3,5,Pin_5*%
%TO.N,+12V*%
X114121000Y-76855000D03*
%TO.P,J3,4,Pin_4*%
%TO.N,Net-(J3-Pin_4)*%
X116621000Y-76855000D03*
%TO.P,J3,3,Pin_3*%
%TO.N,Net-(J3-Pin_3)*%
X119121000Y-76855000D03*
%TO.P,J3,2,Pin_2*%
%TO.N,Net-(J3-Pin_2)*%
X121621000Y-76855000D03*
D19*
%TO.P,J3,1,Pin_1*%
%TO.N,Net-(J3-Pin_1)*%
X124121000Y-76855000D03*
%TD*%
D20*
%TO.P,C2,2*%
%TO.N,GND*%
X118500000Y-68540000D03*
%TO.P,C2,1*%
%TO.N,+12V*%
X118500000Y-71500000D03*
%TD*%
D16*
%TO.P,D3,2*%
%TO.N,+12V*%
X116581000Y-82105000D03*
%TO.P,D3,1*%
%TO.N,Net-(D3-Pad1)*%
X118161000Y-82105000D03*
%TD*%
D11*
%TO.P,R1,2*%
%TO.N,Net-(J3-Pin_4)*%
X113581000Y-80605000D03*
%TO.P,R1,1*%
%TO.N,Net-(D2-Pad1)*%
X114581000Y-80605000D03*
%TD*%
D16*
%TO.P,D4,2*%
%TO.N,+12V*%
X120081000Y-82105000D03*
%TO.P,D4,1*%
%TO.N,Net-(D4-Pad1)*%
X121661000Y-82105000D03*
%TD*%
D21*
%TO.P,H4,1,1*%
%TO.N,unconnected-(H4-Pad1)*%
X145500000Y-81500000D03*
%TD*%
%TO.P,H2,1,1*%
%TO.N,unconnected-(H2-Pad1)*%
X102500000Y-52500000D03*
%TD*%
D22*
%TO.P,J2,1,Pin_1*%
%TO.N,LATCH*%
X108750000Y-58000000D03*
D23*
%TO.P,J2,2,Pin_2*%
%TO.N,SCLK*%
X106210000Y-58000000D03*
%TO.P,J2,3,Pin_3*%
%TO.N,LOAD*%
X108750000Y-60540000D03*
%TO.P,J2,4,Pin_4*%
%TO.N,NENBL*%
X106210000Y-60540000D03*
%TO.P,J2,5,Pin_5*%
%TO.N,PI*%
X108750000Y-63080000D03*
%TO.P,J2,6,Pin_6*%
%TO.N,PO*%
X106210000Y-63080000D03*
%TO.P,J2,7,Pin_7*%
%TO.N,+3V3*%
X108750000Y-65620000D03*
%TO.P,J2,8,Pin_8*%
%TO.N,FAULT*%
X106210000Y-65620000D03*
%TO.P,J2,9,Pin_9*%
%TO.N,GND*%
X108750000Y-68160000D03*
%TO.P,J2,10,Pin_10*%
%TO.N,+12V*%
X106210000Y-68160000D03*
%TO.P,J2,11,Pin_11*%
%TO.N,GND*%
X108750000Y-70700000D03*
%TO.P,J2,12,Pin_12*%
%TO.N,+12V*%
X106210000Y-70700000D03*
%TO.P,J2,13,Pin_13*%
%TO.N,GND*%
X108750000Y-73240000D03*
%TO.P,J2,14,Pin_14*%
%TO.N,+12V*%
X106210000Y-73240000D03*
%TO.P,J2,15,Pin_15*%
%TO.N,GND*%
X108750000Y-75780000D03*
%TO.P,J2,16,Pin_16*%
%TO.N,+12V*%
X106210000Y-75780000D03*
%TD*%
D22*
%TO.P,J1,1,Pin_1*%
%TO.N,LATCH*%
X139750000Y-58000000D03*
D23*
%TO.P,J1,2,Pin_2*%
%TO.N,SCLK*%
X142290000Y-58000000D03*
%TO.P,J1,3,Pin_3*%
%TO.N,LOAD*%
X139750000Y-60540000D03*
%TO.P,J1,4,Pin_4*%
%TO.N,NENBL*%
X142290000Y-60540000D03*
%TO.P,J1,5,Pin_5*%
%TO.N,CO*%
X139750000Y-63080000D03*
%TO.P,J1,6,Pin_6*%
%TO.N,CI*%
X142290000Y-63080000D03*
%TO.P,J1,7,Pin_7*%
%TO.N,+3V3*%
X139750000Y-65620000D03*
%TO.P,J1,8,Pin_8*%
%TO.N,FAULT*%
X142290000Y-65620000D03*
%TO.P,J1,9,Pin_9*%
%TO.N,GND*%
X139750000Y-68160000D03*
%TO.P,J1,10,Pin_10*%
%TO.N,+12V*%
X142290000Y-68160000D03*
%TO.P,J1,11,Pin_11*%
%TO.N,GND*%
X139750000Y-70700000D03*
%TO.P,J1,12,Pin_12*%
%TO.N,+12V*%
X142290000Y-70700000D03*
%TO.P,J1,13,Pin_13*%
%TO.N,GND*%
X139750000Y-73240000D03*
%TO.P,J1,14,Pin_14*%
%TO.N,+12V*%
X142290000Y-73240000D03*
%TO.P,J1,15,Pin_15*%
%TO.N,GND*%
X139750000Y-75780000D03*
%TO.P,J1,16,Pin_16*%
%TO.N,+12V*%
X142290000Y-75780000D03*
%TD*%
D24*
%TO.P,R5,1*%
%TO.N,Net-(J4-Pin_3)*%
X132600000Y-71190000D03*
%TO.P,R5,2*%
%TO.N,+3V3*%
X132600000Y-72190000D03*
%TD*%
D21*
%TO.P,H1,1,1*%
%TO.N,unconnected-(H1-Pad1)*%
X145500000Y-52500000D03*
%TD*%
%TO.P,H3,1,1*%
%TO.N,unconnected-(H3-Pad1)*%
X102400000Y-81500000D03*
%TD*%
D22*
%TO.P,J4,1,Pin_1*%
%TO.N,GND*%
X130000000Y-78000000D03*
D23*
%TO.P,J4,2,Pin_2*%
%TO.N,+12V*%
X132540000Y-78000000D03*
%TO.P,J4,3,Pin_3*%
%TO.N,Net-(J4-Pin_3)*%
X135080000Y-78000000D03*
%TD*%
D25*
%TO.P,C3,1*%
%TO.N,+3V3*%
X135530000Y-71390000D03*
%TO.P,C3,2*%
%TO.N,GND*%
X133970000Y-71390000D03*
%TD*%
D26*
%TO.N,CO*%
X123250000Y-63250000D03*
%TO.N,+3V3*%
X137500000Y-64500000D03*
X129500000Y-64500000D03*
%TO.N,PO*%
X130500000Y-62000000D03*
%TO.N,CI*%
X131500000Y-61929000D03*
%TO.N,LOAD*%
X136500000Y-60540000D03*
%TO.N,SCLK*%
X135000000Y-56849000D03*
%TO.N,NENBL*%
X127000000Y-59389000D03*
%TO.N,LATCH*%
X125500000Y-58000000D03*
%TO.N,SCLK*%
X124250000Y-56849000D03*
%TO.N,PI*%
X122250000Y-63250000D03*
%TO.N,GND*%
X134000000Y-68115000D03*
%TD*%
D27*
%TO.N,SCLK*%
X124250000Y-56849000D02*
X124250000Y-65250000D01*
X124250000Y-65250000D02*
X123800000Y-65700000D01*
X123800000Y-65700000D02*
X123800000Y-66245000D01*
%TO.N,LATCH*%
X125100000Y-66245000D02*
X125100000Y-65650000D01*
X125100000Y-65650000D02*
X125500000Y-65250000D01*
X125500000Y-65250000D02*
X125500000Y-58000000D01*
%TO.N,CO*%
X123150000Y-63350000D02*
X123250000Y-63250000D01*
X123150000Y-66245000D02*
X123150000Y-63350000D01*
%TO.N,PI*%
X122250000Y-63250000D02*
X122250000Y-65419000D01*
X122250000Y-65419000D02*
X122376000Y-65419000D01*
X122376000Y-65419000D02*
X122376000Y-66121000D01*
X122376000Y-66121000D02*
X122500000Y-66245000D01*
%TO.N,+3V3*%
X135500000Y-69640000D02*
X137500000Y-67640000D01*
X137500000Y-67640000D02*
X137500000Y-64500000D01*
X129500000Y-64500000D02*
X129500000Y-70000000D01*
X129500000Y-70000000D02*
X130500000Y-71000000D01*
%TO.N,PO*%
X130601000Y-62101000D02*
X130500000Y-62000000D01*
X130601000Y-70101000D02*
X130601000Y-62101000D01*
X131500000Y-71000000D02*
X130601000Y-70101000D01*
X131500000Y-71000000D02*
X132000000Y-70500000D01*
X132000000Y-70500000D02*
X132417001Y-70500000D01*
X132500001Y-70417000D02*
X132500001Y-69640000D01*
X132417001Y-70500000D02*
X132500001Y-70417000D01*
%TO.N,CI*%
X131500000Y-61929000D02*
X131500000Y-69139998D01*
X131500000Y-69139998D02*
X132000002Y-69640000D01*
%TO.N,Net-(J3-Pin_1)*%
X124121000Y-76855000D02*
X125750000Y-75226000D01*
X125750000Y-75226000D02*
X125750000Y-71795000D01*
%TO.N,Net-(J3-Pin_2)*%
X121621000Y-76855000D02*
X125100000Y-73376000D01*
X125100000Y-73376000D02*
X125100000Y-71795000D01*
%TO.N,Net-(J3-Pin_3)*%
X119121000Y-76855000D02*
X119465000Y-76855000D01*
X119465000Y-76855000D02*
X123800000Y-72520000D01*
X123800000Y-72520000D02*
X123800000Y-71795000D01*
%TO.N,Net-(J3-Pin_4)*%
X116621000Y-76855000D02*
X118976000Y-74500000D01*
X118976000Y-74500000D02*
X121170000Y-74500000D01*
X123150000Y-72520000D02*
X123150000Y-71795000D01*
X121170000Y-74500000D02*
X123150000Y-72520000D01*
%TO.N,Net-(J4-Pin_3)*%
X132600000Y-71190000D02*
X131989000Y-71801000D01*
X131989000Y-71801000D02*
X131989000Y-74909000D01*
X131989000Y-74909000D02*
X135080000Y-78000000D01*
%TO.N,LOAD*%
X136500000Y-60540000D02*
X136500000Y-65640000D01*
X136500000Y-65640000D02*
X135500000Y-66640000D01*
%TO.N,SCLK*%
X135000001Y-66640000D02*
X135000001Y-56849001D01*
X135000001Y-56849001D02*
X135000000Y-56849000D01*
%TO.N,NENBL*%
X126400000Y-71795000D02*
X127000000Y-71195000D01*
X127000000Y-71195000D02*
X127000000Y-59389000D01*
%TO.N,Net-(J3-Pin_3)*%
X119121000Y-76855000D02*
X119121000Y-78565000D01*
%TO.N,Net-(J3-Pin_1)*%
X124081000Y-80605000D02*
X124081000Y-76895000D01*
%TO.N,Net-(D5-Pad1)*%
X125161000Y-82105000D02*
X125161000Y-80685000D01*
X125161000Y-80685000D02*
X125081000Y-80605000D01*
%TO.N,Net-(D4-Pad1)*%
X121581000Y-82025000D02*
X121661000Y-82105000D01*
%TO.N,Net-(J3-Pin_4)*%
X113581000Y-79895000D02*
X113581000Y-80605000D01*
%TO.N,Net-(D4-Pad1)*%
X121581000Y-80605000D02*
X121581000Y-82025000D01*
%TO.N,Net-(D3-Pad1)*%
X118081000Y-80605000D02*
X118081000Y-82025000D01*
X118081000Y-82025000D02*
X118161000Y-82105000D01*
%TO.N,Net-(J3-Pin_4)*%
X116621000Y-76855000D02*
X113581000Y-79895000D01*
%TO.N,Net-(J3-Pin_3)*%
X119121000Y-78565000D02*
X117081000Y-80605000D01*
%TO.N,Net-(J3-Pin_2)*%
X121621000Y-76855000D02*
X121621000Y-79565000D01*
X121621000Y-79565000D02*
X120581000Y-80605000D01*
%TO.N,Net-(D2-Pad1)*%
X114661000Y-80685000D02*
X114581000Y-80605000D01*
X114661000Y-82105000D02*
X114661000Y-80685000D01*
%TO.N,Net-(J3-Pin_1)*%
X124081000Y-76895000D02*
X124121000Y-76855000D01*
%TO.N,+12V*%
X120081000Y-82105000D02*
X120857000Y-82881000D01*
X122805000Y-82881000D02*
X123581000Y-82105000D01*
X113000000Y-82024000D02*
X113000000Y-77976000D01*
X116581000Y-82105000D02*
X117357000Y-82881000D01*
X115805000Y-82881000D02*
X116581000Y-82105000D01*
X120857000Y-82881000D02*
X122805000Y-82881000D01*
X113081000Y-82105000D02*
X113000000Y-82024000D01*
X113857000Y-82881000D02*
X115805000Y-82881000D01*
X113000000Y-77976000D02*
X114121000Y-76855000D01*
X113081000Y-82105000D02*
X113857000Y-82881000D01*
X117357000Y-82881000D02*
X119305000Y-82881000D01*
X119305000Y-82881000D02*
X120081000Y-82105000D01*
%TO.N,GND*%
X120500000Y-70240000D02*
X122905000Y-70240000D01*
X122905000Y-70240000D02*
X124125000Y-69020000D01*
%TO.N,+12V*%
X118020000Y-71020000D02*
X118500000Y-71500000D01*
X116130000Y-71020000D02*
X118020000Y-71020000D01*
%TO.N,Net-(U1-VCLAMP)*%
X112000000Y-73520000D02*
X121500000Y-73520000D01*
X121500000Y-73520000D02*
X122500000Y-72520000D01*
X122500000Y-72520000D02*
X122500000Y-71795000D01*
X112000000Y-71150000D02*
X112000000Y-73520000D01*
X111870000Y-71020000D02*
X112000000Y-71150000D01*
%TO.N,+12V*%
X121845000Y-71800000D02*
X121850000Y-71795000D01*
X118500000Y-71500000D02*
X120200000Y-71500000D01*
X120500000Y-71800000D02*
X121845000Y-71800000D01*
X120200000Y-71500000D02*
X120500000Y-71800000D01*
%TO.N,GND*%
X124125000Y-69020000D02*
X124450000Y-69345000D01*
X124450000Y-69345000D02*
X124450000Y-71795000D01*
X118500000Y-68540000D02*
X120200000Y-70240000D01*
X124125000Y-69020000D02*
X124450000Y-68695000D01*
X120200000Y-70240000D02*
X120500000Y-70240000D01*
X124450000Y-68695000D02*
X124450000Y-66245000D01*
X133500001Y-68115000D02*
X134000000Y-68115000D01*
X133500001Y-69640000D02*
X133500001Y-68115000D01*
X132000002Y-66640000D02*
X132000002Y-67417000D01*
X132000002Y-67417000D02*
X133500001Y-68916999D01*
X133500001Y-68916999D02*
X133500001Y-69640000D01*
X133500001Y-68115000D02*
X133500001Y-66640000D01*
X134500002Y-69640000D02*
X134000001Y-69640000D01*
X134000001Y-66640000D02*
X133500001Y-66640000D01*
X133970000Y-71390000D02*
X133970000Y-70510000D01*
X135000001Y-69640000D02*
X134500002Y-69640000D01*
X134000001Y-69640000D02*
X133500001Y-69640000D01*
X133500001Y-66640000D02*
X133000000Y-66640000D01*
X133970000Y-70510000D02*
X133900000Y-70440000D01*
X133900000Y-70440000D02*
X133900000Y-69740001D01*
X134500002Y-66640000D02*
X134000001Y-66640000D01*
X133900000Y-69740001D02*
X134000001Y-69640000D01*
%TO.N,+3V3*%
X135500000Y-71360000D02*
X135530000Y-71390000D01*
X134730000Y-72190000D02*
X132600000Y-72190000D01*
X135500000Y-69640000D02*
X135500000Y-71360000D01*
X135530000Y-71390000D02*
X134730000Y-72190000D01*
%TO.N,Net-(J4-Pin_3)*%
X133000000Y-70790000D02*
X133000000Y-69640000D01*
X132600000Y-71190000D02*
X133000000Y-70790000D01*
%TD*%
%TA.AperFunction,Conductor*%
%TO.N,+12V*%
G36*
X121563078Y-71558644D02*
G01*
X121593065Y-71565168D01*
X121598080Y-71568922D01*
X121600677Y-71569685D01*
X121601068Y-71570000D01*
X121726000Y-71570000D01*
X121793039Y-71589685D01*
X121838794Y-71642489D01*
X121850000Y-71694000D01*
X121850000Y-71896000D01*
X121830315Y-71963039D01*
X121777511Y-72008794D01*
X121726000Y-72020000D01*
X121599747Y-72020000D01*
X121549996Y-72047166D01*
X121523638Y-72050000D01*
X120624000Y-72050000D01*
X120556961Y-72030315D01*
X120511206Y-71977511D01*
X120500000Y-71926000D01*
X120500000Y-71674000D01*
X120519685Y-71606961D01*
X120572489Y-71561206D01*
X120624000Y-71550000D01*
X121533638Y-71550000D01*
X121563078Y-71558644D01*
G37*
%TD.AperFunction*%
%TA.AperFunction,Conductor*%
G36*
X107325270Y-74001717D02*
G01*
X107325270Y-74001716D01*
X107364622Y-73947555D01*
X107369232Y-73938507D01*
X107417205Y-73887709D01*
X107485025Y-73870912D01*
X107551161Y-73893447D01*
X107590204Y-73938504D01*
X107594949Y-73947817D01*
X107719890Y-74119786D01*
X107870213Y-74270109D01*
X108042182Y-74395050D01*
X108050946Y-74399516D01*
X108101742Y-74447491D01*
X108118536Y-74515312D01*
X108095998Y-74581447D01*
X108050946Y-74620484D01*
X108042182Y-74624949D01*
X107870213Y-74749890D01*
X107719890Y-74900213D01*
X107594949Y-75072182D01*
X107590202Y-75081499D01*
X107542227Y-75132293D01*
X107474405Y-75149087D01*
X107408271Y-75126548D01*
X107369234Y-75081495D01*
X107364626Y-75072452D01*
X107325270Y-75018282D01*
X107325269Y-75018282D01*
X106692962Y-75650590D01*
X106675925Y-75587007D01*
X106610099Y-75472993D01*
X106517007Y-75379901D01*
X106402993Y-75314075D01*
X106339409Y-75297037D01*
X106971716Y-74664728D01*
X106917550Y-74625375D01*
X106907954Y-74620486D01*
X106857157Y-74572512D01*
X106840361Y-74504692D01*
X106862897Y-74438556D01*
X106907954Y-74399514D01*
X106917554Y-74394622D01*
X106971716Y-74355270D01*
X106971717Y-74355270D01*
X106339408Y-73722962D01*
X106402993Y-73705925D01*
X106517007Y-73640099D01*
X106610099Y-73547007D01*
X106675925Y-73432993D01*
X106692962Y-73369408D01*
X107325270Y-74001717D01*
G37*
%TD.AperFunction*%
%TA.AperFunction,Conductor*%
G36*
X107325270Y-71461717D02*
G01*
X107325270Y-71461716D01*
X107364622Y-71407555D01*
X107369232Y-71398507D01*
X107417205Y-71347709D01*
X107485025Y-71330912D01*
X107551161Y-71353447D01*
X107590204Y-71398504D01*
X107594949Y-71407817D01*
X107719890Y-71579786D01*
X107870213Y-71730109D01*
X108042182Y-71855050D01*
X108050946Y-71859516D01*
X108101742Y-71907491D01*
X108118536Y-71975312D01*
X108095998Y-72041447D01*
X108050946Y-72080484D01*
X108042182Y-72084949D01*
X107870213Y-72209890D01*
X107719890Y-72360213D01*
X107594949Y-72532182D01*
X107590202Y-72541499D01*
X107542227Y-72592293D01*
X107474405Y-72609087D01*
X107408271Y-72586548D01*
X107369234Y-72541495D01*
X107364626Y-72532452D01*
X107325270Y-72478282D01*
X107325269Y-72478282D01*
X106692962Y-73110590D01*
X106675925Y-73047007D01*
X106610099Y-72932993D01*
X106517007Y-72839901D01*
X106402993Y-72774075D01*
X106339409Y-72757037D01*
X106971716Y-72124728D01*
X106917550Y-72085375D01*
X106907954Y-72080486D01*
X106857157Y-72032512D01*
X106840361Y-71964692D01*
X106862897Y-71898556D01*
X106907954Y-71859514D01*
X106917554Y-71854622D01*
X106971716Y-71815270D01*
X106971717Y-71815270D01*
X106339408Y-71182962D01*
X106402993Y-71165925D01*
X106517007Y-71100099D01*
X106610099Y-71007007D01*
X106675925Y-70892993D01*
X106692962Y-70829408D01*
X107325270Y-71461717D01*
G37*
%TD.AperFunction*%
%TA.AperFunction,Conductor*%
G36*
X107325270Y-68921717D02*
G01*
X107325270Y-68921716D01*
X107364622Y-68867555D01*
X107369232Y-68858507D01*
X107417205Y-68807709D01*
X107485025Y-68790912D01*
X107551161Y-68813447D01*
X107590204Y-68858504D01*
X107594949Y-68867817D01*
X107719890Y-69039786D01*
X107870213Y-69190109D01*
X108042182Y-69315050D01*
X108050946Y-69319516D01*
X108101742Y-69367491D01*
X108118536Y-69435312D01*
X108095998Y-69501447D01*
X108050946Y-69540484D01*
X108042182Y-69544949D01*
X107870213Y-69669890D01*
X107719890Y-69820213D01*
X107594949Y-69992182D01*
X107590202Y-70001499D01*
X107542227Y-70052293D01*
X107474405Y-70069087D01*
X107408271Y-70046548D01*
X107369234Y-70001495D01*
X107364626Y-69992452D01*
X107325270Y-69938282D01*
X107325269Y-69938282D01*
X106692962Y-70570590D01*
X106675925Y-70507007D01*
X106610099Y-70392993D01*
X106517007Y-70299901D01*
X106402993Y-70234075D01*
X106339409Y-70217037D01*
X106971716Y-69584728D01*
X106917550Y-69545375D01*
X106907954Y-69540486D01*
X106857157Y-69492512D01*
X106840361Y-69424692D01*
X106862897Y-69358556D01*
X106907954Y-69319514D01*
X106917554Y-69314622D01*
X106971716Y-69275270D01*
X106971717Y-69275270D01*
X106339408Y-68642962D01*
X106402993Y-68625925D01*
X106517007Y-68560099D01*
X106610099Y-68467007D01*
X106675925Y-68352993D01*
X106692962Y-68289408D01*
X107325270Y-68921717D01*
G37*
%TD.AperFunction*%
%TA.AperFunction,Conductor*%
G36*
X107551444Y-66273999D02*
G01*
X107590486Y-66319056D01*
X107594951Y-66327820D01*
X107719890Y-66499786D01*
X107870213Y-66650109D01*
X108042182Y-66775050D01*
X108050946Y-66779516D01*
X108101742Y-66827491D01*
X108118536Y-66895312D01*
X108095998Y-66961447D01*
X108050946Y-67000484D01*
X108042182Y-67004949D01*
X107870213Y-67129890D01*
X107719890Y-67280213D01*
X107594949Y-67452182D01*
X107590202Y-67461499D01*
X107542227Y-67512293D01*
X107474405Y-67529087D01*
X107408271Y-67506548D01*
X107369234Y-67461495D01*
X107364626Y-67452452D01*
X107325270Y-67398282D01*
X107325269Y-67398282D01*
X106692962Y-68030590D01*
X106675925Y-67967007D01*
X106610099Y-67852993D01*
X106517007Y-67759901D01*
X106402993Y-67694075D01*
X106339409Y-67677037D01*
X106971716Y-67044728D01*
X106917547Y-67005373D01*
X106917547Y-67005372D01*
X106908500Y-67000763D01*
X106857706Y-66952788D01*
X106840912Y-66884966D01*
X106863451Y-66818832D01*
X106908508Y-66779793D01*
X106917816Y-66775051D01*
X106997007Y-66717515D01*
X107089786Y-66650109D01*
X107089788Y-66650106D01*
X107089792Y-66650104D01*
X107240104Y-66499792D01*
X107240106Y-66499788D01*
X107240109Y-66499786D01*
X107365048Y-66327820D01*
X107365047Y-66327820D01*
X107365051Y-66327816D01*
X107369514Y-66319054D01*
X107417488Y-66268259D01*
X107485308Y-66251463D01*
X107551444Y-66273999D01*
G37*
%TD.AperFunction*%
%TA.AperFunction,Conductor*%
G36*
X141824075Y-73432993D02*
G01*
X141889901Y-73547007D01*
X141982993Y-73640099D01*
X142097007Y-73705925D01*
X142160591Y-73722962D01*
X141559971Y-74323581D01*
X141638711Y-74440895D01*
X141639920Y-74444729D01*
X141642844Y-74447491D01*
X141650343Y-74477778D01*
X141659727Y-74507529D01*
X141658671Y-74511408D01*
X141659638Y-74515312D01*
X141649573Y-74544844D01*
X141641383Y-74574947D01*
X141638397Y-74577640D01*
X141637100Y-74581447D01*
X141592051Y-74620483D01*
X141582440Y-74625380D01*
X141528282Y-74664727D01*
X141528282Y-74664728D01*
X142160591Y-75297037D01*
X142097007Y-75314075D01*
X141982993Y-75379901D01*
X141889901Y-75472993D01*
X141824075Y-75587007D01*
X141807037Y-75650591D01*
X141174728Y-75018282D01*
X141174727Y-75018282D01*
X141135380Y-75072440D01*
X141135376Y-75072446D01*
X141130760Y-75081505D01*
X141082781Y-75132297D01*
X141014959Y-75149087D01*
X140948826Y-75126543D01*
X140909794Y-75081493D01*
X140905051Y-75072184D01*
X140905049Y-75072181D01*
X140905048Y-75072179D01*
X140780109Y-74900213D01*
X140629786Y-74749890D01*
X140457820Y-74624951D01*
X140457115Y-74624591D01*
X140449054Y-74620485D01*
X140398259Y-74572512D01*
X140381463Y-74504692D01*
X140403999Y-74438556D01*
X140449054Y-74399515D01*
X140457816Y-74395051D01*
X140556187Y-74323581D01*
X140629786Y-74270109D01*
X140629788Y-74270106D01*
X140629792Y-74270104D01*
X140780104Y-74119792D01*
X140780106Y-74119788D01*
X140780109Y-74119786D01*
X140865890Y-74001717D01*
X140905051Y-73947816D01*
X140909793Y-73938508D01*
X140957763Y-73887711D01*
X141025583Y-73870911D01*
X141091719Y-73893445D01*
X141130763Y-73938500D01*
X141135373Y-73947547D01*
X141174728Y-74001716D01*
X141807036Y-73369407D01*
X141824075Y-73432993D01*
G37*
%TD.AperFunction*%
%TA.AperFunction,Conductor*%
G36*
X141824075Y-70892993D02*
G01*
X141889901Y-71007007D01*
X141982993Y-71100099D01*
X142097007Y-71165925D01*
X142160591Y-71182962D01*
X141559971Y-71783581D01*
X141638711Y-71900895D01*
X141639920Y-71904729D01*
X141642844Y-71907491D01*
X141650343Y-71937778D01*
X141659727Y-71967529D01*
X141658671Y-71971408D01*
X141659638Y-71975312D01*
X141649573Y-72004844D01*
X141641383Y-72034947D01*
X141638397Y-72037640D01*
X141637100Y-72041447D01*
X141592051Y-72080483D01*
X141582440Y-72085380D01*
X141528282Y-72124727D01*
X141528282Y-72124728D01*
X142160591Y-72757037D01*
X142097007Y-72774075D01*
X141982993Y-72839901D01*
X141889901Y-72932993D01*
X141824075Y-73047007D01*
X141807037Y-73110591D01*
X141174728Y-72478282D01*
X141174727Y-72478282D01*
X141135380Y-72532440D01*
X141135376Y-72532446D01*
X141130760Y-72541505D01*
X141082781Y-72592297D01*
X141014959Y-72609087D01*
X140948826Y-72586543D01*
X140909794Y-72541493D01*
X140905051Y-72532184D01*
X140905049Y-72532181D01*
X140905048Y-72532179D01*
X140780109Y-72360213D01*
X140629786Y-72209890D01*
X140457820Y-72084951D01*
X140457115Y-72084591D01*
X140449054Y-72080485D01*
X140398259Y-72032512D01*
X140381463Y-71964692D01*
X140403999Y-71898556D01*
X140449054Y-71859515D01*
X140457816Y-71855051D01*
X140519137Y-71810499D01*
X140629786Y-71730109D01*
X140629788Y-71730106D01*
X140629792Y-71730104D01*
X140780104Y-71579792D01*
X140780106Y-71579788D01*
X140780109Y-71579786D01*
X140865890Y-71461717D01*
X140905051Y-71407816D01*
X140909793Y-71398508D01*
X140957763Y-71347711D01*
X141025583Y-71330911D01*
X141091719Y-71353445D01*
X141130763Y-71398500D01*
X141135373Y-71407547D01*
X141174728Y-71461716D01*
X141807036Y-70829407D01*
X141824075Y-70892993D01*
G37*
%TD.AperFunction*%
%TA.AperFunction,Conductor*%
G36*
X141824075Y-68352993D02*
G01*
X141889901Y-68467007D01*
X141982993Y-68560099D01*
X142097007Y-68625925D01*
X142160591Y-68642962D01*
X141559971Y-69243581D01*
X141638711Y-69360895D01*
X141639920Y-69364729D01*
X141642844Y-69367491D01*
X141650343Y-69397778D01*
X141659727Y-69427529D01*
X141658671Y-69431408D01*
X141659638Y-69435312D01*
X141649573Y-69464844D01*
X141641383Y-69494947D01*
X141638397Y-69497640D01*
X141637100Y-69501447D01*
X141592051Y-69540483D01*
X141582440Y-69545380D01*
X141528282Y-69584727D01*
X141528282Y-69584728D01*
X142160591Y-70217037D01*
X142097007Y-70234075D01*
X141982993Y-70299901D01*
X141889901Y-70392993D01*
X141824075Y-70507007D01*
X141807037Y-70570591D01*
X141174728Y-69938282D01*
X141174727Y-69938282D01*
X141135380Y-69992440D01*
X141135376Y-69992446D01*
X141130760Y-70001505D01*
X141082781Y-70052297D01*
X141014959Y-70069087D01*
X140948826Y-70046543D01*
X140909794Y-70001493D01*
X140905051Y-69992184D01*
X140905049Y-69992181D01*
X140905048Y-69992179D01*
X140780109Y-69820213D01*
X140629786Y-69669890D01*
X140457820Y-69544951D01*
X140457115Y-69544591D01*
X140449054Y-69540485D01*
X140398259Y-69492512D01*
X140381463Y-69424692D01*
X140403999Y-69358556D01*
X140449054Y-69319515D01*
X140457816Y-69315051D01*
X140488588Y-69292694D01*
X140629786Y-69190109D01*
X140629788Y-69190106D01*
X140629792Y-69190104D01*
X140780104Y-69039792D01*
X140780106Y-69039788D01*
X140780109Y-69039786D01*
X140865890Y-68921717D01*
X140905051Y-68867816D01*
X140909793Y-68858508D01*
X140957763Y-68807711D01*
X141025583Y-68790911D01*
X141091719Y-68813445D01*
X141130763Y-68858500D01*
X141135373Y-68867547D01*
X141174728Y-68921716D01*
X141807036Y-68289407D01*
X141824075Y-68352993D01*
G37*
%TD.AperFunction*%
%TA.AperFunction,Conductor*%
G36*
X141091444Y-66273999D02*
G01*
X141130486Y-66319056D01*
X141134951Y-66327820D01*
X141259890Y-66499786D01*
X141410213Y-66650109D01*
X141582179Y-66775048D01*
X141582181Y-66775049D01*
X141582184Y-66775051D01*
X141591493Y-66779794D01*
X141642290Y-66827766D01*
X141659087Y-66895587D01*
X141636552Y-66961722D01*
X141591505Y-67000760D01*
X141582446Y-67005376D01*
X141582440Y-67005380D01*
X141528282Y-67044727D01*
X141528282Y-67044728D01*
X142160591Y-67677037D01*
X142097007Y-67694075D01*
X141982993Y-67759901D01*
X141889901Y-67852993D01*
X141824075Y-67967007D01*
X141807037Y-68030591D01*
X141174728Y-67398282D01*
X141174727Y-67398282D01*
X141135380Y-67452440D01*
X141135376Y-67452446D01*
X141130760Y-67461505D01*
X141082781Y-67512297D01*
X141014959Y-67529087D01*
X140948826Y-67506543D01*
X140909794Y-67461493D01*
X140905051Y-67452184D01*
X140905049Y-67452181D01*
X140905048Y-67452179D01*
X140780109Y-67280213D01*
X140629786Y-67129890D01*
X140457820Y-67004951D01*
X140449600Y-67000763D01*
X140449054Y-67000485D01*
X140398259Y-66952512D01*
X140381463Y-66884692D01*
X140403999Y-66818556D01*
X140449054Y-66779515D01*
X140457816Y-66775051D01*
X140479789Y-66759086D01*
X140629786Y-66650109D01*
X140629788Y-66650106D01*
X140629792Y-66650104D01*
X140780104Y-66499792D01*
X140780106Y-66499788D01*
X140780109Y-66499786D01*
X140905048Y-66327820D01*
X140905047Y-66327820D01*
X140905051Y-66327816D01*
X140909514Y-66319054D01*
X140957488Y-66268259D01*
X141025308Y-66251463D01*
X141091444Y-66273999D01*
G37*
%TD.AperFunction*%
%TA.AperFunction,Conductor*%
G36*
X143872358Y-50520185D02*
G01*
X143918113Y-50572989D01*
X143928057Y-50642147D01*
X143899032Y-50705703D01*
X143893000Y-50712181D01*
X143707265Y-50897915D01*
X143539161Y-51108712D01*
X143395714Y-51337005D01*
X143278734Y-51579917D01*
X143189687Y-51834397D01*
X143189684Y-51834405D01*
X143129688Y-52097268D01*
X143129686Y-52097280D01*
X143099500Y-52365186D01*
X143099500Y-52634813D01*
X143129686Y-52902719D01*
X143129688Y-52902731D01*
X143189684Y-53165594D01*
X143189687Y-53165602D01*
X143278734Y-53420082D01*
X143395714Y-53662994D01*
X143395716Y-53662997D01*
X143539162Y-53891289D01*
X143664573Y-54048549D01*
X143683228Y-54071943D01*
X143707266Y-54102085D01*
X143897915Y-54292734D01*
X144108711Y-54460838D01*
X144337003Y-54604284D01*
X144579921Y-54721267D01*
X144771049Y-54788145D01*
X144834397Y-54810312D01*
X144834405Y-54810315D01*
X144834408Y-54810315D01*
X144834409Y-54810316D01*
X145097268Y-54870312D01*
X145365187Y-54900499D01*
X145365188Y-54900500D01*
X145365191Y-54900500D01*
X145634812Y-54900500D01*
X145634812Y-54900499D01*
X145902732Y-54870312D01*
X146165591Y-54810316D01*
X146420079Y-54721267D01*
X146662997Y-54604284D01*
X146891289Y-54460838D01*
X147102085Y-54292734D01*
X147287819Y-54107000D01*
X147349142Y-54073515D01*
X147418834Y-54078499D01*
X147474767Y-54120371D01*
X147499184Y-54185835D01*
X147499500Y-54194681D01*
X147499500Y-79805319D01*
X147479815Y-79872358D01*
X147427011Y-79918113D01*
X147357853Y-79928057D01*
X147294297Y-79899032D01*
X147287819Y-79893000D01*
X147102084Y-79707265D01*
X146983997Y-79613094D01*
X146891289Y-79539162D01*
X146692860Y-79414480D01*
X146662994Y-79395714D01*
X146420082Y-79278734D01*
X146165602Y-79189687D01*
X146165594Y-79189684D01*
X145968446Y-79144687D01*
X145902732Y-79129688D01*
X145902728Y-79129687D01*
X145902719Y-79129686D01*
X145634813Y-79099500D01*
X145634809Y-79099500D01*
X145365191Y-79099500D01*
X145365186Y-79099500D01*
X145097280Y-79129686D01*
X145097268Y-79129688D01*
X144834405Y-79189684D01*
X144834397Y-79189687D01*
X144579917Y-79278734D01*
X144337005Y-79395714D01*
X144108712Y-79539161D01*
X143897915Y-79707265D01*
X143707265Y-79897915D01*
X143539161Y-80108712D01*
X143395714Y-80337005D01*
X143278734Y-80579917D01*
X143189687Y-80834397D01*
X143189684Y-80834405D01*
X143129688Y-81097268D01*
X143129686Y-81097280D01*
X143099500Y-81365186D01*
X143099500Y-81634813D01*
X143129686Y-81902719D01*
X143129688Y-81902731D01*
X143189684Y-82165594D01*
X143189687Y-82165602D01*
X143278734Y-82420082D01*
X143395714Y-82662994D01*
X143395716Y-82662997D01*
X143539162Y-82891289D01*
X143569249Y-82929017D01*
X143707265Y-83102084D01*
X143893000Y-83287819D01*
X143926485Y-83349142D01*
X143921501Y-83418834D01*
X143879629Y-83474767D01*
X143814165Y-83499184D01*
X143805319Y-83499500D01*
X104094681Y-83499500D01*
X104027642Y-83479815D01*
X103981887Y-83427011D01*
X103971943Y-83357853D01*
X104000968Y-83294297D01*
X104007000Y-83287819D01*
X104192734Y-83102085D01*
X104360838Y-82891289D01*
X104504284Y-82662997D01*
X104621267Y-82420079D01*
X104625497Y-82407989D01*
X112141000Y-82407989D01*
X112151073Y-82506584D01*
X112204015Y-82666354D01*
X112204020Y-82666365D01*
X112292373Y-82809606D01*
X112292376Y-82809610D01*
X112411389Y-82928623D01*
X112411393Y-82928626D01*
X112554634Y-83016979D01*
X112554645Y-83016984D01*
X112714416Y-83069926D01*
X112714413Y-83069926D01*
X112813010Y-83079999D01*
X112813023Y-83080000D01*
X112831000Y-83080000D01*
X112831000Y-82355000D01*
X112141000Y-82355000D01*
X112141000Y-82407989D01*
X104625497Y-82407989D01*
X104710316Y-82165591D01*
X104770312Y-81902732D01*
X104800500Y-81634809D01*
X104800500Y-81365191D01*
X104770312Y-81097268D01*
X104710316Y-80834409D01*
X104621267Y-80579921D01*
X104504284Y-80337003D01*
X104360838Y-80108711D01*
X104192734Y-79897915D01*
X104002085Y-79707266D01*
X103791289Y-79539162D01*
X103592860Y-79414480D01*
X103562994Y-79395714D01*
X103320082Y-79278734D01*
X103065602Y-79189687D01*
X103065594Y-79189684D01*
X102868446Y-79144687D01*
X102802732Y-79129688D01*
X102802728Y-79129687D01*
X102802719Y-79129686D01*
X102534813Y-79099500D01*
X102534809Y-79099500D01*
X102265191Y-79099500D01*
X102265186Y-79099500D01*
X101997280Y-79129686D01*
X101997268Y-79129688D01*
X101734405Y-79189684D01*
X101734397Y-79189687D01*
X101479917Y-79278734D01*
X101237005Y-79395714D01*
X101008712Y-79539161D01*
X100797915Y-79707265D01*
X100712181Y-79793000D01*
X100650858Y-79826485D01*
X100581166Y-79821501D01*
X100525233Y-79779629D01*
X100500816Y-79714165D01*
X100500500Y-79705319D01*
X100500500Y-57893713D01*
X104859500Y-57893713D01*
X104859500Y-58106287D01*
X104892754Y-58316243D01*
X104956595Y-58512726D01*
X104958444Y-58518414D01*
X105054951Y-58707820D01*
X105179890Y-58879786D01*
X105330213Y-59030109D01*
X105502182Y-59155050D01*
X105510946Y-59159516D01*
X105561742Y-59207491D01*
X105578536Y-59275312D01*
X105555998Y-59341447D01*
X105510946Y-59380484D01*
X105502182Y-59384949D01*
X105330213Y-59509890D01*
X105179890Y-59660213D01*
X105054951Y-59832179D01*
X104958444Y-60021585D01*
X104892753Y-60223760D01*
X104879649Y-60306498D01*
X104859500Y-60433713D01*
X104859500Y-60646287D01*
X104892754Y-60856243D01*
X104956595Y-61052726D01*
X104958444Y-61058414D01*
X105054951Y-61247820D01*
X105179890Y-61419786D01*
X105330213Y-61570109D01*
X105502182Y-61695050D01*
X105510946Y-61699516D01*
X105561742Y-61747491D01*
X105578536Y-61815312D01*
X105555998Y-61881447D01*
X105510946Y-61920484D01*
X105502182Y-61924949D01*
X105330213Y-62049890D01*
X105179890Y-62200213D01*
X105054951Y-62372179D01*
X104958444Y-62561585D01*
X104892753Y-62763760D01*
X104859500Y-62973713D01*
X104859500Y-63186286D01*
X104892753Y-63396239D01*
X104958444Y-63598414D01*
X105054951Y-63787820D01*
X105179890Y-63959786D01*
X105330213Y-64110109D01*
X105502182Y-64235050D01*
X105510946Y-64239516D01*
X105561742Y-64287491D01*
X105578536Y-64355312D01*
X105555998Y-64421447D01*
X105510946Y-64460484D01*
X105502182Y-64464949D01*
X105330213Y-64589890D01*
X105179890Y-64740213D01*
X105054951Y-64912179D01*
X104958444Y-65101585D01*
X104892753Y-65303760D01*
X104859500Y-65513713D01*
X104859500Y-65726286D01*
X104892753Y-65936239D01*
X104958444Y-66138414D01*
X105054951Y-66327820D01*
X105179890Y-66499786D01*
X105330213Y-66650109D01*
X105502179Y-66775048D01*
X105502181Y-66775049D01*
X105502184Y-66775051D01*
X105511493Y-66779794D01*
X105562290Y-66827766D01*
X105579087Y-66895587D01*
X105556552Y-66961722D01*
X105511505Y-67000760D01*
X105502446Y-67005376D01*
X105502440Y-67005380D01*
X105448282Y-67044727D01*
X105448282Y-67044728D01*
X106080591Y-67677037D01*
X106017007Y-67694075D01*
X105902993Y-67759901D01*
X105809901Y-67852993D01*
X105744075Y-67967007D01*
X105727037Y-68030591D01*
X105094728Y-67398282D01*
X105094727Y-67398282D01*
X105055380Y-67452439D01*
X104958904Y-67641782D01*
X104893242Y-67843869D01*
X104893242Y-67843872D01*
X104860000Y-68053753D01*
X104860000Y-68266246D01*
X104893242Y-68476127D01*
X104893242Y-68476130D01*
X104958904Y-68678217D01*
X105055375Y-68867550D01*
X105094728Y-68921716D01*
X105727037Y-68289408D01*
X105744075Y-68352993D01*
X105809901Y-68467007D01*
X105902993Y-68560099D01*
X106017007Y-68625925D01*
X106080591Y-68642962D01*
X105479971Y-69243581D01*
X105558711Y-69360895D01*
X105559920Y-69364729D01*
X105562844Y-69367491D01*
X105570343Y-69397778D01*
X105579727Y-69427529D01*
X105578671Y-69431408D01*
X105579638Y-69435312D01*
X105569573Y-69464844D01*
X105561383Y-69494947D01*
X105558397Y-69497640D01*
X105557100Y-69501447D01*
X105512051Y-69540483D01*
X105502440Y-69545380D01*
X105448282Y-69584727D01*
X105448282Y-69584728D01*
X106080591Y-70217037D01*
X106017007Y-70234075D01*
X105902993Y-70299901D01*
X105809901Y-70392993D01*
X105744075Y-70507007D01*
X105727037Y-70570591D01*
X105094728Y-69938282D01*
X105094727Y-69938282D01*
X105055380Y-69992439D01*
X104958904Y-70181782D01*
X104893242Y-70383869D01*
X104893242Y-70383872D01*
X104860000Y-70593753D01*
X104860000Y-70806246D01*
X104893242Y-71016127D01*
X104893242Y-71016130D01*
X104958904Y-71218217D01*
X105055375Y-71407550D01*
X105094728Y-71461716D01*
X105727037Y-70829408D01*
X105744075Y-70892993D01*
X105809901Y-71007007D01*
X105902993Y-71100099D01*
X106017007Y-71165925D01*
X106080591Y-71182962D01*
X105479971Y-71783581D01*
X105558711Y-71900895D01*
X105559920Y-71904729D01*
X105562844Y-71907491D01*
X105570343Y-71937778D01*
X105579727Y-71967529D01*
X105578671Y-71971408D01*
X105579638Y-71975312D01*
X105569573Y-72004844D01*
X105561383Y-72034947D01*
X105558397Y-72037640D01*
X105557100Y-72041447D01*
X105512051Y-72080483D01*
X105502440Y-72085380D01*
X105448282Y-72124727D01*
X105448282Y-72124728D01*
X106080591Y-72757037D01*
X106017007Y-72774075D01*
X105902993Y-72839901D01*
X105809901Y-72932993D01*
X105744075Y-73047007D01*
X105727037Y-73110591D01*
X105094728Y-72478282D01*
X105094727Y-72478282D01*
X105055380Y-72532439D01*
X104958904Y-72721782D01*
X104893242Y-72923869D01*
X104893242Y-72923872D01*
X104860000Y-73133753D01*
X104860000Y-73346246D01*
X104893242Y-73556127D01*
X104893242Y-73556130D01*
X104958904Y-73758217D01*
X105055375Y-73947550D01*
X105094728Y-74001716D01*
X105727037Y-73369408D01*
X105744075Y-73432993D01*
X105809901Y-73547007D01*
X105902993Y-73640099D01*
X106017007Y-73705925D01*
X106080591Y-73722962D01*
X105479971Y-74323581D01*
X105558711Y-74440895D01*
X105559920Y-74444729D01*
X105562844Y-74447491D01*
X105570343Y-74477778D01*
X105579727Y-74507529D01*
X105578671Y-74511408D01*
X105579638Y-74515312D01*
X105569573Y-74544844D01*
X105561383Y-74574947D01*
X105558397Y-74577640D01*
X105557100Y-74581447D01*
X105512051Y-74620483D01*
X105502440Y-74625380D01*
X105448282Y-74664727D01*
X105448282Y-74664728D01*
X106080591Y-75297037D01*
X106017007Y-75314075D01*
X105902993Y-75379901D01*
X105809901Y-75472993D01*
X105744075Y-75587007D01*
X105727037Y-75650591D01*
X105094728Y-75018282D01*
X105094727Y-75018282D01*
X105055380Y-75072439D01*
X104958904Y-75261782D01*
X104893242Y-75463869D01*
X104893242Y-75463872D01*
X104860000Y-75673753D01*
X104860000Y-75886246D01*
X104893242Y-76096127D01*
X104893242Y-76096130D01*
X104958904Y-76298217D01*
X105055375Y-76487550D01*
X105094728Y-76541716D01*
X105727037Y-75909408D01*
X105744075Y-75972993D01*
X105809901Y-76087007D01*
X105902993Y-76180099D01*
X106017007Y-76245925D01*
X106080590Y-76262962D01*
X105448282Y-76895269D01*
X105448282Y-76895270D01*
X105502449Y-76934624D01*
X105691782Y-77031095D01*
X105893870Y-77096757D01*
X106103754Y-77130000D01*
X106316246Y-77130000D01*
X106526127Y-77096757D01*
X106526130Y-77096757D01*
X106728217Y-77031095D01*
X106917554Y-76934622D01*
X106971716Y-76895270D01*
X106971717Y-76895270D01*
X106339408Y-76262962D01*
X106402993Y-76245925D01*
X106517007Y-76180099D01*
X106610099Y-76087007D01*
X106675925Y-75972993D01*
X106692962Y-75909408D01*
X107325270Y-76541717D01*
X107325270Y-76541716D01*
X107364622Y-76487555D01*
X107369232Y-76478507D01*
X107417205Y-76427709D01*
X107485025Y-76410912D01*
X107551161Y-76433447D01*
X107590204Y-76478504D01*
X107594949Y-76487817D01*
X107719890Y-76659786D01*
X107870213Y-76810109D01*
X108042179Y-76935048D01*
X108042181Y-76935049D01*
X108042184Y-76935051D01*
X108231588Y-77031557D01*
X108433757Y-77097246D01*
X108643713Y-77130500D01*
X108643714Y-77130500D01*
X108856286Y-77130500D01*
X108856287Y-77130500D01*
X109066243Y-77097246D01*
X109268412Y-77031557D01*
X109457816Y-76935051D01*
X109527082Y-76884727D01*
X109629786Y-76810109D01*
X109629788Y-76810106D01*
X109629792Y-76810104D01*
X109780104Y-76659792D01*
X109905051Y-76487816D01*
X110001557Y-76298412D01*
X110067246Y-76096243D01*
X110100500Y-75886287D01*
X110100500Y-75673713D01*
X110067246Y-75463757D01*
X110001557Y-75261588D01*
X109905051Y-75072184D01*
X109905049Y-75072181D01*
X109905048Y-75072179D01*
X109780109Y-74900213D01*
X109629786Y-74749890D01*
X109457820Y-74624951D01*
X109457115Y-74624591D01*
X109449054Y-74620485D01*
X109398259Y-74572512D01*
X109381463Y-74504692D01*
X109403999Y-74438556D01*
X109449054Y-74399515D01*
X109457816Y-74395051D01*
X109556187Y-74323581D01*
X109629786Y-74270109D01*
X109629788Y-74270106D01*
X109629792Y-74270104D01*
X109780104Y-74119792D01*
X109780106Y-74119788D01*
X109780109Y-74119786D01*
X109905048Y-73947820D01*
X109905047Y-73947820D01*
X109905051Y-73947816D01*
X110001557Y-73758412D01*
X110067246Y-73556243D01*
X110100500Y-73346287D01*
X110100500Y-73133713D01*
X110067246Y-72923757D01*
X110001557Y-72721588D01*
X109905051Y-72532184D01*
X109905049Y-72532181D01*
X109905048Y-72532179D01*
X109780109Y-72360213D01*
X109629786Y-72209890D01*
X109457820Y-72084951D01*
X109457115Y-72084591D01*
X109449054Y-72080485D01*
X109398259Y-72032512D01*
X109381463Y-71964692D01*
X109403999Y-71898556D01*
X109449054Y-71859515D01*
X109457816Y-71855051D01*
X109519137Y-71810499D01*
X109629786Y-71730109D01*
X109629788Y-71730106D01*
X109629792Y-71730104D01*
X109780104Y-71579792D01*
X109780106Y-71579788D01*
X109780109Y-71579786D01*
X109905048Y-71407820D01*
X109905047Y-71407820D01*
X109905051Y-71407816D01*
X110001557Y-71218412D01*
X110067246Y-71016243D01*
X110100500Y-70806287D01*
X110100500Y-70593713D01*
X110067246Y-70383757D01*
X110014032Y-70219983D01*
X110469500Y-70219983D01*
X110469500Y-71820001D01*
X110469501Y-71820018D01*
X110480000Y-71922796D01*
X110480001Y-71922799D01*
X110512211Y-72020000D01*
X110535186Y-72089334D01*
X110627288Y-72238656D01*
X110751344Y-72362712D01*
X110900666Y-72454814D01*
X111067203Y-72509999D01*
X111169991Y-72520500D01*
X111275500Y-72520499D01*
X111342539Y-72540183D01*
X111388294Y-72592987D01*
X111399500Y-72644499D01*
X111399500Y-73599057D01*
X111437266Y-73740000D01*
X111440423Y-73751783D01*
X111440426Y-73751790D01*
X111519475Y-73888709D01*
X111519479Y-73888714D01*
X111519480Y-73888716D01*
X111631284Y-74000520D01*
X111631286Y-74000521D01*
X111631290Y-74000524D01*
X111768209Y-74079573D01*
X111768216Y-74079577D01*
X111920943Y-74120500D01*
X112079057Y-74120500D01*
X118206902Y-74120500D01*
X118273941Y-74140185D01*
X118319696Y-74192989D01*
X118329640Y-74262147D01*
X118300615Y-74325703D01*
X118294583Y-74332181D01*
X117199867Y-75426896D01*
X117138544Y-75460381D01*
X117073868Y-75457146D01*
X116937240Y-75412753D01*
X116775957Y-75387208D01*
X116727287Y-75379500D01*
X116514713Y-75379500D01*
X116466042Y-75387208D01*
X116304760Y-75412753D01*
X116238787Y-75434189D01*
X116166167Y-75457785D01*
X116102585Y-75478444D01*
X115913179Y-75574951D01*
X115741213Y-75699890D01*
X115590894Y-75850209D01*
X115590890Y-75850214D01*
X115471008Y-76015218D01*
X115415678Y-76057884D01*
X115346065Y-76063863D01*
X115284270Y-76031257D01*
X115270372Y-76015218D01*
X115150727Y-75850540D01*
X115150723Y-75850535D01*
X115000464Y-75700276D01*
X115000459Y-75700272D01*
X114828557Y-75575379D01*
X114639215Y-75478903D01*
X114437124Y-75413241D01*
X114371000Y-75402768D01*
X114371000Y-76450854D01*
X114304343Y-76412370D01*
X114183535Y-76380000D01*
X114058465Y-76380000D01*
X113937657Y-76412370D01*
X113871000Y-76450854D01*
X113871000Y-75402768D01*
X113870999Y-75402768D01*
X113804875Y-75413241D01*
X113602784Y-75478903D01*
X113413442Y-75575379D01*
X113241540Y-75700272D01*
X113241535Y-75700276D01*
X113091276Y-75850535D01*
X113091272Y-75850540D01*
X112966379Y-76022442D01*
X112869904Y-76211782D01*
X112804242Y-76413869D01*
X112804242Y-76413872D01*
X112773970Y-76605000D01*
X113716854Y-76605000D01*
X113678370Y-76671657D01*
X113646000Y-76792465D01*
X113646000Y-76917535D01*
X113678370Y-77038343D01*
X113716854Y-77105000D01*
X112773970Y-77105000D01*
X112804242Y-77296128D01*
X112869904Y-77498217D01*
X112966379Y-77687557D01*
X113091272Y-77859459D01*
X113091276Y-77859464D01*
X113241535Y-78009723D01*
X113241540Y-78009727D01*
X113413442Y-78134620D01*
X113602782Y-78231095D01*
X113804871Y-78296757D01*
X113871000Y-78307231D01*
X113871000Y-77259145D01*
X113937657Y-77297630D01*
X114058465Y-77330000D01*
X114183535Y-77330000D01*
X114304343Y-77297630D01*
X114371000Y-77259145D01*
X114371000Y-78204402D01*
X114351315Y-78271441D01*
X114334681Y-78292083D01*
X113100481Y-79526282D01*
X113100479Y-79526285D01*
X113050361Y-79613094D01*
X113050359Y-79613096D01*
X113021425Y-79663209D01*
X113021424Y-79663210D01*
X113009619Y-79707266D01*
X112985480Y-79797356D01*
X112980499Y-79815944D01*
X112980499Y-79938334D01*
X112960814Y-80005373D01*
X112944180Y-80026015D01*
X112930887Y-80039307D01*
X112930881Y-80039315D01*
X112848505Y-80178606D01*
X112848504Y-80178609D01*
X112803357Y-80334002D01*
X112803356Y-80334008D01*
X112800500Y-80370302D01*
X112800500Y-80839697D01*
X112803356Y-80875991D01*
X112803357Y-80875997D01*
X112833806Y-80980800D01*
X112833607Y-81050669D01*
X112795665Y-81109339D01*
X112732027Y-81138183D01*
X112727338Y-81138752D01*
X112714420Y-81140072D01*
X112714416Y-81140073D01*
X112554645Y-81193015D01*
X112554634Y-81193020D01*
X112411393Y-81281373D01*
X112411389Y-81281376D01*
X112292376Y-81400389D01*
X112292373Y-81400393D01*
X112204020Y-81543634D01*
X112204015Y-81543645D01*
X112151073Y-81703415D01*
X112141000Y-81802010D01*
X112141000Y-81855000D01*
X112957000Y-81855000D01*
X113024039Y-81874685D01*
X113069794Y-81927489D01*
X113081000Y-81979000D01*
X113081000Y-82105000D01*
X113207000Y-82105000D01*
X113274039Y-82124685D01*
X113319794Y-82177489D01*
X113331000Y-82229000D01*
X113331000Y-83080000D01*
X113348977Y-83080000D01*
X113348989Y-83079999D01*
X113447584Y-83069926D01*
X113607354Y-83016984D01*
X113607365Y-83016979D01*
X113750606Y-82928626D01*
X113750609Y-82928624D01*
X113782964Y-82896269D01*
X113844286Y-82862783D01*
X113913978Y-82867767D01*
X113958327Y-82896268D01*
X113991078Y-82929019D01*
X114134431Y-83017440D01*
X114294310Y-83070419D01*
X114392988Y-83080500D01*
X114392993Y-83080500D01*
X114929007Y-83080500D01*
X114929012Y-83080500D01*
X115027690Y-83070419D01*
X115187569Y-83017440D01*
X115330922Y-82929019D01*
X115450019Y-82809922D01*
X115515755Y-82703347D01*
X115567702Y-82656623D01*
X115636664Y-82645400D01*
X115700747Y-82673244D01*
X115726831Y-82703347D01*
X115792373Y-82809606D01*
X115792376Y-82809610D01*
X115911389Y-82928623D01*
X115911393Y-82928626D01*
X116054634Y-83016979D01*
X116054645Y-83016984D01*
X116214416Y-83069926D01*
X116214413Y-83069926D01*
X116313010Y-83079999D01*
X116313023Y-83080000D01*
X116331000Y-83080000D01*
X116331000Y-82229000D01*
X116350685Y-82161961D01*
X116403489Y-82116206D01*
X116455000Y-82105000D01*
X116707000Y-82105000D01*
X116774039Y-82124685D01*
X116819794Y-82177489D01*
X116831000Y-82229000D01*
X116831000Y-83080000D01*
X116848977Y-83080000D01*
X116848989Y-83079999D01*
X116947584Y-83069926D01*
X117107354Y-83016984D01*
X117107365Y-83016979D01*
X117250606Y-82928626D01*
X117250609Y-82928624D01*
X117282964Y-82896269D01*
X117344286Y-82862783D01*
X117413978Y-82867767D01*
X117458327Y-82896268D01*
X117491078Y-82929019D01*
X117634431Y-83017440D01*
X117794310Y-83070419D01*
X117892988Y-83080500D01*
X117892993Y-83080500D01*
X118429007Y-83080500D01*
X118429012Y-83080500D01*
X118527690Y-83070419D01*
X118687569Y-83017440D01*
X118830922Y-82929019D01*
X118950019Y-82809922D01*
X119015755Y-82703347D01*
X119067702Y-82656623D01*
X119136664Y-82645400D01*
X119200747Y-82673244D01*
X119226831Y-82703347D01*
X119292373Y-82809606D01*
X119292376Y-82809610D01*
X119411389Y-82928623D01*
X119411393Y-82928626D01*
X119554634Y-83016979D01*
X119554645Y-83016984D01*
X119714416Y-83069926D01*
X119714413Y-83069926D01*
X119813010Y-83079999D01*
X119813023Y-83080000D01*
X119831000Y-83080000D01*
X119831000Y-82229000D01*
X119850685Y-82161961D01*
X119903489Y-82116206D01*
X119955000Y-82105000D01*
X120207000Y-82105000D01*
X120274039Y-82124685D01*
X120319794Y-82177489D01*
X120331000Y-82229000D01*
X120331000Y-83080000D01*
X120348977Y-83080000D01*
X120348989Y-83079999D01*
X120447584Y-83069926D01*
X120607354Y-83016984D01*
X120607365Y-83016979D01*
X120750606Y-82928626D01*
X120750609Y-82928624D01*
X120782964Y-82896269D01*
X120844286Y-82862783D01*
X120913978Y-82867767D01*
X120958327Y-82896268D01*
X120991078Y-82929019D01*
X121134431Y-83017440D01*
X121294310Y-83070419D01*
X121392988Y-83080500D01*
X121392993Y-83080500D01*
X121929007Y-83080500D01*
X121929012Y-83080500D01*
X122027690Y-83070419D01*
X122187569Y-83017440D01*
X122330922Y-82929019D01*
X122450019Y-82809922D01*
X122515755Y-82703347D01*
X122567702Y-82656623D01*
X122636664Y-82645400D01*
X122700747Y-82673244D01*
X122726831Y-82703347D01*
X122792373Y-82809606D01*
X122792376Y-82809610D01*
X122911389Y-82928623D01*
X122911393Y-82928626D01*
X123054634Y-83016979D01*
X123054645Y-83016984D01*
X123214416Y-83069926D01*
X123214413Y-83069926D01*
X123313010Y-83079999D01*
X123313023Y-83080000D01*
X123331000Y-83080000D01*
X123331000Y-82229000D01*
X123350685Y-82161961D01*
X123403489Y-82116206D01*
X123455000Y-82105000D01*
X123707000Y-82105000D01*
X123774039Y-82124685D01*
X123819794Y-82177489D01*
X123831000Y-82229000D01*
X123831000Y-83080000D01*
X123848977Y-83080000D01*
X123848989Y-83079999D01*
X123947584Y-83069926D01*
X124107354Y-83016984D01*
X124107365Y-83016979D01*
X124250606Y-82928626D01*
X124250609Y-82928624D01*
X124282964Y-82896269D01*
X124344286Y-82862783D01*
X124413978Y-82867767D01*
X124458327Y-82896268D01*
X124491078Y-82929019D01*
X124634431Y-83017440D01*
X124794310Y-83070419D01*
X124892988Y-83080500D01*
X124892993Y-83080500D01*
X125429007Y-83080500D01*
X125429012Y-83080500D01*
X125527690Y-83070419D01*
X125687569Y-83017440D01*
X125830922Y-82929019D01*
X125950019Y-82809922D01*
X126038440Y-82666569D01*
X126091419Y-82506690D01*
X126101500Y-82408012D01*
X126101500Y-81801988D01*
X126091419Y-81703310D01*
X126038440Y-81543431D01*
X125950019Y-81400078D01*
X125830922Y-81280981D01*
X125830921Y-81280980D01*
X125820402Y-81274492D01*
X125813578Y-81266905D01*
X125804297Y-81262667D01*
X125790607Y-81241366D01*
X125773678Y-81222543D01*
X125771034Y-81210908D01*
X125766523Y-81203889D01*
X125761500Y-81168954D01*
X125761500Y-81153234D01*
X125778768Y-81090113D01*
X125802095Y-81050669D01*
X125813494Y-81031395D01*
X125858643Y-80875993D01*
X125861500Y-80839690D01*
X125861500Y-80370310D01*
X125858643Y-80334007D01*
X125813494Y-80178605D01*
X125731117Y-80039313D01*
X125731115Y-80039311D01*
X125731112Y-80039307D01*
X125616692Y-79924887D01*
X125616684Y-79924881D01*
X125521966Y-79868865D01*
X125477395Y-79842506D01*
X125477394Y-79842505D01*
X125477393Y-79842505D01*
X125477390Y-79842504D01*
X125321997Y-79797357D01*
X125321991Y-79797356D01*
X125285697Y-79794500D01*
X125285690Y-79794500D01*
X124876310Y-79794500D01*
X124876302Y-79794500D01*
X124840008Y-79797356D01*
X124833777Y-79798495D01*
X124833560Y-79797312D01*
X124770226Y-79797132D01*
X124711556Y-79759190D01*
X124682712Y-79695551D01*
X124681500Y-79678255D01*
X124681500Y-78451621D01*
X124701185Y-78384582D01*
X124753989Y-78338827D01*
X124792899Y-78328263D01*
X124845288Y-78322911D01*
X124873797Y-78319999D01*
X125040334Y-78264814D01*
X125189656Y-78172712D01*
X125313712Y-78048656D01*
X125405814Y-77899334D01*
X125460999Y-77732797D01*
X125471500Y-77630009D01*
X125471499Y-77102135D01*
X128649500Y-77102135D01*
X128649500Y-78897870D01*
X128649501Y-78897876D01*
X128655908Y-78957483D01*
X128706202Y-79092328D01*
X128706206Y-79092335D01*
X128792452Y-79207544D01*
X128792455Y-79207547D01*
X128907664Y-79293793D01*
X128907671Y-79293797D01*
X129042517Y-79344091D01*
X129042516Y-79344091D01*
X129049444Y-79344835D01*
X129102127Y-79350500D01*
X130897872Y-79350499D01*
X130957483Y-79344091D01*
X131092331Y-79293796D01*
X131207546Y-79207546D01*
X131293796Y-79092331D01*
X131344091Y-78957483D01*
X131350500Y-78897873D01*
X131350499Y-78873979D01*
X131353330Y-78860963D01*
X131363940Y-78841525D01*
X131370179Y-78820275D01*
X131386803Y-78799643D01*
X131386808Y-78799636D01*
X131386811Y-78799634D01*
X131386818Y-78799626D01*
X132057037Y-78129408D01*
X132074075Y-78192993D01*
X132139901Y-78307007D01*
X132232993Y-78400099D01*
X132347007Y-78465925D01*
X132410590Y-78482962D01*
X131778282Y-79115269D01*
X131778282Y-79115270D01*
X131832449Y-79154624D01*
X132021782Y-79251095D01*
X132223870Y-79316757D01*
X132433754Y-79350000D01*
X132646246Y-79350000D01*
X132856127Y-79316757D01*
X132856130Y-79316757D01*
X133058217Y-79251095D01*
X133247554Y-79154622D01*
X133301716Y-79115270D01*
X133301717Y-79115270D01*
X132669408Y-78482962D01*
X132732993Y-78465925D01*
X132847007Y-78400099D01*
X132940099Y-78307007D01*
X133005925Y-78192993D01*
X133022962Y-78129408D01*
X133655270Y-78761717D01*
X133655270Y-78761716D01*
X133694622Y-78707555D01*
X133699232Y-78698507D01*
X133747205Y-78647709D01*
X133815025Y-78630912D01*
X133881161Y-78653447D01*
X133920204Y-78698504D01*
X133924949Y-78707817D01*
X134049890Y-78879786D01*
X134200213Y-79030109D01*
X134372179Y-79155048D01*
X134372181Y-79155049D01*
X134372184Y-79155051D01*
X134561588Y-79251557D01*
X134763757Y-79317246D01*
X134973713Y-79350500D01*
X134973714Y-79350500D01*
X135186286Y-79350500D01*
X135186287Y-79350500D01*
X135396243Y-79317246D01*
X135598412Y-79251557D01*
X135787816Y-79155051D01*
X135874138Y-79092335D01*
X135959786Y-79030109D01*
X135959788Y-79030106D01*
X135959792Y-79030104D01*
X136110104Y-78879792D01*
X136110106Y-78879788D01*
X136110109Y-78879786D01*
X136235048Y-78707820D01*
X136235050Y-78707817D01*
X136235051Y-78707816D01*
X136331557Y-78518412D01*
X136397246Y-78316243D01*
X136430500Y-78106287D01*
X136430500Y-77893713D01*
X136397246Y-77683757D01*
X136331557Y-77481588D01*
X136235051Y-77292184D01*
X136235049Y-77292181D01*
X136235048Y-77292179D01*
X136110109Y-77120213D01*
X135959786Y-76969890D01*
X135787820Y-76844951D01*
X135598414Y-76748444D01*
X135598413Y-76748443D01*
X135598412Y-76748443D01*
X135396243Y-76682754D01*
X135396241Y-76682753D01*
X135396240Y-76682753D01*
X135234957Y-76657208D01*
X135186287Y-76649500D01*
X134973713Y-76649500D01*
X134945006Y-76654046D01*
X134763757Y-76682753D01*
X134721473Y-76696492D01*
X134651632Y-76698486D01*
X134595476Y-76666241D01*
X132625819Y-74696584D01*
X132592334Y-74635261D01*
X132589500Y-74608903D01*
X132589500Y-73094500D01*
X132609185Y-73027461D01*
X132661989Y-72981706D01*
X132713500Y-72970500D01*
X132834682Y-72970500D01*
X132834690Y-72970500D01*
X132870993Y-72967643D01*
X132870995Y-72967642D01*
X132870997Y-72967642D01*
X132911975Y-72955736D01*
X133026395Y-72922494D01*
X133165687Y-72840117D01*
X133169308Y-72836496D01*
X133178986Y-72826819D01*
X133240309Y-72793334D01*
X133266667Y-72790500D01*
X134643331Y-72790500D01*
X134643347Y-72790501D01*
X134650943Y-72790501D01*
X134809054Y-72790501D01*
X134809057Y-72790501D01*
X134961785Y-72749577D01*
X135011904Y-72720639D01*
X135098716Y-72670520D01*
X135210520Y-72558716D01*
X135210521Y-72558713D01*
X135367418Y-72401815D01*
X135428739Y-72368333D01*
X135455097Y-72365499D01*
X135803338Y-72365499D01*
X135803344Y-72365499D01*
X135803352Y-72365498D01*
X135803355Y-72365498D01*
X135857760Y-72359940D01*
X135902708Y-72355349D01*
X136063697Y-72302003D01*
X136208044Y-72212968D01*
X136327968Y-72093044D01*
X136417003Y-71948697D01*
X136470349Y-71787708D01*
X136480500Y-71688345D01*
X136480499Y-71091656D01*
X136470349Y-70992292D01*
X136417003Y-70831303D01*
X136416999Y-70831297D01*
X136416998Y-70831294D01*
X136327970Y-70686959D01*
X136327969Y-70686958D01*
X136327968Y-70686956D01*
X136208044Y-70567032D01*
X136208043Y-70567031D01*
X136208042Y-70567030D01*
X136159401Y-70537027D01*
X136152578Y-70529441D01*
X136143297Y-70525203D01*
X136129607Y-70503902D01*
X136112678Y-70485079D01*
X136110034Y-70473444D01*
X136105523Y-70466425D01*
X136100500Y-70431490D01*
X136100500Y-70411728D01*
X136108318Y-70368394D01*
X136144091Y-70272483D01*
X136150500Y-70212873D01*
X136150499Y-69890095D01*
X136170183Y-69823057D01*
X136186813Y-69802420D01*
X137868713Y-68120521D01*
X137868716Y-68120520D01*
X137980520Y-68008716D01*
X138030639Y-67921904D01*
X138059577Y-67871785D01*
X138100500Y-67719057D01*
X138100500Y-67560943D01*
X138100500Y-65079765D01*
X138120185Y-65012726D01*
X138121398Y-65010874D01*
X138209390Y-64879185D01*
X138209390Y-64879184D01*
X138209394Y-64879179D01*
X138269737Y-64733497D01*
X138300500Y-64578842D01*
X138300500Y-64421158D01*
X138300500Y-64421155D01*
X138300499Y-64421153D01*
X138282677Y-64331557D01*
X138269737Y-64266503D01*
X138246082Y-64209394D01*
X138209397Y-64120827D01*
X138209390Y-64120814D01*
X138121789Y-63989711D01*
X138121786Y-63989707D01*
X138010292Y-63878213D01*
X138010288Y-63878210D01*
X137879185Y-63790609D01*
X137879172Y-63790602D01*
X137733501Y-63730264D01*
X137733489Y-63730261D01*
X137578845Y-63699500D01*
X137578842Y-63699500D01*
X137421158Y-63699500D01*
X137421155Y-63699500D01*
X137266510Y-63730261D01*
X137260676Y-63732031D01*
X137259873Y-63729385D01*
X137202056Y-63735396D01*
X137139687Y-63703902D01*
X137104245Y-63643689D01*
X137100500Y-63613444D01*
X137100500Y-61119765D01*
X137120185Y-61052726D01*
X137121398Y-61050874D01*
X137209390Y-60919185D01*
X137209390Y-60919184D01*
X137209394Y-60919179D01*
X137269737Y-60773497D01*
X137300500Y-60618842D01*
X137300500Y-60461158D01*
X137300500Y-60461155D01*
X137300499Y-60461153D01*
X137269738Y-60306510D01*
X137269737Y-60306503D01*
X137235463Y-60223757D01*
X137209397Y-60160827D01*
X137209390Y-60160814D01*
X137121789Y-60029711D01*
X137121786Y-60029707D01*
X137010292Y-59918213D01*
X137010288Y-59918210D01*
X136879185Y-59830609D01*
X136879172Y-59830602D01*
X136733501Y-59770264D01*
X136733489Y-59770261D01*
X136578845Y-59739500D01*
X136578842Y-59739500D01*
X136421158Y-59739500D01*
X136421155Y-59739500D01*
X136266510Y-59770261D01*
X136266498Y-59770264D01*
X136120827Y-59830602D01*
X136120814Y-59830609D01*
X135989711Y-59918210D01*
X135989707Y-59918213D01*
X135878213Y-60029707D01*
X135878210Y-60029711D01*
X135827603Y-60105450D01*
X135773991Y-60150255D01*
X135704666Y-60158962D01*
X135641638Y-60128807D01*
X135604919Y-60069364D01*
X135600501Y-60036559D01*
X135600501Y-57428764D01*
X135620186Y-57361725D01*
X135621399Y-57359873D01*
X135709390Y-57228185D01*
X135709390Y-57228184D01*
X135709394Y-57228179D01*
X135761603Y-57102135D01*
X138399500Y-57102135D01*
X138399500Y-58897870D01*
X138399501Y-58897876D01*
X138405908Y-58957483D01*
X138456202Y-59092328D01*
X138456206Y-59092335D01*
X138542452Y-59207544D01*
X138542455Y-59207547D01*
X138657664Y-59293793D01*
X138657671Y-59293797D01*
X138789082Y-59342810D01*
X138845016Y-59384681D01*
X138869433Y-59450145D01*
X138854582Y-59518418D01*
X138833431Y-59546673D01*
X138719889Y-59660215D01*
X138594951Y-59832179D01*
X138498444Y-60021585D01*
X138432753Y-60223760D01*
X138419649Y-60306498D01*
X138399500Y-60433713D01*
X138399500Y-60646287D01*
X138432754Y-60856243D01*
X138496595Y-61052726D01*
X138498444Y-61058414D01*
X138594951Y-61247820D01*
X138719890Y-61419786D01*
X138870213Y-61570109D01*
X139042182Y-61695050D01*
X139050946Y-61699516D01*
X139101742Y-61747491D01*
X139118536Y-61815312D01*
X139095998Y-61881447D01*
X139050946Y-61920484D01*
X139042182Y-61924949D01*
X138870213Y-62049890D01*
X138719890Y-62200213D01*
X138594951Y-62372179D01*
X138498444Y-62561585D01*
X138432753Y-62763760D01*
X138399500Y-62973713D01*
X138399500Y-63186286D01*
X138432753Y-63396239D01*
X138498444Y-63598414D01*
X138594951Y-63787820D01*
X138719890Y-63959786D01*
X138870213Y-64110109D01*
X139042182Y-64235050D01*
X139050946Y-64239516D01*
X139101742Y-64287491D01*
X139118536Y-64355312D01*
X139095998Y-64421447D01*
X139050946Y-64460484D01*
X139042182Y-64464949D01*
X138870213Y-64589890D01*
X138719890Y-64740213D01*
X138594951Y-64912179D01*
X138498444Y-65101585D01*
X138432753Y-65303760D01*
X138399500Y-65513713D01*
X138399500Y-65726286D01*
X138432753Y-65936239D01*
X138498444Y-66138414D01*
X138594951Y-66327820D01*
X138719890Y-66499786D01*
X138870213Y-66650109D01*
X139042182Y-66775050D01*
X139050946Y-66779516D01*
X139101742Y-66827491D01*
X139118536Y-66895312D01*
X139095998Y-66961447D01*
X139050946Y-67000484D01*
X139042182Y-67004949D01*
X138870213Y-67129890D01*
X138719890Y-67280213D01*
X138594951Y-67452179D01*
X138498444Y-67641585D01*
X138498443Y-67641587D01*
X138498443Y-67641588D01*
X138489422Y-67669351D01*
X138432753Y-67843760D01*
X138399500Y-68053713D01*
X138399500Y-68266286D01*
X138432735Y-68476127D01*
X138432754Y-68476243D01*
X138479497Y-68620104D01*
X138498444Y-68678414D01*
X138594951Y-68867820D01*
X138719890Y-69039786D01*
X138870213Y-69190109D01*
X139042182Y-69315050D01*
X139050946Y-69319516D01*
X139101742Y-69367491D01*
X139118536Y-69435312D01*
X139095998Y-69501447D01*
X139050946Y-69540484D01*
X139042182Y-69544949D01*
X138870213Y-69669890D01*
X138719890Y-69820213D01*
X138594951Y-69992179D01*
X138498444Y-70181585D01*
X138498443Y-70181587D01*
X138498443Y-70181588D01*
X138470296Y-70268214D01*
X138432753Y-70383760D01*
X138418549Y-70473444D01*
X138399500Y-70593713D01*
X138399500Y-70806287D01*
X138404919Y-70840500D01*
X138432735Y-71016127D01*
X138432754Y-71016243D01*
X138489373Y-71190499D01*
X138498444Y-71218414D01*
X138594951Y-71407820D01*
X138719890Y-71579786D01*
X138870213Y-71730109D01*
X139042182Y-71855050D01*
X139050946Y-71859516D01*
X139101742Y-71907491D01*
X139118536Y-71975312D01*
X139095998Y-72041447D01*
X139050946Y-72080484D01*
X139042182Y-72084949D01*
X138870213Y-72209890D01*
X138719890Y-72360213D01*
X138594951Y-72532179D01*
X138498444Y-72721585D01*
X138432753Y-72923760D01*
X138399500Y-73133713D01*
X138399500Y-73346286D01*
X138432735Y-73556127D01*
X138432754Y-73556243D01*
X138496291Y-73751790D01*
X138498444Y-73758414D01*
X138594951Y-73947820D01*
X138719890Y-74119786D01*
X138870213Y-74270109D01*
X139042182Y-74395050D01*
X139050946Y-74399516D01*
X139101742Y-74447491D01*
X139118536Y-74515312D01*
X139095998Y-74581447D01*
X139050946Y-74620484D01*
X139042182Y-74624949D01*
X138870213Y-74749890D01*
X138719890Y-74900213D01*
X138594951Y-75072179D01*
X138498444Y-75261585D01*
X138498443Y-75261587D01*
X138498443Y-75261588D01*
X138432754Y-75463757D01*
X138415075Y-75575379D01*
X138399500Y-75673713D01*
X138399500Y-75886286D01*
X138432753Y-76096239D01*
X138498444Y-76298414D01*
X138594951Y-76487820D01*
X138719890Y-76659786D01*
X138870213Y-76810109D01*
X139042179Y-76935048D01*
X139042181Y-76935049D01*
X139042184Y-76935051D01*
X139231588Y-77031557D01*
X139433757Y-77097246D01*
X139643713Y-77130500D01*
X139643714Y-77130500D01*
X139856286Y-77130500D01*
X139856287Y-77130500D01*
X140066243Y-77097246D01*
X140268412Y-77031557D01*
X140457816Y-76935051D01*
X140527082Y-76884727D01*
X140629786Y-76810109D01*
X140629788Y-76810106D01*
X140629792Y-76810104D01*
X140780104Y-76659792D01*
X140780106Y-76659788D01*
X140780109Y-76659786D01*
X140865890Y-76541717D01*
X140905051Y-76487816D01*
X140909793Y-76478508D01*
X140957763Y-76427711D01*
X141025583Y-76410911D01*
X141091719Y-76433445D01*
X141130763Y-76478500D01*
X141135373Y-76487547D01*
X141174728Y-76541716D01*
X141807036Y-75909407D01*
X141824075Y-75972993D01*
X141889901Y-76087007D01*
X141982993Y-76180099D01*
X142097007Y-76245925D01*
X142160590Y-76262962D01*
X141528282Y-76895269D01*
X141528282Y-76895270D01*
X141582449Y-76934624D01*
X141771782Y-77031095D01*
X141973870Y-77096757D01*
X142183754Y-77130000D01*
X142396246Y-77130000D01*
X142606127Y-77096757D01*
X142606130Y-77096757D01*
X142808217Y-77031095D01*
X142997554Y-76934622D01*
X143051716Y-76895270D01*
X143051717Y-76895270D01*
X142419408Y-76262962D01*
X142482993Y-76245925D01*
X142597007Y-76180099D01*
X142690099Y-76087007D01*
X142755925Y-75972993D01*
X142772962Y-75909408D01*
X143405270Y-76541717D01*
X143405270Y-76541716D01*
X143444622Y-76487554D01*
X143541095Y-76298217D01*
X143606757Y-76096130D01*
X143606757Y-76096127D01*
X143640000Y-75886246D01*
X143640000Y-75673753D01*
X143606757Y-75463872D01*
X143606757Y-75463869D01*
X143541095Y-75261782D01*
X143444624Y-75072449D01*
X143405270Y-75018282D01*
X143405269Y-75018282D01*
X142772962Y-75650590D01*
X142755925Y-75587007D01*
X142690099Y-75472993D01*
X142597007Y-75379901D01*
X142482993Y-75314075D01*
X142419409Y-75297037D01*
X143051716Y-74664728D01*
X142997550Y-74625375D01*
X142987954Y-74620486D01*
X142937157Y-74572512D01*
X142920361Y-74504692D01*
X142942897Y-74438556D01*
X142987954Y-74399514D01*
X142997554Y-74394622D01*
X143051716Y-74355270D01*
X143051717Y-74355270D01*
X142419408Y-73722962D01*
X142482993Y-73705925D01*
X142597007Y-73640099D01*
X142690099Y-73547007D01*
X142755925Y-73432993D01*
X142772962Y-73369408D01*
X143405270Y-74001717D01*
X143405270Y-74001716D01*
X143444622Y-73947554D01*
X143541095Y-73758217D01*
X143606757Y-73556130D01*
X143606757Y-73556127D01*
X143640000Y-73346246D01*
X143640000Y-73133753D01*
X143606757Y-72923872D01*
X143606757Y-72923869D01*
X143541095Y-72721782D01*
X143444624Y-72532449D01*
X143405270Y-72478282D01*
X143405269Y-72478282D01*
X142772962Y-73110590D01*
X142755925Y-73047007D01*
X142690099Y-72932993D01*
X142597007Y-72839901D01*
X142482993Y-72774075D01*
X142419409Y-72757037D01*
X143051716Y-72124728D01*
X142997550Y-72085375D01*
X142987954Y-72080486D01*
X142937157Y-72032512D01*
X142920361Y-71964692D01*
X142942897Y-71898556D01*
X142987954Y-71859514D01*
X142997554Y-71854622D01*
X143051716Y-71815270D01*
X143051717Y-71815270D01*
X142419408Y-71182962D01*
X142482993Y-71165925D01*
X142597007Y-71100099D01*
X142690099Y-71007007D01*
X142755925Y-70892993D01*
X142772962Y-70829408D01*
X143405270Y-71461717D01*
X143405270Y-71461716D01*
X143444622Y-71407554D01*
X143541095Y-71218217D01*
X143606757Y-71016130D01*
X143606757Y-71016127D01*
X143640000Y-70806246D01*
X143640000Y-70593753D01*
X143606757Y-70383872D01*
X143606757Y-70383869D01*
X143541095Y-70181782D01*
X143444624Y-69992449D01*
X143405270Y-69938282D01*
X143405269Y-69938282D01*
X142772962Y-70570590D01*
X142755925Y-70507007D01*
X142690099Y-70392993D01*
X142597007Y-70299901D01*
X142482993Y-70234075D01*
X142419409Y-70217037D01*
X143051716Y-69584728D01*
X142997550Y-69545375D01*
X142987954Y-69540486D01*
X142937157Y-69492512D01*
X142920361Y-69424692D01*
X142942897Y-69358556D01*
X142987954Y-69319514D01*
X142997554Y-69314622D01*
X143051716Y-69275270D01*
X143051717Y-69275270D01*
X142419408Y-68642962D01*
X142482993Y-68625925D01*
X142597007Y-68560099D01*
X142690099Y-68467007D01*
X142755925Y-68352993D01*
X142772962Y-68289408D01*
X143405270Y-68921717D01*
X143405270Y-68921716D01*
X143444622Y-68867554D01*
X143541095Y-68678217D01*
X143606757Y-68476130D01*
X143606757Y-68476127D01*
X143640000Y-68266246D01*
X143640000Y-68053753D01*
X143606757Y-67843872D01*
X143606757Y-67843869D01*
X143541095Y-67641782D01*
X143444624Y-67452449D01*
X143405270Y-67398282D01*
X143405269Y-67398282D01*
X142772962Y-68030590D01*
X142755925Y-67967007D01*
X142690099Y-67852993D01*
X142597007Y-67759901D01*
X142482993Y-67694075D01*
X142419409Y-67677037D01*
X143051716Y-67044728D01*
X142997547Y-67005373D01*
X142997547Y-67005372D01*
X142988500Y-67000763D01*
X142937706Y-66952788D01*
X142920912Y-66884966D01*
X142943451Y-66818832D01*
X142988508Y-66779793D01*
X142997816Y-66775051D01*
X143077007Y-66717515D01*
X143169786Y-66650109D01*
X143169788Y-66650106D01*
X143169792Y-66650104D01*
X143320104Y-66499792D01*
X143320106Y-66499788D01*
X143320109Y-66499786D01*
X143445048Y-66327820D01*
X143445047Y-66327820D01*
X143445051Y-66327816D01*
X143541557Y-66138412D01*
X143607246Y-65936243D01*
X143640500Y-65726287D01*
X143640500Y-65513713D01*
X143607246Y-65303757D01*
X143541557Y-65101588D01*
X143445051Y-64912184D01*
X143445049Y-64912181D01*
X143445048Y-64912179D01*
X143320109Y-64740213D01*
X143169786Y-64589890D01*
X142997820Y-64464951D01*
X142997115Y-64464591D01*
X142989054Y-64460485D01*
X142938259Y-64412512D01*
X142921463Y-64344692D01*
X142943999Y-64278556D01*
X142989054Y-64239515D01*
X142997816Y-64235051D01*
X143051820Y-64195815D01*
X143169786Y-64110109D01*
X143169788Y-64110106D01*
X143169792Y-64110104D01*
X143320104Y-63959792D01*
X143320106Y-63959788D01*
X143320109Y-63959786D01*
X143445048Y-63787820D01*
X143445047Y-63787820D01*
X143445051Y-63787816D01*
X143541557Y-63598412D01*
X143607246Y-63396243D01*
X143640500Y-63186287D01*
X143640500Y-62973713D01*
X143607246Y-62763757D01*
X143541557Y-62561588D01*
X143445051Y-62372184D01*
X143445049Y-62372181D01*
X143445048Y-62372179D01*
X143320109Y-62200213D01*
X143169786Y-62049890D01*
X142997820Y-61924951D01*
X142997115Y-61924591D01*
X142989054Y-61920485D01*
X142938259Y-61872512D01*
X142921463Y-61804692D01*
X142943999Y-61738556D01*
X142989054Y-61699515D01*
X142997816Y-61695051D01*
X143019789Y-61679086D01*
X143169786Y-61570109D01*
X143169788Y-61570106D01*
X143169792Y-61570104D01*
X143320104Y-61419792D01*
X143320106Y-61419788D01*
X143320109Y-61419786D01*
X143445048Y-61247820D01*
X143445047Y-61247820D01*
X143445051Y-61247816D01*
X143541557Y-61058412D01*
X143607246Y-60856243D01*
X143640500Y-60646287D01*
X143640500Y-60433713D01*
X143607246Y-60223757D01*
X143541557Y-60021588D01*
X143445051Y-59832184D01*
X143445049Y-59832181D01*
X143445048Y-59832179D01*
X143320109Y-59660213D01*
X143169786Y-59509890D01*
X142997820Y-59384951D01*
X142997115Y-59384591D01*
X142989054Y-59380485D01*
X142938259Y-59332512D01*
X142921463Y-59264692D01*
X142943999Y-59198556D01*
X142989054Y-59159515D01*
X142997816Y-59155051D01*
X143084138Y-59092335D01*
X143169786Y-59030109D01*
X143169788Y-59030106D01*
X143169792Y-59030104D01*
X143320104Y-58879792D01*
X143320106Y-58879788D01*
X143320109Y-58879786D01*
X143445048Y-58707820D01*
X143445047Y-58707820D01*
X143445051Y-58707816D01*
X143541557Y-58518412D01*
X143607246Y-58316243D01*
X143640500Y-58106287D01*
X143640500Y-57893713D01*
X143607246Y-57683757D01*
X143541557Y-57481588D01*
X143445051Y-57292184D01*
X143445049Y-57292181D01*
X143445048Y-57292179D01*
X143320109Y-57120213D01*
X143169786Y-56969890D01*
X142997820Y-56844951D01*
X142808414Y-56748444D01*
X142808413Y-56748443D01*
X142808412Y-56748443D01*
X142606243Y-56682754D01*
X142606241Y-56682753D01*
X142606240Y-56682753D01*
X142444957Y-56657208D01*
X142396287Y-56649500D01*
X142183713Y-56649500D01*
X142135042Y-56657208D01*
X141973760Y-56682753D01*
X141771585Y-56748444D01*
X141582179Y-56844951D01*
X141410215Y-56969889D01*
X141296673Y-57083431D01*
X141235350Y-57116915D01*
X141165658Y-57111931D01*
X141109725Y-57070059D01*
X141092810Y-57039082D01*
X141043797Y-56907671D01*
X141043793Y-56907664D01*
X140957547Y-56792455D01*
X140957544Y-56792452D01*
X140842335Y-56706206D01*
X140842328Y-56706202D01*
X140707482Y-56655908D01*
X140707483Y-56655908D01*
X140647883Y-56649501D01*
X140647881Y-56649500D01*
X140647873Y-56649500D01*
X140647864Y-56649500D01*
X138852129Y-56649500D01*
X138852123Y-56649501D01*
X138792516Y-56655908D01*
X138657671Y-56706202D01*
X138657664Y-56706206D01*
X138542455Y-56792452D01*
X138542452Y-56792455D01*
X138456206Y-56907664D01*
X138456202Y-56907671D01*
X138405908Y-57042517D01*
X138399501Y-57102116D01*
X138399501Y-57102123D01*
X138399500Y-57102135D01*
X135761603Y-57102135D01*
X135769737Y-57082497D01*
X135792136Y-56969890D01*
X135800500Y-56927844D01*
X135800500Y-56770155D01*
X135800499Y-56770153D01*
X135777774Y-56655908D01*
X135769737Y-56615503D01*
X135769735Y-56615498D01*
X135709397Y-56469827D01*
X135709390Y-56469814D01*
X135621789Y-56338711D01*
X135621786Y-56338707D01*
X135510292Y-56227213D01*
X135510288Y-56227210D01*
X135379185Y-56139609D01*
X135379172Y-56139602D01*
X135233501Y-56079264D01*
X135233489Y-56079261D01*
X135078845Y-56048500D01*
X135078842Y-56048500D01*
X134921158Y-56048500D01*
X134921155Y-56048500D01*
X134766510Y-56079261D01*
X134766498Y-56079264D01*
X134620827Y-56139602D01*
X134620814Y-56139609D01*
X134489711Y-56227210D01*
X134489707Y-56227213D01*
X134378213Y-56338707D01*
X134378210Y-56338711D01*
X134290609Y-56469814D01*
X134290602Y-56469827D01*
X134230264Y-56615498D01*
X134230261Y-56615510D01*
X134199500Y-56770153D01*
X134199500Y-56927846D01*
X134230261Y-57082489D01*
X134230264Y-57082501D01*
X134290602Y-57228172D01*
X134290609Y-57228185D01*
X134378603Y-57359876D01*
X134399481Y-57426553D01*
X134399501Y-57428767D01*
X134399501Y-65492648D01*
X134398854Y-65494850D01*
X134399422Y-65497075D01*
X134389059Y-65528208D01*
X134379816Y-65559687D01*
X134378081Y-65561190D01*
X134377356Y-65563369D01*
X134351799Y-65583963D01*
X134327012Y-65605442D01*
X134324182Y-65606218D01*
X134322952Y-65607210D01*
X134288754Y-65615938D01*
X134263256Y-65618679D01*
X134236749Y-65618679D01*
X134197874Y-65614500D01*
X133802131Y-65614500D01*
X133802120Y-65614501D01*
X133763254Y-65618679D01*
X133736749Y-65618679D01*
X133697875Y-65614500D01*
X133302131Y-65614500D01*
X133302120Y-65614501D01*
X133263253Y-65618679D01*
X133236748Y-65618679D01*
X133197873Y-65614500D01*
X132802130Y-65614500D01*
X132802121Y-65614501D01*
X132763255Y-65618679D01*
X132736749Y-65618679D01*
X132697875Y-65614500D01*
X132302131Y-65614500D01*
X132302122Y-65614501D01*
X132263256Y-65618679D01*
X132236749Y-65618678D01*
X132211245Y-65615936D01*
X132146694Y-65589198D01*
X132106846Y-65531806D01*
X132100500Y-65492647D01*
X132100500Y-62508765D01*
X132120185Y-62441726D01*
X132121398Y-62439874D01*
X132166629Y-62372182D01*
X132209394Y-62308179D01*
X132269737Y-62162497D01*
X132300500Y-62007842D01*
X132300500Y-61850158D01*
X132300500Y-61850155D01*
X132300499Y-61850153D01*
X132270535Y-61699516D01*
X132269737Y-61695503D01*
X132269549Y-61695048D01*
X132209397Y-61549827D01*
X132209390Y-61549814D01*
X132121789Y-61418711D01*
X132121786Y-61418707D01*
X132010292Y-61307213D01*
X132010288Y-61307210D01*
X131879185Y-61219609D01*
X131879172Y-61219602D01*
X131733501Y-61159264D01*
X131733489Y-61159261D01*
X131578845Y-61128500D01*
X131578842Y-61128500D01*
X131421158Y-61128500D01*
X131421155Y-61128500D01*
X131266510Y-61159261D01*
X131266498Y-61159264D01*
X131120827Y-61219602D01*
X131120814Y-61219609D01*
X131015761Y-61289804D01*
X130949083Y-61310682D01*
X130884786Y-61293042D01*
X130884553Y-61293479D01*
X130882630Y-61292451D01*
X130881703Y-61292197D01*
X130879474Y-61290764D01*
X130879181Y-61290607D01*
X130879179Y-61290606D01*
X130879176Y-61290605D01*
X130879171Y-61290602D01*
X130733501Y-61230264D01*
X130733489Y-61230261D01*
X130578845Y-61199500D01*
X130578842Y-61199500D01*
X130421158Y-61199500D01*
X130421155Y-61199500D01*
X130266510Y-61230261D01*
X130266498Y-61230264D01*
X130120827Y-61290602D01*
X130120814Y-61290609D01*
X129989711Y-61378210D01*
X129989707Y-61378213D01*
X129878213Y-61489707D01*
X129878210Y-61489711D01*
X129790609Y-61620814D01*
X129790602Y-61620827D01*
X129730264Y-61766498D01*
X129730261Y-61766510D01*
X129699500Y-61921153D01*
X129699500Y-62078846D01*
X129730261Y-62233489D01*
X129730264Y-62233501D01*
X129790602Y-62379172D01*
X129790609Y-62379185D01*
X129878209Y-62510287D01*
X129878210Y-62510288D01*
X129878211Y-62510289D01*
X129964182Y-62596260D01*
X129997666Y-62657581D01*
X130000500Y-62683940D01*
X130000500Y-63655279D01*
X129980815Y-63722318D01*
X129928011Y-63768073D01*
X129858853Y-63778017D01*
X129829049Y-63769841D01*
X129745889Y-63735396D01*
X129733497Y-63730263D01*
X129733493Y-63730262D01*
X129733489Y-63730261D01*
X129578845Y-63699500D01*
X129578842Y-63699500D01*
X129421158Y-63699500D01*
X129421155Y-63699500D01*
X129266510Y-63730261D01*
X129266498Y-63730264D01*
X129120827Y-63790602D01*
X129120814Y-63790609D01*
X128989711Y-63878210D01*
X128989707Y-63878213D01*
X128878213Y-63989707D01*
X128878210Y-63989711D01*
X128790609Y-64120814D01*
X128790602Y-64120827D01*
X128730264Y-64266498D01*
X128730261Y-64266510D01*
X128699500Y-64421153D01*
X128699500Y-64578846D01*
X128730261Y-64733489D01*
X128730264Y-64733501D01*
X128790602Y-64879172D01*
X128790609Y-64879185D01*
X128878602Y-65010874D01*
X128899480Y-65077551D01*
X128899500Y-65079765D01*
X128899500Y-69913330D01*
X128899499Y-69913348D01*
X128899499Y-70079054D01*
X128899498Y-70079054D01*
X128940424Y-70231789D01*
X128940425Y-70231790D01*
X128961455Y-70268214D01*
X128961456Y-70268216D01*
X129019475Y-70368709D01*
X129019481Y-70368717D01*
X129138349Y-70487585D01*
X129138355Y-70487590D01*
X129683181Y-71032416D01*
X129716666Y-71093739D01*
X129719500Y-71120097D01*
X129719500Y-71234697D01*
X129722356Y-71270991D01*
X129722357Y-71270997D01*
X129767504Y-71426390D01*
X129767505Y-71426393D01*
X129849881Y-71565684D01*
X129849887Y-71565692D01*
X129964307Y-71680112D01*
X129964311Y-71680115D01*
X129964313Y-71680117D01*
X130103605Y-71762494D01*
X130144587Y-71774400D01*
X130259002Y-71807642D01*
X130259005Y-71807642D01*
X130259007Y-71807643D01*
X130295310Y-71810500D01*
X130295318Y-71810500D01*
X130704682Y-71810500D01*
X130704690Y-71810500D01*
X130740993Y-71807643D01*
X130740995Y-71807642D01*
X130740997Y-71807642D01*
X130809609Y-71787708D01*
X130896395Y-71762494D01*
X130936879Y-71738551D01*
X131004602Y-71721368D01*
X131063120Y-71738551D01*
X131103605Y-71762494D01*
X131144587Y-71774400D01*
X131259002Y-71807642D01*
X131259005Y-71807642D01*
X131259007Y-71807643D01*
X131274224Y-71808840D01*
X131339512Y-71833720D01*
X131380986Y-71889949D01*
X131388500Y-71932458D01*
X131388500Y-74822330D01*
X131388499Y-74822348D01*
X131388499Y-74988054D01*
X131388498Y-74988054D01*
X131411041Y-75072184D01*
X131429423Y-75140785D01*
X131448016Y-75172989D01*
X131458358Y-75190900D01*
X131458359Y-75190904D01*
X131458360Y-75190904D01*
X131501395Y-75265445D01*
X131508479Y-75277714D01*
X131508481Y-75277717D01*
X131627349Y-75396585D01*
X131627355Y-75396590D01*
X132669084Y-76438319D01*
X132702569Y-76499642D01*
X132697585Y-76569334D01*
X132655713Y-76625267D01*
X132590249Y-76649684D01*
X132581403Y-76650000D01*
X132433754Y-76650000D01*
X132223872Y-76683242D01*
X132223869Y-76683242D01*
X132021782Y-76748904D01*
X131832439Y-76845380D01*
X131778282Y-76884727D01*
X131778282Y-76884728D01*
X132410591Y-77517037D01*
X132347007Y-77534075D01*
X132232993Y-77599901D01*
X132139901Y-77692993D01*
X132074075Y-77807007D01*
X132057037Y-77870591D01*
X131386818Y-77200372D01*
X131353333Y-77139049D01*
X131350499Y-77112691D01*
X131350499Y-77102129D01*
X131350498Y-77102123D01*
X131350497Y-77102116D01*
X131344091Y-77042517D01*
X131342534Y-77038343D01*
X131293797Y-76907671D01*
X131293793Y-76907664D01*
X131207547Y-76792455D01*
X131207544Y-76792452D01*
X131092335Y-76706206D01*
X131092328Y-76706202D01*
X130957482Y-76655908D01*
X130957483Y-76655908D01*
X130897883Y-76649501D01*
X130897881Y-76649500D01*
X130897873Y-76649500D01*
X130897864Y-76649500D01*
X129102129Y-76649500D01*
X129102123Y-76649501D01*
X129042516Y-76655908D01*
X128907671Y-76706202D01*
X128907664Y-76706206D01*
X128792455Y-76792452D01*
X128792452Y-76792455D01*
X128706206Y-76907664D01*
X128706202Y-76907671D01*
X128655908Y-77042517D01*
X128651203Y-77086287D01*
X128649501Y-77102123D01*
X128649500Y-77102135D01*
X125471499Y-77102135D01*
X125471499Y-76969896D01*
X125471499Y-76405096D01*
X125491183Y-76338057D01*
X125507813Y-76317420D01*
X126108506Y-75716728D01*
X126108511Y-75716724D01*
X126118714Y-75706520D01*
X126118716Y-75706520D01*
X126230520Y-75594716D01*
X126306129Y-75463757D01*
X126309577Y-75457785D01*
X126350501Y-75305057D01*
X126350501Y-75146943D01*
X126350501Y-75139348D01*
X126350500Y-75139330D01*
X126350500Y-72644500D01*
X126370185Y-72577461D01*
X126422989Y-72531706D01*
X126474500Y-72520500D01*
X126644750Y-72520500D01*
X126644751Y-72520499D01*
X126660413Y-72517384D01*
X126703229Y-72508868D01*
X126703229Y-72508867D01*
X126703231Y-72508867D01*
X126769552Y-72464552D01*
X126813867Y-72398231D01*
X126813867Y-72398229D01*
X126813868Y-72398229D01*
X126825499Y-72339752D01*
X126825500Y-72339750D01*
X126825500Y-72270096D01*
X126845185Y-72203057D01*
X126861815Y-72182419D01*
X127358506Y-71685727D01*
X127358511Y-71685724D01*
X127368714Y-71675520D01*
X127368716Y-71675520D01*
X127480520Y-71563716D01*
X127541840Y-71457506D01*
X127559577Y-71426785D01*
X127600500Y-71274057D01*
X127600500Y-71115943D01*
X127600500Y-59968765D01*
X127620185Y-59901726D01*
X127621398Y-59899874D01*
X127666629Y-59832182D01*
X127709394Y-59768179D01*
X127769737Y-59622497D01*
X127800500Y-59467842D01*
X127800500Y-59310158D01*
X127800500Y-59310155D01*
X127800499Y-59310153D01*
X127780089Y-59207546D01*
X127769737Y-59155503D01*
X127743571Y-59092331D01*
X127709397Y-59009827D01*
X127709390Y-59009814D01*
X127621789Y-58878711D01*
X127621786Y-58878707D01*
X127510292Y-58767213D01*
X127510288Y-58767210D01*
X127379185Y-58679609D01*
X127379172Y-58679602D01*
X127233501Y-58619264D01*
X127233489Y-58619261D01*
X127078845Y-58588500D01*
X127078842Y-58588500D01*
X126921158Y-58588500D01*
X126921155Y-58588500D01*
X126766510Y-58619261D01*
X126766498Y-58619264D01*
X126620827Y-58679602D01*
X126620814Y-58679609D01*
X126489711Y-58767210D01*
X126489707Y-58767213D01*
X126378213Y-58878707D01*
X126378210Y-58878711D01*
X126327602Y-58954451D01*
X126273989Y-58999256D01*
X126204664Y-59007963D01*
X126141637Y-58977808D01*
X126104918Y-58918365D01*
X126100500Y-58885560D01*
X126100500Y-58579765D01*
X126120185Y-58512726D01*
X126121398Y-58510874D01*
X126209390Y-58379185D01*
X126209390Y-58379184D01*
X126209394Y-58379179D01*
X126269737Y-58233497D01*
X126300500Y-58078842D01*
X126300500Y-57921158D01*
X126300500Y-57921155D01*
X126300499Y-57921153D01*
X126269738Y-57766510D01*
X126269737Y-57766503D01*
X126235463Y-57683757D01*
X126209397Y-57620827D01*
X126209390Y-57620814D01*
X126121789Y-57489711D01*
X126121786Y-57489707D01*
X126010292Y-57378213D01*
X126010288Y-57378210D01*
X125879185Y-57290609D01*
X125879172Y-57290602D01*
X125733501Y-57230264D01*
X125733489Y-57230261D01*
X125578845Y-57199500D01*
X125578842Y-57199500D01*
X125421158Y-57199500D01*
X125421155Y-57199500D01*
X125415093Y-57200097D01*
X125414976Y-57198911D01*
X125351688Y-57193248D01*
X125296511Y-57150384D01*
X125273267Y-57084494D01*
X125275472Y-57053666D01*
X125300500Y-56927844D01*
X125300500Y-56770155D01*
X125300499Y-56770153D01*
X125277774Y-56655908D01*
X125269737Y-56615503D01*
X125269735Y-56615498D01*
X125209397Y-56469827D01*
X125209390Y-56469814D01*
X125121789Y-56338711D01*
X125121786Y-56338707D01*
X125010292Y-56227213D01*
X125010288Y-56227210D01*
X124879185Y-56139609D01*
X124879172Y-56139602D01*
X124733501Y-56079264D01*
X124733489Y-56079261D01*
X124578845Y-56048500D01*
X124578842Y-56048500D01*
X124421158Y-56048500D01*
X124421155Y-56048500D01*
X124266510Y-56079261D01*
X124266498Y-56079264D01*
X124120827Y-56139602D01*
X124120814Y-56139609D01*
X123989711Y-56227210D01*
X123989707Y-56227213D01*
X123878213Y-56338707D01*
X123878210Y-56338711D01*
X123790609Y-56469814D01*
X123790602Y-56469827D01*
X123730264Y-56615498D01*
X123730261Y-56615510D01*
X123699500Y-56770153D01*
X123699500Y-56927846D01*
X123730261Y-57082489D01*
X123730264Y-57082501D01*
X123790602Y-57228172D01*
X123790609Y-57228185D01*
X123878602Y-57359874D01*
X123899480Y-57426551D01*
X123899500Y-57428765D01*
X123899500Y-62613444D01*
X123879815Y-62680483D01*
X123827011Y-62726238D01*
X123757853Y-62736182D01*
X123739575Y-62731202D01*
X123739324Y-62732031D01*
X123733500Y-62730264D01*
X123733497Y-62730263D01*
X123733492Y-62730262D01*
X123733489Y-62730261D01*
X123578845Y-62699500D01*
X123578842Y-62699500D01*
X123421158Y-62699500D01*
X123421155Y-62699500D01*
X123266510Y-62730261D01*
X123266498Y-62730264D01*
X123120827Y-62790602D01*
X123120816Y-62790608D01*
X123075266Y-62821044D01*
X123008588Y-62841921D01*
X122941208Y-62823436D01*
X122903274Y-62786832D01*
X122871789Y-62739711D01*
X122871787Y-62739708D01*
X122760292Y-62628213D01*
X122760288Y-62628210D01*
X122629185Y-62540609D01*
X122629172Y-62540602D01*
X122483501Y-62480264D01*
X122483489Y-62480261D01*
X122328845Y-62449500D01*
X122328842Y-62449500D01*
X122171158Y-62449500D01*
X122171155Y-62449500D01*
X122016510Y-62480261D01*
X122016498Y-62480264D01*
X121870827Y-62540602D01*
X121870814Y-62540609D01*
X121739711Y-62628210D01*
X121739707Y-62628213D01*
X121628213Y-62739707D01*
X121628210Y-62739711D01*
X121540609Y-62870814D01*
X121540602Y-62870827D01*
X121480264Y-63016498D01*
X121480261Y-63016510D01*
X121449500Y-63171153D01*
X121449500Y-63328846D01*
X121480261Y-63483489D01*
X121480264Y-63483501D01*
X121540602Y-63629172D01*
X121540609Y-63629185D01*
X121628210Y-63760288D01*
X121628213Y-63760292D01*
X121739710Y-63871789D01*
X121844391Y-63941734D01*
X121889196Y-63995346D01*
X121899500Y-64044836D01*
X121899500Y-65395500D01*
X121879815Y-65462539D01*
X121827011Y-65508294D01*
X121775500Y-65519500D01*
X121605247Y-65519500D01*
X121546770Y-65531131D01*
X121546769Y-65531132D01*
X121480447Y-65575447D01*
X121436132Y-65641769D01*
X121436131Y-65641770D01*
X121424500Y-65700247D01*
X121424500Y-66789752D01*
X121436131Y-66848229D01*
X121436132Y-66848230D01*
X121480447Y-66914552D01*
X121521373Y-66941898D01*
X121566178Y-66995511D01*
X121574885Y-67064836D01*
X121544730Y-67127863D01*
X121521373Y-67148102D01*
X121480447Y-67175447D01*
X121436132Y-67241769D01*
X121436131Y-67241770D01*
X121424500Y-67300247D01*
X121424500Y-69364126D01*
X121404815Y-69431165D01*
X121352011Y-69476920D01*
X121282853Y-69486864D01*
X121219297Y-69457839D01*
X121212819Y-69451807D01*
X121203044Y-69442032D01*
X121203040Y-69442029D01*
X121058705Y-69353001D01*
X121058699Y-69352998D01*
X121058697Y-69352997D01*
X121058694Y-69352996D01*
X120897709Y-69299651D01*
X120798346Y-69289500D01*
X120201663Y-69289500D01*
X120201635Y-69289502D01*
X120166887Y-69293051D01*
X120164967Y-69292694D01*
X120163136Y-69293377D01*
X120130756Y-69286333D01*
X120098195Y-69280279D01*
X120096167Y-69278808D01*
X120094863Y-69278525D01*
X120066609Y-69257374D01*
X119925828Y-69116593D01*
X119892343Y-69055270D01*
X119890151Y-69016309D01*
X119900500Y-68915009D01*
X119900499Y-68164992D01*
X119889999Y-68062203D01*
X119834814Y-67895666D01*
X119742712Y-67746344D01*
X119618656Y-67622288D01*
X119469334Y-67530186D01*
X119302797Y-67475001D01*
X119302795Y-67475000D01*
X119200010Y-67464500D01*
X117799998Y-67464500D01*
X117799981Y-67464501D01*
X117697203Y-67475000D01*
X117697200Y-67475001D01*
X117530668Y-67530185D01*
X117530663Y-67530187D01*
X117381342Y-67622289D01*
X117257289Y-67746342D01*
X117165187Y-67895663D01*
X117165185Y-67895668D01*
X117156488Y-67921915D01*
X117110001Y-68062203D01*
X117110001Y-68062204D01*
X117110000Y-68062204D01*
X117099500Y-68164983D01*
X117099500Y-68915001D01*
X117099501Y-68915019D01*
X117110000Y-69017796D01*
X117110001Y-69017799D01*
X117165185Y-69184331D01*
X117165187Y-69184336D01*
X117168748Y-69190109D01*
X117257288Y-69333656D01*
X117381344Y-69457712D01*
X117530666Y-69549814D01*
X117697203Y-69604999D01*
X117799991Y-69615500D01*
X118674902Y-69615499D01*
X118741941Y-69635183D01*
X118762583Y-69651818D01*
X119327509Y-70216744D01*
X119360994Y-70278067D01*
X119356010Y-70347759D01*
X119314138Y-70403692D01*
X119248674Y-70428109D01*
X119227227Y-70427783D01*
X119199991Y-70425000D01*
X118750000Y-70425000D01*
X118750000Y-72574999D01*
X119199972Y-72574999D01*
X119199986Y-72574998D01*
X119302697Y-72564505D01*
X119469119Y-72509358D01*
X119469126Y-72509355D01*
X119534069Y-72469297D01*
X119601461Y-72450856D01*
X119668125Y-72471778D01*
X119686848Y-72487153D01*
X119797271Y-72597575D01*
X119947052Y-72689962D01*
X119993777Y-72741910D01*
X120004998Y-72810872D01*
X119977155Y-72874954D01*
X119919086Y-72913810D01*
X119881955Y-72919500D01*
X112724500Y-72919500D01*
X112715814Y-72916949D01*
X112706853Y-72918238D01*
X112682812Y-72907259D01*
X112657461Y-72899815D01*
X112651533Y-72892974D01*
X112643297Y-72889213D01*
X112629007Y-72866978D01*
X112611706Y-72847011D01*
X112609418Y-72836496D01*
X112605523Y-72830435D01*
X112600500Y-72795500D01*
X112600500Y-72623497D01*
X112620185Y-72556458D01*
X112672989Y-72510703D01*
X112685496Y-72505791D01*
X112691409Y-72503831D01*
X112839334Y-72454814D01*
X112988656Y-72362712D01*
X113112712Y-72238656D01*
X113204814Y-72089334D01*
X113259999Y-71922797D01*
X113270500Y-71820009D01*
X113270500Y-71819986D01*
X114730001Y-71819986D01*
X114740494Y-71922697D01*
X114795641Y-72089119D01*
X114795643Y-72089124D01*
X114887684Y-72238345D01*
X115011654Y-72362315D01*
X115160875Y-72454356D01*
X115160880Y-72454358D01*
X115327302Y-72509505D01*
X115327309Y-72509506D01*
X115430019Y-72519999D01*
X115879999Y-72519999D01*
X116380000Y-72519999D01*
X116829972Y-72519999D01*
X116829986Y-72519998D01*
X116932697Y-72509505D01*
X117099119Y-72454358D01*
X117099130Y-72454353D01*
X117213331Y-72383913D01*
X117280723Y-72365472D01*
X117347387Y-72386394D01*
X117366109Y-72401770D01*
X117381654Y-72417315D01*
X117530875Y-72509356D01*
X117530880Y-72509358D01*
X117697302Y-72564505D01*
X117697309Y-72564506D01*
X117800019Y-72574999D01*
X118249999Y-72574999D01*
X118250000Y-72574998D01*
X118250000Y-70425000D01*
X117800028Y-70425000D01*
X117800012Y-70425001D01*
X117697300Y-70435494D01*
X117692994Y-70436921D01*
X117623165Y-70439317D01*
X117563126Y-70403581D01*
X117531939Y-70341058D01*
X117529999Y-70319212D01*
X117529999Y-70220028D01*
X117529998Y-70220013D01*
X117519505Y-70117302D01*
X117464358Y-69950880D01*
X117464356Y-69950875D01*
X117372315Y-69801654D01*
X117248345Y-69677684D01*
X117099124Y-69585643D01*
X117099119Y-69585641D01*
X116932697Y-69530494D01*
X116932690Y-69530493D01*
X116829986Y-69520000D01*
X116380000Y-69520000D01*
X116380000Y-72519999D01*
X115879999Y-72519999D01*
X115880000Y-72519998D01*
X115880000Y-71270000D01*
X114730001Y-71270000D01*
X114730001Y-71819986D01*
X113270500Y-71819986D01*
X113270499Y-71016243D01*
X113270499Y-70220013D01*
X114730000Y-70220013D01*
X114730000Y-70770000D01*
X115880000Y-70770000D01*
X115880000Y-69520000D01*
X115430028Y-69520000D01*
X115430012Y-69520001D01*
X115327302Y-69530494D01*
X115160880Y-69585641D01*
X115160875Y-69585643D01*
X115011654Y-69677684D01*
X114887684Y-69801654D01*
X114795643Y-69950875D01*
X114795641Y-69950880D01*
X114740494Y-70117302D01*
X114740493Y-70117309D01*
X114730000Y-70220013D01*
X113270499Y-70220013D01*
X113270499Y-70219998D01*
X113270498Y-70219981D01*
X113259999Y-70117203D01*
X113259998Y-70117200D01*
X113204814Y-69950666D01*
X113112712Y-69801344D01*
X112988656Y-69677288D01*
X112888481Y-69615500D01*
X112839336Y-69585187D01*
X112839331Y-69585185D01*
X112837862Y-69584698D01*
X112672797Y-69530001D01*
X112672795Y-69530000D01*
X112570010Y-69519500D01*
X111169998Y-69519500D01*
X111169981Y-69519501D01*
X111067203Y-69530000D01*
X111067200Y-69530001D01*
X110900668Y-69585185D01*
X110900663Y-69585187D01*
X110751342Y-69677289D01*
X110627289Y-69801342D01*
X110535187Y-69950663D01*
X110535185Y-69950668D01*
X110507349Y-70034670D01*
X110480001Y-70117203D01*
X110480001Y-70117204D01*
X110480000Y-70117204D01*
X110469500Y-70219983D01*
X110014032Y-70219983D01*
X110001557Y-70181588D01*
X109905051Y-69992184D01*
X109905049Y-69992181D01*
X109905048Y-69992179D01*
X109780109Y-69820213D01*
X109629786Y-69669890D01*
X109457820Y-69544951D01*
X109457115Y-69544591D01*
X109449054Y-69540485D01*
X109398259Y-69492512D01*
X109381463Y-69424692D01*
X109403999Y-69358556D01*
X109449054Y-69319515D01*
X109457816Y-69315051D01*
X109488588Y-69292694D01*
X109629786Y-69190109D01*
X109629788Y-69190106D01*
X109629792Y-69190104D01*
X109780104Y-69039792D01*
X109780106Y-69039788D01*
X109780109Y-69039786D01*
X109905048Y-68867820D01*
X109905047Y-68867820D01*
X109905051Y-68867816D01*
X110001557Y-68678412D01*
X110067246Y-68476243D01*
X110100500Y-68266287D01*
X110100500Y-68053713D01*
X110067246Y-67843757D01*
X110001557Y-67641588D01*
X109905051Y-67452184D01*
X109905049Y-67452181D01*
X109905048Y-67452179D01*
X109780109Y-67280213D01*
X109629786Y-67129890D01*
X109457820Y-67004951D01*
X109449600Y-67000763D01*
X109449054Y-67000485D01*
X109398259Y-66952512D01*
X109381463Y-66884692D01*
X109403999Y-66818556D01*
X109449054Y-66779515D01*
X109457816Y-66775051D01*
X109479789Y-66759086D01*
X109629786Y-66650109D01*
X109629788Y-66650106D01*
X109629792Y-66650104D01*
X109780104Y-66499792D01*
X109780106Y-66499788D01*
X109780109Y-66499786D01*
X109905048Y-66327820D01*
X109905047Y-66327820D01*
X109905051Y-66327816D01*
X110001557Y-66138412D01*
X110067246Y-65936243D01*
X110100500Y-65726287D01*
X110100500Y-65513713D01*
X110067246Y-65303757D01*
X110001557Y-65101588D01*
X109905051Y-64912184D01*
X109905049Y-64912181D01*
X109905048Y-64912179D01*
X109780109Y-64740213D01*
X109629786Y-64589890D01*
X109457820Y-64464951D01*
X109457115Y-64464591D01*
X109449054Y-64460485D01*
X109398259Y-64412512D01*
X109381463Y-64344692D01*
X109403999Y-64278556D01*
X109449054Y-64239515D01*
X109457816Y-64235051D01*
X109511820Y-64195815D01*
X109629786Y-64110109D01*
X109629788Y-64110106D01*
X109629792Y-64110104D01*
X109780104Y-63959792D01*
X109780106Y-63959788D01*
X109780109Y-63959786D01*
X109905048Y-63787820D01*
X109905047Y-63787820D01*
X109905051Y-63787816D01*
X110001557Y-63598412D01*
X110067246Y-63396243D01*
X110100500Y-63186287D01*
X110100500Y-62973713D01*
X110067246Y-62763757D01*
X110001557Y-62561588D01*
X109905051Y-62372184D01*
X109905049Y-62372181D01*
X109905048Y-62372179D01*
X109780109Y-62200213D01*
X109629786Y-62049890D01*
X109457820Y-61924951D01*
X109457115Y-61924591D01*
X109449054Y-61920485D01*
X109398259Y-61872512D01*
X109381463Y-61804692D01*
X109403999Y-61738556D01*
X109449054Y-61699515D01*
X109457816Y-61695051D01*
X109479789Y-61679086D01*
X109629786Y-61570109D01*
X109629788Y-61570106D01*
X109629792Y-61570104D01*
X109780104Y-61419792D01*
X109780106Y-61419788D01*
X109780109Y-61419786D01*
X109905048Y-61247820D01*
X109905047Y-61247820D01*
X109905051Y-61247816D01*
X110001557Y-61058412D01*
X110067246Y-60856243D01*
X110100500Y-60646287D01*
X110100500Y-60433713D01*
X110067246Y-60223757D01*
X110001557Y-60021588D01*
X109905051Y-59832184D01*
X109905049Y-59832181D01*
X109905048Y-59832179D01*
X109780109Y-59660213D01*
X109666569Y-59546673D01*
X109633084Y-59485350D01*
X109638068Y-59415658D01*
X109679940Y-59359725D01*
X109710915Y-59342810D01*
X109842331Y-59293796D01*
X109957546Y-59207546D01*
X110043796Y-59092331D01*
X110094091Y-58957483D01*
X110100500Y-58897873D01*
X110100499Y-57102128D01*
X110094091Y-57042517D01*
X110092810Y-57039083D01*
X110043797Y-56907671D01*
X110043793Y-56907664D01*
X109957547Y-56792455D01*
X109957544Y-56792452D01*
X109842335Y-56706206D01*
X109842328Y-56706202D01*
X109707482Y-56655908D01*
X109707483Y-56655908D01*
X109647883Y-56649501D01*
X109647881Y-56649500D01*
X109647873Y-56649500D01*
X109647864Y-56649500D01*
X107852129Y-56649500D01*
X107852123Y-56649501D01*
X107792516Y-56655908D01*
X107657671Y-56706202D01*
X107657664Y-56706206D01*
X107542455Y-56792452D01*
X107542452Y-56792455D01*
X107456206Y-56907664D01*
X107456203Y-56907669D01*
X107407189Y-57039083D01*
X107365317Y-57095016D01*
X107299853Y-57119433D01*
X107231580Y-57104581D01*
X107203326Y-57083430D01*
X107089786Y-56969890D01*
X106917820Y-56844951D01*
X106728414Y-56748444D01*
X106728413Y-56748443D01*
X106728412Y-56748443D01*
X106526243Y-56682754D01*
X106526241Y-56682753D01*
X106526240Y-56682753D01*
X106364957Y-56657208D01*
X106316287Y-56649500D01*
X106103713Y-56649500D01*
X106055042Y-56657208D01*
X105893760Y-56682753D01*
X105691585Y-56748444D01*
X105502179Y-56844951D01*
X105330213Y-56969890D01*
X105179890Y-57120213D01*
X105054951Y-57292179D01*
X104958444Y-57481585D01*
X104892753Y-57683760D01*
X104879649Y-57766498D01*
X104859500Y-57893713D01*
X100500500Y-57893713D01*
X100500500Y-54194681D01*
X100520185Y-54127642D01*
X100572989Y-54081887D01*
X100642147Y-54071943D01*
X100705703Y-54100968D01*
X100712181Y-54107000D01*
X100897915Y-54292734D01*
X101108711Y-54460838D01*
X101337003Y-54604284D01*
X101579921Y-54721267D01*
X101771049Y-54788145D01*
X101834397Y-54810312D01*
X101834405Y-54810315D01*
X101834408Y-54810315D01*
X101834409Y-54810316D01*
X102097268Y-54870312D01*
X102365187Y-54900499D01*
X102365188Y-54900500D01*
X102365191Y-54900500D01*
X102634812Y-54900500D01*
X102634812Y-54900499D01*
X102902732Y-54870312D01*
X103165591Y-54810316D01*
X103420079Y-54721267D01*
X103662997Y-54604284D01*
X103891289Y-54460838D01*
X104102085Y-54292734D01*
X104292734Y-54102085D01*
X104460838Y-53891289D01*
X104604284Y-53662997D01*
X104721267Y-53420079D01*
X104810316Y-53165591D01*
X104870312Y-52902732D01*
X104900500Y-52634809D01*
X104900500Y-52365191D01*
X104870312Y-52097268D01*
X104810316Y-51834409D01*
X104721267Y-51579921D01*
X104604284Y-51337003D01*
X104460838Y-51108711D01*
X104292734Y-50897915D01*
X104107000Y-50712181D01*
X104073515Y-50650858D01*
X104078499Y-50581166D01*
X104120371Y-50525233D01*
X104185835Y-50500816D01*
X104194681Y-50500500D01*
X143805319Y-50500500D01*
X143872358Y-50520185D01*
G37*
%TD.AperFunction*%
%TD*%
M02*
