%TF.GenerationSoftware,KiCad,Pcbnew,9.0.6*%
%TF.CreationDate,2025-12-04T12:39:59-08:00*%
%TF.ProjectId,driver3,64726976-6572-4332-9e6b-696361645f70,rev?*%
%TF.SameCoordinates,Original*%
%TF.FileFunction,Soldermask,Bot*%
%TF.FilePolarity,Negative*%
%FSLAX46Y46*%
G04 Gerber Fmt 4.6, Leading zero omitted, Abs format (unit mm)*
G04 Created by KiCad (PCBNEW 9.0.6) date 2025-12-04 12:39:59*
%MOMM*%
%LPD*%
G01*
G04 APERTURE LIST*
G04 Aperture macros list*
%AMRoundRect*
0 Rectangle with rounded corners*
0 $1 Rounding radius*
0 $2 $3 $4 $5 $6 $7 $8 $9 X,Y pos of 4 corners*
0 Add a 4 corners polygon primitive as box body*
4,1,4,$2,$3,$4,$5,$6,$7,$8,$9,$2,$3,0*
0 Add four circle primitives for the rounded corners*
1,1,$1+$1,$2,$3*
1,1,$1+$1,$4,$5*
1,1,$1+$1,$6,$7*
1,1,$1+$1,$8,$9*
0 Add four rect primitives between the rounded corners*
20,1,$1+$1,$2,$3,$4,$5,0*
20,1,$1+$1,$4,$5,$6,$7,0*
20,1,$1+$1,$6,$7,$8,$9,0*
20,1,$1+$1,$8,$9,$2,$3,0*%
G04 Aperture macros list end*
%ADD10C,3.800000*%
%ADD11RoundRect,0.250000X0.550000X-0.550000X0.550000X0.550000X-0.550000X0.550000X-0.550000X-0.550000X0*%
%ADD12C,1.600000*%
%ADD13R,1.700000X1.700000*%
%ADD14C,1.700000*%
%ADD15RoundRect,0.250000X0.600000X0.725000X-0.600000X0.725000X-0.600000X-0.725000X0.600000X-0.725000X0*%
%ADD16O,1.700000X1.950000*%
G04 APERTURE END LIST*
D10*
%TO.C,H4*%
X142600000Y-87600000D03*
%TD*%
D11*
%TO.C,SW2*%
X128500000Y-75120000D03*
D12*
X131040000Y-75120000D03*
X131040000Y-67500000D03*
X128500000Y-67500000D03*
%TD*%
D10*
%TO.C,H2*%
X102500000Y-52500000D03*
%TD*%
D13*
%TO.C,J2*%
X106000000Y-57000000D03*
D14*
X103460000Y-57000000D03*
X106000000Y-59540000D03*
X103460000Y-59540000D03*
X106000000Y-62080000D03*
X103460000Y-62080000D03*
X106000000Y-64620000D03*
X103460000Y-64620000D03*
X106000000Y-67160000D03*
X103460000Y-67160000D03*
X106000000Y-69700000D03*
X103460000Y-69700000D03*
X106000000Y-72240000D03*
X103460000Y-72240000D03*
X106000000Y-74780000D03*
X103460000Y-74780000D03*
%TD*%
D15*
%TO.C,J3*%
X127800000Y-82725000D03*
D16*
X125300000Y-82725000D03*
X122800000Y-82725000D03*
X120300000Y-82725000D03*
X117800000Y-82725000D03*
%TD*%
D13*
%TO.C,J1*%
X136960000Y-56970000D03*
D14*
X139500000Y-56970000D03*
X136960000Y-59510000D03*
X139500000Y-59510000D03*
X136960000Y-62050000D03*
X139500000Y-62050000D03*
X136960000Y-64590000D03*
X139500000Y-64590000D03*
X136960000Y-67130000D03*
X139500000Y-67130000D03*
X136960000Y-69670000D03*
X139500000Y-69670000D03*
X136960000Y-72210000D03*
X139500000Y-72210000D03*
X136960000Y-74750000D03*
X139500000Y-74750000D03*
%TD*%
D10*
%TO.C,H1*%
X142500000Y-52500000D03*
%TD*%
D13*
%TO.C,J4*%
X112200000Y-61080000D03*
D14*
X112200000Y-58540000D03*
X112200000Y-56000000D03*
%TD*%
D10*
%TO.C,H3*%
X102400000Y-87600000D03*
%TD*%
D11*
%TO.C,SW1*%
X114121192Y-75120000D03*
D12*
X116661192Y-75120000D03*
X116661192Y-67500000D03*
X114121192Y-67500000D03*
%TD*%
M02*
