M48
; DRILL file {KiCad 9.0.2} date 2025-10-06T17:20:07-0700
; FORMAT={-:-/ absolute / inch / decimal}
; #@! TF.CreationDate,2025-10-06T17:20:07-07:00
; #@! TF.GenerationSoftware,Kicad,Pcbnew,9.0.2
; #@! TF.FileFunction,Plated,1,2,PTH
FMAT,2
INCH
; #@! TA.AperFunction,Plated,PTH,ViaDrill
T1C0.0118
; #@! TA.AperFunction,Plated,PTH,ComponentDrill
T2C0.0315
; #@! TA.AperFunction,Plated,PTH,ComponentDrill
T3C0.0374
; #@! TA.AperFunction,Plated,PTH,ComponentDrill
T4C0.0394
; #@! TA.AperFunction,Plated,PTH,ComponentDrill
T5C0.0866
%
G90
G05
T1
X1.4764Y-2.0276
X1.5955Y-1.314
X1.5955Y-1.373
X1.5955Y-1.4321
X1.6742Y-1.314
X1.6742Y-1.373
X1.6742Y-1.4321
T2
X1.5945Y-1.0433
X1.6732Y-1.0433
T3
X0.9646Y-1.1319
X0.9646Y-1.2303
X0.9646Y-1.3287
X0.9646Y-1.4272
X0.9646Y-1.5256
X0.9646Y-1.624
X0.9646Y-1.7224
X0.9646Y-1.8209
X0.9646Y-1.9193
X0.9646Y-2.0177
X1.2795Y-1.1319
X1.2795Y-1.2303
X1.2795Y-1.3287
X1.2795Y-1.4272
X1.2795Y-1.5256
X1.2795Y-1.624
X1.2795Y-1.7224
X1.2795Y-1.8209
X1.2795Y-1.9193
X1.2795Y-2.0177
X1.9094Y-1.1417
X1.9094Y-1.2402
X1.9094Y-1.3386
X1.9094Y-1.437
X1.9094Y-1.5354
T4
X1.9094Y-1.8701
X1.9094Y-1.9701
X1.9094Y-2.0701
T5
X0.8858Y-0.8858
X0.8858Y-2.2638
X2.2638Y-0.8858
X2.2638Y-2.2638
M30
