%TF.GenerationSoftware,KiCad,Pcbnew,9.0.2*%
%TF.CreationDate,2025-10-06T17:20:07-07:00*%
%TF.ProjectId,driver2,64726976-6572-4322-9e6b-696361645f70,rev?*%
%TF.SameCoordinates,Original*%
%TF.FileFunction,Legend,Top*%
%TF.FilePolarity,Positive*%
%FSLAX46Y46*%
G04 Gerber Fmt 4.6, Leading zero omitted, Abs format (unit mm)*
G04 Created by KiCad (PCBNEW 9.0.2) date 2025-10-06 17:20:07*
%MOMM*%
%LPD*%
G01*
G04 APERTURE LIST*
G04 Aperture macros list*
%AMRoundRect*
0 Rectangle with rounded corners*
0 $1 Rounding radius*
0 $2 $3 $4 $5 $6 $7 $8 $9 X,Y pos of 4 corners*
0 Add a 4 corners polygon primitive as box body*
4,1,4,$2,$3,$4,$5,$6,$7,$8,$9,$2,$3,0*
0 Add four circle primitives for the rounded corners*
1,1,$1+$1,$2,$3*
1,1,$1+$1,$4,$5*
1,1,$1+$1,$6,$7*
1,1,$1+$1,$8,$9*
0 Add four rect primitives between the rounded corners*
20,1,$1+$1,$2,$3,$4,$5,0*
20,1,$1+$1,$4,$5,$6,$7,0*
20,1,$1+$1,$6,$7,$8,$9,0*
20,1,$1+$1,$8,$9,$2,$3,0*%
G04 Aperture macros list end*
%ADD10C,0.100000*%
%ADD11C,0.150000*%
%ADD12C,0.120000*%
%ADD13C,0.152400*%
%ADD14C,0.000000*%
%ADD15RoundRect,0.250000X0.725000X-0.600000X0.725000X0.600000X-0.725000X0.600000X-0.725000X-0.600000X0*%
%ADD16O,1.950000X1.700000*%
%ADD17R,1.700000X1.700000*%
%ADD18C,1.700000*%
%ADD19C,2.600000*%
%ADD20C,4.400000*%
%ADD21RoundRect,0.239000X-0.239000X-0.274000X0.239000X-0.274000X0.239000X0.274000X-0.239000X0.274000X0*%
%ADD22RoundRect,0.159000X0.159000X0.189000X-0.159000X0.189000X-0.159000X-0.189000X0.159000X-0.189000X0*%
%ADD23RoundRect,0.250000X0.550000X0.550000X-0.550000X0.550000X-0.550000X-0.550000X0.550000X-0.550000X0*%
%ADD24C,1.600000*%
%ADD25R,1.050000X0.450000*%
%ADD26R,3.400000X5.000000*%
%ADD27RoundRect,0.219000X0.219000X0.294000X-0.219000X0.294000X-0.219000X-0.294000X0.219000X-0.294000X0*%
%ADD28R,1.461999X0.354800*%
G04 APERTURE END LIST*
D10*
G36*
X54431186Y-53244434D02*
G01*
X54425996Y-53270385D01*
X54410376Y-53327751D01*
X54399891Y-53401335D01*
X54396015Y-53494478D01*
X54402670Y-53599991D01*
X54423370Y-53735607D01*
X54716461Y-53737011D01*
X54688541Y-53612607D01*
X54681290Y-53538930D01*
X54684166Y-53432877D01*
X54693014Y-53321004D01*
X54700410Y-53291823D01*
X54714004Y-53272687D01*
X54733982Y-53261047D01*
X54762684Y-53256769D01*
X54791027Y-53261836D01*
X54813548Y-53276613D01*
X54828609Y-53298669D01*
X54833698Y-53325767D01*
X54827836Y-53432379D01*
X54821974Y-53538930D01*
X54829052Y-53597994D01*
X54861053Y-53739759D01*
X55334091Y-53745865D01*
X55361560Y-53750732D01*
X55383977Y-53765038D01*
X55399112Y-53786548D01*
X55404249Y-53813520D01*
X55399137Y-53840561D01*
X55384038Y-53862369D01*
X55361665Y-53876915D01*
X55334335Y-53881847D01*
X54929075Y-53876718D01*
X54523815Y-53871589D01*
X54433018Y-53872627D01*
X54342220Y-53873604D01*
X54314203Y-53868819D01*
X54291540Y-53854858D01*
X54276210Y-53833472D01*
X54270963Y-53805949D01*
X54274063Y-53784501D01*
X54283236Y-53765648D01*
X54261926Y-53613363D01*
X54255331Y-53494478D01*
X54260532Y-53413541D01*
X54277740Y-53314837D01*
X54299176Y-53242232D01*
X54320069Y-53202112D01*
X54339770Y-53183056D01*
X54359195Y-53177512D01*
X54384797Y-53181938D01*
X54407433Y-53195280D01*
X54425327Y-53217626D01*
X54431186Y-53244434D01*
G37*
G36*
X54794497Y-52882527D02*
G01*
X55134300Y-52892786D01*
X55292875Y-52898281D01*
X55324570Y-52905751D01*
X55344884Y-52919148D01*
X55356919Y-52938300D01*
X55361263Y-52965204D01*
X55356584Y-52995383D01*
X55344064Y-53015169D01*
X55323481Y-53027465D01*
X55291531Y-53032126D01*
X55043014Y-53024616D01*
X54794497Y-53017105D01*
X54547384Y-53013686D01*
X54300272Y-53010266D01*
X54269054Y-53005646D01*
X54248859Y-52993417D01*
X54236513Y-52973638D01*
X54231884Y-52943344D01*
X54236536Y-52912653D01*
X54248920Y-52892662D01*
X54269119Y-52880337D01*
X54300272Y-52875689D01*
X54547384Y-52879108D01*
X54794497Y-52882527D01*
G37*
G36*
X55335199Y-52080871D02*
G01*
X55355218Y-52095150D01*
X55368580Y-52115894D01*
X55372986Y-52139541D01*
X55367839Y-52154132D01*
X55343616Y-52186680D01*
X55316260Y-52214869D01*
X55294829Y-52232475D01*
X55326552Y-52296662D01*
X55347402Y-52347941D01*
X55361252Y-52396191D01*
X55365170Y-52431228D01*
X55358635Y-52511008D01*
X55340644Y-52574359D01*
X55312703Y-52624606D01*
X55274984Y-52664174D01*
X55231517Y-52692117D01*
X55175723Y-52713696D01*
X55104775Y-52727944D01*
X55015293Y-52733173D01*
X54934733Y-52725905D01*
X54861692Y-52704668D01*
X54794619Y-52669523D01*
X54732398Y-52619478D01*
X54680227Y-52558784D01*
X54643971Y-52494073D01*
X54622250Y-52424282D01*
X54614856Y-52347880D01*
X54615896Y-52339026D01*
X54736001Y-52339026D01*
X54741325Y-52389875D01*
X54757054Y-52436617D01*
X54783560Y-52480346D01*
X54822158Y-52521781D01*
X54867494Y-52555772D01*
X54915205Y-52579524D01*
X54965963Y-52593764D01*
X55020666Y-52598595D01*
X55094467Y-52593361D01*
X55148828Y-52579497D01*
X55188217Y-52558967D01*
X55218787Y-52528758D01*
X55237384Y-52490049D01*
X55244026Y-52440081D01*
X55237702Y-52377764D01*
X55220212Y-52328768D01*
X55203186Y-52302433D01*
X55168433Y-52259769D01*
X54999196Y-52277061D01*
X54898056Y-52281629D01*
X54834431Y-52277904D01*
X54761219Y-52266608D01*
X54742168Y-52310022D01*
X54736001Y-52339026D01*
X54615896Y-52339026D01*
X54621956Y-52287435D01*
X54645570Y-52214706D01*
X54669011Y-52168772D01*
X54691952Y-52141053D01*
X54714540Y-52126436D01*
X54737772Y-52121833D01*
X54755041Y-52125176D01*
X54770561Y-52135450D01*
X54855985Y-52146074D01*
X55008271Y-52150471D01*
X55088530Y-52147532D01*
X55142116Y-52138869D01*
X55179214Y-52127508D01*
X55262344Y-52095821D01*
X55298553Y-52080129D01*
X55310155Y-52076038D01*
X55335199Y-52080871D01*
G37*
G36*
X55083141Y-51368697D02*
G01*
X55146964Y-51384029D01*
X55203068Y-51408668D01*
X55252636Y-51442594D01*
X55296723Y-51488080D01*
X55327812Y-51539657D01*
X55346828Y-51598552D01*
X55353447Y-51666625D01*
X55348285Y-51736262D01*
X55331587Y-51816957D01*
X55659911Y-51818300D01*
X55687759Y-51823145D01*
X55709370Y-51837107D01*
X55723683Y-51858230D01*
X55728604Y-51885223D01*
X55723696Y-51912284D01*
X55709431Y-51933461D01*
X55687943Y-51947377D01*
X55660216Y-51952206D01*
X55386664Y-51950130D01*
X55113784Y-51950130D01*
X54840903Y-51960389D01*
X54702112Y-51970647D01*
X54656039Y-51965921D01*
X54620047Y-51952878D01*
X54596911Y-51936442D01*
X54584026Y-51917000D01*
X54579685Y-51893466D01*
X54584508Y-51868903D01*
X54598920Y-51848709D01*
X54620116Y-51835157D01*
X54645753Y-51830573D01*
X54668285Y-51832650D01*
X54707241Y-51837412D01*
X54671195Y-51778219D01*
X54646791Y-51724023D01*
X54631439Y-51669552D01*
X54626586Y-51619548D01*
X54763356Y-51619548D01*
X54770478Y-51679901D01*
X54791261Y-51732937D01*
X54816353Y-51770323D01*
X54863435Y-51824467D01*
X55019802Y-51817838D01*
X55188094Y-51815553D01*
X55209644Y-51740489D01*
X55216671Y-51666625D01*
X55212445Y-51625211D01*
X55200439Y-51590517D01*
X55180956Y-51561138D01*
X55153351Y-51536200D01*
X55114776Y-51515280D01*
X55067797Y-51502002D01*
X55010408Y-51497243D01*
X54927524Y-51501380D01*
X54867408Y-51512176D01*
X54824966Y-51527651D01*
X54789846Y-51552274D01*
X54770087Y-51582295D01*
X54763356Y-51619548D01*
X54626586Y-51619548D01*
X54626580Y-51619487D01*
X54631790Y-51565233D01*
X54646668Y-51518930D01*
X54670836Y-51478981D01*
X54704929Y-51444329D01*
X54750533Y-51414567D01*
X54817965Y-51387575D01*
X54903161Y-51369832D01*
X55010102Y-51363337D01*
X55083141Y-51368697D01*
G37*
G36*
X55083141Y-50620337D02*
G01*
X55146964Y-50635668D01*
X55203068Y-50660308D01*
X55252636Y-50694234D01*
X55296723Y-50739720D01*
X55327812Y-50791297D01*
X55346828Y-50850192D01*
X55353447Y-50918265D01*
X55348285Y-50987902D01*
X55331587Y-51068597D01*
X55659911Y-51069940D01*
X55687759Y-51074784D01*
X55709370Y-51088747D01*
X55723683Y-51109870D01*
X55728604Y-51136863D01*
X55723696Y-51163923D01*
X55709431Y-51185101D01*
X55687943Y-51199017D01*
X55660216Y-51203846D01*
X55386664Y-51201770D01*
X55113784Y-51201770D01*
X54840903Y-51212028D01*
X54702112Y-51222287D01*
X54656039Y-51217561D01*
X54620047Y-51204518D01*
X54596911Y-51188082D01*
X54584026Y-51168640D01*
X54579685Y-51145106D01*
X54584508Y-51120543D01*
X54598920Y-51100348D01*
X54620116Y-51086797D01*
X54645753Y-51082213D01*
X54668285Y-51084289D01*
X54707241Y-51089052D01*
X54671195Y-51029859D01*
X54646791Y-50975662D01*
X54631439Y-50921192D01*
X54626586Y-50871188D01*
X54763356Y-50871188D01*
X54770478Y-50931541D01*
X54791261Y-50984577D01*
X54816353Y-51021963D01*
X54863435Y-51076107D01*
X55019802Y-51069478D01*
X55188094Y-51067192D01*
X55209644Y-50992129D01*
X55216671Y-50918265D01*
X55212445Y-50876851D01*
X55200439Y-50842157D01*
X55180956Y-50812777D01*
X55153351Y-50787840D01*
X55114776Y-50766920D01*
X55067797Y-50753642D01*
X55010408Y-50748883D01*
X54927524Y-50753020D01*
X54867408Y-50763816D01*
X54824966Y-50779291D01*
X54789846Y-50803914D01*
X54770087Y-50833935D01*
X54763356Y-50871188D01*
X54626586Y-50871188D01*
X54626580Y-50871127D01*
X54631790Y-50816873D01*
X54646668Y-50770570D01*
X54670836Y-50730620D01*
X54704929Y-50695969D01*
X54750533Y-50666207D01*
X54817965Y-50639215D01*
X54903161Y-50621472D01*
X55010102Y-50614977D01*
X55083141Y-50620337D01*
G37*
G36*
X54720980Y-49864541D02*
G01*
X55231753Y-50100907D01*
X55411234Y-50181620D01*
X55543834Y-50234813D01*
X55676336Y-50279876D01*
X55704191Y-50295431D01*
X55719498Y-50315486D01*
X55724696Y-50341364D01*
X55719996Y-50368184D01*
X55706011Y-50390945D01*
X55685073Y-50406566D01*
X55659544Y-50411767D01*
X55610809Y-50402897D01*
X55495277Y-50362487D01*
X55266802Y-50264183D01*
X54794192Y-50508731D01*
X54744122Y-50539506D01*
X54713238Y-50553979D01*
X54691304Y-50557946D01*
X54665947Y-50552695D01*
X54643372Y-50536453D01*
X54627694Y-50513272D01*
X54622672Y-50488276D01*
X54628386Y-50460042D01*
X54644837Y-50439733D01*
X54756458Y-50367312D01*
X54907570Y-50284592D01*
X55106334Y-50190422D01*
X54868258Y-50089305D01*
X54751209Y-50033884D01*
X54657782Y-49984098D01*
X54635193Y-49967061D01*
X54622833Y-49948226D01*
X54618764Y-49926700D01*
X54623708Y-49900509D01*
X54638792Y-49877241D01*
X54660911Y-49860986D01*
X54686420Y-49855687D01*
X54701905Y-49857710D01*
X54720980Y-49864541D01*
G37*
G36*
X55004775Y-48893460D02*
G01*
X55079100Y-48911662D01*
X55152130Y-48942402D01*
X55219474Y-48983932D01*
X55276461Y-49033744D01*
X55324077Y-49092306D01*
X55353541Y-49145910D01*
X55376207Y-49212595D01*
X55391043Y-49295033D01*
X55396434Y-49396327D01*
X55392796Y-49447675D01*
X55380741Y-49510389D01*
X55358027Y-49581731D01*
X55332991Y-49626526D01*
X55332991Y-49633365D01*
X55327838Y-49660449D01*
X55312536Y-49682580D01*
X55289911Y-49697382D01*
X55262711Y-49702363D01*
X55048082Y-49695891D01*
X54833454Y-49689357D01*
X54594951Y-49692472D01*
X54356448Y-49695525D01*
X54329381Y-49689106D01*
X54297768Y-49666826D01*
X54273970Y-49636665D01*
X54267055Y-49609429D01*
X54274031Y-49584967D01*
X54286567Y-49557527D01*
X54446817Y-49557527D01*
X54643066Y-49554108D01*
X54838583Y-49552032D01*
X55210626Y-49562962D01*
X55219480Y-49548613D01*
X55241137Y-49506790D01*
X55254797Y-49456865D01*
X55259658Y-49396999D01*
X55255881Y-49316041D01*
X55245747Y-49253464D01*
X55230759Y-49205845D01*
X55211969Y-49170219D01*
X55178837Y-49129337D01*
X55138770Y-49094240D01*
X55091008Y-49064645D01*
X55039231Y-49042693D01*
X54986642Y-49029712D01*
X54932616Y-49025383D01*
X54872282Y-49030817D01*
X54815157Y-49046980D01*
X54760296Y-49074209D01*
X54706983Y-49113541D01*
X54654772Y-49166657D01*
X54603499Y-49235799D01*
X54552382Y-49329011D01*
X54446817Y-49557527D01*
X54286567Y-49557527D01*
X54312789Y-49500130D01*
X54369392Y-49378558D01*
X54407498Y-49283925D01*
X54454044Y-49197753D01*
X54509054Y-49119281D01*
X54572786Y-49047915D01*
X54641819Y-48987792D01*
X54711229Y-48943017D01*
X54781571Y-48911950D01*
X54853609Y-48893542D01*
X54928281Y-48887386D01*
X55004775Y-48893460D01*
G37*
G36*
X54826371Y-48190744D02*
G01*
X54867272Y-48197929D01*
X54892479Y-48211874D01*
X54906806Y-48231647D01*
X54911856Y-48259071D01*
X54907536Y-48285067D01*
X54895775Y-48302465D01*
X54875953Y-48313544D01*
X54844567Y-48317812D01*
X54797001Y-48319827D01*
X54739909Y-48321903D01*
X54753304Y-48392449D01*
X54773827Y-48449258D01*
X54800603Y-48494705D01*
X54833488Y-48531439D01*
X54877363Y-48565174D01*
X54934265Y-48595821D01*
X55308018Y-48594478D01*
X55339436Y-48599141D01*
X55359776Y-48611491D01*
X55372223Y-48631485D01*
X55376894Y-48662133D01*
X55372466Y-48688700D01*
X55360399Y-48706497D01*
X55340039Y-48717843D01*
X55307773Y-48722217D01*
X54827287Y-48722217D01*
X54759570Y-48720507D01*
X54691793Y-48718797D01*
X54659527Y-48714424D01*
X54639167Y-48703078D01*
X54627101Y-48685281D01*
X54622672Y-48658714D01*
X54628732Y-48631542D01*
X54646703Y-48611452D01*
X54680513Y-48597159D01*
X54738504Y-48591058D01*
X54690974Y-48535274D01*
X54655415Y-48478807D01*
X54630633Y-48421211D01*
X54615892Y-48361873D01*
X54610949Y-48300043D01*
X54615848Y-48265413D01*
X54629656Y-48238512D01*
X54652653Y-48217428D01*
X54681884Y-48203340D01*
X54722680Y-48193724D01*
X54778499Y-48190073D01*
X54826371Y-48190744D01*
G37*
G36*
X54466357Y-47919574D02*
G01*
X54460528Y-47950071D01*
X54442909Y-47976299D01*
X54416951Y-47994221D01*
X54386245Y-48000174D01*
X54355550Y-47994219D01*
X54329642Y-47976299D01*
X54311976Y-47950066D01*
X54306133Y-47919574D01*
X54311988Y-47889144D01*
X54329642Y-47863215D01*
X54355526Y-47845534D01*
X54386245Y-47839645D01*
X54416975Y-47845532D01*
X54442909Y-47863215D01*
X54460516Y-47889139D01*
X54466357Y-47919574D01*
G37*
G36*
X55020116Y-47888860D02*
G01*
X55142848Y-47886479D01*
X55265519Y-47884036D01*
X55293282Y-47888795D01*
X55314795Y-47902477D01*
X55328975Y-47923430D01*
X55333907Y-47950959D01*
X55329013Y-47978025D01*
X55314795Y-47999197D01*
X55293257Y-48013115D01*
X55265519Y-48017943D01*
X55142848Y-48020324D01*
X55020116Y-48022705D01*
X54859832Y-48015928D01*
X54699548Y-48009089D01*
X54671240Y-48004232D01*
X54649661Y-47990343D01*
X54635396Y-47969166D01*
X54630488Y-47942105D01*
X54635395Y-47915108D01*
X54649661Y-47893989D01*
X54671245Y-47880054D01*
X54699548Y-47875183D01*
X54859832Y-47882021D01*
X55020116Y-47888860D01*
G37*
G36*
X55294340Y-47343344D02*
G01*
X55323161Y-47348472D01*
X55341795Y-47360160D01*
X55353100Y-47378352D01*
X55357294Y-47405504D01*
X55351145Y-47434907D01*
X55332684Y-47458601D01*
X55298492Y-47477922D01*
X55020483Y-47582458D01*
X54706142Y-47704030D01*
X54674696Y-47710868D01*
X54648830Y-47705631D01*
X54626885Y-47689741D01*
X54611957Y-47666733D01*
X54607041Y-47640526D01*
X54611615Y-47615901D01*
X54624931Y-47596761D01*
X54648623Y-47581786D01*
X55127278Y-47408251D01*
X55004682Y-47355103D01*
X54809518Y-47279169D01*
X54654790Y-47221100D01*
X54629393Y-47204016D01*
X54615540Y-47184308D01*
X54610949Y-47160956D01*
X54615862Y-47134802D01*
X54630793Y-47111802D01*
X54652707Y-47095832D01*
X54678054Y-47090614D01*
X54729175Y-47105636D01*
X54971146Y-47203332D01*
X55294340Y-47343344D01*
G37*
G36*
X55216663Y-46339687D02*
G01*
X55248913Y-46359279D01*
X55281440Y-46395905D01*
X55314551Y-46455765D01*
X55341027Y-46526560D01*
X55356300Y-46594167D01*
X55361263Y-46659342D01*
X55355925Y-46736406D01*
X55340789Y-46802663D01*
X55316722Y-46859839D01*
X55283960Y-46909324D01*
X55237588Y-46954541D01*
X55183383Y-46986814D01*
X55119783Y-47006817D01*
X55044480Y-47013860D01*
X54955798Y-47008030D01*
X54877505Y-46991321D01*
X54808061Y-46964499D01*
X54746198Y-46927765D01*
X54697865Y-46886743D01*
X54661537Y-46841915D01*
X54635862Y-46792796D01*
X54620239Y-46738482D01*
X54614856Y-46677721D01*
X54736001Y-46677721D01*
X54743251Y-46730327D01*
X54764507Y-46775923D01*
X54800847Y-46816390D01*
X54846967Y-46847810D01*
X54910547Y-46875715D01*
X54995997Y-46899066D01*
X54895858Y-46689323D01*
X54834833Y-46575824D01*
X54790894Y-46513101D01*
X54761444Y-46555403D01*
X54742767Y-46609186D01*
X54736001Y-46677721D01*
X54614856Y-46677721D01*
X54619614Y-46602785D01*
X54632741Y-46541898D01*
X54652958Y-46492585D01*
X54680345Y-46453229D01*
X54712812Y-46426345D01*
X54751194Y-46410136D01*
X54797306Y-46404474D01*
X54828853Y-46408800D01*
X54859486Y-46422048D01*
X54890095Y-46445536D01*
X54921198Y-46481655D01*
X54947912Y-46525967D01*
X54998012Y-46626491D01*
X55122210Y-46887465D01*
X55157307Y-46859489D01*
X55185557Y-46827842D01*
X55207573Y-46792210D01*
X55223142Y-46753188D01*
X55232830Y-46709176D01*
X55236210Y-46659281D01*
X55232154Y-46610501D01*
X55218442Y-46548639D01*
X55199598Y-46496305D01*
X55179760Y-46463567D01*
X55159396Y-46444836D01*
X55137535Y-46427331D01*
X55126318Y-46410968D01*
X55122882Y-46394949D01*
X55127329Y-46372551D01*
X55141078Y-46352267D01*
X55160970Y-46338060D01*
X55183332Y-46333461D01*
X55216663Y-46339687D01*
G37*
G36*
X54826371Y-45679928D02*
G01*
X54867272Y-45687113D01*
X54892479Y-45701058D01*
X54906806Y-45720830D01*
X54911856Y-45748255D01*
X54907536Y-45774250D01*
X54895775Y-45791648D01*
X54875953Y-45802728D01*
X54844567Y-45806995D01*
X54797001Y-45809010D01*
X54739909Y-45811086D01*
X54753304Y-45881633D01*
X54773827Y-45938442D01*
X54800603Y-45983888D01*
X54833488Y-46020622D01*
X54877363Y-46054357D01*
X54934265Y-46085005D01*
X55308018Y-46083661D01*
X55339436Y-46088325D01*
X55359776Y-46100675D01*
X55372223Y-46120668D01*
X55376894Y-46151317D01*
X55372466Y-46177884D01*
X55360399Y-46195681D01*
X55340039Y-46207027D01*
X55307773Y-46211400D01*
X54827287Y-46211400D01*
X54759570Y-46209691D01*
X54691793Y-46207981D01*
X54659527Y-46203608D01*
X54639167Y-46192261D01*
X54627101Y-46174464D01*
X54622672Y-46147897D01*
X54628732Y-46120725D01*
X54646703Y-46100635D01*
X54680513Y-46086343D01*
X54738504Y-46080242D01*
X54690974Y-46024457D01*
X54655415Y-45967990D01*
X54630633Y-45910394D01*
X54615892Y-45851057D01*
X54610949Y-45789227D01*
X54615848Y-45754596D01*
X54629656Y-45727695D01*
X54652653Y-45706612D01*
X54681884Y-45692524D01*
X54722680Y-45682908D01*
X54778499Y-45679256D01*
X54826371Y-45679928D01*
G37*
G36*
X55330000Y-44735136D02*
G01*
X55330000Y-44871057D01*
X55329328Y-45006306D01*
X55327447Y-45050538D01*
X55323222Y-45073229D01*
X55311982Y-45092648D01*
X55295365Y-45104003D01*
X55271564Y-45108094D01*
X55243086Y-45102180D01*
X55222634Y-45085047D01*
X55208555Y-45053685D01*
X55202871Y-45000872D01*
X55203543Y-44968082D01*
X55204947Y-44940055D01*
X55107739Y-44945856D01*
X55011202Y-44951657D01*
X54912956Y-44948385D01*
X54746931Y-44935964D01*
X54582892Y-44924315D01*
X54481988Y-44921615D01*
X54540847Y-45007181D01*
X54552330Y-45038424D01*
X54547280Y-45063829D01*
X54531875Y-45085929D01*
X54509648Y-45101140D01*
X54484797Y-45106079D01*
X54465449Y-45101322D01*
X54440409Y-45084033D01*
X54407067Y-45047339D01*
X54323841Y-44942803D01*
X54287862Y-44900030D01*
X54268938Y-44862350D01*
X54263147Y-44828070D01*
X54268969Y-44802685D01*
X54285235Y-44787967D01*
X54315842Y-44782274D01*
X54362737Y-44786366D01*
X54409631Y-44790457D01*
X54478142Y-44788075D01*
X54546591Y-44785694D01*
X54634170Y-44789140D01*
X54779354Y-44802119D01*
X54924401Y-44815057D01*
X55011385Y-44818483D01*
X55107983Y-44813049D01*
X55201039Y-44806882D01*
X55199635Y-44735136D01*
X55204404Y-44708678D01*
X55218319Y-44687691D01*
X55239146Y-44673646D01*
X55264848Y-44668885D01*
X55291064Y-44673688D01*
X55311681Y-44687691D01*
X55325312Y-44708648D01*
X55330000Y-44735136D01*
G37*
G36*
X55392526Y-44403515D02*
G01*
X55386381Y-44436415D01*
X55368101Y-44463660D01*
X55341092Y-44482040D01*
X55308506Y-44488206D01*
X55276435Y-44482082D01*
X55249216Y-44463660D01*
X55230699Y-44436391D01*
X55224487Y-44403515D01*
X55230655Y-44371216D01*
X55249216Y-44343797D01*
X55276468Y-44325040D01*
X55308506Y-44318824D01*
X55341059Y-44325083D01*
X55368101Y-44343797D01*
X55386423Y-44371192D01*
X55392526Y-44403515D01*
G37*
G36*
X54873159Y-43437558D02*
G01*
X54981025Y-43450993D01*
X55070357Y-43471551D01*
X55143823Y-43498070D01*
X55203787Y-43529736D01*
X55259410Y-43572727D01*
X55301666Y-43622247D01*
X55331986Y-43679048D01*
X55350771Y-43744556D01*
X55357355Y-43820751D01*
X55351814Y-43888383D01*
X55335910Y-43947597D01*
X55310145Y-43999886D01*
X55274243Y-44046369D01*
X55227171Y-44087703D01*
X55167212Y-44124040D01*
X55094160Y-44153873D01*
X55007764Y-44176595D01*
X54905898Y-44191232D01*
X54786193Y-44196458D01*
X54687585Y-44190230D01*
X54597837Y-44172155D01*
X54515695Y-44142786D01*
X54440101Y-44102180D01*
X54375800Y-44052579D01*
X54327935Y-43998332D01*
X54294372Y-43938922D01*
X54274046Y-43873217D01*
X54267113Y-43800174D01*
X54399923Y-43800174D01*
X54404963Y-43848369D01*
X54419715Y-43891685D01*
X54444370Y-43931277D01*
X54480071Y-43967879D01*
X54528822Y-44001735D01*
X54602886Y-44035849D01*
X54684421Y-44056708D01*
X54775019Y-44063895D01*
X54891544Y-44059164D01*
X54983917Y-44046345D01*
X55056187Y-44027219D01*
X55111952Y-44003140D01*
X55162420Y-43967810D01*
X55196745Y-43926481D01*
X55217330Y-43878169D01*
X55224487Y-43820690D01*
X55218058Y-43766716D01*
X55199451Y-43720311D01*
X55168372Y-43679667D01*
X55122844Y-43643871D01*
X55059439Y-43613023D01*
X54981768Y-43589956D01*
X54886051Y-43574810D01*
X54768913Y-43569303D01*
X54673396Y-43573759D01*
X54597595Y-43585859D01*
X54538118Y-43604004D01*
X54492002Y-43627067D01*
X54451563Y-43659686D01*
X54423322Y-43698486D01*
X54406014Y-43744627D01*
X54399923Y-43800174D01*
X54267113Y-43800174D01*
X54267055Y-43799563D01*
X54273383Y-43729792D01*
X54291666Y-43668253D01*
X54321605Y-43613345D01*
X54363912Y-43563939D01*
X54420256Y-43519478D01*
X54488047Y-43482491D01*
X54563700Y-43455433D01*
X54648462Y-43438580D01*
X54743817Y-43432711D01*
X54873159Y-43437558D01*
G37*
X33089598Y-56872419D02*
X33089598Y-57586704D01*
X33089598Y-57586704D02*
X33041979Y-57729561D01*
X33041979Y-57729561D02*
X32946741Y-57824800D01*
X32946741Y-57824800D02*
X32803884Y-57872419D01*
X32803884Y-57872419D02*
X32708646Y-57872419D01*
X34041979Y-57872419D02*
X33565789Y-57872419D01*
X33565789Y-57872419D02*
X33565789Y-56872419D01*
X34946741Y-57777180D02*
X34899122Y-57824800D01*
X34899122Y-57824800D02*
X34756265Y-57872419D01*
X34756265Y-57872419D02*
X34661027Y-57872419D01*
X34661027Y-57872419D02*
X34518170Y-57824800D01*
X34518170Y-57824800D02*
X34422932Y-57729561D01*
X34422932Y-57729561D02*
X34375313Y-57634323D01*
X34375313Y-57634323D02*
X34327694Y-57443847D01*
X34327694Y-57443847D02*
X34327694Y-57300990D01*
X34327694Y-57300990D02*
X34375313Y-57110514D01*
X34375313Y-57110514D02*
X34422932Y-57015276D01*
X34422932Y-57015276D02*
X34518170Y-56920038D01*
X34518170Y-56920038D02*
X34661027Y-56872419D01*
X34661027Y-56872419D02*
X34756265Y-56872419D01*
X34756265Y-56872419D02*
X34899122Y-56920038D01*
X34899122Y-56920038D02*
X34946741Y-56967657D01*
X35661027Y-56872419D02*
X35661027Y-57586704D01*
X35661027Y-57586704D02*
X35613408Y-57729561D01*
X35613408Y-57729561D02*
X35518170Y-57824800D01*
X35518170Y-57824800D02*
X35375313Y-57872419D01*
X35375313Y-57872419D02*
X35280075Y-57872419D01*
X36613408Y-57872419D02*
X36137218Y-57872419D01*
X36137218Y-57872419D02*
X36137218Y-56872419D01*
X37518170Y-57777180D02*
X37470551Y-57824800D01*
X37470551Y-57824800D02*
X37327694Y-57872419D01*
X37327694Y-57872419D02*
X37232456Y-57872419D01*
X37232456Y-57872419D02*
X37089599Y-57824800D01*
X37089599Y-57824800D02*
X36994361Y-57729561D01*
X36994361Y-57729561D02*
X36946742Y-57634323D01*
X36946742Y-57634323D02*
X36899123Y-57443847D01*
X36899123Y-57443847D02*
X36899123Y-57300990D01*
X36899123Y-57300990D02*
X36946742Y-57110514D01*
X36946742Y-57110514D02*
X36994361Y-57015276D01*
X36994361Y-57015276D02*
X37089599Y-56920038D01*
X37089599Y-56920038D02*
X37232456Y-56872419D01*
X37232456Y-56872419D02*
X37327694Y-56872419D01*
X37327694Y-56872419D02*
X37470551Y-56920038D01*
X37470551Y-56920038D02*
X37518170Y-56967657D01*
X38232456Y-56872419D02*
X38232456Y-57586704D01*
X38232456Y-57586704D02*
X38184837Y-57729561D01*
X38184837Y-57729561D02*
X38089599Y-57824800D01*
X38089599Y-57824800D02*
X37946742Y-57872419D01*
X37946742Y-57872419D02*
X37851504Y-57872419D01*
X39184837Y-57872419D02*
X38708647Y-57872419D01*
X38708647Y-57872419D02*
X38708647Y-56872419D01*
X40089599Y-57777180D02*
X40041980Y-57824800D01*
X40041980Y-57824800D02*
X39899123Y-57872419D01*
X39899123Y-57872419D02*
X39803885Y-57872419D01*
X39803885Y-57872419D02*
X39661028Y-57824800D01*
X39661028Y-57824800D02*
X39565790Y-57729561D01*
X39565790Y-57729561D02*
X39518171Y-57634323D01*
X39518171Y-57634323D02*
X39470552Y-57443847D01*
X39470552Y-57443847D02*
X39470552Y-57300990D01*
X39470552Y-57300990D02*
X39518171Y-57110514D01*
X39518171Y-57110514D02*
X39565790Y-57015276D01*
X39565790Y-57015276D02*
X39661028Y-56920038D01*
X39661028Y-56920038D02*
X39803885Y-56872419D01*
X39803885Y-56872419D02*
X39899123Y-56872419D01*
X39899123Y-56872419D02*
X40041980Y-56920038D01*
X40041980Y-56920038D02*
X40089599Y-56967657D01*
X40803885Y-56872419D02*
X40803885Y-57586704D01*
X40803885Y-57586704D02*
X40756266Y-57729561D01*
X40756266Y-57729561D02*
X40661028Y-57824800D01*
X40661028Y-57824800D02*
X40518171Y-57872419D01*
X40518171Y-57872419D02*
X40422933Y-57872419D01*
X41756266Y-57872419D02*
X41280076Y-57872419D01*
X41280076Y-57872419D02*
X41280076Y-56872419D01*
X42661028Y-57777180D02*
X42613409Y-57824800D01*
X42613409Y-57824800D02*
X42470552Y-57872419D01*
X42470552Y-57872419D02*
X42375314Y-57872419D01*
X42375314Y-57872419D02*
X42232457Y-57824800D01*
X42232457Y-57824800D02*
X42137219Y-57729561D01*
X42137219Y-57729561D02*
X42089600Y-57634323D01*
X42089600Y-57634323D02*
X42041981Y-57443847D01*
X42041981Y-57443847D02*
X42041981Y-57300990D01*
X42041981Y-57300990D02*
X42089600Y-57110514D01*
X42089600Y-57110514D02*
X42137219Y-57015276D01*
X42137219Y-57015276D02*
X42232457Y-56920038D01*
X42232457Y-56920038D02*
X42375314Y-56872419D01*
X42375314Y-56872419D02*
X42470552Y-56872419D01*
X42470552Y-56872419D02*
X42613409Y-56920038D01*
X42613409Y-56920038D02*
X42661028Y-56967657D01*
D11*
X30407200Y-58499999D02*
X30454819Y-58357142D01*
X30454819Y-58357142D02*
X30454819Y-58119047D01*
X30454819Y-58119047D02*
X30407200Y-58023809D01*
X30407200Y-58023809D02*
X30359580Y-57976190D01*
X30359580Y-57976190D02*
X30264342Y-57928571D01*
X30264342Y-57928571D02*
X30169104Y-57928571D01*
X30169104Y-57928571D02*
X30073866Y-57976190D01*
X30073866Y-57976190D02*
X30026247Y-58023809D01*
X30026247Y-58023809D02*
X29978628Y-58119047D01*
X29978628Y-58119047D02*
X29931009Y-58309523D01*
X29931009Y-58309523D02*
X29883390Y-58404761D01*
X29883390Y-58404761D02*
X29835771Y-58452380D01*
X29835771Y-58452380D02*
X29740533Y-58499999D01*
X29740533Y-58499999D02*
X29645295Y-58499999D01*
X29645295Y-58499999D02*
X29550057Y-58452380D01*
X29550057Y-58452380D02*
X29502438Y-58404761D01*
X29502438Y-58404761D02*
X29454819Y-58309523D01*
X29454819Y-58309523D02*
X29454819Y-58071428D01*
X29454819Y-58071428D02*
X29502438Y-57928571D01*
X30407200Y-57119047D02*
X30454819Y-57214285D01*
X30454819Y-57214285D02*
X30454819Y-57404761D01*
X30454819Y-57404761D02*
X30407200Y-57499999D01*
X30407200Y-57499999D02*
X30311961Y-57547618D01*
X30311961Y-57547618D02*
X29931009Y-57547618D01*
X29931009Y-57547618D02*
X29835771Y-57499999D01*
X29835771Y-57499999D02*
X29788152Y-57404761D01*
X29788152Y-57404761D02*
X29788152Y-57214285D01*
X29788152Y-57214285D02*
X29835771Y-57119047D01*
X29835771Y-57119047D02*
X29931009Y-57071428D01*
X29931009Y-57071428D02*
X30026247Y-57071428D01*
X30026247Y-57071428D02*
X30121485Y-57547618D01*
X30454819Y-56642856D02*
X29788152Y-56642856D01*
X29978628Y-56642856D02*
X29883390Y-56595237D01*
X29883390Y-56595237D02*
X29835771Y-56547618D01*
X29835771Y-56547618D02*
X29788152Y-56452380D01*
X29788152Y-56452380D02*
X29788152Y-56357142D01*
X29550057Y-56071427D02*
X29502438Y-56023808D01*
X29502438Y-56023808D02*
X29454819Y-55928570D01*
X29454819Y-55928570D02*
X29454819Y-55690475D01*
X29454819Y-55690475D02*
X29502438Y-55595237D01*
X29502438Y-55595237D02*
X29550057Y-55547618D01*
X29550057Y-55547618D02*
X29645295Y-55499999D01*
X29645295Y-55499999D02*
X29740533Y-55499999D01*
X29740533Y-55499999D02*
X29883390Y-55547618D01*
X29883390Y-55547618D02*
X30454819Y-56119046D01*
X30454819Y-56119046D02*
X30454819Y-55499999D01*
X26907200Y-58499999D02*
X26954819Y-58357142D01*
X26954819Y-58357142D02*
X26954819Y-58119047D01*
X26954819Y-58119047D02*
X26907200Y-58023809D01*
X26907200Y-58023809D02*
X26859580Y-57976190D01*
X26859580Y-57976190D02*
X26764342Y-57928571D01*
X26764342Y-57928571D02*
X26669104Y-57928571D01*
X26669104Y-57928571D02*
X26573866Y-57976190D01*
X26573866Y-57976190D02*
X26526247Y-58023809D01*
X26526247Y-58023809D02*
X26478628Y-58119047D01*
X26478628Y-58119047D02*
X26431009Y-58309523D01*
X26431009Y-58309523D02*
X26383390Y-58404761D01*
X26383390Y-58404761D02*
X26335771Y-58452380D01*
X26335771Y-58452380D02*
X26240533Y-58499999D01*
X26240533Y-58499999D02*
X26145295Y-58499999D01*
X26145295Y-58499999D02*
X26050057Y-58452380D01*
X26050057Y-58452380D02*
X26002438Y-58404761D01*
X26002438Y-58404761D02*
X25954819Y-58309523D01*
X25954819Y-58309523D02*
X25954819Y-58071428D01*
X25954819Y-58071428D02*
X26002438Y-57928571D01*
X26907200Y-57119047D02*
X26954819Y-57214285D01*
X26954819Y-57214285D02*
X26954819Y-57404761D01*
X26954819Y-57404761D02*
X26907200Y-57499999D01*
X26907200Y-57499999D02*
X26811961Y-57547618D01*
X26811961Y-57547618D02*
X26431009Y-57547618D01*
X26431009Y-57547618D02*
X26335771Y-57499999D01*
X26335771Y-57499999D02*
X26288152Y-57404761D01*
X26288152Y-57404761D02*
X26288152Y-57214285D01*
X26288152Y-57214285D02*
X26335771Y-57119047D01*
X26335771Y-57119047D02*
X26431009Y-57071428D01*
X26431009Y-57071428D02*
X26526247Y-57071428D01*
X26526247Y-57071428D02*
X26621485Y-57547618D01*
X26954819Y-56642856D02*
X26288152Y-56642856D01*
X26478628Y-56642856D02*
X26383390Y-56595237D01*
X26383390Y-56595237D02*
X26335771Y-56547618D01*
X26335771Y-56547618D02*
X26288152Y-56452380D01*
X26288152Y-56452380D02*
X26288152Y-56357142D01*
X26954819Y-55499999D02*
X26954819Y-56071427D01*
X26954819Y-55785713D02*
X25954819Y-55785713D01*
X25954819Y-55785713D02*
X26097676Y-55880951D01*
X26097676Y-55880951D02*
X26192914Y-55976189D01*
X26192914Y-55976189D02*
X26240533Y-56071427D01*
X47761904Y-45534819D02*
X47761904Y-44534819D01*
X47761904Y-45011009D02*
X48333332Y-45011009D01*
X48333332Y-45534819D02*
X48333332Y-44534819D01*
X49238094Y-45534819D02*
X49238094Y-45011009D01*
X49238094Y-45011009D02*
X49190475Y-44915771D01*
X49190475Y-44915771D02*
X49095237Y-44868152D01*
X49095237Y-44868152D02*
X48904761Y-44868152D01*
X48904761Y-44868152D02*
X48809523Y-44915771D01*
X49238094Y-45487200D02*
X49142856Y-45534819D01*
X49142856Y-45534819D02*
X48904761Y-45534819D01*
X48904761Y-45534819D02*
X48809523Y-45487200D01*
X48809523Y-45487200D02*
X48761904Y-45391961D01*
X48761904Y-45391961D02*
X48761904Y-45296723D01*
X48761904Y-45296723D02*
X48809523Y-45201485D01*
X48809523Y-45201485D02*
X48904761Y-45153866D01*
X48904761Y-45153866D02*
X49142856Y-45153866D01*
X49142856Y-45153866D02*
X49238094Y-45106247D01*
X49857142Y-45534819D02*
X49761904Y-45487200D01*
X49761904Y-45487200D02*
X49714285Y-45391961D01*
X49714285Y-45391961D02*
X49714285Y-44534819D01*
X50380952Y-45534819D02*
X50285714Y-45487200D01*
X50285714Y-45487200D02*
X50238095Y-45391961D01*
X50238095Y-45391961D02*
X50238095Y-44534819D01*
X51285714Y-45534819D02*
X50714286Y-45534819D01*
X51000000Y-45534819D02*
X51000000Y-44534819D01*
X51000000Y-44534819D02*
X50904762Y-44677676D01*
X50904762Y-44677676D02*
X50809524Y-44772914D01*
X50809524Y-44772914D02*
X50714286Y-44820533D01*
X37333333Y-26859580D02*
X37285714Y-26907200D01*
X37285714Y-26907200D02*
X37142857Y-26954819D01*
X37142857Y-26954819D02*
X37047619Y-26954819D01*
X37047619Y-26954819D02*
X36904762Y-26907200D01*
X36904762Y-26907200D02*
X36809524Y-26811961D01*
X36809524Y-26811961D02*
X36761905Y-26716723D01*
X36761905Y-26716723D02*
X36714286Y-26526247D01*
X36714286Y-26526247D02*
X36714286Y-26383390D01*
X36714286Y-26383390D02*
X36761905Y-26192914D01*
X36761905Y-26192914D02*
X36809524Y-26097676D01*
X36809524Y-26097676D02*
X36904762Y-26002438D01*
X36904762Y-26002438D02*
X37047619Y-25954819D01*
X37047619Y-25954819D02*
X37142857Y-25954819D01*
X37142857Y-25954819D02*
X37285714Y-26002438D01*
X37285714Y-26002438D02*
X37333333Y-26050057D01*
X37666667Y-25954819D02*
X38285714Y-25954819D01*
X38285714Y-25954819D02*
X37952381Y-26335771D01*
X37952381Y-26335771D02*
X38095238Y-26335771D01*
X38095238Y-26335771D02*
X38190476Y-26383390D01*
X38190476Y-26383390D02*
X38238095Y-26431009D01*
X38238095Y-26431009D02*
X38285714Y-26526247D01*
X38285714Y-26526247D02*
X38285714Y-26764342D01*
X38285714Y-26764342D02*
X38238095Y-26859580D01*
X38238095Y-26859580D02*
X38190476Y-26907200D01*
X38190476Y-26907200D02*
X38095238Y-26954819D01*
X38095238Y-26954819D02*
X37809524Y-26954819D01*
X37809524Y-26954819D02*
X37714286Y-26907200D01*
X37714286Y-26907200D02*
X37666667Y-26859580D01*
X39432738Y-30454819D02*
X39432738Y-29454819D01*
X39432738Y-29454819D02*
X39670833Y-29454819D01*
X39670833Y-29454819D02*
X39813690Y-29502438D01*
X39813690Y-29502438D02*
X39908928Y-29597676D01*
X39908928Y-29597676D02*
X39956547Y-29692914D01*
X39956547Y-29692914D02*
X40004166Y-29883390D01*
X40004166Y-29883390D02*
X40004166Y-30026247D01*
X40004166Y-30026247D02*
X39956547Y-30216723D01*
X39956547Y-30216723D02*
X39908928Y-30311961D01*
X39908928Y-30311961D02*
X39813690Y-30407200D01*
X39813690Y-30407200D02*
X39670833Y-30454819D01*
X39670833Y-30454819D02*
X39432738Y-30454819D01*
X40432738Y-30454819D02*
X40432738Y-29788152D01*
X40432738Y-29978628D02*
X40480357Y-29883390D01*
X40480357Y-29883390D02*
X40527976Y-29835771D01*
X40527976Y-29835771D02*
X40623214Y-29788152D01*
X40623214Y-29788152D02*
X40718452Y-29788152D01*
X41051786Y-30454819D02*
X41051786Y-29788152D01*
X41051786Y-29454819D02*
X41004167Y-29502438D01*
X41004167Y-29502438D02*
X41051786Y-29550057D01*
X41051786Y-29550057D02*
X41099405Y-29502438D01*
X41099405Y-29502438D02*
X41051786Y-29454819D01*
X41051786Y-29454819D02*
X41051786Y-29550057D01*
X41432738Y-29788152D02*
X41670833Y-30454819D01*
X41670833Y-30454819D02*
X41908928Y-29788152D01*
X42670833Y-30407200D02*
X42575595Y-30454819D01*
X42575595Y-30454819D02*
X42385119Y-30454819D01*
X42385119Y-30454819D02*
X42289881Y-30407200D01*
X42289881Y-30407200D02*
X42242262Y-30311961D01*
X42242262Y-30311961D02*
X42242262Y-29931009D01*
X42242262Y-29931009D02*
X42289881Y-29835771D01*
X42289881Y-29835771D02*
X42385119Y-29788152D01*
X42385119Y-29788152D02*
X42575595Y-29788152D01*
X42575595Y-29788152D02*
X42670833Y-29835771D01*
X42670833Y-29835771D02*
X42718452Y-29931009D01*
X42718452Y-29931009D02*
X42718452Y-30026247D01*
X42718452Y-30026247D02*
X42242262Y-30121485D01*
X43147024Y-30454819D02*
X43147024Y-29788152D01*
X43147024Y-29978628D02*
X43194643Y-29883390D01*
X43194643Y-29883390D02*
X43242262Y-29835771D01*
X43242262Y-29835771D02*
X43337500Y-29788152D01*
X43337500Y-29788152D02*
X43432738Y-29788152D01*
X44289881Y-30454819D02*
X43718453Y-30454819D01*
X44004167Y-30454819D02*
X44004167Y-29454819D01*
X44004167Y-29454819D02*
X43908929Y-29597676D01*
X43908929Y-29597676D02*
X43813691Y-29692914D01*
X43813691Y-29692914D02*
X43718453Y-29740533D01*
X49454819Y-25809523D02*
X48454819Y-25809523D01*
X48454819Y-25809523D02*
X49169104Y-25476190D01*
X49169104Y-25476190D02*
X48454819Y-25142857D01*
X48454819Y-25142857D02*
X49454819Y-25142857D01*
X49454819Y-24523809D02*
X49407200Y-24619047D01*
X49407200Y-24619047D02*
X49359580Y-24666666D01*
X49359580Y-24666666D02*
X49264342Y-24714285D01*
X49264342Y-24714285D02*
X48978628Y-24714285D01*
X48978628Y-24714285D02*
X48883390Y-24666666D01*
X48883390Y-24666666D02*
X48835771Y-24619047D01*
X48835771Y-24619047D02*
X48788152Y-24523809D01*
X48788152Y-24523809D02*
X48788152Y-24380952D01*
X48788152Y-24380952D02*
X48835771Y-24285714D01*
X48835771Y-24285714D02*
X48883390Y-24238095D01*
X48883390Y-24238095D02*
X48978628Y-24190476D01*
X48978628Y-24190476D02*
X49264342Y-24190476D01*
X49264342Y-24190476D02*
X49359580Y-24238095D01*
X49359580Y-24238095D02*
X49407200Y-24285714D01*
X49407200Y-24285714D02*
X49454819Y-24380952D01*
X49454819Y-24380952D02*
X49454819Y-24523809D01*
X48788152Y-23904761D02*
X48788152Y-23523809D01*
X48454819Y-23761904D02*
X49311961Y-23761904D01*
X49311961Y-23761904D02*
X49407200Y-23714285D01*
X49407200Y-23714285D02*
X49454819Y-23619047D01*
X49454819Y-23619047D02*
X49454819Y-23523809D01*
X49454819Y-23047618D02*
X49407200Y-23142856D01*
X49407200Y-23142856D02*
X49359580Y-23190475D01*
X49359580Y-23190475D02*
X49264342Y-23238094D01*
X49264342Y-23238094D02*
X48978628Y-23238094D01*
X48978628Y-23238094D02*
X48883390Y-23190475D01*
X48883390Y-23190475D02*
X48835771Y-23142856D01*
X48835771Y-23142856D02*
X48788152Y-23047618D01*
X48788152Y-23047618D02*
X48788152Y-22904761D01*
X48788152Y-22904761D02*
X48835771Y-22809523D01*
X48835771Y-22809523D02*
X48883390Y-22761904D01*
X48883390Y-22761904D02*
X48978628Y-22714285D01*
X48978628Y-22714285D02*
X49264342Y-22714285D01*
X49264342Y-22714285D02*
X49359580Y-22761904D01*
X49359580Y-22761904D02*
X49407200Y-22809523D01*
X49407200Y-22809523D02*
X49454819Y-22904761D01*
X49454819Y-22904761D02*
X49454819Y-23047618D01*
X49454819Y-22285713D02*
X48788152Y-22285713D01*
X48978628Y-22285713D02*
X48883390Y-22238094D01*
X48883390Y-22238094D02*
X48835771Y-22190475D01*
X48835771Y-22190475D02*
X48788152Y-22095237D01*
X48788152Y-22095237D02*
X48788152Y-21999999D01*
X49454819Y-21142856D02*
X49454819Y-21714284D01*
X49454819Y-21428570D02*
X48454819Y-21428570D01*
X48454819Y-21428570D02*
X48597676Y-21523808D01*
X48597676Y-21523808D02*
X48692914Y-21619046D01*
X48692914Y-21619046D02*
X48740533Y-21714284D01*
X41238095Y-50874819D02*
X41238095Y-51684342D01*
X41238095Y-51684342D02*
X41285714Y-51779580D01*
X41285714Y-51779580D02*
X41333333Y-51827200D01*
X41333333Y-51827200D02*
X41428571Y-51874819D01*
X41428571Y-51874819D02*
X41619047Y-51874819D01*
X41619047Y-51874819D02*
X41714285Y-51827200D01*
X41714285Y-51827200D02*
X41761904Y-51779580D01*
X41761904Y-51779580D02*
X41809523Y-51684342D01*
X41809523Y-51684342D02*
X41809523Y-50874819D01*
X42809523Y-51874819D02*
X42238095Y-51874819D01*
X42523809Y-51874819D02*
X42523809Y-50874819D01*
X42523809Y-50874819D02*
X42428571Y-51017676D01*
X42428571Y-51017676D02*
X42333333Y-51112914D01*
X42333333Y-51112914D02*
X42238095Y-51160533D01*
X39500000Y-47102019D02*
X39500000Y-47340114D01*
X39261905Y-47244876D02*
X39500000Y-47340114D01*
X39500000Y-47340114D02*
X39738095Y-47244876D01*
X39357143Y-47530590D02*
X39500000Y-47340114D01*
X39500000Y-47340114D02*
X39642857Y-47530590D01*
X38825000Y-47102019D02*
X38825000Y-47340114D01*
X38586905Y-47244876D02*
X38825000Y-47340114D01*
X38825000Y-47340114D02*
X39063095Y-47244876D01*
X38682143Y-47530590D02*
X38825000Y-47340114D01*
X38825000Y-47340114D02*
X38967857Y-47530590D01*
D12*
%TO.C,Ser2*%
X28890000Y-52910000D02*
X28890000Y-54160000D01*
X28890000Y-54160000D02*
X30140000Y-54160000D01*
X29190000Y-26140000D02*
X29190000Y-28440000D01*
X29190000Y-28440000D02*
X30190000Y-28440000D01*
X29190000Y-35200000D02*
X29190000Y-37300000D01*
X29190000Y-37300000D02*
X30190000Y-37300000D01*
X29190000Y-42700000D02*
X29190000Y-44800000D01*
X29190000Y-44800000D02*
X30190000Y-44800000D01*
X29190000Y-51560000D02*
X29190000Y-53860000D01*
X29190000Y-53860000D02*
X35810000Y-53860000D01*
X29590000Y-39200000D02*
X29590000Y-40800000D01*
X29590000Y-40800000D02*
X30190000Y-40800000D01*
X30190000Y-28440000D02*
X30190000Y-35200000D01*
X30190000Y-35200000D02*
X29190000Y-35200000D01*
X30190000Y-37300000D02*
X30190000Y-39200000D01*
X30190000Y-39200000D02*
X29590000Y-39200000D01*
X30190000Y-40800000D02*
X30190000Y-42700000D01*
X30190000Y-42700000D02*
X29190000Y-42700000D01*
X30190000Y-44800000D02*
X30190000Y-51560000D01*
X30190000Y-51560000D02*
X29190000Y-51560000D01*
X30800000Y-27150000D02*
X30800000Y-52850000D01*
X30800000Y-52850000D02*
X35100000Y-52850000D01*
X32500000Y-26140000D02*
X32500000Y-27150000D01*
X32500000Y-53860000D02*
X32500000Y-52850000D01*
X35100000Y-27150000D02*
X30800000Y-27150000D01*
X35100000Y-52850000D02*
X35100000Y-27150000D01*
X35810000Y-26140000D02*
X29190000Y-26140000D01*
X35810000Y-53860000D02*
X35810000Y-26140000D01*
%TO.C,Ser1*%
X27810000Y-53860000D02*
X27810000Y-26140000D01*
X27810000Y-26140000D02*
X21190000Y-26140000D01*
X27100000Y-52850000D02*
X27100000Y-27150000D01*
X27100000Y-27150000D02*
X22800000Y-27150000D01*
X24500000Y-53860000D02*
X24500000Y-52850000D01*
X24500000Y-26140000D02*
X24500000Y-27150000D01*
X22800000Y-52850000D02*
X27100000Y-52850000D01*
X22800000Y-27150000D02*
X22800000Y-52850000D01*
X22190000Y-51560000D02*
X21190000Y-51560000D01*
X22190000Y-44800000D02*
X22190000Y-51560000D01*
X22190000Y-42700000D02*
X21190000Y-42700000D01*
X22190000Y-40800000D02*
X22190000Y-42700000D01*
X22190000Y-39200000D02*
X21590000Y-39200000D01*
X22190000Y-37300000D02*
X22190000Y-39200000D01*
X22190000Y-35200000D02*
X21190000Y-35200000D01*
X22190000Y-28440000D02*
X22190000Y-35200000D01*
X21590000Y-40800000D02*
X22190000Y-40800000D01*
X21590000Y-39200000D02*
X21590000Y-40800000D01*
X21190000Y-53860000D02*
X27810000Y-53860000D01*
X21190000Y-51560000D02*
X21190000Y-53860000D01*
X21190000Y-44800000D02*
X22190000Y-44800000D01*
X21190000Y-42700000D02*
X21190000Y-44800000D01*
X21190000Y-37300000D02*
X22190000Y-37300000D01*
X21190000Y-35200000D02*
X21190000Y-37300000D01*
X21190000Y-28440000D02*
X22190000Y-28440000D01*
X21190000Y-26140000D02*
X21190000Y-28440000D01*
X20890000Y-54160000D02*
X22140000Y-54160000D01*
X20890000Y-52910000D02*
X20890000Y-54160000D01*
%TO.C,Hall1*%
X47120000Y-46120000D02*
X48500000Y-46120000D01*
X47120000Y-47500000D02*
X47120000Y-46120000D01*
X47120000Y-48770000D02*
X47120000Y-53960000D01*
X47120000Y-48770000D02*
X49880000Y-48770000D01*
X47120000Y-53960000D02*
X49880000Y-53960000D01*
X49880000Y-48770000D02*
X49880000Y-53960000D01*
D11*
%TO.C,D1*%
X55800000Y-38270000D02*
X55800000Y-39730000D01*
X55800000Y-39730000D02*
X58090000Y-39730000D01*
X58090000Y-38270000D02*
X55800000Y-38270000D01*
D12*
%TO.C,C3*%
X38900000Y-26783000D02*
X38900000Y-26217000D01*
X38940000Y-27017000D02*
X38940000Y-25983000D01*
X38980000Y-27177000D02*
X38980000Y-25823000D01*
X39020000Y-27305000D02*
X39020000Y-25695000D01*
X39060000Y-27414000D02*
X39060000Y-25586000D01*
X39100000Y-27511000D02*
X39100000Y-25489000D01*
X39140000Y-27598000D02*
X39140000Y-25402000D01*
X39180000Y-27677000D02*
X39180000Y-25323000D01*
X39220000Y-27751000D02*
X39220000Y-25249000D01*
X39260000Y-27819000D02*
X39260000Y-25181000D01*
X39300000Y-27883000D02*
X39300000Y-25117000D01*
X39340000Y-27943000D02*
X39340000Y-25057000D01*
X39380000Y-27999000D02*
X39380000Y-25001000D01*
X39420000Y-28053000D02*
X39420000Y-24947000D01*
X39460000Y-28104000D02*
X39460000Y-24896000D01*
X39500000Y-25460000D02*
X39500000Y-24848000D01*
X39500000Y-28152000D02*
X39500000Y-27540000D01*
X39540000Y-25460000D02*
X39540000Y-24801000D01*
X39540000Y-28199000D02*
X39540000Y-27540000D01*
X39580000Y-25460000D02*
X39580000Y-24757000D01*
X39580000Y-28243000D02*
X39580000Y-27540000D01*
X39620000Y-25460000D02*
X39620000Y-24715000D01*
X39620000Y-28285000D02*
X39620000Y-27540000D01*
X39660000Y-25460000D02*
X39660000Y-24675000D01*
X39660000Y-28325000D02*
X39660000Y-27540000D01*
X39700000Y-25460000D02*
X39700000Y-24636000D01*
X39700000Y-28364000D02*
X39700000Y-27540000D01*
X39740000Y-25460000D02*
X39740000Y-24599000D01*
X39740000Y-28401000D02*
X39740000Y-27540000D01*
X39780000Y-25460000D02*
X39780000Y-24564000D01*
X39780000Y-28436000D02*
X39780000Y-27540000D01*
X39820000Y-25460000D02*
X39820000Y-24530000D01*
X39820000Y-28470000D02*
X39820000Y-27540000D01*
X39860000Y-25460000D02*
X39860000Y-24497000D01*
X39860000Y-28503000D02*
X39860000Y-27540000D01*
X39900000Y-25460000D02*
X39900000Y-24465000D01*
X39900000Y-28535000D02*
X39900000Y-27540000D01*
X39940000Y-25460000D02*
X39940000Y-24435000D01*
X39940000Y-28565000D02*
X39940000Y-27540000D01*
X39980000Y-25460000D02*
X39980000Y-24406000D01*
X39980000Y-28594000D02*
X39980000Y-27540000D01*
X40020000Y-25460000D02*
X40020000Y-24378000D01*
X40020000Y-28622000D02*
X40020000Y-27540000D01*
X40060000Y-25460000D02*
X40060000Y-24351000D01*
X40060000Y-28649000D02*
X40060000Y-27540000D01*
X40100000Y-25460000D02*
X40100000Y-24325000D01*
X40100000Y-28675000D02*
X40100000Y-27540000D01*
X40140000Y-25460000D02*
X40140000Y-24301000D01*
X40140000Y-28699000D02*
X40140000Y-27540000D01*
X40180000Y-25460000D02*
X40180000Y-24277000D01*
X40180000Y-28723000D02*
X40180000Y-27540000D01*
X40220000Y-25460000D02*
X40220000Y-24254000D01*
X40220000Y-28746000D02*
X40220000Y-27540000D01*
X40260000Y-25460000D02*
X40260000Y-24232000D01*
X40260000Y-28768000D02*
X40260000Y-27540000D01*
X40300000Y-25460000D02*
X40300000Y-24211000D01*
X40300000Y-28789000D02*
X40300000Y-27540000D01*
X40340000Y-25460000D02*
X40340000Y-24191000D01*
X40340000Y-28809000D02*
X40340000Y-27540000D01*
X40380000Y-25460000D02*
X40380000Y-24171000D01*
X40380000Y-28829000D02*
X40380000Y-27540000D01*
X40420000Y-25460000D02*
X40420000Y-24153000D01*
X40420000Y-28847000D02*
X40420000Y-27540000D01*
X40460000Y-25460000D02*
X40460000Y-24135000D01*
X40460000Y-28865000D02*
X40460000Y-27540000D01*
X40500000Y-25460000D02*
X40500000Y-24118000D01*
X40500000Y-28882000D02*
X40500000Y-27540000D01*
X40540000Y-25460000D02*
X40540000Y-24102000D01*
X40540000Y-28898000D02*
X40540000Y-27540000D01*
X40580000Y-25460000D02*
X40580000Y-24087000D01*
X40580000Y-28913000D02*
X40580000Y-27540000D01*
X40620000Y-25460000D02*
X40620000Y-24072000D01*
X40620000Y-28928000D02*
X40620000Y-27540000D01*
X40660000Y-25460000D02*
X40660000Y-24058000D01*
X40660000Y-28942000D02*
X40660000Y-27540000D01*
X40700000Y-25460000D02*
X40700000Y-24045000D01*
X40700000Y-28955000D02*
X40700000Y-27540000D01*
X40740000Y-25460000D02*
X40740000Y-24033000D01*
X40740000Y-28967000D02*
X40740000Y-27540000D01*
X40780000Y-25460000D02*
X40780000Y-24021000D01*
X40780000Y-28979000D02*
X40780000Y-27540000D01*
X40820000Y-25460000D02*
X40820000Y-24010000D01*
X40820000Y-28990000D02*
X40820000Y-27540000D01*
X40860000Y-25460000D02*
X40860000Y-23999000D01*
X40860000Y-29001000D02*
X40860000Y-27540000D01*
X40900000Y-25460000D02*
X40900000Y-23990000D01*
X40900000Y-29010000D02*
X40900000Y-27540000D01*
X40940000Y-25460000D02*
X40940000Y-23981000D01*
X40940000Y-29019000D02*
X40940000Y-27540000D01*
X40980000Y-25460000D02*
X40980000Y-23972000D01*
X40980000Y-29028000D02*
X40980000Y-27540000D01*
X41020000Y-25460000D02*
X41020000Y-23964000D01*
X41020000Y-29036000D02*
X41020000Y-27540000D01*
X41060000Y-25460000D02*
X41060000Y-23957000D01*
X41060000Y-29043000D02*
X41060000Y-27540000D01*
X41100000Y-25460000D02*
X41100000Y-23951000D01*
X41100000Y-29049000D02*
X41100000Y-27540000D01*
X41140000Y-25460000D02*
X41140000Y-23945000D01*
X41140000Y-29055000D02*
X41140000Y-27540000D01*
X41180000Y-25460000D02*
X41180000Y-23940000D01*
X41180000Y-29060000D02*
X41180000Y-27540000D01*
X41220000Y-25460000D02*
X41220000Y-23935000D01*
X41220000Y-29065000D02*
X41220000Y-27540000D01*
X41260000Y-25460000D02*
X41260000Y-23931000D01*
X41260000Y-29069000D02*
X41260000Y-27540000D01*
X41300000Y-25460000D02*
X41300000Y-23928000D01*
X41300000Y-29072000D02*
X41300000Y-27540000D01*
X41340000Y-25460000D02*
X41340000Y-23925000D01*
X41340000Y-29075000D02*
X41340000Y-27540000D01*
X41380000Y-25460000D02*
X41380000Y-23923000D01*
X41380000Y-29077000D02*
X41380000Y-27540000D01*
X41420000Y-25460000D02*
X41420000Y-23921000D01*
X41420000Y-29079000D02*
X41420000Y-27540000D01*
X41460000Y-25460000D02*
X41460000Y-23920000D01*
X41460000Y-29080000D02*
X41460000Y-27540000D01*
X41500000Y-25460000D02*
X41500000Y-23920000D01*
X41500000Y-29080000D02*
X41500000Y-27540000D01*
X44054775Y-28225000D02*
X44054775Y-27725000D01*
X44304775Y-27975000D02*
X43804775Y-27975000D01*
X44120000Y-26500000D02*
G75*
G02*
X38880000Y-26500000I-2620000J0D01*
G01*
X38880000Y-26500000D02*
G75*
G02*
X44120000Y-26500000I2620000J0D01*
G01*
D11*
%TO.C,Driver1*%
X43750000Y-32150000D02*
X39250000Y-32150000D01*
X43750000Y-37600000D02*
X39250000Y-37600000D01*
D12*
X44540000Y-37955000D02*
X44060000Y-37955000D01*
X44300000Y-37625000D01*
X44540000Y-37955000D01*
G36*
X44540000Y-37955000D02*
G01*
X44060000Y-37955000D01*
X44300000Y-37625000D01*
X44540000Y-37955000D01*
G37*
D11*
%TO.C,D2*%
X55800000Y-35770000D02*
X55800000Y-37230000D01*
X55800000Y-37230000D02*
X58090000Y-37230000D01*
X58090000Y-35770000D02*
X55800000Y-35770000D01*
%TO.C,D3*%
X55800000Y-33270000D02*
X55800000Y-34730000D01*
X55800000Y-34730000D02*
X58090000Y-34730000D01*
X58090000Y-33270000D02*
X55800000Y-33270000D01*
D12*
%TO.C,Motor1*%
X45750000Y-40600000D02*
X45750000Y-41850000D01*
X45750000Y-41850000D02*
X47000000Y-41850000D01*
X46040000Y-26440000D02*
X46040000Y-41560000D01*
X46040000Y-41560000D02*
X52010000Y-41560000D01*
X46050000Y-26450000D02*
X46050000Y-28250000D01*
X46050000Y-28250000D02*
X46800000Y-28250000D01*
X46050000Y-29750000D02*
X46050000Y-38250000D01*
X46050000Y-38250000D02*
X46800000Y-38250000D01*
X46050000Y-39750000D02*
X46050000Y-41550000D01*
X46050000Y-41550000D02*
X46800000Y-41550000D01*
X46800000Y-26450000D02*
X46050000Y-26450000D01*
X46800000Y-28250000D02*
X46800000Y-26450000D01*
X46800000Y-29750000D02*
X46050000Y-29750000D01*
X46800000Y-38250000D02*
X46800000Y-29750000D01*
X46800000Y-39750000D02*
X46050000Y-39750000D01*
X46800000Y-41550000D02*
X46800000Y-39750000D01*
X48300000Y-26450000D02*
X48300000Y-27200000D01*
X48300000Y-27200000D02*
X51250000Y-27200000D01*
X48300000Y-40800000D02*
X51250000Y-40800000D01*
X48300000Y-41550000D02*
X48300000Y-40800000D01*
X51250000Y-27200000D02*
X51250000Y-34000000D01*
X51250000Y-40800000D02*
X51250000Y-34000000D01*
X52010000Y-26440000D02*
X46040000Y-26440000D01*
X52010000Y-41560000D02*
X52010000Y-26440000D01*
D11*
%TO.C,D4*%
X55800000Y-30770000D02*
X55800000Y-32230000D01*
X55800000Y-32230000D02*
X58090000Y-32230000D01*
X58090000Y-30770000D02*
X55800000Y-30770000D01*
D13*
%TO.C,U1*%
X40053002Y-54099700D02*
X43946998Y-54099700D01*
X43946998Y-48740300D02*
X40053002Y-48740300D01*
D14*
G36*
X46159999Y-53235501D02*
G01*
X45905999Y-53235501D01*
X45905999Y-52854501D01*
X46159999Y-52854501D01*
X46159999Y-53235501D01*
G37*
%TD*%
%LPC*%
D15*
%TO.C,Ser2*%
X32500000Y-51250000D03*
D16*
X32500000Y-48750000D03*
X32500000Y-46250000D03*
X32500000Y-43750000D03*
X32500000Y-41250000D03*
X32500000Y-38750000D03*
X32500000Y-36250000D03*
X32500000Y-33750000D03*
X32500000Y-31250000D03*
X32500000Y-28750000D03*
%TD*%
%TO.C,Ser1*%
X24500000Y-28750000D03*
X24500000Y-31250000D03*
X24500000Y-33750000D03*
X24500000Y-36250000D03*
X24500000Y-38750000D03*
X24500000Y-41250000D03*
X24500000Y-43750000D03*
X24500000Y-46250000D03*
X24500000Y-48750000D03*
D15*
X24500000Y-51250000D03*
%TD*%
D17*
%TO.C,Hall1*%
X48500000Y-47500000D03*
D18*
X48500000Y-50040000D03*
X48500000Y-52580000D03*
%TD*%
D19*
%TO.C,H4*%
X57500000Y-57500000D03*
D20*
X57500000Y-57500000D03*
%TD*%
D21*
%TO.C,D1*%
X56500000Y-39000000D03*
X58080000Y-39000000D03*
%TD*%
D22*
%TO.C,C1*%
X44500000Y-47500000D03*
X43500000Y-47500000D03*
%TD*%
D23*
%TO.C,C3*%
X42500000Y-26500000D03*
D24*
X40500000Y-26500000D03*
%TD*%
D25*
%TO.C,Driver1*%
X44275000Y-37150000D03*
X44275000Y-36500000D03*
X44275000Y-35850000D03*
X44275000Y-35200000D03*
X44275000Y-34550000D03*
X44275000Y-33900000D03*
X44275000Y-33250000D03*
X44275000Y-32600000D03*
X38725000Y-32600000D03*
X38725000Y-33250000D03*
X38725000Y-33900000D03*
X38725000Y-34550000D03*
X38725000Y-35200000D03*
X38725000Y-35850000D03*
X38725000Y-36500000D03*
X38725000Y-37150000D03*
D26*
X41500000Y-34875000D03*
%TD*%
D21*
%TO.C,D2*%
X56500000Y-36500000D03*
X58080000Y-36500000D03*
%TD*%
D27*
%TO.C,R2*%
X55110000Y-36500000D03*
X53470000Y-36500000D03*
%TD*%
D22*
%TO.C,R6*%
X46000000Y-55000000D03*
X45000000Y-55000000D03*
%TD*%
D27*
%TO.C,R3*%
X55110000Y-34000000D03*
X53470000Y-34000000D03*
%TD*%
%TO.C,R1*%
X55110000Y-39000000D03*
X53470000Y-39000000D03*
%TD*%
D21*
%TO.C,D3*%
X56500000Y-34000000D03*
X58080000Y-34000000D03*
%TD*%
D19*
%TO.C,H2*%
X57500000Y-22500000D03*
D20*
X57500000Y-22500000D03*
%TD*%
D19*
%TO.C,H3*%
X22500000Y-57500000D03*
D20*
X22500000Y-57500000D03*
%TD*%
D19*
%TO.C,H1*%
X22500000Y-22500000D03*
D20*
X22500000Y-22500000D03*
%TD*%
D15*
%TO.C,Motor1*%
X48500000Y-39000000D03*
D16*
X48500000Y-36500000D03*
X48500000Y-34000000D03*
X48500000Y-31500000D03*
X48500000Y-29000000D03*
%TD*%
D21*
%TO.C,D4*%
X56500000Y-31500000D03*
X58080000Y-31500000D03*
%TD*%
D22*
%TO.C,R5*%
X41500000Y-47500000D03*
X40500000Y-47500000D03*
%TD*%
D27*
%TO.C,R4*%
X55110000Y-31500000D03*
X53470000Y-31500000D03*
%TD*%
D22*
%TO.C,C2*%
X44025000Y-38375000D03*
X43025000Y-38375000D03*
%TD*%
D28*
%TO.C,U1*%
X39079000Y-49145001D03*
X39079000Y-49794999D03*
X39079000Y-50445001D03*
X39079000Y-51094999D03*
X39079000Y-51744998D03*
X39079000Y-52394999D03*
X39079000Y-53044998D03*
X39079000Y-53694999D03*
X44921000Y-53694999D03*
X44921000Y-53045001D03*
X44921000Y-52394999D03*
X44921000Y-51745001D03*
X44921000Y-51095002D03*
X44921000Y-50445001D03*
X44921000Y-49795002D03*
X44921000Y-49145001D03*
%TD*%
%LPD*%
M02*
