%TF.GenerationSoftware,KiCad,Pcbnew,9.0.2*%
%TF.CreationDate,2025-09-02T23:35:07-07:00*%
%TF.ProjectId,driver,64726976-6572-42e6-9b69-6361645f7063,rev?*%
%TF.SameCoordinates,Original*%
%TF.FileFunction,Paste,Top*%
%TF.FilePolarity,Positive*%
%FSLAX46Y46*%
G04 Gerber Fmt 4.6, Leading zero omitted, Abs format (unit mm)*
G04 Created by KiCad (PCBNEW 9.0.2) date 2025-09-02 23:35:07*
%MOMM*%
%LPD*%
G01*
G04 APERTURE LIST*
G04 Aperture macros list*
%AMRoundRect*
0 Rectangle with rounded corners*
0 $1 Rounding radius*
0 $2 $3 $4 $5 $6 $7 $8 $9 X,Y pos of 4 corners*
0 Add a 4 corners polygon primitive as box body*
4,1,4,$2,$3,$4,$5,$6,$7,$8,$9,$2,$3,0*
0 Add four circle primitives for the rounded corners*
1,1,$1+$1,$2,$3*
1,1,$1+$1,$4,$5*
1,1,$1+$1,$6,$7*
1,1,$1+$1,$8,$9*
0 Add four rect primitives between the rounded corners*
20,1,$1+$1,$2,$3,$4,$5,0*
20,1,$1+$1,$4,$5,$6,$7,0*
20,1,$1+$1,$6,$7,$8,$9,0*
20,1,$1+$1,$8,$9,$2,$3,0*%
G04 Aperture macros list end*
%ADD10R,0.558800X2.184400*%
%ADD11R,1.981200X0.558800*%
%ADD12RoundRect,0.250000X-0.250000X-0.475000X0.250000X-0.475000X0.250000X0.475000X-0.250000X0.475000X0*%
%ADD13RoundRect,0.200000X-0.200000X-0.275000X0.200000X-0.275000X0.200000X0.275000X-0.200000X0.275000X0*%
%ADD14RoundRect,0.218750X-0.218750X-0.256250X0.218750X-0.256250X0.218750X0.256250X-0.218750X0.256250X0*%
%ADD15RoundRect,0.250000X0.250000X0.475000X-0.250000X0.475000X-0.250000X-0.475000X0.250000X-0.475000X0*%
G04 APERTURE END LIST*
D10*
%TO.C,PISO1*%
X47110000Y-64362200D03*
X48380000Y-64362200D03*
X49650000Y-64362200D03*
X50920000Y-64362200D03*
X52190000Y-64362200D03*
X53460000Y-64362200D03*
X54730000Y-64362200D03*
X56000000Y-64362200D03*
X56000000Y-59637800D03*
X54730000Y-59637800D03*
X53460000Y-59637800D03*
X52190000Y-59637800D03*
X50920000Y-59637800D03*
X49650000Y-59637800D03*
X48380000Y-59637800D03*
X47110000Y-59637800D03*
%TD*%
D11*
%TO.C,Driver1*%
X56000000Y-50430000D03*
X56000000Y-49160000D03*
X56000000Y-47890000D03*
X56000000Y-46620000D03*
X56000000Y-45350000D03*
X56000000Y-44080000D03*
X56000000Y-42810000D03*
X56000000Y-41540000D03*
X56000000Y-40270000D03*
X56000000Y-39000000D03*
X46627400Y-39000000D03*
X46627400Y-40270000D03*
X46627400Y-41540000D03*
X46627400Y-42810000D03*
X46627400Y-44080000D03*
X46627400Y-45350000D03*
X46627400Y-46620000D03*
X46627400Y-47890000D03*
X46627400Y-49160000D03*
X46627400Y-50430000D03*
%TD*%
D12*
%TO.C,C3*%
X50100000Y-53000000D03*
X52000000Y-53000000D03*
%TD*%
D13*
%TO.C,R4*%
X59350000Y-52000000D03*
X61000000Y-52000000D03*
%TD*%
%TO.C,R3*%
X59350000Y-48000000D03*
X61000000Y-48000000D03*
%TD*%
D14*
%TO.C,D1*%
X59425000Y-38000000D03*
X61000000Y-38000000D03*
%TD*%
D12*
%TO.C,C2*%
X47050000Y-57000000D03*
X48950000Y-57000000D03*
%TD*%
D14*
%TO.C,D2*%
X59425000Y-42000000D03*
X61000000Y-42000000D03*
%TD*%
%TO.C,D3*%
X59425000Y-46000000D03*
X61000000Y-46000000D03*
%TD*%
D13*
%TO.C,R2*%
X59350000Y-44000000D03*
X61000000Y-44000000D03*
%TD*%
D15*
%TO.C,C1*%
X55950000Y-53000000D03*
X54050000Y-53000000D03*
%TD*%
D14*
%TO.C,D4*%
X59425000Y-49849000D03*
X61000000Y-49849000D03*
%TD*%
D13*
%TO.C,R5*%
X46175000Y-53000000D03*
X47825000Y-53000000D03*
%TD*%
%TO.C,R1*%
X59350000Y-40000000D03*
X61000000Y-40000000D03*
%TD*%
M02*
