M48
; DRILL file {KiCad 9.0.2} date 2025-09-02T23:35:10-0700
; FORMAT={-:-/ absolute / metric / decimal}
; #@! TF.CreationDate,2025-09-02T23:35:10-07:00
; #@! TF.GenerationSoftware,Kicad,Pcbnew,9.0.2
; #@! TF.FileFunction,Plated,1,2,PTH
FMAT,2
METRIC
; #@! TA.AperFunction,Plated,PTH,ViaDrill
T1C0.300
; #@! TA.AperFunction,Plated,PTH,ComponentDrill
T2C0.950
; #@! TA.AperFunction,Plated,PTH,ComponentDrill
T3C1.000
%
G90
G05
T1
X51.0Y-44.0
X51.0Y-57.0
X58.0Y-65.0
T2
X33.5Y-40.0
X33.5Y-42.5
X33.5Y-45.0
X33.5Y-47.5
X33.5Y-50.0
X33.5Y-52.5
X33.5Y-55.0
X33.5Y-57.5
X33.5Y-60.0
X41.0Y-40.0
X41.0Y-42.5
X41.0Y-45.0
X41.0Y-47.5
X41.0Y-50.0
X41.0Y-52.5
X41.0Y-55.0
X41.0Y-57.5
X41.0Y-60.0
X66.398Y-39.849
X66.398Y-42.349
X66.398Y-44.849
X66.398Y-47.349
X66.398Y-49.849
T3
X64.0Y-57.0
X64.0Y-59.54
X64.0Y-62.08
M30
