%TF.GenerationSoftware,KiCad,Pcbnew,9.0.2*%
%TF.CreationDate,2025-09-02T23:35:07-07:00*%
%TF.ProjectId,driver,64726976-6572-42e6-9b69-6361645f7063,rev?*%
%TF.SameCoordinates,Original*%
%TF.FileFunction,Copper,L2,Bot*%
%TF.FilePolarity,Positive*%
%FSLAX46Y46*%
G04 Gerber Fmt 4.6, Leading zero omitted, Abs format (unit mm)*
G04 Created by KiCad (PCBNEW 9.0.2) date 2025-09-02 23:35:07*
%MOMM*%
%LPD*%
G01*
G04 APERTURE LIST*
G04 Aperture macros list*
%AMRoundRect*
0 Rectangle with rounded corners*
0 $1 Rounding radius*
0 $2 $3 $4 $5 $6 $7 $8 $9 X,Y pos of 4 corners*
0 Add a 4 corners polygon primitive as box body*
4,1,4,$2,$3,$4,$5,$6,$7,$8,$9,$2,$3,0*
0 Add four circle primitives for the rounded corners*
1,1,$1+$1,$2,$3*
1,1,$1+$1,$4,$5*
1,1,$1+$1,$6,$7*
1,1,$1+$1,$8,$9*
0 Add four rect primitives between the rounded corners*
20,1,$1+$1,$2,$3,$4,$5,0*
20,1,$1+$1,$4,$5,$6,$7,0*
20,1,$1+$1,$6,$7,$8,$9,0*
20,1,$1+$1,$8,$9,$2,$3,0*%
G04 Aperture macros list end*
%TA.AperFunction,ComponentPad*%
%ADD10RoundRect,0.250000X-0.725000X0.600000X-0.725000X-0.600000X0.725000X-0.600000X0.725000X0.600000X0*%
%TD*%
%TA.AperFunction,ComponentPad*%
%ADD11O,1.950000X1.700000*%
%TD*%
%TA.AperFunction,ComponentPad*%
%ADD12R,1.700000X1.700000*%
%TD*%
%TA.AperFunction,ComponentPad*%
%ADD13C,1.700000*%
%TD*%
%TA.AperFunction,ComponentPad*%
%ADD14RoundRect,0.250000X0.725000X-0.600000X0.725000X0.600000X-0.725000X0.600000X-0.725000X-0.600000X0*%
%TD*%
%TA.AperFunction,ViaPad*%
%ADD15C,0.600000*%
%TD*%
G04 APERTURE END LIST*
D10*
%TO.P,Motor1,1,Pin_1*%
%TO.N,+12V*%
X66398240Y-39849000D03*
D11*
%TO.P,Motor1,2,Pin_2*%
%TO.N,Net-(D1-K)*%
X66398240Y-42349000D03*
%TO.P,Motor1,3,Pin_3*%
%TO.N,Net-(D2-K)*%
X66398240Y-44849000D03*
%TO.P,Motor1,4,Pin_4*%
%TO.N,Net-(D3-K)*%
X66398240Y-47349000D03*
%TO.P,Motor1,5,Pin_5*%
%TO.N,Net-(D4-K)*%
X66398240Y-49849000D03*
%TD*%
D12*
%TO.P,Hall1,1,Pin_1*%
%TO.N,GND*%
X64000000Y-57000000D03*
D13*
%TO.P,Hall1,2,Pin_2*%
%TO.N,+5V*%
X64000000Y-59540000D03*
%TO.P,Hall1,3,Pin_3*%
%TO.N,Net-(Hall1-Pin_3)*%
X64000000Y-62080000D03*
%TD*%
D14*
%TO.P,Peri1,1,Pin_1*%
%TO.N,GND*%
X33500000Y-60000000D03*
D11*
%TO.P,Peri1,2,Pin_2*%
%TO.N,+5V*%
X33500000Y-57500000D03*
%TO.P,Peri1,3,Pin_3*%
%TO.N,/PI*%
X33500000Y-55000000D03*
%TO.P,Peri1,4,Pin_4*%
%TO.N,/LD*%
X33500000Y-52500000D03*
%TO.P,Peri1,5,Pin_5*%
%TO.N,/CIPO*%
X33500000Y-50000000D03*
%TO.P,Peri1,6,Pin_6*%
%TO.N,/CLK*%
X33500000Y-47500000D03*
%TO.P,Peri1,7,Pin_7*%
%TO.N,/LCH*%
X33500000Y-45000000D03*
%TO.P,Peri1,8,Pin_8*%
%TO.N,/NOE*%
X33500000Y-42500000D03*
%TO.P,Peri1,9,Pin_9*%
%TO.N,+12V*%
X33500000Y-40000000D03*
%TD*%
D14*
%TO.P,Ctrl1,1,Pin_1*%
%TO.N,GND*%
X41000000Y-60000000D03*
D11*
%TO.P,Ctrl1,2,Pin_2*%
%TO.N,+5V*%
X41000000Y-57500000D03*
%TO.P,Ctrl1,3,Pin_3*%
%TO.N,/CO*%
X41000000Y-55000000D03*
%TO.P,Ctrl1,4,Pin_4*%
%TO.N,/LD*%
X41000000Y-52500000D03*
%TO.P,Ctrl1,5,Pin_5*%
%TO.N,/CIPO*%
X41000000Y-50000000D03*
%TO.P,Ctrl1,6,Pin_6*%
%TO.N,/CLK*%
X41000000Y-47500000D03*
%TO.P,Ctrl1,7,Pin_7*%
%TO.N,/LCH*%
X41000000Y-45000000D03*
%TO.P,Ctrl1,8,Pin_8*%
%TO.N,/NOE*%
X41000000Y-42500000D03*
%TO.P,Ctrl1,9,Pin_9*%
%TO.N,+12V*%
X41000000Y-40000000D03*
%TD*%
D15*
%TO.N,GND*%
X58000000Y-65000000D03*
X51000000Y-44000000D03*
X51000000Y-57000000D03*
%TD*%
%TA.AperFunction,Conductor*%
%TO.N,GND*%
G36*
X69442539Y-30520185D02*
G01*
X69488294Y-30572989D01*
X69499500Y-30624500D01*
X69499500Y-69375500D01*
X69479815Y-69442539D01*
X69427011Y-69488294D01*
X69375500Y-69499500D01*
X30624500Y-69499500D01*
X30557461Y-69479815D01*
X30511706Y-69427011D01*
X30500500Y-69375500D01*
X30500500Y-66893713D01*
X31649500Y-66893713D01*
X31649500Y-67106286D01*
X31682753Y-67316239D01*
X31748444Y-67518414D01*
X31844951Y-67707820D01*
X31969890Y-67879786D01*
X32120213Y-68030109D01*
X32292179Y-68155048D01*
X32292181Y-68155049D01*
X32292184Y-68155051D01*
X32481588Y-68251557D01*
X32683757Y-68317246D01*
X32893713Y-68350500D01*
X32893714Y-68350500D01*
X33106286Y-68350500D01*
X33106287Y-68350500D01*
X33316243Y-68317246D01*
X33518412Y-68251557D01*
X33707816Y-68155051D01*
X33729789Y-68139086D01*
X33879786Y-68030109D01*
X33879788Y-68030106D01*
X33879792Y-68030104D01*
X34030104Y-67879792D01*
X34030106Y-67879788D01*
X34030109Y-67879786D01*
X34155048Y-67707820D01*
X34155047Y-67707820D01*
X34155051Y-67707816D01*
X34251557Y-67518412D01*
X34317246Y-67316243D01*
X34350500Y-67106287D01*
X34350500Y-66893713D01*
X65649500Y-66893713D01*
X65649500Y-67106286D01*
X65682753Y-67316239D01*
X65748444Y-67518414D01*
X65844951Y-67707820D01*
X65969890Y-67879786D01*
X66120213Y-68030109D01*
X66292179Y-68155048D01*
X66292181Y-68155049D01*
X66292184Y-68155051D01*
X66481588Y-68251557D01*
X66683757Y-68317246D01*
X66893713Y-68350500D01*
X66893714Y-68350500D01*
X67106286Y-68350500D01*
X67106287Y-68350500D01*
X67316243Y-68317246D01*
X67518412Y-68251557D01*
X67707816Y-68155051D01*
X67729789Y-68139086D01*
X67879786Y-68030109D01*
X67879788Y-68030106D01*
X67879792Y-68030104D01*
X68030104Y-67879792D01*
X68030106Y-67879788D01*
X68030109Y-67879786D01*
X68155048Y-67707820D01*
X68155047Y-67707820D01*
X68155051Y-67707816D01*
X68251557Y-67518412D01*
X68317246Y-67316243D01*
X68350500Y-67106287D01*
X68350500Y-66893713D01*
X68317246Y-66683757D01*
X68251557Y-66481588D01*
X68155051Y-66292184D01*
X68155049Y-66292181D01*
X68155048Y-66292179D01*
X68030109Y-66120213D01*
X67879786Y-65969890D01*
X67707820Y-65844951D01*
X67518414Y-65748444D01*
X67518413Y-65748443D01*
X67518412Y-65748443D01*
X67316243Y-65682754D01*
X67316241Y-65682753D01*
X67316240Y-65682753D01*
X67154957Y-65657208D01*
X67106287Y-65649500D01*
X66893713Y-65649500D01*
X66845042Y-65657208D01*
X66683760Y-65682753D01*
X66481585Y-65748444D01*
X66292179Y-65844951D01*
X66120213Y-65969890D01*
X65969890Y-66120213D01*
X65844951Y-66292179D01*
X65748444Y-66481585D01*
X65682753Y-66683760D01*
X65649500Y-66893713D01*
X34350500Y-66893713D01*
X34317246Y-66683757D01*
X34251557Y-66481588D01*
X34155051Y-66292184D01*
X34155049Y-66292181D01*
X34155048Y-66292179D01*
X34030109Y-66120213D01*
X33879786Y-65969890D01*
X33707820Y-65844951D01*
X33518414Y-65748444D01*
X33518413Y-65748443D01*
X33518412Y-65748443D01*
X33316243Y-65682754D01*
X33316241Y-65682753D01*
X33316240Y-65682753D01*
X33154957Y-65657208D01*
X33106287Y-65649500D01*
X32893713Y-65649500D01*
X32845042Y-65657208D01*
X32683760Y-65682753D01*
X32481585Y-65748444D01*
X32292179Y-65844951D01*
X32120213Y-65969890D01*
X31969890Y-66120213D01*
X31844951Y-66292179D01*
X31748444Y-66481585D01*
X31682753Y-66683760D01*
X31649500Y-66893713D01*
X30500500Y-66893713D01*
X30500500Y-39893713D01*
X32024500Y-39893713D01*
X32024500Y-40106287D01*
X32057754Y-40316243D01*
X32117141Y-40499018D01*
X32123444Y-40518414D01*
X32219951Y-40707820D01*
X32344890Y-40879786D01*
X32495209Y-41030105D01*
X32495214Y-41030109D01*
X32659793Y-41149682D01*
X32702459Y-41205011D01*
X32708438Y-41274625D01*
X32675833Y-41336420D01*
X32659793Y-41350318D01*
X32495214Y-41469890D01*
X32495209Y-41469894D01*
X32344890Y-41620213D01*
X32219951Y-41792179D01*
X32123444Y-41981585D01*
X32057753Y-42183760D01*
X32024500Y-42393713D01*
X32024500Y-42606286D01*
X32057753Y-42816239D01*
X32123444Y-43018414D01*
X32219951Y-43207820D01*
X32344890Y-43379786D01*
X32495209Y-43530105D01*
X32495214Y-43530109D01*
X32659793Y-43649682D01*
X32702459Y-43705011D01*
X32708438Y-43774625D01*
X32675833Y-43836420D01*
X32659793Y-43850318D01*
X32495214Y-43969890D01*
X32495209Y-43969894D01*
X32344890Y-44120213D01*
X32219951Y-44292179D01*
X32123444Y-44481585D01*
X32057753Y-44683760D01*
X32024500Y-44893713D01*
X32024500Y-45106286D01*
X32057753Y-45316239D01*
X32123444Y-45518414D01*
X32219951Y-45707820D01*
X32344890Y-45879786D01*
X32495209Y-46030105D01*
X32495214Y-46030109D01*
X32659793Y-46149682D01*
X32702459Y-46205011D01*
X32708438Y-46274625D01*
X32675833Y-46336420D01*
X32659793Y-46350318D01*
X32495214Y-46469890D01*
X32495209Y-46469894D01*
X32344890Y-46620213D01*
X32219951Y-46792179D01*
X32123444Y-46981585D01*
X32057753Y-47183760D01*
X32024500Y-47393713D01*
X32024500Y-47606286D01*
X32057753Y-47816239D01*
X32123444Y-48018414D01*
X32219951Y-48207820D01*
X32344890Y-48379786D01*
X32495209Y-48530105D01*
X32495214Y-48530109D01*
X32659793Y-48649682D01*
X32702459Y-48705011D01*
X32708438Y-48774625D01*
X32675833Y-48836420D01*
X32659793Y-48850318D01*
X32495214Y-48969890D01*
X32495209Y-48969894D01*
X32344890Y-49120213D01*
X32219951Y-49292179D01*
X32123444Y-49481585D01*
X32057753Y-49683760D01*
X32024500Y-49893713D01*
X32024500Y-50106286D01*
X32057753Y-50316239D01*
X32123444Y-50518414D01*
X32219951Y-50707820D01*
X32344890Y-50879786D01*
X32495209Y-51030105D01*
X32495214Y-51030109D01*
X32659793Y-51149682D01*
X32702459Y-51205011D01*
X32708438Y-51274625D01*
X32675833Y-51336420D01*
X32659793Y-51350318D01*
X32495214Y-51469890D01*
X32495209Y-51469894D01*
X32344890Y-51620213D01*
X32219951Y-51792179D01*
X32123444Y-51981585D01*
X32057753Y-52183760D01*
X32024500Y-52393713D01*
X32024500Y-52606286D01*
X32057753Y-52816239D01*
X32123444Y-53018414D01*
X32219951Y-53207820D01*
X32344890Y-53379786D01*
X32495209Y-53530105D01*
X32495214Y-53530109D01*
X32659793Y-53649682D01*
X32702459Y-53705011D01*
X32708438Y-53774625D01*
X32675833Y-53836420D01*
X32659793Y-53850318D01*
X32495214Y-53969890D01*
X32495209Y-53969894D01*
X32344890Y-54120213D01*
X32219951Y-54292179D01*
X32123444Y-54481585D01*
X32057753Y-54683760D01*
X32024500Y-54893713D01*
X32024500Y-55106286D01*
X32057753Y-55316239D01*
X32123444Y-55518414D01*
X32219951Y-55707820D01*
X32344890Y-55879786D01*
X32495209Y-56030105D01*
X32495214Y-56030109D01*
X32659793Y-56149682D01*
X32702459Y-56205011D01*
X32708438Y-56274625D01*
X32675833Y-56336420D01*
X32659793Y-56350318D01*
X32495214Y-56469890D01*
X32495209Y-56469894D01*
X32344890Y-56620213D01*
X32219951Y-56792179D01*
X32123444Y-56981585D01*
X32057753Y-57183760D01*
X32056291Y-57192993D01*
X32024500Y-57393713D01*
X32024500Y-57606287D01*
X32057754Y-57816243D01*
X32084262Y-57897827D01*
X32123444Y-58018414D01*
X32219951Y-58207820D01*
X32344890Y-58379786D01*
X32484068Y-58518964D01*
X32517553Y-58580287D01*
X32512569Y-58649979D01*
X32470697Y-58705912D01*
X32461484Y-58712183D01*
X32306659Y-58807680D01*
X32306655Y-58807683D01*
X32182684Y-58931654D01*
X32090643Y-59080875D01*
X32090641Y-59080880D01*
X32035494Y-59247302D01*
X32035493Y-59247309D01*
X32025000Y-59350013D01*
X32025000Y-59750000D01*
X33095854Y-59750000D01*
X33057370Y-59816657D01*
X33025000Y-59937465D01*
X33025000Y-60062535D01*
X33057370Y-60183343D01*
X33095854Y-60250000D01*
X32025001Y-60250000D01*
X32025001Y-60649986D01*
X32035494Y-60752697D01*
X32090641Y-60919119D01*
X32090643Y-60919124D01*
X32182684Y-61068345D01*
X32306654Y-61192315D01*
X32455875Y-61284356D01*
X32455880Y-61284358D01*
X32622302Y-61339505D01*
X32622309Y-61339506D01*
X32725019Y-61349999D01*
X33249999Y-61349999D01*
X33250000Y-61349998D01*
X33250000Y-60404145D01*
X33316657Y-60442630D01*
X33437465Y-60475000D01*
X33562535Y-60475000D01*
X33683343Y-60442630D01*
X33750000Y-60404145D01*
X33750000Y-61349999D01*
X34274972Y-61349999D01*
X34274986Y-61349998D01*
X34377697Y-61339505D01*
X34544119Y-61284358D01*
X34544124Y-61284356D01*
X34693345Y-61192315D01*
X34817315Y-61068345D01*
X34909356Y-60919124D01*
X34909358Y-60919119D01*
X34964505Y-60752697D01*
X34964506Y-60752690D01*
X34974999Y-60649986D01*
X34975000Y-60649973D01*
X34975000Y-60250000D01*
X33904146Y-60250000D01*
X33942630Y-60183343D01*
X33975000Y-60062535D01*
X33975000Y-59937465D01*
X33942630Y-59816657D01*
X33904146Y-59750000D01*
X34974999Y-59750000D01*
X34974999Y-59350028D01*
X34974998Y-59350013D01*
X34964505Y-59247302D01*
X34909358Y-59080880D01*
X34909356Y-59080875D01*
X34817315Y-58931654D01*
X34693345Y-58807684D01*
X34538515Y-58712184D01*
X34491791Y-58660236D01*
X34480568Y-58591273D01*
X34508412Y-58527191D01*
X34515909Y-58518986D01*
X34655104Y-58379792D01*
X34721473Y-58288443D01*
X34780048Y-58207820D01*
X34780047Y-58207820D01*
X34780051Y-58207816D01*
X34876557Y-58018412D01*
X34942246Y-57816243D01*
X34975500Y-57606287D01*
X34975500Y-57393713D01*
X34942246Y-57183757D01*
X34876557Y-56981588D01*
X34780051Y-56792184D01*
X34780049Y-56792181D01*
X34780048Y-56792179D01*
X34655109Y-56620213D01*
X34504792Y-56469896D01*
X34504784Y-56469890D01*
X34340204Y-56350316D01*
X34297540Y-56294989D01*
X34291561Y-56225376D01*
X34324166Y-56163580D01*
X34340199Y-56149686D01*
X34504792Y-56030104D01*
X34655104Y-55879792D01*
X34655106Y-55879788D01*
X34655109Y-55879786D01*
X34780048Y-55707820D01*
X34780047Y-55707820D01*
X34780051Y-55707816D01*
X34876557Y-55518412D01*
X34942246Y-55316243D01*
X34975500Y-55106287D01*
X34975500Y-54893713D01*
X34942246Y-54683757D01*
X34876557Y-54481588D01*
X34780051Y-54292184D01*
X34780049Y-54292181D01*
X34780048Y-54292179D01*
X34655109Y-54120213D01*
X34504792Y-53969896D01*
X34504784Y-53969890D01*
X34340204Y-53850316D01*
X34297540Y-53794989D01*
X34291561Y-53725376D01*
X34324166Y-53663580D01*
X34340199Y-53649686D01*
X34504792Y-53530104D01*
X34655104Y-53379792D01*
X34655106Y-53379788D01*
X34655109Y-53379786D01*
X34780048Y-53207820D01*
X34780047Y-53207820D01*
X34780051Y-53207816D01*
X34876557Y-53018412D01*
X34942246Y-52816243D01*
X34975500Y-52606287D01*
X34975500Y-52393713D01*
X34942246Y-52183757D01*
X34876557Y-51981588D01*
X34780051Y-51792184D01*
X34780049Y-51792181D01*
X34780048Y-51792179D01*
X34655109Y-51620213D01*
X34504792Y-51469896D01*
X34504784Y-51469890D01*
X34340204Y-51350316D01*
X34297540Y-51294989D01*
X34291561Y-51225376D01*
X34324166Y-51163580D01*
X34340199Y-51149686D01*
X34504792Y-51030104D01*
X34655104Y-50879792D01*
X34655106Y-50879788D01*
X34655109Y-50879786D01*
X34780048Y-50707820D01*
X34780047Y-50707820D01*
X34780051Y-50707816D01*
X34876557Y-50518412D01*
X34942246Y-50316243D01*
X34975500Y-50106287D01*
X34975500Y-49893713D01*
X34942246Y-49683757D01*
X34876557Y-49481588D01*
X34780051Y-49292184D01*
X34780049Y-49292181D01*
X34780048Y-49292179D01*
X34655109Y-49120213D01*
X34504792Y-48969896D01*
X34503845Y-48969208D01*
X34340204Y-48850316D01*
X34297540Y-48794989D01*
X34291561Y-48725376D01*
X34324166Y-48663580D01*
X34340199Y-48649686D01*
X34504792Y-48530104D01*
X34655104Y-48379792D01*
X34655106Y-48379788D01*
X34655109Y-48379786D01*
X34780048Y-48207820D01*
X34780047Y-48207820D01*
X34780051Y-48207816D01*
X34876557Y-48018412D01*
X34942246Y-47816243D01*
X34975500Y-47606287D01*
X34975500Y-47393713D01*
X34942246Y-47183757D01*
X34876557Y-46981588D01*
X34780051Y-46792184D01*
X34780049Y-46792181D01*
X34780048Y-46792179D01*
X34655109Y-46620213D01*
X34504792Y-46469896D01*
X34503845Y-46469208D01*
X34340204Y-46350316D01*
X34297540Y-46294989D01*
X34291561Y-46225376D01*
X34324166Y-46163580D01*
X34340199Y-46149686D01*
X34504792Y-46030104D01*
X34655104Y-45879792D01*
X34655106Y-45879788D01*
X34655109Y-45879786D01*
X34780048Y-45707820D01*
X34780047Y-45707820D01*
X34780051Y-45707816D01*
X34876557Y-45518412D01*
X34942246Y-45316243D01*
X34975500Y-45106287D01*
X34975500Y-44893713D01*
X34942246Y-44683757D01*
X34876557Y-44481588D01*
X34780051Y-44292184D01*
X34780049Y-44292181D01*
X34780048Y-44292179D01*
X34655109Y-44120213D01*
X34504792Y-43969896D01*
X34503845Y-43969208D01*
X34340204Y-43850316D01*
X34297540Y-43794989D01*
X34291561Y-43725376D01*
X34324166Y-43663580D01*
X34340199Y-43649686D01*
X34504792Y-43530104D01*
X34655104Y-43379792D01*
X34655106Y-43379788D01*
X34655109Y-43379786D01*
X34780048Y-43207820D01*
X34780047Y-43207820D01*
X34780051Y-43207816D01*
X34876557Y-43018412D01*
X34942246Y-42816243D01*
X34975500Y-42606287D01*
X34975500Y-42393713D01*
X34942246Y-42183757D01*
X34876557Y-41981588D01*
X34780051Y-41792184D01*
X34780049Y-41792181D01*
X34780048Y-41792179D01*
X34655109Y-41620213D01*
X34504792Y-41469896D01*
X34503845Y-41469208D01*
X34340204Y-41350316D01*
X34297540Y-41294989D01*
X34291561Y-41225376D01*
X34324166Y-41163580D01*
X34340199Y-41149686D01*
X34504792Y-41030104D01*
X34655104Y-40879792D01*
X34655106Y-40879788D01*
X34655109Y-40879786D01*
X34780048Y-40707820D01*
X34780047Y-40707820D01*
X34780051Y-40707816D01*
X34876557Y-40518412D01*
X34942246Y-40316243D01*
X34975500Y-40106287D01*
X34975500Y-39893713D01*
X39524500Y-39893713D01*
X39524500Y-40106287D01*
X39557754Y-40316243D01*
X39617141Y-40499018D01*
X39623444Y-40518414D01*
X39719951Y-40707820D01*
X39844890Y-40879786D01*
X39995209Y-41030105D01*
X39995214Y-41030109D01*
X40159793Y-41149682D01*
X40202459Y-41205011D01*
X40208438Y-41274625D01*
X40175833Y-41336420D01*
X40159793Y-41350318D01*
X39995214Y-41469890D01*
X39995209Y-41469894D01*
X39844890Y-41620213D01*
X39719951Y-41792179D01*
X39623444Y-41981585D01*
X39557753Y-42183760D01*
X39524500Y-42393713D01*
X39524500Y-42606286D01*
X39557753Y-42816239D01*
X39623444Y-43018414D01*
X39719951Y-43207820D01*
X39844890Y-43379786D01*
X39995209Y-43530105D01*
X39995214Y-43530109D01*
X40159793Y-43649682D01*
X40202459Y-43705011D01*
X40208438Y-43774625D01*
X40175833Y-43836420D01*
X40159793Y-43850318D01*
X39995214Y-43969890D01*
X39995209Y-43969894D01*
X39844890Y-44120213D01*
X39719951Y-44292179D01*
X39623444Y-44481585D01*
X39557753Y-44683760D01*
X39524500Y-44893713D01*
X39524500Y-45106286D01*
X39557753Y-45316239D01*
X39623444Y-45518414D01*
X39719951Y-45707820D01*
X39844890Y-45879786D01*
X39995209Y-46030105D01*
X39995214Y-46030109D01*
X40159793Y-46149682D01*
X40202459Y-46205011D01*
X40208438Y-46274625D01*
X40175833Y-46336420D01*
X40159793Y-46350318D01*
X39995214Y-46469890D01*
X39995209Y-46469894D01*
X39844890Y-46620213D01*
X39719951Y-46792179D01*
X39623444Y-46981585D01*
X39557753Y-47183760D01*
X39524500Y-47393713D01*
X39524500Y-47606286D01*
X39557753Y-47816239D01*
X39623444Y-48018414D01*
X39719951Y-48207820D01*
X39844890Y-48379786D01*
X39995209Y-48530105D01*
X39995214Y-48530109D01*
X40159793Y-48649682D01*
X40202459Y-48705011D01*
X40208438Y-48774625D01*
X40175833Y-48836420D01*
X40159793Y-48850318D01*
X39995214Y-48969890D01*
X39995209Y-48969894D01*
X39844890Y-49120213D01*
X39719951Y-49292179D01*
X39623444Y-49481585D01*
X39557753Y-49683760D01*
X39524500Y-49893713D01*
X39524500Y-50106286D01*
X39557753Y-50316239D01*
X39623444Y-50518414D01*
X39719951Y-50707820D01*
X39844890Y-50879786D01*
X39995209Y-51030105D01*
X39995214Y-51030109D01*
X40159793Y-51149682D01*
X40202459Y-51205011D01*
X40208438Y-51274625D01*
X40175833Y-51336420D01*
X40159793Y-51350318D01*
X39995214Y-51469890D01*
X39995209Y-51469894D01*
X39844890Y-51620213D01*
X39719951Y-51792179D01*
X39623444Y-51981585D01*
X39557753Y-52183760D01*
X39524500Y-52393713D01*
X39524500Y-52606286D01*
X39557753Y-52816239D01*
X39623444Y-53018414D01*
X39719951Y-53207820D01*
X39844890Y-53379786D01*
X39995209Y-53530105D01*
X39995214Y-53530109D01*
X40159793Y-53649682D01*
X40202459Y-53705011D01*
X40208438Y-53774625D01*
X40175833Y-53836420D01*
X40159793Y-53850318D01*
X39995214Y-53969890D01*
X39995209Y-53969894D01*
X39844890Y-54120213D01*
X39719951Y-54292179D01*
X39623444Y-54481585D01*
X39557753Y-54683760D01*
X39524500Y-54893713D01*
X39524500Y-55106286D01*
X39557753Y-55316239D01*
X39623444Y-55518414D01*
X39719951Y-55707820D01*
X39844890Y-55879786D01*
X39995209Y-56030105D01*
X39995214Y-56030109D01*
X40159793Y-56149682D01*
X40202459Y-56205011D01*
X40208438Y-56274625D01*
X40175833Y-56336420D01*
X40159793Y-56350318D01*
X39995214Y-56469890D01*
X39995209Y-56469894D01*
X39844890Y-56620213D01*
X39719951Y-56792179D01*
X39623444Y-56981585D01*
X39557753Y-57183760D01*
X39556291Y-57192993D01*
X39524500Y-57393713D01*
X39524500Y-57606287D01*
X39557754Y-57816243D01*
X39584262Y-57897827D01*
X39623444Y-58018414D01*
X39719951Y-58207820D01*
X39844890Y-58379786D01*
X39984068Y-58518964D01*
X40017553Y-58580287D01*
X40012569Y-58649979D01*
X39970697Y-58705912D01*
X39961484Y-58712183D01*
X39806659Y-58807680D01*
X39806655Y-58807683D01*
X39682684Y-58931654D01*
X39590643Y-59080875D01*
X39590641Y-59080880D01*
X39535494Y-59247302D01*
X39535493Y-59247309D01*
X39525000Y-59350013D01*
X39525000Y-59750000D01*
X40595854Y-59750000D01*
X40557370Y-59816657D01*
X40525000Y-59937465D01*
X40525000Y-60062535D01*
X40557370Y-60183343D01*
X40595854Y-60250000D01*
X39525001Y-60250000D01*
X39525001Y-60649986D01*
X39535494Y-60752697D01*
X39590641Y-60919119D01*
X39590643Y-60919124D01*
X39682684Y-61068345D01*
X39806654Y-61192315D01*
X39955875Y-61284356D01*
X39955880Y-61284358D01*
X40122302Y-61339505D01*
X40122309Y-61339506D01*
X40225019Y-61349999D01*
X40749999Y-61349999D01*
X40750000Y-61349998D01*
X40750000Y-60404145D01*
X40816657Y-60442630D01*
X40937465Y-60475000D01*
X41062535Y-60475000D01*
X41183343Y-60442630D01*
X41250000Y-60404145D01*
X41250000Y-61349999D01*
X41774972Y-61349999D01*
X41774986Y-61349998D01*
X41877697Y-61339505D01*
X42044119Y-61284358D01*
X42044124Y-61284356D01*
X42193345Y-61192315D01*
X42317315Y-61068345D01*
X42409356Y-60919124D01*
X42409358Y-60919119D01*
X42464505Y-60752697D01*
X42464506Y-60752690D01*
X42474999Y-60649986D01*
X42475000Y-60649973D01*
X42475000Y-60250000D01*
X41404146Y-60250000D01*
X41442630Y-60183343D01*
X41475000Y-60062535D01*
X41475000Y-59937465D01*
X41442630Y-59816657D01*
X41404146Y-59750000D01*
X42474999Y-59750000D01*
X42474999Y-59433713D01*
X62649500Y-59433713D01*
X62649500Y-59646286D01*
X62682753Y-59856239D01*
X62748444Y-60058414D01*
X62844951Y-60247820D01*
X62969890Y-60419786D01*
X63120213Y-60570109D01*
X63292182Y-60695050D01*
X63300946Y-60699516D01*
X63351742Y-60747491D01*
X63368536Y-60815312D01*
X63345998Y-60881447D01*
X63300946Y-60920484D01*
X63292182Y-60924949D01*
X63120213Y-61049890D01*
X62969890Y-61200213D01*
X62844951Y-61372179D01*
X62748444Y-61561585D01*
X62682753Y-61763760D01*
X62649500Y-61973713D01*
X62649500Y-62186286D01*
X62682753Y-62396239D01*
X62748444Y-62598414D01*
X62844951Y-62787820D01*
X62969890Y-62959786D01*
X63120213Y-63110109D01*
X63292179Y-63235048D01*
X63292181Y-63235049D01*
X63292184Y-63235051D01*
X63481588Y-63331557D01*
X63683757Y-63397246D01*
X63893713Y-63430500D01*
X63893714Y-63430500D01*
X64106286Y-63430500D01*
X64106287Y-63430500D01*
X64316243Y-63397246D01*
X64518412Y-63331557D01*
X64707816Y-63235051D01*
X64729789Y-63219086D01*
X64879786Y-63110109D01*
X64879788Y-63110106D01*
X64879792Y-63110104D01*
X65030104Y-62959792D01*
X65030106Y-62959788D01*
X65030109Y-62959786D01*
X65155048Y-62787820D01*
X65155047Y-62787820D01*
X65155051Y-62787816D01*
X65251557Y-62598412D01*
X65317246Y-62396243D01*
X65350500Y-62186287D01*
X65350500Y-61973713D01*
X65317246Y-61763757D01*
X65251557Y-61561588D01*
X65155051Y-61372184D01*
X65155049Y-61372181D01*
X65155048Y-61372179D01*
X65030109Y-61200213D01*
X64879786Y-61049890D01*
X64707820Y-60924951D01*
X64707115Y-60924591D01*
X64699054Y-60920485D01*
X64648259Y-60872512D01*
X64631463Y-60804692D01*
X64653999Y-60738556D01*
X64699054Y-60699515D01*
X64707816Y-60695051D01*
X64769861Y-60649973D01*
X64879786Y-60570109D01*
X64879788Y-60570106D01*
X64879792Y-60570104D01*
X65030104Y-60419792D01*
X65030106Y-60419788D01*
X65030109Y-60419786D01*
X65155048Y-60247820D01*
X65155047Y-60247820D01*
X65155051Y-60247816D01*
X65251557Y-60058412D01*
X65317246Y-59856243D01*
X65350500Y-59646287D01*
X65350500Y-59433713D01*
X65317246Y-59223757D01*
X65251557Y-59021588D01*
X65155051Y-58832184D01*
X65155049Y-58832181D01*
X65155048Y-58832179D01*
X65030109Y-58660213D01*
X64916181Y-58546285D01*
X64882696Y-58484962D01*
X64887680Y-58415270D01*
X64929552Y-58359337D01*
X64960529Y-58342422D01*
X65092086Y-58293354D01*
X65092093Y-58293350D01*
X65207187Y-58207190D01*
X65207190Y-58207187D01*
X65293350Y-58092093D01*
X65293354Y-58092086D01*
X65343596Y-57957379D01*
X65343598Y-57957372D01*
X65349999Y-57897844D01*
X65350000Y-57897827D01*
X65350000Y-57250000D01*
X64433012Y-57250000D01*
X64465925Y-57192993D01*
X64500000Y-57065826D01*
X64500000Y-56934174D01*
X64465925Y-56807007D01*
X64433012Y-56750000D01*
X65350000Y-56750000D01*
X65350000Y-56102172D01*
X65349999Y-56102155D01*
X65343598Y-56042627D01*
X65343596Y-56042620D01*
X65293354Y-55907913D01*
X65293350Y-55907906D01*
X65207190Y-55792812D01*
X65207187Y-55792809D01*
X65092093Y-55706649D01*
X65092086Y-55706645D01*
X64957379Y-55656403D01*
X64957372Y-55656401D01*
X64897844Y-55650000D01*
X64250000Y-55650000D01*
X64250000Y-56566988D01*
X64192993Y-56534075D01*
X64065826Y-56500000D01*
X63934174Y-56500000D01*
X63807007Y-56534075D01*
X63750000Y-56566988D01*
X63750000Y-55650000D01*
X63102155Y-55650000D01*
X63042627Y-55656401D01*
X63042620Y-55656403D01*
X62907913Y-55706645D01*
X62907906Y-55706649D01*
X62792812Y-55792809D01*
X62792809Y-55792812D01*
X62706649Y-55907906D01*
X62706645Y-55907913D01*
X62656403Y-56042620D01*
X62656401Y-56042627D01*
X62650000Y-56102155D01*
X62650000Y-56750000D01*
X63566988Y-56750000D01*
X63534075Y-56807007D01*
X63500000Y-56934174D01*
X63500000Y-57065826D01*
X63534075Y-57192993D01*
X63566988Y-57250000D01*
X62650000Y-57250000D01*
X62650000Y-57897844D01*
X62656401Y-57957372D01*
X62656403Y-57957379D01*
X62706645Y-58092086D01*
X62706649Y-58092093D01*
X62792809Y-58207187D01*
X62792812Y-58207190D01*
X62907906Y-58293350D01*
X62907913Y-58293354D01*
X63039470Y-58342422D01*
X63095404Y-58384293D01*
X63119821Y-58449758D01*
X63104969Y-58518031D01*
X63083819Y-58546285D01*
X62969889Y-58660215D01*
X62844951Y-58832179D01*
X62748444Y-59021585D01*
X62682753Y-59223760D01*
X62649500Y-59433713D01*
X42474999Y-59433713D01*
X42474999Y-59350028D01*
X42474998Y-59350013D01*
X42464505Y-59247302D01*
X42409358Y-59080880D01*
X42409356Y-59080875D01*
X42317315Y-58931654D01*
X42193345Y-58807684D01*
X42038515Y-58712184D01*
X41991791Y-58660236D01*
X41980568Y-58591273D01*
X42008412Y-58527191D01*
X42015909Y-58518986D01*
X42155104Y-58379792D01*
X42221473Y-58288443D01*
X42280048Y-58207820D01*
X42280047Y-58207820D01*
X42280051Y-58207816D01*
X42376557Y-58018412D01*
X42442246Y-57816243D01*
X42475500Y-57606287D01*
X42475500Y-57393713D01*
X42442246Y-57183757D01*
X42376557Y-56981588D01*
X42280051Y-56792184D01*
X42280049Y-56792181D01*
X42280048Y-56792179D01*
X42155109Y-56620213D01*
X42004792Y-56469896D01*
X42004784Y-56469890D01*
X41840204Y-56350316D01*
X41823862Y-56329124D01*
X41804776Y-56310365D01*
X41802853Y-56301879D01*
X41797540Y-56294989D01*
X41795249Y-56268325D01*
X41789335Y-56242223D01*
X41792305Y-56234043D01*
X41791561Y-56225376D01*
X41804048Y-56201709D01*
X41813185Y-56176550D01*
X41821889Y-56167894D01*
X41824166Y-56163580D01*
X41837926Y-56151379D01*
X41839065Y-56150510D01*
X42004792Y-56030104D01*
X42155104Y-55879792D01*
X42155106Y-55879788D01*
X42155109Y-55879786D01*
X42280048Y-55707820D01*
X42280047Y-55707820D01*
X42280051Y-55707816D01*
X42376557Y-55518412D01*
X42442246Y-55316243D01*
X42475500Y-55106287D01*
X42475500Y-54893713D01*
X42442246Y-54683757D01*
X42376557Y-54481588D01*
X42280051Y-54292184D01*
X42280049Y-54292181D01*
X42280048Y-54292179D01*
X42155109Y-54120213D01*
X42004792Y-53969896D01*
X42004784Y-53969890D01*
X41840204Y-53850316D01*
X41797540Y-53794989D01*
X41791561Y-53725376D01*
X41824166Y-53663580D01*
X41840199Y-53649686D01*
X42004792Y-53530104D01*
X42155104Y-53379792D01*
X42155106Y-53379788D01*
X42155109Y-53379786D01*
X42280048Y-53207820D01*
X42280047Y-53207820D01*
X42280051Y-53207816D01*
X42376557Y-53018412D01*
X42442246Y-52816243D01*
X42475500Y-52606287D01*
X42475500Y-52393713D01*
X42442246Y-52183757D01*
X42376557Y-51981588D01*
X42280051Y-51792184D01*
X42280049Y-51792181D01*
X42280048Y-51792179D01*
X42155109Y-51620213D01*
X42004792Y-51469896D01*
X42004784Y-51469890D01*
X41840204Y-51350316D01*
X41797540Y-51294989D01*
X41791561Y-51225376D01*
X41824166Y-51163580D01*
X41840199Y-51149686D01*
X42004792Y-51030104D01*
X42155104Y-50879792D01*
X42155106Y-50879788D01*
X42155109Y-50879786D01*
X42280048Y-50707820D01*
X42280047Y-50707820D01*
X42280051Y-50707816D01*
X42376557Y-50518412D01*
X42442246Y-50316243D01*
X42475500Y-50106287D01*
X42475500Y-49893713D01*
X42442246Y-49683757D01*
X42376557Y-49481588D01*
X42280051Y-49292184D01*
X42280049Y-49292181D01*
X42280048Y-49292179D01*
X42155109Y-49120213D01*
X42004792Y-48969896D01*
X42003845Y-48969208D01*
X41840204Y-48850316D01*
X41797540Y-48794989D01*
X41791561Y-48725376D01*
X41824166Y-48663580D01*
X41840199Y-48649686D01*
X42004792Y-48530104D01*
X42155104Y-48379792D01*
X42155106Y-48379788D01*
X42155109Y-48379786D01*
X42280048Y-48207820D01*
X42280047Y-48207820D01*
X42280051Y-48207816D01*
X42376557Y-48018412D01*
X42442246Y-47816243D01*
X42475500Y-47606287D01*
X42475500Y-47393713D01*
X42442246Y-47183757D01*
X42376557Y-46981588D01*
X42280051Y-46792184D01*
X42280049Y-46792181D01*
X42280048Y-46792179D01*
X42155109Y-46620213D01*
X42004792Y-46469896D01*
X42003845Y-46469208D01*
X41840204Y-46350316D01*
X41797540Y-46294989D01*
X41791561Y-46225376D01*
X41824166Y-46163580D01*
X41840199Y-46149686D01*
X42004792Y-46030104D01*
X42155104Y-45879792D01*
X42155106Y-45879788D01*
X42155109Y-45879786D01*
X42280048Y-45707820D01*
X42280047Y-45707820D01*
X42280051Y-45707816D01*
X42376557Y-45518412D01*
X42442246Y-45316243D01*
X42475500Y-45106287D01*
X42475500Y-44893713D01*
X42442246Y-44683757D01*
X42376557Y-44481588D01*
X42280051Y-44292184D01*
X42280049Y-44292181D01*
X42280048Y-44292179D01*
X42155109Y-44120213D01*
X42004792Y-43969896D01*
X42003845Y-43969208D01*
X41840204Y-43850316D01*
X41797540Y-43794989D01*
X41791561Y-43725376D01*
X41824166Y-43663580D01*
X41840199Y-43649686D01*
X42004792Y-43530104D01*
X42155104Y-43379792D01*
X42155106Y-43379788D01*
X42155109Y-43379786D01*
X42280048Y-43207820D01*
X42280047Y-43207820D01*
X42280051Y-43207816D01*
X42376557Y-43018412D01*
X42442246Y-42816243D01*
X42475500Y-42606287D01*
X42475500Y-42393713D01*
X42442246Y-42183757D01*
X42376557Y-41981588D01*
X42280051Y-41792184D01*
X42280049Y-41792181D01*
X42280048Y-41792179D01*
X42155109Y-41620213D01*
X42004792Y-41469896D01*
X42003845Y-41469208D01*
X41840204Y-41350316D01*
X41797540Y-41294989D01*
X41791561Y-41225376D01*
X41824166Y-41163580D01*
X41840199Y-41149686D01*
X42004792Y-41030104D01*
X42155104Y-40879792D01*
X42155106Y-40879788D01*
X42155109Y-40879786D01*
X42280048Y-40707820D01*
X42280047Y-40707820D01*
X42280051Y-40707816D01*
X42376557Y-40518412D01*
X42442246Y-40316243D01*
X42475500Y-40106287D01*
X42475500Y-39893713D01*
X42442246Y-39683757D01*
X42376557Y-39481588D01*
X42280051Y-39292184D01*
X42280049Y-39292180D01*
X42263003Y-39268718D01*
X42263002Y-39268717D01*
X42212338Y-39198983D01*
X64922740Y-39198983D01*
X64922740Y-40499001D01*
X64922741Y-40499018D01*
X64933240Y-40601796D01*
X64933241Y-40601799D01*
X64988425Y-40768331D01*
X64988426Y-40768334D01*
X65057173Y-40879792D01*
X65080529Y-40917657D01*
X65204584Y-41041712D01*
X65359360Y-41137178D01*
X65406085Y-41189126D01*
X65417308Y-41258088D01*
X65389464Y-41322171D01*
X65381946Y-41330398D01*
X65243129Y-41469215D01*
X65118191Y-41641179D01*
X65021684Y-41830585D01*
X64955993Y-42032760D01*
X64922740Y-42242713D01*
X64922740Y-42455286D01*
X64955993Y-42665239D01*
X65021684Y-42867414D01*
X65118191Y-43056820D01*
X65243130Y-43228786D01*
X65393449Y-43379105D01*
X65393454Y-43379109D01*
X65558033Y-43498682D01*
X65600699Y-43554011D01*
X65606678Y-43623625D01*
X65574073Y-43685420D01*
X65558033Y-43699318D01*
X65393454Y-43818890D01*
X65393449Y-43818894D01*
X65243130Y-43969213D01*
X65118191Y-44141179D01*
X65021684Y-44330585D01*
X64955993Y-44532760D01*
X64922740Y-44742713D01*
X64922740Y-44955286D01*
X64955993Y-45165239D01*
X65021684Y-45367414D01*
X65118191Y-45556820D01*
X65243130Y-45728786D01*
X65393449Y-45879105D01*
X65393454Y-45879109D01*
X65558033Y-45998682D01*
X65600699Y-46054011D01*
X65606678Y-46123625D01*
X65574073Y-46185420D01*
X65558033Y-46199318D01*
X65393454Y-46318890D01*
X65393449Y-46318894D01*
X65243130Y-46469213D01*
X65118191Y-46641179D01*
X65021684Y-46830585D01*
X64955993Y-47032760D01*
X64922740Y-47242713D01*
X64922740Y-47455286D01*
X64955993Y-47665239D01*
X65021684Y-47867414D01*
X65118191Y-48056820D01*
X65243130Y-48228786D01*
X65393449Y-48379105D01*
X65393454Y-48379109D01*
X65558033Y-48498682D01*
X65600699Y-48554011D01*
X65606678Y-48623625D01*
X65574073Y-48685420D01*
X65558033Y-48699318D01*
X65393454Y-48818890D01*
X65393449Y-48818894D01*
X65243130Y-48969213D01*
X65118191Y-49141179D01*
X65021684Y-49330585D01*
X64955993Y-49532760D01*
X64922740Y-49742713D01*
X64922740Y-49955286D01*
X64955993Y-50165239D01*
X65021684Y-50367414D01*
X65118191Y-50556820D01*
X65243130Y-50728786D01*
X65393453Y-50879109D01*
X65565419Y-51004048D01*
X65565421Y-51004049D01*
X65565424Y-51004051D01*
X65754828Y-51100557D01*
X65956997Y-51166246D01*
X66166953Y-51199500D01*
X66166954Y-51199500D01*
X66629526Y-51199500D01*
X66629527Y-51199500D01*
X66839483Y-51166246D01*
X67041652Y-51100557D01*
X67231056Y-51004051D01*
X67253029Y-50988086D01*
X67403026Y-50879109D01*
X67403028Y-50879106D01*
X67403032Y-50879104D01*
X67553344Y-50728792D01*
X67553346Y-50728788D01*
X67553349Y-50728786D01*
X67678288Y-50556820D01*
X67678287Y-50556820D01*
X67678291Y-50556816D01*
X67774797Y-50367412D01*
X67840486Y-50165243D01*
X67873740Y-49955287D01*
X67873740Y-49742713D01*
X67840486Y-49532757D01*
X67774797Y-49330588D01*
X67678291Y-49141184D01*
X67678289Y-49141181D01*
X67678288Y-49141179D01*
X67553349Y-48969213D01*
X67403032Y-48818896D01*
X67403024Y-48818890D01*
X67238444Y-48699316D01*
X67195780Y-48643989D01*
X67189801Y-48574376D01*
X67222406Y-48512580D01*
X67238439Y-48498686D01*
X67403032Y-48379104D01*
X67553344Y-48228792D01*
X67553346Y-48228788D01*
X67553349Y-48228786D01*
X67678288Y-48056820D01*
X67678287Y-48056820D01*
X67678291Y-48056816D01*
X67774797Y-47867412D01*
X67840486Y-47665243D01*
X67873740Y-47455287D01*
X67873740Y-47242713D01*
X67840486Y-47032757D01*
X67774797Y-46830588D01*
X67678291Y-46641184D01*
X67678289Y-46641181D01*
X67678288Y-46641179D01*
X67553349Y-46469213D01*
X67403032Y-46318896D01*
X67403024Y-46318890D01*
X67238444Y-46199316D01*
X67195780Y-46143989D01*
X67189801Y-46074376D01*
X67222406Y-46012580D01*
X67238439Y-45998686D01*
X67403032Y-45879104D01*
X67553344Y-45728792D01*
X67553346Y-45728788D01*
X67553349Y-45728786D01*
X67678288Y-45556820D01*
X67678287Y-45556820D01*
X67678291Y-45556816D01*
X67774797Y-45367412D01*
X67840486Y-45165243D01*
X67873740Y-44955287D01*
X67873740Y-44742713D01*
X67840486Y-44532757D01*
X67774797Y-44330588D01*
X67678291Y-44141184D01*
X67678289Y-44141181D01*
X67678288Y-44141179D01*
X67553349Y-43969213D01*
X67403032Y-43818896D01*
X67403024Y-43818890D01*
X67238444Y-43699316D01*
X67195780Y-43643989D01*
X67189801Y-43574376D01*
X67222406Y-43512580D01*
X67238439Y-43498686D01*
X67403032Y-43379104D01*
X67553344Y-43228792D01*
X67553346Y-43228788D01*
X67553349Y-43228786D01*
X67678288Y-43056820D01*
X67678287Y-43056820D01*
X67678291Y-43056816D01*
X67774797Y-42867412D01*
X67840486Y-42665243D01*
X67873740Y-42455287D01*
X67873740Y-42242713D01*
X67840486Y-42032757D01*
X67774797Y-41830588D01*
X67678291Y-41641184D01*
X67678289Y-41641181D01*
X67678288Y-41641179D01*
X67553349Y-41469213D01*
X67414534Y-41330398D01*
X67381049Y-41269075D01*
X67386033Y-41199383D01*
X67427905Y-41143450D01*
X67437119Y-41137178D01*
X67442571Y-41133814D01*
X67442574Y-41133814D01*
X67591896Y-41041712D01*
X67715952Y-40917656D01*
X67808054Y-40768334D01*
X67863239Y-40601797D01*
X67873740Y-40499009D01*
X67873739Y-39198992D01*
X67863239Y-39096203D01*
X67808054Y-38929666D01*
X67715952Y-38780344D01*
X67591896Y-38656288D01*
X67442574Y-38564186D01*
X67276037Y-38509001D01*
X67276035Y-38509000D01*
X67173250Y-38498500D01*
X65623238Y-38498500D01*
X65623221Y-38498501D01*
X65520443Y-38509000D01*
X65520440Y-38509001D01*
X65353908Y-38564185D01*
X65353903Y-38564187D01*
X65204582Y-38656289D01*
X65080529Y-38780342D01*
X64988427Y-38929663D01*
X64988426Y-38929666D01*
X64933241Y-39096203D01*
X64933241Y-39096204D01*
X64933240Y-39096204D01*
X64922740Y-39198983D01*
X42212338Y-39198983D01*
X42155109Y-39120214D01*
X42155105Y-39120209D01*
X42004786Y-38969890D01*
X41832820Y-38844951D01*
X41643414Y-38748444D01*
X41643413Y-38748443D01*
X41643412Y-38748443D01*
X41441243Y-38682754D01*
X41441241Y-38682753D01*
X41441240Y-38682753D01*
X41274144Y-38656288D01*
X41231287Y-38649500D01*
X40768713Y-38649500D01*
X40725856Y-38656288D01*
X40558760Y-38682753D01*
X40356585Y-38748444D01*
X40167179Y-38844951D01*
X39995213Y-38969890D01*
X39844890Y-39120213D01*
X39719951Y-39292179D01*
X39623444Y-39481585D01*
X39557753Y-39683760D01*
X39524500Y-39893713D01*
X34975500Y-39893713D01*
X34942246Y-39683757D01*
X34876557Y-39481588D01*
X34780051Y-39292184D01*
X34780049Y-39292181D01*
X34780048Y-39292179D01*
X34655109Y-39120213D01*
X34504786Y-38969890D01*
X34332820Y-38844951D01*
X34143414Y-38748444D01*
X34143413Y-38748443D01*
X34143412Y-38748443D01*
X33941243Y-38682754D01*
X33941241Y-38682753D01*
X33941240Y-38682753D01*
X33774144Y-38656288D01*
X33731287Y-38649500D01*
X33268713Y-38649500D01*
X33225856Y-38656288D01*
X33058760Y-38682753D01*
X32856585Y-38748444D01*
X32667179Y-38844951D01*
X32495213Y-38969890D01*
X32344890Y-39120213D01*
X32219951Y-39292179D01*
X32123444Y-39481585D01*
X32057753Y-39683760D01*
X32024500Y-39893713D01*
X30500500Y-39893713D01*
X30500500Y-32893713D01*
X31649500Y-32893713D01*
X31649500Y-33106286D01*
X31682753Y-33316239D01*
X31748444Y-33518414D01*
X31844951Y-33707820D01*
X31969890Y-33879786D01*
X32120213Y-34030109D01*
X32292179Y-34155048D01*
X32292181Y-34155049D01*
X32292184Y-34155051D01*
X32481588Y-34251557D01*
X32683757Y-34317246D01*
X32893713Y-34350500D01*
X32893714Y-34350500D01*
X33106286Y-34350500D01*
X33106287Y-34350500D01*
X33316243Y-34317246D01*
X33518412Y-34251557D01*
X33707816Y-34155051D01*
X33729789Y-34139086D01*
X33879786Y-34030109D01*
X33879788Y-34030106D01*
X33879792Y-34030104D01*
X34030104Y-33879792D01*
X34030106Y-33879788D01*
X34030109Y-33879786D01*
X34155048Y-33707820D01*
X34155047Y-33707820D01*
X34155051Y-33707816D01*
X34251557Y-33518412D01*
X34317246Y-33316243D01*
X34350500Y-33106287D01*
X34350500Y-32893713D01*
X65649500Y-32893713D01*
X65649500Y-33106286D01*
X65682753Y-33316239D01*
X65748444Y-33518414D01*
X65844951Y-33707820D01*
X65969890Y-33879786D01*
X66120213Y-34030109D01*
X66292179Y-34155048D01*
X66292181Y-34155049D01*
X66292184Y-34155051D01*
X66481588Y-34251557D01*
X66683757Y-34317246D01*
X66893713Y-34350500D01*
X66893714Y-34350500D01*
X67106286Y-34350500D01*
X67106287Y-34350500D01*
X67316243Y-34317246D01*
X67518412Y-34251557D01*
X67707816Y-34155051D01*
X67729789Y-34139086D01*
X67879786Y-34030109D01*
X67879788Y-34030106D01*
X67879792Y-34030104D01*
X68030104Y-33879792D01*
X68030106Y-33879788D01*
X68030109Y-33879786D01*
X68155048Y-33707820D01*
X68155047Y-33707820D01*
X68155051Y-33707816D01*
X68251557Y-33518412D01*
X68317246Y-33316243D01*
X68350500Y-33106287D01*
X68350500Y-32893713D01*
X68317246Y-32683757D01*
X68251557Y-32481588D01*
X68155051Y-32292184D01*
X68155049Y-32292181D01*
X68155048Y-32292179D01*
X68030109Y-32120213D01*
X67879786Y-31969890D01*
X67707820Y-31844951D01*
X67518414Y-31748444D01*
X67518413Y-31748443D01*
X67518412Y-31748443D01*
X67316243Y-31682754D01*
X67316241Y-31682753D01*
X67316240Y-31682753D01*
X67154957Y-31657208D01*
X67106287Y-31649500D01*
X66893713Y-31649500D01*
X66845042Y-31657208D01*
X66683760Y-31682753D01*
X66481585Y-31748444D01*
X66292179Y-31844951D01*
X66120213Y-31969890D01*
X65969890Y-32120213D01*
X65844951Y-32292179D01*
X65748444Y-32481585D01*
X65682753Y-32683760D01*
X65649500Y-32893713D01*
X34350500Y-32893713D01*
X34317246Y-32683757D01*
X34251557Y-32481588D01*
X34155051Y-32292184D01*
X34155049Y-32292181D01*
X34155048Y-32292179D01*
X34030109Y-32120213D01*
X33879786Y-31969890D01*
X33707820Y-31844951D01*
X33518414Y-31748444D01*
X33518413Y-31748443D01*
X33518412Y-31748443D01*
X33316243Y-31682754D01*
X33316241Y-31682753D01*
X33316240Y-31682753D01*
X33154957Y-31657208D01*
X33106287Y-31649500D01*
X32893713Y-31649500D01*
X32845042Y-31657208D01*
X32683760Y-31682753D01*
X32481585Y-31748444D01*
X32292179Y-31844951D01*
X32120213Y-31969890D01*
X31969890Y-32120213D01*
X31844951Y-32292179D01*
X31748444Y-32481585D01*
X31682753Y-32683760D01*
X31649500Y-32893713D01*
X30500500Y-32893713D01*
X30500500Y-30624500D01*
X30520185Y-30557461D01*
X30572989Y-30511706D01*
X30624500Y-30500500D01*
X69375500Y-30500500D01*
X69442539Y-30520185D01*
G37*
%TD.AperFunction*%
%TD*%
M02*
