%TF.GenerationSoftware,KiCad,Pcbnew,9.0.2*%
%TF.CreationDate,2025-09-02T23:35:07-07:00*%
%TF.ProjectId,driver,64726976-6572-42e6-9b69-6361645f7063,rev?*%
%TF.SameCoordinates,Original*%
%TF.FileFunction,Legend,Top*%
%TF.FilePolarity,Positive*%
%FSLAX46Y46*%
G04 Gerber Fmt 4.6, Leading zero omitted, Abs format (unit mm)*
G04 Created by KiCad (PCBNEW 9.0.2) date 2025-09-02 23:35:07*
%MOMM*%
%LPD*%
G01*
G04 APERTURE LIST*
%ADD10C,0.150000*%
%ADD11C,0.000000*%
%ADD12C,0.152400*%
%ADD13C,0.120000*%
G04 APERTURE END LIST*
D10*
X52009819Y-63976189D02*
X51009819Y-63976189D01*
X51009819Y-63976189D02*
X51009819Y-63595237D01*
X51009819Y-63595237D02*
X51057438Y-63499999D01*
X51057438Y-63499999D02*
X51105057Y-63452380D01*
X51105057Y-63452380D02*
X51200295Y-63404761D01*
X51200295Y-63404761D02*
X51343152Y-63404761D01*
X51343152Y-63404761D02*
X51438390Y-63452380D01*
X51438390Y-63452380D02*
X51486009Y-63499999D01*
X51486009Y-63499999D02*
X51533628Y-63595237D01*
X51533628Y-63595237D02*
X51533628Y-63976189D01*
X52009819Y-62976189D02*
X51009819Y-62976189D01*
X51962200Y-62547618D02*
X52009819Y-62404761D01*
X52009819Y-62404761D02*
X52009819Y-62166666D01*
X52009819Y-62166666D02*
X51962200Y-62071428D01*
X51962200Y-62071428D02*
X51914580Y-62023809D01*
X51914580Y-62023809D02*
X51819342Y-61976190D01*
X51819342Y-61976190D02*
X51724104Y-61976190D01*
X51724104Y-61976190D02*
X51628866Y-62023809D01*
X51628866Y-62023809D02*
X51581247Y-62071428D01*
X51581247Y-62071428D02*
X51533628Y-62166666D01*
X51533628Y-62166666D02*
X51486009Y-62357142D01*
X51486009Y-62357142D02*
X51438390Y-62452380D01*
X51438390Y-62452380D02*
X51390771Y-62499999D01*
X51390771Y-62499999D02*
X51295533Y-62547618D01*
X51295533Y-62547618D02*
X51200295Y-62547618D01*
X51200295Y-62547618D02*
X51105057Y-62499999D01*
X51105057Y-62499999D02*
X51057438Y-62452380D01*
X51057438Y-62452380D02*
X51009819Y-62357142D01*
X51009819Y-62357142D02*
X51009819Y-62119047D01*
X51009819Y-62119047D02*
X51057438Y-61976190D01*
X51009819Y-61357142D02*
X51009819Y-61166666D01*
X51009819Y-61166666D02*
X51057438Y-61071428D01*
X51057438Y-61071428D02*
X51152676Y-60976190D01*
X51152676Y-60976190D02*
X51343152Y-60928571D01*
X51343152Y-60928571D02*
X51676485Y-60928571D01*
X51676485Y-60928571D02*
X51866961Y-60976190D01*
X51866961Y-60976190D02*
X51962200Y-61071428D01*
X51962200Y-61071428D02*
X52009819Y-61166666D01*
X52009819Y-61166666D02*
X52009819Y-61357142D01*
X52009819Y-61357142D02*
X51962200Y-61452380D01*
X51962200Y-61452380D02*
X51866961Y-61547618D01*
X51866961Y-61547618D02*
X51676485Y-61595237D01*
X51676485Y-61595237D02*
X51343152Y-61595237D01*
X51343152Y-61595237D02*
X51152676Y-61547618D01*
X51152676Y-61547618D02*
X51057438Y-61452380D01*
X51057438Y-61452380D02*
X51009819Y-61357142D01*
X52009819Y-59976190D02*
X52009819Y-60547618D01*
X52009819Y-60261904D02*
X51009819Y-60261904D01*
X51009819Y-60261904D02*
X51152676Y-60357142D01*
X51152676Y-60357142D02*
X51247914Y-60452380D01*
X51247914Y-60452380D02*
X51295533Y-60547618D01*
X44863019Y-64616199D02*
X45101114Y-64616199D01*
X45005876Y-64854294D02*
X45101114Y-64616199D01*
X45101114Y-64616199D02*
X45005876Y-64378104D01*
X45291590Y-64759056D02*
X45101114Y-64616199D01*
X45101114Y-64616199D02*
X45291590Y-64473342D01*
X44863019Y-64616199D02*
X45101114Y-64616199D01*
X45005876Y-64854294D02*
X45101114Y-64616199D01*
X45101114Y-64616199D02*
X45005876Y-64378104D01*
X45291590Y-64759056D02*
X45101114Y-64616199D01*
X45101114Y-64616199D02*
X45291590Y-64473342D01*
X53718461Y-44260180D02*
X53718461Y-45260180D01*
X53718461Y-45260180D02*
X53480366Y-45260180D01*
X53480366Y-45260180D02*
X53337509Y-45212561D01*
X53337509Y-45212561D02*
X53242271Y-45117323D01*
X53242271Y-45117323D02*
X53194652Y-45022085D01*
X53194652Y-45022085D02*
X53147033Y-44831609D01*
X53147033Y-44831609D02*
X53147033Y-44688752D01*
X53147033Y-44688752D02*
X53194652Y-44498276D01*
X53194652Y-44498276D02*
X53242271Y-44403038D01*
X53242271Y-44403038D02*
X53337509Y-44307800D01*
X53337509Y-44307800D02*
X53480366Y-44260180D01*
X53480366Y-44260180D02*
X53718461Y-44260180D01*
X52718461Y-44260180D02*
X52718461Y-44926847D01*
X52718461Y-44736371D02*
X52670842Y-44831609D01*
X52670842Y-44831609D02*
X52623223Y-44879228D01*
X52623223Y-44879228D02*
X52527985Y-44926847D01*
X52527985Y-44926847D02*
X52432747Y-44926847D01*
X52099413Y-44260180D02*
X52099413Y-44926847D01*
X52099413Y-45260180D02*
X52147032Y-45212561D01*
X52147032Y-45212561D02*
X52099413Y-45164942D01*
X52099413Y-45164942D02*
X52051794Y-45212561D01*
X52051794Y-45212561D02*
X52099413Y-45260180D01*
X52099413Y-45260180D02*
X52099413Y-45164942D01*
X51718461Y-44926847D02*
X51480366Y-44260180D01*
X51480366Y-44260180D02*
X51242271Y-44926847D01*
X50480366Y-44307800D02*
X50575604Y-44260180D01*
X50575604Y-44260180D02*
X50766080Y-44260180D01*
X50766080Y-44260180D02*
X50861318Y-44307800D01*
X50861318Y-44307800D02*
X50908937Y-44403038D01*
X50908937Y-44403038D02*
X50908937Y-44783990D01*
X50908937Y-44783990D02*
X50861318Y-44879228D01*
X50861318Y-44879228D02*
X50766080Y-44926847D01*
X50766080Y-44926847D02*
X50575604Y-44926847D01*
X50575604Y-44926847D02*
X50480366Y-44879228D01*
X50480366Y-44879228D02*
X50432747Y-44783990D01*
X50432747Y-44783990D02*
X50432747Y-44688752D01*
X50432747Y-44688752D02*
X50908937Y-44593514D01*
X50004175Y-44260180D02*
X50004175Y-44926847D01*
X50004175Y-44736371D02*
X49956556Y-44831609D01*
X49956556Y-44831609D02*
X49908937Y-44879228D01*
X49908937Y-44879228D02*
X49813699Y-44926847D01*
X49813699Y-44926847D02*
X49718461Y-44926847D01*
X48861318Y-44260180D02*
X49432746Y-44260180D01*
X49147032Y-44260180D02*
X49147032Y-45260180D01*
X49147032Y-45260180D02*
X49242270Y-45117323D01*
X49242270Y-45117323D02*
X49337508Y-45022085D01*
X49337508Y-45022085D02*
X49432746Y-44974466D01*
X56254000Y-51586619D02*
X56254000Y-51824714D01*
X56015905Y-51729476D02*
X56254000Y-51824714D01*
X56254000Y-51824714D02*
X56492095Y-51729476D01*
X56111143Y-52015190D02*
X56254000Y-51824714D01*
X56254000Y-51824714D02*
X56396857Y-52015190D01*
X56253999Y-52676980D02*
X56253999Y-52438885D01*
X56492094Y-52534123D02*
X56253999Y-52438885D01*
X56253999Y-52438885D02*
X56015904Y-52534123D01*
X56396856Y-52248409D02*
X56253999Y-52438885D01*
X56253999Y-52438885D02*
X56111142Y-52248409D01*
X50883333Y-51679580D02*
X50835714Y-51727200D01*
X50835714Y-51727200D02*
X50692857Y-51774819D01*
X50692857Y-51774819D02*
X50597619Y-51774819D01*
X50597619Y-51774819D02*
X50454762Y-51727200D01*
X50454762Y-51727200D02*
X50359524Y-51631961D01*
X50359524Y-51631961D02*
X50311905Y-51536723D01*
X50311905Y-51536723D02*
X50264286Y-51346247D01*
X50264286Y-51346247D02*
X50264286Y-51203390D01*
X50264286Y-51203390D02*
X50311905Y-51012914D01*
X50311905Y-51012914D02*
X50359524Y-50917676D01*
X50359524Y-50917676D02*
X50454762Y-50822438D01*
X50454762Y-50822438D02*
X50597619Y-50774819D01*
X50597619Y-50774819D02*
X50692857Y-50774819D01*
X50692857Y-50774819D02*
X50835714Y-50822438D01*
X50835714Y-50822438D02*
X50883333Y-50870057D01*
X51216667Y-50774819D02*
X51835714Y-50774819D01*
X51835714Y-50774819D02*
X51502381Y-51155771D01*
X51502381Y-51155771D02*
X51645238Y-51155771D01*
X51645238Y-51155771D02*
X51740476Y-51203390D01*
X51740476Y-51203390D02*
X51788095Y-51251009D01*
X51788095Y-51251009D02*
X51835714Y-51346247D01*
X51835714Y-51346247D02*
X51835714Y-51584342D01*
X51835714Y-51584342D02*
X51788095Y-51679580D01*
X51788095Y-51679580D02*
X51740476Y-51727200D01*
X51740476Y-51727200D02*
X51645238Y-51774819D01*
X51645238Y-51774819D02*
X51359524Y-51774819D01*
X51359524Y-51774819D02*
X51264286Y-51727200D01*
X51264286Y-51727200D02*
X51216667Y-51679580D01*
X63690476Y-54454819D02*
X63690476Y-53454819D01*
X63690476Y-53454819D02*
X64023809Y-54169104D01*
X64023809Y-54169104D02*
X64357142Y-53454819D01*
X64357142Y-53454819D02*
X64357142Y-54454819D01*
X64976190Y-54454819D02*
X64880952Y-54407200D01*
X64880952Y-54407200D02*
X64833333Y-54359580D01*
X64833333Y-54359580D02*
X64785714Y-54264342D01*
X64785714Y-54264342D02*
X64785714Y-53978628D01*
X64785714Y-53978628D02*
X64833333Y-53883390D01*
X64833333Y-53883390D02*
X64880952Y-53835771D01*
X64880952Y-53835771D02*
X64976190Y-53788152D01*
X64976190Y-53788152D02*
X65119047Y-53788152D01*
X65119047Y-53788152D02*
X65214285Y-53835771D01*
X65214285Y-53835771D02*
X65261904Y-53883390D01*
X65261904Y-53883390D02*
X65309523Y-53978628D01*
X65309523Y-53978628D02*
X65309523Y-54264342D01*
X65309523Y-54264342D02*
X65261904Y-54359580D01*
X65261904Y-54359580D02*
X65214285Y-54407200D01*
X65214285Y-54407200D02*
X65119047Y-54454819D01*
X65119047Y-54454819D02*
X64976190Y-54454819D01*
X65595238Y-53788152D02*
X65976190Y-53788152D01*
X65738095Y-53454819D02*
X65738095Y-54311961D01*
X65738095Y-54311961D02*
X65785714Y-54407200D01*
X65785714Y-54407200D02*
X65880952Y-54454819D01*
X65880952Y-54454819D02*
X65976190Y-54454819D01*
X66452381Y-54454819D02*
X66357143Y-54407200D01*
X66357143Y-54407200D02*
X66309524Y-54359580D01*
X66309524Y-54359580D02*
X66261905Y-54264342D01*
X66261905Y-54264342D02*
X66261905Y-53978628D01*
X66261905Y-53978628D02*
X66309524Y-53883390D01*
X66309524Y-53883390D02*
X66357143Y-53835771D01*
X66357143Y-53835771D02*
X66452381Y-53788152D01*
X66452381Y-53788152D02*
X66595238Y-53788152D01*
X66595238Y-53788152D02*
X66690476Y-53835771D01*
X66690476Y-53835771D02*
X66738095Y-53883390D01*
X66738095Y-53883390D02*
X66785714Y-53978628D01*
X66785714Y-53978628D02*
X66785714Y-54264342D01*
X66785714Y-54264342D02*
X66738095Y-54359580D01*
X66738095Y-54359580D02*
X66690476Y-54407200D01*
X66690476Y-54407200D02*
X66595238Y-54454819D01*
X66595238Y-54454819D02*
X66452381Y-54454819D01*
X67214286Y-54454819D02*
X67214286Y-53788152D01*
X67214286Y-53978628D02*
X67261905Y-53883390D01*
X67261905Y-53883390D02*
X67309524Y-53835771D01*
X67309524Y-53835771D02*
X67404762Y-53788152D01*
X67404762Y-53788152D02*
X67500000Y-53788152D01*
X68357143Y-54454819D02*
X67785715Y-54454819D01*
X68071429Y-54454819D02*
X68071429Y-53454819D01*
X68071429Y-53454819D02*
X67976191Y-53597676D01*
X67976191Y-53597676D02*
X67880953Y-53692914D01*
X67880953Y-53692914D02*
X67785715Y-53740533D01*
X59261904Y-65454819D02*
X59261904Y-64454819D01*
X59261904Y-64931009D02*
X59833332Y-64931009D01*
X59833332Y-65454819D02*
X59833332Y-64454819D01*
X60738094Y-65454819D02*
X60738094Y-64931009D01*
X60738094Y-64931009D02*
X60690475Y-64835771D01*
X60690475Y-64835771D02*
X60595237Y-64788152D01*
X60595237Y-64788152D02*
X60404761Y-64788152D01*
X60404761Y-64788152D02*
X60309523Y-64835771D01*
X60738094Y-65407200D02*
X60642856Y-65454819D01*
X60642856Y-65454819D02*
X60404761Y-65454819D01*
X60404761Y-65454819D02*
X60309523Y-65407200D01*
X60309523Y-65407200D02*
X60261904Y-65311961D01*
X60261904Y-65311961D02*
X60261904Y-65216723D01*
X60261904Y-65216723D02*
X60309523Y-65121485D01*
X60309523Y-65121485D02*
X60404761Y-65073866D01*
X60404761Y-65073866D02*
X60642856Y-65073866D01*
X60642856Y-65073866D02*
X60738094Y-65026247D01*
X61357142Y-65454819D02*
X61261904Y-65407200D01*
X61261904Y-65407200D02*
X61214285Y-65311961D01*
X61214285Y-65311961D02*
X61214285Y-64454819D01*
X61880952Y-65454819D02*
X61785714Y-65407200D01*
X61785714Y-65407200D02*
X61738095Y-65311961D01*
X61738095Y-65311961D02*
X61738095Y-64454819D01*
X62785714Y-65454819D02*
X62214286Y-65454819D01*
X62500000Y-65454819D02*
X62500000Y-64454819D01*
X62500000Y-64454819D02*
X62404762Y-64597676D01*
X62404762Y-64597676D02*
X62309524Y-64692914D01*
X62309524Y-64692914D02*
X62214286Y-64740533D01*
X62738095Y-33454819D02*
X62738095Y-32454819D01*
X62738095Y-32931009D02*
X63309523Y-32931009D01*
X63309523Y-33454819D02*
X63309523Y-32454819D01*
X64214285Y-32788152D02*
X64214285Y-33454819D01*
X63976190Y-32407200D02*
X63738095Y-33121485D01*
X63738095Y-33121485D02*
X64357142Y-33121485D01*
X62738095Y-67454819D02*
X62738095Y-66454819D01*
X62738095Y-66931009D02*
X63309523Y-66931009D01*
X63309523Y-67454819D02*
X63309523Y-66454819D01*
X63690476Y-66454819D02*
X64309523Y-66454819D01*
X64309523Y-66454819D02*
X63976190Y-66835771D01*
X63976190Y-66835771D02*
X64119047Y-66835771D01*
X64119047Y-66835771D02*
X64214285Y-66883390D01*
X64214285Y-66883390D02*
X64261904Y-66931009D01*
X64261904Y-66931009D02*
X64309523Y-67026247D01*
X64309523Y-67026247D02*
X64309523Y-67264342D01*
X64309523Y-67264342D02*
X64261904Y-67359580D01*
X64261904Y-67359580D02*
X64214285Y-67407200D01*
X64214285Y-67407200D02*
X64119047Y-67454819D01*
X64119047Y-67454819D02*
X63833333Y-67454819D01*
X63833333Y-67454819D02*
X63738095Y-67407200D01*
X63738095Y-67407200D02*
X63690476Y-67359580D01*
X35738095Y-67454819D02*
X35738095Y-66454819D01*
X35738095Y-66931009D02*
X36309523Y-66931009D01*
X36309523Y-67454819D02*
X36309523Y-66454819D01*
X37309523Y-67454819D02*
X36738095Y-67454819D01*
X37023809Y-67454819D02*
X37023809Y-66454819D01*
X37023809Y-66454819D02*
X36928571Y-66597676D01*
X36928571Y-66597676D02*
X36833333Y-66692914D01*
X36833333Y-66692914D02*
X36738095Y-66740533D01*
X35738095Y-33454819D02*
X35738095Y-32454819D01*
X35738095Y-32931009D02*
X36309523Y-32931009D01*
X36309523Y-33454819D02*
X36309523Y-32454819D01*
X36738095Y-32550057D02*
X36785714Y-32502438D01*
X36785714Y-32502438D02*
X36880952Y-32454819D01*
X36880952Y-32454819D02*
X37119047Y-32454819D01*
X37119047Y-32454819D02*
X37214285Y-32502438D01*
X37214285Y-32502438D02*
X37261904Y-32550057D01*
X37261904Y-32550057D02*
X37309523Y-32645295D01*
X37309523Y-32645295D02*
X37309523Y-32740533D01*
X37309523Y-32740533D02*
X37261904Y-32883390D01*
X37261904Y-32883390D02*
X36690476Y-33454819D01*
X36690476Y-33454819D02*
X37309523Y-33454819D01*
X32285714Y-64454819D02*
X32285714Y-63454819D01*
X32285714Y-63454819D02*
X32666666Y-63454819D01*
X32666666Y-63454819D02*
X32761904Y-63502438D01*
X32761904Y-63502438D02*
X32809523Y-63550057D01*
X32809523Y-63550057D02*
X32857142Y-63645295D01*
X32857142Y-63645295D02*
X32857142Y-63788152D01*
X32857142Y-63788152D02*
X32809523Y-63883390D01*
X32809523Y-63883390D02*
X32761904Y-63931009D01*
X32761904Y-63931009D02*
X32666666Y-63978628D01*
X32666666Y-63978628D02*
X32285714Y-63978628D01*
X33666666Y-64407200D02*
X33571428Y-64454819D01*
X33571428Y-64454819D02*
X33380952Y-64454819D01*
X33380952Y-64454819D02*
X33285714Y-64407200D01*
X33285714Y-64407200D02*
X33238095Y-64311961D01*
X33238095Y-64311961D02*
X33238095Y-63931009D01*
X33238095Y-63931009D02*
X33285714Y-63835771D01*
X33285714Y-63835771D02*
X33380952Y-63788152D01*
X33380952Y-63788152D02*
X33571428Y-63788152D01*
X33571428Y-63788152D02*
X33666666Y-63835771D01*
X33666666Y-63835771D02*
X33714285Y-63931009D01*
X33714285Y-63931009D02*
X33714285Y-64026247D01*
X33714285Y-64026247D02*
X33238095Y-64121485D01*
X34142857Y-64454819D02*
X34142857Y-63788152D01*
X34142857Y-63978628D02*
X34190476Y-63883390D01*
X34190476Y-63883390D02*
X34238095Y-63835771D01*
X34238095Y-63835771D02*
X34333333Y-63788152D01*
X34333333Y-63788152D02*
X34428571Y-63788152D01*
X34761905Y-64454819D02*
X34761905Y-63788152D01*
X34761905Y-63454819D02*
X34714286Y-63502438D01*
X34714286Y-63502438D02*
X34761905Y-63550057D01*
X34761905Y-63550057D02*
X34809524Y-63502438D01*
X34809524Y-63502438D02*
X34761905Y-63454819D01*
X34761905Y-63454819D02*
X34761905Y-63550057D01*
X35761904Y-64454819D02*
X35190476Y-64454819D01*
X35476190Y-64454819D02*
X35476190Y-63454819D01*
X35476190Y-63454819D02*
X35380952Y-63597676D01*
X35380952Y-63597676D02*
X35285714Y-63692914D01*
X35285714Y-63692914D02*
X35190476Y-63740533D01*
X46833333Y-52024819D02*
X46500000Y-51548628D01*
X46261905Y-52024819D02*
X46261905Y-51024819D01*
X46261905Y-51024819D02*
X46642857Y-51024819D01*
X46642857Y-51024819D02*
X46738095Y-51072438D01*
X46738095Y-51072438D02*
X46785714Y-51120057D01*
X46785714Y-51120057D02*
X46833333Y-51215295D01*
X46833333Y-51215295D02*
X46833333Y-51358152D01*
X46833333Y-51358152D02*
X46785714Y-51453390D01*
X46785714Y-51453390D02*
X46738095Y-51501009D01*
X46738095Y-51501009D02*
X46642857Y-51548628D01*
X46642857Y-51548628D02*
X46261905Y-51548628D01*
X47738095Y-51024819D02*
X47261905Y-51024819D01*
X47261905Y-51024819D02*
X47214286Y-51501009D01*
X47214286Y-51501009D02*
X47261905Y-51453390D01*
X47261905Y-51453390D02*
X47357143Y-51405771D01*
X47357143Y-51405771D02*
X47595238Y-51405771D01*
X47595238Y-51405771D02*
X47690476Y-51453390D01*
X47690476Y-51453390D02*
X47738095Y-51501009D01*
X47738095Y-51501009D02*
X47785714Y-51596247D01*
X47785714Y-51596247D02*
X47785714Y-51834342D01*
X47785714Y-51834342D02*
X47738095Y-51929580D01*
X47738095Y-51929580D02*
X47690476Y-51977200D01*
X47690476Y-51977200D02*
X47595238Y-52024819D01*
X47595238Y-52024819D02*
X47357143Y-52024819D01*
X47357143Y-52024819D02*
X47261905Y-51977200D01*
X47261905Y-51977200D02*
X47214286Y-51929580D01*
D11*
%TO.C,PISO1*%
G36*
X54920500Y-58291600D02*
G01*
X54539500Y-58291600D01*
X54539500Y-58037600D01*
X54920500Y-58037600D01*
X54920500Y-58291600D01*
G37*
D12*
X56558800Y-63089303D02*
X56558800Y-60910697D01*
X46551200Y-60910697D02*
X46551200Y-63089303D01*
X46551200Y-61695200D02*
G75*
G02*
X46551200Y-62304800I0J-304800D01*
G01*
D11*
%TO.C,Driver1*%
G36*
X57498600Y-39190500D02*
G01*
X57244600Y-39190500D01*
X57244600Y-38809500D01*
X57498600Y-38809500D01*
X57498600Y-39190500D01*
G37*
G36*
X45382800Y-50620500D02*
G01*
X45128800Y-50620500D01*
X45128800Y-50239500D01*
X45382800Y-50239500D01*
X45382800Y-50620500D01*
G37*
D12*
X55111000Y-38212600D02*
X47516400Y-38212600D01*
X47516400Y-51217400D02*
X55111000Y-51217400D01*
X51008900Y-51217400D02*
G75*
G02*
X51618500Y-51217400I304800J0D01*
G01*
D13*
%TO.C,C3*%
X50788748Y-52265000D02*
X51311252Y-52265000D01*
X50788748Y-53735000D02*
X51311252Y-53735000D01*
%TO.C,R4*%
X59937742Y-51477500D02*
X60412258Y-51477500D01*
X59937742Y-52522500D02*
X60412258Y-52522500D01*
%TO.C,R3*%
X59937742Y-47477500D02*
X60412258Y-47477500D01*
X59937742Y-48522500D02*
X60412258Y-48522500D01*
%TO.C,D1*%
X58727500Y-37265000D02*
X58727500Y-38735000D01*
X58727500Y-38735000D02*
X61012500Y-38735000D01*
X61012500Y-37265000D02*
X58727500Y-37265000D01*
%TO.C,Motor1*%
X62888240Y-37289000D02*
X62888240Y-52409000D01*
X62888240Y-52409000D02*
X68858240Y-52409000D01*
X63648240Y-38049000D02*
X63648240Y-44849000D01*
X63648240Y-51649000D02*
X63648240Y-44849000D01*
X66598240Y-37299000D02*
X66598240Y-38049000D01*
X66598240Y-38049000D02*
X63648240Y-38049000D01*
X66598240Y-51649000D02*
X63648240Y-51649000D01*
X66598240Y-52399000D02*
X66598240Y-51649000D01*
X68098240Y-37299000D02*
X68098240Y-39099000D01*
X68098240Y-39099000D02*
X68848240Y-39099000D01*
X68098240Y-40599000D02*
X68098240Y-49099000D01*
X68098240Y-49099000D02*
X68848240Y-49099000D01*
X68098240Y-50599000D02*
X68098240Y-52399000D01*
X68098240Y-52399000D02*
X68848240Y-52399000D01*
X68848240Y-37299000D02*
X68098240Y-37299000D01*
X68848240Y-39099000D02*
X68848240Y-37299000D01*
X68848240Y-40599000D02*
X68098240Y-40599000D01*
X68848240Y-49099000D02*
X68848240Y-40599000D01*
X68848240Y-50599000D02*
X68098240Y-50599000D01*
X68848240Y-52399000D02*
X68848240Y-50599000D01*
X68858240Y-37289000D02*
X62888240Y-37289000D01*
X68858240Y-52409000D02*
X68858240Y-37289000D01*
X69148240Y-36999000D02*
X67898240Y-36999000D01*
X69148240Y-38249000D02*
X69148240Y-36999000D01*
%TO.C,Hall1*%
X62670000Y-58270000D02*
X62670000Y-63410000D01*
X62670000Y-58270000D02*
X65330000Y-58270000D01*
X62670000Y-63410000D02*
X65330000Y-63410000D01*
X64000000Y-55670000D02*
X65330000Y-55670000D01*
X65330000Y-55670000D02*
X65330000Y-57000000D01*
X65330000Y-58270000D02*
X65330000Y-63410000D01*
%TO.C,C2*%
X47738748Y-56265000D02*
X48261252Y-56265000D01*
X47738748Y-57735000D02*
X48261252Y-57735000D01*
%TO.C,D2*%
X58727500Y-41265000D02*
X58727500Y-42735000D01*
X58727500Y-42735000D02*
X61012500Y-42735000D01*
X61012500Y-41265000D02*
X58727500Y-41265000D01*
%TO.C,D3*%
X58727500Y-45265000D02*
X58727500Y-46735000D01*
X58727500Y-46735000D02*
X61012500Y-46735000D01*
X61012500Y-45265000D02*
X58727500Y-45265000D01*
%TO.C,R2*%
X59937742Y-43477500D02*
X60412258Y-43477500D01*
X59937742Y-44522500D02*
X60412258Y-44522500D01*
%TO.C,Peri1*%
X30750000Y-61600000D02*
X30750000Y-62850000D01*
X30750000Y-62850000D02*
X32000000Y-62850000D01*
X31040000Y-37440000D02*
X31040000Y-62560000D01*
X31040000Y-62560000D02*
X37010000Y-62560000D01*
X31050000Y-37450000D02*
X31050000Y-39250000D01*
X31050000Y-39250000D02*
X31800000Y-39250000D01*
X31050000Y-40750000D02*
X31050000Y-59250000D01*
X31050000Y-59250000D02*
X31800000Y-59250000D01*
X31050000Y-60750000D02*
X31050000Y-62550000D01*
X31050000Y-62550000D02*
X31800000Y-62550000D01*
X31800000Y-37450000D02*
X31050000Y-37450000D01*
X31800000Y-39250000D02*
X31800000Y-37450000D01*
X31800000Y-40750000D02*
X31050000Y-40750000D01*
X31800000Y-59250000D02*
X31800000Y-40750000D01*
X31800000Y-60750000D02*
X31050000Y-60750000D01*
X31800000Y-62550000D02*
X31800000Y-60750000D01*
X33300000Y-37450000D02*
X33300000Y-38200000D01*
X33300000Y-38200000D02*
X36250000Y-38200000D01*
X33300000Y-61800000D02*
X36250000Y-61800000D01*
X33300000Y-62550000D02*
X33300000Y-61800000D01*
X36250000Y-38200000D02*
X36250000Y-50000000D01*
X36250000Y-61800000D02*
X36250000Y-50000000D01*
X37010000Y-37440000D02*
X31040000Y-37440000D01*
X37010000Y-62560000D02*
X37010000Y-37440000D01*
%TO.C,C1*%
X55261252Y-52265000D02*
X54738748Y-52265000D01*
X55261252Y-53735000D02*
X54738748Y-53735000D01*
%TO.C,D4*%
X58727500Y-49114000D02*
X58727500Y-50584000D01*
X58727500Y-50584000D02*
X61012500Y-50584000D01*
X61012500Y-49114000D02*
X58727500Y-49114000D01*
%TO.C,Ctrl1*%
X38250000Y-61600000D02*
X38250000Y-62850000D01*
X38250000Y-62850000D02*
X39500000Y-62850000D01*
X38540000Y-37440000D02*
X38540000Y-62560000D01*
X38540000Y-62560000D02*
X44510000Y-62560000D01*
X38550000Y-37450000D02*
X38550000Y-39250000D01*
X38550000Y-39250000D02*
X39300000Y-39250000D01*
X38550000Y-40750000D02*
X38550000Y-59250000D01*
X38550000Y-59250000D02*
X39300000Y-59250000D01*
X38550000Y-60750000D02*
X38550000Y-62550000D01*
X38550000Y-62550000D02*
X39300000Y-62550000D01*
X39300000Y-37450000D02*
X38550000Y-37450000D01*
X39300000Y-39250000D02*
X39300000Y-37450000D01*
X39300000Y-40750000D02*
X38550000Y-40750000D01*
X39300000Y-59250000D02*
X39300000Y-40750000D01*
X39300000Y-60750000D02*
X38550000Y-60750000D01*
X39300000Y-62550000D02*
X39300000Y-60750000D01*
X40800000Y-37450000D02*
X40800000Y-38200000D01*
X40800000Y-38200000D02*
X43750000Y-38200000D01*
X40800000Y-61800000D02*
X43750000Y-61800000D01*
X40800000Y-62550000D02*
X40800000Y-61800000D01*
X43750000Y-38200000D02*
X43750000Y-50000000D01*
X43750000Y-61800000D02*
X43750000Y-50000000D01*
X44510000Y-37440000D02*
X38540000Y-37440000D01*
X44510000Y-62560000D02*
X44510000Y-37440000D01*
%TO.C,R5*%
X46762742Y-52477500D02*
X47237258Y-52477500D01*
X46762742Y-53522500D02*
X47237258Y-53522500D01*
%TO.C,R1*%
X59937742Y-39477500D02*
X60412258Y-39477500D01*
X59937742Y-40522500D02*
X60412258Y-40522500D01*
%TD*%
M02*
