M48
; DRILL file {KiCad 9.0.2} date 2025-06-11T22:07:16-0700
; FORMAT={-:-/ absolute / metric / decimal}
; #@! TF.CreationDate,2025-06-11T22:07:16-07:00
; #@! TF.GenerationSoftware,Kicad,Pcbnew,9.0.2
; #@! TF.FileFunction,Plated,1,2,PTH
FMAT,2
METRIC
; #@! TA.AperFunction,Plated,PTH,ComponentDrill
T1C0.700
; #@! TA.AperFunction,Plated,PTH,ComponentDrill
T2C0.800
; #@! TA.AperFunction,Plated,PTH,ComponentDrill
T3C0.950
%
G90
G05
T1
X125.0Y-105.0
X127.5Y-105.0
X160.0Y-108.5
X160.0Y-111.0
X160.0Y-127.5
X160.0Y-130.0
T2
X122.38Y-109.96
X122.38Y-112.5
X122.38Y-115.04
X122.38Y-117.58
X122.38Y-120.12
X122.38Y-122.66
X122.38Y-125.2
X122.38Y-127.74
X130.0Y-109.96
X130.0Y-112.5
X130.0Y-115.04
X130.0Y-117.58
X130.0Y-120.12
X130.0Y-122.66
X130.0Y-125.2
X130.0Y-127.74
X135.92Y-107.0
X135.92Y-114.62
X135.92Y-124.19
X135.92Y-131.81
X138.46Y-107.0
X138.46Y-114.62
X138.46Y-124.19
X138.46Y-131.81
X141.0Y-107.0
X141.0Y-114.62
X141.0Y-124.19
X141.0Y-131.81
X143.54Y-107.0
X143.54Y-114.62
X143.54Y-124.19
X143.54Y-131.81
X146.08Y-107.0
X146.08Y-114.62
X146.08Y-124.19
X146.08Y-131.81
X148.62Y-107.0
X148.62Y-114.62
X148.62Y-124.19
X148.62Y-131.81
X151.16Y-107.0
X151.16Y-114.62
X151.16Y-124.19
X151.16Y-131.81
X153.7Y-107.0
X153.7Y-114.62
X153.7Y-124.19
X153.7Y-131.81
T3
X105.0Y-112.5
X105.0Y-115.0
X105.0Y-117.5
X105.0Y-120.0
X105.0Y-122.5
X105.0Y-125.0
X112.5Y-112.5
X112.5Y-115.0
X112.5Y-117.5
X112.5Y-120.0
X112.5Y-122.5
X112.5Y-125.0
X167.5Y-104.0
X167.5Y-106.5
X167.5Y-109.0
X167.5Y-111.5
X167.5Y-114.0
X168.0Y-122.0
X168.0Y-124.5
X168.0Y-127.0
X168.0Y-129.5
X168.0Y-132.0
M30
