%TF.GenerationSoftware,KiCad,Pcbnew,9.0.2*%
%TF.CreationDate,2025-06-11T22:07:18-07:00*%
%TF.ProjectId,driver,64726976-6572-42e6-9b69-6361645f7063,rev?*%
%TF.SameCoordinates,Original*%
%TF.FileFunction,Legend,Top*%
%TF.FilePolarity,Positive*%
%FSLAX46Y46*%
G04 Gerber Fmt 4.6, Leading zero omitted, Abs format (unit mm)*
G04 Created by KiCad (PCBNEW 9.0.2) date 2025-06-11 22:07:18*
%MOMM*%
%LPD*%
G01*
G04 APERTURE LIST*
%ADD10C,0.150000*%
%ADD11C,0.120000*%
G04 APERTURE END LIST*
D10*
X133044819Y-128761904D02*
X133854342Y-128761904D01*
X133854342Y-128761904D02*
X133949580Y-128714285D01*
X133949580Y-128714285D02*
X133997200Y-128666666D01*
X133997200Y-128666666D02*
X134044819Y-128571428D01*
X134044819Y-128571428D02*
X134044819Y-128380952D01*
X134044819Y-128380952D02*
X133997200Y-128285714D01*
X133997200Y-128285714D02*
X133949580Y-128238095D01*
X133949580Y-128238095D02*
X133854342Y-128190476D01*
X133854342Y-128190476D02*
X133044819Y-128190476D01*
X133140057Y-127761904D02*
X133092438Y-127714285D01*
X133092438Y-127714285D02*
X133044819Y-127619047D01*
X133044819Y-127619047D02*
X133044819Y-127380952D01*
X133044819Y-127380952D02*
X133092438Y-127285714D01*
X133092438Y-127285714D02*
X133140057Y-127238095D01*
X133140057Y-127238095D02*
X133235295Y-127190476D01*
X133235295Y-127190476D02*
X133330533Y-127190476D01*
X133330533Y-127190476D02*
X133473390Y-127238095D01*
X133473390Y-127238095D02*
X134044819Y-127809523D01*
X134044819Y-127809523D02*
X134044819Y-127190476D01*
X133044819Y-111571904D02*
X133854342Y-111571904D01*
X133854342Y-111571904D02*
X133949580Y-111524285D01*
X133949580Y-111524285D02*
X133997200Y-111476666D01*
X133997200Y-111476666D02*
X134044819Y-111381428D01*
X134044819Y-111381428D02*
X134044819Y-111190952D01*
X134044819Y-111190952D02*
X133997200Y-111095714D01*
X133997200Y-111095714D02*
X133949580Y-111048095D01*
X133949580Y-111048095D02*
X133854342Y-111000476D01*
X133854342Y-111000476D02*
X133044819Y-111000476D01*
X134044819Y-110000476D02*
X134044819Y-110571904D01*
X134044819Y-110286190D02*
X133044819Y-110286190D01*
X133044819Y-110286190D02*
X133187676Y-110381428D01*
X133187676Y-110381428D02*
X133282914Y-110476666D01*
X133282914Y-110476666D02*
X133330533Y-110571904D01*
X172004819Y-129738094D02*
X171004819Y-129738094D01*
X171004819Y-129738094D02*
X171719104Y-129404761D01*
X171719104Y-129404761D02*
X171004819Y-129071428D01*
X171004819Y-129071428D02*
X172004819Y-129071428D01*
X171004819Y-128404761D02*
X171004819Y-128214285D01*
X171004819Y-128214285D02*
X171052438Y-128119047D01*
X171052438Y-128119047D02*
X171147676Y-128023809D01*
X171147676Y-128023809D02*
X171338152Y-127976190D01*
X171338152Y-127976190D02*
X171671485Y-127976190D01*
X171671485Y-127976190D02*
X171861961Y-128023809D01*
X171861961Y-128023809D02*
X171957200Y-128119047D01*
X171957200Y-128119047D02*
X172004819Y-128214285D01*
X172004819Y-128214285D02*
X172004819Y-128404761D01*
X172004819Y-128404761D02*
X171957200Y-128499999D01*
X171957200Y-128499999D02*
X171861961Y-128595237D01*
X171861961Y-128595237D02*
X171671485Y-128642856D01*
X171671485Y-128642856D02*
X171338152Y-128642856D01*
X171338152Y-128642856D02*
X171147676Y-128595237D01*
X171147676Y-128595237D02*
X171052438Y-128499999D01*
X171052438Y-128499999D02*
X171004819Y-128404761D01*
X171004819Y-127690475D02*
X171004819Y-127119047D01*
X172004819Y-127404761D02*
X171004819Y-127404761D01*
X171004819Y-126595237D02*
X171004819Y-126404761D01*
X171004819Y-126404761D02*
X171052438Y-126309523D01*
X171052438Y-126309523D02*
X171147676Y-126214285D01*
X171147676Y-126214285D02*
X171338152Y-126166666D01*
X171338152Y-126166666D02*
X171671485Y-126166666D01*
X171671485Y-126166666D02*
X171861961Y-126214285D01*
X171861961Y-126214285D02*
X171957200Y-126309523D01*
X171957200Y-126309523D02*
X172004819Y-126404761D01*
X172004819Y-126404761D02*
X172004819Y-126595237D01*
X172004819Y-126595237D02*
X171957200Y-126690475D01*
X171957200Y-126690475D02*
X171861961Y-126785713D01*
X171861961Y-126785713D02*
X171671485Y-126833332D01*
X171671485Y-126833332D02*
X171338152Y-126833332D01*
X171338152Y-126833332D02*
X171147676Y-126785713D01*
X171147676Y-126785713D02*
X171052438Y-126690475D01*
X171052438Y-126690475D02*
X171004819Y-126595237D01*
X172004819Y-125166666D02*
X171528628Y-125499999D01*
X172004819Y-125738094D02*
X171004819Y-125738094D01*
X171004819Y-125738094D02*
X171004819Y-125357142D01*
X171004819Y-125357142D02*
X171052438Y-125261904D01*
X171052438Y-125261904D02*
X171100057Y-125214285D01*
X171100057Y-125214285D02*
X171195295Y-125166666D01*
X171195295Y-125166666D02*
X171338152Y-125166666D01*
X171338152Y-125166666D02*
X171433390Y-125214285D01*
X171433390Y-125214285D02*
X171481009Y-125261904D01*
X171481009Y-125261904D02*
X171528628Y-125357142D01*
X171528628Y-125357142D02*
X171528628Y-125738094D01*
X172004819Y-124214285D02*
X172004819Y-124785713D01*
X172004819Y-124499999D02*
X171004819Y-124499999D01*
X171004819Y-124499999D02*
X171147676Y-124595237D01*
X171147676Y-124595237D02*
X171242914Y-124690475D01*
X171242914Y-124690475D02*
X171290533Y-124785713D01*
X101988095Y-98554819D02*
X101988095Y-97554819D01*
X101988095Y-98031009D02*
X102559523Y-98031009D01*
X102559523Y-98554819D02*
X102559523Y-97554819D01*
X103559523Y-98554819D02*
X102988095Y-98554819D01*
X103273809Y-98554819D02*
X103273809Y-97554819D01*
X103273809Y-97554819D02*
X103178571Y-97697676D01*
X103178571Y-97697676D02*
X103083333Y-97792914D01*
X103083333Y-97792914D02*
X102988095Y-97840533D01*
X125428095Y-129524819D02*
X125428095Y-130334342D01*
X125428095Y-130334342D02*
X125475714Y-130429580D01*
X125475714Y-130429580D02*
X125523333Y-130477200D01*
X125523333Y-130477200D02*
X125618571Y-130524819D01*
X125618571Y-130524819D02*
X125809047Y-130524819D01*
X125809047Y-130524819D02*
X125904285Y-130477200D01*
X125904285Y-130477200D02*
X125951904Y-130429580D01*
X125951904Y-130429580D02*
X125999523Y-130334342D01*
X125999523Y-130334342D02*
X125999523Y-129524819D01*
X126380476Y-129524819D02*
X126999523Y-129524819D01*
X126999523Y-129524819D02*
X126666190Y-129905771D01*
X126666190Y-129905771D02*
X126809047Y-129905771D01*
X126809047Y-129905771D02*
X126904285Y-129953390D01*
X126904285Y-129953390D02*
X126951904Y-130001009D01*
X126951904Y-130001009D02*
X126999523Y-130096247D01*
X126999523Y-130096247D02*
X126999523Y-130334342D01*
X126999523Y-130334342D02*
X126951904Y-130429580D01*
X126951904Y-130429580D02*
X126904285Y-130477200D01*
X126904285Y-130477200D02*
X126809047Y-130524819D01*
X126809047Y-130524819D02*
X126523333Y-130524819D01*
X126523333Y-130524819D02*
X126428095Y-130477200D01*
X126428095Y-130477200D02*
X126380476Y-130429580D01*
X175988095Y-132554819D02*
X175988095Y-131554819D01*
X175988095Y-132031009D02*
X176559523Y-132031009D01*
X176559523Y-132554819D02*
X176559523Y-131554819D01*
X177464285Y-131888152D02*
X177464285Y-132554819D01*
X177226190Y-131507200D02*
X176988095Y-132221485D01*
X176988095Y-132221485D02*
X177607142Y-132221485D01*
X101988095Y-132554819D02*
X101988095Y-131554819D01*
X101988095Y-132031009D02*
X102559523Y-132031009D01*
X102559523Y-132554819D02*
X102559523Y-131554819D01*
X102940476Y-131554819D02*
X103559523Y-131554819D01*
X103559523Y-131554819D02*
X103226190Y-131935771D01*
X103226190Y-131935771D02*
X103369047Y-131935771D01*
X103369047Y-131935771D02*
X103464285Y-131983390D01*
X103464285Y-131983390D02*
X103511904Y-132031009D01*
X103511904Y-132031009D02*
X103559523Y-132126247D01*
X103559523Y-132126247D02*
X103559523Y-132364342D01*
X103559523Y-132364342D02*
X103511904Y-132459580D01*
X103511904Y-132459580D02*
X103464285Y-132507200D01*
X103464285Y-132507200D02*
X103369047Y-132554819D01*
X103369047Y-132554819D02*
X103083333Y-132554819D01*
X103083333Y-132554819D02*
X102988095Y-132507200D01*
X102988095Y-132507200D02*
X102940476Y-132459580D01*
X100904819Y-120226190D02*
X100904819Y-120035714D01*
X100904819Y-120035714D02*
X100952438Y-119940476D01*
X100952438Y-119940476D02*
X101047676Y-119845238D01*
X101047676Y-119845238D02*
X101238152Y-119797619D01*
X101238152Y-119797619D02*
X101571485Y-119797619D01*
X101571485Y-119797619D02*
X101761961Y-119845238D01*
X101761961Y-119845238D02*
X101857200Y-119940476D01*
X101857200Y-119940476D02*
X101904819Y-120035714D01*
X101904819Y-120035714D02*
X101904819Y-120226190D01*
X101904819Y-120226190D02*
X101857200Y-120321428D01*
X101857200Y-120321428D02*
X101761961Y-120416666D01*
X101761961Y-120416666D02*
X101571485Y-120464285D01*
X101571485Y-120464285D02*
X101238152Y-120464285D01*
X101238152Y-120464285D02*
X101047676Y-120416666D01*
X101047676Y-120416666D02*
X100952438Y-120321428D01*
X100952438Y-120321428D02*
X100904819Y-120226190D01*
X100904819Y-119369047D02*
X101714342Y-119369047D01*
X101714342Y-119369047D02*
X101809580Y-119321428D01*
X101809580Y-119321428D02*
X101857200Y-119273809D01*
X101857200Y-119273809D02*
X101904819Y-119178571D01*
X101904819Y-119178571D02*
X101904819Y-118988095D01*
X101904819Y-118988095D02*
X101857200Y-118892857D01*
X101857200Y-118892857D02*
X101809580Y-118845238D01*
X101809580Y-118845238D02*
X101714342Y-118797619D01*
X101714342Y-118797619D02*
X100904819Y-118797619D01*
X100904819Y-118464285D02*
X100904819Y-117892857D01*
X101904819Y-118178571D02*
X100904819Y-118178571D01*
X101904819Y-117035714D02*
X101904819Y-117607142D01*
X101904819Y-117321428D02*
X100904819Y-117321428D01*
X100904819Y-117321428D02*
X101047676Y-117416666D01*
X101047676Y-117416666D02*
X101142914Y-117511904D01*
X101142914Y-117511904D02*
X101190533Y-117607142D01*
X162609580Y-109916666D02*
X162657200Y-109964285D01*
X162657200Y-109964285D02*
X162704819Y-110107142D01*
X162704819Y-110107142D02*
X162704819Y-110202380D01*
X162704819Y-110202380D02*
X162657200Y-110345237D01*
X162657200Y-110345237D02*
X162561961Y-110440475D01*
X162561961Y-110440475D02*
X162466723Y-110488094D01*
X162466723Y-110488094D02*
X162276247Y-110535713D01*
X162276247Y-110535713D02*
X162133390Y-110535713D01*
X162133390Y-110535713D02*
X161942914Y-110488094D01*
X161942914Y-110488094D02*
X161847676Y-110440475D01*
X161847676Y-110440475D02*
X161752438Y-110345237D01*
X161752438Y-110345237D02*
X161704819Y-110202380D01*
X161704819Y-110202380D02*
X161704819Y-110107142D01*
X161704819Y-110107142D02*
X161752438Y-109964285D01*
X161752438Y-109964285D02*
X161800057Y-109916666D01*
X161800057Y-109535713D02*
X161752438Y-109488094D01*
X161752438Y-109488094D02*
X161704819Y-109392856D01*
X161704819Y-109392856D02*
X161704819Y-109154761D01*
X161704819Y-109154761D02*
X161752438Y-109059523D01*
X161752438Y-109059523D02*
X161800057Y-109011904D01*
X161800057Y-109011904D02*
X161895295Y-108964285D01*
X161895295Y-108964285D02*
X161990533Y-108964285D01*
X161990533Y-108964285D02*
X162133390Y-109011904D01*
X162133390Y-109011904D02*
X162704819Y-109583332D01*
X162704819Y-109583332D02*
X162704819Y-108964285D01*
X109404819Y-119749999D02*
X108404819Y-119749999D01*
X109404819Y-119273809D02*
X108404819Y-119273809D01*
X108404819Y-119273809D02*
X109404819Y-118702381D01*
X109404819Y-118702381D02*
X108404819Y-118702381D01*
X109404819Y-117702381D02*
X109404819Y-118273809D01*
X109404819Y-117988095D02*
X108404819Y-117988095D01*
X108404819Y-117988095D02*
X108547676Y-118083333D01*
X108547676Y-118083333D02*
X108642914Y-118178571D01*
X108642914Y-118178571D02*
X108690533Y-118273809D01*
X162609580Y-128916666D02*
X162657200Y-128964285D01*
X162657200Y-128964285D02*
X162704819Y-129107142D01*
X162704819Y-129107142D02*
X162704819Y-129202380D01*
X162704819Y-129202380D02*
X162657200Y-129345237D01*
X162657200Y-129345237D02*
X162561961Y-129440475D01*
X162561961Y-129440475D02*
X162466723Y-129488094D01*
X162466723Y-129488094D02*
X162276247Y-129535713D01*
X162276247Y-129535713D02*
X162133390Y-129535713D01*
X162133390Y-129535713D02*
X161942914Y-129488094D01*
X161942914Y-129488094D02*
X161847676Y-129440475D01*
X161847676Y-129440475D02*
X161752438Y-129345237D01*
X161752438Y-129345237D02*
X161704819Y-129202380D01*
X161704819Y-129202380D02*
X161704819Y-129107142D01*
X161704819Y-129107142D02*
X161752438Y-128964285D01*
X161752438Y-128964285D02*
X161800057Y-128916666D01*
X161704819Y-128583332D02*
X161704819Y-127964285D01*
X161704819Y-127964285D02*
X162085771Y-128297618D01*
X162085771Y-128297618D02*
X162085771Y-128154761D01*
X162085771Y-128154761D02*
X162133390Y-128059523D01*
X162133390Y-128059523D02*
X162181009Y-128011904D01*
X162181009Y-128011904D02*
X162276247Y-127964285D01*
X162276247Y-127964285D02*
X162514342Y-127964285D01*
X162514342Y-127964285D02*
X162609580Y-128011904D01*
X162609580Y-128011904D02*
X162657200Y-128059523D01*
X162657200Y-128059523D02*
X162704819Y-128154761D01*
X162704819Y-128154761D02*
X162704819Y-128440475D01*
X162704819Y-128440475D02*
X162657200Y-128535713D01*
X162657200Y-128535713D02*
X162609580Y-128583332D01*
X171504819Y-111738094D02*
X170504819Y-111738094D01*
X170504819Y-111738094D02*
X171219104Y-111404761D01*
X171219104Y-111404761D02*
X170504819Y-111071428D01*
X170504819Y-111071428D02*
X171504819Y-111071428D01*
X170504819Y-110404761D02*
X170504819Y-110214285D01*
X170504819Y-110214285D02*
X170552438Y-110119047D01*
X170552438Y-110119047D02*
X170647676Y-110023809D01*
X170647676Y-110023809D02*
X170838152Y-109976190D01*
X170838152Y-109976190D02*
X171171485Y-109976190D01*
X171171485Y-109976190D02*
X171361961Y-110023809D01*
X171361961Y-110023809D02*
X171457200Y-110119047D01*
X171457200Y-110119047D02*
X171504819Y-110214285D01*
X171504819Y-110214285D02*
X171504819Y-110404761D01*
X171504819Y-110404761D02*
X171457200Y-110499999D01*
X171457200Y-110499999D02*
X171361961Y-110595237D01*
X171361961Y-110595237D02*
X171171485Y-110642856D01*
X171171485Y-110642856D02*
X170838152Y-110642856D01*
X170838152Y-110642856D02*
X170647676Y-110595237D01*
X170647676Y-110595237D02*
X170552438Y-110499999D01*
X170552438Y-110499999D02*
X170504819Y-110404761D01*
X170504819Y-109690475D02*
X170504819Y-109119047D01*
X171504819Y-109404761D02*
X170504819Y-109404761D01*
X170504819Y-108595237D02*
X170504819Y-108404761D01*
X170504819Y-108404761D02*
X170552438Y-108309523D01*
X170552438Y-108309523D02*
X170647676Y-108214285D01*
X170647676Y-108214285D02*
X170838152Y-108166666D01*
X170838152Y-108166666D02*
X171171485Y-108166666D01*
X171171485Y-108166666D02*
X171361961Y-108214285D01*
X171361961Y-108214285D02*
X171457200Y-108309523D01*
X171457200Y-108309523D02*
X171504819Y-108404761D01*
X171504819Y-108404761D02*
X171504819Y-108595237D01*
X171504819Y-108595237D02*
X171457200Y-108690475D01*
X171457200Y-108690475D02*
X171361961Y-108785713D01*
X171361961Y-108785713D02*
X171171485Y-108833332D01*
X171171485Y-108833332D02*
X170838152Y-108833332D01*
X170838152Y-108833332D02*
X170647676Y-108785713D01*
X170647676Y-108785713D02*
X170552438Y-108690475D01*
X170552438Y-108690475D02*
X170504819Y-108595237D01*
X171504819Y-107166666D02*
X171028628Y-107499999D01*
X171504819Y-107738094D02*
X170504819Y-107738094D01*
X170504819Y-107738094D02*
X170504819Y-107357142D01*
X170504819Y-107357142D02*
X170552438Y-107261904D01*
X170552438Y-107261904D02*
X170600057Y-107214285D01*
X170600057Y-107214285D02*
X170695295Y-107166666D01*
X170695295Y-107166666D02*
X170838152Y-107166666D01*
X170838152Y-107166666D02*
X170933390Y-107214285D01*
X170933390Y-107214285D02*
X170981009Y-107261904D01*
X170981009Y-107261904D02*
X171028628Y-107357142D01*
X171028628Y-107357142D02*
X171028628Y-107738094D01*
X170600057Y-106785713D02*
X170552438Y-106738094D01*
X170552438Y-106738094D02*
X170504819Y-106642856D01*
X170504819Y-106642856D02*
X170504819Y-106404761D01*
X170504819Y-106404761D02*
X170552438Y-106309523D01*
X170552438Y-106309523D02*
X170600057Y-106261904D01*
X170600057Y-106261904D02*
X170695295Y-106214285D01*
X170695295Y-106214285D02*
X170790533Y-106214285D01*
X170790533Y-106214285D02*
X170933390Y-106261904D01*
X170933390Y-106261904D02*
X171504819Y-106833332D01*
X171504819Y-106833332D02*
X171504819Y-106214285D01*
X175988095Y-98554819D02*
X175988095Y-97554819D01*
X175988095Y-98031009D02*
X176559523Y-98031009D01*
X176559523Y-98554819D02*
X176559523Y-97554819D01*
X176988095Y-97650057D02*
X177035714Y-97602438D01*
X177035714Y-97602438D02*
X177130952Y-97554819D01*
X177130952Y-97554819D02*
X177369047Y-97554819D01*
X177369047Y-97554819D02*
X177464285Y-97602438D01*
X177464285Y-97602438D02*
X177511904Y-97650057D01*
X177511904Y-97650057D02*
X177559523Y-97745295D01*
X177559523Y-97745295D02*
X177559523Y-97840533D01*
X177559523Y-97840533D02*
X177511904Y-97983390D01*
X177511904Y-97983390D02*
X176940476Y-98554819D01*
X176940476Y-98554819D02*
X177559523Y-98554819D01*
X126083333Y-103109580D02*
X126035714Y-103157200D01*
X126035714Y-103157200D02*
X125892857Y-103204819D01*
X125892857Y-103204819D02*
X125797619Y-103204819D01*
X125797619Y-103204819D02*
X125654762Y-103157200D01*
X125654762Y-103157200D02*
X125559524Y-103061961D01*
X125559524Y-103061961D02*
X125511905Y-102966723D01*
X125511905Y-102966723D02*
X125464286Y-102776247D01*
X125464286Y-102776247D02*
X125464286Y-102633390D01*
X125464286Y-102633390D02*
X125511905Y-102442914D01*
X125511905Y-102442914D02*
X125559524Y-102347676D01*
X125559524Y-102347676D02*
X125654762Y-102252438D01*
X125654762Y-102252438D02*
X125797619Y-102204819D01*
X125797619Y-102204819D02*
X125892857Y-102204819D01*
X125892857Y-102204819D02*
X126035714Y-102252438D01*
X126035714Y-102252438D02*
X126083333Y-102300057D01*
X127035714Y-103204819D02*
X126464286Y-103204819D01*
X126750000Y-103204819D02*
X126750000Y-102204819D01*
X126750000Y-102204819D02*
X126654762Y-102347676D01*
X126654762Y-102347676D02*
X126559524Y-102442914D01*
X126559524Y-102442914D02*
X126464286Y-102490533D01*
D11*
%TO.C,U2*%
X134590000Y-130650000D02*
X155030000Y-130650000D01*
X155030000Y-130650000D02*
X155030000Y-125350000D01*
X134590000Y-129000000D02*
X134590000Y-130650000D01*
X134590000Y-125350000D02*
X134590000Y-127000000D01*
X155030000Y-125350000D02*
X134590000Y-125350000D01*
X134530000Y-133140000D02*
X155090000Y-133140000D01*
X155090000Y-122860000D01*
X134530000Y-122860000D01*
X134530000Y-133140000D01*
X134590000Y-127000000D02*
G75*
G02*
X134590000Y-129000000I0J-1000000D01*
G01*
%TO.C,U1*%
X134590000Y-113460000D02*
X155030000Y-113460000D01*
X155030000Y-113460000D02*
X155030000Y-108160000D01*
X134590000Y-111810000D02*
X134590000Y-113460000D01*
X134590000Y-108160000D02*
X134590000Y-109810000D01*
X155030000Y-108160000D02*
X134590000Y-108160000D01*
X134530000Y-115950000D02*
X155090000Y-115950000D01*
X155090000Y-105670000D01*
X134530000Y-105670000D01*
X134530000Y-115950000D01*
X134590000Y-109810000D02*
G75*
G02*
X134590000Y-111810000I0J-1000000D01*
G01*
%TO.C,MOTOR1*%
X164490000Y-134560000D02*
X170460000Y-134560000D01*
X170460000Y-134560000D02*
X170460000Y-119440000D01*
X168200000Y-134550000D02*
X168200000Y-133800000D01*
X169700000Y-134550000D02*
X170450000Y-134550000D01*
X170450000Y-134550000D02*
X170450000Y-132750000D01*
X165250000Y-133800000D02*
X165250000Y-127000000D01*
X168200000Y-133800000D02*
X165250000Y-133800000D01*
X169700000Y-132750000D02*
X169700000Y-134550000D01*
X170450000Y-132750000D02*
X169700000Y-132750000D01*
X169700000Y-131250000D02*
X170450000Y-131250000D01*
X170450000Y-131250000D02*
X170450000Y-122750000D01*
X169700000Y-122750000D02*
X169700000Y-131250000D01*
X170450000Y-122750000D02*
X169700000Y-122750000D01*
X169700000Y-121250000D02*
X170450000Y-121250000D01*
X170450000Y-121250000D02*
X170450000Y-119450000D01*
X170750000Y-120400000D02*
X170750000Y-119150000D01*
X165250000Y-120200000D02*
X165250000Y-127000000D01*
X168200000Y-120200000D02*
X165250000Y-120200000D01*
X168200000Y-119450000D02*
X168200000Y-120200000D01*
X169700000Y-119450000D02*
X169700000Y-121250000D01*
X170450000Y-119450000D02*
X169700000Y-119450000D01*
X164490000Y-119440000D02*
X164490000Y-134560000D01*
X170460000Y-119440000D02*
X164490000Y-119440000D01*
X170750000Y-119150000D02*
X169500000Y-119150000D01*
%TO.C,U3*%
X128840000Y-129070000D02*
X128840000Y-108630000D01*
X128840000Y-108630000D02*
X123540000Y-108630000D01*
X127190000Y-129070000D02*
X128840000Y-129070000D01*
X123540000Y-129070000D02*
X125190000Y-129070000D01*
X123540000Y-108630000D02*
X123540000Y-129070000D01*
X131330000Y-129130000D02*
X121050000Y-129130000D01*
X121050000Y-108570000D01*
X131330000Y-108570000D01*
X131330000Y-129130000D01*
X125190000Y-129070000D02*
G75*
G02*
X127190000Y-129070000I1000000J0D01*
G01*
%TO.C,OUT1*%
X102250000Y-127850000D02*
X103500000Y-127850000D01*
X102540000Y-127560000D02*
X108510000Y-127560000D01*
X108510000Y-127560000D02*
X108510000Y-109940000D01*
X102550000Y-127550000D02*
X103300000Y-127550000D01*
X103300000Y-127550000D02*
X103300000Y-125750000D01*
X104800000Y-127550000D02*
X104800000Y-126800000D01*
X104800000Y-126800000D02*
X107750000Y-126800000D01*
X107750000Y-126800000D02*
X107750000Y-118750000D01*
X102250000Y-126600000D02*
X102250000Y-127850000D01*
X102550000Y-125750000D02*
X102550000Y-127550000D01*
X103300000Y-125750000D02*
X102550000Y-125750000D01*
X102550000Y-124250000D02*
X103300000Y-124250000D01*
X103300000Y-124250000D02*
X103300000Y-113250000D01*
X102550000Y-113250000D02*
X102550000Y-124250000D01*
X103300000Y-113250000D02*
X102550000Y-113250000D01*
X102550000Y-111750000D02*
X103300000Y-111750000D01*
X103300000Y-111750000D02*
X103300000Y-109950000D01*
X104800000Y-110700000D02*
X107750000Y-110700000D01*
X107750000Y-110700000D02*
X107750000Y-118750000D01*
X102550000Y-109950000D02*
X102550000Y-111750000D01*
X103300000Y-109950000D02*
X102550000Y-109950000D01*
X104800000Y-109950000D02*
X104800000Y-110700000D01*
X102540000Y-109940000D02*
X102540000Y-127560000D01*
X108510000Y-109940000D02*
X102540000Y-109940000D01*
%TO.C,C2*%
X161120000Y-112170000D02*
X158880000Y-112170000D01*
X158880000Y-107330000D02*
X158880000Y-112170000D01*
X161120000Y-107330000D02*
X161120000Y-112170000D01*
X161120000Y-107330000D02*
X158880000Y-107330000D01*
%TO.C,IN1*%
X116010000Y-109940000D02*
X110040000Y-109940000D01*
X110040000Y-109940000D02*
X110040000Y-127560000D01*
X112300000Y-109950000D02*
X112300000Y-110700000D01*
X110800000Y-109950000D02*
X110050000Y-109950000D01*
X110050000Y-109950000D02*
X110050000Y-111750000D01*
X115250000Y-110700000D02*
X115250000Y-118750000D01*
X112300000Y-110700000D02*
X115250000Y-110700000D01*
X110800000Y-111750000D02*
X110800000Y-109950000D01*
X110050000Y-111750000D02*
X110800000Y-111750000D01*
X110800000Y-113250000D02*
X110050000Y-113250000D01*
X110050000Y-113250000D02*
X110050000Y-124250000D01*
X110800000Y-124250000D02*
X110800000Y-113250000D01*
X110050000Y-124250000D02*
X110800000Y-124250000D01*
X110800000Y-125750000D02*
X110050000Y-125750000D01*
X110050000Y-125750000D02*
X110050000Y-127550000D01*
X109750000Y-126600000D02*
X109750000Y-127850000D01*
X115250000Y-126800000D02*
X115250000Y-118750000D01*
X112300000Y-126800000D02*
X115250000Y-126800000D01*
X112300000Y-127550000D02*
X112300000Y-126800000D01*
X110800000Y-127550000D02*
X110800000Y-125750000D01*
X110050000Y-127550000D02*
X110800000Y-127550000D01*
X116010000Y-127560000D02*
X116010000Y-109940000D01*
X110040000Y-127560000D02*
X116010000Y-127560000D01*
X109750000Y-127850000D02*
X111000000Y-127850000D01*
%TO.C,C3*%
X161120000Y-131170000D02*
X158880000Y-131170000D01*
X158880000Y-126330000D02*
X158880000Y-131170000D01*
X161120000Y-126330000D02*
X161120000Y-131170000D01*
X161120000Y-126330000D02*
X158880000Y-126330000D01*
%TO.C,MOTOR2*%
X163990000Y-116560000D02*
X169960000Y-116560000D01*
X169960000Y-116560000D02*
X169960000Y-101440000D01*
X167700000Y-116550000D02*
X167700000Y-115800000D01*
X169200000Y-116550000D02*
X169950000Y-116550000D01*
X169950000Y-116550000D02*
X169950000Y-114750000D01*
X164750000Y-115800000D02*
X164750000Y-109000000D01*
X167700000Y-115800000D02*
X164750000Y-115800000D01*
X169200000Y-114750000D02*
X169200000Y-116550000D01*
X169950000Y-114750000D02*
X169200000Y-114750000D01*
X169200000Y-113250000D02*
X169950000Y-113250000D01*
X169950000Y-113250000D02*
X169950000Y-104750000D01*
X169200000Y-104750000D02*
X169200000Y-113250000D01*
X169950000Y-104750000D02*
X169200000Y-104750000D01*
X169200000Y-103250000D02*
X169950000Y-103250000D01*
X169950000Y-103250000D02*
X169950000Y-101450000D01*
X170250000Y-102400000D02*
X170250000Y-101150000D01*
X164750000Y-102200000D02*
X164750000Y-109000000D01*
X167700000Y-102200000D02*
X164750000Y-102200000D01*
X167700000Y-101450000D02*
X167700000Y-102200000D01*
X169200000Y-101450000D02*
X169200000Y-103250000D01*
X169950000Y-101450000D02*
X169200000Y-101450000D01*
X163990000Y-101440000D02*
X163990000Y-116560000D01*
X169960000Y-101440000D02*
X163990000Y-101440000D01*
X170250000Y-101150000D02*
X169000000Y-101150000D01*
%TO.C,C1*%
X123830000Y-103880000D02*
X123830000Y-106120000D01*
X123830000Y-103880000D02*
X128670000Y-103880000D01*
X123830000Y-106120000D02*
X128670000Y-106120000D01*
X128670000Y-103880000D02*
X128670000Y-106120000D01*
%TD*%
M02*
